<?xml version="1.0" standalone="no"?>
<!DOCTYPE svg PUBLIC "-//W3C//DTD SVG 20010904//EN"
 "http://www.w3.org/TR/2001/REC-SVG-20010904/DTD/svg10.dtd">
<svg version="1.0" xmlns="http://www.w3.org/2000/svg"
 width="500.000000pt" height="500.000000pt" viewBox="0 0 500.000000 500.000000"
 preserveAspectRatio="xMidYMid meet">
<metadata>
Created by potrace 1.11, written by Peter Selinger 2001-2013
</metadata>
<g transform="translate(0.000000,500.000000) scale(0.100000,-0.100000)"
fill="#000000" stroke="none">
<path d="M1285 2460 l0 -2350 35 -1 c158 -3 743 0 746 4 6 6 5 201 -1 527 -2
129 -7 399 -10 600 -3 201 -8 488 -10 638 l-5 272 33 0 c17 1 371 1 785 1
l752 1 1 26 c3 151 0 624 -5 629 -3 3 -357 6 -786 5 l-780 0 5 231 c2 128 7
360 11 517 3 157 7 341 9 410 1 69 3 131 4 138 1 10 116 11 594 6 325 -3 720
-7 877 -7 l285 -2 2 353 1 352 -1271 0 -1272 0 0 -2350z"/>
</g>
</svg>
