<?xml version="1.0" standalone="no"?>
<!DOCTYPE svg PUBLIC "-//W3C//DTD SVG 20010904//EN"
 "http://www.w3.org/TR/2001/REC-SVG-20010904/DTD/svg10.dtd">
<svg version="1.0" xmlns="http://www.w3.org/2000/svg"
 width="2084.000000pt" height="2084.000000pt" viewBox="0 0 2084.000000 2084.000000"
 preserveAspectRatio="xMidYMid meet">
<metadata>
Created by potrace 1.11, written by Peter Selinger 2001-2013
</metadata>
<g transform="translate(0.000000,2084.000000) scale(0.100000,-0.100000)"
fill="#000000" stroke="none">
<path d="M7419 16866 c-1 0 -2 -2974 -3 -6608 l-1 -6608 60 -1 c66 0 1933 0
1952 1 13 0 13 16 -2 890 -3 173 -7 455 -10 625 -3 171 -7 438 -10 595 -11
675 -16 951 -20 1205 -2 149 -7 434 -10 635 -12 693 -14 807 -20 1230 -4 234
-8 478 -9 543 l-3 117 66 0 c36 1 1049 1 2251 1 l2185 0 0 830 c0 549 -3 829
-10 830 -5 1 -1018 2 -2250 3 l-2240 1 1 100 c1 87 7 392 19 970 2 88 6 302
10 475 3 173 8 398 10 500 6 303 16 793 20 970 12 635 19 931 24 952 0 4 164
5 364 3 485 -6 1173 -14 1722 -20 248 -3 637 -7 865 -10 981 -12 1386 -16
1723 -20 l357 -3 0 898 0 898 -3520 0 c-1936 0 -3521 -1 -3521 -2z"/>
</g>
</svg>
