<?xml version="1.0" encoding="utf-8"?>
<!-- Generator: Adobe Illustrator 22.0.1, SVG Export Plug-In . SVG Version: 6.00 Build 0)  -->
<svg version="1.1" id="Layer_1" xmlns="http://www.w3.org/2000/svg" xmlns:xlink="http://www.w3.org/1999/xlink" x="0px" y="0px"
	 viewBox="0 0 267 273.5" style="enable-background:new 0 0 267 273.5;" xml:space="preserve">
<style type="text/css">
	.st0{fill:#FFFFFF;}
</style>
<g>
	<g>
		<g>
			<path class="st0" d="M63.7,112.4c1.6-4.1,4.5-2,6.8-2.1c2.4-0.1,4.2,1.8,4.3,4.5c0.7,15.7,0.3,29.8-5.1,44.5
				c-0.5,0.5-3,0.2-3.7-0.4c-2.3-2.4-2.7-5.1-3.1-9c-0.4-4.5,0-13.6,0-18.7c-2.1,2.3-4.4,7.2-7.4,6.9c-2-0.2-3-2.1-3.7-3.4
				C52.2,132.9,59.7,122.3,63.7,112.4z"/>
			<path class="st0" d="M209.7,119.8c-4.9,2.3-9.5,5.1-12.5,9.9c-2.4,3.9-2,5.1,2.5,5.8c1.5,0.3,3.2,0.4,4.5,1.1
				c5.5,2.6,6.1,7,1,10.3c-5.3,3.6-11.2,6.4-18,6.2c-2.1-0.1-4-0.4-4.4-2.4c-0.4-1.7,1.7-2.5,3.1-3.1c4.2-1.8,11.2-7.5,11.4-8.4
				c0.2-1.3-8.1-3.3-8.5-8.5c-0.3-3.9,1-7.4,3.5-10.3c7.7-8.7,10.9-9.2,17.4-2.8C210.1,118.3,210.3,118.8,209.7,119.8z"/>
			<path class="st0" d="M175.3,130.2c-1.4,0.2-1.7,5.5-3.4,9c-0.6,1.2-2.5,2.5-3.1,2.8c-3.2,2-6.3,0.7-9.9-2.4
				c-1.5,4.8-3.1,9.6-4.6,14c-0.4,1.3-0.8,2.9-2.7,2.5c-1.8-0.3-1.4-1.9-1.4-3.3c-0.5-9.2,1.7-18,3.9-26.7c0.9-3.7,3.5-3.2,5.7-0.8
				c2.8,3,3.9,6.9,5.1,11.1c3.1-3.9,5.4-7.7,8.2-11.3c2.8-3.5,3.7-3.5,6.9-2.2c3.3,1.4,4.8,3.8,4.1,7c-1.6,7.6-4.3,21.3-5.8,21.3
				c-2.5-0.1-1.9-1-2.4-1.9c-0.6-1.1-0.9-8.1-0.8-11.9c0-1.2,0.3-3.7,0.5-4.9C175.8,131.4,175.9,130.3,175.3,130.2z"/>
			<path class="st0" d="M133.7,125.6c2.9-3.1,4.9-6.9,9.2-2.9c1.6,1.4,2,2.7,0.4,4.4c-2.9,3.2-9.6,7.5-8.7,9.6
				c0.5,1.1,7.9,3.9,10.9,6.8c0.5,0.5,0.4,1-0.2,1.3c-2,0.1-5.7-1-8.2-2.6c-3.5-2.2-4.4-1.5-5.7,2.2c-0.3,1-1.3,2.9-1.8,3.9
				c-0.8,1.9-2,3.4-4.3,2.9c-2.4-0.5-2.2-3.3-2.3-5.3c-0.3-4.9,0.3-8.3,1.7-13c0.6-2.2,2-12.6,4.1-12.6
				C131.9,120.2,133,121.5,133.7,125.6z"/>
			<path class="st0" d="M95.3,133.4c-2.9-0.2-3.8,0.2-9,1.2c1.9-6.3,3.7-13,5.6-19.3c0.6-1.9,1.2-4.1-1.4-4.7
				c-2.2-0.5-4.6-1.1-5.6,2.1c-3.6,10.9-6.9,22-5.5,33.7c0.5,4.4,1.6,8.3,7,9c6.4,0.8,10.2-1.3,12.6-6.9c1.1-2.6,1.3-5.4,2.1-8
				C102.8,134.5,99.6,133.7,95.3,133.4z M94.5,142.4c-1.1,3.1-2.3,7.5-4.5,8c-1.5-0.4-2.3-5.6-2.9-8.5c-0.6-2.6,1.9-2.9,3.4-3.8
				c1.4-0.8,4-1.3,4.8-0.5C96.3,138.5,95,141,94.5,142.4z"/>
		</g>
		<g>
			<path class="st0" d="M108.6,194.6c1.8,0,3.2,0.4,4.3,1.3c1.1,0.9,1.7,2,1.7,3.5c0,1-0.3,2-0.9,3c-0.6,1-1.3,2-2.2,3
				c-1.5,1.7-2.7,3.1-3.7,4.1v0.2l7.2-0.2v3.4l-12.9,0v-2.9c1.3-1.2,2.7-2.8,4.3-4.6c1.6-1.8,2.7-3.1,3.3-4c0.6-0.8,0.9-1.6,0.9-2.2
				c0-0.8-0.5-1.1-1.5-1.1c-0.7,0-1.6,0.2-2.6,0.6s-2.1,0.9-3,1.5l-1.6-3c0.7-0.6,1.7-1.2,3-1.7C106,194.9,107.3,194.6,108.6,194.6z
				"/>
			<path class="st0" d="M126.1,213.1c-0.7,0.2-1.5,0.2-2.4,0.2c-0.9,0-1.8-0.1-2.6-0.4c-0.8-0.3-1.5-0.7-2.2-1.4
				c-0.7-0.7-1.2-1.6-1.5-2.9c-0.3-1.3-0.5-2.8-0.5-4.6c0-1.8,0.2-3.4,0.5-4.6c0.3-1.3,0.8-2.2,1.5-2.9c0.7-0.7,1.4-1.1,2.2-1.4
				c0.8-0.3,1.6-0.4,2.6-0.4c0.9,0,1.7,0.1,2.4,0.2c0.7,0.2,1.3,0.5,1.9,0.9c0.6,0.4,1.1,1,1.5,1.7c0.9,1.5,1.3,3.7,1.3,6.6
				c0,4.2-0.9,6.9-2.8,8.3C127.4,212.6,126.8,212.9,126.1,213.1z M122.4,198.4c-0.4,0.3-0.7,0.9-0.9,1.8c-0.2,0.9-0.3,2.3-0.3,4.3
				c0,2,0.2,3.4,0.7,4.2c0.4,0.9,1.2,1.3,2.2,1.3c1,0,1.7-0.4,2.1-1.3c0.4-0.8,0.7-2.4,0.7-4.8s-0.2-3.9-0.7-4.7
				c-0.5-0.8-1.2-1.2-2.1-1.2C123.3,198,122.8,198.1,122.4,198.4z"/>
			<path class="st0" d="M133.4,213v-3.4l4.4,0l0.2-10.3h-0.2l-3,3l-2.5-2.6l5.7-4.9l3.8,0.3v14.6l3.9-0.1l0,3.4H133.4z"/>
			<path class="st0" d="M147.4,199.7c0-1.6,0.5-2.8,1.6-3.7c1.1-0.9,2.5-1.3,4.5-1.3c1.9,0,3.4,0.5,4.5,1.4c1,0.9,1.6,2.1,1.6,3.5
				c0,1.7-0.8,3.1-2.3,4.2c0.8,0.4,1.5,0.9,2.1,1.7c0.6,0.7,0.9,1.6,0.9,2.6c0,1.5-0.6,2.7-1.9,3.8c-1.2,1.1-2.9,1.6-5,1.6
				c-2.1,0-3.7-0.6-4.9-1.7c-1.2-1.1-1.8-2.4-1.8-3.9c0-0.9,0.2-1.7,0.7-2.5c0.5-0.8,1.1-1.4,1.9-1.8
				C148,202.5,147.4,201.2,147.4,199.7z M156.2,208c0-0.7-0.2-1.2-0.7-1.6c-0.5-0.4-1.4-0.8-2.7-1.2c-0.7,0.2-1.2,0.6-1.5,1
				c-0.3,0.4-0.5,0.9-0.5,1.6c0,1.5,0.9,2.2,2.7,2.2C155.3,209.9,156.2,209.3,156.2,208z M155.6,199.8c0-1.3-0.7-2-2.1-2
				c-1.4,0-2.1,0.6-2.1,1.7c0,0.6,0.2,1.1,0.6,1.5s1,0.8,1.9,1.1C155,201.6,155.6,200.8,155.6,199.8z"/>
		</g>
		<g>
			<path class="st0" d="M66.7,180.5c0.9,0,1.4-0.5,1.4-1.5c0-0.4-0.2-0.8-0.5-1.1c-0.3-0.3-0.8-0.6-1.5-0.9s-1-0.4-1.1-0.5
				c-0.1,0-0.3-0.1-0.5-0.3c-0.2-0.1-0.4-0.2-0.5-0.3c-0.1-0.1-0.2-0.2-0.4-0.4c-0.2-0.2-0.3-0.3-0.3-0.5c-0.2-0.5-0.3-0.9-0.3-1.3
				c0-0.9,0.3-1.6,0.9-2.2c0.6-0.6,1.5-0.9,2.6-0.9c0.8,0,1.7,0.1,2.5,0.3l0.4,0.1l-0.3,1.6c-1.2-0.2-2-0.3-2.6-0.3
				c-0.6,0-1,0.1-1.3,0.3c-0.2,0.2-0.3,0.5-0.3,0.9c0,0.4,0.1,0.8,0.4,1c0.3,0.2,0.6,0.5,1,0.6c0.4,0.2,0.7,0.3,0.9,0.4
				c0.2,0.1,0.4,0.2,0.5,0.2c0.1,0.1,0.3,0.1,0.5,0.3c0.2,0.1,0.4,0.2,0.5,0.3c0.1,0.1,0.3,0.2,0.4,0.4c0.2,0.2,0.3,0.3,0.3,0.5
				c0.2,0.4,0.3,0.9,0.3,1.3c0,1-0.3,1.9-1,2.5c-0.7,0.6-1.5,1-2.6,1c-0.6,0-1.1-0.1-1.7-0.2c-0.6-0.2-1.1-0.3-1.4-0.5l-0.5-0.3
				c0.1-0.3,0.2-0.5,0.2-0.7c0.1-0.2,0.1-0.3,0.2-0.4c0-0.1,0.1-0.3,0.1-0.4C64.5,180.2,65.6,180.5,66.7,180.5z"/>
			<path class="st0" d="M72.3,181.9v-11.1h6v1.6l-4.2,0l-0.1,3.1h3.8v1.6h-3.8l0.1,3.3l4.2,0v1.6H72.3z"/>
			<path class="st0" d="M80.8,181.9v-11.1h1.9l-0.1,9.5l4.1,0v1.7H80.8z"/>
			<path class="st0" d="M88.3,181.9l0-11.1h6v1.6l-4.2,0l-0.1,3.1h3.8v1.6H90l0.1,3.3l4.2,0v1.6H88.3z"/>
			<path class="st0" d="M100.4,182.1c-1.3,0-2.3-0.5-3-1.4c-0.7-0.9-1.1-2.3-1.1-4.3c0-2.7,0.6-4.4,1.8-5.2c0.4-0.3,0.8-0.4,1.2-0.5
				c0.4-0.1,1-0.1,1.8-0.1s1.7,0.1,2.5,0.3l-0.2,1.6c-1-0.1-1.9-0.2-2.8-0.2c-0.8,0-1.4,0.1-1.6,0.4c-0.5,0.5-0.8,1.8-0.8,3.9
				c0,1,0.1,1.8,0.3,2.4c0.2,0.6,0.4,1.1,0.6,1.3c0.2,0.2,0.6,0.3,1.1,0.3s1-0.1,1.5-0.2c0.5-0.1,1.1-0.4,1.7-0.7l0.6,1.4
				c-0.1,0.1-0.3,0.2-0.5,0.3c-0.2,0.1-0.6,0.3-1.3,0.5C101.7,182.1,101,182.1,100.4,182.1z"/>
			<path class="st0" d="M110,182.1c-1.3,0-2.3-0.5-3-1.4c-0.7-0.9-1.1-2.3-1.1-4.3c0-2.7,0.6-4.4,1.8-5.2c0.4-0.3,0.8-0.4,1.2-0.5
				c0.4-0.1,1-0.1,1.8-0.1c0.8,0,1.7,0.1,2.5,0.3l-0.2,1.6c-1-0.1-1.9-0.2-2.8-0.2s-1.4,0.1-1.6,0.4c-0.5,0.5-0.8,1.8-0.8,3.9
				c0,1,0.1,1.8,0.3,2.4c0.2,0.6,0.4,1.1,0.6,1.3c0.2,0.2,0.6,0.3,1.1,0.3c0.5,0,1-0.1,1.5-0.2c0.5-0.1,1.1-0.4,1.7-0.7l0.6,1.4
				c-0.1,0.1-0.3,0.2-0.5,0.3c-0.2,0.1-0.6,0.3-1.3,0.5C111.3,182.1,110.6,182.1,110,182.1z"/>
			<path class="st0" d="M116,182l0.1-5.1l-0.1-6h1.9l-0.1,4.9l0.1,6.2H116z"/>
			<path class="st0" d="M124.8,182.1c-0.5,0-1,0-1.4-0.2c-0.4-0.1-0.8-0.3-1.2-0.5c-0.4-0.3-0.7-0.6-1-1c-0.6-0.9-0.9-2.3-0.9-4.1
				c0-2.3,0.4-3.8,1.3-4.6c0.4-0.4,0.9-0.7,1.4-0.9c0.5-0.2,1.1-0.3,1.7-0.3c0.6,0,1.2,0.1,1.7,0.3c0.5,0.2,1,0.5,1.4,0.9
				c0.9,0.8,1.3,2.4,1.3,4.6c0,2.6-0.6,4.3-1.8,5.1C126.7,181.9,125.9,182.1,124.8,182.1z M123.3,180.1c0.2,0.2,0.4,0.3,0.7,0.3
				c0.2,0.1,0.6,0.1,1.1,0.1c0.5,0,0.9-0.1,1.2-0.3c0.7-0.4,1.1-1.7,1.1-3.8c0-0.9,0-1.6-0.1-2.1c-0.1-0.5-0.2-1-0.5-1.3
				c-0.2-0.3-0.5-0.5-0.7-0.6c-0.3-0.1-0.7-0.1-1.1-0.1c-0.5,0-0.8,0-1.1,0.1s-0.5,0.3-0.7,0.6c-0.2,0.3-0.4,0.7-0.5,1.3
				c-0.1,0.5-0.1,1.2-0.1,2s0,1.4,0.1,1.9c0.1,0.5,0.2,0.9,0.3,1.2S123,179.9,123.3,180.1z M123.2,170.1l-0.3-1l4.1-1.3l0.4,1.4
				L123.2,170.1z"/>
			<path class="st0" d="M131.8,181.9l0-11.1h2.4l4,9h0.1l-0.2-9h1.8v11.1h-2.4l-4-9h-0.1l0.2,9H131.8z"/>
			<path class="st0" d="M150.5,182.1c-0.5,0-1,0-1.4-0.2c-0.4-0.1-0.8-0.3-1.2-0.5c-0.4-0.3-0.7-0.6-1-1c-0.6-0.9-0.9-2.3-0.9-4.1
				c0-2.3,0.4-3.8,1.3-4.6c0.4-0.4,0.9-0.7,1.4-0.9c0.5-0.2,1.1-0.3,1.7-0.3c0.6,0,1.2,0.1,1.7,0.3c0.5,0.2,1,0.5,1.4,0.9
				c0.9,0.8,1.3,2.4,1.3,4.6c0,2.6-0.6,4.3-1.8,5.1C152.4,181.9,151.6,182.1,150.5,182.1z M148.9,180.1c0.2,0.2,0.4,0.3,0.7,0.3
				c0.2,0.1,0.6,0.1,1.1,0.1c0.5,0,0.9-0.1,1.2-0.3c0.7-0.4,1.1-1.7,1.1-3.8c0-0.9,0-1.6-0.1-2.1c-0.1-0.5-0.2-1-0.5-1.3
				c-0.2-0.3-0.5-0.5-0.7-0.6s-0.7-0.1-1.1-0.1c-0.5,0-0.8,0-1.1,0.1c-0.3,0.1-0.5,0.3-0.7,0.6c-0.2,0.3-0.4,0.7-0.5,1.3
				c-0.1,0.5-0.1,1.2-0.1,2s0,1.4,0.1,1.9c0.1,0.5,0.2,0.9,0.3,1.2C148.6,179.7,148.7,179.9,148.9,180.1z"/>
			<path class="st0" d="M157.5,181.9v-11.1h6v1.7l-4.2,0l-0.1,3.1h3.7v1.6h-3.7l0.1,4.8H157.5z"/>
			<path class="st0" d="M165.8,182l0.1-5.1l-0.1-6h1.9l-0.1,4.9l0.1,6.2H165.8z"/>
			<path class="st0" d="M174.3,182.1c-1.3,0-2.3-0.5-3-1.4c-0.7-0.9-1.1-2.3-1.1-4.3c0-2.7,0.6-4.4,1.8-5.2c0.4-0.3,0.8-0.4,1.2-0.5
				c0.4-0.1,1-0.1,1.8-0.1s1.7,0.1,2.5,0.3l-0.2,1.6c-1-0.1-1.9-0.2-2.8-0.2c-0.8,0-1.4,0.1-1.6,0.4c-0.5,0.5-0.8,1.8-0.8,3.9
				c0,1,0.1,1.8,0.3,2.4c0.2,0.6,0.4,1.1,0.6,1.3c0.2,0.2,0.6,0.3,1.1,0.3c0.5,0,1-0.1,1.5-0.2c0.5-0.1,1.1-0.4,1.7-0.7l0.6,1.4
				c-0.1,0.1-0.3,0.2-0.5,0.3c-0.2,0.1-0.6,0.3-1.3,0.5C175.6,182.1,175,182.1,174.3,182.1z"/>
			<path class="st0" d="M180.3,182l0.1-5.1l-0.1-6h1.9l-0.1,4.9l0.1,6.2H180.3z"/>
			<path class="st0" d="M183.7,181.9l3.2-11.1h2.3l3.1,11.1h-1.9l-0.7-2.7h-3.3l-0.7,2.7H183.7z M186.7,177.6h2.6l-1.3-5.2H188
				L186.7,177.6z"/>
			<path class="st0" d="M193.9,181.9v-11.1h1.9l-0.1,9.5l4.1,0v1.7H193.9z"/>
		</g>
	</g>
	<g>
		<path class="st0" d="M65.2,220.9c-2.9-1.1-5.9-2.2-8.8-3.3c-0.4-0.2-0.6-0.4-0.6-0.8c0-0.3-0.1-0.7-0.1-1c1.4-0.6,1.7-1.9,1.8-3.2
			c0.1-2.9-0.9-5.4-2.6-7.7c-3-4-7.6-6.3-7.6-6.3s-0.3,4.5,1.8,9.9c0.6,1.3,1.3,2.6,2.1,3.7c0.8,1.1,1.8,2.2,2.8,3.1
			c0.5,0.5,0.8,0.8,0.6,1.5c-0.1,0-0.2-0.1-0.3-0.1c-4.2-2.1-8-4.9-11.5-7.9c-0.2-0.1-0.3-0.4-0.3-0.6c0-0.4,0.1-0.9,0.2-1.4
			c1,0,1.6-0.6,1.9-1.4c0.2-0.4,0.4-0.9,0.5-1.4c0.6-2.1,0.5-4.2-0.2-6.2c-2.2-6.2-6.4-9.2-6.4-9.2s-1.2,4-0.5,8.5
			c0.3,1.8,0.7,3.5,1.3,5.2c0.4,1.3,1.1,2.5,1.9,3.6c0.4,0.6,0.5,1,0.2,1.7c-0.2-0.1-0.3-0.2-0.4-0.3c-3.2-2.9-5.9-6.2-8.6-9.5
			c-0.6-0.8-0.8-1.8-0.3-2.7c0-0.1,0.1-0.1,0.1-0.2c1.4,0.1,2.2-0.7,2.8-1.7c1.4-2.4,1.5-6.4,0.2-9.8c-1.1-2.8-3.3-6.6-3.3-6.6
			s-1.7,3.5-2.1,9.4c-0.3,3.5,0.8,6.5,1.3,7.4c0.4,0.8,0.3,1.2-0.2,1.8c-0.1,0-0.1-0.1-0.2-0.1c-2.7-4-5-8.2-7-12.6
			c-0.1-0.2-0.1-0.4,0-0.6c0.2-0.4,0.5-0.8,0.8-1.2c1.3,0.2,1.8,0.1,2.7-0.8c0.5-0.5,1-1.2,1.3-1.8c1.3-2.4,1.5-5,1-7.7
			c-0.6-3-1.6-6.2-1.9-6.8c0,0-2.3,3.9-3.3,7.2c-0.7,2.1-0.9,4.3-0.8,6.5c0,0.7,0.1,1.4,0.3,2c0.4,0.9-0.1,1.2-0.6,1.7
			c-0.2-0.4-0.3-0.8-0.4-1.1c-1.7-4.2-3-8.5-3.9-12.9c0-0.2,0-0.6,0.1-0.7c0.3-0.4,0.7-0.7,1.2-1.1c0.8,0.6,1.7,0.3,2.5-0.2
			c1.5-1,2.4-2.4,3.2-3.9c0.5-1.1,0.7-2.2,0.8-3.3c0.4-4-0.3-7.2-0.5-8c-0.4,0.6-3.1,2.4-4.6,6.3c-0.6,1.7-1.7,4.3-2,7.6
			c-0.1,1,0,1.2-1,1.6c0-0.1-0.1-0.2-0.1-0.3c-0.8-4.2-1.3-8.5-1.4-12.8c-0.1-1.4,0.1-2.5,1.7-2.9c0.9,0.8,1.9,0.5,2.9,0
			c2-1,3.3-2.7,4.3-4.7c1.7-4.1,1.5-8.4,1.5-8.4s-2.8,1.4-6.3,5.8c-1.2,1.7-2.2,3.6-2.6,5.7c-0.2,0.9-0.3,1.2-1.4,1.3
			c0.1-4.9,0.7-9.8,1.7-14.6c0-0.2,0.2-0.4,0.4-0.5c0.5-0.2,1-0.3,1.6-0.5c0.5,0.8,1.3,0.9,2.1,0.8c3-0.4,5-2.4,6.6-4.8
			c0.5-0.8,0.9-1.6,1.3-2.5c0.5-1.4,0.6-1.9,1-3.1c-0.6,0.2-1.2,0.3-1.8,0.6c-1,0.5-2.1,1-3,1.5c-0.7,0.4-1.5,0.9-2.1,1.4
			c-1.6,1.3-2.9,2.7-3.8,4.6c-0.4,0.9-0.7,1.1-1.7,1c0,0,0-0.1,0-0.1c1.1-4.4,2.7-8.6,4.8-12.6c0.5-0.9,0.9-1.6,2-1.4
			c0.2,0,0.4-0.1,0.7-0.1c0.3,0.8,0.9,1.1,1.6,1.3c1.5,0.3,2.9,0.1,4.2-0.6c5.9-3.5,6.6-6.6,6.6-6.6s-3.5,0-6,1
			c-2.2,0.7-4.3,1.8-5.8,3.7c-0.7,0.8-1.2,0.7-2,0.5c0.1-0.1,0.1-0.2,0.1-0.3c2.3-4,5-7.6,8.1-10.9c0.6-0.7,1.2-1.1,2.2-0.7
			c0.4,0.2,0.8,0.2,0.9,0.7c0.1,0.4,0.6,0.8,1,1c1.3,0.7,2.8,0.7,4.3,0.5c1.9-0.3,3.5-1.3,5.1-2.3c0.8-0.6,1.6-1.3,2.4-1.9
			c0-0.1-2.7-0.4-5.5-0.6c-2.3-0.1-4.4,0.5-6.4,1.7c-1,0.6-1.2,0.6-2.3-0.1c1.3-1.1,2.5-2.1,3.8-3.2c0.1-0.1,0.2-0.1,0.3-0.1
			c0.5-0.1,3.8-1,6.3-3.5c2.6-2.6,3.6-7.1,3.4-8.9c0,0-3.1,2-6.4,5.2c-1.6,1.5-2.7,3.3-3.6,5.3c-0.2,0.4-0.5,0.8-0.8,1.1
			c-2,1.9-4,3.7-6,5.6c-0.8,0.8-1.6,1.7-2.3,2.5c-0.5-0.7-0.5-1.2-0.1-2c3-5.1,4.6-12.2,4.6-12.2c-0.7,0.3-4,1.9-6.6,5.9
			c-1,1.6-1.4,3.4-1.1,5.3c0.2,1.3,0.9,2,2,2.2c0.1,0.1,0.1,0.3,0.2,0.4l-0.2-1.1c-0.6-3.1,0.6-5.7,2-8.1l0.4,0.2
			c-0.1,0.4-0.3,0.8-0.4,1.2c-0.3,0.9-0.7,1.8-0.9,2.7c-0.2,0.9-0.3,1.8-0.4,2.8c0,0.4-0.1,0.8-0.2,1.2l-0.2,1.3
			c0.3,0.8,0,1.5-0.6,2.4c-3.3,4.3-6.1,9-8.1,14.1c-0.4,1-0.8,2.1-1.2,3.1c-0.1,0-1-0.9-0.9-1.3c0.6-2.6,0.5-5.1,0.6-7.7
			c0.1-4.3-0.4-8.2-0.4-8.2s-3.3,2.8-4.5,8.5c-0.6,2.6-0.4,5,1.1,7.2c0.6,0.9,1.5,1.5,2.7,1c0.2,0.3,0.4,0.6,0.7,0.9
			c0.5,0.6,0.5,0.9,0.3,1.5c-1.5,4.7-2.4,9.6-2.8,14.5c-0.1,1.8-0.2,3.5-0.4,5.3c-0.9-0.2-1.4-0.5-1.4-1c-0.1-1.1-0.8-4.8-2.3-9.4
			c-1.1-3.5-3.2-7.5-3.2-7.5s-2.6,5.2-1.9,11.3c0.3,2.5,1.3,4.7,3.3,6.4c1.3,1.1,2.3,1.3,3.8,0.5c0.3,0.2,0.5,0.5,0.9,0.6
			c0.8,0.3,0.9,0.9,0.9,1.7c0,5.2,0.7,10.3,1.7,15.4c0.3,1.4,0.6,2.8,1,4.2c-1.4-0.1-1.6-0.2-2-1.4c-0.1-0.4-0.3-0.7-0.5-1
			c-1.5-2.5-3-5-4.6-7.4c-2.2-3.6-5.5-7.2-5.6-7.4c-0.1,0.5-1.5,7.2,2.6,14.9c1.2,1.7,2.7,3.2,4.8,3.9c1.6,0.6,2.6,0.3,3.6-0.9
			c0.5,0.2,0.9,0.4,1.4,0.5c0.6,0.1,0.9,0.5,1,1.1c1.5,5.3,3.6,10.3,6.1,15.2c0.6,1,1.1,2.1,1.7,3.2c-1.7,0.3-1.7,0.3-2.6-0.9
			c-0.1-0.2-0.3-0.4-0.4-0.5c-2.2-2.2-4.3-4.5-6.6-6.5c-2.4-2-8.8-7.1-8.8-7.1c-0.1,0,0.9,6.4,3.3,10.7c0.5,0.9,1.1,1.8,1.7,2.6
			c0.9,1,1.9,1.9,3,2.8c1.8,1.3,3.8,2.2,6.1,2c1.2-0.1,2.2-0.6,2.6-2c0.5,0,1,0.2,1.4,0.1c0.9-0.1,1.3,0.4,1.7,1
			c3.3,5.4,7.2,10.2,11.9,14.6c0.2,0.2,0.3,0.3,0.6,0.6c-0.4,0.2-0.7,0.3-1.1,0.4c-0.6,0.2-1,0.2-1.5-0.3c-0.6-0.6-1.3-1.1-2.1-1.5
			c-2.1-1.2-4.2-2.2-6.2-3.4c-6.2-3.6-13-6-13-6c-0.1,0,0.8,5.1,6.3,10.6c1.9,2,3.9,3,4.6,3.3c2.5,1.3,5.1,2.1,8,1.7
			c1.1-0.2,2.2-0.5,2.9-1.3c0.4-0.5,0.6-1.2,0.9-2c0.5-0.1,1.2-0.2,1.9-0.4c0.4-0.1,0.7-0.1,1,0.2c3.9,3.4,8.2,6.3,12.9,8.6
			c1.4,0.7,2.7,1.3,4.2,1.9c-0.3,0.3-0.6,0.5-0.8,0.8c-0.5,0.5-1.1,0.8-1.7,0.3c-4-3.3-25.3-4.2-26-4.5c-0.1,0.1,7.9,11.5,21.5,11.5
			c2.1,0,4-0.9,5.5-2.4c1-1,1.5-2.1,0.8-3.5c0,0,0.4-0.2,0.7-0.5c1.2-1.3,2.4-0.9,4-0.4c1.1,0.4,1.7,0.5,2.6,0.8
			c0.3-1,0.5-1.9,0.7-2.8C65.8,221.1,65.5,221.1,65.2,220.9z M24.5,179.7c0.2-0.6,0.4-1.1,0.6-1.7c0.4-1.2,0.9-2.5,1.2-3.8
			c0.3-1.3,0.6-2.5,0.8-3.9c0.1-0.6,0.2-1.2,0.4-1.9l0.4,0.1c-0.3,3.9-0.6,7.9-3,11.3l-0.9,1.3L24.5,179.7z M24.4,155.9l0.4,0.2l0,0
			c-1,3-2,6-4.5,8.5l-1,1L24.4,155.9z M24.4,141.7l0.4,0.3c-1.6,2.7-3.1,5.1-5.8,6.9l-1.3,0.8L24.4,141.7z M27.9,127.6l0.3,0.3
			c-2,2-4.1,4-6.9,5l-1.4,0.5L27.9,127.6z M34.6,115.2l0.2,0.4c-2.6,1.5-4.8,2.6-7.4,2.7l-1.5,0.1L34.6,115.2z M43.9,105.1l0.1,0.4
			c-1.5,0.4-3.1,0.8-4.7,0.8c-0.7,0-1.5-0.1-2.2-0.3l-1.4-0.3L43.9,105.1z M45.7,93.8l0.4,0.3c-2,2.9-4,5-6.2,6.6l-0.3-0.3
			L45.7,93.8z M17.1,127c-2.1-3.3-1.7-6.9-1.1-10l0.4,0.1c-0.4,3.5-0.1,6.7,1.1,9.7L17.1,127z M13.1,149.6l-0.1-0.1
			c-0.1-0.1-0.2-0.2-0.3-0.3c-0.2-0.2-0.5-0.4-0.7-0.6c-2.2-2.4-3-5.4-3.5-7.7c-0.1-0.5-0.2-1-0.3-1.5c0-0.2-0.1-0.4-0.1-0.7
			l0.4-0.1c0.8,4.1,2.4,7.5,4.9,10.4l0.1,0.2L13.1,149.6z M15.5,172.1c-4.6-2.1-6.8-6.2-8.4-9.9l0.4-0.2c2,4,4.7,7.2,8.2,9.7
			L15.5,172.1z M24.1,193.2c-0.2,0-0.3,0-0.5,0c-3,0-8.8-4.1-11-7.8l0.4-0.3c3.1,3.5,6.9,6.1,11.2,7.6l0.8,0.3L24.1,193.2z
			 M32,193.7c0.5-3.4,1-7.3,0.7-11.2l0.5,0c0.4,3.5,0.9,7.5-0.8,11.3l-0.7,1.6L32,193.7z M38.2,211.5l-0.2,0c-0.2,0-0.3,0.1-0.5,0.1
			c-0.3,0.1-0.7,0.1-1.1,0.2c-0.2,0-0.4,0-0.5,0c-1.6,0-3.3-0.4-5.4-1.1c-2.7-1-5.3-2.5-7.6-4.5l0.3-0.4c4.7,3.2,9.5,4.9,14.7,5
			l0.2,0L38.2,211.5z M42.2,205.8c-0.2-4.6-0.9-8.6-1.9-12.2l0.4-0.1c1.4,4.1,2.6,8.1,1.9,12.4l-0.3,2L42.2,205.8z M50.7,204.3
			l0.4-0.2c1.8,3.1,3.9,6.7,4.2,10.8l0.1,1.5L50.7,204.3z M57.3,224.4c-0.2,0.1-0.4,0.2-0.6,0.3c-0.4,0.2-0.9,0.5-1.4,0.6
			c-1.5,0.6-3.2,0.8-5.2,0.8c-0.5,0-1.1,0-1.7-0.1c-3.1-0.2-6.1-1-9.3-2.4l0.2-0.4c6.4,2.2,12.2,2.3,17.8,0.4l0.2-0.1l0.2,0.8
			L57.3,224.4z"/>
		<path class="st0" d="M199.6,221.2c0.2,0.9,0.5,1.8,0.7,2.8c0.9-0.3,1.5-0.4,2.6-0.8c1.6-0.5,2.8-1,4,0.4c0.3,0.3,0.7,0.5,0.7,0.5
			c-0.7,1.4-0.2,2.5,0.8,3.5c1.5,1.5,3.4,2.4,5.5,2.4c13.6,0,21.5-11.4,21.5-11.5c-0.7,0.3-22,1.2-26,4.5c-0.6,0.5-1.2,0.2-1.7-0.3
			c-0.3-0.2-0.5-0.5-0.8-0.8c1.4-0.7,2.8-1.3,4.2-1.9c4.7-2.3,8.9-5.2,12.9-8.6c0.3-0.3,0.6-0.3,1-0.2c0.7,0.2,1.4,0.3,1.9,0.4
			c0.3,0.7,0.5,1.4,0.9,2c0.7,0.9,1.8,1.2,2.9,1.3c2.9,0.4,5.5-0.4,8-1.7c0.7-0.3,2.6-1.4,4.6-3.3c5.4-5.5,6.3-10.6,6.3-10.6
			c0,0-6.8,2.4-13,6c-2,1.2-4.1,2.2-6.2,3.4c-0.7,0.4-1.5,0.9-2.1,1.5c-0.5,0.5-1,0.5-1.5,0.3c-0.3-0.1-0.6-0.3-1.1-0.4
			c0.2-0.2,0.4-0.4,0.6-0.6c4.6-4.3,8.6-9.2,11.9-14.6c0.4-0.7,0.8-1.2,1.7-1c0.5,0.1,0.9-0.1,1.4-0.1c0.3,1.4,1.3,1.9,2.6,2
			c2.3,0.2,4.3-0.7,6.1-2c1.1-0.8,2.1-1.7,3-2.8c0.7-0.8,1.2-1.7,1.7-2.6c2.4-4.3,3.4-10.7,3.3-10.7c0,0-6.5,5.1-8.8,7.1
			c-2.3,2-4.4,4.3-6.6,6.5c-0.2,0.2-0.3,0.3-0.4,0.5c-0.9,1.2-0.9,1.2-2.6,0.9c0.6-1.1,1.2-2.1,1.7-3.2c2.6-4.8,4.6-9.9,6.1-15.2
			c0.2-0.6,0.4-1,1-1.1c0.5-0.1,0.9-0.3,1.4-0.5c0.9,1.2,1.9,1.4,3.6,0.9c2.1-0.7,3.6-2.1,4.8-3.9c4.1-7.7,2.8-14.3,2.6-14.9
			c-0.1,0.2-3.4,3.9-5.6,7.4c-1.6,2.5-3.1,4.9-4.6,7.4c-0.2,0.3-0.3,0.7-0.5,1c-0.4,1.2-0.6,1.3-2,1.4c0.3-1.4,0.7-2.8,1-4.2
			c1-5.1,1.7-10.2,1.7-15.4c0-0.8,0.1-1.3,0.9-1.7c0.3-0.1,0.6-0.4,0.9-0.6c1.5,0.8,2.5,0.6,3.8-0.5c2-1.7,2.9-3.9,3.3-6.4
			c0.8-6.1-1.9-11.3-1.9-11.3s-2,4-3.2,7.5c-1.5,4.6-2.1,8.4-2.3,9.4c-0.1,0.5-0.5,0.9-1.4,1c-0.1-1.8-0.2-3.5-0.4-5.3
			c-0.4-4.9-1.3-9.8-2.8-14.5c-0.2-0.6-0.2-0.9,0.3-1.5c0.2-0.3,0.4-0.6,0.7-0.9c1.2,0.5,2.1-0.1,2.7-1c1.5-2.2,1.7-4.6,1.1-7.2
			c-1.2-5.7-4.5-8.5-4.5-8.5s-0.5,3.9-0.4,8.2c0.1,2.6,0,5.2,0.6,7.7c0.1,0.4-0.8,1.3-0.9,1.3c-0.4-1-0.8-2.1-1.2-3.1
			c-2-5.1-4.7-9.8-8.1-14.1c-0.6-0.8-0.9-1.5-0.6-2.4l-0.2-1.3c-0.1-0.4-0.1-0.8-0.2-1.2c-0.1-0.9-0.2-1.9-0.4-2.8
			c-0.2-0.9-0.6-1.8-0.9-2.7c-0.1-0.4-0.3-0.8-0.4-1.2l0.4-0.2c1.4,2.4,2.5,5.1,2,8.1l-0.2,1.1c0.1-0.1,0.1-0.2,0.2-0.4
			c1.1-0.2,1.8-0.9,2-2.2c0.3-1.9-0.1-3.7-1.1-5.3c-2.6-4-5.9-5.6-6.6-5.9c0,0,1.6,7.1,4.6,12.2c0.4,0.8,0.5,1.3-0.1,2
			c-0.8-0.8-1.5-1.7-2.3-2.5c-2-1.9-4-3.7-6-5.6c-0.3-0.3-0.6-0.7-0.8-1.1c-0.9-2-2.1-3.8-3.6-5.3c-3.3-3.2-6.4-5.2-6.4-5.2
			c-0.2,1.8,0.8,6.3,3.4,8.9c2.5,2.5,5.8,3.4,6.3,3.5c0.1,0,0.3,0,0.3,0.1c1.2,1,2.5,2.1,3.8,3.2c-1.1,0.7-1.3,0.7-2.3,0.1
			c-2-1.1-4.1-1.8-6.4-1.7c-2.8,0.1-5.5,0.5-5.5,0.6c0.8,0.6,1.6,1.3,2.4,1.9c1.5,1.1,3.2,2.1,5.1,2.3c1.5,0.2,2.9,0.2,4.3-0.5
			c0.4-0.2,0.9-0.6,1-1c0.2-0.6,0.5-0.6,0.9-0.7c0.9-0.4,1.5,0,2.2,0.7c3.1,3.3,5.9,6.9,8.1,10.9c0,0.1,0.1,0.2,0.1,0.3
			c-0.8,0.2-1.4,0.3-2-0.5c-1.5-1.8-3.5-3-5.8-3.7c-2.5-0.9-6-1-6-1s0.7,3.1,6.6,6.6c1.2,0.7,2.7,0.9,4.2,0.6
			c0.8-0.1,1.4-0.4,1.6-1.3c0.2,0,0.5,0.1,0.7,0.1c1.1-0.2,1.6,0.5,2,1.4c2,4.1,3.7,8.2,4.8,12.6c0,0,0,0.1,0,0.1
			c-1,0.1-1.3-0.1-1.7-1c-0.9-1.9-2.2-3.3-3.8-4.6c-0.7-0.5-1.4-1-2.1-1.4c-1-0.6-2-1.1-3-1.5c-0.6-0.3-1.2-0.4-1.8-0.6
			c0.4,1.2,0.5,1.7,1,3.1c0.3,0.9,0.8,1.8,1.3,2.5c1.6,2.4,3.5,4.4,6.6,4.8c0.8,0.1,1.6,0,2.1-0.8c0.5,0.2,1.1,0.3,1.6,0.5
			c0.2,0.1,0.4,0.3,0.4,0.5c1.1,4.8,1.6,9.7,1.7,14.6c-1-0.1-1.2-0.3-1.4-1.3c-0.4-2.1-1.4-4-2.6-5.7c-3.5-4.4-6.3-5.8-6.3-5.8
			s-0.3,4.3,1.5,8.4c1,2,2.3,3.7,4.3,4.7c1,0.5,2,0.9,2.9,0c1.6,0.4,1.8,1.5,1.7,2.9c-0.2,4.3-0.6,8.6-1.4,12.8
			c0,0.1-0.1,0.2-0.1,0.3c-1-0.4-0.9-0.6-1-1.6c-0.4-3.3-1.4-6-2-7.6c-1.5-3.9-4.2-5.7-4.6-6.3c-0.2,0.8-0.8,4-0.5,8
			c0.1,1.2,0.3,2.3,0.8,3.3c0.7,1.6,1.7,3,3.2,3.9c0.8,0.5,1.6,0.8,2.5,0.2c0.4,0.4,0.8,0.7,1.2,1.1c0.1,0.2,0.2,0.5,0.1,0.7
			c-0.9,4.4-2.3,8.7-3.9,12.9c-0.1,0.3-0.3,0.6-0.4,1.1c-0.5-0.6-1-0.9-0.6-1.7c0.3-0.6,0.3-1.3,0.3-2c0-2.2-0.2-4.4-0.8-6.5
			c-1-3.3-3.3-7.2-3.3-7.2c-0.3,0.7-1.3,3.8-1.9,6.8c-0.5,2.7-0.3,5.3,1,7.7c0.3,0.7,0.8,1.3,1.3,1.8c0.9,0.9,1.4,1.1,2.7,0.8
			c0.3,0.4,0.6,0.8,0.8,1.2c0.1,0.2,0.1,0.4,0,0.6c-1.9,4.4-4.2,8.6-7,12.6c0,0.1-0.1,0.1-0.2,0.1c-0.5-0.6-0.6-1.1-0.2-1.8
			c0.5-1,1.6-4,1.3-7.4c-0.4-5.9-2.1-9.4-2.1-9.4s-2.2,3.7-3.3,6.6c-1.3,3.4-1.2,7.3,0.2,9.8c0.6,1,1.4,1.9,2.8,1.7
			c0,0.1,0.1,0.1,0.1,0.2c0.4,0.9,0.3,1.9-0.3,2.7c-2.7,3.4-5.4,6.7-8.6,9.5c-0.1,0.1-0.3,0.2-0.4,0.3c-0.3-0.6-0.3-1.1,0.2-1.7
			c0.8-1.1,1.5-2.3,1.9-3.6c0.6-1.7,1-3.5,1.3-5.2c0.7-4.6-0.5-8.5-0.5-8.5s-4.2,3-6.4,9.2c-0.7,2-0.8,4.1-0.2,6.2
			c0.1,0.5,0.3,1,0.5,1.4c0.4,0.8,1,1.4,1.9,1.4c0.1,0.5,0.2,0.9,0.2,1.4c0,0.2-0.1,0.5-0.3,0.6c-3.5,3.1-7.3,5.8-11.5,7.9
			c-0.1,0-0.2,0.1-0.3,0.1c-0.2-0.7,0-1.1,0.6-1.5c1.1-0.9,2-1.9,2.8-3.1c0.8-1.1,1.5-2.4,2.1-3.7c2.1-5.4,1.8-9.9,1.8-9.9
			s-4.6,2.3-7.6,6.3c-1.7,2.3-2.6,4.8-2.6,7.7c0,1.3,0.4,2.6,1.8,3.2c0,0.4-0.1,0.7-0.1,1c0,0.4-0.2,0.7-0.6,0.8
			c-2.9,1.1-5.9,2.2-8.8,3.3C200.4,221.1,200,221.1,199.6,221.2z M241.9,181.1l-0.9-1.3c-2.4-3.4-2.7-7.5-3-11.3l0.4-0.1
			c0.1,0.6,0.3,1.3,0.4,1.9c0.3,1.4,0.5,2.6,0.8,3.9c0.3,1.3,0.8,2.6,1.2,3.8c0.2,0.5,0.4,1.1,0.6,1.7L241.9,181.1z M246.5,165.7
			l-1-1c-2.5-2.5-3.5-5.6-4.5-8.5l0,0l0.4-0.2L246.5,165.7z M248.2,149.6l-1.3-0.8c-2.7-1.8-4.2-4.1-5.8-6.9l0.4-0.3L248.2,149.6z
			 M246,133.4l-1.4-0.5c-2.8-1-4.9-3-6.9-5l0.3-0.3L246,133.4z M240,118.4l-1.5-0.1c-2.6-0.1-4.8-1.3-7.4-2.7l0.2-0.4L240,118.4z
			 M230.2,105.7l-1.4,0.3c-0.7,0.2-1.5,0.3-2.2,0.3c-1.6,0-3.2-0.4-4.7-0.8l0.1-0.4L230.2,105.7z M226.3,100.4l-0.3,0.3
			c-2.2-1.6-4.2-3.7-6.2-6.6l0.4-0.3L226.3,100.4z M248.3,126.8c1.2-3,1.5-6.2,1.1-9.7l0.4-0.1c0.6,3.1,1,6.7-1.1,10L248.3,126.8z
			 M252.3,149.2l0.1-0.2c2.5-2.9,4.1-6.3,4.9-10.4l0.4,0.1c0,0.2-0.1,0.4-0.1,0.7c-0.1,0.5-0.1,1-0.3,1.5c-0.5,2.3-1.4,5.3-3.5,7.7
			c-0.2,0.2-0.5,0.4-0.7,0.6c-0.1,0.1-0.2,0.2-0.3,0.3l-0.1,0.1L252.3,149.2z M250.1,171.7c3.5-2.5,6.3-5.7,8.2-9.7l0.4,0.2
			c-1.6,3.7-3.8,7.8-8.4,9.9L250.1,171.7z M241,193l0.8-0.3c4.3-1.5,8.1-4,11.2-7.6l0.4,0.3c-2.2,3.7-8.1,7.8-11,7.8
			c-0.2,0-0.4,0-0.5,0L241,193z M234.1,195.4l-0.7-1.6c-1.6-3.8-1.2-7.8-0.8-11.3l0.5,0c-0.2,3.9,0.3,7.8,0.7,11.2L234.1,195.4z
			 M227.7,210.9l0.2,0c5.2-0.1,10-1.8,14.7-5l0.3,0.4c-2.3,2-4.9,3.5-7.6,4.5c-2,0.8-3.7,1.1-5.4,1.1c-0.2,0-0.4,0-0.5,0
			c-0.4,0-0.7-0.1-1.1-0.2c-0.2,0-0.3-0.1-0.5-0.1l-0.2,0L227.7,210.9z M223.6,207.9l-0.3-2c-0.7-4.3,0.5-8.3,1.9-12.4l0.4,0.1
			c-1,3.6-1.6,7.6-1.9,12.2L223.6,207.9z M210.4,216.5l0.1-1.5c0.3-4.1,2.4-7.7,4.2-10.8l0.4,0.2L210.4,216.5z M208.4,224.3l0.2-0.8
			l0.2,0.1c5.5,1.9,11.4,1.8,17.8-0.4l0.2,0.4c-3.2,1.4-6.3,2.2-9.3,2.4c-0.6,0-1.1,0.1-1.7,0.1c-2,0-3.6-0.3-5.2-0.8
			c-0.5-0.2-0.9-0.4-1.4-0.6c-0.2-0.1-0.4-0.2-0.6-0.3L208.4,224.3z"/>
	</g>
</g>
</svg>
