<svg xmlns="http://www.w3.org/2000/svg" id="Layer_1" viewBox="0 0 267 273.5">
  <path d="M63.7 112.4c1.6-4.1 4.5-2 6.8-2.1 2.4-.1 4.2 1.8 4.3 4.5.7 15.7.3 29.8-5.1 44.5-.5.5-3 .2-3.7-.4-2.3-2.4-2.7-5.1-3.1-9-.4-4.5 0-13.6 0-18.7-2.1 2.3-4.4 7.2-7.4 6.9-2-.2-3-2.1-3.7-3.4.4-1.8 7.9-12.4 11.9-22.3zM209.7 119.8a27.6 27.6 0 0 0-12.5 9.9c-2.4 3.9-2 5.1 2.5 5.8 1.5.3 3.2.4 4.5 1.1 5.5 2.6 6.1 7 1 10.3a30.4 30.4 0 0 1-18 6.2c-2.1-.1-4-.4-4.4-2.4-.4-1.7 1.7-2.5 3.1-3.1a39.3 39.3 0 0 0 11.4-8.4c.2-1.3-8.1-3.3-8.5-8.5-.3-3.9 1-7.4 3.5-10.3 7.7-8.7 10.9-9.2 17.4-2.8.4.7.6 1.2 0 2.2zM175.3 130.2c-1.4.2-1.7 5.5-3.4 9a8.7 8.7 0 0 1-3.1 2.8c-3.2 2-6.3.7-9.9-2.4l-4.6 14c-.4 1.3-.8 2.9-2.7 2.5-1.8-.3-1.4-1.9-1.4-3.3a89 89 0 0 1 3.9-26.7c.9-3.7 3.5-3.2 5.7-.8 2.8 3 3.9 6.9 5.1 11.1 3.1-3.9 5.4-7.7 8.2-11.3 2.8-3.5 3.7-3.5 6.9-2.2 3.3 1.4 4.8 3.8 4.1 7-1.6 7.6-4.3 21.3-5.8 21.3-2.5-.1-1.9-1-2.4-1.9a52.6 52.6 0 0 1-.3-16.8c.2-1.1.3-2.2-.3-2.3zM133.7 125.6c2.9-3.1 4.9-6.9 9.2-2.9 1.6 1.4 2 2.7.4 4.4-2.9 3.2-9.6 7.5-8.7 9.6.5 1.1 7.9 3.9 10.9 6.8.5.5.4 1-.2 1.3-2 .1-5.7-1-8.2-2.6-3.5-2.2-4.4-1.5-5.7 2.2-.3 1-1.3 2.9-1.8 3.9-.8 1.9-2 3.4-4.3 2.9-2.4-.5-2.2-3.3-2.3-5.3-.3-4.9.3-8.3 1.7-13 .6-2.2 2-12.6 4.1-12.6 3.1-.1 4.2 1.2 4.9 5.3zM95.3 133.4c-2.9-.2-3.8.2-9 1.2l5.6-19.3c.6-1.9 1.2-4.1-1.4-4.7-2.2-.5-4.6-1.1-5.6 2.1a77.7 77.7 0 0 0-5.5 33.7c.5 4.4 1.6 8.3 7 9 6.4.8 10.2-1.3 12.6-6.9 1.1-2.6 1.3-5.4 2.1-8 1.7-6-1.5-6.8-5.8-7.1zm-.8 9c-1.1 3.1-2.3 7.5-4.5 8-1.5-.4-2.3-5.6-2.9-8.5-.6-2.6 1.9-2.9 3.4-3.8 1.4-.8 4-1.3 4.8-.5 1 .9-.3 3.4-.8 4.8z" class="st0"/>
  <g>
    <path d="M108.6 194.6c1.8 0 3.2.4 4.3 1.3 1.1.9 1.7 2 1.7 3.5 0 1-.3 2-.9 3-.6 1-1.3 2-2.2 3l-3.7 4.1v.2l7.2-.2v3.4h-12.9V210c1.3-1.2 2.7-2.8 4.3-4.6 1.6-1.8 2.7-3.1 3.3-4a4 4 0 0 0 .9-2.2c0-.8-.5-1.1-1.5-1.1-.7 0-1.6.2-2.6.6s-2.1.9-3 1.5l-1.6-3c.7-.6 1.7-1.2 3-1.7 1.1-.6 2.4-.9 3.7-.9zM126.1 213.1c-.7.2-1.5.2-2.4.2-.9 0-1.8-.1-2.6-.4a5.7 5.7 0 0 1-3.7-4.3 20.2 20.2 0 0 1 0-9.2 5.7 5.7 0 0 1 3.7-4.3c.8-.3 1.6-.4 2.6-.4l2.4.2c.7.2 1.3.5 1.9.9a5 5 0 0 1 1.5 1.7 13 13 0 0 1 1.3 6.6c0 4.2-.9 6.9-2.8 8.3l-1.9.7zm-3.7-14.7c-.4.3-.7.9-.9 1.8-.2.9-.3 2.3-.3 4.3s.2 3.4.7 4.2c.4.9 1.2 1.3 2.2 1.3 1 0 1.7-.4 2.1-1.3.4-.8.7-2.4.7-4.8s-.2-3.9-.7-4.7a2.4 2.4 0 0 0-2.1-1.2c-.8 0-1.3.1-1.7.4zM133.4 213v-3.4h4.4l.2-10.3h-.2l-3 3-2.5-2.6 5.7-4.9 3.8.3v14.6l3.9-.1v3.4h-12.3zM147.4 199.7c0-1.6.5-2.8 1.6-3.7 1.1-.9 2.5-1.3 4.5-1.3a7 7 0 0 1 4.5 1.4c1 .9 1.6 2.1 1.6 3.5a5 5 0 0 1-2.3 4.2c.8.4 1.5.9 2.1 1.7.6.7.9 1.6.9 2.6 0 1.5-.6 2.7-1.9 3.8-1.2 1.1-2.9 1.6-5 1.6a7 7 0 0 1-4.9-1.7 5.1 5.1 0 0 1-1.8-3.9c0-.9.2-1.7.7-2.5.5-.8 1.1-1.4 1.9-1.8a5 5 0 0 1-1.9-3.9zm8.8 8.3c0-.7-.2-1.2-.7-1.6-.5-.4-1.4-.8-2.7-1.2-.7.2-1.2.6-1.5 1-.3.4-.5.9-.5 1.6 0 1.5.9 2.2 2.7 2.2 1.8-.1 2.7-.7 2.7-2zm-.6-8.2c0-1.3-.7-2-2.1-2-1.4 0-2.1.6-2.1 1.7 0 .6.2 1.1.6 1.5s1 .8 1.9 1.1c1.1-.5 1.7-1.3 1.7-2.3z" class="st0"/>
  </g>
  <g>
    <path d="M66.7 180.5c.9 0 1.4-.5 1.4-1.5 0-.4-.2-.8-.5-1.1-.3-.3-.8-.6-1.5-.9l-1.1-.5-.5-.3-.5-.3-.4-.4c-.2-.2-.3-.3-.3-.5l-.3-1.3c0-.9.3-1.6.9-2.2.6-.6 1.5-.9 2.6-.9.8 0 1.7.1 2.5.3l.4.1-.3 1.6a17 17 0 0 0-2.6-.3c-.6 0-1 .1-1.3.3-.2.2-.3.5-.3.9s.1.8.4 1c.3.2.6.5 1 .6l.9.4.5.2.5.3.5.3.4.4c.2.2.3.3.3.5.2.4.3.9.3 1.3 0 1-.3 1.9-1 2.5-.7.6-1.5 1-2.6 1l-1.7-.2-1.4-.5-.5-.3.2-.7.2-.4.1-.4c1.5.7 2.6 1 3.7 1zM72.3 181.9v-11.1h6v1.6h-4.2l-.1 3.1h3.8v1.6H74l.1 3.3h4.2v1.6h-6zM80.8 181.9v-11.1h1.9l-.1 9.5h4.1v1.7h-5.9zM88.3 181.9v-11.1h6v1.6h-4.2l-.1 3.1h3.8v1.6H90l.1 3.3h4.2v1.6h-6zM100.4 182.1c-1.3 0-2.3-.5-3-1.4-.7-.9-1.1-2.3-1.1-4.3 0-2.7.6-4.4 1.8-5.2a3 3 0 0 1 1.2-.5l1.8-.1c.8 0 1.7.1 2.5.3l-.2 1.6-2.8-.2c-.8 0-1.4.1-1.6.4-.5.5-.8 1.8-.8 3.9 0 1 .1 1.8.3 2.4l.6 1.3c.2.2.6.3 1.1.3l1.5-.2 1.7-.7.6 1.4-.5.3-1.3.5c-.5.2-1.2.2-1.8.2zM110 182.1c-1.3 0-2.3-.5-3-1.4-.7-.9-1.1-2.3-1.1-4.3 0-2.7.6-4.4 1.8-5.2a3 3 0 0 1 1.2-.5l1.8-.1c.8 0 1.7.1 2.5.3l-.2 1.6-2.8-.2c-.9 0-1.4.1-1.6.4-.5.5-.8 1.8-.8 3.9 0 1 .1 1.8.3 2.4l.6 1.3c.2.2.6.3 1.1.3l1.5-.2 1.7-.7.6 1.4-.5.3-1.3.5c-.5.2-1.2.2-1.8.2zM116 182l.1-5.1-.1-6h1.9l-.1 4.9.1 6.2H116zM124.8 182.1c-.5 0-1 0-1.4-.2l-1.2-.5-1-1c-.6-.9-.9-2.3-.9-4.1 0-2.3.4-3.8 1.3-4.6a4.2 4.2 0 0 1 3.1-1.2 4.2 4.2 0 0 1 3.1 1.2c.9.8 1.3 2.4 1.3 4.6 0 2.6-.6 4.3-1.8 5.1-.6.5-1.4.7-2.5.7zm-1.5-2c.2.2.4.3.7.3l1.1.1c.5 0 .9-.1 1.2-.3.7-.4 1.1-1.7 1.1-3.8l-.1-2.1c-.1-.5-.2-1-.5-1.3l-.7-.6-1.1-.1-1.1.1c-.3.1-.5.3-.7.6-.2.3-.4.7-.5 1.3l-.1 2a10.3 10.3 0 0 0 .4 3.1c.1.3 0 .5.3.7zm-.1-10l-.3-1 4.1-1.3.4 1.4-4.2.9zM131.8 181.9v-11.1h2.4l4 9h.1l-.2-9h1.8v11.1h-2.4l-4-9h-.1l.2 9h-1.8zM150.5 182.1c-.5 0-1 0-1.4-.2l-1.2-.5-1-1c-.6-.9-.9-2.3-.9-4.1 0-2.3.4-3.8 1.3-4.6a4.2 4.2 0 0 1 3.1-1.2 4.2 4.2 0 0 1 3.1 1.2c.9.8 1.3 2.4 1.3 4.6 0 2.6-.6 4.3-1.8 5.1-.6.5-1.4.7-2.5.7zm-1.6-2c.2.2.4.3.7.3l1.1.1c.5 0 .9-.1 1.2-.3.7-.4 1.1-1.7 1.1-3.8l-.1-2.1c-.1-.5-.2-1-.5-1.3l-.7-.6-1.1-.1-1.1.1c-.3.1-.5.3-.7.6-.2.3-.4.7-.5 1.3l-.1 2a10.3 10.3 0 0 0 .4 3.1c0 .3.1.5.3.7zM157.5 181.9v-11.1h6v1.7h-4.2l-.1 3.1h3.7v1.6h-3.7l.1 4.8h-1.8zM165.8 182l.1-5.1-.1-6h1.9l-.1 4.9.1 6.2h-1.9zM174.3 182.1c-1.3 0-2.3-.5-3-1.4-.7-.9-1.1-2.3-1.1-4.3 0-2.7.6-4.4 1.8-5.2a3 3 0 0 1 1.2-.5l1.8-.1c.8 0 1.7.1 2.5.3l-.2 1.6-2.8-.2c-.8 0-1.4.1-1.6.4-.5.5-.8 1.8-.8 3.9 0 1 .1 1.8.3 2.4l.6 1.3c.2.2.6.3 1.1.3l1.5-.2 1.7-.7.6 1.4-.5.3-1.3.5c-.5.2-1.1.2-1.8.2zM180.3 182l.1-5.1-.1-6h1.9l-.1 4.9.1 6.2h-1.9zM183.7 181.9l3.2-11.1h2.3l3.1 11.1h-1.9l-.7-2.7h-3.3l-.7 2.7h-2zm3-4.3h2.6l-1.3-5.2-1.3 5.2zM193.9 181.9v-11.1h1.9l-.1 9.5h4.1v1.7h-5.9z" class="st0"/>
  </g>
  <g>
    <path d="M65.2 220.9l-8.8-3.3c-.4-.2-.6-.4-.6-.8l-.1-1c1.4-.6 1.7-1.9 1.8-3.2a12 12 0 0 0-2.6-7.7c-3-4-7.6-6.3-7.6-6.3s-.3 4.5 1.8 9.9a20.6 20.6 0 0 0 4.9 6.8c.5.5.8.8.6 1.5l-.3-.1a57.2 57.2 0 0 1-11.8-8.5l.2-1.4c1 0 1.6-.6 1.9-1.4l.5-1.4a10 10 0 0 0-.2-6.2c-2.2-6.2-6.4-9.2-6.4-9.2s-1.2 4-.5 8.5c.3 1.8.7 3.5 1.3 5.2.4 1.3 1.1 2.5 1.9 3.6.4.6.5 1 .2 1.7l-.4-.3c-3.2-2.9-5.9-6.2-8.6-9.5-.6-.8-.8-1.8-.3-2.7l.1-.2c1.4.1 2.2-.7 2.8-1.7 1.4-2.4 1.5-6.4.2-9.8-1.1-2.8-3.3-6.6-3.3-6.6s-1.7 3.5-2.1 9.4c-.3 3.5.8 6.5 1.3 7.4.4.8.3 1.2-.2 1.8l-.2-.1a86 86 0 0 1-7-13.2l.8-1.2c1.3.2 1.8.1 2.7-.8.5-.5 1-1.2 1.3-1.8 1.3-2.4 1.5-5 1-7.7-.6-3-1.6-6.2-1.9-6.8 0 0-2.3 3.9-3.3 7.2a17.9 17.9 0 0 0-.5 8.5c.4.9-.1 1.2-.6 1.7l-.4-1.1a73.7 73.7 0 0 1-3.8-13.6l1.2-1.1c.8.6 1.7.3 2.5-.2a10 10 0 0 0 3.2-3.9c.5-1.1.7-2.2.8-3.3.4-4-.3-7.2-.5-8-.4.6-3.1 2.4-4.6 6.3-.6 1.7-1.7 4.3-2 7.6-.1 1 0 1.2-1 1.6l-.1-.3c-.8-4.2-1.3-8.5-1.4-12.8-.1-1.4.1-2.5 1.7-2.9.9.8 1.9.5 2.9 0 2-1 3.3-2.7 4.3-4.7 1.7-4.1 1.5-8.4 1.5-8.4s-2.8 1.4-6.3 5.8a14.8 14.8 0 0 0-2.6 5.7c-.2.9-.3 1.2-1.4 1.3.1-4.9.7-9.8 1.7-14.6 0-.2.2-.4.4-.5l1.6-.5c.5.8 1.3.9 2.1.8 3-.4 5-2.4 6.6-4.8l1.3-2.5 1-3.1-1.8.6-3 1.5-2.1 1.4a13 13 0 0 0-3.8 4.6c-.4.9-.7 1.1-1.7 1v-.1c1.1-4.4 2.7-8.6 4.8-12.6.5-.9.9-1.6 2-1.4l.7-.1c.3.8.9 1.1 1.6 1.3a6 6 0 0 0 4.2-.6c5.9-3.5 6.6-6.6 6.6-6.6s-3.5 0-6 1c-2.2.7-4.3 1.8-5.8 3.7-.7.8-1.2.7-2 .5l.1-.3c2.3-4 5-7.6 8.1-10.9.6-.7 1.2-1.1 2.2-.7.4.2.8.2.9.7.1.4.6.8 1 1a7 7 0 0 0 4.3.5c1.9-.3 3.5-1.3 5.1-2.3l2.4-1.9c0-.1-2.7-.4-5.5-.6-2.3-.1-4.4.5-6.4 1.7-1 .6-1.2.6-2.3-.1l3.8-3.2.3-.1c.5-.1 3.8-1 6.3-3.5 2.6-2.6 3.6-7.1 3.4-8.9 0 0-3.1 2-6.4 5.2a16 16 0 0 0-3.6 5.3l-.8 1.1-6 5.6-2.3 2.5c-.5-.7-.5-1.2-.1-2 3-5.1 4.6-12.2 4.6-12.2-.7.3-4 1.9-6.6 5.9a7.6 7.6 0 0 0-1.1 5.3c.2 1.3.9 2 2 2.2l.2.4-.2-1.1c-.6-3.1.6-5.7 2-8.1l.4.2-.4 1.2-.9 2.7-.4 2.8-.2 1.2-.2 1.3c.3.8 0 1.5-.6 2.4a58 58 0 0 0-8.1 14.1l-1.2 3.1c-.1 0-1-.9-.9-1.3.6-2.6.5-5.1.6-7.7.1-4.3-.4-8.2-.4-8.2s-3.3 2.8-4.5 8.5c-.6 2.6-.4 5 1.1 7.2.6.9 1.5 1.5 2.7 1l.7.9c.5.6.5.9.3 1.5a65.2 65.2 0 0 0-3.2 19.8c-.9-.2-1.4-.5-1.4-1-.1-1.1-.8-4.8-2.3-9.4-1.1-3.5-3.2-7.5-3.2-7.5s-2.6 5.2-1.9 11.3a9.6 9.6 0 0 0 3.3 6.4c1.3 1.1 2.3 1.3 3.8.5.3.2.5.5.9.6.8.3.9.9.9 1.7a79.8 79.8 0 0 0 2.7 19.6c-1.4-.1-1.6-.2-2-1.4l-.5-1-4.6-7.4c-2.2-3.6-5.5-7.2-5.6-7.4-.1.5-1.5 7.2 2.6 14.9a9.7 9.7 0 0 0 4.8 3.9c1.6.6 2.6.3 3.6-.9l1.4.5c.6.1.9.5 1 1.1a83.2 83.2 0 0 0 6.1 15.2l1.7 3.2c-1.7.3-1.7.3-2.6-.9l-.4-.5c-2.2-2.2-4.3-4.5-6.6-6.5l-8.8-7.1c-.1 0 .9 6.4 3.3 10.7l1.7 2.6c.9 1 1.9 1.9 3 2.8a9 9 0 0 0 6.1 2c1.2-.1 2.2-.6 2.6-2 .5 0 1 .2 1.4.1.9-.1 1.3.4 1.7 1a69.2 69.2 0 0 0 11.9 14.6l.6.6-1.1.4c-.6.2-1 .2-1.5-.3a8 8 0 0 0-2.1-1.5l-6.2-3.4c-6.2-3.6-13-6-13-6-.1 0 .8 5.1 6.3 10.6 1.9 2 3.9 3 4.6 3.3 2.5 1.3 5.1 2.1 8 1.7 1.1-.2 2.2-.5 2.9-1.3.4-.5.6-1.2.9-2l1.9-.4c.4-.1.7-.1 1 .2a59.2 59.2 0 0 0 17.1 10.5l-.8.8c-.5.5-1.1.8-1.7.3-4-3.3-25.3-4.2-26-4.5-.1.1 7.9 11.5 21.5 11.5 2.1 0 4-.9 5.5-2.4 1-1 1.5-2.1.8-3.5l.7-.5c1.2-1.3 2.4-.9 4-.4l2.6.8.7-2.8-1.9-.9zm-40.7-41.2l.6-1.7c.4-1.2.9-2.5 1.2-3.8l.8-3.9.4-1.9.4.1c-.3 3.9-.6 7.9-3 11.3l-.9 1.3.5-1.4zm-.1-23.8l.4.2c-1 3-2 6-4.5 8.5l-1 1 5.1-9.7zm0-14.2l.4.3a19.3 19.3 0 0 1-5.8 6.9l-1.3.8 6.7-8zm3.5-14.1l.3.3c-2 2-4.1 4-6.9 5l-1.4.5 8-5.8zm6.7-12.4l.2.4a16 16 0 0 1-7.4 2.7l-1.5.1 8.7-3.2zm9.3-10.1l.1.4c-1.5.4-3.1.8-4.7.8-.7 0-1.5-.1-2.2-.3l-1.4-.3 8.2-.6zm1.8-11.3l.4.3c-2 2.9-4 5-6.2 6.6l-.3-.3 6.1-6.6zM17.1 127c-2.1-3.3-1.7-6.9-1.1-10l.4.1c-.4 3.5-.1 6.7 1.1 9.7l-.4.2zm-4 22.6l-.1-.1-.3-.3-.7-.6a16 16 0 0 1-3.5-7.7l-.3-1.5-.1-.7.4-.1c.8 4.1 2.4 7.5 4.9 10.4l.1.2-.4.4zm2.4 22.5c-4.6-2.1-6.8-6.2-8.4-9.9l.4-.2c2 4 4.7 7.2 8.2 9.7l-.2.4zm8.6 21.1h-.5c-3 0-8.8-4.1-11-7.8l.4-.3c3.1 3.5 6.9 6.1 11.2 7.6l.8.3-.9.2zm7.9.5c.5-3.4 1-7.3.7-11.2h.5c.4 3.5.9 7.5-.8 11.3l-.7 1.6.3-1.7zm6.2 17.8H38l-.5.1-1.1.2h-.5c-1.6 0-3.3-.4-5.4-1.1-2.7-1-5.3-2.5-7.6-4.5l.3-.4c4.7 3.2 9.5 4.9 14.7 5h.2l.1.7zm4-5.7c-.2-4.6-.9-8.6-1.9-12.2l.4-.1c1.4 4.1 2.6 8.1 1.9 12.4l-.3 2-.1-2.1zm8.5-1.5l.4-.2c1.8 3.1 3.9 6.7 4.2 10.8l.1 1.5-4.7-12.1zm6.6 20.1l-.6.3c-.4.2-.9.5-1.4.6-1.5.6-3.2.8-5.2.8l-1.7-.1c-3.1-.2-6.1-1-9.3-2.4l.2-.4a26.6 26.6 0 0 0 17.8.4l.2-.1.2.8-.2.1zM199.6 221.2l.7 2.8 2.6-.8c1.6-.5 2.8-1 4 .4l.7.5c-.7 1.4-.2 2.5.8 3.5a7.7 7.7 0 0 0 5.5 2.4 28 28 0 0 0 21.5-11.5c-.7.3-22 1.2-26 4.5-.6.5-1.2.2-1.7-.3l-.8-.8 4.2-1.9c4.7-2.3 8.9-5.2 12.9-8.6.3-.3.6-.3 1-.2l1.9.4c.3.7.5 1.4.9 2 .7.9 1.8 1.2 2.9 1.3 2.9.4 5.5-.4 8-1.7.7-.3 2.6-1.4 4.6-3.3 5.4-5.5 6.3-10.6 6.3-10.6s-6.8 2.4-13 6l-6.2 3.4c-.7.4-1.5.9-2.1 1.5-.5.5-1 .5-1.5.3l-1.1-.4.6-.6c4.6-4.3 8.6-9.2 11.9-14.6.4-.7.8-1.2 1.7-1 .5.1.9-.1 1.4-.1.3 1.4 1.3 1.9 2.6 2a9 9 0 0 0 6.1-2 15.8 15.8 0 0 0 4.7-5.4 33.6 33.6 0 0 0 3.3-10.7s-6.5 5.1-8.8 7.1c-2.3 2-4.4 4.3-6.6 6.5l-.4.5c-.9 1.2-.9 1.2-2.6.9l1.7-3.2c2.6-4.8 4.6-9.9 6.1-15.2.2-.6.4-1 1-1.1l1.4-.5c.9 1.2 1.9 1.4 3.6.9a9.2 9.2 0 0 0 4.8-3.9 22.3 22.3 0 0 0 2.6-14.9c-.1.2-3.4 3.9-5.6 7.4a298 298 0 0 0-4.6 7.4l-.5 1c-.4 1.2-.6 1.3-2 1.4l1-4.2c1-5.1 1.7-10.2 1.7-15.4 0-.8.1-1.3.9-1.7l.9-.6c1.5.8 2.5.6 3.8-.5a10 10 0 0 0 3.3-6.4c.8-6.1-1.9-11.3-1.9-11.3s-2 4-3.2 7.5c-1.5 4.6-2.1 8.4-2.3 9.4-.1.5-.5.9-1.4 1a94.5 94.5 0 0 0-3.2-19.8c-.2-.6-.2-.9.3-1.5l.7-.9c1.2.5 2.1-.1 2.7-1a8.7 8.7 0 0 0 1.1-7.2c-1.2-5.7-4.5-8.5-4.5-8.5s-.5 3.9-.4 8.2c.1 2.6 0 5.2.6 7.7.1.4-.8 1.3-.9 1.3l-1.2-3.1a55 55 0 0 0-8.1-14.1c-.6-.8-.9-1.5-.6-2.4l-.2-1.3-.2-1.2-.4-2.8-.9-2.7-.4-1.2.4-.2a12 12 0 0 1 2 8.1l-.2 1.1.2-.4c1.1-.2 1.8-.9 2-2.2.3-1.9-.1-3.7-1.1-5.3a16 16 0 0 0-6.6-5.9s1.6 7.1 4.6 12.2c.4.8.5 1.3-.1 2l-2.3-2.5-6-5.6-.8-1.1c-.9-2-2.1-3.8-3.6-5.3-3.3-3.2-6.4-5.2-6.4-5.2-.2 1.8.8 6.3 3.4 8.9a14.2 14.2 0 0 0 6.6 3.6l3.8 3.2c-1.1.7-1.3.7-2.3.1a12 12 0 0 0-6.4-1.7c-2.8.1-5.5.5-5.5.6l2.4 1.9c1.5 1.1 3.2 2.1 5.1 2.3a7 7 0 0 0 4.3-.5c.4-.2.9-.6 1-1 .2-.6.5-.6.9-.7.9-.4 1.5 0 2.2.7 3.1 3.3 5.9 6.9 8.1 10.9l.1.3c-.8.2-1.4.3-2-.5-1.5-1.8-3.5-3-5.8-3.7-2.5-.9-6-1-6-1s.7 3.1 6.6 6.6a6 6 0 0 0 4.2.6c.8-.1 1.4-.4 1.6-1.3l.7.1c1.1-.2 1.6.5 2 1.4 2 4.1 3.7 8.2 4.8 12.6v.1c-1 .1-1.3-.1-1.7-1a13 13 0 0 0-3.8-4.6l-2.1-1.4-3-1.5-1.8-.6 1 3.1c.3.9.8 1.8 1.3 2.5 1.6 2.4 3.5 4.4 6.6 4.8.8.1 1.6 0 2.1-.8l1.6.5c.2.1.4.3.4.5 1.1 4.8 1.6 9.7 1.7 14.6-1-.1-1.2-.3-1.4-1.3-.4-2.1-1.4-4-2.6-5.7-3.5-4.4-6.3-5.8-6.3-5.8s-.3 4.3 1.5 8.4c1 2 2.3 3.7 4.3 4.7 1 .5 2 .9 2.9 0 1.6.4 1.8 1.5 1.7 2.9-.2 4.3-.6 8.6-1.4 12.8l-.1.3c-1-.4-.9-.6-1-1.6-.4-3.3-1.4-6-2-7.6-1.5-3.9-4.2-5.7-4.6-6.3-.2.8-.8 4-.5 8 .1 1.2.3 2.3.8 3.3.7 1.6 1.7 3 3.2 3.9.8.5 1.6.8 2.5.2l1.2 1.1c.1.2.2.5.1.7-.9 4.4-2.3 8.7-3.9 12.9l-.4 1.1c-.5-.6-1-.9-.6-1.7.3-.6.3-1.3.3-2 0-2.2-.2-4.4-.8-6.5-1-3.3-3.3-7.2-3.3-7.2-.3.7-1.3 3.8-1.9 6.8-.5 2.7-.3 5.3 1 7.7a6 6 0 0 0 1.3 1.8c.9.9 1.4 1.1 2.7.8l.8 1.2v.6a70.8 70.8 0 0 1-7 12.6l-.2.1c-.5-.6-.6-1.1-.2-1.8.5-1 1.6-4 1.3-7.4-.4-5.9-2.1-9.4-2.1-9.4s-2.2 3.7-3.3 6.6c-1.3 3.4-1.2 7.3.2 9.8.6 1 1.4 1.9 2.8 1.7l.1.2c.4.9.3 1.9-.3 2.7a71 71 0 0 1-8.6 9.5l-.4.3c-.3-.6-.3-1.1.2-1.7.8-1.1 1.5-2.3 1.9-3.6a33 33 0 0 0 1.3-5.2c.7-4.6-.5-8.5-.5-8.5s-4.2 3-6.4 9.2a10 10 0 0 0 .3 7.6c.4.8 1 1.4 1.9 1.4l.2 1.4a53.4 53.4 0 0 1-11.8 8.5l-.3.1c-.2-.7 0-1.1.6-1.5 1.1-.9 2-1.9 2.8-3.1.8-1.1 1.5-2.4 2.1-3.7 2.1-5.4 1.8-9.9 1.8-9.9s-4.6 2.3-7.6 6.3a12.6 12.6 0 0 0-2.6 7.7c0 1.3.4 2.6 1.8 3.2l-.1 1c0 .4-.2.7-.6.8l-8.8 3.3c-1.1.8-1.5.8-1.9.9zm42.3-40.1l-.9-1.3c-2.4-3.4-2.7-7.5-3-11.3l.4-.1.4 1.9.8 3.9c.3 1.3.8 2.6 1.2 3.8l.6 1.7.5 1.4zm4.6-15.4l-1-1c-2.5-2.5-3.5-5.6-4.5-8.5l.4-.2 5.1 9.7zm1.7-16.1l-1.3-.8a18.5 18.5 0 0 1-5.8-6.9l.4-.3 6.7 8zm-2.2-16.2l-1.4-.5c-2.8-1-4.9-3-6.9-5l.3-.3 8 5.8zm-6-15l-1.5-.1c-2.6-.1-4.8-1.3-7.4-2.7l.2-.4 8.7 3.2zm-9.8-12.7l-1.4.3c-.7.2-1.5.3-2.2.3-1.6 0-3.2-.4-4.7-.8l.1-.4 8.2.6zm-3.9-5.3l-.3.3a26.5 26.5 0 0 1-6.2-6.6l.4-.3 6.1 6.6zm22 26.4c1.2-3 1.5-6.2 1.1-9.7l.4-.1c.6 3.1 1 6.7-1.1 10l-.4-.2zm4 22.4l.1-.2c2.5-2.9 4.1-6.3 4.9-10.4l.4.1-.1.7-.3 1.5a17 17 0 0 1-3.5 7.7l-.7.6-.3.3-.1.1-.4-.4zm-2.2 22.5a25 25 0 0 0 8.2-9.7l.4.2c-1.6 3.7-3.8 7.8-8.4 9.9l-.2-.4zM241 193l.8-.3c4.3-1.5 8.1-4 11.2-7.6l.4.3c-2.2 3.7-8.1 7.8-11 7.8h-.5l-.9-.2zm-6.9 2.4l-.7-1.6a22 22 0 0 1-.8-11.3h.5c-.2 3.9.3 7.8.7 11.2l.3 1.7zm-6.4 15.5h.2c5.2-.1 10-1.8 14.7-5l.3.4c-2.3 2-4.9 3.5-7.6 4.5a14 14 0 0 1-5.4 1.1h-.5l-1.1-.2-.5-.1h-.2l.1-.7zm-4.1-3l-.3-2c-.7-4.3.5-8.3 1.9-12.4l.4.1a60 60 0 0 0-1.9 12.2l-.1 2.1zm-13.2 8.6l.1-1.5c.3-4.1 2.4-7.7 4.2-10.8l.4.2-4.7 12.1zm-2 7.8l.2-.8.2.1a26.6 26.6 0 0 0 17.8-.4l.2.4a27.8 27.8 0 0 1-9.3 2.4l-1.7.1c-2 0-3.6-.3-5.2-.8l-1.4-.6-.6-.3-.2-.1z" class="st0"/>
  </g>
</svg>