<?xml version="1.0" encoding="utf-8"?>
<!-- Generator: Adobe Illustrator 22.0.1, SVG Export Plug-In . SVG Version: 6.00 Build 0)  -->
<svg version="1.1" id="Layer_1" xmlns="http://www.w3.org/2000/svg" xmlns:xlink="http://www.w3.org/1999/xlink" x="0px" y="0px"
	 viewBox="0 0 267 273.5" style="enable-background:new 0 0 267 273.5;" xml:space="preserve">
<style type="text/css">
	.st0{fill:#FFFFFF;}
</style>
<g>
	<g>
		<path class="st0" d="M60.5,172.9c-5.2-10.7-8.2-22.8-8.2-35.5c0-44.7,36.2-80.9,80.9-80.9c44.7,0,80.9,36.2,80.9,80.9
			c0,12.7-3,24.8-8.2,35.5h2.8c5.1-10.8,7.9-22.8,7.9-35.5c0-46.1-37.4-83.5-83.5-83.5c-46.1,0-83.5,37.4-83.5,83.5
			c0,12.7,2.9,24.7,7.9,35.5H60.5z"/>
		<path class="st0" d="M190.8,194.3c-14.7,14.8-35,24.1-57.6,24.1c-22.5,0-42.9-9.2-57.6-24.1h-3.5c15.2,16.3,37,26.6,61.1,26.6
			c24.1,0,45.8-10.2,61.1-26.6H190.8z"/>
	</g>
	<g>
		<path class="st0" d="M75.4,40.9c-0.5,1.6-0.9,3.2-1.6,4.7c-2,4.5-5,8.2-9.5,10.5c-2.1,1.1-4.3,1.7-6.6,1.8c-0.5,0-1,0.2-1.3,0.5
			c-4.1,3.4-7.7,7.3-11,11.5c-0.1,0.1-0.1,0.2-0.2,0.3c1.4,0.2,1.6,0,2.2-1.2c1.2-2.5,3.2-4,5.7-4.9c2.2-0.8,4.4-1.1,6.6-0.8
			c3.1,0.4,6.2,0.9,9.3,1.3C69,64.8,69,64.9,69,65c-4,5.1-9,8.1-15.6,7.7c-2-0.1-3.9-0.6-5.6-1.7c-0.4-0.3-0.8-0.4-1.3-0.2
			c-0.3,0.1-0.7,0.2-1,0.2c-0.8-0.1-1.2,0.4-1.6,0.9c-3.6,4.8-6.7,9.8-9.5,15.2c-0.1,0.2-0.2,0.5-0.4,0.9c0.6-0.2,1.1-0.3,1.6-0.5
			c0.2-0.1,0.4-0.3,0.4-0.6c0.6-3.6,2.8-6,6-7.5c2.2-1,4.5-1.5,6.9-1.7c2.9-0.2,5.8-0.4,8.7-0.6c0,0.2,0,0.3-0.1,0.3
			c-2.9,4.8-6.6,8.6-12,10.5c-3,1-5.9,1.2-8.9,0.1c-0.2-0.1-0.6,0-0.8,0c-0.7,0.2-1.3,0.4-2,0.7c-0.2,0.1-0.4,0.4-0.6,0.6
			c-2.7,5.5-4.9,11.1-6.6,17c-0.4,1.3-0.7,2.6-1.1,3.9c-0.1,0.2-0.1,0.4-0.2,0.8c0.5-0.3,1-0.5,1.3-0.8c0.2-0.1,0.3-0.4,0.3-0.6
			c-0.2-5.2,2.3-8.9,6.5-11.5c1.9-1.2,4-2.2,6.1-3.1c2.4-1,4.9-1.9,7.4-2.9c-0.1,0.5-0.2,1-0.4,1.4c-1.6,4.8-3.9,9.1-7.8,12.4
			c-2.4,2.1-5,3.8-8.3,4.3c-0.9,0.1-1.9,0.1-2.8,0.2c-0.3,0-0.6,0.1-0.8,0.3c-0.6,0.4-1.2,0.9-1.7,1.3c-0.2,0.1-0.3,0.4-0.4,0.6
			c-1.4,5.7-2.4,11.5-2.8,17.3c-0.2,2.5-0.3,5-0.5,7.6c1.1-0.6,1.4-1.3,1.3-2.4c-0.6-3.8,0.2-7.4,2.2-10.7c2-3.4,4.9-6.1,8-8.5
			c1.9-1.5,3.9-3,5.9-4.6c0,0.4,0,0.8,0,1.2c-0.4,6.8-2.4,13-6.9,18.2c-2.2,2.6-4.7,4.5-7.9,5.5c-0.3,0.1-0.6,0.4-0.8,0.6
			c-0.5,0.6-1,1.3-1.4,2c-0.2,0.3-0.3,0.7-0.3,1.1c0.1,3.4,0.1,6.8,0.5,10.2c0.5,4.4,1.3,8.7,2,13.1c0,0.2,0.1,0.4,0.2,0.8
			c0.3-0.8,0.6-1.5,0.9-2.1c0-0.1,0-0.3-0.1-0.4c-1.3-1.8-1.5-3.8-1.4-5.9c0.1-3.8,1.5-7.3,3.6-10.4c2.3-3.4,4.8-6.6,7.2-9.9
			c0.5-0.7,1.1-1.4,1.7-2.4c0.2,1.3,0.3,2.4,0.4,3.5c0.5,7-0.8,13.5-4.5,19.5c-1.4,2.3-3.2,4.2-5.5,5.7c-0.3,0.2-0.6,0.6-0.8,1
			c-0.4,0.8-0.8,1.6-1.1,2.4c-0.1,0.2-0.1,0.5-0.1,0.7c2,8.2,4.9,16,8.8,23.5c0,0.1,0.1,0.1,0.3,0.3c0.1-0.7,0.2-1.3,0.2-1.9
			c0-0.1,0-0.3-0.1-0.4c-1.9-1.6-2.4-3.9-3-6.2c-0.9-3.8-0.3-7.4,0.9-11c1.3-4,2.9-7.9,4.3-11.8c0.2-0.6,0.5-1.2,0.7-1.8
			c0.1,0,0.1,0,0.2-0.1c0.6,1.5,1.2,2.9,1.7,4.4c2.4,7.5,2.2,14.8-1,22.1c-0.6,1.4-1.6,2.6-2.3,3.9c-0.3,0.4-0.4,0.9-0.6,1.4
			c-0.1,0.4-0.1,0.8-0.2,1.2c-0.4,1.1,0,1.9,0.5,2.8c3.4,5.8,7.5,11.2,12.2,16.1c0.2,0.2,0.4,0.5,0.5,0.8c0.1-0.1,0.2-0.1,0.3-0.2
			c0-0.6-0.1-1.2-0.1-1.8c0-0.1-0.2-0.3-0.3-0.4c-2.3-1.1-3.7-3.2-4.8-5.4c-1.5-3-1.7-6.3-1.5-9.6c0.3-4.2,0.8-8.3,1.2-12.5
			c0.1-0.9,0.2-1.7,0.3-2.7c0.2,0.2,0.4,0.4,0.6,0.6c3.8,4.4,6.1,9.4,6.9,15.2c0.6,4.3,0.6,8.5-1,12.6c-0.6,1.6-0.5,3.2-0.5,4.7
			c0,0.3,0.3,0.6,0.5,0.8c4.6,4.4,9.7,8.1,15.3,11c0.9,0.5,1.9,0.9,2.9,1.4c0.1,0.1,0.2,0.1,0.4,0.2c0-0.3-0.1-0.5-0.1-0.7
			c-0.1-0.7-0.3-1-1.1-1.1c-1.6-0.1-2.8-1.1-4-2.1c-2.9-2.3-4.3-5.4-5.1-8.9c-0.8-3.5-1.4-7-2-10.6c-0.2-1.3-0.4-2.6-0.7-4
			c0.4,0.2,0.7,0.3,1,0.5c8.5,4.6,13.4,14,12.5,23.6c-0.1,1.1,0.3,2.3,0.5,3.5c0,0.2,0.4,0.4,0.6,0.5c4.6,1.9,9.3,3.4,14.3,4.2
			c1.4,0.2,1.6,0.5,1.7,2.1c-0.6-0.1-1.1-0.1-1.7-0.2c-4.3-0.7-8.6-1.8-12.7-3.5c-1.1-0.4-2.1,0.2-3.2,0.3c-0.2,0-0.5,0.2-0.6,0.4
			c-1.7,3.4-4.6,5.1-8.1,5.9c-1.2,0.3-2.5,0.4-3.8,0.6c-1.4,0-2.7,0-4.1,0c-0.3,0-0.5-0.1-0.8-0.1c-3-0.3-5.9-1-8.7-2.3
			c-1.3-0.6-2.5-1.3-3.5-2.4c0.2-0.1,0.3-0.2,0.4-0.3c2.3-2,4.8-3.6,7.6-4.8c3.8-1.6,7.6-2.3,11.7-1.8c3.1,0.4,5.9,1.7,8.6,3.3
			c0.8,0.5,0.8,0.5,1.8,0.1c-0.1-0.1-0.2-0.1-0.3-0.2c-6.4-2.8-12.2-6.6-17.4-11.3c-0.9-0.8-2.1-0.5-3.1-0.7c-0.1,0-0.2,0.1-0.3,0.3
			c-2.4,2.7-5.4,3.4-8.8,3.1c-6.4-0.6-11.9-3.3-16.6-7.5c-0.9-0.8-1.6-1.9-2.5-3c0.8-0.3,1.3-0.6,1.9-0.8c5.4-2,10.8-2.4,16.3-0.7
			c3.9,1.2,7,3.8,9.6,6.9c0.4,0.5,0.9,0.7,1.6,0.6c-0.1-0.2-0.2-0.3-0.3-0.4c-5.2-5-9.5-10.6-13.3-16.7c-0.1-0.2-0.2-0.4-0.4-0.5
			c-0.9-0.6-1.8-1.1-2.3-1.5c-1.5,0.4-2.8,0.9-4.1,1c-3.3,0.3-6.3-0.8-9-2.7c-3-2.1-5.5-4.8-7.6-7.8c-1.4-1.9-2.6-3.9-3.2-6.1
			c-0.1-0.5-0.2-1-0.3-1.5c0.2,0,0.3-0.1,0.4-0.1c0.2,0,0.3,0,0.5,0c6.2-0.3,11.6,1.8,16.2,5.9c3.1,2.7,5.3,6.2,7.1,9.8
			c0.3,0.6,0.7,0.9,1.4,1.1c-0.1-0.3-0.2-0.5-0.3-0.6c-3.8-6.8-6.9-13.9-9.1-21.4c-0.5-1.7-1.6-2.9-2.5-4.3
			c-2.3,0.5-4.5,0.1-6.4-1.1c-1.4-0.9-2.6-2-3.8-3.2c-3.1-3.3-5.2-7.2-6.8-11.3c-0.8-2.1-1.4-4.4-2-6.6c0-0.7,0-1.4,0-2.1
			c0.7,0.2,1.5,0.4,2.2,0.7c6.2,2.7,10.8,7.1,14,13c1.6,2.8,2.4,5.9,3,9.1c0.1,0.6,0.4,1.1,0.6,1.7c0.1,0,0.2-0.1,0.2-0.1
			c0-0.1,0-0.2-0.1-0.3c-1.7-7-2.5-14.2-2.6-21.4c0-0.5,0.1-1-0.1-1.4c-0.3-0.9-0.7-1.8-1.2-2.6c-0.1-0.2-0.4-0.4-0.6-0.4
			c-1.4-0.2-2.7-0.8-3.8-1.7c-1.7-1.3-2.9-3-3.8-4.9c-2.7-5.5-4-11.4-4.4-17.4c-0.1-1.8,0.1-3.6,0.1-5.5c0.3,0,0.3,0,0.4,0.1
			c0.1,0.1,0.3,0.1,0.4,0.2c6.5,4.9,10.5,11.3,12,19.3c0.6,3,0.5,6.1,0.3,9.1c0,0.5,0.3,1.1,0.5,1.6c0.1,0,0.2,0,0.2-0.1
			c0-0.2,0-0.3,0-0.5c0-5.9,0.5-11.8,1.2-17.6c0.2-1.9,0.8-3.7,0.2-5.7c-0.4-1.2-0.8-2.1-1.9-2.8c-2.5-1.5-3.8-4.1-4.4-6.8
			c-1.5-6.4-1.4-12.9-0.2-19.3c0.3-1.5,0.8-2.9,1.2-4.6c0.5,0.7,0.9,1.1,1.3,1.6c3.8,4.8,5.9,10.3,6.2,16.5
			c0.2,4.3-0.5,8.5-1.6,12.6c-0.2,0.7,0,1.7,0.3,2.2c1.4-6.9,3.4-13.6,6.1-20.1c0.1-0.1,0.1-0.3,0.1-0.4c0-1.1,0-2.1,0-3.2
			c0-0.2-0.1-0.4-0.2-0.5c-2.6-2.2-3.5-5.2-3.8-8.4c-0.3-3,0.1-6,0.6-8.9c0.8-4.1,1.8-8.1,3.7-11.8c0.4-0.8,1-1.6,1.5-2.5
			c0.1,0.1,0.2,0.2,0.2,0.2c0.1,0.2,0.2,0.3,0.2,0.5c1.9,3.7,2.9,7.6,3.1,11.7c0.4,6.4-0.7,12.4-3.9,18c-0.5,0.8-0.5,1.7-0.5,2.6
			c0.1-0.1,0.2-0.2,0.2-0.2c3-6.7,6.7-13,10.9-19c0.1-0.2,0.2-0.4,0.2-0.5c0.1-0.8,0.2-1.7,0.4-2.5c0.1-0.4,0-0.7-0.3-1.1
			c-0.5-0.5-0.9-1.1-1.2-1.8c-1.1-2.5-1.2-5.2-0.8-7.9c0.8-6,3.6-11.2,7.3-15.8c1-1.2,2.1-2.3,3.2-3.5c0.2,0.3,0.2,0.4,0.3,0.5
			c0.1,0.4,0.2,0.7,0.2,1.1c0.5,3.5,0.5,7.1,0,10.6c-0.8,6.3-3,12-7.5,16.7c-0.7,0.8-0.7,1.6-0.7,2.5c1-1.1,1.9-2.3,2.8-3.5
			c3.6-4.3,7.3-8.5,11.5-12.1c0.2-0.2,0.3-0.6,0.3-0.8c-0.1-1.4,0.1-2.8,0.7-4.2c1.2-2.8,3.4-4.9,5.9-6.6c2.4-1.6,5.2-2.5,7.9-3.5
			c1.4-0.5,2.9-1.1,4.3-1.7C75.3,40.9,75.4,40.9,75.4,40.9z"/>
	</g>
	<g>
		<path class="st0" d="M211.5,234c-1.6-0.3-3.3-0.5-4.8-0.9c-3.1-0.9-5.6-2.6-7.1-5.6c-0.1-0.1-0.1-0.3-0.2-0.3
			c-1.1-0.2-2.3-0.8-3.3-0.4c-4.5,1.6-9.1,2.9-13.8,3.6c-0.2,0-0.4,0.1-0.6,0.1c-0.1,0-0.1,0-0.2,0c-0.1-1.3,0.2-1.8,1.5-2
			c4.9-0.8,9.7-2.3,14.3-4.2c0.5-0.2,0.8-0.5,0.9-1.1c0.5-1.5,0.3-3.1,0.3-4.6c-0.1-9.7,4.2-17.1,12.6-22c0.2-0.1,0.4-0.2,0.5-0.3
			c0.1,0,0.2-0.1,0.4-0.1c-0.2,1.4-0.4,2.7-0.6,4c-0.7,3.7-1.3,7.5-2.2,11.1c-0.9,3.7-2.8,6.9-6,9.1c-1.1,0.7-2.2,1.4-3.5,1.4
			c-0.1,0-0.3,0.2-0.4,0.3c-0.1,0.4-0.2,0.8-0.4,1.4c0.9-0.4,1.7-0.8,2.5-1.2c5.9-3,11.2-6.8,16.1-11.3c0.4-0.4,0.5-0.8,0.6-1.3
			c0.1-1.7-0.2-3.3-0.7-4.9c-1.3-3.6-1.3-7.4-0.9-11.2c0.6-5.8,2.9-11,6.6-15.5c0.2-0.3,0.5-0.5,0.7-0.8c0.1-0.1,0.2-0.1,0.3-0.2
			c0.3,2.1,0.5,4.2,0.8,6.3c0.5,3.7,0.9,7.4,0.8,11.2c-0.1,3.8-1,7.4-3.5,10.3c-0.8,0.9-1.8,1.5-2.8,2.3c-0.2,0.1-0.4,0.4-0.4,0.6
			c-0.1,0.5-0.1,1.1-0.1,1.7c0.3-0.2,0.4-0.3,0.6-0.5c5.1-5.2,9.4-11.1,13-17.5c0.1-0.2,0.1-0.6,0.1-0.8c0-0.5-0.2-0.9-0.2-1.3
			c-0.1-1.1-0.5-2-1.1-2.9c-2.5-3.4-3.6-7.3-4.1-11.3c-0.8-6,0.2-11.8,2.6-17.4c0.1-0.3,0.3-0.6,0.5-1c0.2,0.6,0.4,1,0.5,1.5
			c1.3,3.3,2.6,6.5,3.8,9.8c1.1,2.9,1.8,5.9,2,9c0.2,3.2-0.5,6.2-2,9c-0.2,0.3-0.4,0.7-0.7,0.9c-1.2,0.8-0.8,1.8-0.5,2.9
			c0.6-1.3,1.3-2.5,1.9-3.8c3-6.3,5.3-12.9,7-19.7c0.1-0.3-0.1-0.8-0.2-1.1c-0.1-0.2-0.3-0.4-0.3-0.7c-0.4-1.6-1.4-2.6-2.7-3.5
			c-3.1-2.3-4.9-5.5-6.4-9c-2.5-5.9-2.9-12-1.9-18.2c0-0.1,0-0.2,0.1-0.4c0.5,0.6,0.9,1.2,1.3,1.7c2.2,3,4.6,6,6.7,9.1
			c1.9,2.7,3.5,5.7,4.1,9c0.4,2.2,0.5,4.4-0.1,6.5c-0.2,0.6-0.3,1.2-0.7,1.6c-0.6,0.6-0.4,1.2-0.1,1.8c0.2,0.3,0.3,0.7,0.7,1.1
			c0.4-2.4,0.9-4.8,1.3-7.3c0.9-5.6,1.3-11.3,1.2-16.9c0-0.3-0.2-0.7-0.4-1c-0.1-0.2-0.4-0.4-0.5-0.7c-0.6-1.2-1.6-1.8-2.9-2.3
			c-3.4-1.2-5.8-3.8-7.9-6.6c-3.2-4.3-4.8-9.2-5.4-14.5c-0.1-1.1-0.2-2.2-0.3-3.5c0.7,0.5,1.2,1,1.6,1.4c2.8,2.3,5.6,4.4,8.2,6.8
			c3.4,3.1,5.8,6.9,6.4,11.7c0.1,1.3,0.1,2.7-0.1,4c-0.2,0.9,0,1.6,0.7,2.1c0.1,0.1,0.3,0.3,0.5,0.5c0-0.5,0-0.8,0-1.1
			c-0.2-8-1.3-15.9-3.1-23.7c-0.1-0.5-0.3-0.9-0.8-1c-0.1,0-0.1-0.1-0.2-0.1c-1-1.1-2.3-1.3-3.8-1.4c-3.9-0.2-7-2.3-9.8-4.9
			c-3.8-3.5-6.1-8-7.6-12.8c0-0.2-0.1-0.3-0.1-0.6c4.6,2,9.3,3.2,13.5,5.9c2.8,1.8,5.1,4.1,6,7.4c0.3,1.2,0.5,2.4,0.5,3.6
			c0,0.8,0.2,1.3,1,1.6c0.2,0.1,0.3,0.2,0.6,0.3c0-0.2,0-0.4-0.1-0.6c-1.9-7.2-4.4-14.1-7.6-20.8c-0.3-0.5-0.5-1-1.2-1
			c0,0-0.1,0-0.1,0c-1.3-0.8-2.5-0.6-3.9-0.2c-3.4,0.9-6.6-0.1-9.7-1.6c-4.2-2.1-7.2-5.4-9.5-9.4c0-0.1-0.1-0.2-0.1-0.4
			c1,0.1,2,0.1,2.9,0.2c3,0.3,6.1,0.4,9,0.9c2.9,0.5,5.5,1.7,7.5,4c1.1,1.3,1.9,2.7,2.1,4.4c0.1,0.7,0.4,0.9,0.9,1.1
			c0.3,0.1,0.7,0.2,1.2,0.4c-1.1-2-2-3.9-3.1-5.6c-2.3-3.7-4.8-7.3-7.2-10.9c-0.2-0.2-0.6-0.3-0.9-0.5c-0.1,0-0.3,0-0.4,0
			c-1.2-0.5-2.3,0-3.4,0.5c-4.3,1.9-8.6,1.5-12.8-0.5c-2.9-1.3-5.3-3.4-7.2-6c-0.1-0.1-0.2-0.2-0.3-0.5c1.1-0.2,2.1-0.3,3.1-0.5
			c2.8-0.5,5.7-1.1,8.6-1c2.7,0.1,5.2,0.9,7.4,2.5c1.2,0.9,2.2,2,2.7,3.4c0.3,0.8,0.7,1.2,1.6,1.1c0.2,0,0.3,0,0.7,0.1
			c-0.2-0.3-0.3-0.4-0.4-0.6c-2.8-3.6-5.9-6.9-9.3-10c-0.6-0.6-1.3-1.1-1.9-1.6c-0.2-0.1-0.4-0.2-0.6-0.2c-6.4-0.3-11-3.6-14.5-8.7
			c-1.6-2.4-2.7-5-3.5-7.7c-0.1-0.2,0-0.4-0.1-0.6c0.1,0,0.1,0,0.2,0c0.3,0.2,0.6,0.3,0.9,0.5c1.9,0.7,3.9,1.4,5.8,2.1
			c3.2,1.2,6.1,2.7,8.5,5.2c1.7,1.8,3,3.7,3.4,6.2c0.1,0.8-0.2,1.8,0.1,2.5c0.3,0.7,1.2,1.2,1.9,1.7c0.1,0.1,0.2,0.2,0.3,0.3
			c3.5,3.3,6.7,6.8,9.7,10.5c0.9,1.1,1.7,2.2,2.7,3.5c-0.1-1.1-0.1-2-0.8-2.7c-2-2.1-3.6-4.5-4.8-7.2c-2.5-5.8-3.3-11.8-2.8-18
			c0.1-1.1,0.3-2.2,0.5-3.4c0.2,0.1,0.3,0.1,0.3,0.2c0.2,0.2,0.4,0.3,0.6,0.5c3.6,3.2,6,7.2,7.9,11.5c1.6,3.6,2.4,7.4,2,11.4
			c-0.2,1.7-0.5,3.3-1.6,4.6c-0.8,0.9-0.8,1.7-0.6,2.7c0.1,0.4,0.1,0.8,0.2,1.2c0.1,0.3,0.1,0.6,0.3,0.9c4.2,5.8,7.7,12,10.7,18.5
			c0.1,0.2,0.2,0.4,0.4,0.7c0.1-1.2-0.1-2-0.6-2.9c-4.2-8-4.9-16.3-2.5-25c0.5-1.8,1.3-3.4,2.1-5.4c0.4,0.6,0.7,0.9,0.9,1.3
			c1.3,2.2,2.3,4.6,3,7.1c1.4,4.9,2.4,9.9,2,15.1c-0.2,2.8-1,5.4-3,7.4c-0.9,0.9-1.2,1.7-1,2.8c0.1,0.3,0,0.7,0.1,1.1
			c0.1,0.5,0.1,1,0.2,1.5c0.9,2.4,1.9,4.8,2.6,7.3c1.2,4.1,2.3,8.2,3.5,12.5c0-0.9,0.2-1.7,0.1-2.4c-0.4-2.7-1.2-5.4-1.4-8.2
			c-0.8-7.9,1.2-15,6.3-21.2c0.3-0.3,0.6-0.7,0.9-1.1c0.2,0.4,0.3,0.6,0.4,0.9c0.9,2.5,1.4,5.1,1.6,7.8c0.4,4.8,0.4,9.7-0.7,14.4
			c-0.7,3-1.8,5.8-4.5,7.4c-1.3,0.8-1.8,1.8-2,3.2c-0.1,0.5-0.4,1.1-0.4,1.5c1.1,6.5,1.6,13.1,1.7,19.7c0,0.7,0,1.4,0,2.2
			c0.1,0,0.2,0,0.3,0.1c0.1-0.6,0.4-1.1,0.4-1.7c0-1.8-0.1-3.6,0-5.5c0.5-9.4,4.7-17,12.1-22.7c0.2-0.2,0.5-0.3,0.8-0.5
			c0.1,1.1,0.2,2.1,0.3,3c0.2,5.3-0.8,10.4-2.5,15.4c-1,3-2.2,5.8-4.3,8.2c-1.3,1.4-2.7,2.6-4.6,2.9c-0.9,0.2-1.4,0.6-1.6,1.4
			c-0.1,0.5-0.4,0.9-0.6,1.4c-0.1,0.4-0.3,0.8-0.3,1.1c-0.1,6.1-0.6,12.1-1.8,18.1c-0.3,1.4-0.6,2.9-0.9,4.3c0.1,0,0.2,0.1,0.3,0.1
			c0.2-0.5,0.5-1.1,0.6-1.6c1.4-7.6,5-13.8,11.1-18.6c2.5-1.9,5.1-3.5,8.2-4.2c0,0.7,0,1.4,0,2.1c0,0.1-0.1,0.3-0.1,0.4
			c-1.4,6.7-4.3,12.6-8.9,17.7c-2.6,2.9-5.7,4.9-10,4.1c-0.5,0.7-0.9,1.4-1.4,2.1c-0.2,0.3-0.5,0.7-0.6,1.1
			c-2.4,7.9-5.5,15.4-9.5,22.6c-0.1,0.2-0.1,0.3-0.2,0.5c0.1,0.1,0.2,0.1,0.2,0.2c0.4-0.5,0.9-0.9,1.2-1.4c0.6-1,1.1-2.1,1.7-3.1
			c4.1-6.8,9.8-11.3,17.8-12.3c1.5-0.2,3,0,4.7,0c-0.3,1-0.5,1.9-0.9,2.8c-2.6,5.6-6.4,10.2-11.7,13.4c-3.6,2.2-7.6,2.9-11.6,0.8
			c-0.5,0.3-1,0.7-1.6,1c-0.8,0.4-1.4,1.1-1.9,1.9c-3.1,4.9-6.6,9.5-10.6,13.7c-0.8,0.8-1.7,1.6-2.6,2.5c0.9,0.1,1.3-0.1,1.8-0.6
			c2.2-2.5,4.6-4.7,7.6-6.1c4.8-2.2,9.9-2.4,15-1.2c1.7,0.4,3.4,1.1,5.3,1.7c-0.6,0.9-1.1,1.6-1.6,2.2c-1.6,1.8-3.6,3.1-5.6,4.4
			c-4.1,2.5-8.6,4.1-13.5,4.1c-2.5,0-4.9-0.7-6.7-2.6c-0.6-0.7-1.2-1-2.1-0.7c-0.7,0.2-1.4,0.1-2,0.7c-5.1,4.6-10.8,8.3-17.1,11.1
			c-0.2,0.1-0.4,0.2-0.6,0.3c0.7,0.3,1.4,0.3,2-0.2c0.3-0.2,0.7-0.4,1-0.6c2.9-1.5,5.8-2.7,9.1-2.8c4-0.2,7.7,0.8,11.3,2.5
			c2.5,1.2,4.7,2.7,6.8,4.6c-0.6,0.5-1.1,1.1-1.8,1.4c-1.6,0.8-3.3,1.6-5,2.1c-2,0.6-4.1,0.9-6.2,1.3C214.2,234,212.9,234,211.5,234
			z"/>
	</g>
	<g>
		<g>
			<path class="st0" d="M94.2,99.5c-2.7,0-4.9-0.9-6.6-2.7c-1.6-1.8-2.5-4.2-2.5-7.1c0-3,0.8-5.3,2.4-7.1c1.6-1.8,3.8-2.7,6.6-2.7
				c2.8,0,4.9,0.9,6.6,2.7c1.6,1.8,2.4,4.2,2.4,7.1c0,3-0.8,5.3-2.4,7.1C99.2,98.6,97,99.5,94.2,99.5z M94.2,83.2
				c-1.6,0-2.9,0.6-3.8,1.8c-0.9,1.2-1.4,2.8-1.4,4.8c0,2,0.5,3.6,1.4,4.8c0.9,1.2,2.2,1.8,3.8,1.8c1.6,0,2.9-0.6,3.8-1.7
				c0.9-1.2,1.4-2.7,1.4-4.8c0-2-0.5-3.6-1.4-4.8C97.1,83.8,95.8,83.2,94.2,83.2z"/>
		</g>
		<g>
			<path class="st0" d="M114,81.9c-1.4,0-2.1,0.8-2.1,2.3V85h2.9v2.5h-2.9v11.8h-3.4V87.5h-2.1V85h2.1v-0.8c0-1.6,0.4-2.9,1.3-3.8
				c0.9-0.9,2.1-1.4,3.7-1.4c0.7,0,1.3,0.1,1.9,0.3v2.9C114.9,82,114.4,81.9,114,81.9z"/>
		</g>
		<g>
			<path class="st0" d="M124.7,81.9c-1.4,0-2.1,0.8-2.1,2.3V85h2.9v2.5h-2.9v11.8h-3.4V87.5h-2.1V85h2.1v-0.8c0-1.6,0.4-2.9,1.3-3.8
				c0.9-0.9,2.1-1.4,3.7-1.4c0.7,0,1.3,0.1,1.9,0.3v2.9C125.6,82,125.1,81.9,124.7,81.9z"/>
		</g>
		<g>
			<path class="st0" d="M130.7,82.8c-0.6,0-1-0.2-1.4-0.6c-0.4-0.4-0.6-0.9-0.6-1.5c0-0.6,0.2-1.1,0.6-1.5c0.4-0.4,0.9-0.6,1.4-0.6
				c0.6,0,1,0.2,1.4,0.6c0.4,0.4,0.6,0.9,0.6,1.5c0,0.6-0.2,1.1-0.6,1.5C131.7,82.6,131.2,82.8,130.7,82.8z M129,99.3V85h3.4v14.3
				H129z"/>
		</g>
		<g>
			<path class="st0" d="M141.2,95.5c0.8,0.8,1.8,1.2,3.1,1.2c1.3,0,2.4-0.3,3.4-1v2.9c-1,0.6-2.2,0.9-3.7,0.9c-2.2,0-4-0.7-5.4-2.1
				c-1.4-1.4-2-3.1-2-5.3c0-2.1,0.7-3.9,2-5.3c1.3-1.4,3.2-2.1,5.5-2.1c1.4,0,2.6,0.3,3.6,0.8v3c-0.9-0.6-2-0.9-3.3-0.9
				c-1.3,0-2.3,0.4-3.1,1.2c-0.8,0.8-1.2,1.9-1.2,3.3C140,93.6,140.4,94.7,141.2,95.5z"/>
		</g>
		<g>
			<path class="st0" d="M153.5,82.8c-0.6,0-1-0.2-1.4-0.6c-0.4-0.4-0.6-0.9-0.6-1.5c0-0.6,0.2-1.1,0.6-1.5c0.4-0.4,0.9-0.6,1.4-0.6
				c0.6,0,1,0.2,1.4,0.6c0.4,0.4,0.6,0.9,0.6,1.5c0,0.6-0.2,1.1-0.6,1.5S154.1,82.8,153.5,82.8z M151.8,99.3V85h3.4v14.3H151.8z"/>
		</g>
		<g>
			<path class="st0" d="M165.1,84.7c3.9,0,5.8,1.8,5.8,5.4v9.2h-3.4v-1.7c-0.7,1.2-1.9,1.8-3.7,1.8c-1.4,0-2.4-0.4-3.2-1.2
				c-0.8-0.8-1.2-1.8-1.2-3.1c0-1.3,0.5-2.3,1.5-3.1c1-0.8,2.5-1.2,4.4-1.2h2.1V90c0-0.8-0.2-1.4-0.6-1.8c-0.4-0.4-1.1-0.6-2.1-0.6
				c-1.5,0-2.9,0.4-4.2,1.3v-3.1C161.6,85.1,163.1,84.7,165.1,84.7z M167.5,93.2h-1.8c-0.9,0-1.6,0.2-2,0.6
				c-0.5,0.4-0.7,0.8-0.7,1.4c0,1.2,0.7,1.8,2.1,1.8c0.8,0,1.3-0.2,1.8-0.7c0.4-0.4,0.6-1,0.6-1.7V93.2z"/>
		</g>
		<g>
			<path class="st0" d="M175.7,99.3v-20h3.4v20H175.7z"/>
		</g>
		<g>
			<path class="st0" d="M78.6,109.4c-0.9,0-1.6,0.2-2.1,0.6c-0.5,0.4-0.7,0.9-0.7,1.5c0,0.6,0.3,1.1,0.8,1.5
				c0.5,0.4,1.3,0.8,2.2,1.2c0.9,0.4,1.6,0.7,2.1,1c0.5,0.3,1,0.6,1.5,1.1c1.1,0.9,1.7,2.2,1.7,3.8c0,1.7-0.6,3-1.8,4
				c-1.2,1-2.9,1.5-4.9,1.5c-2.1,0-3.8-0.4-5.2-1.2v-3.6c1.6,1.2,3.4,1.8,5.3,1.8c0.9,0,1.6-0.2,2.1-0.6c0.5-0.4,0.8-1,0.8-1.7
				c0-0.3-0.1-0.6-0.2-0.9c-0.1-0.3-0.4-0.5-0.8-0.8c-0.8-0.5-1.7-1-2.7-1.4c-0.7-0.3-1.3-0.6-1.7-0.9c-0.4-0.3-0.9-0.6-1.4-1
				c-1-0.9-1.5-2.1-1.5-3.7c0-1.6,0.6-2.9,1.8-3.8c1.2-1,2.7-1.5,4.6-1.5c1.9,0,3.5,0.3,4.8,0.9v3.4
				C81.7,109.8,80.2,109.4,78.6,109.4z"/>
		</g>
		<g>
			<path class="st0" d="M94.7,125.6c-2.3,0-4.1-0.7-5.4-2c-1.3-1.4-2-3.1-2-5.4c0-2.2,0.6-4,1.9-5.3c1.2-1.3,2.8-2,4.7-2
				c1.9,0,3.3,0.6,4.4,1.7c1.1,1.1,1.6,2.8,1.6,4.9c0,0.5-0.1,1.2-0.2,2h-9c0.2,1,0.8,1.8,1.5,2.4c0.8,0.5,1.8,0.8,3.2,0.8
				c1.3,0,2.5-0.4,3.6-1.1v2.9C98.1,125.3,96.6,125.6,94.7,125.6z M96.7,117.1v-0.4c0-0.9-0.3-1.7-0.7-2.2c-0.5-0.6-1.1-0.8-2-0.8
				c-0.8,0-1.6,0.3-2.2,0.9c-0.6,0.6-1,1.5-1.1,2.6H96.7z"/>
		</g>
		<g>
			<path class="st0" d="M104.3,125.4v-18.1h3.4v18.1H104.3z"/>
		</g>
		<g>
			<path class="st0" d="M119.2,125.6c-2.3,0-4.1-0.7-5.4-2c-1.3-1.4-2-3.1-2-5.4c0-2.2,0.6-4,1.9-5.3c1.2-1.3,2.8-2,4.7-2
				c1.9,0,3.3,0.6,4.4,1.7c1.1,1.1,1.6,2.8,1.6,4.9c0,0.5-0.1,1.2-0.2,2h-9c0.2,1,0.8,1.8,1.5,2.4c0.8,0.5,1.8,0.8,3.2,0.8
				c1.3,0,2.5-0.4,3.6-1.1v2.9C122.6,125.3,121.1,125.6,119.2,125.6z M121.2,117.1v-0.4c0-0.9-0.3-1.7-0.7-2.2
				c-0.5-0.6-1.1-0.8-2-0.8s-1.6,0.3-2.2,0.9c-0.6,0.6-1,1.5-1.1,2.6H121.2z"/>
		</g>
		<g>
			<path class="st0" d="M132.6,121.6c0.8,0.8,1.8,1.2,3.1,1.2s2.4-0.3,3.4-1v2.9c-1,0.6-2.2,0.9-3.7,0.9c-2.2,0-4-0.7-5.4-2.1
				c-1.4-1.4-2-3.1-2-5.3c0-2.1,0.7-3.9,2-5.3c1.3-1.4,3.2-2.1,5.5-2.1c1.4,0,2.6,0.3,3.6,0.8v3c-0.9-0.6-2-0.9-3.3-0.9
				c-1.3,0-2.3,0.4-3.1,1.2c-0.8,0.8-1.2,1.9-1.2,3.3C131.4,119.7,131.8,120.8,132.6,121.6z"/>
		</g>
		<g>
			<path class="st0" d="M147.2,113.7v7.3c0,0.6,0.2,1.1,0.5,1.4c0.3,0.3,0.8,0.5,1.4,0.5c0.6,0,1.3-0.2,1.9-0.6v2.9
				c-0.7,0.3-1.5,0.5-2.5,0.5c-3.1,0-4.6-1.6-4.6-4.7v-7.2h-2.1v-2.5h2.1v-3.4h3.4v3.4h3.6v2.5H147.2z"/>
		</g>
		<g>
			<path class="st0" d="M156.7,109.4c-0.6,0-1-0.2-1.4-0.6c-0.4-0.4-0.6-0.9-0.6-1.5c0-0.6,0.2-1.1,0.6-1.5c0.4-0.4,0.9-0.6,1.4-0.6
				c0.6,0,1,0.2,1.4,0.6c0.4,0.4,0.6,0.9,0.6,1.5c0,0.6-0.2,1.1-0.6,1.5C157.8,109.2,157.3,109.4,156.7,109.4z M155,125.4v-13.9h3.4
				v13.9H155z"/>
		</g>
		<g>
			<path class="st0" d="M176.4,118.3c0,2.1-0.6,3.9-1.8,5.3c-1.2,1.4-2.9,2.1-5.1,2.1s-3.9-0.7-5.1-2c-1.2-1.4-1.8-3.1-1.8-5.3
				c0-2.1,0.6-3.9,1.9-5.4c1.3-1.4,3-2.1,5.1-2.1c2.1,0,3.8,0.7,5,2.1C175.8,114.3,176.4,116.1,176.4,118.3z M172.9,118.3
				c0-1.4-0.3-2.5-0.8-3.4c-0.5-0.9-1.4-1.3-2.5-1.3c-1.1,0-2,0.4-2.5,1.3c-0.6,0.9-0.9,2-0.9,3.3c0,1.3,0.3,2.4,0.9,3.3
				c0.6,0.9,1.4,1.3,2.5,1.3s1.9-0.4,2.5-1.3C172.6,120.8,172.9,119.7,172.9,118.3z"/>
		</g>
		<g>
			<path class="st0" d="M183.8,111.1v2.5c0.8-1.8,2.3-2.6,4.4-2.6c1.4,0,2.6,0.4,3.4,1.3c0.8,0.9,1.2,2.1,1.2,3.7v9.5h-3.4v-8.8
				c0-0.9-0.2-1.7-0.7-2.1c-0.5-0.5-1.1-0.7-1.9-0.7c-0.8,0-1.5,0.3-2.1,1c-0.6,0.7-0.9,1.7-0.9,3v7.7h-3.4v-14.3H183.8z"/>
		</g>
	</g>
	<g>
		<path class="st0" d="M94.1,145.2v-9h1.4v9H94.1z"/>
		<path class="st0" d="M99.6,138.5v1.2c0.4-0.8,1.1-1.2,2.1-1.2c0.7,0,1.2,0.2,1.6,0.6s0.6,1,0.6,1.7v4.6h-1.3V141
			c0-0.5-0.1-0.8-0.4-1.1c-0.2-0.2-0.6-0.4-1-0.4s-0.8,0.2-1.1,0.5c-0.3,0.4-0.5,0.9-0.5,1.5v3.7h-1.3v-6.7H99.6z"/>
		<path class="st0" d="M108.1,139.5v3.7c0,0.6,0.3,1,0.9,1c0.4,0,0.7-0.1,0.9-0.3v1.2c-0.3,0.2-0.7,0.2-1.1,0.2
			c-1.4,0-2.1-0.7-2.1-2.1v-3.7h-1.1v-1h1.1v-1.6h1.3v1.6h1.8v1H108.1z"/>
		<path class="st0" d="M115.2,145.3c-1,0-1.9-0.3-2.5-0.9c-0.6-0.6-0.9-1.5-0.9-2.5c0-1.1,0.3-1.9,0.9-2.5c0.6-0.6,1.3-0.9,2.2-0.9
			s1.6,0.3,2.1,0.8c0.5,0.5,0.8,1.3,0.8,2.3c0,0.3,0,0.6-0.1,0.9h-4.4c0.1,0.6,0.3,1,0.7,1.3c0.4,0.3,0.9,0.5,1.6,0.5
			c0.7,0,1.2-0.2,1.7-0.5v1.2C116.7,145.2,116,145.3,115.2,145.3z M116.3,141.4v-0.2c0-0.5-0.2-0.9-0.4-1.2
			c-0.3-0.3-0.6-0.4-1.1-0.4c-0.5,0-0.9,0.2-1.2,0.5c-0.3,0.3-0.5,0.8-0.6,1.4H116.3z"/>
		<path class="st0" d="M121.2,138.5v1.2c0.3-0.8,0.9-1.2,1.8-1.2c0.1,0,0.3,0,0.4,0v1.3c-0.2-0.1-0.4-0.1-0.6-0.1
			c-0.5,0-0.8,0.2-1.1,0.6c-0.3,0.4-0.4,0.9-0.4,1.4v3.6h-1.3v-6.7H121.2z"/>
		<path class="st0" d="M126.5,138.5v1.2c0.4-0.8,1.1-1.2,2.1-1.2c0.7,0,1.2,0.2,1.6,0.6c0.4,0.4,0.6,1,0.6,1.7v4.6h-1.3V141
			c0-0.5-0.1-0.8-0.4-1.1c-0.2-0.2-0.6-0.4-1-0.4c-0.4,0-0.8,0.2-1.1,0.5c-0.3,0.4-0.5,0.9-0.5,1.5v3.7h-1.3v-6.7H126.5z"/>
		<path class="st0" d="M135.6,138.4c1.8,0,2.6,0.9,2.6,2.6v4.3h-1.3v-0.8c-0.3,0.6-1,0.9-1.8,0.9c-0.6,0-1.1-0.2-1.5-0.6
			c-0.4-0.4-0.6-0.9-0.6-1.5c0-0.6,0.2-1.1,0.7-1.4c0.5-0.4,1.2-0.5,2-0.5h1.1v-0.4c0-0.5-0.1-0.8-0.3-1c-0.2-0.2-0.6-0.4-1.1-0.4
			c-0.7,0-1.4,0.2-2,0.6v-1.3C134,138.5,134.7,138.4,135.6,138.4z M136.9,142.2h-1c-0.5,0-0.9,0.1-1.1,0.3c-0.3,0.2-0.4,0.4-0.4,0.8
			c0,0.3,0.1,0.5,0.3,0.7c0.2,0.2,0.5,0.3,0.9,0.3s0.7-0.1,1-0.4c0.2-0.2,0.4-0.5,0.4-0.9V142.2z"/>
		<path class="st0" d="M142.5,139.5v3.7c0,0.6,0.3,1,0.9,1c0.4,0,0.7-0.1,0.9-0.3v1.2c-0.3,0.2-0.7,0.2-1.1,0.2
			c-1.4,0-2.1-0.7-2.1-2.1v-3.7h-1.1v-1h1.1v-1.6h1.3v1.6h1.8v1H142.5z"/>
		<path class="st0" d="M146.7,137c-0.2-0.2-0.2-0.3-0.2-0.6c0-0.2,0.1-0.4,0.2-0.6c0.2-0.2,0.3-0.2,0.6-0.2c0.2,0,0.4,0.1,0.6,0.2
			c0.2,0.2,0.2,0.4,0.2,0.6s-0.1,0.4-0.2,0.6c-0.2,0.2-0.4,0.2-0.6,0.2C147,137.2,146.8,137.2,146.7,137z M146.6,145.2v-6.7h1.3v6.7
			H146.6z"/>
		<path class="st0" d="M156.6,141.9c0,1-0.3,1.8-0.9,2.5c-0.6,0.7-1.4,1-2.4,1s-1.8-0.3-2.3-1c-0.6-0.6-0.9-1.5-0.9-2.5
			s0.3-1.8,0.9-2.5c0.6-0.7,1.4-1,2.4-1c1,0,1.8,0.3,2.3,1C156.4,140,156.6,140.9,156.6,141.9z M155.3,141.9c0-0.7-0.2-1.3-0.5-1.7
			c-0.3-0.4-0.8-0.7-1.4-0.7c-0.6,0-1.1,0.2-1.4,0.7c-0.3,0.5-0.5,1-0.5,1.7c0,0.7,0.2,1.2,0.5,1.7c0.3,0.5,0.8,0.7,1.4,0.7
			s1-0.2,1.3-0.7C155.1,143.1,155.3,142.6,155.3,141.9z"/>
		<path class="st0" d="M160.2,138.5v1.2c0.4-0.8,1.1-1.2,2.1-1.2c0.7,0,1.2,0.2,1.6,0.6c0.4,0.4,0.6,1,0.6,1.7v4.6h-1.3V141
			c0-0.5-0.1-0.8-0.4-1.1c-0.2-0.2-0.6-0.4-1-0.4c-0.4,0-0.8,0.2-1.1,0.5c-0.3,0.4-0.5,0.9-0.5,1.5v3.7h-1.3v-6.7H160.2z"/>
		<path class="st0" d="M169.3,138.4c1.8,0,2.6,0.9,2.6,2.6v4.3h-1.3v-0.8c-0.3,0.6-1,0.9-1.8,0.9c-0.6,0-1.1-0.2-1.5-0.6
			c-0.4-0.4-0.6-0.9-0.6-1.5c0-0.6,0.2-1.1,0.7-1.4c0.5-0.4,1.2-0.5,2-0.5h1.1v-0.4c0-0.5-0.1-0.8-0.3-1c-0.2-0.2-0.6-0.4-1.1-0.4
			c-0.7,0-1.4,0.2-2,0.6v-1.3C167.7,138.5,168.4,138.4,169.3,138.4z M170.6,142.2h-1c-0.5,0-0.9,0.1-1.1,0.3
			c-0.3,0.2-0.4,0.4-0.4,0.8c0,0.3,0.1,0.5,0.3,0.7c0.2,0.2,0.5,0.3,0.9,0.3s0.7-0.1,1-0.4c0.2-0.2,0.4-0.5,0.4-0.9V142.2z"/>
		<path class="st0" d="M174.5,145.2v-9.4h1.3v9.4H174.5z"/>
		<path class="st0" d="M80.6,148.8h-3.7v2.9h3.3v1.1h-3.3v3.7h-1.4v-9h5.1V148.8z"/>
		<path class="st0" d="M82.9,148.4c-0.2-0.2-0.2-0.3-0.2-0.6s0.1-0.4,0.2-0.6c0.2-0.2,0.3-0.2,0.6-0.2c0.2,0,0.4,0.1,0.6,0.2
			c0.2,0.2,0.2,0.4,0.2,0.6c0,0.2-0.1,0.4-0.2,0.6c-0.2,0.2-0.4,0.2-0.6,0.2C83.3,148.6,83.1,148.6,82.9,148.4z M82.8,156.6v-6.7
			h1.3v6.7H82.8z"/>
		<path class="st0" d="M86.9,156.6v-9.4h1.3v9.4H86.9z"/>
		<path class="st0" d="M92.2,149.9v1.1c0.4-0.8,1-1.2,1.9-1.2c1,0,1.7,0.4,1.9,1.3c0.2-0.4,0.5-0.7,0.8-1c0.4-0.2,0.8-0.3,1.2-0.3
			c0.7,0,1.2,0.2,1.6,0.6c0.4,0.4,0.5,1,0.5,1.7v4.5h-1.3v-4.3c0-1-0.4-1.4-1.2-1.4c-0.4,0-0.7,0.2-1,0.5c-0.3,0.3-0.5,0.9-0.5,1.5
			v3.7h-1.3v-4.3c0-1-0.4-1.4-1.2-1.4c-0.4,0-0.7,0.2-1,0.5c-0.3,0.3-0.5,0.9-0.5,1.5v3.7h-1.3v-6.7H92.2z"/>
		<path class="st0" d="M104,149.9v1.1c0.4-0.8,1-1.2,1.9-1.2c1,0,1.7,0.4,1.9,1.3c0.2-0.4,0.5-0.7,0.8-1s0.8-0.3,1.2-0.3
			c0.7,0,1.2,0.2,1.6,0.6c0.4,0.4,0.5,1,0.5,1.7v4.5h-1.3v-4.3c0-1-0.4-1.4-1.2-1.4c-0.4,0-0.7,0.2-1,0.5c-0.3,0.3-0.5,0.9-0.5,1.5
			v3.7h-1.3v-4.3c0-1-0.4-1.4-1.2-1.4c-0.4,0-0.7,0.2-1,0.5c-0.3,0.3-0.5,0.9-0.5,1.5v3.7h-1.3v-6.7H104z"/>
		<path class="st0" d="M116.8,149.8c1.8,0,2.6,0.9,2.6,2.6v4.3h-1.3v-0.8c-0.3,0.6-1,0.9-1.8,0.9c-0.6,0-1.1-0.2-1.5-0.6
			c-0.4-0.4-0.6-0.9-0.6-1.5c0-0.6,0.2-1.1,0.7-1.4c0.5-0.4,1.2-0.5,2-0.5h1.1v-0.4c0-0.5-0.1-0.8-0.3-1c-0.2-0.2-0.6-0.4-1.1-0.4
			c-0.7,0-1.4,0.2-2,0.6v-1.3C115.2,149.9,115.9,149.8,116.8,149.8z M118.1,153.6h-1c-0.5,0-0.9,0.1-1.1,0.3
			c-0.3,0.2-0.4,0.4-0.4,0.8c0,0.3,0.1,0.5,0.3,0.7c0.2,0.2,0.5,0.3,0.9,0.3c0.4,0,0.7-0.1,1-0.4c0.2-0.2,0.4-0.5,0.4-0.9V153.6z"/>
		<path class="st0" d="M122,156.6v-9.3h1.3v9.3H122z M124.9,153.1l2.6,3.5h-1.6l-2.6-3.5l2.5-3.2h1.5L124.9,153.1z"/>
		<path class="st0" d="M132.5,156.7c-1,0-1.9-0.3-2.5-0.9c-0.6-0.6-0.9-1.5-0.9-2.5c0-1.1,0.3-1.9,0.9-2.5c0.6-0.6,1.3-0.9,2.2-0.9
			c0.9,0,1.6,0.3,2.1,0.8c0.5,0.5,0.8,1.3,0.8,2.3c0,0.3,0,0.6-0.1,0.9h-4.4c0.1,0.6,0.3,1,0.7,1.3c0.4,0.3,0.9,0.5,1.6,0.5
			c0.7,0,1.2-0.2,1.7-0.5v1.2C134,156.5,133.3,156.7,132.5,156.7z M133.6,152.8v-0.2c0-0.5-0.2-0.9-0.4-1.2
			c-0.3-0.3-0.6-0.4-1.1-0.4c-0.5,0-0.9,0.2-1.2,0.5c-0.3,0.3-0.5,0.8-0.6,1.4H133.6z"/>
		<path class="st0" d="M138.5,149.9v1.2c0.3-0.8,0.9-1.2,1.8-1.2c0.1,0,0.3,0,0.4,0v1.3c-0.2-0.1-0.4-0.1-0.6-0.1
			c-0.5,0-0.8,0.2-1.1,0.6c-0.3,0.4-0.4,0.9-0.4,1.4v3.6h-1.3v-6.7H138.5z"/>
		<path class="st0" d="M151.7,148.8H148v2.9h3.3v1.1H148v3.7h-1.4v-9h5.1V148.8z"/>
		<path class="st0" d="M157,156.7c-1,0-1.9-0.3-2.5-0.9c-0.6-0.6-0.9-1.5-0.9-2.5c0-1.1,0.3-1.9,0.9-2.5c0.6-0.6,1.3-0.9,2.2-0.9
			c0.9,0,1.6,0.3,2.1,0.8c0.5,0.5,0.8,1.3,0.8,2.3c0,0.3,0,0.6-0.1,0.9h-4.4c0.1,0.6,0.3,1,0.7,1.3c0.4,0.3,0.9,0.5,1.6,0.5
			c0.7,0,1.2-0.2,1.7-0.5v1.2C158.5,156.5,157.8,156.7,157,156.7z M158.1,152.8v-0.2c0-0.5-0.2-0.9-0.4-1.2
			c-0.3-0.3-0.6-0.4-1.1-0.4c-0.5,0-0.9,0.2-1.2,0.5c-0.3,0.3-0.5,0.8-0.6,1.4H158.1z"/>
		<path class="st0" d="M163.9,150.9c-0.3,0-0.6,0.1-0.7,0.2c-0.2,0.1-0.3,0.3-0.3,0.6c0,0.3,0.1,0.5,0.3,0.6c0.1,0,0.1,0.1,0.2,0.1
			c0,0,0.1,0.1,0.2,0.1c0.1,0,0.2,0.1,0.2,0.1c0.1,0.1,0.4,0.2,0.7,0.3c0.4,0.2,0.7,0.4,1,0.7s0.4,0.7,0.4,1.2s-0.2,1-0.6,1.3
			c-0.4,0.3-1,0.5-1.8,0.5c-0.8,0-1.4-0.1-1.9-0.4v-1.2c0.6,0.4,1.3,0.6,1.9,0.6c0.3,0,0.6-0.1,0.8-0.2c0.2-0.1,0.3-0.3,0.3-0.5
			c0-0.2-0.1-0.4-0.2-0.6c-0.2-0.2-0.3-0.3-0.5-0.3c-0.2-0.1-0.4-0.2-0.8-0.4c-1.1-0.4-1.6-1.1-1.6-1.9c0-0.6,0.2-1.1,0.7-1.4
			c0.4-0.3,1-0.5,1.7-0.5s1.2,0.1,1.7,0.3v1.2C165.1,151,164.6,150.9,163.9,150.9z"/>
		<path class="st0" d="M169.8,150.9v3.7c0,0.6,0.3,1,0.9,1c0.4,0,0.7-0.1,0.9-0.3v1.2c-0.3,0.2-0.7,0.2-1.1,0.2
			c-1.4,0-2.1-0.7-2.1-2.1v-3.7h-1.1v-1h1.1v-1.6h1.3v1.6h1.8v1H169.8z"/>
		<path class="st0" d="M174,148.4c-0.2-0.2-0.2-0.3-0.2-0.6s0.1-0.4,0.2-0.6c0.2-0.2,0.3-0.2,0.6-0.2c0.2,0,0.4,0.1,0.6,0.2
			c0.2,0.2,0.2,0.4,0.2,0.6c0,0.2-0.1,0.4-0.2,0.6c-0.2,0.2-0.4,0.2-0.6,0.2C174.3,148.6,174.1,148.6,174,148.4z M173.9,156.6v-6.7
			h1.3v6.7H173.9z"/>
		<path class="st0" d="M179.7,156.6l-2.4-6.7h1.4c1.1,3.3,1.7,5.2,1.8,5.7c0.1-0.4,0.4-1.4,0.9-2.9l0.9-2.8h1.4l-2.4,6.7H179.7z"/>
		<path class="st0" d="M187.8,149.8c1.8,0,2.6,0.9,2.6,2.6v4.3h-1.3v-0.8c-0.3,0.6-1,0.9-1.8,0.9c-0.6,0-1.1-0.2-1.5-0.6
			c-0.4-0.4-0.6-0.9-0.6-1.5c0-0.6,0.2-1.1,0.7-1.4c0.5-0.4,1.2-0.5,2-0.5h1.1v-0.4c0-0.5-0.1-0.8-0.3-1c-0.2-0.2-0.6-0.4-1.1-0.4
			c-0.7,0-1.4,0.2-2,0.6v-1.3C186.2,149.9,186.9,149.8,187.8,149.8z M189.1,153.6h-1c-0.5,0-0.9,0.1-1.1,0.3
			c-0.3,0.2-0.4,0.4-0.4,0.8c0,0.3,0.1,0.5,0.3,0.7c0.2,0.2,0.5,0.3,0.9,0.3c0.4,0,0.7-0.1,1-0.4c0.2-0.2,0.4-0.5,0.4-0.9V153.6z"/>
		<path class="st0" d="M193,156.6v-9.4h1.3v9.4H193z"/>
		<path class="st0" d="M87.6,164.7c0,1-0.3,1.8-0.9,2.5c-0.6,0.7-1.4,1-2.4,1s-1.8-0.3-2.3-1c-0.6-0.6-0.9-1.5-0.9-2.5
			c0-1,0.3-1.8,0.9-2.5c0.6-0.7,1.4-1,2.4-1c1,0,1.8,0.3,2.3,1C87.4,162.8,87.6,163.6,87.6,164.7z M86.3,164.7
			c0-0.7-0.2-1.3-0.5-1.7c-0.3-0.4-0.8-0.7-1.4-0.7c-0.6,0-1.1,0.2-1.4,0.7c-0.3,0.5-0.5,1-0.5,1.7c0,0.7,0.2,1.2,0.5,1.7
			c0.3,0.5,0.8,0.7,1.4,0.7c0.6,0,1-0.2,1.3-0.7C86.1,165.9,86.3,165.4,86.3,164.7z"/>
		<path class="st0" d="M92.7,159.6c-0.6,0-1,0.4-1,1.2v0.5h1.4v1h-1.4v5.7h-1.3v-5.7h-1.1v-1h1.1v-0.5c0-0.7,0.2-1.3,0.6-1.7
			c0.4-0.4,0.9-0.6,1.6-0.6c0.2,0,0.5,0,0.8,0.1v1.1C93.2,159.7,92.9,159.6,92.7,159.6z"/>
		<path class="st0" d="M104,159.2h1.2l0.9,3.2l1.2,4.2c0.3-1.6,0.9-4.1,1.7-7.5h1.4l-2.2,9h-1.6l-0.9-2.8l-1.2-4
			c-0.2,0.7-0.8,2.9-1.9,6.8H101l-2.4-9h1.4l0.8,3.3l1,4.2C102.3,165.2,103,162.7,104,159.2z"/>
		<path class="st0" d="M118.6,164.7c0,1-0.3,1.8-0.9,2.5c-0.6,0.7-1.4,1-2.4,1s-1.8-0.3-2.3-1c-0.6-0.6-0.9-1.5-0.9-2.5
			c0-1,0.3-1.8,0.9-2.5c0.6-0.7,1.4-1,2.4-1c1,0,1.8,0.3,2.3,1C118.3,162.8,118.6,163.6,118.6,164.7z M117.3,164.7
			c0-0.7-0.2-1.3-0.5-1.7c-0.3-0.4-0.8-0.7-1.4-0.7s-1.1,0.2-1.4,0.7c-0.3,0.5-0.5,1-0.5,1.7c0,0.7,0.2,1.2,0.5,1.7
			c0.3,0.5,0.8,0.7,1.4,0.7c0.6,0,1-0.2,1.3-0.7C117.1,165.9,117.3,165.4,117.3,164.7z"/>
		<path class="st0" d="M122.2,161.3v1.2c0.3-0.8,0.9-1.2,1.8-1.2c0.1,0,0.3,0,0.4,0v1.3c-0.2-0.1-0.4-0.1-0.6-0.1
			c-0.5,0-0.8,0.2-1.1,0.6c-0.3,0.4-0.4,0.9-0.4,1.4v3.6h-1.3v-6.7H122.2z"/>
		<path class="st0" d="M126.2,168v-9.4h1.3v9.4H126.2z"/>
		<path class="st0" d="M134.8,158.6h1.3v9.4h-1.3v-1c-0.5,0.7-1.2,1.1-2,1.1c-0.9,0-1.6-0.3-2.1-1c-0.5-0.7-0.8-1.5-0.8-2.5
			c0-1,0.3-1.8,0.8-2.5c0.5-0.6,1.2-1,2.1-1c0.9,0,1.5,0.4,2,1.1V158.6z M131.2,164.6c0,0.7,0.2,1.3,0.5,1.7
			c0.3,0.4,0.8,0.6,1.3,0.6c0.5,0,0.9-0.2,1.3-0.6c0.4-0.4,0.5-1,0.5-1.8c0-0.8-0.2-1.4-0.6-1.7c-0.4-0.4-0.8-0.6-1.3-0.6
			c-0.5,0-0.9,0.2-1.2,0.6C131.4,163.4,131.2,163.9,131.2,164.6z"/>
		<path class="st0" d="M147.1,160.2c-0.9,0-1.6,0.3-2.2,0.9c-0.6,0.6-0.9,1.4-0.9,2.4c0,1,0.3,1.8,0.9,2.4c0.6,0.6,1.3,0.9,2.3,0.9
			c0.9,0,1.7-0.2,2.3-0.7v1.4c-0.5,0.4-1.3,0.5-2.3,0.5c-1.3,0-2.4-0.4-3.3-1.2c-0.9-0.8-1.3-1.9-1.3-3.3c0-1.4,0.4-2.5,1.3-3.3
			c0.9-0.9,1.9-1.3,3.3-1.3c1,0,1.7,0.2,2.3,0.5v1.3c-0.4-0.2-0.7-0.4-1.1-0.4C148,160.2,147.6,160.2,147.1,160.2z"/>
		<path class="st0" d="M151.8,159.8c-0.2-0.2-0.2-0.3-0.2-0.6s0.1-0.4,0.2-0.6c0.2-0.2,0.3-0.2,0.6-0.2c0.2,0,0.4,0.1,0.6,0.2
			s0.2,0.4,0.2,0.6s-0.1,0.4-0.2,0.6c-0.2,0.2-0.4,0.2-0.6,0.2C152.1,160,151.9,160,151.8,159.8z M151.7,168v-6.7h1.3v6.7H151.7z"/>
		<path class="st0" d="M157,161.3v1.2c0.4-0.8,1.1-1.2,2.1-1.2c0.7,0,1.2,0.2,1.6,0.6c0.4,0.4,0.6,1,0.6,1.7v4.6H160v-4.3
			c0-0.5-0.1-0.8-0.4-1.1c-0.2-0.2-0.6-0.4-1-0.4c-0.4,0-0.8,0.2-1.1,0.5c-0.3,0.4-0.5,0.9-0.5,1.5v3.7h-1.3v-6.7H157z"/>
		<path class="st0" d="M166.9,168.1c-1,0-1.9-0.3-2.5-0.9c-0.6-0.6-0.9-1.5-0.9-2.5c0-1.1,0.3-1.9,0.9-2.5c0.6-0.6,1.3-0.9,2.2-0.9
			c0.9,0,1.6,0.3,2.1,0.8c0.5,0.5,0.8,1.3,0.8,2.3c0,0.3,0,0.6-0.1,0.9h-4.4c0.1,0.6,0.3,1,0.7,1.3c0.4,0.3,0.9,0.5,1.6,0.5
			c0.7,0,1.2-0.2,1.7-0.5v1.2C168.4,167.9,167.7,168.1,166.9,168.1z M168,164.2v-0.2c0-0.5-0.2-0.9-0.4-1.2
			c-0.3-0.3-0.6-0.4-1.1-0.4c-0.5,0-0.9,0.2-1.2,0.5c-0.3,0.3-0.5,0.8-0.6,1.4H168z"/>
		<path class="st0" d="M172.9,161.3v1.1c0.4-0.8,1-1.2,1.9-1.2c1,0,1.7,0.4,1.9,1.3c0.2-0.4,0.5-0.7,0.8-1c0.4-0.2,0.8-0.3,1.2-0.3
			c0.7,0,1.2,0.2,1.6,0.6c0.4,0.4,0.5,1,0.5,1.7v4.5h-1.3v-4.3c0-1-0.4-1.4-1.2-1.4c-0.4,0-0.7,0.2-1,0.5c-0.3,0.3-0.5,0.9-0.5,1.5
			v3.7h-1.3v-4.3c0-1-0.4-1.4-1.2-1.4c-0.4,0-0.7,0.2-1,0.5c-0.3,0.3-0.5,0.9-0.5,1.5v3.7h-1.3v-6.7H172.9z"/>
		<path class="st0" d="M185.7,161.2c1.8,0,2.6,0.9,2.6,2.6v4.3H187v-0.8c-0.3,0.6-1,0.9-1.8,0.9c-0.6,0-1.1-0.2-1.5-0.6
			c-0.4-0.4-0.6-0.9-0.6-1.5s0.2-1.1,0.7-1.4c0.5-0.4,1.2-0.5,2-0.5h1.1v-0.4c0-0.5-0.1-0.8-0.3-1c-0.2-0.2-0.6-0.4-1.1-0.4
			c-0.7,0-1.4,0.2-2,0.6v-1.3C184.1,161.3,184.8,161.2,185.7,161.2z M187,165h-1c-0.5,0-0.9,0.1-1.1,0.3c-0.3,0.2-0.4,0.4-0.4,0.8
			s0.1,0.5,0.3,0.7c0.2,0.2,0.5,0.3,0.9,0.3s0.7-0.1,1-0.4c0.2-0.2,0.4-0.5,0.4-0.9V165z"/>
	</g>
	<g>
		<path class="st0" d="M125,207.2v1.9h-8v-1.8c1.5-1,2.7-2.1,3.8-3.3c1.1-1.2,1.6-2.2,1.6-3.2c0-0.6-0.2-1.1-0.5-1.5
			c-0.4-0.3-0.9-0.5-1.6-0.5c-1,0-2,0.4-3,1.2v-2.2c0.4-0.3,0.9-0.6,1.5-0.8c0.6-0.2,1.2-0.3,1.8-0.3c1.2,0,2.2,0.3,2.9,1
			c0.8,0.7,1.1,1.6,1.1,2.8c0,2.2-1.5,4.5-4.6,6.7H125z"/>
		<path class="st0" d="M131.1,209.3c-1.4,0-2.5-0.6-3.3-1.7c-0.8-1.1-1.1-2.7-1.1-4.6c0-1.9,0.4-3.5,1.1-4.6
			c0.8-1.1,1.8-1.7,3.2-1.7c1.4,0,2.5,0.6,3.3,1.7c0.8,1.1,1.2,2.7,1.2,4.6c0,1.9-0.4,3.5-1.1,4.6
			C133.6,208.7,132.5,209.3,131.1,209.3z M129.5,199.8c-0.4,0.7-0.6,1.8-0.6,3.2c0,1.4,0.2,2.4,0.6,3.2c0.4,0.7,0.9,1.1,1.5,1.1
			s1.2-0.4,1.5-1.1c0.4-0.7,0.6-1.8,0.6-3.2c0-1.4-0.2-2.4-0.6-3.2c-0.4-0.7-0.9-1.1-1.5-1.1C130.4,198.7,129.9,199.1,129.5,199.8z"
			/>
		<path class="st0" d="M142,196.9v12.2h-2.2v-9.8l-3,1.8v-2.3l3.2-1.9H142z"/>
		<path class="st0" d="M152.8,205.8c0,1-0.4,1.9-1.2,2.5c-0.8,0.6-1.9,1-3.1,1c-1.3,0-2.3-0.3-3.1-0.9c-0.8-0.6-1.2-1.4-1.2-2.5
			c0-1.4,0.6-2.3,1.9-2.9c-1.2-0.6-1.7-1.5-1.7-2.6c0-1.2,0.4-2.1,1.2-2.7s1.8-0.9,2.9-0.9c1.2,0,2.1,0.3,2.9,0.9
			c0.8,0.6,1.2,1.5,1.2,2.7c0,1.2-0.6,2.1-1.7,2.7C152.2,203.5,152.8,204.4,152.8,205.8z M146.5,205.8c0,0.5,0.2,0.9,0.5,1.2
			c0.3,0.3,0.8,0.5,1.5,0.5s1.2-0.2,1.5-0.5c0.3-0.3,0.5-0.7,0.5-1.2c0-0.5-0.2-0.9-0.5-1.2c-0.4-0.3-0.9-0.5-1.5-0.5
			c-0.7,0-1.2,0.2-1.5,0.5C146.7,204.9,146.5,205.3,146.5,205.8z M150.4,200.3c0-0.5-0.1-1-0.4-1.3c-0.3-0.3-0.7-0.5-1.4-0.5
			c-0.6,0-1.1,0.2-1.4,0.5c-0.3,0.3-0.5,0.8-0.5,1.3c0,0.5,0.2,0.9,0.5,1.2c0.3,0.3,0.8,0.4,1.3,0.4c0.5,0,0.9-0.1,1.3-0.4
			C150.2,201.3,150.4,200.9,150.4,200.3z"/>
	</g>
	<g>
		<path class="st0" d="M128.8,190.4v-15.1h3.4v15.1H128.8z"/>
		<path class="st0" d="M185.4,190.4v-15.1h3.1v15.1H185.4z"/>
		<path class="st0" d="M178.4,178.1c-0.6,0-1,0.1-1.3,0.4c-0.3,0.2-0.5,0.5-0.5,0.9c0,0.4,0.2,0.7,0.6,1c0.4,0.3,0.9,0.6,1.5,0.8
			c0.6,0.3,1,0.5,1.4,0.6c0.3,0.2,0.7,0.4,1,0.6c0.4,0.3,0.7,0.6,0.9,0.9c0.6,0.7,0.8,1.6,0.8,2.6c0,1.3-0.5,2.4-1.5,3.3
			c-1,0.8-2.3,1.3-4,1.3s-3.1-0.3-4.2-0.9v-3.4c1.3,1,2.8,1.5,4.3,1.5c0.5,0,0.9-0.1,1.3-0.4c0.3-0.3,0.5-0.6,0.5-1.1
			c0-0.3-0.1-0.6-0.2-0.7c-0.2-0.2-0.3-0.3-0.4-0.4c-0.1-0.1-0.3-0.2-0.5-0.3c-0.2-0.1-0.4-0.2-0.5-0.3c-0.5-0.2-0.9-0.4-1.4-0.6
			c-1-0.4-1.7-1-2.3-1.6c-0.6-0.7-0.9-1.6-0.9-2.8s0.5-2.2,1.4-3c0.9-0.8,2.2-1.2,3.8-1.2c1.6,0,2.9,0.3,4,0.8v3.2
			C180.9,178.5,179.7,178.1,178.4,178.1z"/>
		<path class="st0" d="M118.4,185.1l0,5.2H115l0-15h5.2c1.7,0,3,0.4,4,1.3c1,0.9,1.5,2,1.5,3.5c0,2.1-0.9,3.6-2.7,4.4l3.8,5.7h-4.1
			l-3.2-5.2H118.4z M118.4,178.1v4.2h1.6c1.5,0,2.2-0.7,2.2-2.2c0-0.6-0.2-1.1-0.6-1.5c-0.4-0.4-0.9-0.5-1.6-0.5H118.4z"/>
		<path class="st0" d="M99.5,175.3h5.1c2.2,0,4.1,0.7,5.5,2.1c1.4,1.4,2.2,3.1,2.2,5.2c0,2.4-0.7,4.3-2.1,5.7
			c-1.4,1.4-3.3,2.1-5.6,2.1h-5.1L99.5,175.3z M103,187.5h1.6c1.4,0,2.4-0.4,3.2-1.3c0.7-0.9,1.1-2,1.1-3.5s-0.4-2.6-1.1-3.4
			c-0.8-0.8-1.8-1.2-3.2-1.2H103L103,187.5z"/>
		<path class="st0" d="M135.5,175.3h5.1c2.2,0,4.1,0.7,5.5,2.1s2.2,3.1,2.2,5.2c0,2.4-0.7,4.3-2.1,5.7c-1.4,1.4-3.3,2.1-5.6,2.1
			h-5.1V175.3z M139,187.5h1.6c1.4,0,2.4-0.4,3.2-1.3c0.7-0.9,1.1-2,1.1-3.5s-0.4-2.6-1.1-3.4c-0.8-0.8-1.8-1.2-3.2-1.2H139V187.5z"
			/>
		<path class="st0" d="M93.4,190.2l-0.9-3.1h-5.2l-0.9,3.1h-3.6l5-15h4.3l5,15H93.4z M88.1,184.4h3.6c-1-3.4-1.6-5.6-1.8-6.7
			C89.8,178.4,89.2,180.6,88.1,184.4z"/>
		<path class="st0" d="M167.1,190.2l-0.9-3.1h-5.2l-0.9,3.1h-3.6l5-15h4.3l5,15H167.1z M161.8,184.4h3.6c-1-3.4-1.6-5.6-1.8-6.7
			C163.5,178.4,162.9,180.6,161.8,184.4z"/>
		<path class="st0" d="M201.9,190.2l-0.9-3.1h-5.2l-0.9,3.1h-3.6l5-15h4.3l5,15H201.9z M196.5,184.4h3.6c-1-3.4-1.6-5.6-1.8-6.7
			C198.2,178.4,197.6,180.6,196.5,184.4z"/>
		<path class="st0" d="M63.1,190.2l1.3-15h3.7c1.8,4.7,2.8,7.3,3,8c0.2,0.7,0.4,1.3,0.6,1.9c0.2-1,0.8-2.5,1.6-4.5l2.1-5.4h3.7
			l1.6,15h-3.4l-0.6-5.8l-0.3-4.4c-0.3,0.9-1.5,4.2-3.7,10h-2c-2-5.5-3.2-8.8-3.5-10c0,1.1-0.1,2.5-0.2,4.4l-0.5,5.8H63.1z"/>
	</g>
</g>
</svg>
