<?xml version="1.0" encoding="utf-8"?>
<!-- Generator: Adobe Illustrator 22.0.1, SVG Export Plug-In . SVG Version: 6.00 Build 0)  -->
<svg version="1.1" id="Layer_1" xmlns="http://www.w3.org/2000/svg" xmlns:xlink="http://www.w3.org/1999/xlink" x="0px" y="0px"
	 viewBox="0 0 267 273.5" style="enable-background:new 0 0 267 273.5;" xml:space="preserve">
<style type="text/css">
	.st0{fill:#FFFFFF;}
	.st1{opacity:0.7;}
</style>
<g>
	<g>
		<path class="st0" d="M33,137.4c0.4,0.7,0.3,1.5,0.1,2.1c-0.2,0.6-0.4,1.1-0.7,1.6c0.2-0.1,0.5-0.1,0.5-0.1
			c5.5-4.1,9.4,0.8,18.9-7.9c-2.5-0.2-5-0.2-7.4,0.3c-1.5,0.3-3,0.7-4.4,1.2c-0.7,0.3-1.4,0.6-2,0.9l-1.7,1.3l-0.1,0.1
			c-0.4,0.3-1,0.2-1.3-0.2c-0.2-0.3-0.2-0.6-0.1-0.9l0.9-1.7c-0.1-7.5-3.1-13.1-4.9-14.2C29.9,123.5,29.2,131.7,33,137.4z"/>
		<path class="st0" d="M38.2,120.9c0.4,3.9,3.1,4.9,1.7,8.8c3.2-3.2,9.1-0.2,15.7-4.4c-2-0.6-4-1.1-6-1.2c-2.5-0.2-5.1,0.4-7,1.8
			l-0.1,0.1c-0.4,0.3-0.9,0.2-1.2-0.2c-0.2-0.3-0.2-0.7,0-0.9c-0.1,0,0.9-6.2,0.6-9c-0.2-1.4-0.3-2.8-0.6-4.1
			c-0.2-0.8-0.4-1.6-0.6-2.4C38.7,113.3,38,118.8,38.2,120.9z"/>
		<path class="st0" d="M47.1,118c1.6,0.5,3.4,1.4,5.1,1.5c1.7,0.1,3.4,0,5.1-0.2c2.9-0.4,5.7-1.4,8.2-2.8c-5-2.2-11-2.3-15.8,0.4
			c-0.4,0.2-0.9,0.1-1.1-0.3c-0.1-0.2-0.1-0.5,0-0.8c0.6-1.2,1.4-2.3,2.5-3.3c1.1-2.5,1.5-8.3,1.4-10.3c-0.1-1.4-0.2-2.8-0.4-4.2
			c-1.1,1.6-1.9,3.4-2.5,5.2c-0.8,2.4-1.1,5-1.2,7.5c-0.1,1.3-0.2,2.1-0.1,3.3l0.1,1c0,0.5-0.1,0.8-0.2,1.2
			C47.8,117,47.4,117.5,47.1,118z"/>
		<path class="st0" d="M23.1,195.8c-0.1,0-0.2-0.1-0.3-0.1C23,195.7,23,195.7,23.1,195.8z"/>
		<path class="st0" d="M53.8,111c0.4-0.1,0.8-0.2,1.2-0.2l-0.1,0c3.6-0.7,7.1-1.9,10-4c1.5-1,2.7-2.4,3.9-3.7c0.8-1.1,1.5-2.2,2-3.4
			c-1.4,0.2-2.8,0.5-4.2,0.9c-1.8,0.5-3.6,1.3-5.2,2.1l0,0l0,0c-0.9,0.4-1.7,0.9-2.6,1.5C55,106.6,54.2,110.4,53.8,111z"/>
		<path class="st0" d="M13.9,191.1C13.9,191.1,13.9,191.2,13.9,191.1c0.6,0.5,1.2,0.9,1.8,1.2C15,192,14.4,191.6,13.9,191.1z"/>
		<path class="st0" d="M20.4,194.9c-0.2-0.1-0.4-0.2-0.6-0.3C20,194.7,20.2,194.8,20.4,194.9z"/>
		<path class="st0" d="M26.1,176.8c-0.1-0.7-0.2-2,0.6-2.1c0.1,0,0.1,0,0.2,0l0.1,0c1.7,0,3.4-0.2,5-1c1.6-0.7,3.2-1.6,4.5-2.7
			c2.3-1.9,4.2-4.3,5.2-7.1c-2.7,0.7-5.4,1.4-7.9,2.5c-1.4,0.7-2.8,1.5-3.8,2.6c-1,1.1-1.9,2.5-2.1,3.8l0,0.1
			c-0.1,0.5-0.5,0.8-1,0.8c-0.4-0.1-0.7-0.4-0.8-0.8l-0.3-1c0,0-6.2-9.6-13.9-11.8c-0.2,2.2,1.1,9.1,5.8,11.5
			C19.8,172.6,24.5,173.9,26.1,176.8z"/>
		<path class="st0" d="M25.8,164.7c0-1.7,0.7-1.9,1.2-1.9c0.1,0,0.1,0,0.2,0c1.5,0.3,3.1,0.3,4.7-0.1c1.5-0.4,2.9-1.2,4.1-2.3
			c2.4-2.1,4.2-5,5.1-8.1c-2.4,0.6-4.8,1.2-6.9,2.2c-2.7,1.2-4.8,3.2-5.8,5.9c-0.2,0.5-0.7,0.8-1.3,0.6c-0.4-0.1-0.7-0.5-0.7-0.9
			c0-0.8,0-0.8,0.1-1.6c-0.1,0-2.9-9-11.1-13.4C15.5,159.6,23.5,158,25.8,164.7z"/>
		<path class="st0" d="M17,193.2c0.3,0.2,0.6,0.3,0.9,0.5C17.6,193.5,17.3,193.4,17,193.2z"/>
		<path class="st0" d="M25.6,147.8L25.6,147.8c1,1.3,2,2.7,2.3,4.4l0.3-1l0,0c0.1-0.5,0.7-0.9,1.2-0.7l0.1,0
			c3.1,1.1,6.7,0.3,9.6-1.4c2.4-1.4,4.5-3.5,6.2-5.8c-2.3-0.1-4.5,0-6.7,0.4c-2.7,0.5-5.3,1.6-7.1,3.6c-0.4,0.4-1,0.4-1.4,0.1
			c-0.3-0.2-0.4-0.6-0.3-1c0.1-0.4,0.2-0.9,0.2-0.9s-0.5-3.7-3.2-7.4c-1.2-1.6-2.4-3.2-3.8-4.7c-0.7,2.5-0.8,4.3-0.7,6.8
			C22.5,143,23.6,145.8,25.6,147.8z"/>
		<path class="st0" d="M28.9,187.5c-0.3-0.6-0.6-1.9,0.2-2.2c0.1,0,0.1-0.1,0.2-0.1l0.1,0c1.7-0.4,6.6-1.9,8.8-4.7
			c1.8-2.4,3.5-4.6,4-7.5c-3.4,0.9-5.5,1.1-7.7,2.7c-1.3,0.9-2.4,2-3.2,3.3c-0.8,1.3-1.4,2.8-1.3,4.2l0,0.1c0,0.5-0.4,0.9-0.9,1
			c-0.4,0-0.8-0.2-0.9-0.6l-0.5-0.9c0,0-3-8.8-16.7-7.4C16.2,186.4,26.5,184.2,28.9,187.5z"/>
		<path class="st0" d="M33.6,197.9c0,0,0.3,0.1,0.2-0.3c-0.3-0.9-0.1-2,0.1-2.1c0.1,0,0.1-0.1,0.2-0.1l0.1,0c1.6-0.6,5-3,6.8-6.1
			c1.4-2.6,3.2-5.7,3.2-8.7c-3.2,1.4-4.8,3-6.8,4.8c-1.1,1.1-2.1,2.4-2.7,3.8c-0.6,1.4-1,3-0.7,4.3l0,0.1c0.1,0.5-0.2,1-0.7,1.1
			c-0.4,0.1-0.8-0.1-1-0.5l-0.6-0.8c0,0-4.3-8.6-20-4.1C25.8,201.6,29.4,191.6,33.6,197.9z"/>
		<path class="st0" d="M41.1,206c0.1,0,0.3-0.1,0.2-0.4c-0.2-0.6-0.7-1.8-0.3-2.1c0.1-0.1,0.1-0.1,0.2-0.1l0.1,0
			c1.4-0.9,4.1-3.9,5.1-7.4c0.8-2.9,1.4-5.8,1-7.9c-9.5,6.3-7.4,12.3-6.9,13.6l0,0.1c0.2,0.5,0,1-0.5,1.2c-0.4,0.2-0.8,0.1-1.1-0.2
			l-0.7-0.7c0,0-6.4-4.8-17.8-0.4C34.5,213.7,35.8,201,41.1,206z"/>
		<path class="st0" d="M50.9,214c0,0,0.3,0.1,0.1-0.3c-0.2-0.5-1.1-1.6-0.8-2c0-0.1,0.1-0.1,0.1-0.2l0.1-0.1
			c1.2-1.2,2.3-6.2,2.6-9.7c0.3-3-0.6-6.9-1.6-7.4c-4.3,2.3-3.9,14.1-2,15.5l0.1,0.1c0.3,0.4,0.2,1-0.2,1.3c-0.3,0.2-0.8,0.2-1.1,0
			l-0.9-0.5c0,0-8.4-3.3-17.3,2.5C49.5,220.9,44.7,210.2,50.9,214z"/>
		<path class="st0" d="M73.2,223.9c-3.1-1.3-9.6-2.9-12.5-5.5c-2.2-1.9,1.4-3.9,1-9.5c-0.2-3-1.5-7.3-2.5-7.7
			c-5.6,6.8-2.2,14.6-0.2,15.8l0.1,0.1c0.3,0.4,0.3,0.9-0.1,1.3c-0.3,0.3-0.8,0.3-1.1,0.1l-0.9-0.4c0,0-8.5-3.4-17.4,5
			c17,5.3,15.3-5,21.4-2.5c4,2.3,8.2,4.6,11.6,5C73.5,225.7,73.9,224.2,73.2,223.9z"/>
	</g>
	<g class="st1">
		<path class="st0" d="M69.8,144.7c0.3,0,0.5,0,0.7,0.1c0.2,0.1,0.4,0.2,0.5,0.3c0.1,0.1,0.2,0.3,0.3,0.5c0.1,0.2,0.1,0.4,0.1,0.6
			c0,0.2,0,0.4-0.1,0.5c-0.1,0.2-0.2,0.3-0.3,0.5c-0.1,0.1-0.3,0.2-0.5,0.3c-0.2,0.1-0.5,0.1-0.7,0.1h-1.1v1.7h-1v-4.6H69.8z
			 M69.5,146.9c0.1,0,0.2,0,0.3,0c0.1,0,0.2-0.1,0.3-0.1c0.1,0,0.1-0.1,0.2-0.2c0-0.1,0.1-0.2,0.1-0.4c0-0.1,0-0.3-0.1-0.4
			c-0.1-0.1-0.1-0.2-0.2-0.2c-0.1,0-0.2-0.1-0.3-0.1c-0.1,0-0.2,0-0.3,0h-0.8v1.4H69.5z"/>
		<path class="st0" d="M72.8,146v0.6h0c0-0.1,0.1-0.2,0.2-0.3c0.1-0.1,0.2-0.2,0.3-0.2c0.1-0.1,0.2-0.1,0.3-0.1
			c0.1,0,0.2-0.1,0.3-0.1c0.1,0,0.1,0,0.2,0v0.9c0,0-0.1,0-0.2,0s-0.1,0-0.2,0c-0.2,0-0.3,0-0.4,0.1c-0.1,0.1-0.2,0.1-0.3,0.2
			c-0.1,0.1-0.1,0.2-0.2,0.3c0,0.1,0,0.3,0,0.4v1.5H72V146H72.8z"/>
		<path class="st0" d="M75.4,148.5c0.1,0.1,0.3,0.2,0.6,0.2c0.2,0,0.3,0,0.5-0.1c0.1-0.1,0.2-0.2,0.2-0.3h0.8
			c-0.1,0.4-0.3,0.7-0.6,0.9c-0.3,0.2-0.6,0.3-1,0.3c-0.3,0-0.5,0-0.7-0.1c-0.2-0.1-0.4-0.2-0.5-0.4c-0.1-0.2-0.3-0.3-0.3-0.6
			c-0.1-0.2-0.1-0.5-0.1-0.7c0-0.3,0-0.5,0.1-0.7c0.1-0.2,0.2-0.4,0.4-0.6c0.2-0.2,0.3-0.3,0.5-0.4c0.2-0.1,0.4-0.1,0.7-0.1
			c0.3,0,0.5,0.1,0.7,0.2c0.2,0.1,0.4,0.3,0.5,0.4c0.1,0.2,0.2,0.4,0.3,0.6c0.1,0.2,0.1,0.5,0.1,0.7h-2.4
			C75.2,148.2,75.2,148.4,75.4,148.5z M76.4,146.8c-0.1-0.1-0.3-0.2-0.5-0.2c-0.1,0-0.3,0-0.4,0.1c-0.1,0-0.2,0.1-0.2,0.2
			c-0.1,0.1-0.1,0.2-0.1,0.2c0,0.1,0,0.2,0,0.2h1.5C76.6,147.1,76.5,146.9,76.4,146.8z"/>
		<path class="st0" d="M79,146v0.5h0c0.1-0.2,0.3-0.3,0.4-0.4c0.2-0.1,0.4-0.1,0.6-0.1c0.2,0,0.4,0,0.6,0.1c0.2,0.1,0.3,0.2,0.4,0.4
			c0.1-0.1,0.2-0.3,0.4-0.4c0.2-0.1,0.4-0.2,0.6-0.2c0.2,0,0.3,0,0.5,0.1c0.2,0,0.3,0.1,0.4,0.2c0.1,0.1,0.2,0.2,0.3,0.4
			c0.1,0.2,0.1,0.3,0.1,0.6v2.2h-0.9v-1.9c0-0.1,0-0.2,0-0.3c0-0.1,0-0.2-0.1-0.3c0-0.1-0.1-0.1-0.2-0.2c-0.1,0-0.2-0.1-0.3-0.1
			c-0.1,0-0.2,0-0.3,0.1c-0.1,0.1-0.1,0.1-0.2,0.2c0,0.1-0.1,0.2-0.1,0.3c0,0.1,0,0.2,0,0.3v1.9h-0.9v-1.9c0-0.1,0-0.2,0-0.3
			c0-0.1,0-0.2-0.1-0.3c0-0.1-0.1-0.1-0.2-0.2c-0.1,0-0.2-0.1-0.3-0.1c0,0-0.1,0-0.2,0c-0.1,0-0.1,0.1-0.2,0.1
			c-0.1,0.1-0.1,0.1-0.2,0.2c0,0.1-0.1,0.2-0.1,0.4v1.9h-0.9V146H79z"/>
		<path class="st0" d="M84,145.5v-0.8h0.9v0.8H84z M84.9,146v3.4H84V146H84.9z"/>
		<path class="st0" d="M85.7,146.9c0.1-0.2,0.2-0.4,0.4-0.6c0.2-0.2,0.3-0.3,0.5-0.4c0.2-0.1,0.5-0.1,0.7-0.1s0.5,0,0.7,0.1
			c0.2,0.1,0.4,0.2,0.5,0.4c0.2,0.2,0.3,0.3,0.4,0.6c0.1,0.2,0.1,0.5,0.1,0.7c0,0.3,0,0.5-0.1,0.7c-0.1,0.2-0.2,0.4-0.4,0.6
			c-0.2,0.2-0.3,0.3-0.5,0.4c-0.2,0.1-0.5,0.1-0.7,0.1s-0.5,0-0.7-0.1c-0.2-0.1-0.4-0.2-0.5-0.4c-0.2-0.2-0.3-0.3-0.4-0.6
			c-0.1-0.2-0.1-0.5-0.1-0.7C85.6,147.4,85.6,147.1,85.7,146.9z M86.5,148c0,0.1,0.1,0.2,0.1,0.3s0.1,0.2,0.2,0.2
			c0.1,0.1,0.2,0.1,0.4,0.1s0.3,0,0.4-0.1c0.1-0.1,0.2-0.1,0.3-0.2c0.1-0.1,0.1-0.2,0.1-0.3c0-0.1,0-0.3,0-0.4c0-0.1,0-0.3,0-0.4
			c0-0.1-0.1-0.2-0.1-0.3c-0.1-0.1-0.1-0.2-0.3-0.2s-0.2-0.1-0.4-0.1s-0.3,0-0.4,0.1c-0.1,0.1-0.2,0.1-0.2,0.2
			c-0.1,0.1-0.1,0.2-0.1,0.3c0,0.1,0,0.3,0,0.4C86.5,147.8,86.5,147.9,86.5,148z"/>
		<path class="st0" d="M93.7,144.7c0.2,0,0.4,0,0.6,0.1c0.2,0,0.3,0.1,0.5,0.2c0.1,0.1,0.2,0.2,0.3,0.4c0.1,0.1,0.1,0.3,0.1,0.5
			c0,0.2-0.1,0.4-0.2,0.6c-0.1,0.2-0.3,0.3-0.5,0.4c0.3,0.1,0.5,0.2,0.6,0.4c0.1,0.2,0.2,0.5,0.2,0.7c0,0.2,0,0.4-0.1,0.6
			c-0.1,0.2-0.2,0.3-0.4,0.4c-0.2,0.1-0.3,0.2-0.5,0.2c-0.2,0.1-0.4,0.1-0.6,0.1h-2.2v-4.6H93.7z M93.6,146.6c0.2,0,0.3,0,0.4-0.1
			c0.1-0.1,0.2-0.2,0.2-0.4c0-0.1,0-0.2-0.1-0.3c0-0.1-0.1-0.1-0.2-0.2c-0.1,0-0.1-0.1-0.2-0.1c-0.1,0-0.2,0-0.3,0h-1v1.1H93.6z
			 M93.7,148.5c0.1,0,0.2,0,0.3,0c0.1,0,0.2-0.1,0.2-0.1c0.1,0,0.1-0.1,0.2-0.2c0-0.1,0.1-0.2,0.1-0.3c0-0.2-0.1-0.4-0.2-0.5
			c-0.1-0.1-0.3-0.2-0.5-0.2h-1.1v1.3H93.7z"/>
		<path class="st0" d="M96,147c0-0.2,0.1-0.4,0.2-0.5c0.1-0.1,0.2-0.3,0.4-0.3c0.1-0.1,0.3-0.1,0.5-0.2c0.2,0,0.4-0.1,0.6-0.1
			c0.2,0,0.3,0,0.5,0c0.2,0,0.3,0.1,0.5,0.1c0.1,0.1,0.3,0.2,0.4,0.3c0.1,0.1,0.1,0.3,0.1,0.5v1.7c0,0.2,0,0.3,0,0.4
			c0,0.1,0,0.2,0.1,0.3h-0.9c0-0.1,0-0.1,0-0.2c0-0.1,0-0.1,0-0.2c-0.1,0.2-0.3,0.3-0.5,0.3c-0.2,0.1-0.4,0.1-0.6,0.1
			c-0.2,0-0.3,0-0.4-0.1c-0.1,0-0.3-0.1-0.4-0.2c-0.1-0.1-0.2-0.2-0.2-0.3c-0.1-0.1-0.1-0.3-0.1-0.4c0-0.2,0-0.3,0.1-0.5
			c0.1-0.1,0.2-0.2,0.3-0.3c0.1-0.1,0.2-0.1,0.4-0.2c0.1,0,0.3-0.1,0.4-0.1c0.1,0,0.3,0,0.4-0.1c0.1,0,0.3,0,0.4-0.1
			c0.1,0,0.2-0.1,0.2-0.1c0.1,0,0.1-0.1,0.1-0.2c0-0.1,0-0.2,0-0.2c0-0.1-0.1-0.1-0.1-0.1c-0.1,0-0.1-0.1-0.2-0.1
			c-0.1,0-0.1,0-0.2,0c-0.2,0-0.3,0-0.4,0.1c-0.1,0.1-0.2,0.2-0.2,0.4H96z M98.1,147.7c0,0-0.1,0.1-0.1,0.1c-0.1,0-0.1,0-0.2,0
			c-0.1,0-0.1,0-0.2,0c-0.1,0-0.1,0-0.2,0c-0.1,0-0.1,0-0.2,0.1c-0.1,0-0.1,0.1-0.2,0.1c0,0-0.1,0.1-0.1,0.1c0,0.1,0,0.1,0,0.2
			c0,0.1,0,0.2,0,0.2c0,0.1,0.1,0.1,0.1,0.1c0.1,0,0.1,0.1,0.2,0.1c0.1,0,0.1,0,0.2,0c0.2,0,0.3,0,0.4-0.1c0.1-0.1,0.2-0.1,0.2-0.2
			c0-0.1,0.1-0.2,0.1-0.3c0-0.1,0-0.2,0-0.2V147.7z"/>
		<path class="st0" d="M100.6,146v0.5h0c0.1-0.2,0.3-0.3,0.5-0.4c0.2-0.1,0.4-0.1,0.6-0.1c0.2,0,0.4,0,0.6,0.1
			c0.2,0.1,0.3,0.2,0.4,0.3c0.1,0.1,0.2,0.3,0.2,0.4c0,0.2,0.1,0.4,0.1,0.6v2.1H102v-1.9c0-0.3,0-0.5-0.1-0.6s-0.2-0.2-0.5-0.2
			c-0.3,0-0.4,0.1-0.5,0.2c-0.1,0.1-0.2,0.4-0.2,0.7v1.8h-0.9V146H100.6z"/>
		<path class="st0" d="M104.5,146v0.5h0c0.1-0.2,0.3-0.3,0.5-0.4c0.2-0.1,0.4-0.1,0.6-0.1c0.2,0,0.4,0,0.6,0.1
			c0.2,0.1,0.3,0.2,0.4,0.3c0.1,0.1,0.2,0.3,0.2,0.4c0,0.2,0.1,0.4,0.1,0.6v2.1h-0.9v-1.9c0-0.3,0-0.5-0.1-0.6
			c-0.1-0.1-0.2-0.2-0.5-0.2c-0.3,0-0.4,0.1-0.5,0.2c-0.1,0.1-0.2,0.4-0.2,0.7v1.8h-0.9V146H104.5z"/>
		<path class="st0" d="M107.4,147c0-0.2,0.1-0.4,0.2-0.5c0.1-0.1,0.2-0.3,0.4-0.3c0.1-0.1,0.3-0.1,0.5-0.2c0.2,0,0.4-0.1,0.6-0.1
			c0.2,0,0.3,0,0.5,0c0.2,0,0.3,0.1,0.5,0.1c0.1,0.1,0.3,0.2,0.4,0.3c0.1,0.1,0.1,0.3,0.1,0.5v1.7c0,0.2,0,0.3,0,0.4
			c0,0.1,0,0.2,0.1,0.3h-0.9c0-0.1,0-0.1,0-0.2c0-0.1,0-0.1,0-0.2c-0.1,0.2-0.3,0.3-0.5,0.3c-0.2,0.1-0.4,0.1-0.6,0.1
			c-0.2,0-0.3,0-0.4-0.1c-0.1,0-0.3-0.1-0.4-0.2c-0.1-0.1-0.2-0.2-0.2-0.3c-0.1-0.1-0.1-0.3-0.1-0.4c0-0.2,0-0.3,0.1-0.5
			c0.1-0.1,0.2-0.2,0.3-0.3c0.1-0.1,0.2-0.1,0.4-0.2c0.1,0,0.3-0.1,0.4-0.1c0.1,0,0.3,0,0.4-0.1c0.1,0,0.3,0,0.4-0.1
			c0.1,0,0.2-0.1,0.2-0.1c0.1,0,0.1-0.1,0.1-0.2c0-0.1,0-0.2,0-0.2c0-0.1-0.1-0.1-0.1-0.1c-0.1,0-0.1-0.1-0.2-0.1
			c-0.1,0-0.1,0-0.2,0c-0.2,0-0.3,0-0.4,0.1c-0.1,0.1-0.2,0.2-0.2,0.4H107.4z M109.5,147.7c0,0-0.1,0.1-0.1,0.1c-0.1,0-0.1,0-0.2,0
			c-0.1,0-0.1,0-0.2,0c-0.1,0-0.1,0-0.2,0c-0.1,0-0.1,0-0.2,0.1c-0.1,0-0.1,0.1-0.2,0.1c0,0-0.1,0.1-0.1,0.1c0,0.1,0,0.1,0,0.2
			c0,0.1,0,0.2,0,0.2c0,0.1,0.1,0.1,0.1,0.1c0.1,0,0.1,0.1,0.2,0.1c0.1,0,0.1,0,0.2,0c0.2,0,0.3,0,0.4-0.1c0.1-0.1,0.2-0.1,0.2-0.2
			c0-0.1,0.1-0.2,0.1-0.3c0-0.1,0-0.2,0-0.2V147.7z"/>
		<path class="st0" d="M112.1,144.7v1.7h0c0.1-0.2,0.3-0.3,0.5-0.4c0.2-0.1,0.4-0.1,0.6-0.1c0.2,0,0.3,0,0.5,0.1
			c0.2,0.1,0.3,0.2,0.4,0.3c0.1,0.1,0.2,0.3,0.3,0.5c0.1,0.2,0.1,0.5,0.1,0.8c0,0.3,0,0.6-0.1,0.8c-0.1,0.2-0.2,0.4-0.3,0.5
			c-0.1,0.1-0.3,0.2-0.4,0.3c-0.2,0.1-0.3,0.1-0.5,0.1c-0.2,0-0.5,0-0.7-0.1c-0.2-0.1-0.3-0.2-0.4-0.4h0v0.4h-0.9v-4.6H112.1z
			 M113.6,147.2c0-0.1-0.1-0.2-0.1-0.3c-0.1-0.1-0.1-0.2-0.2-0.2c-0.1-0.1-0.2-0.1-0.4-0.1c-0.1,0-0.3,0-0.4,0.1
			c-0.1,0.1-0.2,0.1-0.2,0.2c-0.1,0.1-0.1,0.2-0.1,0.3c0,0.1,0,0.3,0,0.4c0,0.1,0,0.3,0,0.4c0,0.1,0.1,0.2,0.1,0.3
			c0.1,0.1,0.1,0.2,0.2,0.2c0.1,0.1,0.2,0.1,0.4,0.1c0.1,0,0.3,0,0.4-0.1c0.1-0.1,0.2-0.1,0.2-0.2c0.1-0.1,0.1-0.2,0.1-0.3
			c0-0.1,0-0.3,0-0.4C113.6,147.5,113.6,147.4,113.6,147.2z"/>
		<path class="st0" d="M115.1,147c0-0.2,0.1-0.4,0.2-0.5c0.1-0.1,0.2-0.3,0.4-0.3c0.1-0.1,0.3-0.1,0.5-0.2c0.2,0,0.4-0.1,0.6-0.1
			c0.2,0,0.3,0,0.5,0c0.2,0,0.3,0.1,0.5,0.1c0.1,0.1,0.3,0.2,0.4,0.3c0.1,0.1,0.1,0.3,0.1,0.5v1.7c0,0.2,0,0.3,0,0.4
			c0,0.1,0,0.2,0.1,0.3h-0.9c0-0.1,0-0.1,0-0.2c0-0.1,0-0.1,0-0.2c-0.1,0.2-0.3,0.3-0.5,0.3c-0.2,0.1-0.4,0.1-0.6,0.1
			c-0.2,0-0.3,0-0.4-0.1c-0.1,0-0.3-0.1-0.4-0.2c-0.1-0.1-0.2-0.2-0.2-0.3c-0.1-0.1-0.1-0.3-0.1-0.4c0-0.2,0-0.3,0.1-0.5
			c0.1-0.1,0.2-0.2,0.3-0.3c0.1-0.1,0.2-0.1,0.4-0.2c0.1,0,0.3-0.1,0.4-0.1c0.1,0,0.3,0,0.4-0.1c0.1,0,0.3,0,0.4-0.1
			c0.1,0,0.2-0.1,0.2-0.1c0.1,0,0.1-0.1,0.1-0.2c0-0.1,0-0.2,0-0.2c0-0.1-0.1-0.1-0.1-0.1c-0.1,0-0.1-0.1-0.2-0.1
			c-0.1,0-0.1,0-0.2,0c-0.2,0-0.3,0-0.4,0.1c-0.1,0.1-0.2,0.2-0.2,0.4H115.1z M117.2,147.7c0,0-0.1,0.1-0.1,0.1c-0.1,0-0.1,0-0.2,0
			c-0.1,0-0.1,0-0.2,0c-0.1,0-0.1,0-0.2,0c-0.1,0-0.1,0-0.2,0.1c-0.1,0-0.1,0.1-0.2,0.1c0,0-0.1,0.1-0.1,0.1c0,0.1,0,0.1,0,0.2
			c0,0.1,0,0.2,0,0.2c0,0.1,0.1,0.1,0.1,0.1c0.1,0,0.1,0.1,0.2,0.1s0.1,0,0.2,0c0.2,0,0.3,0,0.4-0.1c0.1-0.1,0.2-0.1,0.2-0.2
			c0-0.1,0.1-0.2,0.1-0.3c0-0.1,0-0.2,0-0.2V147.7z M117.9,144.2l-1.1,1.1h-0.6l0.7-1.1H117.9z"/>
		<path class="st0" d="M120.7,147c0-0.2,0.1-0.4,0.2-0.5c0.1-0.1,0.2-0.3,0.4-0.3c0.1-0.1,0.3-0.1,0.5-0.2c0.2,0,0.4-0.1,0.6-0.1
			c0.2,0,0.3,0,0.5,0c0.2,0,0.3,0.1,0.5,0.1c0.1,0.1,0.3,0.2,0.4,0.3c0.1,0.1,0.1,0.3,0.1,0.5v1.7c0,0.2,0,0.3,0,0.4
			c0,0.1,0,0.2,0.1,0.3h-0.9c0-0.1,0-0.1,0-0.2c0-0.1,0-0.1,0-0.2c-0.1,0.2-0.3,0.3-0.5,0.3c-0.2,0.1-0.4,0.1-0.6,0.1
			c-0.2,0-0.3,0-0.4-0.1c-0.1,0-0.3-0.1-0.4-0.2c-0.1-0.1-0.2-0.2-0.2-0.3c-0.1-0.1-0.1-0.3-0.1-0.4c0-0.2,0-0.3,0.1-0.5
			c0.1-0.1,0.2-0.2,0.3-0.3c0.1-0.1,0.2-0.1,0.4-0.2c0.1,0,0.3-0.1,0.4-0.1c0.1,0,0.3,0,0.4-0.1c0.1,0,0.3,0,0.4-0.1
			c0.1,0,0.2-0.1,0.2-0.1c0.1,0,0.1-0.1,0.1-0.2c0-0.1,0-0.2,0-0.2c0-0.1-0.1-0.1-0.1-0.1c-0.1,0-0.1-0.1-0.2-0.1
			c-0.1,0-0.1,0-0.2,0c-0.2,0-0.3,0-0.4,0.1c-0.1,0.1-0.2,0.2-0.2,0.4H120.7z M122.8,147.7c0,0-0.1,0.1-0.1,0.1c-0.1,0-0.1,0-0.2,0
			c-0.1,0-0.1,0-0.2,0c-0.1,0-0.1,0-0.2,0c-0.1,0-0.1,0-0.2,0.1c-0.1,0-0.1,0.1-0.2,0.1c0,0-0.1,0.1-0.1,0.1c0,0.1,0,0.1,0,0.2
			c0,0.1,0,0.2,0,0.2c0,0.1,0.1,0.1,0.1,0.1c0.1,0,0.1,0.1,0.2,0.1c0.1,0,0.1,0,0.2,0c0.2,0,0.3,0,0.4-0.1c0.1-0.1,0.2-0.1,0.2-0.2
			c0-0.1,0.1-0.2,0.1-0.3c0-0.1,0-0.2,0-0.2V147.7z"/>
		<path class="st0" d="M125.4,144.7v4.6h-0.9v-4.6H125.4z"/>
		<path class="st0" d="M129.4,144.7l1.1,3.2h0l1-3.2h1.4v4.6h-1V146h0l-1.1,3.3h-0.8l-1.1-3.3h0v3.3h-1v-4.6H129.4z"/>
		<path class="st0" d="M134.8,148.5c0.1,0.1,0.3,0.2,0.6,0.2c0.2,0,0.3,0,0.5-0.1c0.1-0.1,0.2-0.2,0.2-0.3h0.8
			c-0.1,0.4-0.3,0.7-0.6,0.9c-0.3,0.2-0.6,0.3-1,0.3c-0.3,0-0.5,0-0.7-0.1s-0.4-0.2-0.5-0.4c-0.1-0.2-0.3-0.3-0.3-0.6
			c-0.1-0.2-0.1-0.5-0.1-0.7c0-0.3,0-0.5,0.1-0.7c0.1-0.2,0.2-0.4,0.4-0.6c0.2-0.2,0.3-0.3,0.5-0.4c0.2-0.1,0.4-0.1,0.7-0.1
			c0.3,0,0.5,0.1,0.7,0.2c0.2,0.1,0.4,0.3,0.5,0.4c0.1,0.2,0.2,0.4,0.3,0.6c0.1,0.2,0.1,0.5,0.1,0.7h-2.4
			C134.6,148.2,134.6,148.4,134.8,148.5z M135.8,146.8c-0.1-0.1-0.3-0.2-0.5-0.2c-0.1,0-0.3,0-0.4,0.1c-0.1,0-0.2,0.1-0.2,0.2
			c-0.1,0.1-0.1,0.2-0.1,0.2c0,0.1,0,0.2,0,0.2h1.5C136,147.1,135.9,146.9,135.8,146.8z"/>
		<path class="st0" d="M137.3,149.7c0.1,0,0.2,0,0.3-0.1c0.1,0,0.1-0.1,0.1-0.2V146h0.9v3.5c0,0.2,0,0.3-0.1,0.4
			c0,0.1-0.1,0.2-0.2,0.3c-0.1,0.1-0.2,0.1-0.4,0.2c-0.2,0-0.3,0.1-0.6,0.1c-0.1,0-0.2,0-0.3,0v-0.8
			C137.1,149.7,137.2,149.7,137.3,149.7z M137.6,145.5v-0.8h0.9v0.8H137.6z"/>
		<path class="st0" d="M139.3,146.9c0.1-0.2,0.2-0.4,0.4-0.6c0.2-0.2,0.3-0.3,0.5-0.4s0.5-0.1,0.7-0.1s0.5,0,0.7,0.1
			c0.2,0.1,0.4,0.2,0.5,0.4c0.2,0.2,0.3,0.3,0.4,0.6c0.1,0.2,0.1,0.5,0.1,0.7c0,0.3,0,0.5-0.1,0.7c-0.1,0.2-0.2,0.4-0.4,0.6
			c-0.2,0.2-0.3,0.3-0.5,0.4c-0.2,0.1-0.5,0.1-0.7,0.1s-0.5,0-0.7-0.1c-0.2-0.1-0.4-0.2-0.5-0.4c-0.2-0.2-0.3-0.3-0.4-0.6
			c-0.1-0.2-0.1-0.5-0.1-0.7C139.2,147.4,139.3,147.1,139.3,146.9z M140.2,148c0,0.1,0.1,0.2,0.1,0.3c0.1,0.1,0.1,0.2,0.2,0.2
			c0.1,0.1,0.2,0.1,0.4,0.1s0.3,0,0.4-0.1c0.1-0.1,0.2-0.1,0.3-0.2c0.1-0.1,0.1-0.2,0.1-0.3c0-0.1,0-0.3,0-0.4c0-0.1,0-0.3,0-0.4
			c0-0.1-0.1-0.2-0.1-0.3c-0.1-0.1-0.1-0.2-0.3-0.2c-0.1-0.1-0.2-0.1-0.4-0.1s-0.3,0-0.4,0.1c-0.1,0.1-0.2,0.1-0.2,0.2
			c-0.1,0.1-0.1,0.2-0.1,0.3c0,0.1,0,0.3,0,0.4C140.1,147.8,140.2,147.9,140.2,148z"/>
		<path class="st0" d="M144.2,146v0.6h0c0-0.1,0.1-0.2,0.2-0.3c0.1-0.1,0.2-0.2,0.3-0.2c0.1-0.1,0.2-0.1,0.3-0.1
			c0.1,0,0.2-0.1,0.3-0.1c0.1,0,0.1,0,0.2,0v0.9c0,0-0.1,0-0.2,0c-0.1,0-0.1,0-0.2,0c-0.2,0-0.3,0-0.4,0.1c-0.1,0.1-0.2,0.1-0.3,0.2
			c-0.1,0.1-0.1,0.2-0.2,0.3c0,0.1,0,0.3,0,0.4v1.5h-0.9V146H144.2z"/>
		<path class="st0" d="M151,144.7v0.9h-2.2v1.1h1.9v0.8h-1.9v1.9h-1v-4.6H151z"/>
		<path class="st0" d="M151.5,145.5v-0.8h0.9v0.8H151.5z M152.4,146v3.4h-0.9V146H152.4z"/>
		<path class="st0" d="M154.1,144.7v4.6h-0.9v-4.6H154.1z"/>
		<path class="st0" d="M155.7,146v0.5h0c0.1-0.2,0.3-0.3,0.4-0.4c0.2-0.1,0.4-0.1,0.6-0.1c0.2,0,0.4,0,0.6,0.1
			c0.2,0.1,0.3,0.2,0.4,0.4c0.1-0.1,0.2-0.3,0.4-0.4c0.2-0.1,0.4-0.2,0.6-0.2c0.2,0,0.3,0,0.5,0.1c0.2,0,0.3,0.1,0.4,0.2
			c0.1,0.1,0.2,0.2,0.3,0.4c0.1,0.2,0.1,0.3,0.1,0.6v2.2h-0.9v-1.9c0-0.1,0-0.2,0-0.3c0-0.1,0-0.2-0.1-0.3c0-0.1-0.1-0.1-0.2-0.2
			c-0.1,0-0.2-0.1-0.3-0.1c-0.1,0-0.2,0-0.3,0.1c-0.1,0.1-0.1,0.1-0.2,0.2c0,0.1-0.1,0.2-0.1,0.3s0,0.2,0,0.3v1.9H157v-1.9
			c0-0.1,0-0.2,0-0.3c0-0.1,0-0.2-0.1-0.3c0-0.1-0.1-0.1-0.2-0.2c-0.1,0-0.2-0.1-0.3-0.1c0,0-0.1,0-0.2,0c-0.1,0-0.1,0.1-0.2,0.1
			c-0.1,0.1-0.1,0.1-0.2,0.2c0,0.1-0.1,0.2-0.1,0.4v1.9h-0.9V146H155.7z"/>
		<path class="st0" d="M161.7,148.5c0.1,0.1,0.3,0.2,0.6,0.2c0.2,0,0.3,0,0.5-0.1c0.1-0.1,0.2-0.2,0.2-0.3h0.8
			c-0.1,0.4-0.3,0.7-0.6,0.9c-0.3,0.2-0.6,0.3-1,0.3c-0.3,0-0.5,0-0.7-0.1s-0.4-0.2-0.5-0.4c-0.1-0.2-0.3-0.3-0.3-0.6
			c-0.1-0.2-0.1-0.5-0.1-0.7c0-0.3,0-0.5,0.1-0.7c0.1-0.2,0.2-0.4,0.4-0.6c0.2-0.2,0.3-0.3,0.5-0.4c0.2-0.1,0.4-0.1,0.7-0.1
			c0.3,0,0.5,0.1,0.7,0.2c0.2,0.1,0.4,0.3,0.5,0.4c0.1,0.2,0.2,0.4,0.3,0.6c0.1,0.2,0.1,0.5,0.1,0.7h-2.4
			C161.5,148.2,161.6,148.4,161.7,148.5z M162.8,146.8c-0.1-0.1-0.3-0.2-0.5-0.2c-0.1,0-0.3,0-0.4,0.1c-0.1,0-0.2,0.1-0.2,0.2
			c-0.1,0.1-0.1,0.2-0.1,0.2c0,0.1,0,0.2,0,0.2h1.5C162.9,147.1,162.9,146.9,162.8,146.8z"/>
		<path class="st0" d="M168.6,148.9c-0.1,0.2-0.3,0.3-0.4,0.4c-0.2,0.1-0.4,0.1-0.6,0.1c-0.3,0-0.5,0-0.7-0.1
			c-0.2-0.1-0.3-0.2-0.5-0.4c-0.1-0.2-0.2-0.4-0.3-0.6c-0.1-0.2-0.1-0.4-0.1-0.7c0-0.2,0-0.4,0.1-0.7c0.1-0.2,0.2-0.4,0.3-0.6
			c0.1-0.2,0.3-0.3,0.5-0.4c0.2-0.1,0.4-0.1,0.6-0.1c0.2,0,0.4,0,0.6,0.1c0.2,0.1,0.3,0.2,0.4,0.4h0v-1.7h0.9v4.6h-0.9L168.6,148.9
			L168.6,148.9z M168.6,147.2c0-0.1-0.1-0.2-0.1-0.3c-0.1-0.1-0.1-0.2-0.2-0.2c-0.1-0.1-0.2-0.1-0.4-0.1c-0.2,0-0.3,0-0.4,0.1
			c-0.1,0.1-0.2,0.1-0.3,0.2c-0.1,0.1-0.1,0.2-0.1,0.3c0,0.1,0,0.3,0,0.4c0,0.1,0,0.3,0,0.4c0,0.1,0.1,0.2,0.1,0.3
			c0.1,0.1,0.2,0.2,0.3,0.2c0.1,0.1,0.2,0.1,0.4,0.1c0.2,0,0.3,0,0.4-0.1c0.1-0.1,0.2-0.1,0.2-0.2c0.1-0.1,0.1-0.2,0.1-0.3
			c0-0.1,0-0.3,0-0.4C168.6,147.5,168.6,147.4,168.6,147.2z"/>
		<path class="st0" d="M171.2,148.5c0.1,0.1,0.3,0.2,0.6,0.2c0.2,0,0.3,0,0.5-0.1c0.1-0.1,0.2-0.2,0.2-0.3h0.8
			c-0.1,0.4-0.3,0.7-0.6,0.9c-0.3,0.2-0.6,0.3-1,0.3c-0.3,0-0.5,0-0.7-0.1s-0.4-0.2-0.5-0.4c-0.1-0.2-0.3-0.3-0.3-0.6
			c-0.1-0.2-0.1-0.5-0.1-0.7c0-0.3,0-0.5,0.1-0.7c0.1-0.2,0.2-0.4,0.4-0.6c0.2-0.2,0.3-0.3,0.5-0.4c0.2-0.1,0.4-0.1,0.7-0.1
			c0.3,0,0.5,0.1,0.7,0.2c0.2,0.1,0.4,0.3,0.5,0.4c0.1,0.2,0.2,0.4,0.3,0.6c0.1,0.2,0.1,0.5,0.1,0.7H171
			C171,148.2,171.1,148.4,171.2,148.5z M172.3,146.8c-0.1-0.1-0.3-0.2-0.5-0.2c-0.1,0-0.3,0-0.4,0.1c-0.1,0-0.2,0.1-0.2,0.2
			c-0.1,0.1-0.1,0.2-0.1,0.2c0,0.1,0,0.2,0,0.2h1.5C172.4,147.1,172.4,146.9,172.3,146.8z"/>
		<path class="st0" d="M179.1,144.7v0.9h-2.2v1.1h1.9v0.8h-1.9v1.9h-1v-4.6H179.1z"/>
		<path class="st0" d="M179.6,145.5v-0.8h0.9v0.8H179.6z M180.6,146v3.4h-0.9V146H180.6z"/>
		<path class="st0" d="M182.9,146.6c-0.1,0-0.3,0-0.4,0.1c-0.1,0.1-0.2,0.2-0.2,0.3c-0.1,0.1-0.1,0.2-0.1,0.4c0,0.1,0,0.3,0,0.4
			c0,0.1,0,0.2,0,0.4c0,0.1,0.1,0.2,0.1,0.3c0.1,0.1,0.1,0.2,0.2,0.2c0.1,0.1,0.2,0.1,0.4,0.1c0.2,0,0.4-0.1,0.5-0.2
			c0.1-0.1,0.2-0.3,0.2-0.5h0.9c-0.1,0.4-0.2,0.8-0.5,1c-0.3,0.2-0.7,0.4-1.1,0.4c-0.3,0-0.5,0-0.7-0.1s-0.4-0.2-0.5-0.4
			c-0.1-0.2-0.3-0.3-0.3-0.5s-0.1-0.4-0.1-0.7c0-0.3,0-0.5,0.1-0.7c0.1-0.2,0.2-0.4,0.3-0.6c0.1-0.2,0.3-0.3,0.5-0.4
			c0.2-0.1,0.5-0.1,0.7-0.1c0.2,0,0.4,0,0.6,0.1c0.2,0.1,0.3,0.1,0.5,0.2c0.1,0.1,0.3,0.2,0.4,0.4c0.1,0.2,0.1,0.3,0.2,0.6h-0.9
			C183.5,146.8,183.3,146.6,182.9,146.6z"/>
		<path class="st0" d="M186.6,146.6c-0.1,0-0.3,0-0.4,0.1c-0.1,0.1-0.2,0.2-0.2,0.3c-0.1,0.1-0.1,0.2-0.1,0.4c0,0.1,0,0.3,0,0.4
			c0,0.1,0,0.2,0,0.4c0,0.1,0.1,0.2,0.1,0.3c0.1,0.1,0.1,0.2,0.2,0.2c0.1,0.1,0.2,0.1,0.4,0.1c0.2,0,0.4-0.1,0.5-0.2
			c0.1-0.1,0.2-0.3,0.2-0.5h0.9c-0.1,0.4-0.2,0.8-0.5,1c-0.3,0.2-0.7,0.4-1.1,0.4c-0.3,0-0.5,0-0.7-0.1c-0.2-0.1-0.4-0.2-0.5-0.4
			c-0.1-0.2-0.3-0.3-0.3-0.5s-0.1-0.4-0.1-0.7c0-0.3,0-0.5,0.1-0.7c0.1-0.2,0.2-0.4,0.3-0.6c0.1-0.2,0.3-0.3,0.5-0.4
			c0.2-0.1,0.5-0.1,0.7-0.1c0.2,0,0.4,0,0.6,0.1c0.2,0.1,0.3,0.1,0.5,0.2c0.1,0.1,0.3,0.2,0.4,0.4c0.1,0.2,0.1,0.3,0.2,0.6h-0.9
			C187.3,146.8,187,146.6,186.6,146.6z"/>
		<path class="st0" d="M188.8,145.5v-0.8h0.9v0.8H188.8z M189.7,146v3.4h-0.9V146H189.7z"/>
		<path class="st0" d="M190.4,146.9c0.1-0.2,0.2-0.4,0.4-0.6c0.2-0.2,0.3-0.3,0.5-0.4s0.5-0.1,0.7-0.1s0.5,0,0.7,0.1
			c0.2,0.1,0.4,0.2,0.5,0.4c0.2,0.2,0.3,0.3,0.4,0.6c0.1,0.2,0.1,0.5,0.1,0.7c0,0.3,0,0.5-0.1,0.7c-0.1,0.2-0.2,0.4-0.4,0.6
			c-0.2,0.2-0.3,0.3-0.5,0.4c-0.2,0.1-0.5,0.1-0.7,0.1s-0.5,0-0.7-0.1c-0.2-0.1-0.4-0.2-0.5-0.4c-0.2-0.2-0.3-0.3-0.4-0.6
			c-0.1-0.2-0.1-0.5-0.1-0.7C190.3,147.4,190.4,147.1,190.4,146.9z M191.3,148c0,0.1,0.1,0.2,0.1,0.3c0.1,0.1,0.1,0.2,0.2,0.2
			c0.1,0.1,0.2,0.1,0.4,0.1s0.3,0,0.4-0.1c0.1-0.1,0.2-0.1,0.3-0.2c0.1-0.1,0.1-0.2,0.1-0.3c0-0.1,0-0.3,0-0.4c0-0.1,0-0.3,0-0.4
			c0-0.1-0.1-0.2-0.1-0.3c-0.1-0.1-0.1-0.2-0.3-0.2c-0.1-0.1-0.2-0.1-0.4-0.1s-0.3,0-0.4,0.1c-0.1,0.1-0.2,0.1-0.2,0.2
			c-0.1,0.1-0.1,0.2-0.1,0.3c0,0.1,0,0.3,0,0.4C191.2,147.8,191.3,147.9,191.3,148z M192.3,144.2l-0.7,1.1h0.6l1.1-1.1H192.3z"/>
		<path class="st0" d="M195.3,146v0.5h0c0.1-0.2,0.3-0.3,0.5-0.4c0.2-0.1,0.4-0.1,0.6-0.1c0.2,0,0.4,0,0.6,0.1
			c0.2,0.1,0.3,0.2,0.4,0.3c0.1,0.1,0.2,0.3,0.2,0.4c0,0.2,0.1,0.4,0.1,0.6v2.1h-0.9v-1.9c0-0.3,0-0.5-0.1-0.6s-0.2-0.2-0.5-0.2
			c-0.3,0-0.4,0.1-0.5,0.2c-0.1,0.1-0.2,0.4-0.2,0.7v1.8h-0.9V146H195.3z"/>
	</g>
	<g>
		<path class="st0" d="M75.9,180.3v0.5h-3.5v2.4h3.1v0.5h-3.1v3.1h-0.6v-6.5H75.9z"/>
		<path class="st0" d="M76.9,185.3c0.1,0.2,0.2,0.4,0.3,0.6c0.1,0.2,0.3,0.3,0.5,0.4c0.2,0.1,0.4,0.2,0.7,0.2c0.4,0,0.8-0.1,1-0.3
			c0.2-0.2,0.4-0.5,0.5-0.9h0.6c-0.1,0.5-0.3,1-0.7,1.2c-0.3,0.3-0.8,0.4-1.4,0.4c-0.4,0-0.7-0.1-1-0.2c-0.3-0.1-0.5-0.3-0.7-0.5
			c-0.2-0.2-0.3-0.5-0.4-0.8c-0.1-0.3-0.1-0.6-0.1-1c0-0.3,0-0.6,0.1-0.9c0.1-0.3,0.2-0.6,0.4-0.8c0.2-0.2,0.4-0.4,0.7-0.6
			c0.3-0.1,0.6-0.2,1-0.2c0.4,0,0.7,0.1,1,0.2c0.3,0.2,0.5,0.4,0.7,0.6c0.2,0.2,0.3,0.5,0.4,0.9c0.1,0.3,0.1,0.6,0.1,1h-3.6
			C76.8,184.9,76.9,185.1,76.9,185.3z M79.8,183.6c-0.1-0.2-0.2-0.4-0.3-0.5c-0.1-0.2-0.3-0.3-0.5-0.4c-0.2-0.1-0.4-0.1-0.6-0.1
			c-0.2,0-0.4,0-0.6,0.1c-0.2,0.1-0.3,0.2-0.5,0.4c-0.1,0.2-0.2,0.3-0.3,0.5c-0.1,0.2-0.1,0.4-0.2,0.6h3.1
			C79.9,184,79.9,183.8,79.8,183.6z"/>
		<path class="st0" d="M84,183.1c-0.1-0.1-0.2-0.2-0.3-0.3c-0.1-0.1-0.2-0.1-0.4-0.2c-0.1,0-0.3-0.1-0.5-0.1c-0.1,0-0.3,0-0.4,0
			c-0.1,0-0.3,0.1-0.4,0.1c-0.1,0.1-0.2,0.1-0.3,0.3c-0.1,0.1-0.1,0.2-0.1,0.4c0,0.1,0,0.2,0.1,0.3s0.1,0.2,0.2,0.2
			c0.1,0.1,0.2,0.1,0.3,0.2s0.2,0.1,0.3,0.1l0.8,0.2c0.2,0,0.3,0.1,0.5,0.1c0.2,0.1,0.3,0.1,0.4,0.3c0.1,0.1,0.2,0.2,0.3,0.4
			c0.1,0.2,0.1,0.3,0.1,0.5c0,0.3-0.1,0.5-0.2,0.7c-0.1,0.2-0.3,0.3-0.4,0.4c-0.2,0.1-0.4,0.2-0.6,0.2c-0.2,0-0.4,0.1-0.7,0.1
			c-0.6,0-1-0.1-1.4-0.4c-0.3-0.3-0.5-0.7-0.6-1.3h0.6c0,0.4,0.2,0.7,0.4,0.9c0.3,0.2,0.6,0.3,1,0.3c0.1,0,0.3,0,0.4,0
			s0.3-0.1,0.4-0.2c0.1-0.1,0.2-0.2,0.3-0.3c0.1-0.1,0.1-0.3,0.1-0.4c0-0.1,0-0.3-0.1-0.4s-0.1-0.2-0.2-0.2
			c-0.1-0.1-0.2-0.1-0.3-0.2c-0.1,0-0.3-0.1-0.4-0.1l-0.7-0.2c-0.2,0-0.4-0.1-0.5-0.2c-0.2-0.1-0.3-0.1-0.4-0.2s-0.2-0.2-0.3-0.3
			c-0.1-0.1-0.1-0.3-0.1-0.5c0-0.2,0.1-0.4,0.2-0.6s0.2-0.3,0.4-0.4c0.2-0.1,0.4-0.2,0.6-0.2c0.2,0,0.4-0.1,0.6-0.1
			c0.2,0,0.5,0,0.7,0.1c0.2,0.1,0.4,0.2,0.5,0.3c0.2,0.1,0.3,0.3,0.4,0.5c0.1,0.2,0.1,0.4,0.2,0.7h-0.6
			C84.1,183.4,84.1,183.2,84,183.1z"/>
		<path class="st0" d="M87.6,182.2v0.5h-1v3.2c0,0.2,0,0.3,0.1,0.4c0.1,0.1,0.2,0.2,0.4,0.2c0.2,0,0.3,0,0.5,0v0.5
			c-0.1,0-0.2,0-0.3,0c-0.1,0-0.2,0-0.3,0c-0.4,0-0.7-0.1-0.8-0.2c-0.2-0.2-0.2-0.4-0.2-0.8v-3.2h-0.8v-0.5H86v-1.4h0.6v1.4H87.6z"
			/>
		<path class="st0" d="M89,180.3v0.9h-0.6v-0.9H89z M89,182.2v4.7h-0.6v-4.7H89z"/>
		<path class="st0" d="M90.2,182.2l1.5,4.2h0l1.5-4.2h0.6l-1.8,4.7h-0.6l-1.8-4.7H90.2z"/>
		<path class="st0" d="M94.5,182.9c0.1-0.2,0.2-0.4,0.4-0.5c0.2-0.1,0.4-0.2,0.6-0.3c0.2-0.1,0.5-0.1,0.8-0.1c0.2,0,0.4,0,0.6,0.1
			c0.2,0,0.4,0.1,0.6,0.2c0.2,0.1,0.3,0.3,0.4,0.5c0.1,0.2,0.2,0.5,0.2,0.8v2.5c0,0.2,0.1,0.3,0.3,0.3c0.1,0,0.1,0,0.2,0v0.5
			c-0.1,0-0.1,0-0.2,0c-0.1,0-0.1,0-0.2,0c-0.1,0-0.3,0-0.4-0.1c-0.1,0-0.2-0.1-0.2-0.2c0-0.1-0.1-0.2-0.1-0.3c0-0.1,0-0.2,0-0.3h0
			c-0.1,0.2-0.2,0.3-0.3,0.4c-0.1,0.1-0.2,0.2-0.4,0.3c-0.1,0.1-0.3,0.1-0.4,0.2c-0.2,0-0.4,0.1-0.6,0.1c-0.2,0-0.4,0-0.6-0.1
			c-0.2-0.1-0.4-0.1-0.5-0.2c-0.1-0.1-0.3-0.3-0.3-0.4c-0.1-0.2-0.1-0.4-0.1-0.6c0-0.3,0.1-0.6,0.2-0.8c0.1-0.2,0.3-0.3,0.6-0.4
			c0.2-0.1,0.5-0.2,0.8-0.2c0.3,0,0.6-0.1,0.9-0.1c0.1,0,0.2,0,0.3,0c0.1,0,0.2-0.1,0.2-0.1c0.1,0,0.1-0.1,0.1-0.2
			c0-0.1,0.1-0.2,0.1-0.3c0-0.2,0-0.4-0.1-0.5c-0.1-0.1-0.2-0.2-0.3-0.3c-0.1-0.1-0.2-0.1-0.4-0.2s-0.3,0-0.5,0
			c-0.4,0-0.7,0.1-0.9,0.3c-0.2,0.2-0.4,0.5-0.4,0.8h-0.6C94.3,183.3,94.4,183.1,94.5,182.9z M97.3,184.3c0,0.1-0.1,0.1-0.2,0.1
			c-0.1,0-0.2,0.1-0.3,0.1c-0.2,0-0.5,0.1-0.8,0.1c-0.3,0-0.5,0.1-0.7,0.2c-0.2,0.1-0.4,0.2-0.5,0.3c-0.1,0.1-0.2,0.3-0.2,0.5
			c0,0.1,0,0.3,0.1,0.4c0.1,0.1,0.1,0.2,0.2,0.3c0.1,0.1,0.2,0.1,0.3,0.2c0.1,0,0.3,0.1,0.4,0.1c0.2,0,0.4,0,0.6-0.1
			c0.2-0.1,0.4-0.2,0.5-0.3c0.1-0.1,0.3-0.3,0.4-0.5c0.1-0.2,0.1-0.4,0.1-0.6L97.3,184.3L97.3,184.3z"/>
		<path class="st0" d="M99.7,180.3v6.5h-0.6v-6.5H99.7z"/>
		<path class="st0" d="M104.1,180.3v6.5h-0.6v-6.5H104.1z"/>
		<path class="st0" d="M105.9,182.2v0.8h0c0.1-0.3,0.3-0.5,0.6-0.7c0.3-0.2,0.6-0.3,0.9-0.3c0.3,0,0.6,0,0.8,0.1
			c0.2,0.1,0.4,0.2,0.5,0.4c0.1,0.2,0.2,0.3,0.3,0.6c0.1,0.2,0.1,0.5,0.1,0.8v3h-0.6v-3c0-0.2,0-0.4-0.1-0.6c0-0.2-0.1-0.3-0.2-0.5
			c-0.1-0.1-0.2-0.2-0.4-0.3c-0.2-0.1-0.3-0.1-0.6-0.1s-0.4,0-0.6,0.1c-0.2,0.1-0.3,0.2-0.5,0.3c-0.1,0.1-0.2,0.3-0.3,0.5
			c-0.1,0.2-0.1,0.4-0.1,0.6v2.8h-0.6v-4.7H105.9z"/>
		<path class="st0" d="M112.2,182.2v0.5h-1v3.2c0,0.2,0,0.3,0.1,0.4c0.1,0.1,0.2,0.2,0.4,0.2c0.2,0,0.3,0,0.5,0v0.5
			c-0.1,0-0.2,0-0.3,0c-0.1,0-0.2,0-0.3,0c-0.4,0-0.7-0.1-0.8-0.2c-0.2-0.2-0.2-0.4-0.2-0.8v-3.2h-0.8v-0.5h0.8v-1.4h0.6v1.4H112.2z
			"/>
		<path class="st0" d="M113.4,185.3c0.1,0.2,0.2,0.4,0.3,0.6c0.1,0.2,0.3,0.3,0.5,0.4c0.2,0.1,0.4,0.2,0.7,0.2c0.4,0,0.8-0.1,1-0.3
			c0.2-0.2,0.4-0.5,0.5-0.9h0.6c-0.1,0.5-0.3,1-0.7,1.2c-0.3,0.3-0.8,0.4-1.4,0.4c-0.4,0-0.7-0.1-1-0.2c-0.3-0.1-0.5-0.3-0.7-0.5
			c-0.2-0.2-0.3-0.5-0.4-0.8c-0.1-0.3-0.1-0.6-0.1-1c0-0.3,0-0.6,0.1-0.9c0.1-0.3,0.2-0.6,0.4-0.8c0.2-0.2,0.4-0.4,0.7-0.6
			c0.3-0.1,0.6-0.2,1-0.2c0.4,0,0.7,0.1,1,0.2c0.3,0.2,0.5,0.4,0.7,0.6c0.2,0.2,0.3,0.5,0.4,0.9c0.1,0.3,0.1,0.6,0.1,1h-3.6
			C113.4,184.9,113.4,185.1,113.4,185.3z M116.3,183.6c-0.1-0.2-0.2-0.4-0.3-0.5c-0.1-0.2-0.3-0.3-0.5-0.4s-0.4-0.1-0.6-0.1
			c-0.2,0-0.4,0-0.6,0.1c-0.2,0.1-0.3,0.2-0.5,0.4c-0.1,0.2-0.2,0.3-0.3,0.5c-0.1,0.2-0.1,0.4-0.2,0.6h3.1
			C116.4,184,116.4,183.8,116.3,183.6z"/>
		<path class="st0" d="M118.3,182.2v1.1h0c0.1-0.4,0.4-0.7,0.7-0.9c0.3-0.2,0.7-0.3,1.1-0.3v0.6c-0.3,0-0.5,0-0.7,0.1
			c-0.2,0.1-0.4,0.2-0.6,0.4c-0.2,0.2-0.3,0.3-0.4,0.5c-0.1,0.2-0.1,0.4-0.1,0.7v2.5h-0.6v-4.7H118.3z"/>
		<path class="st0" d="M121.4,182.2v0.8h0c0.1-0.3,0.3-0.5,0.6-0.7c0.3-0.2,0.6-0.3,0.9-0.3c0.3,0,0.6,0,0.8,0.1
			c0.2,0.1,0.4,0.2,0.5,0.4c0.1,0.2,0.2,0.3,0.3,0.6c0.1,0.2,0.1,0.5,0.1,0.8v3h-0.6v-3c0-0.2,0-0.4-0.1-0.6c0-0.2-0.1-0.3-0.2-0.5
			c-0.1-0.1-0.2-0.2-0.4-0.3c-0.2-0.1-0.3-0.1-0.6-0.1c-0.2,0-0.4,0-0.6,0.1s-0.3,0.2-0.5,0.3c-0.1,0.1-0.2,0.3-0.3,0.5
			c-0.1,0.2-0.1,0.4-0.1,0.6v2.8h-0.6v-4.7H121.4z"/>
		<path class="st0" d="M125.9,182.9c0.1-0.2,0.2-0.4,0.4-0.5c0.2-0.1,0.4-0.2,0.6-0.3c0.2-0.1,0.5-0.1,0.8-0.1c0.2,0,0.4,0,0.6,0.1
			c0.2,0,0.4,0.1,0.6,0.2c0.2,0.1,0.3,0.3,0.4,0.5c0.1,0.2,0.2,0.5,0.2,0.8v2.5c0,0.2,0.1,0.3,0.3,0.3c0.1,0,0.1,0,0.2,0v0.5
			c-0.1,0-0.1,0-0.2,0c-0.1,0-0.1,0-0.2,0c-0.1,0-0.3,0-0.4-0.1c-0.1,0-0.2-0.1-0.2-0.2c0-0.1-0.1-0.2-0.1-0.3c0-0.1,0-0.2,0-0.3h0
			c-0.1,0.2-0.2,0.3-0.3,0.4c-0.1,0.1-0.2,0.2-0.4,0.3c-0.1,0.1-0.3,0.1-0.4,0.2c-0.2,0-0.4,0.1-0.6,0.1c-0.2,0-0.4,0-0.6-0.1
			c-0.2-0.1-0.4-0.1-0.5-0.2c-0.1-0.1-0.3-0.3-0.3-0.4c-0.1-0.2-0.1-0.4-0.1-0.6c0-0.3,0.1-0.6,0.2-0.8c0.1-0.2,0.3-0.3,0.6-0.4
			c0.2-0.1,0.5-0.2,0.8-0.2c0.3,0,0.6-0.1,0.9-0.1c0.1,0,0.2,0,0.3,0c0.1,0,0.2-0.1,0.2-0.1c0.1,0,0.1-0.1,0.1-0.2
			c0-0.1,0.1-0.2,0.1-0.3c0-0.2,0-0.4-0.1-0.5c-0.1-0.1-0.2-0.2-0.3-0.3c-0.1-0.1-0.2-0.1-0.4-0.2s-0.3,0-0.5,0
			c-0.4,0-0.7,0.1-0.9,0.3c-0.2,0.2-0.4,0.5-0.4,0.8h-0.6C125.7,183.3,125.8,183.1,125.9,182.9z M128.8,184.3c0,0.1-0.1,0.1-0.2,0.1
			c-0.1,0-0.2,0.1-0.3,0.1c-0.2,0-0.5,0.1-0.8,0.1c-0.3,0-0.5,0.1-0.7,0.2c-0.2,0.1-0.4,0.2-0.5,0.3c-0.1,0.1-0.2,0.3-0.2,0.5
			c0,0.1,0,0.3,0.1,0.4c0.1,0.1,0.1,0.2,0.2,0.3c0.1,0.1,0.2,0.1,0.3,0.2c0.1,0,0.3,0.1,0.4,0.1c0.2,0,0.4,0,0.6-0.1
			c0.2-0.1,0.4-0.2,0.5-0.3c0.1-0.1,0.3-0.3,0.4-0.5c0.1-0.2,0.1-0.4,0.1-0.6L128.8,184.3L128.8,184.3z"/>
		<path class="st0" d="M133.4,182.8c-0.2-0.2-0.5-0.3-0.9-0.3c-0.3,0-0.5,0.1-0.7,0.2c-0.2,0.1-0.4,0.3-0.5,0.5
			c-0.1,0.2-0.2,0.4-0.3,0.6c-0.1,0.2-0.1,0.5-0.1,0.7c0,0.3,0,0.5,0.1,0.7c0.1,0.2,0.2,0.5,0.3,0.6c0.1,0.2,0.3,0.3,0.5,0.5
			c0.2,0.1,0.4,0.2,0.7,0.2c0.2,0,0.3,0,0.5-0.1c0.2-0.1,0.3-0.2,0.4-0.3c0.1-0.1,0.2-0.3,0.3-0.4c0.1-0.2,0.1-0.3,0.1-0.5h0.6
			c-0.1,0.6-0.3,1-0.6,1.3c-0.3,0.3-0.8,0.5-1.3,0.5c-0.4,0-0.7-0.1-1-0.2c-0.3-0.1-0.5-0.3-0.7-0.5c-0.2-0.2-0.3-0.5-0.4-0.8
			c-0.1-0.3-0.1-0.6-0.1-1c0-0.3,0-0.7,0.1-1c0.1-0.3,0.2-0.6,0.4-0.8c0.2-0.2,0.4-0.4,0.7-0.5c0.3-0.1,0.6-0.2,1-0.2
			c0.5,0,0.9,0.1,1.3,0.4c0.4,0.3,0.6,0.7,0.6,1.2h-0.6C133.8,183.3,133.6,183,133.4,182.8z"/>
		<path class="st0" d="M135.9,180.3v0.9h-0.6v-0.9H135.9z M135.9,182.2v4.7h-0.6v-4.7H135.9z"/>
		<path class="st0" d="M139.9,182.2c0.3,0.1,0.5,0.3,0.7,0.5c0.2,0.2,0.3,0.5,0.4,0.8c0.1,0.3,0.1,0.6,0.1,1c0,0.3,0,0.7-0.1,1
			c-0.1,0.3-0.2,0.6-0.4,0.8c-0.2,0.2-0.4,0.4-0.7,0.5c-0.3,0.1-0.6,0.2-1,0.2c-0.4,0-0.7-0.1-1-0.2c-0.3-0.1-0.5-0.3-0.7-0.5
			c-0.2-0.2-0.3-0.5-0.4-0.8c-0.1-0.3-0.1-0.6-0.1-1c0-0.3,0-0.7,0.1-1c0.1-0.3,0.2-0.6,0.4-0.8c0.2-0.2,0.4-0.4,0.7-0.5
			c0.3-0.1,0.6-0.2,1-0.2C139.3,182,139.6,182.1,139.9,182.2z M138.2,182.7c-0.2,0.1-0.4,0.3-0.5,0.5c-0.1,0.2-0.2,0.4-0.3,0.6
			c-0.1,0.2-0.1,0.5-0.1,0.7c0,0.3,0,0.5,0.1,0.7c0.1,0.2,0.2,0.5,0.3,0.6c0.1,0.2,0.3,0.3,0.5,0.5c0.2,0.1,0.4,0.2,0.7,0.2
			c0.3,0,0.5-0.1,0.7-0.2c0.2-0.1,0.4-0.3,0.5-0.5c0.1-0.2,0.2-0.4,0.3-0.6c0.1-0.2,0.1-0.5,0.1-0.7c0-0.3,0-0.5-0.1-0.7
			c-0.1-0.2-0.2-0.5-0.3-0.6c-0.1-0.2-0.3-0.3-0.5-0.5c-0.2-0.1-0.4-0.2-0.7-0.2C138.7,182.5,138.5,182.6,138.2,182.7z"/>
		<path class="st0" d="M142.6,182.2v0.8h0c0.1-0.3,0.3-0.5,0.6-0.7c0.3-0.2,0.6-0.3,0.9-0.3c0.3,0,0.6,0,0.8,0.1
			c0.2,0.1,0.4,0.2,0.5,0.4c0.1,0.2,0.2,0.3,0.3,0.6c0.1,0.2,0.1,0.5,0.1,0.8v3h-0.6v-3c0-0.2,0-0.4-0.1-0.6c0-0.2-0.1-0.3-0.2-0.5
			c-0.1-0.1-0.2-0.2-0.4-0.3c-0.2-0.1-0.3-0.1-0.6-0.1c-0.2,0-0.4,0-0.6,0.1c-0.2,0.1-0.3,0.2-0.5,0.3c-0.1,0.1-0.2,0.3-0.3,0.5
			c-0.1,0.2-0.1,0.4-0.1,0.6v2.8h-0.6v-4.7H142.6z"/>
		<path class="st0" d="M147.1,182.9c0.1-0.2,0.2-0.4,0.4-0.5c0.2-0.1,0.4-0.2,0.6-0.3c0.2-0.1,0.5-0.1,0.8-0.1c0.2,0,0.4,0,0.6,0.1
			c0.2,0,0.4,0.1,0.6,0.2c0.2,0.1,0.3,0.3,0.4,0.5c0.1,0.2,0.2,0.5,0.2,0.8v2.5c0,0.2,0.1,0.3,0.3,0.3c0.1,0,0.1,0,0.2,0v0.5
			c-0.1,0-0.1,0-0.2,0c-0.1,0-0.1,0-0.2,0c-0.1,0-0.3,0-0.4-0.1c-0.1,0-0.2-0.1-0.2-0.2c0-0.1-0.1-0.2-0.1-0.3c0-0.1,0-0.2,0-0.3h0
			c-0.1,0.2-0.2,0.3-0.3,0.4c-0.1,0.1-0.2,0.2-0.4,0.3c-0.1,0.1-0.3,0.1-0.4,0.2c-0.2,0-0.4,0.1-0.6,0.1c-0.2,0-0.4,0-0.6-0.1
			c-0.2-0.1-0.4-0.1-0.5-0.2c-0.1-0.1-0.3-0.3-0.3-0.4c-0.1-0.2-0.1-0.4-0.1-0.6c0-0.3,0.1-0.6,0.2-0.8c0.1-0.2,0.3-0.3,0.6-0.4
			c0.2-0.1,0.5-0.2,0.8-0.2c0.3,0,0.6-0.1,0.9-0.1c0.1,0,0.2,0,0.3,0c0.1,0,0.2-0.1,0.2-0.1c0.1,0,0.1-0.1,0.1-0.2
			c0-0.1,0.1-0.2,0.1-0.3c0-0.2,0-0.4-0.1-0.5c-0.1-0.1-0.2-0.2-0.3-0.3c-0.1-0.1-0.2-0.1-0.4-0.2s-0.3,0-0.5,0
			c-0.4,0-0.7,0.1-0.9,0.3c-0.2,0.2-0.4,0.5-0.4,0.8h-0.6C147,183.3,147,183.1,147.1,182.9z M150,184.3c0,0.1-0.1,0.1-0.2,0.1
			c-0.1,0-0.2,0.1-0.3,0.1c-0.2,0-0.5,0.1-0.8,0.1c-0.3,0-0.5,0.1-0.7,0.2c-0.2,0.1-0.4,0.2-0.5,0.3c-0.1,0.1-0.2,0.3-0.2,0.5
			c0,0.1,0,0.3,0.1,0.4c0.1,0.1,0.1,0.2,0.2,0.3c0.1,0.1,0.2,0.1,0.3,0.2c0.1,0,0.3,0.1,0.4,0.1c0.2,0,0.4,0,0.6-0.1
			c0.2-0.1,0.4-0.2,0.5-0.3c0.1-0.1,0.3-0.3,0.4-0.5c0.1-0.2,0.1-0.4,0.1-0.6L150,184.3L150,184.3z"/>
		<path class="st0" d="M152.3,180.3v6.5h-0.6v-6.5H152.3z"/>
		<path class="st0" d="M159.6,186.9V186h0c-0.1,0.2-0.2,0.3-0.3,0.4s-0.3,0.2-0.4,0.3c-0.2,0.1-0.3,0.2-0.5,0.2
			c-0.2,0-0.3,0.1-0.5,0.1c-0.4,0-0.7-0.1-0.9-0.2c-0.3-0.1-0.5-0.3-0.7-0.5c-0.2-0.2-0.3-0.5-0.4-0.8c-0.1-0.3-0.1-0.6-0.1-1
			s0-0.7,0.1-1c0.1-0.3,0.2-0.6,0.4-0.8c0.2-0.2,0.4-0.4,0.7-0.5c0.3-0.1,0.6-0.2,0.9-0.2c0.2,0,0.4,0,0.5,0.1
			c0.2,0,0.3,0.1,0.5,0.2c0.1,0.1,0.3,0.2,0.4,0.3c0.1,0.1,0.2,0.3,0.3,0.4h0v-2.7h0.6v6.5H159.6z M156.5,185.3
			c0.1,0.2,0.1,0.5,0.3,0.6c0.1,0.2,0.3,0.3,0.5,0.5c0.2,0.1,0.4,0.2,0.7,0.2c0.3,0,0.6-0.1,0.8-0.2c0.2-0.1,0.4-0.3,0.5-0.5
			c0.1-0.2,0.2-0.4,0.3-0.6c0.1-0.2,0.1-0.5,0.1-0.7c0-0.2,0-0.5-0.1-0.7c-0.1-0.2-0.2-0.5-0.3-0.6c-0.1-0.2-0.3-0.3-0.5-0.5
			c-0.2-0.1-0.5-0.2-0.8-0.2c-0.3,0-0.5,0.1-0.7,0.2c-0.2,0.1-0.4,0.3-0.5,0.5c-0.1,0.2-0.2,0.4-0.3,0.6c-0.1,0.2-0.1,0.5-0.1,0.7
			C156.4,184.8,156.4,185,156.5,185.3z"/>
		<path class="st0" d="M161.7,185.3c0.1,0.2,0.2,0.4,0.3,0.6c0.1,0.2,0.3,0.3,0.5,0.4c0.2,0.1,0.4,0.2,0.7,0.2c0.4,0,0.8-0.1,1-0.3
			c0.2-0.2,0.4-0.5,0.5-0.9h0.6c-0.1,0.5-0.3,1-0.7,1.2c-0.3,0.3-0.8,0.4-1.4,0.4c-0.4,0-0.7-0.1-1-0.2c-0.3-0.1-0.5-0.3-0.7-0.5
			c-0.2-0.2-0.3-0.5-0.4-0.8c-0.1-0.3-0.1-0.6-0.1-1c0-0.3,0-0.6,0.1-0.9s0.2-0.6,0.4-0.8c0.2-0.2,0.4-0.4,0.7-0.6
			c0.3-0.1,0.6-0.2,1-0.2c0.4,0,0.7,0.1,1,0.2c0.3,0.2,0.5,0.4,0.7,0.6c0.2,0.2,0.3,0.5,0.4,0.9c0.1,0.3,0.1,0.6,0.1,1h-3.6
			C161.6,184.9,161.6,185.1,161.7,185.3z M164.6,183.6c-0.1-0.2-0.2-0.4-0.3-0.5c-0.1-0.2-0.3-0.3-0.5-0.4c-0.2-0.1-0.4-0.1-0.6-0.1
			c-0.2,0-0.4,0-0.6,0.1c-0.2,0.1-0.3,0.2-0.5,0.4c-0.1,0.2-0.2,0.3-0.3,0.5c-0.1,0.2-0.1,0.4-0.2,0.6h3.1
			C164.7,184,164.6,183.8,164.6,183.6z"/>
		<path class="st0" d="M173.2,181.7c-0.1-0.2-0.3-0.4-0.5-0.5c-0.2-0.1-0.4-0.2-0.6-0.3c-0.2-0.1-0.4-0.1-0.7-0.1
			c-0.4,0-0.8,0.1-1.1,0.2c-0.3,0.2-0.6,0.4-0.8,0.7c-0.2,0.3-0.3,0.6-0.4,0.9c-0.1,0.3-0.1,0.7-0.1,1.1c0,0.4,0,0.7,0.1,1
			c0.1,0.3,0.2,0.7,0.4,0.9c0.2,0.3,0.5,0.5,0.8,0.7c0.3,0.2,0.7,0.2,1.1,0.2c0.3,0,0.6-0.1,0.8-0.2c0.2-0.1,0.5-0.3,0.6-0.4
			s0.3-0.4,0.4-0.7c0.1-0.3,0.2-0.5,0.2-0.8h0.6c0,0.4-0.1,0.8-0.3,1.1c-0.1,0.3-0.3,0.6-0.6,0.8c-0.2,0.2-0.5,0.4-0.8,0.5
			c-0.3,0.1-0.7,0.2-1.1,0.2c-0.5,0-1-0.1-1.4-0.3c-0.4-0.2-0.7-0.4-1-0.7c-0.3-0.3-0.4-0.7-0.6-1.1c-0.1-0.4-0.2-0.8-0.2-1.3
			c0-0.5,0.1-0.9,0.2-1.3c0.1-0.4,0.3-0.8,0.6-1.1c0.3-0.3,0.6-0.6,1-0.8c0.4-0.2,0.8-0.3,1.4-0.3c0.3,0,0.6,0,0.9,0.1
			c0.3,0.1,0.6,0.2,0.8,0.4c0.2,0.2,0.4,0.4,0.6,0.7c0.2,0.3,0.3,0.6,0.3,0.9h-0.6C173.4,182.1,173.3,181.9,173.2,181.7z"/>
		<path class="st0" d="M175.6,180.3v0.9H175v-0.9H175.6z M175.6,182.2v4.7H175v-4.7H175.6z"/>
		<path class="st0" d="M177.3,182.2v0.8h0c0.1-0.3,0.3-0.5,0.6-0.7c0.3-0.2,0.6-0.3,0.9-0.3c0.3,0,0.6,0,0.8,0.1
			c0.2,0.1,0.4,0.2,0.5,0.4c0.1,0.2,0.2,0.3,0.3,0.6c0.1,0.2,0.1,0.5,0.1,0.8v3H180v-3c0-0.2,0-0.4-0.1-0.6c0-0.2-0.1-0.3-0.2-0.5
			c-0.1-0.1-0.2-0.2-0.4-0.3c-0.2-0.1-0.3-0.1-0.6-0.1c-0.2,0-0.4,0-0.6,0.1c-0.2,0.1-0.3,0.2-0.5,0.3c-0.1,0.1-0.2,0.3-0.3,0.5
			c-0.1,0.2-0.1,0.4-0.1,0.6v2.8h-0.6v-4.7H177.3z"/>
		<path class="st0" d="M182.1,185.3c0.1,0.2,0.2,0.4,0.3,0.6c0.1,0.2,0.3,0.3,0.5,0.4c0.2,0.1,0.4,0.2,0.7,0.2c0.4,0,0.8-0.1,1-0.3
			c0.2-0.2,0.4-0.5,0.5-0.9h0.6c-0.1,0.5-0.3,1-0.7,1.2c-0.3,0.3-0.8,0.4-1.4,0.4c-0.4,0-0.7-0.1-1-0.2c-0.3-0.1-0.5-0.3-0.7-0.5
			c-0.2-0.2-0.3-0.5-0.4-0.8c-0.1-0.3-0.1-0.6-0.1-1c0-0.3,0-0.6,0.1-0.9s0.2-0.6,0.4-0.8c0.2-0.2,0.4-0.4,0.7-0.6
			c0.3-0.1,0.6-0.2,1-0.2c0.4,0,0.7,0.1,1,0.2c0.3,0.2,0.5,0.4,0.7,0.6c0.2,0.2,0.3,0.5,0.4,0.9c0.1,0.3,0.1,0.6,0.1,1H182
			C182,184.9,182,185.1,182.1,185.3z M184.9,183.6c-0.1-0.2-0.2-0.4-0.3-0.5c-0.1-0.2-0.3-0.3-0.5-0.4c-0.2-0.1-0.4-0.1-0.6-0.1
			c-0.2,0-0.4,0-0.6,0.1c-0.2,0.1-0.3,0.2-0.5,0.4c-0.1,0.2-0.2,0.3-0.3,0.5c-0.1,0.2-0.1,0.4-0.2,0.6h3.1
			C185,184,185,183.8,184.9,183.6z"/>
		<path class="st0" d="M192.6,186.9V186h0c-0.1,0.2-0.2,0.3-0.3,0.4s-0.3,0.2-0.4,0.3c-0.2,0.1-0.3,0.2-0.5,0.2
			c-0.2,0-0.3,0.1-0.5,0.1c-0.4,0-0.7-0.1-0.9-0.2c-0.3-0.1-0.5-0.3-0.7-0.5c-0.2-0.2-0.3-0.5-0.4-0.8c-0.1-0.3-0.1-0.6-0.1-1
			s0-0.7,0.1-1c0.1-0.3,0.2-0.6,0.4-0.8c0.2-0.2,0.4-0.4,0.7-0.5c0.3-0.1,0.6-0.2,0.9-0.2c0.2,0,0.4,0,0.5,0.1
			c0.2,0,0.3,0.1,0.5,0.2c0.1,0.1,0.3,0.2,0.4,0.3c0.1,0.1,0.2,0.3,0.3,0.4h0v-2.7h0.6v6.5H192.6z M189.4,185.3
			c0.1,0.2,0.1,0.5,0.3,0.6s0.3,0.3,0.5,0.5c0.2,0.1,0.4,0.2,0.7,0.2c0.3,0,0.6-0.1,0.8-0.2c0.2-0.1,0.4-0.3,0.5-0.5
			c0.1-0.2,0.2-0.4,0.3-0.6c0.1-0.2,0.1-0.5,0.1-0.7c0-0.2,0-0.5-0.1-0.7c-0.1-0.2-0.2-0.5-0.3-0.6c-0.1-0.2-0.3-0.3-0.5-0.5
			c-0.2-0.1-0.5-0.2-0.8-0.2c-0.3,0-0.5,0.1-0.7,0.2c-0.2,0.1-0.4,0.3-0.5,0.5s-0.2,0.4-0.3,0.6c-0.1,0.2-0.1,0.5-0.1,0.7
			C189.3,184.8,189.4,185,189.4,185.3z"/>
		<path class="st0" d="M194.6,185.3c0.1,0.2,0.2,0.4,0.3,0.6c0.1,0.2,0.3,0.3,0.5,0.4c0.2,0.1,0.4,0.2,0.7,0.2c0.4,0,0.8-0.1,1-0.3
			c0.2-0.2,0.4-0.5,0.5-0.9h0.6c-0.1,0.5-0.3,1-0.7,1.2c-0.3,0.3-0.8,0.4-1.4,0.4c-0.4,0-0.7-0.1-1-0.2c-0.3-0.1-0.5-0.3-0.7-0.5
			c-0.2-0.2-0.3-0.5-0.4-0.8c-0.1-0.3-0.1-0.6-0.1-1c0-0.3,0-0.6,0.1-0.9s0.2-0.6,0.4-0.8c0.2-0.2,0.4-0.4,0.7-0.6
			c0.3-0.1,0.6-0.2,1-0.2c0.4,0,0.7,0.1,1,0.2c0.3,0.2,0.5,0.4,0.7,0.6c0.2,0.2,0.3,0.5,0.4,0.9c0.1,0.3,0.1,0.6,0.1,1h-3.6
			C194.6,184.9,194.6,185.1,194.6,185.3z M197.5,183.6c-0.1-0.2-0.2-0.4-0.3-0.5c-0.1-0.2-0.3-0.3-0.5-0.4c-0.2-0.1-0.4-0.1-0.6-0.1
			c-0.2,0-0.4,0-0.6,0.1c-0.2,0.1-0.3,0.2-0.5,0.4c-0.1,0.2-0.2,0.3-0.3,0.5c-0.1,0.2-0.1,0.4-0.2,0.6h3.1
			C197.6,184,197.6,183.8,197.5,183.6z"/>
		<path class="st0" d="M74.5,191.4c1,0,1.7,0.3,2.3,0.8c0.5,0.5,0.8,1.3,0.8,2.4s-0.3,1.9-0.8,2.4c-0.5,0.5-1.3,0.8-2.3,0.8h-2.3
			v-6.5H74.5z M74.2,197.4c0.5,0,0.9-0.1,1.2-0.2c0.3-0.1,0.6-0.3,0.8-0.5c0.2-0.2,0.4-0.5,0.5-0.9s0.2-0.8,0.2-1.3
			c0-0.5-0.1-0.9-0.2-1.3s-0.3-0.6-0.5-0.9c-0.2-0.2-0.5-0.4-0.8-0.5c-0.3-0.1-0.7-0.2-1.2-0.2h-1.3v5.5H74.2z"/>
		<path class="st0" d="M78.9,196.3c0.1,0.2,0.2,0.4,0.3,0.6c0.1,0.2,0.3,0.3,0.5,0.4c0.2,0.1,0.4,0.2,0.7,0.2c0.4,0,0.8-0.1,1-0.3
			c0.2-0.2,0.4-0.5,0.5-0.9h0.6c-0.1,0.5-0.3,1-0.7,1.2c-0.3,0.3-0.8,0.4-1.4,0.4c-0.4,0-0.7-0.1-1-0.2c-0.3-0.1-0.5-0.3-0.7-0.5
			c-0.2-0.2-0.3-0.5-0.4-0.8c-0.1-0.3-0.1-0.6-0.1-1c0-0.3,0-0.6,0.1-0.9c0.1-0.3,0.2-0.6,0.4-0.8c0.2-0.2,0.4-0.4,0.7-0.6
			c0.3-0.1,0.6-0.2,1-0.2c0.4,0,0.7,0.1,1,0.2c0.3,0.2,0.5,0.4,0.7,0.6c0.2,0.2,0.3,0.5,0.4,0.9c0.1,0.3,0.1,0.6,0.1,1h-3.6
			C78.8,195.9,78.8,196.1,78.9,196.3z M81.7,194.6c-0.1-0.2-0.2-0.4-0.3-0.5c-0.1-0.2-0.3-0.3-0.5-0.4s-0.4-0.1-0.6-0.1
			c-0.2,0-0.4,0-0.6,0.1c-0.2,0.1-0.3,0.2-0.5,0.4c-0.1,0.2-0.2,0.3-0.3,0.5c-0.1,0.2-0.1,0.4-0.2,0.6h3.1
			C81.9,195,81.8,194.8,81.7,194.6z"/>
		<path class="st0" d="M83.7,193.2v1.1h0c0.1-0.4,0.4-0.7,0.7-0.9c0.3-0.2,0.7-0.3,1.1-0.3v0.6c-0.3,0-0.5,0-0.7,0.1
			c-0.2,0.1-0.4,0.2-0.6,0.4c-0.2,0.2-0.3,0.3-0.4,0.5c-0.1,0.2-0.1,0.4-0.1,0.7v2.5h-0.6v-4.7H83.7z"/>
		<path class="st0" d="M86.4,196.3c0.1,0.2,0.2,0.4,0.3,0.6c0.1,0.2,0.3,0.3,0.5,0.4c0.2,0.1,0.4,0.2,0.7,0.2c0.4,0,0.8-0.1,1-0.3
			c0.2-0.2,0.4-0.5,0.5-0.9h0.6c-0.1,0.5-0.3,1-0.7,1.2c-0.3,0.3-0.8,0.4-1.4,0.4c-0.4,0-0.7-0.1-1-0.2c-0.3-0.1-0.5-0.3-0.7-0.5
			c-0.2-0.2-0.3-0.5-0.4-0.8c-0.1-0.3-0.1-0.6-0.1-1c0-0.3,0-0.6,0.1-0.9c0.1-0.3,0.2-0.6,0.4-0.8c0.2-0.2,0.4-0.4,0.7-0.6
			c0.3-0.1,0.6-0.2,1-0.2c0.4,0,0.7,0.1,1,0.2c0.3,0.2,0.5,0.4,0.7,0.6c0.2,0.2,0.3,0.5,0.4,0.9c0.1,0.3,0.1,0.6,0.1,1h-3.6
			C86.3,195.9,86.3,196.1,86.4,196.3z M89.2,194.6c-0.1-0.2-0.2-0.4-0.3-0.5c-0.1-0.2-0.3-0.3-0.5-0.4s-0.4-0.1-0.6-0.1
			c-0.2,0-0.4,0-0.6,0.1c-0.2,0.1-0.3,0.2-0.5,0.4c-0.1,0.2-0.2,0.3-0.3,0.5c-0.1,0.2-0.1,0.4-0.2,0.6h3.1
			C89.3,195,89.3,194.8,89.2,194.6z"/>
		<path class="st0" d="M93.6,193.8c-0.2-0.2-0.5-0.3-0.9-0.3c-0.3,0-0.5,0.1-0.7,0.2c-0.2,0.1-0.4,0.3-0.5,0.5
			c-0.1,0.2-0.2,0.4-0.3,0.6c-0.1,0.2-0.1,0.5-0.1,0.7s0,0.5,0.1,0.7c0.1,0.2,0.2,0.5,0.3,0.6c0.1,0.2,0.3,0.3,0.5,0.5
			c0.2,0.1,0.4,0.2,0.7,0.2c0.2,0,0.3,0,0.5-0.1c0.2-0.1,0.3-0.2,0.4-0.3c0.1-0.1,0.2-0.3,0.3-0.4c0.1-0.2,0.1-0.3,0.1-0.5h0.6
			c-0.1,0.6-0.3,1-0.6,1.3c-0.3,0.3-0.8,0.5-1.3,0.5c-0.4,0-0.7-0.1-1-0.2c-0.3-0.1-0.5-0.3-0.7-0.5c-0.2-0.2-0.3-0.5-0.4-0.8
			c-0.1-0.3-0.1-0.6-0.1-1s0-0.7,0.1-1c0.1-0.3,0.2-0.6,0.4-0.8c0.2-0.2,0.4-0.4,0.7-0.5c0.3-0.1,0.6-0.2,1-0.2
			c0.5,0,0.9,0.1,1.3,0.4c0.4,0.3,0.6,0.7,0.6,1.2H94C94,194.3,93.8,194,93.6,193.8z"/>
		<path class="st0" d="M96,191.4v2.6h0c0.1-0.3,0.3-0.5,0.6-0.7c0.3-0.2,0.6-0.3,0.9-0.3c0.3,0,0.6,0,0.8,0.1
			c0.2,0.1,0.4,0.2,0.5,0.4c0.1,0.2,0.2,0.3,0.3,0.6c0.1,0.2,0.1,0.5,0.1,0.8v3h-0.6v-3c0-0.2,0-0.4-0.1-0.6c0-0.2-0.1-0.3-0.2-0.5
			c-0.1-0.1-0.2-0.2-0.4-0.3c-0.2-0.1-0.3-0.1-0.6-0.1c-0.2,0-0.4,0-0.6,0.1c-0.2,0.1-0.3,0.2-0.5,0.3c-0.1,0.1-0.2,0.3-0.3,0.5
			c-0.1,0.2-0.1,0.4-0.1,0.6v2.8h-0.6v-6.5H96z"/>
		<path class="st0" d="M103.3,193.2c0.3,0.1,0.5,0.3,0.7,0.5c0.2,0.2,0.3,0.5,0.4,0.8c0.1,0.3,0.1,0.6,0.1,1s0,0.7-0.1,1
			c-0.1,0.3-0.2,0.6-0.4,0.8c-0.2,0.2-0.4,0.4-0.7,0.5c-0.3,0.1-0.6,0.2-1,0.2c-0.4,0-0.7-0.1-1-0.2c-0.3-0.1-0.5-0.3-0.7-0.5
			c-0.2-0.2-0.3-0.5-0.4-0.8c-0.1-0.3-0.1-0.6-0.1-1s0-0.7,0.1-1c0.1-0.3,0.2-0.6,0.4-0.8c0.2-0.2,0.4-0.4,0.7-0.5
			c0.3-0.1,0.6-0.2,1-0.2C102.7,193,103.1,193.1,103.3,193.2z M101.7,193.7c-0.2,0.1-0.4,0.3-0.5,0.5c-0.1,0.2-0.2,0.4-0.3,0.6
			c-0.1,0.2-0.1,0.5-0.1,0.7s0,0.5,0.1,0.7c0.1,0.2,0.2,0.5,0.3,0.6c0.1,0.2,0.3,0.3,0.5,0.5c0.2,0.1,0.4,0.2,0.7,0.2
			c0.3,0,0.5-0.1,0.7-0.2c0.2-0.1,0.4-0.3,0.5-0.5c0.1-0.2,0.2-0.4,0.3-0.6c0.1-0.2,0.1-0.5,0.1-0.7s0-0.5-0.1-0.7
			c-0.1-0.2-0.2-0.5-0.3-0.6c-0.1-0.2-0.3-0.3-0.5-0.5c-0.2-0.1-0.4-0.2-0.7-0.2C102.1,193.5,101.9,193.6,101.7,193.7z"/>
		<path class="st0" d="M108.2,194.1c-0.1-0.1-0.2-0.2-0.3-0.3c-0.1-0.1-0.2-0.1-0.4-0.2c-0.1,0-0.3-0.1-0.5-0.1c-0.1,0-0.3,0-0.4,0
			c-0.1,0-0.3,0.1-0.4,0.1c-0.1,0.1-0.2,0.1-0.3,0.3c-0.1,0.1-0.1,0.2-0.1,0.4c0,0.1,0,0.2,0.1,0.3c0.1,0.1,0.1,0.2,0.2,0.2
			c0.1,0.1,0.2,0.1,0.3,0.2s0.2,0.1,0.3,0.1l0.8,0.2c0.2,0,0.3,0.1,0.5,0.1c0.2,0.1,0.3,0.1,0.4,0.3c0.1,0.1,0.2,0.2,0.3,0.4
			c0.1,0.2,0.1,0.3,0.1,0.5c0,0.3-0.1,0.5-0.2,0.7c-0.1,0.2-0.3,0.3-0.4,0.4c-0.2,0.1-0.4,0.2-0.6,0.2c-0.2,0-0.4,0.1-0.7,0.1
			c-0.6,0-1-0.1-1.4-0.4c-0.3-0.3-0.5-0.7-0.6-1.3h0.6c0,0.4,0.2,0.7,0.4,0.9c0.3,0.2,0.6,0.3,1,0.3c0.1,0,0.3,0,0.4,0
			s0.3-0.1,0.4-0.2c0.1-0.1,0.2-0.2,0.3-0.3c0.1-0.1,0.1-0.3,0.1-0.4c0-0.1,0-0.3-0.1-0.4c-0.1-0.1-0.1-0.2-0.2-0.2
			c-0.1-0.1-0.2-0.1-0.3-0.2c-0.1,0-0.3-0.1-0.4-0.1l-0.7-0.2c-0.2,0-0.4-0.1-0.5-0.2c-0.2-0.1-0.3-0.1-0.4-0.2
			c-0.1-0.1-0.2-0.2-0.3-0.3c-0.1-0.1-0.1-0.3-0.1-0.5c0-0.2,0.1-0.4,0.2-0.6s0.2-0.3,0.4-0.4c0.2-0.1,0.4-0.2,0.6-0.2
			c0.2,0,0.4-0.1,0.6-0.1c0.2,0,0.5,0,0.7,0.1c0.2,0.1,0.4,0.2,0.5,0.3c0.2,0.1,0.3,0.3,0.4,0.5c0.1,0.2,0.1,0.4,0.2,0.7h-0.6
			C108.3,194.4,108.3,194.2,108.2,194.1z"/>
		<path class="st0" d="M113.2,191.4v2.8h3.9v-2.8h0.6v6.5h-0.6v-3.2h-3.9v3.2h-0.6v-6.5H113.2z"/>
		<path class="st0" d="M122.2,197.9V197h0c-0.2,0.3-0.4,0.6-0.7,0.7c-0.3,0.2-0.6,0.3-1,0.3c-0.3,0-0.6,0-0.8-0.1
			c-0.2-0.1-0.4-0.2-0.5-0.4c-0.1-0.2-0.2-0.3-0.3-0.6c-0.1-0.2-0.1-0.5-0.1-0.8v-3.1h0.6v3.1c0,0.4,0.1,0.8,0.3,1
			c0.2,0.2,0.5,0.3,1,0.3c0.3,0,0.5-0.1,0.6-0.2c0.2-0.1,0.3-0.2,0.4-0.4c0.1-0.2,0.2-0.4,0.3-0.6c0.1-0.2,0.1-0.5,0.1-0.7v-2.5h0.6
			v4.7H122.2z"/>
		<path class="st0" d="M124.4,193.2v0.8h0c0.2-0.3,0.4-0.5,0.6-0.7c0.2-0.2,0.6-0.2,0.9-0.2c0.3,0,0.6,0.1,0.8,0.2
			c0.3,0.2,0.4,0.4,0.5,0.7c0.1-0.3,0.3-0.5,0.6-0.7c0.3-0.2,0.6-0.2,0.9-0.2c1,0,1.6,0.6,1.6,1.7v3.2h-0.6v-3.2
			c0-0.4-0.1-0.7-0.2-0.9c-0.2-0.2-0.5-0.3-0.9-0.3c-0.3,0-0.5,0-0.6,0.1c-0.2,0.1-0.3,0.2-0.4,0.4c-0.1,0.2-0.2,0.3-0.2,0.5
			c0,0.2-0.1,0.4-0.1,0.6v2.7h-0.6v-3.2c0-0.2,0-0.3-0.1-0.5c0-0.1-0.1-0.3-0.2-0.4c-0.1-0.1-0.2-0.2-0.3-0.3
			c-0.1-0.1-0.3-0.1-0.5-0.1c-0.2,0-0.5,0-0.6,0.1c-0.2,0.1-0.3,0.2-0.4,0.4c-0.1,0.2-0.2,0.3-0.3,0.5c-0.1,0.2-0.1,0.4-0.1,0.7v2.6
			h-0.6v-4.7H124.4z"/>
		<path class="st0" d="M131.6,193.9c0.1-0.2,0.2-0.4,0.4-0.5c0.2-0.1,0.4-0.2,0.6-0.3c0.2-0.1,0.5-0.1,0.8-0.1c0.2,0,0.4,0,0.6,0.1
			c0.2,0,0.4,0.1,0.6,0.2c0.2,0.1,0.3,0.3,0.4,0.5c0.1,0.2,0.2,0.5,0.2,0.8v2.5c0,0.2,0.1,0.3,0.3,0.3c0.1,0,0.1,0,0.2,0v0.5
			c-0.1,0-0.1,0-0.2,0c-0.1,0-0.1,0-0.2,0c-0.1,0-0.3,0-0.4-0.1c-0.1,0-0.2-0.1-0.2-0.2c0-0.1-0.1-0.2-0.1-0.3c0-0.1,0-0.2,0-0.3h0
			c-0.1,0.2-0.2,0.3-0.3,0.4s-0.2,0.2-0.4,0.3c-0.1,0.1-0.3,0.1-0.4,0.2c-0.2,0-0.4,0.1-0.6,0.1c-0.2,0-0.4,0-0.6-0.1
			c-0.2-0.1-0.4-0.1-0.5-0.2c-0.1-0.1-0.3-0.3-0.3-0.4c-0.1-0.2-0.1-0.4-0.1-0.6c0-0.3,0.1-0.6,0.2-0.8c0.1-0.2,0.3-0.3,0.6-0.4
			c0.2-0.1,0.5-0.2,0.8-0.2c0.3,0,0.6-0.1,0.9-0.1c0.1,0,0.2,0,0.3,0c0.1,0,0.2-0.1,0.2-0.1c0.1,0,0.1-0.1,0.1-0.2
			c0-0.1,0.1-0.2,0.1-0.3c0-0.2,0-0.4-0.1-0.5c-0.1-0.1-0.2-0.2-0.3-0.3c-0.1-0.1-0.2-0.1-0.4-0.2s-0.3,0-0.5,0
			c-0.4,0-0.7,0.1-0.9,0.3c-0.2,0.2-0.4,0.5-0.4,0.8h-0.6C131.4,194.3,131.5,194.1,131.6,193.9z M134.5,195.3c0,0.1-0.1,0.1-0.2,0.1
			c-0.1,0-0.2,0.1-0.3,0.1c-0.2,0-0.5,0.1-0.8,0.1c-0.3,0-0.5,0.1-0.7,0.2c-0.2,0.1-0.4,0.2-0.5,0.3c-0.1,0.1-0.2,0.3-0.2,0.5
			c0,0.1,0,0.3,0.1,0.4c0.1,0.1,0.1,0.2,0.2,0.3c0.1,0.1,0.2,0.1,0.3,0.2c0.1,0,0.3,0.1,0.4,0.1c0.2,0,0.4,0,0.6-0.1
			c0.2-0.1,0.4-0.2,0.5-0.3c0.1-0.1,0.3-0.3,0.4-0.5c0.1-0.2,0.1-0.4,0.1-0.6L134.5,195.3L134.5,195.3z"/>
		<path class="st0" d="M136.8,193.2v0.8h0c0.1-0.3,0.3-0.5,0.6-0.7c0.3-0.2,0.6-0.3,0.9-0.3c0.3,0,0.6,0,0.8,0.1
			c0.2,0.1,0.4,0.2,0.5,0.4c0.1,0.2,0.2,0.3,0.3,0.6c0.1,0.2,0.1,0.5,0.1,0.8v3h-0.6v-3c0-0.2,0-0.4-0.1-0.6c0-0.2-0.1-0.3-0.2-0.5
			c-0.1-0.1-0.2-0.2-0.4-0.3c-0.2-0.1-0.3-0.1-0.6-0.1c-0.2,0-0.4,0-0.6,0.1c-0.2,0.1-0.3,0.2-0.5,0.3c-0.1,0.1-0.2,0.3-0.3,0.5
			c-0.1,0.2-0.1,0.4-0.1,0.6v2.8h-0.6v-4.7H136.8z"/>
		<path class="st0" d="M144.1,193.2c0.3,0.1,0.5,0.3,0.7,0.5c0.2,0.2,0.3,0.5,0.4,0.8c0.1,0.3,0.1,0.6,0.1,1s0,0.7-0.1,1
			c-0.1,0.3-0.2,0.6-0.4,0.8c-0.2,0.2-0.4,0.4-0.7,0.5c-0.3,0.1-0.6,0.2-1,0.2c-0.4,0-0.7-0.1-1-0.2c-0.3-0.1-0.5-0.3-0.7-0.5
			c-0.2-0.2-0.3-0.5-0.4-0.8c-0.1-0.3-0.1-0.6-0.1-1s0-0.7,0.1-1c0.1-0.3,0.2-0.6,0.4-0.8c0.2-0.2,0.4-0.4,0.7-0.5
			c0.3-0.1,0.6-0.2,1-0.2C143.5,193,143.8,193.1,144.1,193.2z M142.4,193.7c-0.2,0.1-0.4,0.3-0.5,0.5c-0.1,0.2-0.2,0.4-0.3,0.6
			c-0.1,0.2-0.1,0.5-0.1,0.7s0,0.5,0.1,0.7c0.1,0.2,0.2,0.5,0.3,0.6c0.1,0.2,0.3,0.3,0.5,0.5c0.2,0.1,0.4,0.2,0.7,0.2
			c0.3,0,0.5-0.1,0.7-0.2c0.2-0.1,0.4-0.3,0.5-0.5c0.1-0.2,0.2-0.4,0.3-0.6c0.1-0.2,0.1-0.5,0.1-0.7s0-0.5-0.1-0.7
			c-0.1-0.2-0.2-0.5-0.3-0.6c-0.1-0.2-0.3-0.3-0.5-0.5c-0.2-0.1-0.4-0.2-0.7-0.2C142.9,193.5,142.6,193.6,142.4,193.7z"/>
		<path class="st0" d="M149,194.1c-0.1-0.1-0.2-0.2-0.3-0.3c-0.1-0.1-0.2-0.1-0.4-0.2c-0.1,0-0.3-0.1-0.5-0.1c-0.1,0-0.3,0-0.4,0
			c-0.1,0-0.3,0.1-0.4,0.1c-0.1,0.1-0.2,0.1-0.3,0.3c-0.1,0.1-0.1,0.2-0.1,0.4c0,0.1,0,0.2,0.1,0.3c0.1,0.1,0.1,0.2,0.2,0.2
			c0.1,0.1,0.2,0.1,0.3,0.2c0.1,0,0.2,0.1,0.3,0.1l0.8,0.2c0.2,0,0.3,0.1,0.5,0.1c0.2,0.1,0.3,0.1,0.4,0.3c0.1,0.1,0.2,0.2,0.3,0.4
			c0.1,0.2,0.1,0.3,0.1,0.5c0,0.3-0.1,0.5-0.2,0.7c-0.1,0.2-0.3,0.3-0.4,0.4c-0.2,0.1-0.4,0.2-0.6,0.2c-0.2,0-0.4,0.1-0.7,0.1
			c-0.6,0-1-0.1-1.4-0.4c-0.3-0.3-0.5-0.7-0.6-1.3h0.6c0,0.4,0.2,0.7,0.4,0.9c0.3,0.2,0.6,0.3,1,0.3c0.1,0,0.3,0,0.4,0
			s0.3-0.1,0.4-0.2c0.1-0.1,0.2-0.2,0.3-0.3c0.1-0.1,0.1-0.3,0.1-0.4c0-0.1,0-0.3-0.1-0.4c-0.1-0.1-0.1-0.2-0.2-0.2
			c-0.1-0.1-0.2-0.1-0.3-0.2c-0.1,0-0.3-0.1-0.4-0.1l-0.7-0.2c-0.2,0-0.4-0.1-0.5-0.2c-0.2-0.1-0.3-0.1-0.4-0.2
			c-0.1-0.1-0.2-0.2-0.3-0.3c-0.1-0.1-0.1-0.3-0.1-0.5c0-0.2,0.1-0.4,0.2-0.6s0.2-0.3,0.4-0.4c0.2-0.1,0.4-0.2,0.6-0.2
			c0.2,0,0.4-0.1,0.6-0.1c0.2,0,0.5,0,0.7,0.1c0.2,0.1,0.4,0.2,0.5,0.3c0.2,0.1,0.3,0.3,0.4,0.5c0.1,0.2,0.1,0.4,0.2,0.7h-0.6
			C149.1,194.4,149,194.2,149,194.1z"/>
		<path class="st0" d="M156.8,197.9V197h0c-0.1,0.2-0.2,0.3-0.3,0.4c-0.1,0.1-0.3,0.2-0.4,0.3s-0.3,0.2-0.5,0.2
			c-0.2,0-0.3,0.1-0.5,0.1c-0.4,0-0.7-0.1-0.9-0.2c-0.3-0.1-0.5-0.3-0.7-0.5c-0.2-0.2-0.3-0.5-0.4-0.8c-0.1-0.3-0.1-0.6-0.1-1
			s0-0.7,0.1-1c0.1-0.3,0.2-0.6,0.4-0.8c0.2-0.2,0.4-0.4,0.7-0.5c0.3-0.1,0.6-0.2,0.9-0.2c0.2,0,0.4,0,0.5,0.1
			c0.2,0,0.3,0.1,0.5,0.2c0.1,0.1,0.3,0.2,0.4,0.3c0.1,0.1,0.2,0.3,0.3,0.4h0v-2.7h0.6v6.5H156.8z M153.7,196.3
			c0.1,0.2,0.1,0.5,0.3,0.6c0.1,0.2,0.3,0.3,0.5,0.5c0.2,0.1,0.4,0.2,0.7,0.2c0.3,0,0.6-0.1,0.8-0.2c0.2-0.1,0.4-0.3,0.5-0.5
			c0.1-0.2,0.2-0.4,0.3-0.6c0.1-0.2,0.1-0.5,0.1-0.7c0-0.2,0-0.5-0.1-0.7c-0.1-0.2-0.2-0.5-0.3-0.6c-0.1-0.2-0.3-0.3-0.5-0.5
			c-0.2-0.1-0.5-0.2-0.8-0.2c-0.3,0-0.5,0.1-0.7,0.2c-0.2,0.1-0.4,0.3-0.5,0.5c-0.1,0.2-0.2,0.4-0.3,0.6c-0.1,0.2-0.1,0.5-0.1,0.7
			C153.6,195.8,153.6,196,153.7,196.3z"/>
		<path class="st0" d="M158.9,196.3c0.1,0.2,0.2,0.4,0.3,0.6c0.1,0.2,0.3,0.3,0.5,0.4c0.2,0.1,0.4,0.2,0.7,0.2c0.4,0,0.8-0.1,1-0.3
			c0.2-0.2,0.4-0.5,0.5-0.9h0.6c-0.1,0.5-0.3,1-0.7,1.2c-0.3,0.3-0.8,0.4-1.4,0.4c-0.4,0-0.7-0.1-1-0.2c-0.3-0.1-0.5-0.3-0.7-0.5
			c-0.2-0.2-0.3-0.5-0.4-0.8c-0.1-0.3-0.1-0.6-0.1-1c0-0.3,0-0.6,0.1-0.9c0.1-0.3,0.2-0.6,0.4-0.8c0.2-0.2,0.4-0.4,0.7-0.6
			c0.3-0.1,0.6-0.2,1-0.2c0.4,0,0.7,0.1,1,0.2c0.3,0.2,0.5,0.4,0.7,0.6c0.2,0.2,0.3,0.5,0.4,0.9c0.1,0.3,0.1,0.6,0.1,1h-3.6
			C158.8,195.9,158.8,196.1,158.9,196.3z M161.8,194.6c-0.1-0.2-0.2-0.4-0.3-0.5c-0.1-0.2-0.3-0.3-0.5-0.4c-0.2-0.1-0.4-0.1-0.6-0.1
			c-0.2,0-0.4,0-0.6,0.1c-0.2,0.1-0.3,0.2-0.5,0.4c-0.1,0.2-0.2,0.3-0.3,0.5c-0.1,0.2-0.1,0.4-0.2,0.6h3.1
			C161.9,195,161.8,194.8,161.8,194.6z"/>
		<path class="st0" d="M168.8,191.4c0.3,0,0.6,0,0.8,0.1c0.2,0.1,0.4,0.2,0.6,0.4c0.2,0.2,0.3,0.4,0.4,0.6c0.1,0.2,0.1,0.5,0.1,0.8
			s0,0.6-0.1,0.8c-0.1,0.2-0.2,0.4-0.4,0.6c-0.2,0.2-0.4,0.3-0.6,0.4c-0.2,0.1-0.5,0.1-0.8,0.1h-2.3v2.8h-0.6v-6.5H168.8z
			 M168.7,194.6c0.4,0,0.8-0.1,1.1-0.3c0.3-0.2,0.4-0.6,0.4-1s-0.1-0.8-0.4-1c-0.3-0.2-0.6-0.3-1.1-0.3h-2.1v2.7H168.7z"/>
		<path class="st0" d="M171.7,193.9c0.1-0.2,0.2-0.4,0.4-0.5c0.2-0.1,0.4-0.2,0.6-0.3c0.2-0.1,0.5-0.1,0.8-0.1c0.2,0,0.4,0,0.6,0.1
			c0.2,0,0.4,0.1,0.6,0.2c0.2,0.1,0.3,0.3,0.4,0.5c0.1,0.2,0.2,0.5,0.2,0.8v2.5c0,0.2,0.1,0.3,0.3,0.3c0.1,0,0.1,0,0.2,0v0.5
			c-0.1,0-0.1,0-0.2,0c-0.1,0-0.1,0-0.2,0c-0.1,0-0.3,0-0.4-0.1c-0.1,0-0.2-0.1-0.2-0.2c0-0.1-0.1-0.2-0.1-0.3c0-0.1,0-0.2,0-0.3h0
			c-0.1,0.2-0.2,0.3-0.3,0.4s-0.2,0.2-0.4,0.3c-0.1,0.1-0.3,0.1-0.4,0.2c-0.2,0-0.4,0.1-0.6,0.1c-0.2,0-0.4,0-0.6-0.1
			c-0.2-0.1-0.4-0.1-0.5-0.2c-0.1-0.1-0.3-0.3-0.3-0.4c-0.1-0.2-0.1-0.4-0.1-0.6c0-0.3,0.1-0.6,0.2-0.8c0.1-0.2,0.3-0.3,0.6-0.4
			c0.2-0.1,0.5-0.2,0.8-0.2c0.3,0,0.6-0.1,0.9-0.1c0.1,0,0.2,0,0.3,0c0.1,0,0.2-0.1,0.2-0.1c0.1,0,0.1-0.1,0.1-0.2
			c0-0.1,0.1-0.2,0.1-0.3c0-0.2,0-0.4-0.1-0.5c-0.1-0.1-0.2-0.2-0.3-0.3c-0.1-0.1-0.2-0.1-0.4-0.2s-0.3,0-0.5,0
			c-0.4,0-0.7,0.1-0.9,0.3c-0.2,0.2-0.4,0.5-0.4,0.8h-0.6C171.5,194.3,171.6,194.1,171.7,193.9z M174.6,195.3c0,0.1-0.1,0.1-0.2,0.1
			c-0.1,0-0.2,0.1-0.3,0.1c-0.2,0-0.5,0.1-0.8,0.1c-0.3,0-0.5,0.1-0.7,0.2c-0.2,0.1-0.4,0.2-0.5,0.3c-0.1,0.1-0.2,0.3-0.2,0.5
			c0,0.1,0,0.3,0.1,0.4c0.1,0.1,0.1,0.2,0.2,0.3c0.1,0.1,0.2,0.1,0.3,0.2c0.1,0,0.3,0.1,0.4,0.1c0.2,0,0.4,0,0.6-0.1
			c0.2-0.1,0.4-0.2,0.5-0.3c0.1-0.1,0.3-0.3,0.4-0.5c0.1-0.2,0.1-0.4,0.1-0.6L174.6,195.3L174.6,195.3z"/>
		<path class="st0" d="M176.9,193.2v0.8h0c0.1-0.3,0.3-0.5,0.6-0.7c0.3-0.2,0.6-0.3,0.9-0.3c0.3,0,0.6,0,0.8,0.1
			c0.2,0.1,0.4,0.2,0.5,0.4c0.1,0.2,0.2,0.3,0.3,0.6c0.1,0.2,0.1,0.5,0.1,0.8v3h-0.6v-3c0-0.2,0-0.4-0.1-0.6c0-0.2-0.1-0.3-0.2-0.5
			c-0.1-0.1-0.2-0.2-0.4-0.3c-0.2-0.1-0.3-0.1-0.6-0.1s-0.4,0-0.6,0.1s-0.3,0.2-0.5,0.3c-0.1,0.1-0.2,0.3-0.3,0.5
			c-0.1,0.2-0.1,0.4-0.1,0.6v2.8h-0.6v-4.7H176.9z"/>
		<path class="st0" d="M181.4,193.9c0.1-0.2,0.2-0.4,0.4-0.5c0.2-0.1,0.4-0.2,0.6-0.3c0.2-0.1,0.5-0.1,0.8-0.1c0.2,0,0.4,0,0.6,0.1
			c0.2,0,0.4,0.1,0.6,0.2c0.2,0.1,0.3,0.3,0.4,0.5c0.1,0.2,0.2,0.5,0.2,0.8v2.5c0,0.2,0.1,0.3,0.3,0.3c0.1,0,0.1,0,0.2,0v0.5
			c-0.1,0-0.1,0-0.2,0c-0.1,0-0.1,0-0.2,0c-0.1,0-0.3,0-0.4-0.1c-0.1,0-0.2-0.1-0.2-0.2c0-0.1-0.1-0.2-0.1-0.3c0-0.1,0-0.2,0-0.3h0
			c-0.1,0.2-0.2,0.3-0.3,0.4s-0.2,0.2-0.4,0.3c-0.1,0.1-0.3,0.1-0.4,0.2c-0.2,0-0.4,0.1-0.6,0.1c-0.2,0-0.4,0-0.6-0.1
			c-0.2-0.1-0.4-0.1-0.5-0.2c-0.1-0.1-0.3-0.3-0.3-0.4c-0.1-0.2-0.1-0.4-0.1-0.6c0-0.3,0.1-0.6,0.2-0.8c0.1-0.2,0.3-0.3,0.6-0.4
			c0.2-0.1,0.5-0.2,0.8-0.2c0.3,0,0.6-0.1,0.9-0.1c0.1,0,0.2,0,0.3,0c0.1,0,0.2-0.1,0.2-0.1c0.1,0,0.1-0.1,0.1-0.2
			c0-0.1,0.1-0.2,0.1-0.3c0-0.2,0-0.4-0.1-0.5c-0.1-0.1-0.2-0.2-0.3-0.3c-0.1-0.1-0.2-0.1-0.4-0.2s-0.3,0-0.5,0
			c-0.4,0-0.7,0.1-0.9,0.3c-0.2,0.2-0.4,0.5-0.4,0.8h-0.6C181.2,194.3,181.3,194.1,181.4,193.9z M184.2,195.3c0,0.1-0.1,0.1-0.2,0.1
			c-0.1,0-0.2,0.1-0.3,0.1c-0.2,0-0.5,0.1-0.8,0.1c-0.3,0-0.5,0.1-0.7,0.2c-0.2,0.1-0.4,0.2-0.5,0.3c-0.1,0.1-0.2,0.3-0.2,0.5
			c0,0.1,0,0.3,0.1,0.4c0.1,0.1,0.1,0.2,0.2,0.3c0.1,0.1,0.2,0.1,0.3,0.2c0.1,0,0.3,0.1,0.4,0.1c0.2,0,0.4,0,0.6-0.1
			c0.2-0.1,0.4-0.2,0.5-0.3c0.1-0.1,0.3-0.3,0.4-0.5c0.1-0.2,0.1-0.4,0.1-0.6L184.2,195.3L184.2,195.3z"/>
		<path class="st0" d="M186.5,193.2v0.8h0c0.2-0.3,0.4-0.5,0.6-0.7c0.2-0.2,0.6-0.2,0.9-0.2c0.3,0,0.6,0.1,0.8,0.2
			c0.3,0.2,0.4,0.4,0.5,0.7c0.1-0.3,0.3-0.5,0.6-0.7c0.3-0.2,0.6-0.2,0.9-0.2c1,0,1.6,0.6,1.6,1.7v3.2H192v-3.2
			c0-0.4-0.1-0.7-0.2-0.9c-0.2-0.2-0.5-0.3-0.9-0.3c-0.3,0-0.5,0-0.6,0.1s-0.3,0.2-0.4,0.4c-0.1,0.2-0.2,0.3-0.2,0.5
			c0,0.2-0.1,0.4-0.1,0.6v2.7H189v-3.2c0-0.2,0-0.3-0.1-0.5c0-0.1-0.1-0.3-0.2-0.4c-0.1-0.1-0.2-0.2-0.3-0.3
			c-0.1-0.1-0.3-0.1-0.5-0.1c-0.2,0-0.5,0-0.6,0.1c-0.2,0.1-0.3,0.2-0.4,0.4c-0.1,0.2-0.2,0.3-0.3,0.5c-0.1,0.2-0.1,0.4-0.1,0.7v2.6
			H186v-4.7H186.5z"/>
		<path class="st0" d="M193.8,193.9c0.1-0.2,0.2-0.4,0.4-0.5c0.2-0.1,0.4-0.2,0.6-0.3c0.2-0.1,0.5-0.1,0.8-0.1c0.2,0,0.4,0,0.6,0.1
			c0.2,0,0.4,0.1,0.6,0.2c0.2,0.1,0.3,0.3,0.4,0.5c0.1,0.2,0.2,0.5,0.2,0.8v2.5c0,0.2,0.1,0.3,0.3,0.3c0.1,0,0.1,0,0.2,0v0.5
			c-0.1,0-0.1,0-0.2,0c-0.1,0-0.1,0-0.2,0c-0.1,0-0.3,0-0.4-0.1c-0.1,0-0.2-0.1-0.2-0.2c0-0.1-0.1-0.2-0.1-0.3c0-0.1,0-0.2,0-0.3h0
			c-0.1,0.2-0.2,0.3-0.3,0.4s-0.2,0.2-0.4,0.3c-0.1,0.1-0.3,0.1-0.4,0.2c-0.2,0-0.4,0.1-0.6,0.1c-0.2,0-0.4,0-0.6-0.1
			c-0.2-0.1-0.4-0.1-0.5-0.2c-0.1-0.1-0.3-0.3-0.3-0.4c-0.1-0.2-0.1-0.4-0.1-0.6c0-0.3,0.1-0.6,0.2-0.8c0.1-0.2,0.3-0.3,0.6-0.4
			c0.2-0.1,0.5-0.2,0.8-0.2c0.3,0,0.6-0.1,0.9-0.1c0.1,0,0.2,0,0.3,0c0.1,0,0.2-0.1,0.2-0.1c0.1,0,0.1-0.1,0.1-0.2
			c0-0.1,0.1-0.2,0.1-0.3c0-0.2,0-0.4-0.1-0.5c-0.1-0.1-0.2-0.2-0.3-0.3c-0.1-0.1-0.2-0.1-0.4-0.2s-0.3,0-0.5,0
			c-0.4,0-0.7,0.1-0.9,0.3c-0.2,0.2-0.4,0.5-0.4,0.8h-0.6C193.6,194.3,193.7,194.1,193.8,193.9z M196.6,195.3c0,0.1-0.1,0.1-0.2,0.1
			c-0.1,0-0.2,0.1-0.3,0.1c-0.2,0-0.5,0.1-0.8,0.1c-0.3,0-0.5,0.1-0.7,0.2c-0.2,0.1-0.4,0.2-0.5,0.3c-0.1,0.1-0.2,0.3-0.2,0.5
			c0,0.1,0,0.3,0.1,0.4c0.1,0.1,0.1,0.2,0.2,0.3c0.1,0.1,0.2,0.1,0.3,0.2c0.1,0,0.3,0.1,0.4,0.1c0.2,0,0.4,0,0.6-0.1
			c0.2-0.1,0.4-0.2,0.5-0.3c0.1-0.1,0.3-0.3,0.4-0.5c0.1-0.2,0.1-0.4,0.1-0.6L196.6,195.3L196.6,195.3z M194.9,192.5l1-1.3h0.7
			l-1.2,1.3H194.9z"/>
	</g>
	<g>
		<path class="st0" d="M57.2,155.8h7.6c1.4,0,2.5,0.3,3.4,1c0.8,0.6,1.3,1.6,1.3,2.9c0,0.8-0.2,1.5-0.6,2c-0.4,0.6-0.9,1-1.7,1.3v0
			c1,0.2,1.7,0.7,2.2,1.4c0.5,0.7,0.7,1.6,0.7,2.7c0,0.6-0.1,1.2-0.3,1.7c-0.2,0.5-0.6,1-1,1.4c-0.5,0.4-1.1,0.7-1.8,0.9
			c-0.7,0.2-1.6,0.3-2.6,0.3h-7.2V155.8z M60,162.3h4.5c0.7,0,1.2-0.2,1.6-0.6c0.4-0.4,0.7-0.9,0.7-1.6c0-0.8-0.2-1.3-0.6-1.7
			c-0.4-0.3-1-0.5-1.7-0.5H60V162.3z M60,169.1h4.8c0.8,0,1.5-0.2,1.9-0.6c0.5-0.4,0.7-1,0.7-1.8c0-0.8-0.2-1.4-0.7-1.8
			c-0.5-0.4-1.1-0.6-1.9-0.6H60V169.1z"/>
		<path class="st0" d="M76.8,155.8h2.9l6,15.6h-2.9l-1.5-4.1h-6.2l-1.5,4.1h-2.8L76.8,155.8z M75.9,165.2h4.8l-2.3-6.7h-0.1
			L75.9,165.2z"/>
		<path class="st0" d="M87.1,155.8H90l7.1,11.5h0v-11.5h2.6v15.6h-2.9l-7.1-11.5h-0.1v11.5h-2.6V155.8z"/>
		<path class="st0" d="M102.9,155.8h2.9l7.1,11.5h0v-11.5h2.6v15.6h-2.9l-7.1-11.5h-0.1v11.5h-2.6V155.8z"/>
		<path class="st0" d="M123,155.8h2.9l6,15.6h-2.9l-1.5-4.1h-6.2l-1.5,4.1H117L123,155.8z M122,165.2h4.8l-2.3-6.7h-0.1L122,165.2z"
			/>
		<path class="st0" d="M133.4,155.8h7.6c1.4,0,2.5,0.3,3.4,1c0.8,0.6,1.3,1.6,1.3,2.9c0,0.8-0.2,1.5-0.6,2c-0.4,0.6-0.9,1-1.7,1.3v0
			c1,0.2,1.7,0.7,2.2,1.4c0.5,0.7,0.7,1.6,0.7,2.7c0,0.6-0.1,1.2-0.3,1.7c-0.2,0.5-0.6,1-1,1.4c-0.5,0.4-1.1,0.7-1.8,0.9
			c-0.7,0.2-1.6,0.3-2.6,0.3h-7.2V155.8z M136.1,162.3h4.5c0.7,0,1.2-0.2,1.6-0.6c0.4-0.4,0.7-0.9,0.7-1.6c0-0.8-0.2-1.3-0.6-1.7
			c-0.4-0.3-1-0.5-1.7-0.5h-4.5V162.3z M136.1,169.1h4.8c0.8,0,1.5-0.2,1.9-0.6c0.5-0.4,0.7-1,0.7-1.8c0-0.8-0.2-1.4-0.7-1.8
			c-0.5-0.4-1.1-0.6-1.9-0.6h-4.8V169.1z"/>
		<path class="st0" d="M152.9,155.8h2.9l6,15.6h-2.9l-1.5-4.1h-6.2l-1.5,4.1h-2.8L152.9,155.8z M152,165.2h4.8l-2.3-6.7h-0.1
			L152,165.2z"/>
		<path class="st0" d="M163.3,155.8h10.8v2.4h-8v4.1h7.1v2.2h-7.1v6.9h-2.7V155.8z"/>
		<path class="st0" d="M176.3,155.8h11.2v2.4H179v4.1h7.9v2.2H179v4.6h8.7v2.4h-11.4V155.8z"/>
		<path class="st0" d="M191.9,166.2c0,0.6,0.1,1.1,0.3,1.5c0.2,0.4,0.5,0.8,0.9,1c0.4,0.3,0.8,0.5,1.3,0.6c0.5,0.1,1,0.2,1.5,0.2
			c0.6,0,1.1-0.1,1.5-0.2c0.4-0.1,0.8-0.3,1-0.5s0.5-0.5,0.6-0.8c0.1-0.3,0.2-0.6,0.2-0.9c0-0.6-0.1-1-0.4-1.3
			c-0.3-0.3-0.6-0.5-0.9-0.6c-0.6-0.2-1.2-0.4-1.9-0.6c-0.7-0.2-1.6-0.4-2.7-0.7c-0.7-0.2-1.2-0.4-1.7-0.7c-0.4-0.3-0.8-0.6-1.1-1
			c-0.3-0.3-0.4-0.7-0.6-1.1c-0.1-0.4-0.2-0.8-0.2-1.2c0-0.8,0.2-1.5,0.5-2c0.3-0.6,0.8-1.1,1.3-1.4c0.5-0.4,1.2-0.7,1.8-0.8
			c0.7-0.2,1.4-0.3,2.1-0.3c0.8,0,1.6,0.1,2.3,0.3c0.7,0.2,1.4,0.5,1.9,1c0.5,0.4,1,0.9,1.3,1.6c0.3,0.6,0.5,1.3,0.5,2.2h-2.7
			c-0.1-1-0.4-1.7-1-2.1c-0.6-0.4-1.4-0.6-2.3-0.6c-0.3,0-0.6,0-1,0.1c-0.3,0.1-0.6,0.2-0.9,0.3c-0.3,0.2-0.5,0.4-0.7,0.6
			c-0.2,0.3-0.3,0.6-0.3,1c0,0.6,0.2,1,0.5,1.3c0.3,0.3,0.8,0.6,1.3,0.7c0.1,0,0.3,0.1,0.7,0.2c0.4,0.1,0.8,0.2,1.3,0.4
			s1,0.3,1.5,0.4c0.5,0.1,0.8,0.2,1,0.3c0.5,0.2,1,0.4,1.3,0.7c0.4,0.3,0.7,0.6,1,1c0.3,0.4,0.4,0.7,0.6,1.1
			c0.1,0.4,0.2,0.8,0.2,1.2c0,0.9-0.2,1.6-0.5,2.2s-0.8,1.1-1.4,1.5c-0.6,0.4-1.2,0.7-2,0.9c-0.7,0.2-1.5,0.3-2.3,0.3
			c-0.9,0-1.7-0.1-2.5-0.3c-0.8-0.2-1.5-0.6-2.1-1c-0.6-0.5-1-1-1.4-1.7c-0.3-0.7-0.5-1.5-0.5-2.5H191.9z"/>
		<path class="st0" d="M202.7,155.8h12.6v2.4h-5v13.2h-2.7v-13.2h-4.9V155.8z"/>
	</g>
	<g class="st1">
		<path class="st0" d="M112.9,111.4c-0.3,0.1-1.1,0.4-2.6,2.2c-1.5,1.7-2.3,3.9-2.3,3.9c-0.3,0.1-0.6-0.8-1.2-0.6
			c-0.6,0.2-0.2,1-0.6,1.2c0,0-1.9-1.3-4.1-1.8c-2.2-0.6-3.1-0.3-3.4-0.3c-0.5,0.2-0.8,0.6-0.4,1.2c0.4,0.6,0.9,0.9,1,1.5
			c0,0.2,0,0.6,0.2,0.8c0.4,0.4,0.3,0.5,0.4,0.9c0.3,0.6,1,0.6,1,1.1c0,0.4,0,0.8,0.3,1.3c0.3,0.4,0.6,0.5,0.8,0.5s0.4,0.3,0.3,0.5
			c-0.1,0.2-0.2,0.6-0.1,1c0.2,0.8,0.8,0.6,1.1,1.7c0.2,0.8,1,0.8,1.4,1.1c0.6,0.4,0.8,1,1.6,0.8c0.7-0.2,1-0.5,1.4-1.2
			c0.4-0.6,0.6-1.9,0.5-2.1c-0.1-0.2,0-0.7,0.2-0.6c0.1,0.1,0.4,0.2,0.6,0.2c0.2-0.1,0.3-0.3,0.4-0.5c0.1-0.1,0.4,0.2,0.5,0.4
			c0.1,0.2,1,1.2,1.6,1.4c0.7,0.3,1.2,0.3,1.8,0.1c0.8-0.3,0.7-0.9,0.9-1.5c0.1-0.5,0.8-0.9,0.5-1.7c-0.4-1.1,0.2-1.3-0.1-2.1
			c-0.2-0.4-0.4-0.6-0.6-0.8c-0.2-0.1-0.2-0.4,0-0.6c0.1-0.1,0.4-0.3,0.4-0.9s-0.3-0.9-0.5-1.2c-0.2-0.4,0.4-0.8,0.2-1.5
			c-0.1-0.3-0.2-0.4-0.1-0.9c0.1-0.4-0.2-0.7-0.3-0.8c-0.3-0.6,0-1.2-0.1-1.9C113.8,111.5,113.4,111.3,112.9,111.4z"/>
	</g>
	<g>
		<path class="st0" d="M110.8,124.9c0.2-0.6,0.5-1.1,0.8-1.5c0.4-0.4,0.8-0.8,1.4-1c0.5-0.2,1.2-0.4,1.9-0.4c0.5,0,1.1,0.1,1.5,0.3
			c0.5,0.2,0.9,0.4,1.3,0.7c0.4,0.3,0.7,0.7,0.9,1.2c0.2,0.5,0.3,1,0.3,1.6c0,0.6-0.1,1.1-0.3,1.5c-0.2,0.4-0.4,0.8-0.8,1.1
			c-0.3,0.3-0.7,0.6-1.1,0.9c-0.4,0.3-0.8,0.5-1.2,0.8c-0.4,0.3-0.8,0.5-1.2,0.9c-0.4,0.3-0.7,0.7-1,1.1h5.6v2.1h-8.7
			c0-0.7,0.1-1.3,0.3-1.8c0.2-0.5,0.5-1,0.8-1.4c0.3-0.4,0.7-0.8,1.2-1.1c0.5-0.3,0.9-0.7,1.4-1c0.3-0.2,0.5-0.4,0.8-0.5
			c0.3-0.2,0.6-0.4,0.8-0.6c0.2-0.2,0.4-0.5,0.6-0.8c0.2-0.3,0.2-0.6,0.2-1c0-0.6-0.2-1-0.5-1.3c-0.3-0.3-0.8-0.5-1.3-0.5
			c-0.3,0-0.6,0.1-0.9,0.2c-0.2,0.2-0.4,0.4-0.6,0.6c-0.1,0.3-0.3,0.6-0.3,0.9c-0.1,0.3-0.1,0.6-0.1,1h-2.3
			C110.5,126.1,110.6,125.5,110.8,124.9z"/>
		<path class="st0" d="M120,125.2c0.2-0.8,0.5-1.4,0.9-1.9c0.4-0.5,0.9-0.8,1.4-1c0.5-0.2,1.1-0.3,1.7-0.3c0.6,0,1.2,0.1,1.7,0.3
			c0.5,0.2,1,0.5,1.4,1c0.4,0.5,0.7,1.1,0.9,1.9c0.2,0.8,0.3,1.7,0.3,2.9c0,1.2-0.1,2.2-0.3,3c-0.2,0.8-0.5,1.4-0.9,1.9
			c-0.4,0.5-0.9,0.8-1.4,1c-0.5,0.2-1.1,0.3-1.7,0.3c-0.6,0-1.1-0.1-1.7-0.3c-0.5-0.2-1-0.5-1.4-1c-0.4-0.5-0.7-1.1-0.9-1.9
			c-0.2-0.8-0.3-1.8-0.3-3C119.6,127,119.8,126,120,125.2z M122.1,129.4c0,0.5,0.1,0.9,0.2,1.4s0.3,0.8,0.6,1.1
			c0.3,0.3,0.6,0.5,1.1,0.5c0.5,0,0.9-0.2,1.1-0.5c0.3-0.3,0.5-0.7,0.6-1.1s0.2-0.9,0.2-1.4c0-0.5,0-0.9,0-1.2c0-0.2,0-0.4,0-0.7
			c0-0.3,0-0.6-0.1-0.9c0-0.3-0.1-0.6-0.2-0.9c-0.1-0.3-0.2-0.6-0.3-0.8c-0.1-0.2-0.3-0.4-0.6-0.6c-0.2-0.1-0.5-0.2-0.8-0.2
			c-0.3,0-0.6,0.1-0.8,0.2c-0.2,0.1-0.4,0.3-0.5,0.6c-0.1,0.2-0.3,0.5-0.3,0.8c-0.1,0.3-0.1,0.6-0.2,0.9c0,0.3-0.1,0.6-0.1,0.9
			c0,0.3,0,0.5,0,0.7C122,128.5,122.1,128.9,122.1,129.4z"/>
		<path class="st0" d="M132.9,134.1v-7.7h-3v-1.8c0.4,0,0.8,0,1.2-0.1c0.4-0.1,0.7-0.2,1-0.4c0.3-0.2,0.6-0.4,0.8-0.7
			c0.2-0.3,0.4-0.7,0.4-1.1h1.9v11.8H132.9z"/>
		<path class="st0" d="M139.2,123.9c0.2-0.4,0.5-0.7,0.9-1c0.4-0.3,0.8-0.5,1.3-0.6c0.5-0.1,1-0.2,1.4-0.2c0.7,0,1.4,0.1,1.9,0.3
			c0.5,0.2,0.9,0.5,1.2,0.8c0.3,0.3,0.5,0.7,0.7,1c0.1,0.4,0.2,0.7,0.2,1c0,0.6-0.1,1.1-0.4,1.5c-0.3,0.4-0.7,0.8-1.3,0.9v0
			c0.7,0.2,1.3,0.5,1.6,1c0.4,0.5,0.6,1.1,0.6,1.9c0,0.6-0.1,1.2-0.4,1.6c-0.3,0.5-0.6,0.8-1,1.1c-0.4,0.3-0.9,0.5-1.4,0.7
			c-0.5,0.2-1.1,0.2-1.6,0.2c-0.6,0-1.1-0.1-1.7-0.2c-0.5-0.1-1-0.4-1.4-0.7c-0.4-0.3-0.8-0.7-1-1.1c-0.3-0.5-0.4-1-0.4-1.7
			c0-0.8,0.2-1.4,0.6-1.9c0.4-0.5,0.9-0.8,1.6-1v0c-0.6-0.2-1-0.5-1.3-0.9c-0.3-0.4-0.4-1-0.4-1.5
			C138.8,124.7,138.9,124.3,139.2,123.9z M140.9,131.3c0.1,0.2,0.3,0.5,0.4,0.6c0.2,0.2,0.4,0.3,0.7,0.4c0.3,0.1,0.5,0.1,0.8,0.1
			c0.3,0,0.6,0,0.8-0.1c0.2-0.1,0.5-0.2,0.6-0.4c0.2-0.2,0.3-0.4,0.4-0.6c0.1-0.2,0.2-0.5,0.2-0.8c0-0.3-0.1-0.5-0.2-0.8
			c-0.1-0.2-0.3-0.4-0.4-0.6c-0.2-0.2-0.4-0.3-0.6-0.4c-0.2-0.1-0.5-0.1-0.8-0.1c-0.6,0-1.1,0.2-1.5,0.5c-0.4,0.3-0.6,0.8-0.6,1.4
			C140.7,130.8,140.8,131.1,140.9,131.3z M141.5,126.6c0.4,0.3,0.8,0.4,1.3,0.4c0.5,0,0.9-0.1,1.3-0.4c0.3-0.3,0.5-0.7,0.5-1.2
			c0-0.2,0-0.3-0.1-0.5s-0.1-0.4-0.3-0.5s-0.3-0.3-0.5-0.4c-0.2-0.1-0.5-0.2-0.9-0.2c-0.2,0-0.5,0-0.7,0.1c-0.2,0.1-0.4,0.2-0.6,0.3
			c-0.2,0.1-0.3,0.3-0.4,0.5c-0.1,0.2-0.1,0.4-0.1,0.7C141,126,141.2,126.4,141.5,126.6z"/>
	</g>
	<g>
		<path class="st0" d="M234.3,137.4c-0.4,0.7-0.3,1.5-0.1,2.1c0.2,0.6,0.4,1.1,0.7,1.6c-0.2-0.1-0.5-0.1-0.5-0.1
			c-5.5-4.1-9.4,0.8-18.9-7.9c2.5-0.2,5-0.2,7.4,0.3c1.5,0.3,3,0.7,4.4,1.2c0.7,0.3,1.4,0.6,2,0.9l1.7,1.3l0.1,0.1
			c0.4,0.3,1,0.2,1.3-0.2c0.2-0.3,0.2-0.6,0.1-0.9l-0.9-1.7c0.1-7.5,3.1-13.1,4.9-14.2C237.5,123.5,238.1,131.7,234.3,137.4z"/>
		<path class="st0" d="M229.1,120.9c-0.4,3.9-3.1,4.9-1.7,8.8c-3.2-3.2-9.1-0.2-15.7-4.4c2-0.6,4-1.1,6-1.2c2.5-0.2,5.1,0.4,7,1.8
			l0.1,0.1c0.4,0.3,0.9,0.2,1.2-0.2c0.2-0.3,0.2-0.7,0-0.9c0.1,0-0.9-6.2-0.6-9c0.2-1.4,0.3-2.8,0.6-4.1c0.2-0.8,0.4-1.6,0.6-2.4
			C228.6,113.3,229.3,118.8,229.1,120.9z"/>
		<path class="st0" d="M220.3,118c-1.6,0.5-3.4,1.4-5.1,1.5c-1.7,0.1-3.4,0-5.1-0.2c-2.9-0.4-5.7-1.4-8.2-2.8c5-2.2,11-2.3,15.8,0.4
			c0.4,0.2,0.9,0.1,1.1-0.3c0.1-0.2,0.1-0.5,0-0.8c-0.6-1.2-1.4-2.3-2.5-3.3c-1.1-2.5-1.5-8.3-1.4-10.3c0.1-1.4,0.2-2.8,0.4-4.2
			c1.1,1.6,1.9,3.4,2.5,5.2c0.8,2.4,1.1,5,1.2,7.5c0.1,1.3,0.2,2.1,0.1,3.3l-0.1,1c0,0.5,0.1,0.8,0.2,1.2
			C219.6,117,219.9,117.5,220.3,118z"/>
		<path class="st0" d="M244.2,195.8c0.1,0,0.2-0.1,0.3-0.1C244.4,195.7,244.3,195.7,244.2,195.8z"/>
		<path class="st0" d="M213.5,111c-0.4-0.1-0.8-0.2-1.2-0.2l0.1,0c-3.6-0.7-7.1-1.9-10-4c-1.5-1-2.7-2.4-3.9-3.7
			c-0.8-1.1-1.5-2.2-2-3.4c1.4,0.2,2.8,0.5,4.2,0.9c1.8,0.5,3.6,1.3,5.2,2.1l0,0l0,0c0.9,0.4,1.7,0.9,2.6,1.5
			C212.3,106.6,213.2,110.4,213.5,111z"/>
		<path class="st0" d="M253.5,191.1C253.4,191.1,253.4,191.2,253.5,191.1c-0.6,0.5-1.2,0.9-1.8,1.2
			C252.3,192,252.9,191.6,253.5,191.1z"/>
		<path class="st0" d="M246.9,194.9c0.2-0.1,0.4-0.2,0.6-0.3C247.3,194.7,247.1,194.8,246.9,194.9z"/>
		<path class="st0" d="M241.2,176.8c0.1-0.7,0.2-2-0.6-2.1c-0.1,0-0.1,0-0.2,0l-0.1,0c-1.7,0-3.4-0.2-5-1c-1.6-0.7-3.2-1.6-4.5-2.7
			c-2.3-1.9-4.2-4.3-5.2-7.1c2.7,0.7,5.4,1.4,7.9,2.5c1.4,0.7,2.8,1.5,3.8,2.6c1,1.1,1.9,2.5,2.1,3.8l0,0.1c0.1,0.5,0.5,0.8,1,0.8
			c0.4-0.1,0.7-0.4,0.8-0.8l0.3-1c0,0,6.2-9.6,13.9-11.8c0.2,2.2-1.1,9.1-5.8,11.5C247.6,172.6,242.8,173.9,241.2,176.8z"/>
		<path class="st0" d="M241.6,164.7c0-1.7-0.7-1.9-1.2-1.9c-0.1,0-0.1,0-0.2,0c-1.5,0.3-3.1,0.3-4.7-0.1c-1.5-0.4-2.9-1.2-4.1-2.3
			c-2.4-2.1-4.2-5-5.1-8.1c2.4,0.6,4.8,1.2,6.9,2.2c2.7,1.2,4.8,3.2,5.8,5.9c0.2,0.5,0.7,0.8,1.3,0.6c0.4-0.1,0.7-0.5,0.7-0.9
			c0-0.8,0-0.8-0.1-1.6c0.1,0,2.9-9,11.1-13.4C251.9,159.6,243.8,158,241.6,164.7z"/>
		<path class="st0" d="M250.4,193.2c-0.3,0.2-0.6,0.3-0.9,0.5C249.8,193.5,250.1,193.4,250.4,193.2z"/>
		<path class="st0" d="M241.8,147.8L241.8,147.8c-1,1.3-2,2.7-2.3,4.4l-0.3-1l0,0c-0.1-0.5-0.7-0.9-1.2-0.7l-0.1,0
			c-3.1,1.1-6.7,0.3-9.6-1.4c-2.4-1.4-4.5-3.5-6.2-5.8c2.3-0.1,4.5,0,6.7,0.4c2.7,0.5,5.3,1.6,7.1,3.6c0.4,0.4,1,0.4,1.4,0.1
			c0.3-0.2,0.4-0.6,0.3-1c-0.1-0.4-0.2-0.9-0.2-0.9s0.5-3.7,3.2-7.4c1.2-1.6,2.4-3.2,3.8-4.7c0.7,2.5,0.8,4.3,0.7,6.8
			C244.8,143,243.8,145.8,241.8,147.8z"/>
		<path class="st0" d="M238.5,187.5c0.3-0.6,0.6-1.9-0.2-2.2c-0.1,0-0.1-0.1-0.2-0.1l-0.1,0c-1.7-0.4-6.6-1.9-8.8-4.7
			c-1.8-2.4-3.5-4.6-4-7.5c3.4,0.9,5.5,1.1,7.7,2.7c1.3,0.9,2.4,2,3.2,3.3c0.8,1.3,1.4,2.8,1.3,4.2l0,0.1c0,0.5,0.4,0.9,0.9,1
			c0.4,0,0.8-0.2,0.9-0.6l0.5-0.9c0,0,3-8.8,16.7-7.4C251.1,186.4,240.9,184.2,238.5,187.5z"/>
		<path class="st0" d="M233.7,197.9c0,0-0.3,0.1-0.2-0.3c0.3-0.9,0.1-2-0.1-2.1c-0.1,0-0.1-0.1-0.2-0.1l-0.1,0c-1.6-0.6-5-3-6.8-6.1
			c-1.4-2.6-3.2-5.7-3.2-8.7c3.2,1.4,4.8,3,6.8,4.8c1.1,1.1,2.1,2.4,2.7,3.8c0.6,1.4,1,3,0.7,4.3l0,0.1c-0.1,0.5,0.2,1,0.7,1.1
			c0.4,0.1,0.8-0.1,1-0.5l0.6-0.8c0,0,4.3-8.6,20-4.1C241.5,201.6,238,191.6,233.7,197.9z"/>
		<path class="st0" d="M226.3,206c-0.1,0-0.3-0.1-0.2-0.4c0.2-0.6,0.7-1.8,0.3-2.1c-0.1-0.1-0.1-0.1-0.2-0.1l-0.1,0
			c-1.4-0.9-4.1-3.9-5.1-7.4c-0.8-2.9-1.4-5.8-1-7.9c9.5,6.3,7.4,12.3,6.9,13.6l0,0.1c-0.2,0.5,0,1,0.5,1.2c0.4,0.2,0.8,0.1,1.1-0.2
			l0.7-0.7c0,0,6.4-4.8,17.8-0.4C232.8,213.7,231.6,201,226.3,206z"/>
		<path class="st0" d="M216.5,214c0,0-0.3,0.1-0.1-0.3c0.2-0.5,1.1-1.6,0.8-2c0-0.1-0.1-0.1-0.1-0.2l-0.1-0.1
			c-1.2-1.2-2.3-6.2-2.6-9.7c-0.3-3,0.6-6.9,1.6-7.4c4.3,2.3,3.9,14.1,2,15.5l-0.1,0.1c-0.3,0.4-0.2,1,0.2,1.3
			c0.3,0.2,0.8,0.2,1.1,0l0.9-0.5c0,0,8.4-3.3,17.3,2.5C217.9,220.9,222.7,210.2,216.5,214z"/>
		<path class="st0" d="M194.2,223.9c3.1-1.3,9.6-2.9,12.5-5.5c2.2-1.9-1.4-3.9-1-9.5c0.2-3,1.5-7.3,2.5-7.7
			c5.6,6.8,2.2,14.6,0.2,15.8l-0.1,0.1c-0.3,0.4-0.3,0.9,0.1,1.3c0.3,0.3,0.8,0.3,1.1,0.1l0.9-0.4c0,0,8.5-3.4,17.4,5
			c-17,5.3-15.3-5-21.4-2.5c-4,2.3-8.2,4.6-11.6,5C193.8,225.7,193.5,224.2,194.2,223.9z"/>
	</g>
</g>
</svg>
