<?xml version="1.0" encoding="utf-8"?>
<!-- Generator: Adobe Illustrator 22.0.1, SVG Export Plug-In . SVG Version: 6.00 Build 0)  -->
<svg version="1.1" id="Layer_1" xmlns="http://www.w3.org/2000/svg" xmlns:xlink="http://www.w3.org/1999/xlink" x="0px" y="0px"
	 viewBox="0 0 267 273.5" style="enable-background:new 0 0 267 273.5;" xml:space="preserve">
<style type="text/css">
	.st0{fill:#FFFFFF;}
	.st1{fill:none;}
	.st2{opacity:0.7;}
</style>
<g>
	<g>
		<g>
			<g>
				<g>
					<path class="st0" d="M243.5,190.1c-0.1-0.3-0.2-0.5-0.1-0.6c0.2-1.7,0.4-3.5,0.5-5.2c0.4-5-0.1-9.9-2.2-14.5
						c-0.1-0.2-0.4-0.4-0.5-0.6c-0.2,0.2-0.4,0.4-0.5,0.7c-2.1,5.5-2.9,11.3-2.5,17.2c0.3,4.5,0.5,9-0.5,13.5
						c-0.2,0.8-0.3,1.6-0.5,2.4c0,0.2,0.2,0.5,0.2,0.8c0.2-0.1,0.5-0.2,0.7-0.4c0.8-0.9,1.6-1.8,2.4-2.6c2.6-2.3,5.1-4.5,7.8-6.7
						c5.1-4.3,9-9.4,11.4-15.7c0.3-0.9,0.5-1.8,0.7-2.7c-0.1-0.1-0.2-0.1-0.3-0.2C253.3,179,248.6,184.6,243.5,190.1z"/>
				</g>
			</g>
		</g>
		<g>
			<g>
				<g>
					<path class="st0" d="M235.1,190.8c-0.3,0.1-0.5,0.1-0.5,0.2c-1.6,2.8-3.7,5.4-4.8,8.3c-1.5,4.1-2.5,8.4-3.5,12.6
						c-0.9,3.5-2.2,6.6-4.7,9.2c-0.3,0.3-0.3,0.8-0.4,1.2c0.4-0.1,0.9,0,1.3-0.2c4.2-2.2,8.4-4.6,12.7-6.6c6.3-3,12.1-6.6,16.4-12.2
						c0.6-0.8,1.4-1.7,1.6-2.9c-8.2,1.3-14.5,6-21,10.4c0.9-3.3,2-6.5,2.7-9.7C235.6,197.6,235.3,194.2,235.1,190.8z"/>
				</g>
			</g>
		</g>
		<g>
			<g>
				<g>
					<path class="st0" d="M241.4,150c-0.1,0-0.2,0-0.3,0c-0.1,1.3-0.3,2.7-0.3,4c0,4.6,1.2,8.9,2.6,13.1c1.2,3.5,2.5,7,2.5,10.8
						c0,1.4,0.1,2.7,0.2,4.1c0,0.4,0.4,0.7,0.6,1.1c0.3-0.2,0.6-0.4,0.8-0.7c2.9-4.9,5.7-9.8,8.8-14.6c2.7-4.3,5.1-8.8,5.8-13.9
						c0.1-0.4,0-0.8,0-1.1c-0.4,0.1-0.8,0.2-1.2,0.4c-4.9,3.2-8.1,7.8-10.4,13c-0.3,0.7-0.7,1.5-1,2.2c-0.1,0-0.2,0-0.3-0.1
						C248,161.6,246.3,155.1,241.4,150z"/>
				</g>
			</g>
		</g>
		<g>
			<g>
				<g>
					<path class="st0" d="M237.2,131c0.3,1.8,0.4,3.3,0.8,4.7c1.2,4.3,2.9,8.4,5.1,12.3c2.4,4,4.9,7.9,6.2,12.5
						c0.1,0.3,0.5,0.4,0.8,0.6c0.2-0.3,0.5-0.5,0.6-0.8c0.2-1.1,0.4-2.3,0.6-3.4c1.2-5.4,2.4-10.8,3.5-16.2c0.8-4,0.8-8,0.2-12
						c-0.1-0.7-0.3-1.3-0.5-2c-0.1,0-0.2,0-0.4,0c-3.6,6-5,12.6-5.6,19.6c-0.7-1.2-1.2-2.4-1.7-3.7c-1.9-4.4-4.5-8.2-8.3-11.1
						C238.2,131.3,237.8,131.2,237.2,131z"/>
				</g>
			</g>
		</g>
		<g>
			<g>
				<g>
					<path class="st0" d="M227.5,114.5c-0.4-0.1-0.8,0.3-0.7,0.7c0.1,0.4,0.3,0.9,0.5,1.1c2.4,4.7,6.2,8.1,10.2,11.4
						c3.2,2.7,6.8,5.1,8.8,9c0.1,0.3,0.7,0.4,1.1,0.5c0.1-0.3,0.2-0.7,0.2-1c0-1.9-0.2-3.7-0.1-5.6c0.3-4.7,0.8-9.3,1.2-14
						c0.2-3.2-0.7-6.3-1.8-9.3c-0.1-0.2-0.3-0.5-0.5-0.5s-0.5,0.2-0.6,0.4c-0.6,1.3-1.3,2.5-1.8,3.8c-1.4,4-1.5,8.1-1.2,12.2
						c0.1,0.7,0,1.4,0,2.3C238.6,120.7,233.9,116.1,227.5,114.5z"/>
				</g>
			</g>
		</g>
		<g>
			<g>
				<g>
					<path class="st0" d="M227.3,98.6c-0.1,0.5-0.2,0.6-0.1,0.8c0.1,4.4,1.6,8.4,4.4,11.8c2.2,2.6,4.8,4.9,7.3,7.3
						c0.2,0.2,0.7,0.2,1.2,0.4c-0.6-2.3-1.2-4.3-1.8-6.3c-1.4-5.4-4.2-9.8-8.9-12.9C228.8,99.3,228.1,99,227.3,98.6z"/>
				</g>
			</g>
		</g>
	</g>
	<g>
		<g>
			<path class="st0" d="M125.3,131h9.7v4.4h-4v4.2h3.5v4.2H131v9.3h-5.7V131z"/>
		</g>
		<g>
			<path class="st0" d="M149.8,140.6H144v-3.8c0-1.1-0.1-1.8-0.2-2.1c-0.1-0.3-0.4-0.4-0.8-0.4c-0.6,0-0.9,0.3-1,1
				c0,0.2,0,0.7,0,1.7v10.2c0,0.9,0,1.4,0.1,1.6c0.1,0.6,0.4,1,1,1s0.9-0.4,1-1.1c0-0.2,0-0.7,0-1.7v-2.8h5.7v0.9
				c0,2-0.1,3.4-0.3,4.1c-0.3,1.4-1.1,2.4-2.3,3.2c-1.1,0.7-2.5,1.1-4.1,1.1c-1.7,0-3-0.3-4.2-0.9c-1.2-0.7-2-1.7-2.4-3.2
				c-0.2-0.9-0.3-2.2-0.3-4.2v-6.4c0-1.5,0-2.6,0.1-3.1c0.1-1.1,0.5-2.1,1-2.8c1.2-1.6,3-2.4,5.6-2.4c1.4,0,2.6,0.2,3.7,0.7
				c1.3,0.6,2.2,1.5,2.6,2.7c0.3,1,0.5,2.5,0.5,4.6L149.8,140.6L149.8,140.6z"/>
		</g>
		<g>
			<path class="st0" d="M169.5,131v22h-5v-14.9l-2,14.9H159l-2.1-14.6V153h-5v-22h7.4c0.2,1,0.4,2.5,0.7,4.7l0.8,5.6l1.3-10.3H169.5
				z"/>
		</g>
		<g>
			<path class="st0" d="M178.4,142.1v3.8h-7.2v-3.8H178.4z"/>
		</g>
		<g>
			<path class="st0" d="M180.1,131h5.8c2.8,0,4.6,0.5,5.5,1.4c0.5,0.5,0.8,1.3,1,2.2c0.1,0.5,0.1,1.3,0.1,2.5v1.9
				c0,1.2-0.1,2.1-0.3,2.7c-0.3,0.9-0.9,1.5-1.8,1.9c-0.8,0.3-1.8,0.5-3,0.5h-1.5v8.9h-5.7v-22H180.1z M185.8,134.7v5.6
				c0.2,0,0.3,0,0.4,0c0.6,0,1-0.2,1.2-0.6c0.1-0.3,0.2-0.7,0.2-1.4v-1.8c0-0.7-0.1-1.2-0.3-1.5C187,134.9,186.6,134.8,185.8,134.7z
				"/>
		</g>
		<g>
			<path class="st0" d="M206.9,131v22h-5l-3-10v10h-4.8v-22h4.8l3.2,9.9V131H206.9z"/>
		</g>
		<g>
			<path class="st0" d="M209.2,131h4.1c2.4,0,3.8,0,4.2,0.1c1.7,0.2,2.9,0.8,3.6,1.8c0.6,0.9,0.9,2.2,0.9,4.1c0,1.5-0.2,2.6-0.5,3.2
				c-0.4,0.8-1.3,1.2-2.7,1.4c1.7,0.4,2.7,1.2,3,2.4c0.1,0.4,0.1,1.5,0.1,3.3v5.8h-5.3v-7.3c0-1.2-0.1-1.9-0.3-2.2s-0.7-0.4-1.5-0.4
				v9.9h-5.7L209.2,131L209.2,131z M214.9,134.7v4.9c0.8,0,1.3-0.1,1.5-0.4c0.2-0.2,0.3-0.8,0.3-1.6v-1.2c0-0.7-0.1-1.1-0.4-1.4
				C216.1,134.9,215.6,134.7,214.9,134.7z"/>
		</g>
	</g>
	<g>
		<g>
			<path class="st1" d="M179.3,165.2c-0.1,0-0.2-0.1-0.4-0.1v5.6c0.3,0,0.5-0.1,0.6-0.3c0-0.1,0-0.2,0-0.9v-3.9
				C179.4,165.4,179.4,165.3,179.3,165.2z"/>
		</g>
		<g>
			<path class="st1" d="M205.1,165.2c-0.1,0-0.2-0.1-0.4-0.1v5.6c0.3,0,0.5-0.1,0.6-0.3c0-0.1,0-0.2,0-0.9v-3.9
				C205.2,165.4,205.2,165.3,205.1,165.2z"/>
		</g>
		<g>
			<path class="st1" d="M220.1,165.2c-0.1,0-0.2-0.1-0.4-0.1v5.6c0.3,0,0.5-0.1,0.6-0.3c0-0.1,0-0.2,0-0.9v-3.9
				C220.3,165.4,220.2,165.3,220.1,165.2z"/>
		</g>
		<g>
			<path class="st1" d="M210.7,165.2v1.8c0.3,0,0.4-0.1,0.5-0.1c0-0.1,0.1-0.2,0.1-0.6v-0.5c0-0.2,0-0.4-0.1-0.5
				C211,165.2,210.9,165.2,210.7,165.2z"/>
		</g>
		<g>
			<path class="st1" d="M198.8,169.1h0.7c-0.1-0.8-0.2-1.9-0.3-3.2C199,167.3,198.9,168.4,198.8,169.1z"/>
		</g>
		<g>
			<path class="st1" d="M145.3,165.2c-0.1,0-0.2-0.1-0.4-0.1v5.6c0.3,0,0.5-0.1,0.6-0.3c0-0.1,0-0.2,0-0.9v-3.9
				C145.5,165.4,145.4,165.3,145.3,165.2z"/>
		</g>
		<g>
			<path class="st1" d="M133.3,169.1h0.7c-0.1-0.8-0.2-1.9-0.3-3.2C133.5,167.3,133.4,168.4,133.3,169.1z"/>
		</g>
		<g>
			<polygon class="st0" points="107,167 105.6,167 105.6,165.3 107.1,165.3 107.1,163.7 103.4,163.7 103.4,172.2 105.6,172.2 
				105.6,168.6 107,168.6 			"/>
		</g>
		<g>
			<polygon class="st0" points="109.9,168.6 111.3,168.6 111.3,167 109.9,167 109.9,165.3 111.4,165.3 111.4,163.7 107.7,163.7 
				107.7,172.2 111.5,172.2 111.5,170.6 109.9,170.6 			"/>
		</g>
		<g>
			<path class="st0" d="M114.9,166.8c-0.4-0.2-0.6-0.4-0.7-0.5c-0.1-0.2-0.1-0.4-0.1-0.7s0.1-0.5,0.2-0.6s0.2-0.1,0.3-0.1
				c0.2,0,0.3,0.1,0.4,0.3c0,0.1,0,0.2,0,0.5v0.6h2V166c0-0.7-0.1-1.2-0.2-1.4c-0.2-0.3-0.5-0.6-1-0.8c-0.4-0.1-0.8-0.2-1.3-0.2l0,0
				c-0.5,0-1,0.1-1.3,0.3c-0.4,0.2-0.7,0.5-0.9,0.9c-0.1,0.3-0.2,0.7-0.2,1.3c0,0.5,0.1,0.8,0.2,1.1s0.3,0.6,0.6,0.9
				c0.1,0.1,0.4,0.3,0.9,0.6c0.6,0.4,0.9,0.6,1,0.7c0.2,0.2,0.3,0.6,0.3,1.1c0,0.2,0,0.4-0.1,0.5s-0.2,0.2-0.4,0.2
				c-0.2,0-0.3-0.1-0.4-0.3c0-0.1,0-0.3,0-0.5v-1h-2v0.5c0,0.6,0.1,1.1,0.2,1.5s0.5,0.7,1,0.9c0.4,0.2,0.9,0.3,1.4,0.3
				s1-0.1,1.4-0.3s0.7-0.4,0.8-0.7c0.1-0.3,0.2-0.7,0.2-1.3c0-0.9-0.2-1.5-0.5-2C116.3,167.8,115.8,167.3,114.9,166.8z"/>
		</g>
		<g>
			<polygon class="st0" points="118.8,172.2 121,172.2 121,165.3 122.3,165.3 122.3,163.7 117.5,163.7 117.5,165.3 118.8,165.3 			
				"/>
		</g>
		<g>
			<rect x="122.9" y="163.7" class="st0" width="2.2" height="8.5"/>
		</g>
		<g>
			<path class="st0" d="M128.5,169.7L128.5,169.7c-0.2-1.7-0.4-3.7-0.7-6h-2.3l1.3,8.5h3.3l1.1-8.5H129l-0.2,1.6
				C128.7,166.7,128.6,168.1,128.5,169.7z"/>
		</g>
		<g>
			<path class="st0" d="M132.1,163.7l-1.1,8.5h2.2l0.1-1.5h0.9l0,0l0.1,1.5h2.2l-1.3-8.5H132.1z M133.3,169.2L133.3,169.2
				c0.1-0.9,0.2-2.1,0.4-3.7l0.1-0.4v0.4c0.1,1.5,0.2,2.7,0.3,3.6l0,0L133.3,169.2L133.3,169.2z"/>
		</g>
		<g>
			<polygon class="st0" points="139.1,163.7 137,163.7 137,172.2 140.5,172.2 140.5,170.6 139.1,170.6 			"/>
		</g>
		<g>
			<path class="st0" d="M147.3,164.3c-0.3-0.3-0.7-0.5-1.4-0.6c-0.3,0-0.8,0-1.6,0h-1.6v8.5h2.8c0.5,0,0.9,0,1.2-0.1
				c0.5-0.1,0.9-0.4,1-0.9c0.1-0.3,0.1-0.8,0.1-1.5v-3c0-0.9,0-1.2,0-1.3C147.7,164.9,147.5,164.6,147.3,164.3z M145.5,170.4
				c-0.1,0.3-0.3,0.4-0.7,0.4l0,0v-5.7l0,0c0.3,0,0.4,0,0.5,0.1s0.2,0.2,0.2,0.5v3.9C145.6,170,145.6,170.3,145.5,170.4z"/>
		</g>
		<g>
			<polygon class="st0" points="150.8,168.6 152.2,168.6 152.2,167 150.8,167 150.8,165.3 152.3,165.3 152.3,163.7 148.6,163.7 
				148.6,172.2 152.4,172.2 152.4,170.6 150.8,170.6 			"/>
		</g>
		<g>
			<path class="st0" d="M159,163.8c-0.4-0.2-0.9-0.3-1.4-0.3l0,0c-1,0-1.7,0.3-2.1,0.9c-0.2,0.3-0.3,0.6-0.4,1.1c0,0.2,0,0.6,0,1.2
				v2.5c0,0.7,0,1.3,0.1,1.6c0.1,0.6,0.4,1,0.9,1.2c0.4,0.2,1,0.4,1.6,0.4l0,0c0.6,0,1.1-0.1,1.6-0.4c0.5-0.3,0.8-0.7,0.9-1.2
				c0.1-0.3,0.1-0.8,0.1-1.6v-0.3h-2.2v1c0,0.4,0,0.6,0,0.7c0,0.3-0.2,0.5-0.4,0.5s-0.4-0.1-0.4-0.4c0-0.1,0-0.3,0-0.6v-4
				c0-0.4,0-0.6,0-0.7c0.1-0.3,0.2-0.4,0.4-0.4l0,0c0.2,0,0.3,0.1,0.4,0.2c0.1,0.1,0.1,0.4,0.1,0.8v1.5h2.2v-0.8
				c0-0.8-0.1-1.4-0.2-1.8C159.9,164.4,159.5,164,159,163.8z"/>
		</g>
		<g>
			<rect x="161.1" y="163.7" class="st0" width="2.2" height="8.5"/>
		</g>
		<g>
			<polygon class="st0" points="164.3,163.7 164.3,172.2 166,172.2 166,168.1 167.3,172.2 169.2,172.2 169.2,163.7 167.4,163.7 
				167.4,167.8 166.1,163.7 			"/>
		</g>
		<g>
			<polygon class="st0" points="172.3,168.6 173.7,168.6 173.7,167 172.3,167 172.3,165.3 173.8,165.3 173.8,163.7 170.2,163.7 
				170.2,172.2 174,172.2 174,170.6 172.3,170.6 			"/>
		</g>
		<g>
			<path class="st0" d="M181.3,164.3c-0.3-0.3-0.7-0.5-1.4-0.6c-0.3,0-0.8,0-1.6,0h-1.6v8.5h2.8c0.5,0,0.9,0,1.2-0.1
				c0.5-0.1,0.9-0.4,1-0.9c0.1-0.3,0.1-0.8,0.1-1.5v-3c0-0.9,0-1.2,0-1.3C181.6,164.9,181.5,164.6,181.3,164.3z M179.5,170.4
				c-0.1,0.3-0.3,0.4-0.7,0.4l0,0v-5.7l0,0c0.3,0,0.4,0,0.5,0.1s0.2,0.2,0.2,0.5v3.9C179.5,170,179.5,170.3,179.5,170.4z"/>
		</g>
		<g>
			<polygon class="st0" points="184.8,168.6 186.2,168.6 186.2,167 184.8,167 184.8,165.3 186.3,165.3 186.3,163.7 182.6,163.7 
				182.6,172.2 186.4,172.2 186.4,170.6 184.8,170.6 			"/>
		</g>
		<g>
			<path class="st0" d="M191.9,163.7h-2.8v8.5h1.9v-5.6h0.1l0.8,5.6h1.3l0.8-5.8h0.1v5.8h1.9v-8.5h-3l-0.5,4.3l-0.4-2.5
				C192,164.7,191.9,164.1,191.9,163.7z"/>
		</g>
		<g>
			<path class="st0" d="M197.5,163.7l-1.1,8.5h2.2l0.1-1.5h0.9l0,0l0.1,1.5h2.2l-1.3-8.5H197.5z M198.7,169.2L198.7,169.2
				c0.1-0.9,0.2-2.1,0.4-3.7l0.1-0.4v0.4c0.1,1.5,0.2,2.7,0.3,3.6l0,0L198.7,169.2L198.7,169.2z"/>
		</g>
		<g>
			<path class="st0" d="M207.1,164.3c-0.3-0.3-0.7-0.5-1.4-0.6c-0.3,0-0.8,0-1.6,0h-1.6v8.5h2.8c0.5,0,0.9,0,1.2-0.1
				c0.5-0.1,0.9-0.4,1-0.9c0.1-0.3,0.1-0.8,0.1-1.5v-3c0-0.9,0-1.2,0-1.3C207.4,164.9,207.3,164.6,207.1,164.3z M205.3,170.4
				c-0.1,0.3-0.3,0.4-0.7,0.4l0,0v-5.7l0,0c0.3,0,0.4,0,0.5,0.1s0.2,0.2,0.2,0.5v3.9C205.3,170,205.3,170.3,205.3,170.4z"/>
		</g>
		<g>
			<path class="st0" d="M213,164.4c-0.3-0.4-0.7-0.6-1.4-0.7c-0.2,0-0.7,0-1.6,0h-1.5v8.5h2.2v-3.9l0,0c0.3,0,0.5,0.1,0.6,0.2
				c0.1,0.1,0.1,0.4,0.1,0.9v2.8h2V170c0-0.7,0-1.1-0.1-1.3c-0.1-0.5-0.5-0.8-1.1-0.9l-0.2-0.1h0.2c0.5-0.1,0.9-0.2,1-0.5
				c0.1-0.2,0.2-0.6,0.2-1.2C213.3,165.3,213.2,164.7,213,164.4z M211.3,166.3c0,0.3,0,0.5-0.1,0.6s-0.3,0.2-0.6,0.2l0,0v-2l0,0
				c0.3,0,0.5,0,0.6,0.1s0.2,0.3,0.2,0.6L211.3,166.3L211.3,166.3z"/>
		</g>
		<g>
			<rect x="214.3" y="163.7" class="st0" width="2.2" height="8.5"/>
		</g>
		<g>
			<path class="st0" d="M222.1,164.3c-0.3-0.3-0.7-0.5-1.4-0.6c-0.3,0-0.8,0-1.6,0h-1.6v8.5h2.8c0.5,0,0.9,0,1.2-0.1
				c0.5-0.1,0.9-0.4,1-0.9c0.1-0.3,0.1-0.8,0.1-1.5v-3c0-0.9,0-1.2,0-1.3C222.5,164.9,222.3,164.6,222.1,164.3z M220.3,170.4
				c-0.1,0.3-0.3,0.4-0.7,0.4l0,0v-5.7l0,0c0.3,0,0.4,0,0.5,0.1s0.2,0.2,0.2,0.5v3.9C220.4,170,220.4,170.3,220.3,170.4z"/>
		</g>
	</g>
	<g class="st2">
		<g>
			<path class="st0" d="M113.1,129.5h5.2c0,0,1.2,7.8,1.2,13.7s-0.4,12.5-0.4,12.5h-6c0,0-0.5-7.7-0.5-14.1
				C112.6,135.1,113.1,129.5,113.1,129.5z"/>
		</g>
	</g>
	<g>
		<g>
			<g>
				<path class="st0" d="M99.5,129.1c-1.8,0-4,0-5.7,0c0,0-0.2,0.3-0.2,0.6c-0.4,3.9-0.9,7.8-0.9,11.8c-0.1,10,0.1,20,0.2,30
					c0,0.3,0,0.6,0.1,1c2.7-0.1,5.3-0.2,8.2-0.4C100.3,157.7,101.7,143.5,99.5,129.1z M94.4,150.6c0-0.3,0.3-0.6,0.6-0.6h3.7
					c0.3,0,0.6,0.3,0.6,0.6v2.4c0,0.3-0.3,0.6-0.6,0.6H95c-0.3,0-0.6-0.3-0.6-0.6V150.6z M94.3,155.8c0-0.3,0.3-0.6,0.6-0.6h3.7
					c0.3,0,0.6,0.3,0.6,0.6v2.4c0,0.3-0.3,0.6-0.6,0.6h-3.7c-0.3,0-0.6-0.3-0.6-0.6V155.8z M94.4,161.2c0-0.3,0.3-0.6,0.6-0.6
					l3.7,0.1c0.3,0,0.6,0.3,0.6,0.6v2.4c0,0.3-0.3,0.6-0.6,0.6l-3.7-0.1c-0.3,0-0.6-0.3-0.6-0.6V161.2z M98.8,169.7h-3.7
					c-0.3,0-0.6-0.3-0.6-0.6v-2.4c0-0.3,0.3-0.6,0.6-0.6h3.7c0.3,0,0.6,0.3,0.6,0.6v2.4C99.4,169.4,99.1,169.6,98.8,169.7z"/>
			</g>
		</g>
	</g>
	<g class="st2">
		<g>
			<g>
				<path class="st0" d="M109.5,129.5h-6.4c0,0-0.7,4.7-0.7,13.1c0,8.4,1.2,17.7,1.2,17.7h6.6c0,0,0-7.5,0-16.1
					S109.5,129.5,109.5,129.5z M104.7,144.3h3.7c0.3,0,0.6,0.3,0.6,0.6v2.4c0,0.3-0.3,0.6-0.6,0.6h-3.7c-0.3,0-0.6-0.3-0.6-0.6v-2.4
					C104.1,144.6,104.4,144.3,104.7,144.3z M108.5,158.1h-3.7c-0.3,0-0.6-0.3-0.6-0.6v-2.4c0-0.3,0.3-0.6,0.6-0.6h3.7
					c0.3,0,0.6,0.3,0.6,0.6v2.4C109.1,157.8,108.8,158.1,108.5,158.1z M109,152.5c0,0.3-0.3,0.6-0.6,0.6l-3.7-0.1
					c-0.3,0-0.6-0.3-0.6-0.6V150c0-0.3,0.3-0.6,0.6-0.6l3.7,0.1c0.3,0,0.6,0.3,0.6,0.6V152.5z"/>
			</g>
		</g>
	</g>
	<g>
		<g>
			<g>
				<g>
					<path class="st0" d="M6.2,175.2c-0.1,0.1-0.2,0.1-0.3,0.2c0.2,0.9,0.4,1.8,0.7,2.7c2.4,6.2,6.3,11.4,11.4,15.7
						c2.6,2.2,5.2,4.4,7.8,6.7c0.9,0.8,1.6,1.7,2.4,2.6c0.2,0.2,0.5,0.3,0.7,0.4c0.1-0.3,0.3-0.5,0.2-0.8c-0.1-0.8-0.3-1.6-0.5-2.4
						c-1-4.5-0.8-9-0.5-13.5c0.3-5.9-0.4-11.6-2.5-17.2c-0.1-0.2-0.4-0.4-0.5-0.7c-0.2,0.2-0.4,0.4-0.5,0.6
						c-2.1,4.6-2.7,9.5-2.2,14.5c0.1,1.7,0.4,3.5,0.5,5.2c0,0.1-0.1,0.3-0.1,0.6C17.7,184.3,12.9,178.7,6.2,175.2z"/>
				</g>
			</g>
		</g>
		<g>
			<g>
				<g>
					<path class="st0" d="M31.4,200.6c0.7,3.3,1.8,6.4,2.7,9.7c-6.6-4.3-12.9-9-21-10.4c0.2,1.3,1,2.1,1.6,2.9
						c4.3,5.7,10.1,9.2,16.4,12.2c4.3,2.1,8.5,4.4,12.7,6.6c0.4,0.2,0.8,0.1,1.3,0.2c-0.1-0.4-0.1-0.9-0.4-1.2
						c-2.5-2.6-3.8-5.8-4.7-9.2c-1.1-4.2-2-8.5-3.5-12.6c-1.1-3-3.2-5.6-4.8-8.3c0-0.1-0.2-0.1-0.5-0.2
						C31,193.9,30.7,197.3,31.4,200.6z"/>
				</g>
			</g>
		</g>
		<g>
			<g>
				<g>
					<path class="st0" d="M17.1,168.1c-0.1,0-0.2,0-0.3,0.1c-0.3-0.7-0.6-1.5-1-2.2c-2.4-5.2-5.5-9.8-10.4-13
						c-0.3-0.2-0.8-0.3-1.2-0.4c0,0.4,0,0.8,0,1.1c0.8,5.1,3.1,9.6,5.8,13.9c3,4.8,5.8,9.7,8.8,14.6c0.2,0.3,0.5,0.5,0.8,0.7
						c0.2-0.4,0.6-0.7,0.6-1.1c0.1-1.4,0.2-2.7,0.2-4.1c-0.1-3.8,1.3-7.3,2.5-10.8c1.5-4.3,2.7-8.6,2.6-13.1c0-1.3-0.2-2.7-0.3-4
						c-0.1,0-0.2,0-0.3,0C19.9,154.7,18.3,161.3,17.1,168.1z"/>
				</g>
			</g>
		</g>
		<g>
			<g>
				<g>
					<path class="st0" d="M27.7,131.2c-3.8,2.9-6.4,6.8-8.3,11.1c-0.5,1.2-1,2.4-1.7,3.7c-0.6-6.9-1.9-13.6-5.6-19.6
						c-0.1,0-0.2,0-0.4,0c-0.2,0.7-0.4,1.3-0.5,2c-0.6,4-0.6,8,0.2,12c1.1,5.4,2.3,10.8,3.5,16.2c0.2,1.1,0.4,2.3,0.6,3.4
						c0.1,0.3,0.4,0.5,0.6,0.8c0.3-0.2,0.7-0.4,0.8-0.6c1.2-4.6,3.8-8.5,6.2-12.5c2.3-3.9,3.9-8,5.1-12.3c0.4-1.4,0.5-2.9,0.8-4.7
						C28.4,130.9,28,131,27.7,131.2z"/>
				</g>
			</g>
		</g>
		<g>
			<g>
				<g>
					<path class="st0" d="M23.5,125.3c0-0.9,0-1.6,0-2.3c0.3-4.1,0.3-8.3-1.2-12.2c-0.5-1.3-1.1-2.6-1.8-3.8
						c-0.1-0.2-0.4-0.4-0.6-0.4s-0.4,0.3-0.5,0.5c-1.1,3-2,6.1-1.8,9.3c0.3,4.7,0.8,9.3,1.2,14c0.1,1.8-0.1,3.7-0.1,5.6
						c0,0.3,0.1,0.7,0.2,1c0.4-0.2,0.9-0.3,1.1-0.5c2-3.9,5.5-6.3,8.8-9c3.9-3.3,7.8-6.7,10.2-11.4c0.1-0.2,0.4-0.7,0.5-1.1
						s-0.3-0.8-0.7-0.7C32.4,115.8,27.7,120.4,23.5,125.3z"/>
				</g>
			</g>
		</g>
		<g>
			<g>
				<g>
					<path class="st0" d="M36.9,99.3c-4.6,3.2-7.4,7.5-8.9,12.9c-0.5,2-1.1,4-1.8,6.3c0.5-0.2,1-0.2,1.2-0.4
						c2.5-2.4,5.1-4.7,7.3-7.3c2.8-3.4,4.2-7.4,4.4-11.8c0-0.2-0.1-0.3-0.1-0.8C38.2,98.6,37.5,98.9,36.9,99.3z"/>
				</g>
			</g>
		</g>
	</g>
	<g>
		<path class="st0" d="M94.5,191.2h-0.6V180h2c1.3,0,2,0.8,2,2.4v1.8c0,0.7-0.2,1.3-0.5,1.7s-0.8,0.7-1.5,0.7h-1.4V191.2z
			 M94.5,180.5v5.5h1.4c0.4,0,0.8-0.1,1-0.4c0.2-0.3,0.4-0.8,0.4-1.4v-1.8c0-1.2-0.5-1.9-1.4-1.9L94.5,180.5L94.5,180.5z"/>
		<path class="st0" d="M99.6,191.2H99v-7.7h0.5l0.1,0.5c0.2-0.4,0.6-0.6,1.2-0.6s1.1,0.2,1.4,0.6c0.3,0.4,0.4,0.8,0.4,1.5v2.1H102
			v-2.1c0-1-0.4-1.5-1.2-1.5c-0.8,0-1.2,0.5-1.2,1.5C99.6,185.5,99.6,191.2,99.6,191.2z"/>
		<path class="st0" d="M103.9,185.5c0-0.6,0.1-1.1,0.4-1.5s0.8-0.6,1.3-0.6c0.6,0,1,0.2,1.4,0.6c0.3,0.4,0.4,0.8,0.4,1.5v2.1h-3v1.6
			c0,0.5,0.1,0.9,0.3,1.2c0.2,0.2,0.5,0.3,0.9,0.3s0.7-0.1,0.9-0.3c0.2-0.3,0.3-0.6,0.3-1.2v-0.6h0.6v0.6c0,0.6-0.1,1.1-0.4,1.5
			s-0.8,0.6-1.4,0.6s-1-0.2-1.3-0.6c-0.3-0.4-0.4-0.8-0.4-1.5C103.9,189.2,103.9,185.5,103.9,185.5z M104.5,187.1h2.4v-1.6
			c0-0.5-0.1-0.9-0.3-1.2c-0.2-0.2-0.5-0.3-0.9-0.3s-0.7,0.1-0.9,0.3c-0.2,0.3-0.3,0.6-0.3,1.2C104.5,185.5,104.5,187.1,104.5,187.1
			z"/>
		<path class="st0" d="M113.6,183.5c1.1,0,1.6,0.7,1.6,2.1v5.7h-0.6v-5.7c0-0.5-0.1-0.8-0.2-1c-0.2-0.3-0.4-0.5-0.9-0.5
			c-0.4,0-0.7,0.2-0.9,0.5c-0.1,0.2-0.2,0.6-0.2,1v5.7h-0.6v-5.7c0-0.5-0.1-0.8-0.2-1c-0.2-0.3-0.5-0.5-0.9-0.5s-0.7,0.2-0.9,0.5
			c-0.1,0.2-0.2,0.6-0.2,1v5.7H109v-7.7h0.5l0.1,0.3c0.2-0.3,0.6-0.4,1.1-0.4c0.7,0,1.2,0.3,1.4,0.8
			C112.5,183.8,112.9,183.5,113.6,183.5z"/>
		<path class="st0" d="M117.5,181.4h-0.6v-0.6h0.6V181.4z M117.5,191.2h-0.6v-7.7h0.6V191.2z"/>
		<path class="st0" d="M121,183.5c0.6,0,1,0.2,1.4,0.6c0.3,0.4,0.4,0.8,0.4,1.5v3.7c0,0.6-0.1,1.1-0.4,1.5s-0.8,0.6-1.4,0.6
			s-1-0.2-1.3-0.6c-0.3-0.4-0.4-0.8-0.4-1.5v-3.7c0-0.6,0.1-1.1,0.4-1.5C120,183.7,120.4,183.5,121,183.5z M120.2,184.4
			c-0.2,0.3-0.3,0.6-0.3,1.2v3.7c0,0.5,0.1,0.9,0.3,1.2c0.2,0.2,0.5,0.3,0.9,0.3s0.7-0.1,0.9-0.3c0.2-0.3,0.3-0.6,0.3-1.2v-3.7
			c0-0.5-0.1-0.9-0.3-1.2c-0.2-0.2-0.5-0.3-0.9-0.3C120.6,184,120.3,184.1,120.2,184.4z"/>
		<path class="st0" d="M131.4,184.1V180h0.6v11.2h-0.5l-0.1-0.5c-0.2,0.4-0.6,0.6-1.2,0.6c-0.6,0-1.1-0.2-1.4-0.6
			c-0.3-0.4-0.4-0.8-0.4-1.5v-3.7c0-0.6,0.1-1.1,0.4-1.5c0.3-0.4,0.8-0.6,1.4-0.6C130.7,183.5,131.1,183.7,131.4,184.1z M129,185.5
			v3.7c0,1,0.4,1.5,1.2,1.5s1.2-0.5,1.2-1.5v-3.7c0-1-0.4-1.5-1.2-1.5S129,184.5,129,185.5z"/>
		<path class="st0" d="M133.7,185.5c0-0.6,0.1-1.1,0.4-1.5c0.3-0.4,0.8-0.6,1.3-0.6c0.6,0,1,0.2,1.4,0.6c0.3,0.4,0.4,0.8,0.4,1.5
			v2.1h-3v1.6c0,0.5,0.1,0.9,0.3,1.2c0.2,0.2,0.5,0.3,0.9,0.3s0.7-0.1,0.9-0.3c0.2-0.3,0.3-0.6,0.3-1.2v-0.6h0.6v0.6
			c0,0.6-0.1,1.1-0.4,1.5c-0.3,0.4-0.8,0.6-1.4,0.6c-0.6,0-1-0.2-1.3-0.6c-0.3-0.4-0.4-0.8-0.4-1.5V185.5z M134.3,187.1h2.4v-1.6
			c0-0.5-0.1-0.9-0.3-1.2c-0.2-0.2-0.5-0.3-0.9-0.3s-0.7,0.1-0.9,0.3c-0.2,0.3-0.3,0.6-0.3,1.2V187.1z"/>
		<path class="st0" d="M139.6,191.2H139V180h0.6V191.2z"/>
		<path class="st0" d="M145.7,191.2h-0.6V180h2c1.3,0,2,0.8,2,2.4v1.8c0,0.7-0.2,1.3-0.5,1.7s-0.8,0.7-1.5,0.7h-1.4V191.2z
			 M145.7,180.5v5.5h1.4c0.4,0,0.8-0.1,1-0.4c0.2-0.3,0.4-0.8,0.4-1.4v-1.8c0-1.2-0.5-1.9-1.4-1.9L145.7,180.5L145.7,180.5z"/>
		<path class="st0" d="M153.1,183.6h0.6v7.7h-0.5l-0.1-0.5c-0.2,0.4-0.6,0.5-1.2,0.5c-0.6,0-1.1-0.2-1.4-0.6
			c-0.3-0.4-0.4-0.8-0.4-1.5v-5.7h0.6v5.7c0,1,0.4,1.5,1.2,1.5s1.2-0.5,1.2-1.5L153.1,183.6L153.1,183.6z M151.9,182.7h-0.7l1.3-1.6
			h0.8L151.9,182.7z"/>
		<path class="st0" d="M157.2,183.5c0.6,0,1.1,0.2,1.4,0.6c0.3,0.4,0.4,0.8,0.4,1.5v3.7c0,0.6-0.1,1.1-0.4,1.5
			c-0.3,0.4-0.8,0.6-1.4,0.6c-0.6,0-1-0.2-1.2-0.6l-0.1,0.5h-0.5V180h0.6v4.1C156.2,183.7,156.6,183.5,157.2,183.5z M157.2,184
			c-0.8,0-1.2,0.5-1.2,1.5v3.7c0,1,0.4,1.5,1.2,1.5s1.2-0.5,1.2-1.5v-3.7C158.4,184.5,158,184,157.2,184z"/>
		<path class="st0" d="M161.3,191.2h-0.6V180h0.6V191.2z"/>
		<path class="st0" d="M163.7,181.4H163v-0.6h0.6L163.7,181.4L163.7,181.4z M163.6,191.2H163v-7.7h0.6V191.2z"/>
		<path class="st0" d="M168.3,188.3h0.6v1c0,0.6-0.1,1.1-0.4,1.5c-0.3,0.4-0.8,0.6-1.4,0.6c-0.6,0-1-0.2-1.3-0.6
			c-0.3-0.4-0.4-0.8-0.4-1.5v-3.7c0-0.6,0.1-1.1,0.4-1.5c0.3-0.4,0.8-0.6,1.3-0.6c0.6,0,1,0.2,1.4,0.6c0.3,0.4,0.4,0.8,0.4,1.5v1
			h-0.6v-1c0-0.5-0.1-0.9-0.3-1.2c-0.2-0.2-0.5-0.3-0.9-0.3s-0.7,0.1-0.9,0.3c-0.2,0.3-0.3,0.6-0.3,1.2v3.7c0,0.5,0.1,0.9,0.3,1.2
			c0.2,0.2,0.5,0.3,0.9,0.3s0.7-0.1,0.9-0.3c0.2-0.3,0.3-0.6,0.3-1.2V188.3z"/>
		<path class="st0" d="M172.4,183.5c0.6,0,1,0.2,1.4,0.6c0.3,0.4,0.4,0.8,0.4,1.5v3.7c0,0.6-0.1,1.1-0.4,1.5
			c-0.3,0.4-0.8,0.6-1.4,0.6c-0.6,0-1-0.2-1.3-0.6c-0.3-0.4-0.4-0.8-0.4-1.5v-3.7c0-0.6,0.1-1.1,0.4-1.5
			C171.4,183.7,171.9,183.5,172.4,183.5z M171.6,184.4c-0.2,0.3-0.3,0.6-0.3,1.2v3.7c0,0.5,0.1,0.9,0.3,1.2c0.2,0.2,0.5,0.3,0.9,0.3
			s0.7-0.1,0.9-0.3c0.2-0.3,0.3-0.6,0.3-1.2v-3.7c0-0.5-0.1-0.9-0.3-1.2c-0.2-0.2-0.5-0.3-0.9-0.3
			C172.1,184,171.8,184.1,171.6,184.4z"/>
		<path class="st0" d="M56.5,207.6c-0.2,0.1-0.4,0.1-0.8,0.1c-0.7,0-1.2-0.2-1.5-0.7c-0.2-0.3-0.3-0.8-0.3-1.4
			c0-0.6,0.2-1.1,0.5-1.4c0.2-0.2,0.6-0.4,1-0.6c0.5-0.1,0.9-0.3,1-0.4c0.3-0.2,0.5-0.6,0.5-1.1V202c0-0.5-0.1-0.9-0.3-1.2
			c-0.2-0.2-0.5-0.3-0.9-0.3c-0.5,0-0.8,0.1-0.9,0.4c-0.1,0.2-0.2,0.6-0.2,1.1v0.1H54V202c0-0.7,0.1-1.1,0.3-1.5
			c0.3-0.4,0.7-0.6,1.4-0.6c0.6,0,1,0.2,1.3,0.6c0.3,0.4,0.4,0.8,0.4,1.5v5.7H57l-0.1-0.5C56.8,207.4,56.6,207.5,56.5,207.6z
			 M56.9,203.6c-0.3,0.2-0.8,0.5-1.5,0.7c-0.3,0.1-0.5,0.3-0.6,0.4c-0.2,0.2-0.2,0.6-0.2,1c0,0.5,0.1,0.9,0.2,1.1
			c0.2,0.3,0.5,0.4,1,0.4s0.8-0.1,0.9-0.3c0.2-0.2,0.3-0.6,0.3-1.2v-2.1H56.9z"/>
		<path class="st0" d="M59.8,207.7h-0.6v-11.2h0.6V207.7z"/>
		<path class="st0" d="M71.1,207.7h-0.6v-8.9c0,0.3-0.1,0.7-0.2,1.1l-1.8,6.9H68l-1.8-6.7c-0.1-0.6-0.2-1-0.3-1.2v8.9h-0.6v-11.2
			h0.5c0.2,0.7,0.9,3.4,2.1,8l0.1,0.5l0.1,0.6l0.1-0.6l0.1-0.5l2.1-8h0.5v11.1H71.1z"/>
		<path class="st0" d="M72.8,202c0-0.6,0.1-1.1,0.4-1.5s0.8-0.6,1.3-0.6c0.6,0,1,0.2,1.4,0.6c0.3,0.4,0.4,0.8,0.4,1.5v2.1h-3v1.6
			c0,0.5,0.1,0.9,0.3,1.2c0.2,0.2,0.5,0.3,0.9,0.3s0.7-0.1,0.9-0.3c0.2-0.3,0.3-0.6,0.3-1.2v-0.6h0.6v0.6c0,0.6-0.1,1.1-0.4,1.5
			s-0.8,0.6-1.4,0.6s-1-0.2-1.3-0.6c-0.3-0.4-0.4-0.8-0.4-1.5C72.8,205.7,72.8,202,72.8,202z M73.4,203.6h2.4V202
			c0-0.5-0.1-0.9-0.3-1.2c-0.2-0.2-0.5-0.3-0.9-0.3s-0.7,0.1-0.9,0.3c-0.2,0.3-0.3,0.6-0.3,1.2C73.4,202,73.4,203.6,73.4,203.6z"/>
		<path class="st0" d="M77,210.7c0.1,0.1,0.3,0.1,0.5,0.1c0.8,0,1.2-0.5,1.2-1.5V200h0.6v9.2c0,0.6-0.1,1.1-0.4,1.5
			s-0.8,0.6-1.4,0.6c-0.2,0-0.4,0-0.6-0.1L77,210.7z M79.3,197.9h-0.6v-0.6h0.6V197.9z"/>
		<path class="st0" d="M82.8,200c0.6,0,1,0.2,1.4,0.6c0.3,0.4,0.4,0.8,0.4,1.5v3.7c0,0.6-0.1,1.1-0.4,1.5s-0.8,0.6-1.4,0.6
			s-1-0.2-1.3-0.6c-0.3-0.4-0.4-0.8-0.4-1.5V202c0-0.6,0.1-1.1,0.4-1.5C81.7,200.1,82.2,200,82.8,200z M81.9,200.8
			c-0.2,0.3-0.3,0.6-0.3,1.2v3.7c0,0.5,0.1,0.9,0.3,1.2c0.2,0.2,0.5,0.3,0.9,0.3s0.7-0.1,0.9-0.3c0.2-0.3,0.3-0.6,0.3-1.2V202
			c0-0.5-0.1-0.9-0.3-1.2c-0.2-0.2-0.5-0.3-0.9-0.3S82.1,200.6,81.9,200.8z"/>
		<path class="st0" d="M86.9,207.7h-0.6V200h0.5l0.1,0.5c0.2-0.4,0.6-0.6,1.2-0.6s1.1,0.2,1.4,0.6c0.3,0.4,0.4,0.8,0.4,1.5v2.1h-0.6
			V202c0-1-0.4-1.5-1.2-1.5c-0.8,0-1.2,0.5-1.2,1.5C86.9,202,86.9,207.7,86.9,207.7z"/>
		<path class="st0" d="M99.1,207.1v0.5h-4v-11.2h0.6v10.7H99.1z"/>
		<path class="st0" d="M102.4,207.6c-0.2,0.1-0.4,0.1-0.8,0.1c-0.7,0-1.2-0.2-1.5-0.7c-0.2-0.3-0.3-0.8-0.3-1.4
			c0-0.6,0.2-1.1,0.5-1.4c0.2-0.2,0.6-0.4,1-0.6c0.5-0.1,0.9-0.3,1-0.4c0.3-0.2,0.5-0.6,0.5-1.1V202c0-0.5-0.1-0.9-0.3-1.2
			c-0.2-0.2-0.5-0.3-0.9-0.3c-0.5,0-0.8,0.1-0.9,0.4c-0.1,0.2-0.2,0.6-0.2,1.1v0.1h-0.6V202c0-0.7,0.1-1.1,0.3-1.5
			c0.3-0.4,0.7-0.6,1.4-0.6c0.6,0,1,0.2,1.3,0.6c0.3,0.4,0.4,0.8,0.4,1.5v5.7H103l-0.1-0.5C102.7,207.4,102.6,207.5,102.4,207.6z
			 M102.8,203.6c-0.3,0.2-0.8,0.5-1.5,0.7c-0.3,0.1-0.5,0.3-0.6,0.4c-0.2,0.2-0.2,0.6-0.2,1c0,0.5,0.1,0.9,0.2,1.1
			c0.2,0.3,0.5,0.4,1,0.4s0.8-0.1,0.9-0.3c0.2-0.2,0.3-0.6,0.3-1.2v-2.1H102.8z"/>
		<path class="st0" d="M105.8,207.7h-0.6V200h0.5l0.1,0.5c0.2-0.4,0.6-0.6,1.2-0.6s1.1,0.2,1.4,0.6c0.3,0.4,0.4,0.8,0.4,1.5v2.1
			h-0.6V202c0-1-0.4-1.5-1.2-1.5c-0.8,0-1.2,0.5-1.2,1.5C105.8,202,105.8,207.7,105.8,207.7z"/>
		<path class="st0" d="M113.1,200.5l0.2-0.5h0.4v9.2c0,1-0.3,1.6-1,1.9c-0.6,0.2-1.4,0.2-2.3-0.1l0.1-0.5c0.7,0.3,1.3,0.3,1.8,0.1
			s0.8-0.7,0.8-1.4v-2c-0.2,0.4-0.6,0.5-1.2,0.5s-1.1-0.2-1.4-0.6c-0.3-0.4-0.4-0.8-0.4-1.5V202c0-0.6,0.1-1.1,0.4-1.5
			s0.8-0.6,1.4-0.6C112.5,200,112.9,200.1,113.1,200.5z M110.7,202v3.6c0,1,0.4,1.5,1.2,1.5c0.8,0,1.2-0.5,1.2-1.5V202
			c0-1-0.4-1.5-1.2-1.5S110.7,201,110.7,202z"/>
		<path class="st0" d="M117.2,200c0.6,0,1,0.2,1.4,0.6c0.3,0.4,0.4,0.8,0.4,1.5v3.7c0,0.6-0.1,1.1-0.4,1.5s-0.8,0.6-1.4,0.6
			s-1-0.2-1.3-0.6c-0.3-0.4-0.4-0.8-0.4-1.5V202c0-0.6,0.1-1.1,0.4-1.5S116.6,200,117.2,200z M116.4,200.8c-0.2,0.3-0.3,0.6-0.3,1.2
			v3.7c0,0.5,0.1,0.9,0.3,1.2c0.2,0.2,0.5,0.3,0.9,0.3s0.7-0.1,0.9-0.3c0.2-0.3,0.3-0.6,0.3-1.2V202c0-0.5-0.1-0.9-0.3-1.2
			c-0.2-0.2-0.5-0.3-0.9-0.3S116.5,200.6,116.4,200.8z"/>
		<path class="st0" d="M125.1,200c1.1,0,1.6,0.7,1.6,2.1v5.7h-0.6V202c0-0.5-0.1-0.8-0.2-1c-0.2-0.3-0.4-0.5-0.9-0.5
			c-0.4,0-0.7,0.2-0.9,0.5c-0.1,0.2-0.2,0.6-0.2,1v5.7h-0.6V202c0-0.5-0.1-0.8-0.2-1c-0.2-0.3-0.5-0.5-0.9-0.5s-0.7,0.2-0.9,0.5
			c-0.1,0.2-0.2,0.6-0.2,1v5.7h-0.6V200h0.5l0.1,0.3c0.2-0.3,0.6-0.4,1.1-0.4c0.7,0,1.2,0.3,1.4,0.8C124,200.2,124.4,200,125.1,200z
			"/>
		<path class="st0" d="M128.4,202c0-0.6,0.1-1.1,0.4-1.5c0.3-0.4,0.8-0.6,1.3-0.6c0.6,0,1,0.2,1.4,0.6c0.3,0.4,0.4,0.8,0.4,1.5v2.1
			h-3v1.6c0,0.5,0.1,0.9,0.3,1.2c0.2,0.2,0.5,0.3,0.9,0.3s0.7-0.1,0.9-0.3c0.2-0.3,0.3-0.6,0.3-1.2v-0.6h0.6v0.6
			c0,0.6-0.1,1.1-0.4,1.5c-0.3,0.4-0.8,0.6-1.4,0.6c-0.6,0-1-0.2-1.3-0.6c-0.3-0.4-0.4-0.8-0.4-1.5V202z M129,203.6h2.4V202
			c0-0.5-0.1-0.9-0.3-1.2c-0.2-0.2-0.5-0.3-0.9-0.3s-0.7,0.1-0.9,0.3c-0.2,0.3-0.3,0.6-0.3,1.2V203.6z"/>
		<path class="st0" d="M132.9,200.6V200h1.1v-3.6h0.6v3.6h1.1v0.5h-1.1v7.1H134v-7.1h-1.1V200.6z"/>
		<path class="st0" d="M137.2,207.7h-0.6V200h0.5l0.1,0.5c0.2-0.4,0.6-0.6,1.2-0.6c0.6,0,1.1,0.2,1.4,0.6c0.3,0.4,0.4,0.8,0.4,1.5
			v2.1h-0.6V202c0-1-0.4-1.5-1.2-1.5s-1.2,0.5-1.2,1.5L137.2,207.7L137.2,207.7z"/>
		<path class="st0" d="M144,207.6c-0.2,0.1-0.4,0.1-0.8,0.1c-0.7,0-1.2-0.2-1.5-0.7c-0.2-0.3-0.3-0.8-0.3-1.4c0-0.6,0.2-1.1,0.5-1.4
			c0.2-0.2,0.6-0.4,1-0.6c0.5-0.1,0.9-0.3,1-0.4c0.3-0.2,0.5-0.6,0.5-1.1V202c0-0.5-0.1-0.9-0.3-1.2c-0.2-0.2-0.5-0.3-0.9-0.3
			c-0.5,0-0.8,0.1-0.9,0.4c-0.1,0.2-0.2,0.6-0.2,1.1v0.1h-0.6V202c0-0.7,0.1-1.1,0.3-1.5c0.3-0.4,0.7-0.6,1.4-0.6
			c0.6,0,1,0.2,1.3,0.6c0.3,0.4,0.4,0.8,0.4,1.5v5.7h-0.5l-0.1-0.5C144.3,207.4,144.2,207.5,144,207.6z M144.5,203.6
			c-0.3,0.2-0.8,0.5-1.5,0.7c-0.3,0.1-0.5,0.3-0.6,0.4c-0.2,0.2-0.2,0.6-0.2,1c0,0.5,0.1,0.9,0.2,1.1c0.2,0.3,0.5,0.4,1,0.4
			s0.8-0.1,0.9-0.3c0.2-0.2,0.3-0.6,0.3-1.2L144.5,203.6L144.5,203.6z"/>
		<path class="st0" d="M145.6,210.7c0.1,0.1,0.3,0.1,0.5,0.1c0.8,0,1.2-0.5,1.2-1.5V200h0.6v9.2c0,0.6-0.1,1.1-0.4,1.5
			c-0.3,0.4-0.8,0.6-1.4,0.6c-0.2,0-0.4,0-0.6-0.1L145.6,210.7z M147.9,197.9h-0.6v-0.6h0.6V197.9z"/>
		<path class="st0" d="M149.6,202c0-0.6,0.1-1.1,0.4-1.5c0.3-0.4,0.8-0.6,1.3-0.6c0.6,0,1,0.2,1.4,0.6c0.3,0.4,0.4,0.8,0.4,1.5v2.1
			h-3v1.6c0,0.5,0.1,0.9,0.3,1.2c0.2,0.2,0.5,0.3,0.9,0.3s0.7-0.1,0.9-0.3c0.2-0.3,0.3-0.6,0.3-1.2v-0.6h0.6v0.6
			c0,0.6-0.1,1.1-0.4,1.5c-0.3,0.4-0.8,0.6-1.4,0.6c-0.6,0-1-0.2-1.3-0.6c-0.3-0.4-0.4-0.8-0.4-1.5V202z M150.2,203.6h2.4V202
			c0-0.5-0.1-0.9-0.3-1.2c-0.2-0.2-0.5-0.3-0.9-0.3s-0.7,0.1-0.9,0.3c-0.2,0.3-0.3,0.6-0.3,1.2V203.6z"/>
		<path class="st0" d="M159.4,207.7h-0.6v-11.2h0.6V207.7z"/>
		<path class="st0" d="M161.8,207.7h-0.6V200h0.5l0.1,0.3c0.3-0.3,0.7-0.4,1.2-0.4c0.6,0,1,0.2,1.4,0.6c0.3,0.4,0.4,0.8,0.4,1.5v5.7
			h-0.6V202c0-0.5-0.1-0.9-0.3-1.2c-0.2-0.2-0.5-0.3-0.9-0.3s-0.7,0.1-0.9,0.3s-0.3,0.6-0.3,1.1L161.8,207.7L161.8,207.7z"/>
		<path class="st0" d="M165.7,200.6V200h1.1v-3.6h0.6v3.6h1.1v0.5h-1.1v7.1h-0.6v-7.1h-1.1V200.6z"/>
		<path class="st0" d="M169.4,202c0-0.6,0.1-1.1,0.4-1.5c0.3-0.4,0.8-0.6,1.3-0.6c0.6,0,1,0.2,1.4,0.6c0.3,0.4,0.4,0.8,0.4,1.5v2.1
			h-3v1.6c0,0.5,0.1,0.9,0.3,1.2c0.2,0.2,0.5,0.3,0.9,0.3s0.7-0.1,0.9-0.3c0.2-0.3,0.3-0.6,0.3-1.2v-0.6h0.6v0.6
			c0,0.6-0.1,1.1-0.4,1.5c-0.3,0.4-0.8,0.6-1.4,0.6c-0.6,0-1-0.2-1.3-0.6c-0.3-0.4-0.4-0.8-0.4-1.5V202z M170,203.6h2.4V202
			c0-0.5-0.1-0.9-0.3-1.2c-0.2-0.2-0.5-0.3-0.9-0.3s-0.7,0.1-0.9,0.3c-0.2,0.3-0.3,0.6-0.3,1.2V203.6z"/>
		<path class="st0" d="M175.3,207.7h-0.6V200h0.5l0.1,0.5c0.2-0.4,0.6-0.6,1.2-0.6c0.6,0,1.1,0.2,1.4,0.6c0.3,0.4,0.4,0.8,0.4,1.5
			v2.1h-0.6V202c0-1-0.4-1.5-1.2-1.5s-1.2,0.5-1.2,1.5L175.3,207.7L175.3,207.7z"/>
		<path class="st0" d="M180.3,207.7h-0.6V200h0.5l0.1,0.3c0.3-0.3,0.7-0.4,1.2-0.4c0.6,0,1,0.2,1.4,0.6c0.3,0.4,0.4,0.8,0.4,1.5v5.7
			h-0.6V202c0-0.5-0.1-0.9-0.3-1.2c-0.2-0.2-0.5-0.3-0.9-0.3s-0.7,0.1-0.9,0.3s-0.3,0.6-0.3,1.1L180.3,207.7L180.3,207.7z"/>
		<path class="st0" d="M187.4,207.6c-0.2,0.1-0.4,0.1-0.8,0.1c-0.7,0-1.2-0.2-1.5-0.7c-0.2-0.3-0.3-0.8-0.3-1.4
			c0-0.6,0.2-1.1,0.5-1.4c0.2-0.2,0.6-0.4,1-0.6c0.5-0.1,0.9-0.3,1-0.4c0.3-0.2,0.5-0.6,0.5-1.1V202c0-0.5-0.1-0.9-0.3-1.2
			c-0.2-0.2-0.5-0.3-0.9-0.3c-0.5,0-0.8,0.1-0.9,0.4c-0.1,0.2-0.2,0.6-0.2,1.1v0.1h-0.6V202c0-0.7,0.1-1.1,0.3-1.5
			c0.3-0.4,0.7-0.6,1.4-0.6c0.6,0,1,0.2,1.3,0.6c0.3,0.4,0.4,0.8,0.4,1.5v5.7H188l-0.1-0.5C187.7,207.4,187.6,207.5,187.4,207.6z
			 M187.8,203.6c-0.3,0.2-0.8,0.5-1.5,0.7c-0.3,0.1-0.5,0.3-0.6,0.4c-0.2,0.2-0.2,0.6-0.2,1c0,0.5,0.1,0.9,0.2,1.1
			c0.2,0.3,0.5,0.4,1,0.4s0.8-0.1,0.9-0.3c0.2-0.2,0.3-0.6,0.3-1.2L187.8,203.6L187.8,203.6z"/>
		<path class="st0" d="M193.1,204.7h0.6v1c0,0.6-0.1,1.1-0.4,1.5c-0.3,0.4-0.8,0.6-1.4,0.6c-0.6,0-1-0.2-1.3-0.6
			c-0.3-0.4-0.4-0.8-0.4-1.5V202c0-0.6,0.1-1.1,0.4-1.5c0.3-0.4,0.8-0.6,1.3-0.6c0.6,0,1,0.2,1.4,0.6c0.3,0.4,0.4,0.8,0.4,1.5v1
			h-0.6v-1c0-0.5-0.1-0.9-0.3-1.2c-0.2-0.2-0.5-0.3-0.9-0.3s-0.7,0.1-0.9,0.3c-0.2,0.3-0.3,0.6-0.3,1.2v3.7c0,0.5,0.1,0.9,0.3,1.2
			c0.2,0.2,0.5,0.3,0.9,0.3s0.7-0.1,0.9-0.3c0.2-0.3,0.3-0.6,0.3-1.2V204.7z"/>
		<path class="st0" d="M196.1,197.9h-0.6v-0.6h0.6V197.9z M196.1,207.7h-0.6V200h0.6V207.7z"/>
		<path class="st0" d="M199.6,200c0.6,0,1,0.2,1.4,0.6c0.3,0.4,0.4,0.8,0.4,1.5v3.7c0,0.6-0.1,1.1-0.4,1.5c-0.3,0.4-0.8,0.6-1.4,0.6
			c-0.6,0-1-0.2-1.3-0.6c-0.3-0.4-0.4-0.8-0.4-1.5V202c0-0.6,0.1-1.1,0.4-1.5C198.5,200.1,199,200,199.6,200z M198.7,200.8
			c-0.2,0.3-0.3,0.6-0.3,1.2v3.7c0,0.5,0.1,0.9,0.3,1.2c0.2,0.2,0.5,0.3,0.9,0.3s0.7-0.1,0.9-0.3c0.2-0.3,0.3-0.6,0.3-1.2V202
			c0-0.5-0.1-0.9-0.3-1.2c-0.2-0.2-0.5-0.3-0.9-0.3S198.9,200.6,198.7,200.8z"/>
		<path class="st0" d="M203.7,207.7h-0.6V200h0.5l0.1,0.3c0.3-0.3,0.7-0.4,1.2-0.4c0.6,0,1,0.2,1.4,0.6c0.3,0.4,0.4,0.8,0.4,1.5v5.7
			H206V202c0-0.5-0.1-0.9-0.3-1.2c-0.2-0.2-0.5-0.3-0.9-0.3s-0.7,0.1-0.9,0.3s-0.3,0.6-0.3,1.1L203.7,207.7L203.7,207.7z"/>
		<path class="st0" d="M210.8,207.6c-0.2,0.1-0.4,0.1-0.8,0.1c-0.7,0-1.2-0.2-1.5-0.7c-0.2-0.3-0.3-0.8-0.3-1.4
			c0-0.6,0.2-1.1,0.5-1.4c0.2-0.2,0.6-0.4,1-0.6c0.5-0.1,0.9-0.3,1-0.4c0.3-0.2,0.5-0.6,0.5-1.1V202c0-0.5-0.1-0.9-0.3-1.2
			c-0.2-0.2-0.5-0.3-0.9-0.3c-0.5,0-0.8,0.1-0.9,0.4c-0.1,0.2-0.2,0.6-0.2,1.1v0.1h-0.6V202c0-0.7,0.1-1.1,0.3-1.5
			c0.3-0.4,0.7-0.6,1.4-0.6c0.6,0,1,0.2,1.3,0.6c0.3,0.4,0.4,0.8,0.4,1.5v5.7h-0.5l-0.1-0.5C211.1,207.4,210.9,207.5,210.8,207.6z
			 M211.2,203.6c-0.3,0.2-0.8,0.5-1.5,0.7c-0.3,0.1-0.5,0.3-0.6,0.4c-0.2,0.2-0.2,0.6-0.2,1c0,0.5,0.1,0.9,0.2,1.1
			c0.2,0.3,0.5,0.4,1,0.4s0.8-0.1,0.9-0.3c0.2-0.2,0.3-0.6,0.3-1.2L211.2,203.6L211.2,203.6z"/>
		<path class="st0" d="M214.1,207.7h-0.6v-11.2h0.6V207.7z"/>
	</g>
	<g>
		<g>
			<path class="st0" d="M66.7,164.7v7.2H43.4v-6.1c2.7-4.4,5.4-8.7,8.1-13.1c4.1-7.2,6.2-11.9,6.2-14.1c0-1.1-0.2-2-0.6-2.6
				c-0.4-0.6-1-0.9-1.8-0.9c-1.1,0-1.8,0.6-2.1,1.7c-0.2,0.6-0.3,1.6-0.3,3v4h-9.5v-1.5c0-2.3,0.1-4,0.3-5.1
				c0.3-1.7,0.9-3.3,1.9-4.6c1.9-2.7,5-4,9.3-4c3.7,0,6.7,0.9,9,2.7c2.5,2,3.8,4.8,3.8,8.4c0,2.4-0.6,5-1.8,7.7
				c-1.2,2.7-4.8,8.5-10.7,17.3L66.7,164.7L66.7,164.7z"/>
		</g>
		<g>
			<path class="st0" d="M89.6,129.5v9.3L82.8,172H72.2l7.5-34.9H69.3v-7.6H89.6z"/>
		</g>
	</g>
</g>
</svg>
