<?xml version="1.0" encoding="utf-8"?>
<!-- Generator: Adobe Illustrator 22.0.1, SVG Export Plug-In . SVG Version: 6.00 Build 0)  -->
<svg version="1.1" id="Layer_1" xmlns="http://www.w3.org/2000/svg" xmlns:xlink="http://www.w3.org/1999/xlink" x="0px" y="0px"
	 viewBox="0 0 267 273.5" style="enable-background:new 0 0 267 273.5;" xml:space="preserve">
<style type="text/css">
	.st0{fill:#FFFFFF;}
</style>
<g>
	<g>
		<path class="st0" d="M237.4,185.1c1.2-1.8,2.4-3.5,3.6-5.4c1.5-2.3,1.6-3.2-0.3-5.1c-3.4-3.4-3.6-7.3-2.5-11.6
			c0-0.2,0.2-0.7,0.2-0.7c0.7,1.3,1.9,2.1,3.1,2.8c2.3,1.4,4.1,3.1,4.4,6.1c0.9-2.1,1.8-4.2,2.6-6.3c0.2-0.4-0.1-1.1-0.4-1.5
			c-0.6-0.8-1.4-1.6-2.2-2.2c-2.4-1.7-3.6-4-3.6-6.9c0-1.1,0-2.6,0-3.5c0.7,1.2,2.9,1.8,4.3,2.4c2.2,0.9,3.7,2.4,4.1,5.1
			c0.2-0.4,0.3-0.6,0.4-0.8c0.6-2.1,1.1-4.3,1.7-6.4c0.2-0.7,0-1.2-0.5-1.7c-0.6-0.5-1.1-1.1-1.8-1.4c-3.3-1.4-4.9-4.1-5.4-7.5
			c-0.1-0.6-0.2-1.2-0.3-1.6c1.3,0.4,2.7,0.8,4,1.1c2.3,0.5,4.2,1.6,5.2,3.9c0.2-1.8,0.4-3.6,0.6-5.3c0.1-0.5,0-1.1,0.1-1.6
			c0.3-1.2-0.3-1.9-1.3-2.4c-0.6-0.2-1.2-0.5-1.8-0.7c-2.7-0.6-4.4-2.3-5.4-4.8c-0.4-0.9-0.8-2-1.1-2.8c1.3,0.8,2.7,0.6,4,0.6
			c2.3,0.1,4.3,0.7,5.7,2.9c-0.1-1.8-0.3-6.3-0.4-7.3c0-0.6-1.1-1.6-3.2-1.7c-4.3-0.3-6.1-2.9-7.5-6c1.4,0.5,2.9,0.1,4.3-0.1
			c2.2-0.2,4.1,0.4,5.6,2.3c-0.4-1.9-0.8-3.7-1.2-5.6c-0.5-2.1-0.8-2.5-3-2.3c-3.7,0.3-6.4-2-8.2-4.6c1.4,0.1,2.5-0.3,3.6-0.7
			c2.1-0.6,4-0.5,5.8,1c-0.8-2.2-1.7-4.5-2.5-6.7c-0.1-0.2-0.5-0.5-0.8-0.5c-0.6,0-1.3-0.1-1.9,0.1c-3.3,0.9-5.7-0.9-7.9-3
			c1,0.1,1.8-0.5,2.6-0.9c1.9-1,3.7-1.5,5.7-0.2c0.1-0.1,0.1-0.2,0.2-0.2c-1-1.8-1.9-3.6-2.9-5.3c-0.2-0.3-0.9-0.3-1.3-0.3
			c-0.3,0-0.7,0.1-1,0.2c-3.2,1.1-5.3,0-7.9-2.2c0.9,0.1,2-0.7,2.9-1.3c1.6-0.9,3.2-1.2,4.9-0.3c0.1-0.1,0.1-0.1,0.2-0.2
			c-1.2-1.7-2.3-3.3-3.5-5c-0.1-0.2-0.5-0.2-0.8-0.2c-0.4,0-0.8,0.1-1.2,0.3c-2.7,1.3-5.1,0.5-7.4-1.2c2.2-0.8,3.4-3.3,6.8-2.4
			c-1.6-1.7-3.4-4.2-4.1-4.2c-2.1-0.1-4.6-0.5-5.8-2.8c-0.7-1.3-1.2-3-1.8-4.3c1.3,0.7,2.7,0.6,4,0.7c2.7,0.1,4.4,1.7,5.1,4.1
			c0.8,2.4,2.9,4.1,4.3,6c-0.6-2.3-0.1-3.9,1.8-5.7c0.5-0.4,0.7-1.1,1.2-1.8c0.5,1.3,1.2,2.6,1.5,3.9c0.4,1.4,0.1,2.8-0.8,4
			c-0.2,0.3-0.4,0.6-0.6,0.9c-0.8,1.3-0.8,1.7,0.1,2.9c0.9,1.2,1.7,2.4,2.6,3.7c-0.2-2.3,1.2-3.8,2.8-5.1c0.5-0.4,1-1,1.2-1.8
			c2,3.1,2,6.5-0.1,8.8c-0.3,0.3-0.5,0.6-0.7,0.9c-0.7,0.8-0.8,1.6-0.2,2.6c0.9,1.5,1.7,3.1,2.6,4.9c0-0.6,0.1-0.9,0.1-1.3
			c0.1-1.6,0.9-2.8,2.2-3.8c0.9-0.7,2.2-1.5,2.4-2.7c1.6,3.5,1.6,7.4-0.8,9.5c-2,1.7-2.1,2.8-1.2,5c0.7,1.6,1.2,3.2,1.8,4.9
			c0.1-0.2,0.2-0.2,0.2-0.3c0.1-2.2,1.3-3.7,3.2-4.8c1-0.6,2.4-1.2,3-2.4c0.4,1.8,0.7,4.2,0.2,6.2c-0.3,1.4-1.1,2.5-2.3,3.3
			c-0.5,0.4-1.1,0.7-1.6,1.2c-1,0.9-1.4,1.9-1.1,3.2c0.5,1.9,0.9,3.9,1.3,5.9c0.1-0.2,0.2-0.4,0.2-0.5c0.6-2.2,2-3.7,4.2-4.4
			c1.2-0.4,3.1-1,3.5-2c0.1,2.2,0.2,5.2-1.2,7.3c-0.6,0.9-1.5,1.5-2.3,2.2c-0.5,0.4-1.1,0.6-1.7,0.8c-1.5,0.7-2.1,1.8-1.9,3.5
			c0.3,2.5,0.4,5.1,0.5,7.8c0.2-0.4,0.3-0.8,0.4-1.1c0.9-2.5,2.7-3.9,5.4-4.4c1.3-0.2,3-0.4,3.9-1.4c-0.1,4.6-1.9,8.3-6.3,9.6
			c-0.9,0.3-1.8,0.6-2.5,1.2c-0.6,0.5-1,1.3-1.1,2c-0.4,2.8-0.6,5.6-0.9,8.4c0,0.1,0,0.3,0,0.5c0.5-0.7,0.8-1.3,1.2-1.8
			c1.3-1.9,3.2-2.9,5.5-2.9c1.6,0,3.7,0.3,4.9-0.8c-1.3,3.6-2.7,8.7-8.9,8.7c-2.4,0-3.6,1.2-4.2,3.6c-0.6,2.3-1.3,4.6-1.9,6.8
			c-0.1,0.2-0.1,0.4-0.2,0.8c0.4-0.5,0.6-0.8,0.9-1.1c2.1-2.6,4.8-3.4,8.1-2.7c1.3,0.3,2.8,0.5,4.1,0c-2.3,4.6-4.9,7.8-9.8,7.5
			c-0.8-0.1-1.7-0.1-2.5,0c-1.4,0.1-2.5,0.8-3.1,2.2c-1,2.4-2.2,4.8-3.3,7.2c-0.2,0.4-0.3,0.7-0.6,1.3c0.8-0.7,1.4-1.2,2-1.7
			c2.5-1.9,5.1-2.4,8-1.1c0.7,0.3,1.5,0.6,2.2,0.9c0.8,0.2,1.7,0.5,2.6,0.1c-0.1,0.2-2.4,3.2-5.2,5c-1.3,0.9-3.7,1.5-5.8,1
			c-0.3-0.1-0.7-0.2-1-0.3c-3.8-1.1-4.7-0.7-6.9,2.5c-1.3,2-2.7,4-4.2,6.1c0.8-0.5,1.4-0.9,2.1-1.2c2.6-1.4,5.1-1.4,7.7,0
			c0.6,0.4,1.3,0.8,1.9,1c1.1,0.4,1.7,1,3.5,0.9c-2.4,2.1-5.1,4.7-8.7,5.3c-1.5,0.2-3-0.2-4.4-0.8c-1.1-0.4-2.3-0.9-3.5-1.1
			c-1.1-0.2-2.2,0.1-3,0.9c-2.1,2.1-4.2,4.3-6.4,6.6c0.6-0.2,1-0.4,1.4-0.6c3.5-1.5,6.9-1.2,9.9,1.3c0.4,0.3,0.8,0.7,1.2,1
			c1.1,0.6,2.2,1.6,3.7,1.6c-2.8,1.8-6,4-9.7,4.2c-1.7,0.1-3.3-0.5-4.7-1.4c-0.9-0.6-1.8-1.1-2.8-1.6c-1.8-0.9-3.5-0.6-5.2,0.6
			c-3,2.1-6,4.1-9,6.1c-0.3,0.2-0.6,0.4-0.9,0.4c-0.3,0-0.7-0.2-0.9-0.4c-0.1-0.2,0-0.7,0.1-0.9c0.1-0.2,0.5-0.4,0.8-0.5
			c3.7-2.2,6.6-4.4,9.9-6.8c0.9-0.6,1.2-1.5,1-2.5c-0.2-1.1-0.5-2.3-1-3.4c-1.8-3.4-1.7-6.7-0.1-10c0.5-1.1,1.3-2.5,1.8-3.5
			c0.3,1.4,1.2,2.5,1.9,3.5c0.4,0.6,0.9,1.1,1.4,1.6c2.1,2.4,2.7,5.1,1.5,8.2c0,0.1,0,0.3-0.1,0.7c0.9-0.9,1.7-1.6,2.4-2.3
			c1-1,1.9-2.1,2.9-3c0.7-0.7,0.9-1.6,0.6-2.5c-0.4-1-0.8-2.1-1.5-3c-2.1-2.8-2.5-5.9-1.5-9.2c0.3-1.1,0.9-2.5,1.2-3.4
			c0.8,1.8,2.5,3,3.9,4.3c1.9,1.8,2.9,3.9,2.4,6.5c0,0.2,0,0.4,0,0.6C237.3,185.1,237.3,185.1,237.4,185.1z"/>
		<path class="st0" d="M210.7,86.2c-1.6,2-3.2,3.9-4.6,5.6c-2-0.9-3.8-2-5.8-2.5c-6.4-1.6-11.6,3-11.1,9.7c0.2,3,1.1,5.8,3.6,7.7
			c2.8,2.2,6.9,1.7,9.6,0.6c0.2-0.1,0.4-0.5,0.4-0.7c0-1.5,0-2.9,0-4.6c-1.1,0-2.2,0-3.2,0c-1.1,0-2.2,0-3.3,0c0-2.1,0-4.1,0-6.2
			c4.9,0,9.8,0,14.8,0c0,0.3,0.1,0.6,0.1,0.9c0,4.7,0,9.5,0,14.2c0,0.4-0.2,0.9-0.4,1.2c-5.9,4.6-16.9,5.7-23.6,0.7
			c-5.5-4.1-7.7-9.7-7.1-16.4c0.8-9.5,8.9-15.3,17.9-15.1c4.2,0.1,8.1,1.2,11.5,3.8C209.8,85.5,210.2,85.8,210.7,86.2z"/>
		<path class="st0" d="M106.2,81.8c8.3,0,16.6,0,24.9,0c0,2.6,0,5.2,0,7.9c-5.1,0-10.3,0-15.6,0c0,2.1,0,4,0,6c4.9,0,9.8,0,14.7,0
			c0,2.5,0,4.9,0,7.3c-4.9,0-9.8,0-14.8,0c0,4.1,0,8.2,0,12.3c-3.1,0-6.2,0-9.3,0C106.2,104.2,106.2,93,106.2,81.8z"/>
		<path class="st0" d="M175.3,105.5c1.1,2.2,2.2,4.4,3.3,6.7c-2.4,1.9-5.1,3.2-8.1,3.6c-6.5,1-12.4-0.6-16.7-5.7
			c-4.4-5.3-5.4-11.4-3-17.8c2.4-6.3,7.3-9.6,13.9-10.6c4.7-0.7,9.1,0.2,13.1,2.7c0.2,0.1,0.4,0.3,0.6,0.4c0.1,0.1,0.2,0.1,0.2,0.2
			c-1.1,2.3-2.3,4.6-3.4,6.9c-0.4-0.3-0.8-0.6-1.3-0.9c-2.5-1.6-5.1-2.4-8-1.9c-3.1,0.5-5.3,2.3-6.3,5.3c-1.1,3.3-0.9,6.5,0.6,9.6
			c1.4,2.9,4.5,4.6,7.7,4.3C171,108,172.5,107.4,175.3,105.5z"/>
		<path class="st0" d="M145,81.8c0,11.2,0,22.3,0,33.5c-3.1,0-6.1,0-9.2,0c0-11.1,0-22.3,0-33.5C138.8,81.8,141.8,81.8,145,81.8z"/>
		<path class="st0" d="M212.6,133c-0.9,0.2-1.9,0.4-2.8,0.4c-16.3,0-32.6,0-48.9,0c-31.9,0-63.8,0-95.7,0c-0.9,0-1.9-0.3-2.8-0.4
			c0-0.1,0-0.3,0-0.4c0.9-0.2,1.8-0.4,2.7-0.4c48.2,0,96.4,0,144.6,0c1,0,1.9,0.3,2.9,0.4C212.6,132.7,212.6,132.8,212.6,133z"/>
		<path class="st0" d="M163.5,186.2c0.7,0.4,1.3,0.7,1.8,1.1c2.6,2,2.5,5.6-0.2,7.4c-1.8,1.2-3.8,1.5-5.8,1.4
			c-1.3-0.1-2.7-0.3-4-0.7c-2-0.6-3.3-2-3.4-4.2c-0.1-2.1,1.1-3.5,2.8-4.5c0.3-0.1,0.5-0.3,0.9-0.4c-0.4-0.2-0.7-0.4-1-0.6
			c-2.5-1.8-2.6-5.1-0.2-7c2.6-2,7.8-2,10.3,0.1c2.3,1.8,2.2,5.1-0.1,6.8C164.2,185.8,163.9,186,163.5,186.2z M162.1,192.6
			c1.4-0.7,1.5-2.3,0.5-3.5c-1.8-1.9-4.5-1.7-6.1,0c-1.1,1.1-0.9,2.7,0.4,3.5C158.2,193.4,160.1,193.5,162.1,192.6z M159.5,180.1
			c-1.6,0-2.8,0.7-2.9,1.9c-0.2,1.3,0.7,2.3,2.2,2.7c1.2,0.3,2.3-0.1,3.1-0.9c0.6-0.7,0.8-1.5,0.4-2.3
			C161.7,180.3,160.7,180.1,159.5,180.1z"/>
		<path class="st0" d="M138.3,190.4c-1.4,3.9-4.9,6.1-9,5.6c-4.3-0.5-7.2-3.5-7.6-7.9c-0.2-2-0.1-4,0.7-6c1.5-3.6,4.8-5.4,8.9-5
			c3.6,0.3,6.3,3,7.3,6.6C139.2,186,138.9,188.7,138.3,190.4z M134.2,183.2c-0.6-1.6-1.9-2.6-3.7-2.7c-1.8-0.1-3.2,0.7-4,2.3
			c-1.3,2.6-1.3,5.2,0,7.8c0.8,1.5,2.1,2.2,3.8,2.2c1.7,0,2.7-0.6,3.7-2.3C135.3,188.1,135.2,185.5,134.2,183.2z"/>
		<path class="st0" d="M105.7,195.7c-0.6-4,0.6-6.8,4-8.8c1-0.6,2-1,2.9-1.6c0.6-0.3,1.2-0.6,1.7-1c0.7-0.5,1.2-1.2,1-2.2
			c-0.3-1-1-1.5-2-1.6c-1.5-0.3-2.9,0.1-4.2,0.8c-0.5,0.3-1.1,0.7-1.7,1c-0.7-0.8-1.4-1.6-2.1-2.4c2.5-2.6,7.7-3.6,10.9-2.1
			c3.4,1.6,4.1,6,1.2,8.4c-1.3,1.1-2.9,1.7-4.4,2.6c-0.9,0.5-1.9,1.1-2.7,1.8c-0.5,0.4-0.8,1-0.9,2c3.3,0,6.1,0,9.2,0
			c0,1.1,0,2.1,0,3.1C114.4,195.7,110,195.7,105.7,195.7z"/>
		<path class="st0" d="M144.4,181.4c-1.1,0.4-2,0.8-3,1.1c-0.4-1-0.8-1.9-1.3-2.9l5.3-2.2h3v18.3c-1.3,0-2.5,0-3.9,0
			C144.4,191,144.4,186.3,144.4,181.4z"/>
		<path class="st0" d="M146.1,153.5c0,3.8,0.1,7.4,0.1,10.9h-1.3c-1.7-2.6-6-8.7-6-8.7c0,2.8,0,5.9,0,8.7c-0.5,0-0.9,0-1.3,0
			c0-3.6-0.1-7.3-0.1-10.9h1.4c1.7,2.6,4.2,6,6.1,8.7c0-3-0.1-5.9-0.1-8.7H146.1z"/>
		<path class="st0" d="M163.4,158.9c0,3.4-2.2,5.7-5.5,5.7c-3.3,0-5.5-2.4-5.5-5.8c0-3.3,2.3-5.6,5.6-5.6
			C161.1,153.2,163.4,155.5,163.4,158.9z M157.8,163.4c2.4,0,4.1-1.8,4.1-4.5c0-2.6-1.7-4.5-4.1-4.5c-2.3,0-4.1,1.9-4.1,4.4
			C153.7,161.4,155.4,163.4,157.8,163.4z"/>
		<path class="st0" d="M124.4,158.9c0-3.3,2.2-5.7,5.5-5.7c3.2,0,5.5,2.3,5.5,5.6c0,3.4-2.2,5.8-5.5,5.8
			C126.6,164.6,124.4,162.3,124.4,158.9z M129.9,163.4c2.4,0,4.1-2,4.1-4.6c0-2.5-1.8-4.4-4.1-4.4c-2.4,0-4.1,1.9-4.1,4.5
			C125.8,161.5,127.5,163.4,129.9,163.4z"/>
		<path class="st0" d="M96.1,158.2c0,0.5,0,0.8,0,1.2c-1.8,0-3.6,0-5.4,0c0,1.3,0,2.5,0,3.8c2,0,4,0,6.1,0c0,0.4,0.1,0.8,0.1,1.2
			c-2.6,0-5.1,0-7.7,0c0-3.6,0-7.2,0-10.8c2.4,0,4.9,0,7.4,0c0,0.3,0,0.6,0.1,1.1c-2,0-4,0-6.1,0c0,1.2,0,2.4,0,3.6
			C92.5,158.2,94.3,158.2,96.1,158.2z"/>
		<path class="st0" d="M77.3,153.5c0,0.4,0,0.7,0,1.1c-2,0-4,0-6,0c0,1.2,0,2.4,0,3.6c1.8,0,3.5,0,5.4,0c0,0.4,0,0.8,0,1.2
			c-1.8,0-3.6,0-5.4,0c0,1.3,0,2.5,0,3.8c2.1,0,4.1,0,6.1,0c0,0.4,0.1,0.8,0.1,1.2c-2.6,0-5.1,0-7.7,0c0-3.6,0-7.2,0-10.9
			C72.3,153.5,74.8,153.5,77.3,153.5z"/>
		<path class="st0" d="M193.4,164.3c1.2-3.1,4.2-10.9,4.2-10.9h1.6c1.3,3.4,2.8,7.4,4.1,10.9h-1.5c-0.2-0.7-1-2.7-1-2.7l-4.9,0
			l-1.1,2.7H193.4z M196.3,160.5c1.4,0,2.7,0,4.1,0c-0.7-1.9-1.3-3.7-2.1-5.7C197.6,156.9,197,158.7,196.3,160.5z"/>
		<path class="st0" d="M67.3,154.1c-0.2,0.4-0.3,0.7-0.5,1c0,0-1.4-0.5-2.8-0.6c-1-0.1-1.5,0.1-2.1,0.5c-0.8,0.6-0.9,2,0.1,2.6
			c0.4,0.2,0.9,0.4,1.3,0.5c0.5,0.2,1.1,0.3,1.6,0.4c2,0.6,2.9,1.7,2.6,3.4c-0.2,1.6-1.4,2.5-3.3,2.6c-1.6,0.1-3.3-0.1-4.7-1.1
			c0.2-0.4,0.6-0.9,0.7-1.1c1.2,0.7,2.9,1.3,4.5,0.9c0.8-0.2,1.4-0.7,1.4-1.6c0-0.9-0.6-1.5-1.3-1.7c-1-0.3-1.9-0.5-2.8-0.8
			c-1-0.3-1.9-0.8-2.2-1.9c-0.5-1.8,0.5-3.5,2.5-3.9C64.1,153,65.7,153.3,67.3,154.1z"/>
		<path class="st0" d="M187.9,154.5c-0.2,0.3-0.4,0.6-0.7,0.9c-1.3-0.8-2.8-1.3-4.2-0.8c-0.8,0.3-1.6,0.8-2.1,1.5
			c-1.3,1.7-1,4.7,0.5,6.2c1.5,1.4,3.7,1.5,5.9,0c0.3,0.2,0.5,0.5,0.8,0.7c-1.4,1.9-5,2.2-7.2,0.6c-2.4-1.8-2.9-5.9-1.1-8.4
			C181.6,152.9,185.4,152.5,187.9,154.5z"/>
		<path class="st0" d="M118.5,154.4c-0.2,0.3-0.4,0.6-0.7,0.9c-1.3-0.8-2.8-1.4-4.3-0.7c-0.8,0.3-1.5,0.9-2,1.5
			c-1.3,1.7-1,4.5,0.5,6c1.5,1.5,3.6,1.6,6.1,0.1c0.2,0.3,0.5,0.5,0.7,0.8c-1.8,2-5.4,2.1-7.6,0.3c-2.2-1.9-2.5-5.9-0.7-8.2
			C112.2,152.9,115.9,152.5,118.5,154.4z"/>
		<path class="st0" d="M107.7,154.5c-0.2,0.3-0.5,0.6-0.7,0.9c-2.6-1.4-4.9-1.2-6.2,0.5c-1.3,1.7-1.2,4.6,0.2,6.2
			c1.5,1.6,3.6,1.7,6.1,0.2c0.3,0.2,0.5,0.5,0.8,0.7c-1.8,2.1-5.6,2.2-7.6,0.4c-2.3-2.1-2.5-6.2-0.5-8.4
			C101.8,152.8,105.6,152.6,107.7,154.5z"/>
		<path class="st0" d="M172.2,158.4c0,0.5,0,0.8-0.1,1.2c-1.7,0-3.4,0-5.3,0c0,1.7,0,3.2,0,4.9c-0.5,0-0.9,0-1.3,0
			c0-3.6,0-7.2,0-10.9c2.4,0,4.9,0,7.4,0v1.1c-2,0-4,0-6,0c0,1.3,0,2.5,0,3.8C168.7,158.4,170.4,158.4,172.2,158.4z"/>
		<path class="st0" d="M87.3,163.2c0,0.5,0,0.8,0,1.2c-2.5,0-4.9,0-7.4,0c0-3.6,0-7.2,0-10.9c0.4,0,0.7,0,1.2,0c0,3.2,0,6.4,0,9.7
			C83.2,163.2,85.2,163.2,87.3,163.2z"/>
		<path class="st0" d="M206.5,163.2c2.1,0,4.1,0,6.2,0c0,0.4,0,0.7,0.1,1.2c-2.5,0-5,0-7.5,0c0-3.6,0-7.2,0-10.8c0.4,0,0.8,0,1.3,0
			C206.5,156.7,206.5,159.9,206.5,163.2z"/>
		<path class="st0" d="M190.4,153.5c0.5,0,0.8,0,1.2,0c0,3.7,0,7.3,0,10.9c-0.4,0-0.8,0-1.2,0C190.4,160.8,190.4,157.2,190.4,153.5z
			"/>
		<path class="st0" d="M122.2,164.4c-0.5,0-0.8,0-1.3,0c0-3.6,0-7.2,0-10.9c0.4,0,0.8,0,1.3,0C122.2,157.1,122.2,160.7,122.2,164.4z
			"/>
		<path class="st0" d="M175.3,153.5c0.4,0,0.8,0,1.2,0c0,3.6,0,7.2,0,10.9c-0.4,0-0.7,0-1.2,0C175.3,160.8,175.3,157.2,175.3,153.5z
			"/>
		<path class="st0" d="M129.3,152.4c0.6-0.8,1.1-1.3,1.7-2c0.4,0.3,0.7,0.5,1.1,0.8c-0.4,0.3-1.3,0.9-1.7,1.2L129.3,152.4z"/>
		<path class="st0" d="M30.3,185.1c-1.2-1.8-2.4-3.5-3.6-5.4c-1.5-2.3-1.6-3.2,0.3-5.1c3.4-3.4,3.6-7.3,2.5-11.6
			c0-0.2-0.2-0.7-0.2-0.7c-0.7,1.3-1.9,2.1-3.1,2.8c-2.3,1.4-4.1,3.1-4.4,6.1c-0.9-2.1-1.8-4.2-2.6-6.3c-0.2-0.4,0.1-1.1,0.4-1.5
			c0.6-0.8,1.4-1.6,2.2-2.2c2.4-1.7,3.6-4,3.6-6.9c0-1.1,0-2.6,0-3.5c-0.7,1.2-2.9,1.8-4.3,2.4c-2.2,0.9-3.7,2.4-4.1,5.1
			c-0.2-0.4-0.3-0.6-0.4-0.8c-0.6-2.1-1.1-4.3-1.7-6.4c-0.2-0.7,0-1.2,0.5-1.7c0.6-0.5,1.1-1.1,1.8-1.4c3.3-1.4,4.9-4.1,5.4-7.5
			c0.1-0.6,0.2-1.2,0.3-1.6c-1.3,0.4-2.7,0.8-4,1.1c-2.3,0.5-4.2,1.6-5.2,3.9c-0.2-1.8-0.4-3.6-0.6-5.3c-0.1-0.5,0-1.1-0.1-1.6
			c-0.3-1.2,0.3-1.9,1.3-2.4c0.6-0.2,1.2-0.5,1.8-0.7c2.7-0.6,4.4-2.3,5.4-4.8c0.4-0.9,0.8-2,1.1-2.8c-1.3,0.8-2.7,0.6-4,0.6
			c-2.3,0.1-4.3,0.7-5.7,2.9c0.1-1.8,0.3-6.3,0.4-7.3c0-0.6,1.1-1.6,3.2-1.7c4.3-0.3,6.1-2.9,7.5-6c-1.4,0.5-2.9,0.1-4.3-0.1
			c-2.2-0.2-4.1,0.4-5.6,2.3c0.4-1.9,0.8-3.7,1.2-5.6c0.5-2.1,0.8-2.5,3-2.3c3.7,0.3,6.4-2,8.2-4.6c-1.4,0.1-2.5-0.3-3.6-0.7
			c-2.1-0.6-4-0.5-5.8,1c0.8-2.2,1.7-4.5,2.5-6.7c0.1-0.2,0.5-0.5,0.8-0.5c0.6,0,1.3-0.1,1.9,0.1c3.3,0.9,5.7-0.9,7.9-3
			c-1,0.1-1.8-0.5-2.6-0.9c-1.9-1-3.7-1.5-5.7-0.2c-0.1-0.1-0.1-0.2-0.2-0.2c1-1.8,1.9-3.6,2.9-5.3c0.2-0.3,0.9-0.3,1.3-0.3
			c0.3,0,0.7,0.1,1,0.2c3.2,1.1,5.3,0,7.9-2.2c-0.9,0.1-2-0.7-2.9-1.3c-1.6-0.9-3.2-1.2-4.9-0.3c-0.1-0.1-0.1-0.1-0.2-0.2
			c1.2-1.7,2.3-3.3,3.5-5c0.1-0.2,0.5-0.2,0.8-0.2c0.4,0,0.8,0.1,1.2,0.3c2.7,1.3,5.1,0.5,7.4-1.2c-2.2-0.8-3.4-3.3-6.8-2.4
			c1.6-1.7,3.4-4.2,4.1-4.2c2.1-0.1,4.6-0.5,5.8-2.8c0.7-1.3,1.2-3,1.8-4.3c-1.3,0.7-2.7,0.6-4,0.7c-2.7,0.1-4.4,1.7-5.1,4.1
			c-0.8,2.4-2.9,4.1-4.3,6c0.6-2.3,0.1-3.9-1.8-5.7c-0.5-0.4-0.7-1.1-1.2-1.8c-0.5,1.3-1.2,2.6-1.5,3.9c-0.4,1.4-0.1,2.8,0.8,4
			c0.2,0.3,0.4,0.6,0.6,0.9c0.8,1.3,0.8,1.7-0.1,2.9c-0.9,1.2-1.7,2.4-2.6,3.7c0.2-2.3-1.2-3.8-2.8-5.1c-0.5-0.4-1-1-1.2-1.8
			c-2,3.1-2,6.5,0.1,8.8c0.3,0.3,0.5,0.6,0.7,0.9c0.7,0.8,0.8,1.6,0.2,2.6c-0.9,1.5-1.7,3.1-2.6,4.9c0-0.6-0.1-0.9-0.1-1.3
			c-0.1-1.6-0.9-2.8-2.2-3.8c-0.9-0.7-2.2-1.5-2.4-2.7c-1.6,3.5-1.6,7.4,0.8,9.5c2,1.7,2.1,2.8,1.2,5c-0.7,1.6-1.2,3.2-1.8,4.9
			c-0.1-0.2-0.2-0.2-0.2-0.3c-0.1-2.2-1.3-3.7-3.2-4.8c-1-0.6-2.4-1.2-3-2.4c-0.4,1.8-0.7,4.2-0.2,6.2c0.3,1.4,1.1,2.5,2.3,3.3
			c0.5,0.4,1.1,0.7,1.6,1.2c1,0.9,1.4,1.9,1.1,3.2c-0.5,1.9-0.9,3.9-1.3,5.9c-0.1-0.2-0.2-0.4-0.2-0.5c-0.6-2.2-2-3.7-4.2-4.4
			c-1.2-0.4-3.1-1-3.5-2c-0.1,2.2-0.2,5.2,1.2,7.3c0.6,0.9,1.5,1.5,2.3,2.2c0.5,0.4,1.1,0.6,1.7,0.8c1.5,0.7,2.1,1.8,1.9,3.5
			c-0.3,2.5-0.4,5.1-0.5,7.8c-0.2-0.4-0.3-0.8-0.4-1.1c-0.9-2.5-2.7-3.9-5.4-4.4c-1.3-0.2-3-0.4-3.9-1.4c0.1,4.6,1.9,8.3,6.3,9.6
			c0.9,0.3,1.8,0.6,2.5,1.2c0.6,0.5,1,1.3,1.1,2c0.4,2.8,0.6,5.6,0.9,8.4c0,0.1,0,0.3,0,0.5c-0.5-0.7-0.8-1.3-1.2-1.8
			c-1.3-1.9-3.2-2.9-5.5-2.9c-1.6,0-3.7,0.3-4.9-0.8c1.3,3.6,2.7,8.7,8.9,8.7c2.4,0,3.6,1.2,4.2,3.6c0.6,2.3,1.3,4.6,1.9,6.8
			c0.1,0.2,0.1,0.4,0.2,0.8c-0.4-0.5-0.6-0.8-0.9-1.1c-2.1-2.6-4.8-3.4-8.1-2.7c-1.3,0.3-2.8,0.5-4.1,0c2.3,4.6,4.9,7.8,9.8,7.5
			c0.8-0.1,1.7-0.1,2.5,0c1.4,0.1,2.5,0.8,3.1,2.2c1,2.4,2.2,4.8,3.3,7.2c0.2,0.4,0.3,0.7,0.6,1.3c-0.8-0.7-1.4-1.2-2-1.7
			c-2.5-1.9-5.1-2.4-8-1.1c-0.7,0.3-1.5,0.6-2.2,0.9c-0.8,0.2-1.7,0.5-2.6,0.1c0.1,0.2,2.4,3.2,5.2,5c1.3,0.9,3.7,1.5,5.8,1
			c0.3-0.1,0.7-0.2,1-0.3c3.8-1.1,4.7-0.7,6.9,2.5c1.3,2,2.7,4,4.2,6.1c-0.8-0.5-1.4-0.9-2.1-1.2c-2.6-1.4-5.1-1.4-7.7,0
			c-0.6,0.4-1.3,0.8-1.9,1c-1.1,0.4-1.7,1-3.5,0.9c2.4,2.1,5.1,4.7,8.7,5.3c1.5,0.2,3-0.2,4.4-0.8c1.1-0.4,2.3-0.9,3.5-1.1
			c1.1-0.2,2.2,0.1,3,0.9c2.1,2.1,4.2,4.3,6.4,6.6c-0.6-0.2-1-0.4-1.4-0.6c-3.5-1.5-6.9-1.2-9.9,1.3c-0.4,0.3-0.8,0.7-1.2,1
			c-1.1,0.6-2.2,1.6-3.7,1.6c2.8,1.8,6,4,9.7,4.2c1.7,0.1,3.3-0.5,4.7-1.4c0.9-0.6,1.8-1.1,2.8-1.6c1.8-0.9,3.5-0.6,5.2,0.6
			c3,2.1,6,4.1,9,6.1c0.3,0.2,0.6,0.4,0.9,0.4c0.3,0,0.7-0.2,0.9-0.4c0.1-0.2,0-0.7-0.1-0.9c-0.1-0.2-0.5-0.4-0.8-0.5
			c-3.7-2.2-6.6-4.4-9.9-6.8c-0.9-0.6-1.2-1.5-1-2.5c0.2-1.1,0.5-2.3,1-3.4c1.8-3.4,1.7-6.7,0.1-10c-0.5-1.1-1.3-2.5-1.8-3.5
			c-0.3,1.4-1.2,2.5-1.9,3.5c-0.4,0.6-0.9,1.1-1.4,1.6c-2.1,2.4-2.7,5.1-1.5,8.2c0,0.1,0,0.3,0.1,0.7c-0.9-0.9-1.7-1.6-2.4-2.3
			c-1-1-1.9-2.1-2.9-3c-0.7-0.7-0.9-1.6-0.6-2.5c0.4-1,0.8-2.1,1.5-3c2.1-2.8,2.5-5.9,1.5-9.2c-0.3-1.1-0.9-2.5-1.2-3.4
			c-0.8,1.8-2.5,3-3.9,4.3c-1.9,1.8-2.9,3.9-2.4,6.5c0,0.2,0,0.4,0,0.6C30.4,185.1,30.4,185.1,30.3,185.1z"/>
	</g>
	<g>
		<path class="st0" d="M67.7,112.9c0.6-0.7,1.7-2,2.7-3.2l-0.2-0.1l0.4-0.8L71,109c0.8-1,1.5-1.7,1.5-1.7c3-3,6.1-5.8,9.9-7.8
			c0.3-0.1,0.4-0.5,0.5-0.8c0.5-1.6,0.9-3.3,1.6-4.9c1.4-3.3,2.6-6.3,4.7-10C80.7,92.1,72,101.4,67.7,112.9z M82.6,91.8l0.2,0.2
			l-0.5,0.8l-0.4-0.2L82.6,91.8z M71.8,108l-0.6-0.3l0.4-0.8l0.5,0.3L71.8,108z M73.3,105.4l-0.4,0.8l-0.6-0.3l0,0l0.5-0.8
			L73.3,105.4L73.3,105.4z M73.9,104.4l-0.6-0.3l0.6-0.9l0.5,0.3L73.9,104.4z M75.4,101.8l-0.5,0.8l-0.5-0.3l0.6-0.8L75.4,101.8
			L75.4,101.8z M76.1,100.9l-0.5-0.3l0.6-0.8l0.4,0.3L76.1,100.9z M77.7,98.5l-0.5,0.8L76.7,99l0.6-0.8L77.7,98.5L77.7,98.5z
			 M78.9,96.8l-0.5,0.8L78,97.3l0.6-0.8L78.9,96.8L78.9,96.8z M80.2,95.2L79.6,96l-0.4-0.3l0.7-0.8L80.2,95.2L80.2,95.2z M80.5,94.2
			L80.5,94.2l0.7-0.8l0.3,0.2l0,0l-0.5,0.8L80.5,94.2z M81.8,99.3L81.8,99.3L81,99.1l0.3-1l0,0l0.6,0.2L81.8,99.3z M82.3,97.3
			l-0.6-0.1l0.3-1l0.5,0.2L82.3,97.3z M82.9,95.3l-0.5-0.1l0.4-0.9l0.4,0.2L82.9,95.3z M83.6,93.5l-0.4-0.2l0.5-0.9l0.3,0.2
			L83.6,93.5z"/>
		<path class="st0" d="M89.1,98.9c-2.5-0.6-4.8,0.2-7,1.4c-5.7,3.1-10,7.7-13.8,12.9c-0.5,0.6-0.9,1.3-1.4,2.2
			c5.1,0,10.5-0.1,15.4-0.1c0.5-4.1,2.4-9.8,7.3-14.7c0.4-0.4,0.7-0.8,1.1-1.3C90,99.2,89.6,99,89.1,98.9z M83.4,100.4l0.2,0.3
			l-0.8,0.6l-0.3-0.4L83.4,100.4z M81.7,101.6l0.2,0.4l0,0l-0.7,0.6l-0.4-0.4L81.7,101.6z M70.3,114.4l-0.9-0.5l0.7-1l0.8,0.6
			L70.3,114.4z M71.4,112.8l-0.9-0.5l0.7-0.9l0.7,0.6L71.4,112.8z M73.2,110.3l-0.6,0.8l0,0l-0.7-0.5l0.7-0.9L73.2,110.3L73.2,110.3
			z M73.9,109.6l-0.7-0.5l0.8-0.8l0.6,0.6L73.9,109.6z M75.9,107.3l-0.6,0.7l0,0l-0.6-0.5l0,0l0.8-0.8L75.9,107.3L75.9,107.3z
			 M76.6,106.6l-0.6-0.5l0,0l0.8-0.7l0.4,0.5L76.6,106.6z M78.8,104.5l-0.7,0.7l-0.5-0.5l0.8-0.7L78.8,104.5L78.8,104.5z
			 M79.2,103.4l0.9-0.7l0.3,0.4l0,0l-0.7,0.6L79.2,103.4z M81.2,114.4L81.2,114.4l-0.9-0.1l0.3-0.9l0,0l0.8,0.1L81.2,114.4z
			 M81.6,112.5l-0.9-0.2l0.4-0.9l0,0l0.7,0.2L81.6,112.5z M82.2,110.6l-0.8-0.2l0.4-0.9l0.6,0.2L82.2,110.6z M82.9,108.7l-0.7-0.3
			l0,0l0.5-0.8l0.6,0.2L82.9,108.7z M83.8,106.8l-0.6-0.3l0.5-0.8l0.5,0.3L83.8,106.8z M85.2,104.3l-0.5,0.8l-0.5-0.3l0.6-0.8
			L85.2,104.3L85.2,104.3z M85.3,99.7l-0.7,0.6l-0.3-0.3l0,0l0.8-0.5L85.3,99.7L85.3,99.7z M86.4,102.7l-0.5,0.7l-0.4-0.3l0.7-0.8
			L86.4,102.7L86.4,102.7z M87.8,101.3l-0.6,0.7l-0.3-0.3l0,0l0.7-0.6L87.8,101.3L87.8,101.3z"/>
		<path class="st0" d="M76,81.7c-0.4-2.2-0.8-4.5-1.3-6.7c-0.1,0-0.2,0-0.3,0c-2.2,11.8-4.3,23.8-6.5,35.8c0,0,0.9-2,2.2-4.4l-0.2,0
			l0.2-0.9l0.5,0.1c1-1.8,2.1-3.8,3.3-5.3c2.4-3.2,4.6-5.8,4.6-5.8S76.7,85.7,76,81.7z M70.9,104.4l-0.7-0.1l0,0l0.2-1l0.7,0.1
			L70.9,104.4z M71.4,101.5l-0.1,0.9l0,0l-0.6-0.1l0,0l0.2-1L71.4,101.5L71.4,101.5z M71.7,99.4l-0.1,0.9l-0.7-0.1l0.2-1L71.7,99.4
			L71.7,99.4z M72,97.3l-0.1,0.9l-0.6-0.1l0.2-1L72,97.3L72,97.3z M72.2,96.2l-0.6,0l0.2-1l0.5,0.1L72.2,96.2z M72.6,94.2l-0.6,0
			l0.2-1l0.5,0.1L72.6,94.2z M72.9,92.1l-0.5,0l0.2-1l0.4,0.1L72.9,92.1z M73.2,90.1l-0.5,0l0.2-1l0.4,0.1L73.2,90.1z M73.5,88.2
			l-0.5,0l0.2-1l0.4,0.1L73.5,88.2z M73.7,86.2l-0.5,0l0.2-1l0.3,0.1L73.7,86.2z M74,83.4l0,0.9l-0.4,0l0.2-1L74,83.4L74,83.4z
			 M75.2,83.3l0.3-0.1l0.2,1l-0.4,0L75.2,83.3z M75.4,85.2l0.4-0.1l0,0l0.2,1l-0.5,0L75.4,85.2z M75.7,87.2L75.7,87.2l0.5-0.1l0.2,1
			l-0.6,0L75.7,87.2z M76,89.4L76,89.4l0.5-0.1l0.2,1l-0.6,0L76,89.4z M76.2,91.5l0.6-0.1l0.2,1l-0.7,0.1L76.2,91.5z M76.6,93.4
			l0.7-0.1l0,0l0.2,1l-0.7,0.1L76.6,93.4z"/>
		<path class="st0" d="M56.4,97c-2.8,0.2-5,1.3-6.5,3.8c-0.5,0.9-1.3,2-2.1,2.4c0.5,0,1.3,0.1,1.8,0c2.7-0.4,5-1.6,7.1-3.3
			c1.5-1.1,3.1-1.8,5-1.7c0.8,0,1.6,0.2,2.4,0.2C61.7,97.3,59.1,96.8,56.4,97z M50.7,102.2l-0.9,0.2l-0.1-0.3l1-0.4L50.7,102.2
			L50.7,102.2z M51.9,101.7l-0.2-0.3l0.9-0.5l0.3,0.4L51.9,101.7z M53.7,100.6l-0.4-0.4l0,0l0.7-0.5l0.4,0.3L53.7,100.6z M55.4,99.5
			L55,99.1l0.8-0.4l0.6,0.3L55.4,99.5z M57.1,98.5l-0.5-0.6l0.8-0.3l0.6,0.3L57.1,98.5z"/>
		<path class="st0" d="M96.7,98.1c-4-1.9-8.8-1.1-12.6,0.6c3.1-1,6-0.7,8.7,1.4c0.9,0.7,1.8,1.3,2.8,1.8c1.8,0.9,3.9,1.4,5.9,1.3
			C99.7,102.4,98.8,99.1,96.7,98.1z M92.2,98.6L92.2,98.6L91.3,98l0.6-0.3l0,0l0.8,0.3L92.2,98.6z M93.9,99.6L93.9,99.6L93,99
			l0.6-0.3l0.8,0.4L93.9,99.6z M96,100.4l-0.3,0.3l0,0l-0.8-0.5l0.4-0.3l0,0L96,100.4L96,100.4z M97.5,101.7l-0.9-0.4l0.3-0.4l0,0
			l0.8,0.4L97.5,101.7z M99.5,102.5l-0.9-0.2l0.1-0.4l1,0.4L99.5,102.5z"/>
		<path class="st0" d="M70.2,94.7c0,0-3.9-5-10.4-10.9c3.7,7.2,6.8,12.6,7.9,23.5c0.1-0.6,0.4-2.1,0.7-3.9l-0.2,0l-0.1-0.9l0.5-0.1
			C69.3,99.4,70.1,95.9,70.2,94.7z M68.2,93.4l0.7,0.8l-0.5,0.3l-0.5-0.8L68.2,93.4z M66.8,92l0.7,0.8L67.2,93l-0.6-0.8L66.8,92z
			 M65.4,92.6l0.3-0.1l0.4,1l-0.4,0.1L65.4,92.6z M66,94.4l0.4-0.1l0,0l0.3,0.9l-0.5,0.1L66,94.4z M66.6,96.4l0.4-0.2l0,0l0.3,0.9
			l-0.5,0.1L66.6,96.4z M67.3,98.4L67.3,98.4l0.5-0.2l0.3,1l-0.6,0.1L67.3,98.4z M68.6,101.3l-0.6,0.1l0,0l-0.2-0.9l0,0l0.6-0.2
			L68.6,101.3L68.6,101.3z"/>
		<path class="st0" d="M67.3,109.8c0-2.9-1.3-10.2-1.5-10.3c-2.3-0.8-4.8-1.3-7.2-0.1c3.8,4,6.9,8.4,7.9,13.9c0.1,0,0.2,0,0.3,0
			C67,112.2,67.4,110.9,67.3,109.8z M62.2,102l-0.6-0.7l0.2-0.2l0,0l0.7,0.6L62.2,102z M63.4,103.4l-0.6-0.8l0.3-0.3l0.7,0.8
			L63.4,103.4z M64.1,99.4l0.9,0.5l-0.3,0.3L64,99.6L64.1,99.4z M64.6,105.1L64.6,105.1l-0.5-0.8l0.4-0.3l0.6,0.8L64.6,105.1z
			 M65.6,106.8l-0.4-0.8l0.5-0.3l0.5,0.8L65.6,106.8L65.6,106.8z M66.5,108.7l-0.4-0.9l0.6-0.2l0.5,0.9L66.5,108.7z"/>
	</g>
</g>
</svg>
