<?xml version="1.0" encoding="utf-8"?>
<!-- Generator: Adobe Illustrator 22.0.1, SVG Export Plug-In . SVG Version: 6.00 Build 0)  -->
<svg version="1.1" id="Layer_1" xmlns="http://www.w3.org/2000/svg" xmlns:xlink="http://www.w3.org/1999/xlink" x="0px" y="0px"
	 viewBox="0 0 267 273.5" style="enable-background:new 0 0 267 273.5;" xml:space="preserve">
<style type="text/css">
	.st0{fill:#FFFFFF;}
</style>
<g>
	<path class="st0" d="M29,74c1-3.6,0.5-4.6,0.1-6.7c-0.3-2-0.6-5.1,2.7-12.9c0.1,0-3.3,4-5.5,9.4c-2.3,5.4-3.4,12.3-1,16.8
		c8.8-0.4,18.8-11.4,19.2-11.2C33,75,34.2,69.8,29,74"/>
	<path class="st0" d="M20.9,91.1c0.2-3.9-0.5-4.8-1.3-6.8c-0.8-2-1.8-5-0.1-13.6c0,0-2.4,4.8-3.5,10.8c-1.1,6-0.8,13.3,2.6,17.2
		c8.9-2.7,16.5-16.1,16.9-16C25.2,91,25.2,85.6,20.9,91.1"/>
	<path class="st0" d="M16.4,109.4c-0.5-4-1.5-4.8-2.7-6.5c-1.2-1.8-2.8-4.7-2.9-13.8c0-0.1-1.5,5.4-1.4,11.8
		c0.1,6.4,1.8,13.7,6.1,16.9c8.6-5.1,13.6-20.4,14-20.3C20.8,108.1,19.7,102.8,16.4,109.4"/>
	<path class="st0" d="M15.4,128.3c-1.3-4-2.4-4.5-4-6c-1.6-1.5-3.7-4.1-5.6-13.4c0-0.1-0.5,5.9,0.9,12.5c1.3,6.5,4.5,13.6,9.5,15.7
		c7.8-7.5,10.1-24.2,10.5-24.2C19.7,125.8,17.5,120.7,15.4,128.3"/>
	<path class="st0" d="M17.8,146.9c-3.8-8-5.8,0.3-13.4-17.5c0-0.1,0.5,6.2,3.1,12.6c2.5,6.4,7.1,12.9,12.6,13.7
		c3.5-4.9,4.7-11.7,5.4-17.3c0.7-5.6,0.9-10,0.9-10.1C21.7,143.3,18.5,138.6,17.8,146.9"/>
	<path class="st0" d="M23.4,164.7c-5.3-7.3-5.9,1.8-16.8-14.7c0-0.1,1.6,6.3,5.5,12.2c3.7,6,9.7,11.5,15.4,10.9
		c2.6-6,2.5-13.2,2.3-19.1c-0.3-5.9-0.8-10.5-0.9-10.5C26.7,159.9,22.7,156,23.4,164.7"/>
	<path class="st0" d="M32.1,180.7c-3.5-2.7-4.8-2.3-7.2-2.4c-2.3-0.2-5.8-0.9-12.8-8.5c0-0.1,2.8,6.1,7.9,11.2
		c4.9,5.2,12.1,9.3,17.9,7.2c1.5-6.8-0.1-14.1-1.4-20.1c-1.4-5.9-2.7-10.5-2.8-10.5c0,8.5-0.6,12.2-1.4,14.7
		C31.6,174.9,30.6,176.2,32.1,180.7"/>
	<path class="st0" d="M43.9,194.3c-4.2-1.8-5.4-1.2-7.9-0.7c-2.5,0.3-6.2,0.5-14.7-5.6c0-0.1,4,5.6,10.3,9.6
		c6.1,4.1,14.5,6.5,20.1,2.8c0-7.3-3.1-14.4-5.7-20.1c-2.6-5.7-4.7-10-4.8-10c1.6,8.7,1.7,12.6,1.3,15.4
		C42.2,188.5,41.4,190.1,43.9,194.3"/>
	<path class="st0" d="M58.4,204.8c-4.8-0.8-5.9,0.2-8.4,1.3c-2.5,1-6.4,2.1-16.4-2.1c0-0.1,5.2,4.8,12.7,7.3
		c7.3,2.7,16.7,2.9,21.8-2.3c-1.8-7.4-6.7-13.8-10.5-19c-4-5.1-6.9-9-7-9c3.3,8.5,4.4,12.4,4.5,15.3
		C55.4,199.3,54.9,201.2,58.4,204.8"/>
	<path class="st0" d="M75.7,211.3c-5.4,0.5-6.3,1.7-8.7,3.5c-2.4,1.6-6.3,3.8-17.9,2c-0.1-0.1,6.5,3.7,15.1,4.3
		c8.4,0.9,18.8-1.4,23-8.1c-3.9-7-10.7-12.1-16-16.4c-5.4-4.1-9.2-7.4-9.3-7.3c5.3,7.8,7.3,11.5,8.2,14.4
		C71.1,206.6,71,208.6,75.7,211.3"/>
	<path class="st0" d="M42.8,52.4c-4.6,4-7.3,9.1-8,13.5c3.8-1.2,7.9-3.7,12.1-7.4c4.2-3.6,7.7-7.8,10.2-11.9
		C52.8,46.5,47.3,48.4,42.8,52.4"/>
</g>
<g>
	<path class="st0" d="M237,74c-1-3.6-0.5-4.6-0.1-6.7c0.3-2,0.6-5.1-2.7-12.9c-0.1,0,3.3,4,5.5,9.4c2.3,5.4,3.4,12.3,1,16.8
		c-8.8-0.4-18.8-11.4-19.2-11.2C233,75,231.8,69.8,237,74"/>
	<path class="st0" d="M245.1,91.1c-0.2-3.9,0.5-4.8,1.3-6.8c0.8-2,1.8-5,0.1-13.6c0,0,2.4,4.8,3.5,10.8c1.1,6,0.8,13.3-2.6,17.2
		c-8.9-2.7-16.5-16.1-16.9-16C240.8,91,240.8,85.6,245.1,91.1"/>
	<path class="st0" d="M249.6,109.4c0.5-4,1.5-4.8,2.7-6.5c1.2-1.8,2.8-4.7,2.9-13.8c0-0.1,1.5,5.4,1.4,11.8
		c-0.1,6.4-1.8,13.7-6.1,16.9c-8.6-5.1-13.6-20.4-14-20.3C245.2,108.1,246.3,102.8,249.6,109.4"/>
	<path class="st0" d="M250.6,128.3c1.3-4,2.4-4.5,4-6c1.6-1.5,3.7-4.1,5.6-13.4c0-0.1,0.5,5.9-0.9,12.5c-1.3,6.5-4.5,13.6-9.5,15.7
		c-7.8-7.5-10.1-24.2-10.5-24.2C246.3,125.8,248.5,120.7,250.6,128.3"/>
	<path class="st0" d="M248.2,146.9c3.8-8,5.8,0.3,13.4-17.5c0-0.1-0.5,6.2-3.1,12.6c-2.5,6.4-7.1,12.9-12.6,13.7
		c-3.5-4.9-4.7-11.7-5.4-17.3c-0.7-5.6-0.9-10-0.9-10.1C244.3,143.3,247.5,138.6,248.2,146.9"/>
	<path class="st0" d="M242.6,164.7c5.3-7.3,5.9,1.8,16.8-14.7c0-0.1-1.6,6.3-5.5,12.2c-3.7,6-9.7,11.5-15.4,10.9
		c-2.6-6-2.5-13.2-2.3-19.1c0.3-5.9,0.8-10.5,0.9-10.5C239.3,159.9,243.3,156,242.6,164.7"/>
	<path class="st0" d="M233.9,180.7c3.5-2.7,4.8-2.3,7.2-2.4c2.3-0.2,5.8-0.9,12.8-8.5c0-0.1-2.8,6.1-7.9,11.2
		c-4.9,5.2-12.1,9.3-17.9,7.2c-1.5-6.8,0.1-14.1,1.4-20.1c1.4-5.9,2.7-10.5,2.8-10.5c0,8.5,0.6,12.2,1.4,14.7
		C234.4,174.9,235.4,176.2,233.9,180.7"/>
	<path class="st0" d="M222.1,194.3c4.2-1.8,5.4-1.2,7.9-0.7c2.5,0.3,6.2,0.5,14.7-5.6c0-0.1-4,5.6-10.3,9.6
		c-6.1,4.1-14.5,6.5-20.1,2.8c0-7.3,3.1-14.4,5.7-20.1c2.6-5.7,4.7-10,4.8-10c-1.6,8.7-1.7,12.6-1.3,15.4
		C223.8,188.5,224.6,190.1,222.1,194.3"/>
	<path class="st0" d="M207.6,204.8c4.8-0.8,5.9,0.2,8.4,1.3c2.5,1,6.4,2.1,16.4-2.1c0-0.1-5.2,4.8-12.7,7.3
		c-7.3,2.7-16.7,2.9-21.8-2.3c1.8-7.4,6.7-13.8,10.5-19c4-5.1,6.9-9,7-9c-3.3,8.5-4.4,12.4-4.5,15.3
		C210.6,199.3,211.1,201.2,207.6,204.8"/>
	<path class="st0" d="M190.3,211.3c5.4,0.5,6.3,1.7,8.7,3.5c2.4,1.6,6.3,3.8,17.9,2c0.1-0.1-6.5,3.7-15.1,4.3
		c-8.4,0.9-18.8-1.4-23-8.1c3.9-7,10.7-12.1,16-16.4c5.4-4.1,9.2-7.4,9.3-7.3c-5.3,7.8-7.3,11.5-8.2,14.4
		C194.9,206.6,195,208.6,190.3,211.3"/>
	<path class="st0" d="M223.2,52.4c4.6,4,7.3,9.1,8,13.5c-3.8-1.2-7.9-3.7-12.1-7.4c-4.2-3.6-7.7-7.8-10.2-11.9
		C213.2,46.5,218.7,48.4,223.2,52.4"/>
</g>
<g>
	<path class="st0" d="M59.6,147.4c0-0.1,0-0.2,0.1-0.3c0.1-0.1,0.1-0.1,0.2-0.1H68c0.1,0,0.2,0,0.3,0.1c0.1,0.1,0.1,0.2,0.1,0.3v2.1
		c0,0.1,0,0.2-0.1,0.3c-0.1,0.1-0.2,0.1-0.3,0.1h-5.1v2.6h3.8c0.1,0,0.2,0,0.3,0.1c0.1,0.1,0.1,0.2,0.1,0.3v2c0,0.1,0,0.2-0.1,0.3
		c-0.1,0.1-0.2,0.1-0.3,0.1h-3.8v3.9c0,0.2-0.1,0.4-0.4,0.4h-2.6c-0.2,0-0.3-0.1-0.3-0.4V147.4z"/>
	<path class="st0" d="M72,147.4c0-0.1,0-0.2,0.1-0.3c0.1-0.1,0.2-0.1,0.3-0.1h2.5c0.1,0,0.2,0,0.3,0.1c0.1,0.1,0.1,0.2,0.1,0.3v11.8
		c0,0.3-0.1,0.4-0.4,0.4h-2.5c-0.2,0-0.4-0.1-0.4-0.4V147.4z"/>
	<path class="st0" d="M79.1,147.4c0-0.1,0-0.2,0.1-0.3c0.1-0.1,0.2-0.1,0.3-0.1h2.5c0.1,0,0.2,0,0.3,0.1c0.1,0.1,0.1,0.2,0.1,0.3
		v9.2H87c0.1,0,0.2,0,0.3,0.1c0.1,0.1,0.1,0.2,0.1,0.3v2.2c0,0.1,0,0.2-0.1,0.3c-0.1,0.1-0.2,0.1-0.3,0.1h-7.5
		c-0.2,0-0.4-0.1-0.4-0.4V147.4z"/>
	<path class="st0" d="M91.4,147.4c0-0.1,0-0.2,0.1-0.3c0.1-0.1,0.2-0.1,0.3-0.1h2.9c0.2,0,0.3,0.1,0.4,0.3l2.3,7.7l2.3-7.7
		c0.1-0.2,0.2-0.3,0.4-0.3h2.9c0.1,0,0.2,0,0.3,0.1c0.1,0.1,0.1,0.2,0.1,0.3c0.2,2,0.4,3.9,0.6,5.9c0.2,2,0.4,3.9,0.6,5.9v0
		c0,0.2-0.1,0.3-0.4,0.3h-2.4c-0.3,0-0.4-0.1-0.4-0.4l-0.7-6.5l-1.9,6.6c0,0.1,0,0.1-0.1,0.2c-0.1,0.1-0.1,0.1-0.2,0.1h-2.2
		c-0.1,0-0.1,0-0.2-0.1c-0.1-0.1-0.1-0.1-0.1-0.2l-1.9-6.5l-0.7,6.5c0,0.3-0.2,0.4-0.4,0.4h-2.4c-0.2,0-0.4-0.1-0.4-0.4L91.4,147.4z
		"/>
	<path class="st0" d="M115.2,147.4c0-0.1,0-0.2,0.1-0.3c0.1-0.1,0.1-0.1,0.2-0.1h8.1c0.1,0,0.2,0,0.3,0.1c0.1,0.1,0.1,0.2,0.1,0.3
		v2.1c0,0.1,0,0.2-0.1,0.3c-0.1,0.1-0.2,0.1-0.3,0.1h-5.1v2.6h3.8c0.1,0,0.2,0,0.3,0.1c0.1,0.1,0.1,0.2,0.1,0.3v2
		c0,0.1,0,0.2-0.1,0.3c-0.1,0.1-0.2,0.1-0.3,0.1h-3.8v3.9c0,0.2-0.1,0.4-0.4,0.4h-2.6c-0.2,0-0.3-0.1-0.3-0.4V147.4z"/>
	<path class="st0" d="M127.5,147.4c0-0.1,0-0.2,0.1-0.3c0.1-0.1,0.2-0.1,0.3-0.1h8.4c0.1,0,0.2,0,0.3,0.1c0.1,0.1,0.1,0.2,0.1,0.3
		v2.1c0,0.1,0,0.2-0.1,0.3c-0.1,0.1-0.2,0.1-0.3,0.1h-5.5v2.1h4.2c0.1,0,0.2,0,0.3,0.1c0.1,0,0.1,0.1,0.1,0.3v1.8
		c0,0.1,0,0.2-0.1,0.2c-0.1,0.1-0.1,0.1-0.3,0.1h-4.2v2.2h5.7c0.3,0,0.4,0.1,0.4,0.4v2.1c0,0.1,0,0.1-0.1,0.2c0,0.2-0.1,0.2-0.3,0.2
		h-8.5c-0.1,0-0.2,0-0.3-0.1c-0.1-0.1-0.1-0.2-0.1-0.3V147.4z"/>
	<path class="st0" d="M141.9,155.5c0.1,0.1,0.2,0.2,0.4,0.3c0.1,0.1,0.3,0.3,0.5,0.4c0.3,0.2,0.6,0.3,0.9,0.4
		c0.3,0.1,0.6,0.2,0.9,0.2c0.3,0,0.5,0,0.7-0.1c0.2-0.1,0.3-0.2,0.5-0.3c0.1-0.1,0.2-0.2,0.2-0.4c0-0.1,0.1-0.3,0.1-0.4
		c0-0.2-0.1-0.3-0.2-0.5c-0.1-0.1-0.3-0.3-0.5-0.4c-0.2-0.1-0.4-0.2-0.6-0.3c-0.2-0.1-0.4-0.1-0.5-0.2c-0.7-0.2-1.3-0.5-1.8-0.8
		c-0.5-0.3-0.9-0.6-1.3-0.9c-0.3-0.3-0.6-0.7-0.8-1.1c-0.2-0.4-0.3-0.9-0.3-1.3c0-0.5,0.1-1,0.3-1.4c0.2-0.4,0.5-0.8,0.9-1.1
		c0.4-0.3,0.9-0.5,1.4-0.7c0.6-0.2,1.2-0.2,1.8-0.2c0.5,0,1,0.1,1.5,0.2c0.5,0.1,0.9,0.3,1.4,0.6c0.2,0.1,0.4,0.2,0.5,0.4
		c0.2,0.1,0.3,0.2,0.5,0.4c0.1,0.1,0.2,0.2,0.3,0.3c0.1,0.1,0.1,0.2,0.1,0.3c0,0.1,0,0.1-0.1,0.2c0,0.1-0.1,0.1-0.2,0.2l-1.3,1.4
		c-0.1,0.1-0.2,0.1-0.3,0.1c-0.1,0-0.2,0-0.2-0.1c-0.1,0-0.1-0.1-0.2-0.2l-0.1-0.1c-0.1-0.1-0.2-0.2-0.4-0.3
		c-0.1-0.1-0.3-0.2-0.4-0.3c-0.2-0.1-0.3-0.1-0.5-0.2c-0.2-0.1-0.4-0.1-0.5-0.1c-0.2,0-0.4,0-0.5,0c-0.2,0-0.3,0.1-0.4,0.1
		c-0.1,0.1-0.2,0.2-0.3,0.3c-0.1,0.1-0.1,0.2-0.1,0.4c0,0.2,0,0.3,0.1,0.4c0.1,0.1,0.2,0.2,0.4,0.3c0.2,0.1,0.4,0.2,0.6,0.3
		c0.2,0.1,0.5,0.2,0.8,0.3c0.6,0.2,1.1,0.4,1.6,0.6c0.5,0.2,0.9,0.5,1.3,0.8c0.4,0.3,0.7,0.7,0.9,1.1c0.2,0.4,0.3,0.9,0.3,1.5
		c0,0.6-0.1,1.2-0.4,1.7c-0.3,0.5-0.6,0.9-1,1.3c-0.4,0.4-1,0.6-1.6,0.8c-0.6,0.2-1.2,0.3-1.9,0.3c-0.6,0-1.3-0.1-1.9-0.3
		c-0.6-0.2-1.2-0.5-1.7-0.9c-0.2-0.2-0.4-0.3-0.6-0.5c-0.2-0.2-0.3-0.3-0.4-0.4l0,0c0,0,0,0,0,0c0,0,0,0,0,0c0,0,0,0,0,0
		c0,0,0,0,0,0c-0.1-0.1-0.2-0.3-0.2-0.3c0-0.1,0.1-0.2,0.2-0.3l1.5-1.4c0.1-0.1,0.2-0.1,0.3-0.1c0,0,0.1,0,0.2,0.1
		C141.7,155.4,141.8,155.4,141.9,155.5"/>
	<path class="st0" d="M152.1,147.4c0-0.1,0-0.2,0.1-0.3c0.1-0.1,0.2-0.1,0.3-0.1h9.1c0.1,0,0.2,0,0.3,0.1c0.1,0.1,0.1,0.2,0.1,0.3
		v2.1c0,0.1,0,0.2-0.1,0.3c-0.1,0.1-0.2,0.1-0.3,0.1h-2.9v9.2c0,0.1,0,0.2-0.1,0.3c-0.1,0.1-0.2,0.1-0.3,0.1h-2.5
		c-0.1,0-0.2,0-0.3-0.1c-0.1-0.1-0.1-0.2-0.1-0.3v-9.2h-2.9c-0.1,0-0.2,0-0.3-0.1c-0.1-0.1-0.1-0.2-0.1-0.3V147.4z"/>
	<path class="st0" d="M165.5,147.4c0-0.1,0-0.2,0.1-0.3c0.1-0.1,0.2-0.1,0.3-0.1h2.5c0.1,0,0.2,0,0.3,0.1c0.1,0.1,0.1,0.2,0.1,0.3
		v11.8c0,0.3-0.1,0.4-0.4,0.4h-2.5c-0.2,0-0.4-0.1-0.4-0.4V147.4z"/>
	<path class="st0" d="M176.3,159.4c-0.1-0.1-0.1-0.2-0.2-0.3c-0.1-0.1-0.1-0.2-0.1-0.3l-4.3-11.3c0,0,0-0.1,0-0.1c0,0,0,0,0-0.1
		c0-0.2,0.1-0.2,0.3-0.2h2.7c0.2,0,0.4,0.1,0.4,0.3l2.6,7.7c0.2-0.6,0.4-1.3,0.7-1.9c0.2-0.6,0.4-1.3,0.6-1.9
		c0.2-0.6,0.4-1.3,0.6-1.9c0.2-0.6,0.4-1.3,0.7-1.9c0.1-0.2,0.2-0.3,0.5-0.3h2.7c0.1,0,0.2,0,0.3,0.1c0.1,0.1,0.1,0.1,0.1,0.2
		c0,0,0,0.1,0,0.1v0l-4.4,11.3c0,0.1-0.1,0.2-0.1,0.3c0,0.1-0.1,0.2-0.1,0.3c-0.1,0.1-0.1,0.2-0.2,0.2c-0.1,0.1-0.1,0.1-0.2,0.1
		h-2.1C176.5,159.6,176.4,159.5,176.3,159.4"/>
	<path class="st0" d="M188.2,147.4c0,0,0-0.1,0.1-0.1c0,0,0.1-0.1,0.1-0.1c0,0,0.1-0.1,0.1-0.1c0.1,0,0.1,0,0.1,0h2.2
		c0.1,0,0.2,0,0.2,0.1c0.1,0.1,0.1,0.1,0.1,0.2l0.2,0.5l4.4,11.4c0,0.1,0,0.2,0,0.3c-0.1,0.1-0.2,0.1-0.3,0.1h-2.4
		c-0.1,0-0.2,0-0.3-0.1c-0.1,0-0.1-0.1-0.2-0.2c-0.1-0.3-0.2-0.6-0.3-0.9c-0.1-0.3-0.2-0.6-0.3-0.9h-4.5c-0.1,0.3-0.2,0.6-0.3,0.9
		c-0.1,0.3-0.2,0.6-0.3,0.9c-0.1,0.2-0.2,0.3-0.4,0.3h-2.5c-0.1,0-0.2,0-0.3-0.1c-0.1-0.1-0.1-0.1,0-0.3L188.2,147.4z M189.7,151
		c-0.1,0.3-0.2,0.6-0.3,0.9c-0.1,0.3-0.2,0.7-0.3,1c-0.1,0.3-0.2,0.7-0.3,1c-0.1,0.3-0.2,0.6-0.3,0.9h2.6L189.7,151z"/>
	<path class="st0" d="M198.6,147.4c0-0.1,0-0.2,0.1-0.3c0.1-0.1,0.2-0.1,0.3-0.1h2.5c0.1,0,0.2,0,0.3,0.1c0.1,0.1,0.1,0.2,0.1,0.3
		v9.2h4.6c0.1,0,0.2,0,0.3,0.1c0.1,0.1,0.1,0.2,0.1,0.3v2.2c0,0.1,0,0.2-0.1,0.3c-0.1,0.1-0.2,0.1-0.3,0.1H199
		c-0.2,0-0.4-0.1-0.4-0.4V147.4z"/>
	<path class="st0" d="M83.4,129.9c0.4,0,0.7,0.3,0.7,0.6v12c0,0.4-0.3,0.7-0.7,0.7H60.2c-0.4,0-0.7-0.4-0.7-0.8V95.8
		c0-0.4,0.4-0.9,0.8-0.9h10.9c0.4,0,0.6,0.3,0.6,0.7v33.9c0,0.3,0.2,0.5,0.4,0.5H83.4z"/>
	<path class="st0" d="M103.9,94.9c0.5,0,0.8,0.4,0.8,0.8l8.8,46.2c0.1,0.7-0.2,1.4-0.9,1.4h-10.5c-0.4,0-0.8-0.3-0.8-0.6l-1.3-9.7
		c-0.1-0.3-0.3-0.5-0.6-0.5h-3.5c-0.3,0-0.5,0.3-0.6,0.6l-1.2,9.5c-0.1,0.5-0.5,0.7-0.8,0.7H82.6c-0.6,0-0.9-0.5-0.8-1.1l8.6-46.5
		c0.1-0.3,0.4-0.8,0.8-0.8H103.9z M98.2,119.2c-0.1-0.9-0.3-1.5-0.5-1.5c-0.2,0-0.3,0.5-0.5,1.5l-0.8,6.1c-0.1,0.3,0.1,0.6,0.4,0.6
		c2.1,0,2.3,0,2.2-0.6L98.2,119.2z"/>
	<path class="st0" d="M115.8,143.3c-0.5,0-0.9-0.4-0.9-0.9v-33.7c0-0.5-0.4-0.8-0.8-0.8h-6.5c-0.4,0-0.8-0.5-0.8-0.9V95.5
		c0-0.4,0.2-0.6,0.6-0.6h27.6c0.4,0,0.8,0.3,0.8,0.8V107c0,0.5-0.4,0.9-0.9,0.9h-6.5c-0.5,0-0.8,0.3-0.8,0.9v33.6
		c0,0.5-0.4,0.8-0.9,0.8H115.8z"/>
	<path class="st0" d="M138.1,143.3c-0.4,0-0.8-0.5-0.8-1V95.5c0-0.3,0.3-0.6,0.6-0.6h11c0.5,0,0.8,0.3,0.8,0.6v46.9
		c0,0.4-0.3,0.8-0.8,0.8H138.1z"/>
	<path class="st0" d="M151.2,95.7c0-0.4,0.3-0.8,0.7-0.8h10.9c0.4,0,0.8,0.3,0.9,0.8l3.9,14.5c0.1,0.5,0.3,0.8,0.5,0.8
		c0.2,0,0.4-0.3,0.4-0.8V95.7c0-0.4,0.3-0.8,0.8-0.8h9.7c0.5,0,0.8,0.4,0.8,0.9v46.7c0,0.5-0.3,0.8-0.7,0.8h-12.1
		c-0.3,0-0.6-0.3-0.7-0.6l-2.8-11.6c-0.1-0.6-0.4-0.9-0.6-0.9c-0.2,0-0.3,0.3-0.3,0.9v11.4c0,0.5-0.4,0.8-0.8,0.8h-9.8
		c-0.4,0-0.6-0.4-0.6-0.9V95.7z"/>
	<path class="st0" d="M181.1,109.6c0-10,6.3-14.8,13.4-14.8c7.2,0,13.4,4.8,13.4,14.8v19.1c0,9.9-6.3,14.8-13.4,14.8
		c-7.1,0-13.4-4.8-13.4-14.8V109.6z M193.5,128.5c0,1,0.3,1.7,1,1.7c0.7,0,1-0.7,1-1.7v-18.7c0-0.8-0.3-1.7-1-1.7
		c-0.7,0-1,0.8-1,1.7V128.5z"/>
	<path class="st0" d="M59.5,71.8c0-0.2,0.1-0.3,0.2-0.4c0.1-0.1,0.2-0.2,0.4-0.2h4.2c0.1,0,0.3,0.1,0.4,0.2c0.1,0.1,0.2,0.3,0.2,0.4
		v6.7h7v-6.7c0-0.2,0.1-0.3,0.2-0.4c0.1-0.1,0.3-0.2,0.5-0.2h4.1c0.2,0,0.3,0,0.5,0.1c0.1,0.1,0.2,0.2,0.2,0.4v19.6
		c0,0.2-0.1,0.4-0.2,0.5c-0.1,0.1-0.3,0.2-0.5,0.2h-4.1c-0.2,0-0.3-0.1-0.5-0.2c-0.1-0.1-0.2-0.3-0.2-0.5v-8h-7v8
		c0,0.2-0.1,0.3-0.2,0.5c-0.1,0.1-0.3,0.2-0.5,0.2h-4.1c-0.4,0-0.6-0.2-0.6-0.5V71.8z"/>
	<path class="st0" d="M81.2,81.6c0-1,0.1-1.9,0.4-2.8c0.3-0.9,0.6-1.8,1.1-2.6c0.5-0.8,1-1.5,1.7-2.2c0.6-0.7,1.4-1.2,2.2-1.7
		c0.8-0.5,1.6-0.8,2.6-1.1c0.9-0.3,1.9-0.4,2.9-0.4c1,0,1.9,0.1,2.8,0.4c0.9,0.3,1.8,0.6,2.6,1.1c0.8,0.5,1.5,1,2.2,1.7
		c0.7,0.7,1.2,1.4,1.7,2.2c0.5,0.8,0.8,1.7,1.1,2.6c0.3,0.9,0.4,1.9,0.4,2.8c0,1-0.1,1.9-0.4,2.8c-0.3,0.9-0.6,1.8-1.1,2.5
		c-0.5,0.8-1,1.5-1.7,2.2c-0.7,0.7-1.4,1.2-2.2,1.7c-0.8,0.5-1.7,0.8-2.6,1.1c-0.9,0.2-1.9,0.4-2.8,0.4c-1,0-1.9-0.1-2.9-0.4
		c-0.9-0.3-1.8-0.6-2.6-1.1c-0.8-0.5-1.5-1-2.2-1.7c-0.7-0.6-1.2-1.4-1.7-2.2c-0.5-0.8-0.8-1.6-1.1-2.5
		C81.3,83.5,81.2,82.6,81.2,81.6 M86.6,81.5c0,0.8,0.1,1.5,0.4,2.2c0.3,0.7,0.6,1.3,1.1,1.8c0.5,0.5,1,0.9,1.7,1.2
		c0.6,0.3,1.4,0.4,2.1,0.4c0.8,0,1.5-0.1,2.1-0.4c0.6-0.3,1.2-0.7,1.7-1.2c0.5-0.5,0.8-1.1,1.1-1.8c0.3-0.7,0.4-1.4,0.4-2.2
		c0-0.8-0.1-1.5-0.4-2.2c-0.3-0.7-0.6-1.3-1.1-1.8c-0.5-0.5-1-0.9-1.7-1.2c-0.6-0.3-1.4-0.4-2.1-0.4c-0.8,0-1.5,0.1-2.1,0.4
		c-0.6,0.3-1.2,0.7-1.7,1.2c-0.5,0.5-0.8,1.1-1.1,1.8C86.7,80.1,86.6,80.8,86.6,81.5"/>
	<path class="st0" d="M111.6,83.6c0,0.7,0.1,1.3,0.3,1.8c0.2,0.5,0.4,0.9,0.8,1.2c0.3,0.3,0.7,0.5,1.1,0.7c0.4,0.1,0.8,0.2,1.3,0.2
		c0.5,0,0.9-0.1,1.3-0.2c0.4-0.2,0.8-0.4,1.1-0.7c0.3-0.3,0.6-0.7,0.7-1.2c0.2-0.5,0.3-1,0.3-1.6V71.8c0-0.2,0.1-0.3,0.2-0.4
		c0.1-0.1,0.3-0.2,0.5-0.2h4.1c0.2,0,0.4,0.1,0.5,0.2c0.1,0.1,0.2,0.3,0.2,0.4v11.8c0,1.6-0.2,3-0.7,4.1c-0.5,1.1-1.1,2-1.9,2.7
		c-0.8,0.7-1.8,1.2-2.8,1.5c-1.1,0.3-2.2,0.4-3.4,0.4c-1.2,0-2.3-0.2-3.4-0.5c-1.1-0.3-2-0.8-2.8-1.5c-0.8-0.7-1.5-1.6-1.9-2.7
		c-0.5-1.1-0.7-2.5-0.7-4.1V71.8c0-0.2,0.1-0.3,0.2-0.4c0.1-0.1,0.2-0.2,0.4-0.2h4.2c0.1,0,0.3,0.1,0.4,0.2c0.2,0.1,0.2,0.3,0.2,0.4
		V83.6z"/>
	<path class="st0" d="M130.9,85.2c0.2,0.1,0.4,0.3,0.6,0.5c0.2,0.2,0.5,0.4,0.8,0.7c0.5,0.3,0.9,0.6,1.4,0.7c0.5,0.2,1,0.3,1.5,0.3
		c0.5,0,0.9-0.1,1.2-0.2c0.3-0.1,0.6-0.3,0.8-0.4c0.2-0.2,0.3-0.4,0.4-0.6c0.1-0.2,0.1-0.5,0.1-0.7c0-0.3-0.1-0.5-0.3-0.8
		c-0.2-0.2-0.5-0.4-0.8-0.6c-0.3-0.2-0.7-0.3-1-0.5c-0.3-0.1-0.6-0.2-0.9-0.3c-1.1-0.4-2.1-0.8-2.9-1.3c-0.8-0.5-1.5-1-2.1-1.5
		c-0.6-0.6-1-1.2-1.3-1.8c-0.3-0.7-0.4-1.4-0.4-2.2c0-0.9,0.2-1.7,0.5-2.4c0.4-0.7,0.8-1.3,1.5-1.8c0.6-0.5,1.4-0.9,2.3-1.2
		c0.9-0.3,1.9-0.4,3.1-0.4c0.9,0,1.7,0.1,2.4,0.3c0.8,0.2,1.5,0.5,2.3,0.9c0.3,0.2,0.6,0.4,0.9,0.6c0.3,0.2,0.5,0.4,0.8,0.6
		c0.2,0.2,0.4,0.4,0.5,0.5c0.1,0.2,0.2,0.3,0.2,0.4c0,0.1,0,0.2-0.1,0.3c-0.1,0.1-0.2,0.2-0.3,0.3L140,77c-0.2,0.2-0.3,0.2-0.5,0.2
		c-0.1,0-0.3,0-0.4-0.1c-0.1-0.1-0.2-0.2-0.4-0.3l-0.1-0.1c-0.2-0.2-0.4-0.3-0.6-0.5c-0.2-0.2-0.5-0.3-0.7-0.5
		c-0.3-0.1-0.5-0.2-0.8-0.3c-0.3-0.1-0.6-0.1-0.9-0.1c-0.3,0-0.6,0-0.9,0.1c-0.3,0.1-0.5,0.1-0.7,0.2c-0.2,0.1-0.4,0.3-0.5,0.4
		c-0.1,0.2-0.2,0.4-0.2,0.7c0,0.3,0.1,0.5,0.2,0.7c0.1,0.2,0.3,0.4,0.6,0.5c0.3,0.2,0.6,0.3,1,0.5c0.4,0.1,0.8,0.3,1.3,0.5
		c1,0.3,1.9,0.7,2.7,1c0.8,0.4,1.6,0.8,2.2,1.3c0.6,0.5,1.1,1.1,1.4,1.8c0.3,0.7,0.5,1.5,0.5,2.5c0,1-0.2,2-0.6,2.8
		c-0.4,0.8-1,1.5-1.7,2.1c-0.7,0.6-1.6,1-2.6,1.4c-1,0.3-2.1,0.5-3.2,0.5c-1.1,0-2.1-0.2-3.2-0.6c-1-0.4-2-0.9-2.9-1.5
		c-0.4-0.3-0.7-0.5-0.9-0.8c-0.3-0.3-0.5-0.5-0.6-0.6l0,0c0,0,0,0,0,0c0,0,0,0,0,0c0,0,0,0,0,0c0,0,0,0,0,0
		c-0.2-0.2-0.3-0.4-0.3-0.6c0-0.2,0.1-0.3,0.3-0.5l2.4-2.3c0.2-0.1,0.4-0.2,0.5-0.2c0.1,0,0.2,0,0.3,0.1
		C130.6,85,130.8,85.1,130.9,85.2"/>
	<path class="st0" d="M145.8,71.8c0-0.2,0.1-0.3,0.2-0.4c0.1-0.1,0.3-0.2,0.5-0.2h15.1c0.2,0,0.3,0.1,0.4,0.2
		c0.1,0.1,0.2,0.3,0.2,0.5v3.5c0,0.2-0.1,0.3-0.2,0.5c-0.1,0.2-0.3,0.2-0.5,0.2h-4.8v15.3c0,0.2-0.1,0.3-0.2,0.5
		c-0.1,0.1-0.3,0.2-0.5,0.2h-4.1c-0.2,0-0.3-0.1-0.4-0.2c-0.1-0.1-0.2-0.3-0.2-0.5V76h-4.8c-0.2,0-0.3-0.1-0.5-0.2
		c-0.1-0.1-0.2-0.3-0.2-0.5V71.8z"/>
	<path class="st0" d="M163.4,81.6c0-1,0.1-1.9,0.4-2.8c0.3-0.9,0.6-1.8,1.1-2.6c0.5-0.8,1-1.5,1.7-2.2c0.6-0.7,1.4-1.2,2.2-1.7
		c0.8-0.5,1.6-0.8,2.6-1.1c0.9-0.3,1.9-0.4,2.9-0.4c1,0,1.9,0.1,2.8,0.4c0.9,0.3,1.8,0.6,2.6,1.1c0.8,0.5,1.5,1,2.2,1.7
		c0.7,0.7,1.2,1.4,1.7,2.2c0.5,0.8,0.8,1.7,1.1,2.6c0.3,0.9,0.4,1.9,0.4,2.8c0,1-0.1,1.9-0.4,2.8c-0.3,0.9-0.6,1.8-1.1,2.5
		c-0.5,0.8-1,1.5-1.7,2.2c-0.7,0.7-1.4,1.2-2.2,1.7c-0.8,0.5-1.7,0.8-2.6,1.1c-0.9,0.2-1.9,0.4-2.8,0.4c-1,0-1.9-0.1-2.9-0.4
		c-0.9-0.3-1.8-0.6-2.6-1.1c-0.8-0.5-1.5-1-2.2-1.7c-0.7-0.6-1.2-1.4-1.7-2.2c-0.5-0.8-0.8-1.6-1.1-2.5
		C163.5,83.5,163.4,82.6,163.4,81.6 M168.8,81.5c0,0.8,0.1,1.5,0.4,2.2c0.3,0.7,0.6,1.3,1.1,1.8c0.5,0.5,1,0.9,1.7,1.2
		c0.6,0.3,1.4,0.4,2.1,0.4c0.8,0,1.5-0.1,2.1-0.4c0.6-0.3,1.2-0.7,1.7-1.2c0.5-0.5,0.8-1.1,1.1-1.8c0.3-0.7,0.4-1.4,0.4-2.2
		c0-0.8-0.1-1.5-0.4-2.2c-0.3-0.7-0.6-1.3-1.1-1.8c-0.5-0.5-1-0.9-1.7-1.2c-0.7-0.3-1.4-0.4-2.1-0.4c-0.8,0-1.5,0.1-2.1,0.4
		c-0.6,0.3-1.2,0.7-1.7,1.2c-0.5,0.5-0.8,1.1-1.1,1.8C169,80.1,168.8,80.8,168.8,81.5"/>
	<path class="st0" d="M188.6,71.8c0-0.2,0.1-0.3,0.2-0.4c0.1-0.1,0.3-0.2,0.5-0.2h4.6c0.1,0,0.3,0,0.4,0.1c0.1,0.1,0.3,0.2,0.4,0.3
		c1.2,1.9,2.4,3.8,3.5,5.7c1.2,1.9,2.3,3.7,3.5,5.7V71.7c0-0.2,0.1-0.3,0.2-0.4c0.1-0.1,0.2-0.1,0.4-0.1h4c0.2,0,0.4,0.1,0.5,0.2
		c0.1,0.1,0.2,0.3,0.2,0.5v19.6c0,0.2-0.1,0.3-0.2,0.4c-0.1,0.1-0.3,0.1-0.5,0.1h-4.5c-0.1,0-0.2,0-0.3-0.1
		c-0.1-0.1-0.2-0.2-0.3-0.3c-1.2-2.1-2.5-4.1-3.7-6.1c-1.2-2-2.4-4-3.7-6.1v12c0,0.2,0,0.4-0.1,0.5c-0.1,0.1-0.3,0.2-0.5,0.2h-4
		c-0.2,0-0.4-0.1-0.5-0.2c-0.1-0.1-0.1-0.3-0.1-0.4V71.8z"/>
</g>
<g>
	<polygon class="st0" points="59.8,169.7 59.8,167.9 206.6,167.9 206.6,169.7 59.8,169.7 	"/>
</g>
<g>
	<path class="st0" d="M99,187c-0.5,0.2-1.1,0.2-1.7,0.2c-0.7,0-1.3-0.1-1.8-0.4c-0.5-0.3-1-0.7-1.3-1.1c-0.4-0.5-0.6-1.1-0.8-1.8
		c-0.2-0.7-0.3-1.4-0.3-2.3c0-0.8,0.1-1.6,0.3-2.3c0.2-0.7,0.5-1.3,0.8-1.8c0.4-0.5,0.8-0.9,1.3-1.2c0.5-0.3,1.1-0.4,1.7-0.4
		c0.7,0,1.3,0.1,1.8,0.4c0.5,0.2,0.9,0.6,1.2,0.9l-1.3,1.8c-0.4-0.5-0.9-0.8-1.5-0.8c-0.3,0-0.6,0.1-0.9,0.3
		c-0.2,0.2-0.4,0.4-0.6,0.7c-0.2,0.3-0.3,0.7-0.4,1.1c-0.1,0.4-0.1,0.8-0.1,1.3c0,0.5,0,0.9,0.1,1.3c0.1,0.4,0.2,0.8,0.3,1.1
		c0.2,0.3,0.4,0.5,0.6,0.7c0.2,0.2,0.5,0.3,0.9,0.3c0.4,0,0.6-0.1,0.8-0.2v-2H97v-2.1h3.3v5.7C99.9,186.6,99.5,186.9,99,187z"/>
	<path class="st0" d="M106.4,187l-1.4-4.3h-0.7v4.3h-2.3v-10.7h3.4c1,0,1.8,0.3,2.4,0.8c0.6,0.5,0.9,1.3,0.9,2.4
		c0,0.4,0,0.7-0.1,1.1c-0.1,0.3-0.2,0.6-0.4,0.8c-0.1,0.2-0.3,0.4-0.5,0.5c-0.2,0.1-0.4,0.2-0.5,0.3l1.8,4.8H106.4z M106.2,179.7
		c0-0.3,0-0.5-0.1-0.7c-0.1-0.2-0.2-0.3-0.3-0.4c-0.1-0.1-0.3-0.2-0.4-0.2c-0.1,0-0.3-0.1-0.4-0.1h-0.8v2.7h0.7
		c0.3,0,0.6-0.1,0.9-0.3C106.1,180.5,106.2,180.2,106.2,179.7z"/>
	<path class="st0" d="M114.8,187l-0.4-1.9H112l-0.4,1.9h-2.4l2.6-10.7h3l2.6,10.7H114.8z M113.2,178.7L113.2,178.7l-1,4.5h1.8
		L113.2,178.7z"/>
	<path class="st0" d="M122.9,187l-2.5-6.5h0l0.1,6.5h-2.2v-10.7h2.7l2.5,6.6h0l0-6.6h2.1V187H122.9z"/>
	<path class="st0" d="M134.8,181.7c0,0.8-0.1,1.5-0.3,2.2c-0.2,0.7-0.4,1.2-0.8,1.7c-0.4,0.5-0.8,0.8-1.4,1.1
		c-0.6,0.3-1.2,0.4-2,0.4h-3v-10.7h3c0.8,0,1.4,0.1,2,0.4c0.6,0.3,1,0.6,1.4,1.1c0.4,0.5,0.6,1,0.8,1.7
		C134.7,180.1,134.8,180.9,134.8,181.7z M132.4,181.7c0-1.1-0.2-1.9-0.6-2.4c-0.4-0.5-0.8-0.8-1.4-0.8h-0.6v6.5h0.6
		c0.6,0,1.1-0.3,1.4-0.8C132.2,183.5,132.4,182.7,132.4,181.7z"/>
	<path class="st0" d="M145.9,179.7c0,0.6-0.1,1.1-0.3,1.5c-0.2,0.4-0.4,0.8-0.7,1.1c-0.3,0.3-0.6,0.5-1,0.6
		c-0.4,0.1-0.8,0.2-1.2,0.2h-1v3.9h-2.4v-10.7h3.3c0.4,0,0.8,0.1,1.2,0.2c0.4,0.1,0.7,0.3,1.1,0.6c0.3,0.3,0.6,0.6,0.8,1
		C145.8,178.5,145.9,179.1,145.9,179.7z M143.6,179.7c0-0.5-0.1-0.8-0.3-1c-0.2-0.2-0.5-0.3-0.8-0.3h-0.8v2.8h0.8
		c0.3,0,0.6-0.1,0.8-0.4C143.5,180.6,143.6,180.2,143.6,179.7z"/>
	<path class="st0" d="M151.6,187l-1.4-4.3h-0.7v4.3h-2.3v-10.7h3.4c1,0,1.8,0.3,2.4,0.8c0.6,0.5,0.9,1.3,0.9,2.4
		c0,0.4,0,0.7-0.1,1.1c-0.1,0.3-0.2,0.6-0.4,0.8c-0.1,0.2-0.3,0.4-0.5,0.5c-0.2,0.1-0.4,0.2-0.5,0.3l1.8,4.8H151.6z M151.4,179.7
		c0-0.3,0-0.5-0.1-0.7c-0.1-0.2-0.2-0.3-0.3-0.4c-0.1-0.1-0.3-0.2-0.4-0.2c-0.1,0-0.3-0.1-0.4-0.1h-0.8v2.7h0.7
		c0.3,0,0.6-0.1,0.9-0.3C151.3,180.5,151.4,180.2,151.4,179.7z"/>
	<path class="st0" d="M155.3,187v-10.7h2.4V187H155.3z"/>
	<path class="st0" d="M159,187v-2l3.3-6.6h-3v-2.1h5.8v1.9l-3.3,6.6h3.3v2.2H159z"/>
	<path class="st0" d="M166.5,187v-10.7h5.2v2.1h-2.8v2.1h2.6v2h-2.6v2.3h3v2.2H166.5z"/>
	<path class="st0" d="M112.7,198.4c0,0.6-0.1,1-0.3,1.4c-0.2,0.4-0.4,0.7-0.7,0.9c-0.3,0.2-0.6,0.4-1,0.5c-0.4,0.1-0.7,0.2-1,0.2
		h-3.2v-10.7h2.8c0.3,0,0.6,0,1,0.1c0.4,0.1,0.7,0.2,1,0.4c0.3,0.2,0.5,0.5,0.7,0.8c0.2,0.3,0.3,0.8,0.3,1.3c0,0.7-0.1,1.2-0.4,1.6
		c-0.3,0.4-0.6,0.6-1,0.8v0c0.2,0.1,0.4,0.1,0.6,0.3c0.2,0.1,0.4,0.3,0.6,0.5c0.2,0.2,0.3,0.5,0.4,0.8
		C112.7,197.6,112.7,198,112.7,198.4z M110.7,193.7c0-0.3,0-0.5-0.1-0.7c-0.1-0.2-0.2-0.3-0.3-0.5c-0.1-0.1-0.3-0.2-0.5-0.2
		c-0.2-0.1-0.4-0.1-0.6-0.1h-1v3h1c0.2,0,0.4,0,0.5-0.1c0.2-0.1,0.3-0.1,0.5-0.3c0.1-0.1,0.2-0.3,0.3-0.5
		C110.7,194.2,110.7,194,110.7,193.7z M111,198.2c0-0.3-0.1-0.6-0.2-0.8c-0.1-0.2-0.2-0.4-0.4-0.5c-0.2-0.1-0.3-0.2-0.5-0.3
		c-0.2-0.1-0.4-0.1-0.6-0.1h-1.1v3.3h1.1c0.2,0,0.4,0,0.6-0.1c0.2-0.1,0.4-0.2,0.5-0.3c0.1-0.1,0.3-0.3,0.3-0.5
		C111,198.8,111,198.5,111,198.2z"/>
	<path class="st0" d="M114.4,201.4v-10.7h4.8v1.6h-3v2.8h2.8v1.5h-2.8v3.2h3.2v1.6H114.4z"/>
	<path class="st0" d="M125.2,192.8c-0.4-0.5-0.9-0.7-1.5-0.7c-0.2,0-0.3,0-0.5,0.1c-0.2,0.1-0.3,0.1-0.4,0.3
		c-0.1,0.1-0.2,0.3-0.3,0.5s-0.1,0.4-0.1,0.7c0,0.5,0.1,0.8,0.4,1c0.3,0.2,0.6,0.5,1.1,0.7c0.3,0.1,0.5,0.3,0.8,0.5
		c0.3,0.2,0.5,0.4,0.7,0.6c0.2,0.2,0.4,0.5,0.5,0.9c0.1,0.3,0.2,0.7,0.2,1.2c0,0.5-0.1,1-0.2,1.4c-0.2,0.4-0.4,0.7-0.7,1
		c-0.3,0.3-0.6,0.5-1,0.6c-0.4,0.1-0.8,0.2-1.2,0.2c-0.6,0-1.1-0.1-1.6-0.3c-0.5-0.2-0.9-0.5-1.2-0.9l1-1.3c0.2,0.3,0.5,0.5,0.8,0.7
		c0.3,0.2,0.7,0.2,1,0.2c0.4,0,0.7-0.1,0.9-0.4c0.3-0.3,0.4-0.6,0.4-1.1c0-0.5-0.2-0.8-0.5-1.1c-0.3-0.3-0.7-0.5-1.1-0.8
		c-0.3-0.1-0.6-0.3-0.8-0.5c-0.3-0.2-0.5-0.4-0.7-0.6c-0.2-0.2-0.4-0.5-0.5-0.8c-0.1-0.3-0.2-0.7-0.2-1.1c0-0.6,0.1-1,0.3-1.4
		c0.2-0.4,0.4-0.7,0.7-1c0.3-0.3,0.6-0.5,1-0.6c0.4-0.1,0.7-0.2,1.1-0.2c0.5,0,1,0.1,1.5,0.3c0.4,0.2,0.8,0.4,1.1,0.8L125.2,192.8z"
		/>
	<path class="st0" d="M130.3,192.2v9.1h-1.8v-9.1h-2v-1.5h5.8v1.5H130.3z"/>
	<path class="st0" d="M137.8,192.3v2.9h2.7v1.5h-2.7v4.6h-1.8v-10.7h4.8v1.6H137.8z"/>
	<path class="st0" d="M142.2,201.4v-10.7h1.8v10.7H142.2z"/>
	<path class="st0" d="M146.2,201.4v-10.7h1.8v9h2.9v1.7H146.2z"/>
	<path class="st0" d="M159.5,201.4l0-8.2h0l-2.1,8.2h-1.4l-2.1-8.2h0l0,8.2h-1.6v-10.7h2.4l2.1,7.8h0.1l2-7.8h2.5v10.7H159.5z"/>
</g>
<g>
	<path class="st0" d="M109.8,213c0-2.1,0.6-3.7,1.7-4.8c1-1,2.3-1.5,3.8-1.5c1.5,0,2.7,0.5,3.7,1.6c1,1.1,1.5,2.4,1.5,3.8
		c0,1.5-0.3,3-1,4.4c-0.4,0.8-1.2,2.1-2.6,4c-0.4,0.5-0.9,1.3-1.6,2.4l-0.6,0.9c-0.4,0.6-0.7,1.1-0.9,1.4c-0.1,0.2-0.1,0.3-0.1,0.3
		h6.6v3.3h-10.6v-3.1c0-0.1,0.2-0.5,0.7-1.2c0.2-0.3,0.5-0.7,0.8-1.1l0.9-1.3c0.5-0.7,1.3-1.8,2.4-3.3c1-1.4,1.8-2.7,2.3-3.9
		c0.4-1,0.6-1.8,0.6-2.7c0-0.7-0.2-1.2-0.6-1.7c-0.4-0.5-0.9-0.7-1.6-0.7c-0.9,0-1.6,0.5-2,1.6c-0.1,0.4-0.2,0.8-0.2,1.3v0.8h-3.3
		V213z"/>
	<path class="st0" d="M134,223.8c0,1.5-0.5,2.7-1.6,3.7c-1,1-2.3,1.5-3.7,1.5c-1.5,0-2.7-0.5-3.8-1.5c-1-1-1.5-2.3-1.5-3.7v-12.1
		c0-1.5,0.5-2.7,1.6-3.8c1-1,2.3-1.5,3.7-1.5c1.5,0,2.7,0.5,3.7,1.6c1,1,1.5,2.3,1.5,3.7V223.8z M130.5,211.7c0-0.5-0.2-1-0.6-1.4
		c-0.4-0.4-0.8-0.6-1.4-0.6c-0.5,0-1,0.2-1.4,0.6c-0.4,0.4-0.6,0.8-0.6,1.4v12.1c0,0.5,0.2,1,0.6,1.4c0.4,0.4,0.8,0.6,1.4,0.6
		c0.5,0,1-0.2,1.4-0.6c0.4-0.4,0.6-0.8,0.6-1.4V211.7z"/>
	<path class="st0" d="M139.5,228.9v-17h-2.8v-2.3c0.8-0.1,1.6-0.4,2.3-0.9c0.7-0.5,1.2-1.1,1.6-1.9h2.3v22.1H139.5z"/>
	<path class="st0" d="M156.6,223.8c0,1.5-0.5,2.7-1.6,3.7c-1,1-2.3,1.5-3.7,1.5H151c-1.5,0-2.7-0.5-3.7-1.6c-1-1-1.5-2.3-1.5-3.7v-2
		c0-1.4,0.5-2.5,1.4-3.5c0.4-0.4,0.8-0.8,1.4-1.1c-0.9-0.5-1.6-1.2-2.1-2.3c-0.2-0.6-0.4-1.2-0.4-2.1v-1.2c0-1.4,0.4-2.6,1.3-3.6
		c0.9-1.1,2.2-1.6,3.7-1.6h0.3c1.6,0,2.8,0.5,3.8,1.6c0.8,1,1.3,2.1,1.3,3.6v1.2c0,1.4-0.4,2.5-1.2,3.4c-0.4,0.4-0.8,0.7-1.2,1
		c1,0.6,1.8,1.4,2.3,2.5c0.3,0.6,0.4,1.3,0.4,2.1V223.8z M153.4,212.5c0-1.5-0.5-2.5-1.4-2.9c-0.2-0.1-0.5-0.1-0.8-0.1
		c-0.6,0-1,0.2-1.4,0.5c-0.3,0.3-0.5,0.6-0.6,1c-0.1,0.4-0.2,0.9-0.2,1.5c0,1,0.2,1.7,0.5,2.1c0.4,0.6,0.9,0.8,1.7,0.8
		c0.8,0,1.4-0.3,1.7-0.9C153.2,214,153.4,213.4,153.4,212.5z M153.3,222.2c0-1.3-0.3-2.2-0.9-2.6c-0.3-0.2-0.7-0.3-1.2-0.3
		c-0.9,0-1.5,0.4-1.8,1.1c-0.2,0.5-0.3,1.1-0.3,1.8v1.1c0,0.7,0.2,1.3,0.7,1.8c0.4,0.4,0.8,0.6,1.4,0.6c0.9,0,1.5-0.5,1.9-1.3
		c0.1-0.3,0.2-0.6,0.2-1V222.2z"/>
</g>
</svg>
