<?xml version="1.0" encoding="utf-8"?>
<!-- Generator: Adobe Illustrator 22.0.1, SVG Export Plug-In . SVG Version: 6.00 Build 0)  -->
<svg version="1.1" id="Layer_1" xmlns="http://www.w3.org/2000/svg" xmlns:xlink="http://www.w3.org/1999/xlink" x="0px" y="0px"
	 viewBox="0 0 267 273.5" style="enable-background:new 0 0 267 273.5;" xml:space="preserve">
<style type="text/css">
	.st0{fill:#FFFFFF;}
</style>
<g>
	<path class="st0" d="M28.8,74.7c1-3.6,0.5-4.6,0.1-6.7c-0.3-2-0.6-5.1,2.7-12.8c0.1,0-3.3,3.9-5.5,9.4c-2.3,5.4-3.4,12.2-1,16.7
		c8.7-0.4,18.7-11.4,19.1-11.2C32.8,75.6,34,70.5,28.8,74.7"/>
	<path class="st0" d="M20.7,91.7c0.2-3.9-0.5-4.8-1.3-6.7c-0.8-2-1.7-5-0.1-13.6c0,0-2.4,4.7-3.5,10.8c-1.1,6-0.8,13.2,2.6,17.1
		c8.9-2.7,16.5-16,16.9-15.9C25,91.6,25,86.2,20.7,91.7"/>
	<path class="st0" d="M16.2,109.9c-0.5-4-1.4-4.8-2.7-6.5c-1.2-1.8-2.8-4.6-2.9-13.8c0-0.1-1.5,5.4-1.3,11.8
		c0.1,6.4,1.8,13.7,6.1,16.8c8.6-5.1,13.6-20.3,14-20.3C20.6,108.7,19.5,103.3,16.2,109.9"/>
	<path class="st0" d="M15.2,128.7c-1.3-4-2.4-4.5-4-6c-1.6-1.5-3.7-4-5.6-13.4c0-0.1-0.5,5.9,0.9,12.4c1.3,6.5,4.5,13.6,9.4,15.6
		c7.8-7.5,10-24.1,10.5-24.1C19.5,126.3,17.4,121.2,15.2,128.7"/>
	<path class="st0" d="M17.6,147.3c-3.7-8-5.8,0.3-13.3-17.5c0-0.1,0.5,6.2,3.1,12.6c2.5,6.4,7.1,12.8,12.5,13.6
		c3.5-4.9,4.6-11.7,5.4-17.2c0.7-5.6,0.9-10,0.9-10C21.5,143.7,18.4,139.1,17.6,147.3"/>
	<path class="st0" d="M23.2,165c-5.3-7.2-5.9,1.8-16.8-14.6c0-0.1,1.6,6.3,5.5,12.2c3.7,6,9.6,11.4,15.4,10.8
		c2.6-5.9,2.5-13.1,2.3-19c-0.3-5.9-0.8-10.4-0.9-10.5C26.5,160.2,22.5,156.3,23.2,165"/>
	<path class="st0" d="M32,181c-3.5-2.7-4.8-2.3-7.2-2.4c-2.3-0.2-5.8-0.9-12.7-8.4c0-0.1,2.8,6.1,7.8,11.2
		c4.9,5.2,12.1,9.3,17.9,7.2c1.5-6.8-0.1-14.1-1.4-20c-1.4-5.9-2.7-10.4-2.8-10.5c0,8.5-0.6,12.2-1.4,14.7
		C31.5,175.2,30.4,176.6,32,181"/>
	<path class="st0" d="M43.6,194.6c-4.2-1.8-5.4-1.2-7.9-0.7c-2.4,0.3-6.2,0.5-14.7-5.5c0-0.1,4,5.6,10.2,9.6
		c6.1,4.1,14.4,6.5,20,2.8c0-7.3-3.1-14.3-5.6-20.1c-2.6-5.7-4.7-10-4.8-10c1.6,8.7,1.7,12.6,1.3,15.3
		C41.9,188.8,41.2,190.4,43.6,194.6"/>
	<path class="st0" d="M58.2,205c-4.8-0.8-5.9,0.2-8.4,1.3c-2.5,1-6.3,2.1-16.4-2c0-0.1,5.2,4.8,12.6,7.3c7.3,2.7,16.7,2.9,21.7-2.3
		c-1.8-7.4-6.6-13.7-10.5-18.9c-3.9-5.1-6.9-9-7-8.9c3.3,8.4,4.3,12.4,4.5,15.3C55.1,199.6,54.6,201.4,58.2,205"/>
	<path class="st0" d="M75.4,211.5c-5.4,0.5-6.3,1.7-8.7,3.5c-2.4,1.6-6.3,3.8-17.8,2c-0.1-0.1,6.5,3.6,15,4.3
		c8.4,0.9,18.7-1.4,23-8.1c-3.9-6.9-10.7-12.1-15.9-16.3c-5.3-4.1-9.1-7.3-9.3-7.3c5.2,7.7,7.3,11.5,8.1,14.4
		C70.8,206.8,70.7,208.8,75.4,211.5"/>
	<path class="st0" d="M42.5,53.1c-4.6,4-7.3,9.1-7.9,13.5c3.8-1.2,7.9-3.7,12.1-7.3c4.2-3.6,7.7-7.7,10.1-11.8
		C52.5,47.2,47.1,49.1,42.5,53.1"/>
</g>
<g>
	<path class="st0" d="M236.1,74.7c-1-3.6-0.5-4.6-0.1-6.7c0.3-2,0.6-5.1-2.7-12.8c-0.1,0,3.3,3.9,5.5,9.4c2.3,5.4,3.4,12.2,1,16.7
		c-8.7-0.4-18.7-11.4-19.1-11.2C232.1,75.6,230.9,70.5,236.1,74.7"/>
	<path class="st0" d="M244.2,91.7c-0.2-3.9,0.5-4.8,1.3-6.7c0.8-2,1.7-5,0.1-13.6c0,0,2.4,4.7,3.5,10.8c1.1,6,0.8,13.2-2.6,17.1
		c-8.9-2.7-16.5-16-16.9-15.9C239.9,91.6,239.9,86.2,244.2,91.7"/>
	<path class="st0" d="M248.7,109.9c0.5-4,1.4-4.8,2.7-6.5c1.2-1.8,2.8-4.6,2.9-13.8c0-0.1,1.5,5.4,1.3,11.8
		c-0.1,6.4-1.8,13.7-6.1,16.8c-8.6-5.1-13.6-20.3-14-20.3C244.3,108.7,245.4,103.3,248.7,109.9"/>
	<path class="st0" d="M249.7,128.7c1.3-4,2.4-4.5,4-6c1.6-1.5,3.7-4,5.6-13.4c0-0.1,0.5,5.9-0.9,12.4c-1.3,6.5-4.5,13.6-9.4,15.6
		c-7.8-7.5-10-24.1-10.5-24.1C245.4,126.3,247.6,121.2,249.7,128.7"/>
	<path class="st0" d="M247.3,147.3c3.7-8,5.8,0.3,13.3-17.5c0-0.1-0.5,6.2-3.1,12.6c-2.5,6.4-7.1,12.8-12.5,13.6
		c-3.5-4.9-4.6-11.7-5.4-17.2c-0.7-5.6-0.9-10-0.9-10C243.4,143.7,246.5,139.1,247.3,147.3"/>
	<path class="st0" d="M241.7,165c5.3-7.2,5.9,1.8,16.8-14.6c0-0.1-1.6,6.3-5.5,12.2c-3.7,6-9.6,11.4-15.4,10.8
		c-2.6-5.9-2.5-13.1-2.3-19c0.3-5.9,0.8-10.4,0.9-10.5C238.4,160.2,242.4,156.3,241.7,165"/>
	<path class="st0" d="M233,181c3.5-2.7,4.8-2.3,7.2-2.4c2.3-0.2,5.8-0.9,12.7-8.4c0-0.1-2.8,6.1-7.8,11.2
		c-4.9,5.2-12.1,9.3-17.9,7.2c-1.5-6.8,0.1-14.1,1.4-20c1.4-5.9,2.7-10.4,2.8-10.5c0,8.5,0.6,12.2,1.4,14.7
		C233.5,175.2,234.5,176.6,233,181"/>
	<path class="st0" d="M221.3,194.6c4.2-1.8,5.4-1.2,7.9-0.7c2.4,0.3,6.2,0.5,14.7-5.5c0-0.1-4,5.6-10.2,9.6
		c-6.1,4.1-14.4,6.5-20,2.8c0-7.3,3.1-14.3,5.6-20.1c2.6-5.7,4.7-10,4.8-10c-1.6,8.7-1.7,12.6-1.3,15.3
		C223,188.8,223.8,190.4,221.3,194.6"/>
	<path class="st0" d="M206.8,205c4.8-0.8,5.9,0.2,8.4,1.3c2.5,1,6.3,2.1,16.4-2c0-0.1-5.2,4.8-12.6,7.3c-7.3,2.7-16.7,2.9-21.7-2.3
		c1.8-7.4,6.6-13.7,10.5-18.9c3.9-5.1,6.9-9,7-8.9c-3.3,8.4-4.3,12.4-4.5,15.3C209.8,199.6,210.3,201.4,206.8,205"/>
	<path class="st0" d="M189.6,211.5c5.4,0.5,6.3,1.7,8.7,3.5c2.4,1.6,6.3,3.8,17.8,2c0.1-0.1-6.5,3.6-15,4.3
		c-8.4,0.9-18.7-1.4-23-8.1c3.9-6.9,10.7-12.1,15.9-16.3c5.3-4.1,9.1-7.3,9.3-7.3c-5.2,7.7-7.3,11.5-8.1,14.4
		C194.1,206.8,194.3,208.8,189.6,211.5"/>
	<path class="st0" d="M222.4,53.1c4.6,4,7.3,9.1,7.9,13.5c-3.8-1.2-7.9-3.7-12.1-7.3c-4.2-3.6-7.7-7.7-10.1-11.8
		C212.4,47.2,217.8,49.1,222.4,53.1"/>
</g>
<g>
	<path class="st0" d="M59.3,147.8c0-0.1,0-0.2,0.1-0.3c0.1-0.1,0.1-0.1,0.2-0.1h8c0.1,0,0.2,0,0.3,0.1c0.1,0.1,0.1,0.2,0.1,0.3v2.1
		c0,0.1,0,0.2-0.1,0.3c-0.1,0.1-0.2,0.1-0.3,0.1h-5.1v2.6h3.8c0.1,0,0.2,0,0.3,0.1c0.1,0.1,0.1,0.2,0.1,0.3v2c0,0.1,0,0.2-0.1,0.3
		c-0.1,0.1-0.2,0.1-0.3,0.1h-3.8v3.8c0,0.2-0.1,0.4-0.4,0.4h-2.6c-0.2,0-0.3-0.1-0.3-0.4V147.8z"/>
	<path class="st0" d="M71.6,147.8c0-0.1,0-0.2,0.1-0.3c0.1-0.1,0.2-0.1,0.3-0.1h2.5c0.1,0,0.2,0,0.3,0.1c0.1,0.1,0.1,0.2,0.1,0.3
		v11.7c0,0.2-0.1,0.4-0.4,0.4H72c-0.2,0-0.4-0.1-0.4-0.4V147.8z"/>
	<path class="st0" d="M78.7,147.8c0-0.1,0-0.2,0.1-0.3c0.1-0.1,0.2-0.1,0.3-0.1h2.5c0.1,0,0.2,0,0.3,0.1c0.1,0.1,0.1,0.2,0.1,0.3
		v9.1h4.6c0.1,0,0.2,0,0.3,0.1c0.1,0.1,0.1,0.2,0.1,0.3v2.2c0,0.1,0,0.2-0.1,0.3c-0.1,0.1-0.2,0.1-0.3,0.1h-7.5
		c-0.2,0-0.4-0.1-0.4-0.4V147.8z"/>
	<path class="st0" d="M91.1,147.8c0-0.1,0-0.2,0.1-0.3c0.1-0.1,0.2-0.1,0.3-0.1h2.9c0.2,0,0.3,0.1,0.4,0.3l2.3,7.6l2.3-7.6
		c0.1-0.2,0.2-0.3,0.4-0.3h2.9c0.1,0,0.2,0,0.3,0.1c0.1,0.1,0.1,0.2,0.1,0.3c0.2,2,0.4,3.9,0.6,5.9c0.2,1.9,0.4,3.9,0.6,5.9v0
		c0,0.2-0.1,0.3-0.4,0.3h-2.4c-0.3,0-0.4-0.1-0.4-0.4l-0.7-6.5l-1.9,6.5c0,0.1,0,0.1-0.1,0.2c-0.1,0.1-0.1,0.1-0.2,0.1H96
		c-0.1,0-0.1,0-0.2-0.1c-0.1-0.1-0.1-0.1-0.1-0.2l-1.9-6.5l-0.7,6.5c0,0.2-0.2,0.4-0.4,0.4h-2.4c-0.2,0-0.4-0.1-0.4-0.4L91.1,147.8z
		"/>
	<path class="st0" d="M114.7,147.8c0-0.1,0-0.2,0.1-0.3c0.1-0.1,0.1-0.1,0.2-0.1h8c0.1,0,0.2,0,0.3,0.1c0.1,0.1,0.1,0.2,0.1,0.3v2.1
		c0,0.1,0,0.2-0.1,0.3c-0.1,0.1-0.2,0.1-0.3,0.1h-5.1v2.6h3.8c0.1,0,0.2,0,0.3,0.1c0.1,0.1,0.1,0.2,0.1,0.3v2c0,0.1,0,0.2-0.1,0.3
		c-0.1,0.1-0.2,0.1-0.3,0.1h-3.8v3.8c0,0.2-0.1,0.4-0.4,0.4H115c-0.2,0-0.3-0.1-0.3-0.4V147.8z"/>
	<path class="st0" d="M127,147.8c0-0.1,0-0.2,0.1-0.3c0.1-0.1,0.2-0.1,0.3-0.1h8.3c0.1,0,0.2,0,0.3,0.1c0.1,0.1,0.1,0.2,0.1,0.3v2.1
		c0,0.1,0,0.2-0.1,0.3c-0.1,0.1-0.2,0.1-0.3,0.1h-5.4v2.1h4.2c0.1,0,0.2,0,0.3,0.1c0.1,0,0.1,0.1,0.1,0.3v1.8c0,0.1,0,0.2-0.1,0.2
		c-0.1,0.1-0.1,0.1-0.3,0.1h-4.2v2.2h5.6c0.3,0,0.4,0.1,0.4,0.4v2.1c0,0.1,0,0.1-0.1,0.2c0,0.2-0.1,0.2-0.3,0.2h-8.5
		c-0.1,0-0.2,0-0.3-0.1c-0.1-0.1-0.1-0.1-0.1-0.3V147.8z"/>
	<path class="st0" d="M141.3,155.9c0.1,0.1,0.2,0.2,0.4,0.3c0.1,0.1,0.3,0.3,0.5,0.4c0.3,0.2,0.6,0.3,0.8,0.4
		c0.3,0.1,0.6,0.2,0.9,0.2c0.3,0,0.5,0,0.7-0.1c0.2-0.1,0.3-0.1,0.5-0.3c0.1-0.1,0.2-0.2,0.2-0.4c0-0.1,0.1-0.3,0.1-0.4
		c0-0.2-0.1-0.3-0.2-0.5c-0.1-0.1-0.3-0.3-0.5-0.4c-0.2-0.1-0.4-0.2-0.6-0.3c-0.2-0.1-0.4-0.1-0.5-0.2c-0.7-0.2-1.3-0.5-1.8-0.8
		c-0.5-0.3-0.9-0.6-1.3-0.9c-0.3-0.3-0.6-0.7-0.8-1.1c-0.2-0.4-0.3-0.8-0.3-1.3c0-0.5,0.1-1,0.3-1.4c0.2-0.4,0.5-0.8,0.9-1.1
		c0.4-0.3,0.9-0.5,1.4-0.7c0.5-0.2,1.2-0.2,1.8-0.2c0.5,0,1,0.1,1.5,0.2c0.5,0.1,0.9,0.3,1.4,0.5c0.2,0.1,0.4,0.2,0.5,0.4
		c0.2,0.1,0.3,0.2,0.4,0.3c0.1,0.1,0.2,0.2,0.3,0.3c0.1,0.1,0.1,0.2,0.1,0.3c0,0.1,0,0.1-0.1,0.2c0,0.1-0.1,0.1-0.2,0.2l-1.3,1.4
		c-0.1,0.1-0.2,0.1-0.3,0.1c-0.1,0-0.1,0-0.2-0.1c-0.1,0-0.1-0.1-0.2-0.2l-0.1-0.1c-0.1-0.1-0.2-0.2-0.4-0.3
		c-0.1-0.1-0.3-0.2-0.4-0.3c-0.2-0.1-0.3-0.1-0.5-0.2c-0.2-0.1-0.3-0.1-0.5-0.1c-0.2,0-0.4,0-0.5,0c-0.2,0-0.3,0.1-0.4,0.1
		c-0.1,0.1-0.2,0.2-0.3,0.3c-0.1,0.1-0.1,0.2-0.1,0.4c0,0.2,0,0.3,0.1,0.4c0.1,0.1,0.2,0.2,0.4,0.3c0.2,0.1,0.4,0.2,0.6,0.3
		c0.2,0.1,0.5,0.2,0.8,0.3c0.6,0.2,1.1,0.4,1.6,0.6c0.5,0.2,0.9,0.5,1.3,0.8c0.4,0.3,0.7,0.6,0.9,1.1c0.2,0.4,0.3,0.9,0.3,1.5
		c0,0.6-0.1,1.2-0.4,1.7c-0.3,0.5-0.6,0.9-1,1.3c-0.4,0.4-1,0.6-1.6,0.8c-0.6,0.2-1.2,0.3-1.9,0.3c-0.6,0-1.3-0.1-1.9-0.3
		c-0.6-0.2-1.2-0.5-1.7-0.9c-0.2-0.2-0.4-0.3-0.6-0.5c-0.2-0.2-0.3-0.3-0.4-0.4l0,0c0,0,0,0,0,0c0,0,0,0,0,0c0,0,0,0,0,0
		c0,0,0,0,0,0c-0.1-0.1-0.2-0.3-0.2-0.3c0-0.1,0.1-0.2,0.2-0.3l1.5-1.4c0.1-0.1,0.2-0.1,0.3-0.1c0,0,0.1,0,0.2,0.1
		C141.2,155.8,141.2,155.8,141.3,155.9"/>
	<path class="st0" d="M151.5,147.8c0-0.1,0-0.2,0.1-0.3c0.1-0.1,0.2-0.1,0.3-0.1h9c0.1,0,0.2,0,0.3,0.1c0.1,0.1,0.1,0.2,0.1,0.3v2.1
		c0,0.1,0,0.2-0.1,0.3c-0.1,0.1-0.2,0.1-0.3,0.1H158v9.2c0,0.1,0,0.2-0.1,0.3c-0.1,0.1-0.2,0.1-0.3,0.1h-2.5c-0.1,0-0.2,0-0.3-0.1
		c-0.1-0.1-0.1-0.2-0.1-0.3v-9.2h-2.9c-0.1,0-0.2,0-0.3-0.1c-0.1-0.1-0.1-0.2-0.1-0.3V147.8z"/>
	<path class="st0" d="M164.8,147.8c0-0.1,0-0.2,0.1-0.3c0.1-0.1,0.2-0.1,0.3-0.1h2.5c0.1,0,0.2,0,0.3,0.1c0.1,0.1,0.1,0.2,0.1,0.3
		v11.7c0,0.2-0.1,0.4-0.4,0.4h-2.5c-0.2,0-0.4-0.1-0.4-0.4V147.8z"/>
	<path class="st0" d="M175.7,159.8c-0.1-0.1-0.1-0.2-0.2-0.3c0-0.1-0.1-0.2-0.1-0.3l-4.3-11.3c0,0,0-0.1,0-0.1c0,0,0,0,0-0.1
		c0-0.2,0.1-0.2,0.3-0.2h2.7c0.2,0,0.4,0.1,0.4,0.3l2.6,7.6c0.2-0.6,0.4-1.3,0.7-1.9c0.2-0.6,0.4-1.3,0.6-1.9
		c0.2-0.6,0.4-1.3,0.6-1.9c0.2-0.6,0.4-1.3,0.7-1.9c0.1-0.2,0.2-0.3,0.5-0.3h2.6c0.1,0,0.2,0,0.3,0.1c0.1,0.1,0.1,0.1,0.1,0.2
		c0,0,0,0.1,0,0.1v0l-4.3,11.3c0,0.1-0.1,0.2-0.1,0.3c0,0.1-0.1,0.2-0.1,0.3c-0.1,0.1-0.1,0.2-0.2,0.2c-0.1,0.1-0.1,0.1-0.2,0.1H176
		C175.8,159.9,175.7,159.9,175.7,159.8"/>
	<path class="st0" d="M187.5,147.8c0,0,0-0.1,0.1-0.1c0,0,0.1-0.1,0.1-0.1c0,0,0.1-0.1,0.1-0.1c0.1,0,0.1,0,0.1,0h2.2
		c0.1,0,0.2,0,0.2,0.1c0.1,0.1,0.1,0.1,0.1,0.2l0.2,0.5l4.4,11.4c0,0.1,0,0.2,0,0.3c-0.1,0.1-0.2,0.1-0.3,0.1h-2.4
		c-0.1,0-0.2,0-0.3-0.1c-0.1,0-0.1-0.1-0.2-0.2c-0.1-0.3-0.2-0.6-0.3-0.9c-0.1-0.3-0.2-0.6-0.3-0.9h-4.5c-0.1,0.3-0.2,0.6-0.3,0.9
		c-0.1,0.3-0.2,0.6-0.3,0.9c-0.1,0.2-0.2,0.3-0.4,0.3h-2.5c-0.1,0-0.2,0-0.3-0.1c-0.1-0.1-0.1-0.1,0-0.2L187.5,147.8z M189,151.4
		c-0.1,0.3-0.2,0.6-0.3,0.9c-0.1,0.3-0.2,0.7-0.3,1c-0.1,0.3-0.2,0.7-0.3,1c-0.1,0.3-0.2,0.6-0.3,0.9h2.6L189,151.4z"/>
	<path class="st0" d="M197.9,147.8c0-0.1,0-0.2,0.1-0.3c0.1-0.1,0.2-0.1,0.3-0.1h2.5c0.1,0,0.2,0,0.3,0.1c0.1,0.1,0.1,0.2,0.1,0.3
		v9.1h4.6c0.1,0,0.2,0,0.3,0.1c0.1,0.1,0.1,0.2,0.1,0.3v2.2c0,0.1,0,0.2-0.1,0.3c-0.1,0.1-0.2,0.1-0.3,0.1h-7.5
		c-0.2,0-0.4-0.1-0.4-0.4V147.8z"/>
	<path class="st0" d="M83,130.4c0.4,0,0.7,0.3,0.7,0.6v12c0,0.4-0.3,0.7-0.7,0.7H60c-0.4,0-0.7-0.4-0.7-0.8V96.4
		c0-0.4,0.4-0.9,0.8-0.9H71c0.4,0,0.6,0.3,0.6,0.7V130c0,0.3,0.2,0.5,0.4,0.5H83z"/>
	<path class="st0" d="M103.5,95.5c0.5,0,0.8,0.4,0.8,0.8l8.8,46c0.1,0.7-0.2,1.4-0.9,1.4h-10.4c-0.4,0-0.8-0.3-0.8-0.6l-1.3-9.6
		c-0.1-0.3-0.3-0.5-0.6-0.5h-3.5c-0.3,0-0.5,0.3-0.6,0.6l-1.2,9.5c-0.1,0.5-0.5,0.7-0.8,0.7H82.3c-0.6,0-0.9-0.4-0.8-1.1l8.6-46.4
		c0.1-0.3,0.4-0.8,0.8-0.8H103.5z M97.8,119.7c-0.1-0.9-0.3-1.5-0.5-1.5c-0.2,0-0.3,0.4-0.5,1.5l-0.8,6.1c-0.1,0.3,0.1,0.6,0.4,0.6
		c2.1,0,2.3,0,2.2-0.6L97.8,119.7z"/>
	<path class="st0" d="M115.3,143.7c-0.5,0-0.9-0.4-0.9-0.9v-33.6c0-0.5-0.4-0.8-0.8-0.8h-6.4c-0.4,0-0.8-0.5-0.8-0.9V96.1
		c0-0.4,0.2-0.6,0.6-0.6h27.5c0.4,0,0.8,0.3,0.8,0.8v11.3c0,0.5-0.4,0.9-0.9,0.9h-6.4c-0.5,0-0.8,0.3-0.8,0.9v33.5
		c0,0.5-0.4,0.8-0.9,0.8H115.3z"/>
	<path class="st0" d="M137.6,143.7c-0.4,0-0.8-0.4-0.8-1V96.1c0-0.3,0.3-0.6,0.6-0.6h11c0.5,0,0.8,0.3,0.8,0.6v46.8
		c0,0.4-0.3,0.8-0.8,0.8H137.6z"/>
	<path class="st0" d="M150.6,96.3c0-0.4,0.3-0.8,0.7-0.8h10.9c0.4,0,0.8,0.3,0.9,0.8l3.9,14.5c0.1,0.5,0.3,0.8,0.5,0.8
		c0.2,0,0.4-0.3,0.4-0.8V96.3c0-0.4,0.3-0.8,0.8-0.8h9.6c0.5,0,0.8,0.4,0.8,0.9v46.5c0,0.5-0.3,0.8-0.7,0.8h-12
		c-0.3,0-0.6-0.3-0.7-0.6l-2.8-11.6c-0.1-0.6-0.4-0.9-0.6-0.9c-0.2,0-0.3,0.3-0.3,0.9v11.4c0,0.5-0.4,0.8-0.8,0.8h-9.8
		c-0.4,0-0.6-0.4-0.6-0.9V96.3z"/>
	<path class="st0" d="M180.4,110.1c0-10,6.2-14.8,13.4-14.8c7.1,0,13.4,4.8,13.4,14.8v19c0,9.9-6.3,14.7-13.4,14.7
		c-7.1,0-13.4-4.8-13.4-14.7V110.1z M192.8,129c0,1,0.3,1.7,1,1.7c0.7,0,1-0.7,1-1.7v-18.7c0-0.8-0.3-1.7-1-1.7c-0.7,0-1,0.8-1,1.7
		V129z"/>
	<path class="st0" d="M59.2,72.4c0-0.2,0.1-0.3,0.2-0.4c0.1-0.1,0.2-0.2,0.4-0.2h4.1c0.1,0,0.3,0.1,0.4,0.2c0.1,0.1,0.2,0.3,0.2,0.4
		v6.6h6.9v-6.6c0-0.2,0.1-0.3,0.2-0.4c0.1-0.1,0.3-0.2,0.5-0.2h4.1c0.2,0,0.3,0,0.5,0.1c0.1,0.1,0.2,0.2,0.2,0.4v19.5
		c0,0.2-0.1,0.4-0.2,0.5c-0.1,0.1-0.3,0.2-0.5,0.2h-4.1c-0.2,0-0.3-0.1-0.5-0.2c-0.1-0.1-0.2-0.3-0.2-0.5V84h-6.9v7.9
		c0,0.2-0.1,0.3-0.2,0.5c-0.1,0.1-0.3,0.2-0.5,0.2h-4.1c-0.4,0-0.6-0.2-0.6-0.5V72.4z"/>
	<path class="st0" d="M80.8,82.2c0-1,0.1-1.9,0.4-2.8c0.3-0.9,0.6-1.8,1.1-2.6c0.5-0.8,1-1.5,1.7-2.2c0.6-0.7,1.4-1.2,2.2-1.7
		c0.8-0.5,1.6-0.8,2.5-1.1c0.9-0.3,1.9-0.4,2.8-0.4c1,0,1.9,0.1,2.8,0.4c0.9,0.3,1.8,0.6,2.6,1.1c0.8,0.5,1.5,1,2.2,1.7
		c0.7,0.7,1.2,1.4,1.7,2.2c0.5,0.8,0.8,1.6,1.1,2.6c0.3,0.9,0.4,1.9,0.4,2.8c0,1-0.1,1.9-0.4,2.8c-0.3,0.9-0.6,1.8-1.1,2.5
		c-0.5,0.8-1,1.5-1.7,2.1c-0.7,0.6-1.4,1.2-2.2,1.7c-0.8,0.5-1.6,0.8-2.6,1.1c-0.9,0.2-1.9,0.4-2.8,0.4c-1,0-1.9-0.1-2.8-0.4
		c-0.9-0.3-1.8-0.6-2.5-1.1c-0.8-0.5-1.5-1-2.2-1.7c-0.6-0.6-1.2-1.4-1.7-2.1c-0.5-0.8-0.8-1.6-1.1-2.5
		C80.9,84.1,80.8,83.2,80.8,82.2 M86.2,82.2c0,0.8,0.1,1.5,0.4,2.2c0.3,0.7,0.6,1.3,1.1,1.8c0.5,0.5,1,0.9,1.7,1.2
		c0.6,0.3,1.3,0.4,2.1,0.4c0.8,0,1.5-0.1,2.1-0.4c0.6-0.3,1.2-0.7,1.7-1.2c0.5-0.5,0.8-1.1,1.1-1.8c0.3-0.7,0.4-1.4,0.4-2.2
		c0-0.8-0.1-1.5-0.4-2.2c-0.3-0.7-0.6-1.3-1.1-1.8c-0.5-0.5-1-0.9-1.7-1.2c-0.6-0.3-1.4-0.4-2.1-0.4c-0.8,0-1.5,0.1-2.1,0.4
		c-0.6,0.3-1.2,0.7-1.7,1.2c-0.5,0.5-0.8,1.1-1.1,1.8C86.3,80.7,86.2,81.4,86.2,82.2"/>
	<path class="st0" d="M111.2,84.3c0,0.7,0.1,1.3,0.3,1.8c0.2,0.5,0.4,0.9,0.8,1.2c0.3,0.3,0.7,0.5,1.1,0.7c0.4,0.1,0.8,0.2,1.3,0.2
		c0.5,0,0.9-0.1,1.3-0.2c0.4-0.2,0.8-0.4,1.1-0.7c0.3-0.3,0.6-0.7,0.7-1.2c0.2-0.5,0.3-1,0.3-1.6V72.4c0-0.2,0.1-0.3,0.2-0.4
		c0.1-0.1,0.3-0.2,0.5-0.2h4.1c0.2,0,0.4,0.1,0.5,0.2c0.1,0.1,0.2,0.3,0.2,0.4v11.8c0,1.6-0.2,3-0.7,4.1c-0.5,1.1-1.1,2-1.9,2.7
		c-0.8,0.7-1.7,1.2-2.8,1.4c-1.1,0.3-2.2,0.4-3.4,0.4c-1.2,0-2.3-0.1-3.4-0.5c-1.1-0.3-2-0.8-2.8-1.5c-0.8-0.7-1.5-1.6-1.9-2.7
		c-0.5-1.1-0.7-2.5-0.7-4.1V72.4c0-0.2,0.1-0.3,0.2-0.4c0.1-0.1,0.2-0.2,0.4-0.2h4.2c0.1,0,0.3,0.1,0.4,0.2c0.2,0.1,0.2,0.3,0.2,0.4
		V84.3z"/>
	<path class="st0" d="M130.4,85.8c0.2,0.1,0.4,0.3,0.6,0.5c0.2,0.2,0.5,0.4,0.8,0.6c0.5,0.3,0.9,0.6,1.4,0.7c0.5,0.2,1,0.3,1.5,0.3
		c0.5,0,0.9-0.1,1.2-0.2c0.3-0.1,0.6-0.3,0.8-0.4c0.2-0.2,0.3-0.4,0.4-0.6c0.1-0.2,0.1-0.5,0.1-0.7c0-0.3-0.1-0.5-0.3-0.8
		c-0.2-0.2-0.5-0.4-0.8-0.6c-0.3-0.2-0.6-0.3-1-0.5c-0.3-0.1-0.6-0.2-0.9-0.3c-1.1-0.4-2.1-0.8-2.9-1.3c-0.8-0.5-1.5-1-2.1-1.5
		c-0.6-0.6-1-1.2-1.3-1.8c-0.3-0.7-0.4-1.4-0.4-2.2c0-0.9,0.2-1.6,0.5-2.4c0.3-0.7,0.8-1.3,1.5-1.8c0.6-0.5,1.4-0.9,2.3-1.2
		c0.9-0.3,1.9-0.4,3.1-0.4c0.8,0,1.7,0.1,2.4,0.3c0.8,0.2,1.5,0.5,2.3,0.9c0.3,0.2,0.6,0.4,0.9,0.6c0.3,0.2,0.5,0.4,0.7,0.6
		c0.2,0.2,0.4,0.4,0.5,0.5c0.1,0.2,0.2,0.3,0.2,0.4c0,0.1,0,0.2-0.1,0.3c-0.1,0.1-0.2,0.2-0.3,0.3l-2.1,2.3
		c-0.2,0.2-0.3,0.2-0.5,0.2c-0.1,0-0.3,0-0.4-0.1c-0.1-0.1-0.2-0.2-0.4-0.3l-0.1-0.1c-0.2-0.2-0.4-0.3-0.6-0.5
		c-0.2-0.2-0.5-0.3-0.7-0.5c-0.3-0.1-0.5-0.2-0.8-0.3c-0.3-0.1-0.6-0.1-0.9-0.1c-0.3,0-0.6,0-0.9,0.1c-0.3,0.1-0.5,0.1-0.7,0.2
		c-0.2,0.1-0.4,0.3-0.5,0.4c-0.1,0.2-0.2,0.4-0.2,0.7c0,0.3,0.1,0.5,0.2,0.7c0.1,0.2,0.3,0.4,0.6,0.5c0.3,0.2,0.6,0.3,1,0.5
		c0.4,0.1,0.8,0.3,1.3,0.5c1,0.3,1.9,0.7,2.7,1c0.8,0.4,1.6,0.8,2.2,1.3c0.6,0.5,1.1,1.1,1.4,1.8c0.3,0.7,0.5,1.5,0.5,2.5
		c0,1-0.2,1.9-0.6,2.8c-0.4,0.8-1,1.5-1.7,2.1c-0.7,0.6-1.6,1-2.6,1.4c-1,0.3-2,0.5-3.2,0.5c-1.1,0-2.1-0.2-3.2-0.6
		c-1-0.4-2-0.9-2.9-1.5c-0.4-0.3-0.7-0.5-0.9-0.8c-0.3-0.3-0.5-0.5-0.6-0.6l0,0c0,0,0,0,0,0c0,0,0,0,0,0c0,0,0,0,0,0c0,0,0,0,0,0
		c-0.2-0.2-0.3-0.4-0.3-0.6c0-0.2,0.1-0.3,0.3-0.5l2.4-2.3c0.2-0.1,0.4-0.2,0.5-0.2c0.1,0,0.2,0,0.3,0.1
		C130.1,85.6,130.2,85.7,130.4,85.8"/>
	<path class="st0" d="M145.2,72.4c0-0.2,0.1-0.3,0.2-0.4c0.1-0.1,0.3-0.2,0.5-0.2h15c0.2,0,0.3,0.1,0.4,0.2c0.1,0.1,0.2,0.3,0.2,0.5
		v3.5c0,0.2-0.1,0.3-0.2,0.5c-0.1,0.2-0.3,0.2-0.5,0.2h-4.8v15.3c0,0.2-0.1,0.3-0.2,0.5c-0.1,0.1-0.3,0.2-0.5,0.2h-4.1
		c-0.2,0-0.3-0.1-0.4-0.2c-0.1-0.1-0.2-0.3-0.2-0.5V76.6h-4.8c-0.2,0-0.3-0.1-0.5-0.2c-0.1-0.1-0.2-0.3-0.2-0.5V72.4z"/>
	<path class="st0" d="M162.8,82.2c0-1,0.1-1.9,0.4-2.8c0.2-0.9,0.6-1.8,1.1-2.6c0.5-0.8,1-1.5,1.7-2.2c0.6-0.7,1.4-1.2,2.2-1.7
		c0.8-0.5,1.6-0.8,2.5-1.1c0.9-0.3,1.9-0.4,2.8-0.4c1,0,1.9,0.1,2.8,0.4c0.9,0.3,1.8,0.6,2.6,1.1c0.8,0.5,1.5,1,2.2,1.7
		c0.7,0.7,1.2,1.4,1.7,2.2c0.5,0.8,0.8,1.6,1.1,2.6c0.3,0.9,0.4,1.9,0.4,2.8c0,1-0.1,1.9-0.4,2.8c-0.3,0.9-0.6,1.8-1.1,2.5
		c-0.5,0.8-1,1.5-1.7,2.1c-0.7,0.6-1.4,1.2-2.2,1.7c-0.8,0.5-1.6,0.8-2.6,1.1c-0.9,0.2-1.9,0.4-2.8,0.4c-1,0-1.9-0.1-2.8-0.4
		c-0.9-0.3-1.8-0.6-2.5-1.1c-0.8-0.5-1.5-1-2.2-1.7c-0.6-0.6-1.2-1.4-1.7-2.1c-0.5-0.8-0.8-1.6-1.1-2.5
		C162.9,84.1,162.8,83.2,162.8,82.2 M168.2,82.2c0,0.8,0.1,1.5,0.4,2.2c0.3,0.7,0.6,1.3,1.1,1.8c0.5,0.5,1,0.9,1.7,1.2
		c0.6,0.3,1.3,0.4,2.1,0.4c0.8,0,1.5-0.1,2.1-0.4c0.6-0.3,1.2-0.7,1.7-1.2c0.5-0.5,0.8-1.1,1.1-1.8c0.3-0.7,0.4-1.4,0.4-2.2
		c0-0.8-0.1-1.5-0.4-2.2c-0.3-0.7-0.6-1.3-1.1-1.8c-0.5-0.5-1-0.9-1.7-1.2c-0.6-0.3-1.4-0.4-2.1-0.4c-0.8,0-1.5,0.1-2.1,0.4
		c-0.6,0.3-1.2,0.7-1.7,1.2c-0.5,0.5-0.8,1.1-1.1,1.8C168.3,80.7,168.2,81.4,168.2,82.2"/>
	<path class="st0" d="M187.9,72.4c0-0.2,0.1-0.3,0.2-0.4c0.1-0.1,0.3-0.2,0.5-0.2h4.6c0.1,0,0.3,0,0.4,0.1c0.1,0.1,0.3,0.2,0.4,0.3
		c1.2,1.9,2.4,3.8,3.5,5.6c1.2,1.9,2.3,3.7,3.5,5.6V72.3c0-0.2,0.1-0.3,0.2-0.4c0.1-0.1,0.2-0.1,0.4-0.1h4c0.2,0,0.4,0.1,0.5,0.2
		c0.1,0.1,0.2,0.3,0.2,0.5V92c0,0.2-0.1,0.3-0.2,0.4c-0.1,0.1-0.3,0.1-0.5,0.1h-4.5c-0.1,0-0.2,0-0.3-0.1c-0.1-0.1-0.2-0.2-0.3-0.3
		c-1.2-2-2.5-4.1-3.7-6.1c-1.2-2-2.4-4-3.7-6.1v12c0,0.2,0,0.4-0.1,0.5c-0.1,0.1-0.3,0.2-0.5,0.2h-4c-0.2,0-0.4-0.1-0.5-0.2
		c-0.1-0.1-0.1-0.3-0.1-0.4V72.4z"/>
</g>
<g>
	<polygon class="st0" points="59.5,170.1 59.5,168.3 205.9,168.3 205.9,170.1 59.5,170.1 	"/>
</g>
<g>
	<path class="st0" d="M84.4,190c0,0.6-0.1,1.1-0.3,1.4c-0.2,0.4-0.4,0.7-0.7,0.9c-0.3,0.2-0.6,0.4-1,0.5c-0.4,0.1-0.7,0.2-1.1,0.2
		h-3.2v-10.9H81c0.3,0,0.7,0,1,0.1c0.4,0.1,0.7,0.2,1,0.4c0.3,0.2,0.5,0.5,0.7,0.8c0.2,0.4,0.3,0.8,0.3,1.4c0,0.7-0.1,1.2-0.4,1.6
		c-0.3,0.4-0.6,0.7-1,0.8v0c0.2,0.1,0.4,0.1,0.6,0.3c0.2,0.1,0.4,0.3,0.6,0.5c0.2,0.2,0.3,0.5,0.4,0.8
		C84.4,189.2,84.4,189.5,84.4,190z M82.4,185.1c0-0.3,0-0.5-0.1-0.7c-0.1-0.2-0.2-0.3-0.3-0.5c-0.1-0.1-0.3-0.2-0.5-0.3
		c-0.2-0.1-0.4-0.1-0.6-0.1h-1v3h1c0.2,0,0.4,0,0.5-0.1c0.2-0.1,0.3-0.1,0.5-0.3c0.1-0.1,0.3-0.3,0.3-0.5
		C82.3,185.6,82.4,185.4,82.4,185.1z M82.6,189.8c0-0.3-0.1-0.6-0.2-0.8c-0.1-0.2-0.2-0.4-0.4-0.5c-0.2-0.1-0.3-0.2-0.5-0.3
		c-0.2-0.1-0.4-0.1-0.6-0.1h-1.1v3.4H81c0.2,0,0.4,0,0.6-0.1c0.2-0.1,0.4-0.2,0.5-0.3c0.1-0.1,0.3-0.3,0.4-0.5
		C82.6,190.3,82.6,190.1,82.6,189.8z"/>
	<path class="st0" d="M86.1,193v-10.9H91v1.6h-3.1v2.9h2.9v1.5h-2.9v3.2h3.3v1.6H86.1z"/>
	<path class="st0" d="M97.1,184.2c-0.4-0.5-0.9-0.7-1.5-0.7c-0.2,0-0.3,0-0.5,0.1c-0.2,0.1-0.3,0.1-0.4,0.3
		c-0.1,0.1-0.2,0.3-0.3,0.5c-0.1,0.2-0.1,0.4-0.1,0.7c0,0.5,0.1,0.8,0.4,1.1c0.3,0.3,0.6,0.5,1.1,0.7c0.3,0.1,0.5,0.3,0.8,0.5
		c0.3,0.2,0.5,0.4,0.8,0.6c0.2,0.2,0.4,0.5,0.6,0.9c0.1,0.3,0.2,0.7,0.2,1.2c0,0.5-0.1,1-0.3,1.4c-0.2,0.4-0.4,0.8-0.7,1
		c-0.3,0.3-0.6,0.5-1,0.6c-0.4,0.1-0.8,0.2-1.2,0.2c-0.6,0-1.2-0.1-1.7-0.4c-0.5-0.2-0.9-0.5-1.2-0.9l1-1.4c0.2,0.3,0.5,0.5,0.9,0.7
		c0.3,0.2,0.7,0.2,1,0.2c0.4,0,0.7-0.1,1-0.4c0.3-0.3,0.4-0.6,0.4-1.1c0-0.5-0.2-0.8-0.5-1.1c-0.3-0.3-0.7-0.5-1.2-0.8
		c-0.3-0.1-0.6-0.3-0.8-0.5c-0.3-0.2-0.5-0.4-0.7-0.6c-0.2-0.2-0.4-0.5-0.5-0.8c-0.1-0.3-0.2-0.7-0.2-1.2c0-0.6,0.1-1.1,0.3-1.5
		c0.2-0.4,0.4-0.7,0.7-1c0.3-0.3,0.6-0.5,1-0.6c0.4-0.1,0.7-0.2,1.1-0.2c0.6,0,1.1,0.1,1.5,0.3c0.4,0.2,0.8,0.4,1.1,0.8L97.1,184.2z
		"/>
	<path class="st0" d="M102.4,183.7v9.3h-1.8v-9.3h-2.1v-1.6h5.9v1.6H102.4z"/>
	<path class="st0" d="M110,183.8v3h2.8v1.6H110v4.7h-1.9v-10.9h4.9v1.7H110z"/>
	<path class="st0" d="M114.6,193v-10.9h4.9v1.6h-3.1v2.9h2.9v1.5h-2.9v3.2h3.3v1.6H114.6z"/>
	<path class="st0" d="M126,193l-0.5-2.3h-2.9l-0.6,2.3h-1.9l2.7-10.9h2.4L128,193H126z M124.1,183.8L124.1,183.8l-1.2,5.4h2.4
		L124.1,183.8z"/>
	<path class="st0" d="M131.6,183.7v9.3h-1.8v-9.3h-2.1v-1.6h5.9v1.6H131.6z"/>
	<path class="st0" d="M141.2,190.8c-0.1,0.5-0.3,0.9-0.6,1.3c-0.3,0.4-0.6,0.7-1.1,0.9c-0.4,0.2-1,0.3-1.6,0.3
		c-0.6,0-1.2-0.1-1.6-0.3c-0.4-0.2-0.8-0.5-1.1-0.9c-0.3-0.4-0.5-0.8-0.6-1.3c-0.1-0.5-0.2-1-0.2-1.6v-7h1.9v6.9c0,0.3,0,0.7,0.1,1
		c0,0.3,0.1,0.6,0.2,0.8c0.1,0.2,0.3,0.4,0.5,0.6c0.2,0.1,0.5,0.2,0.8,0.2s0.6-0.1,0.8-0.2c0.2-0.1,0.4-0.3,0.5-0.6
		c0.1-0.2,0.2-0.5,0.2-0.8c0-0.3,0.1-0.6,0.1-1v-6.9h1.8v7C141.4,189.7,141.3,190.2,141.2,190.8z"/>
	<path class="st0" d="M147.9,193l-1.7-4.7h-1v4.7h-1.8v-10.9h3.1c0.5,0,0.9,0.1,1.2,0.2c0.4,0.1,0.7,0.3,1,0.6
		c0.3,0.3,0.5,0.6,0.6,1c0.2,0.4,0.2,0.9,0.2,1.4c0,0.4-0.1,0.8-0.2,1.1c-0.1,0.3-0.2,0.6-0.4,0.8c-0.2,0.2-0.3,0.4-0.5,0.5
		c-0.2,0.1-0.4,0.2-0.6,0.3l2,5H147.9z M147.8,185.3c0-0.3,0-0.6-0.1-0.8c-0.1-0.2-0.2-0.4-0.4-0.5c-0.1-0.1-0.3-0.2-0.5-0.3
		c-0.2-0.1-0.4-0.1-0.6-0.1h-1v3.4h1c0.5,0,0.8-0.1,1.1-0.4C147.7,186.3,147.8,185.9,147.8,185.3z"/>
	<path class="st0" d="M151.3,193v-10.9h4.9v1.6h-3.1v2.9h2.9v1.5h-2.9v3.2h3.3v1.6H151.3z"/>
	<path class="st0" d="M162.9,183.8v3h2.8v1.6h-2.8v4.7h-1.9v-10.9h4.9v1.7H162.9z"/>
	<path class="st0" d="M167.5,193v-10.9h1.8V193H167.5z"/>
	<path class="st0" d="M171.6,193v-10.9h1.9v9.2h3v1.7H171.6z"/>
	<path class="st0" d="M185.1,193l0-8.4h0l-2.2,8.4h-1.4l-2.1-8.4h0l0,8.4h-1.7v-10.9h2.5l2.1,8h0.1l2.1-8h2.6V193H185.1z"/>
</g>
<g>
	<path class="st0" d="M109.4,213.2c0-2.1,0.6-3.7,1.7-4.8c1-1,2.3-1.5,3.8-1.5c1.5,0,2.7,0.5,3.7,1.6c1,1.1,1.5,2.4,1.5,3.8
		c0,1.5-0.3,3-1,4.3c-0.4,0.8-1.2,2.1-2.6,4c-0.4,0.5-0.9,1.3-1.6,2.4l-0.6,0.9c-0.4,0.6-0.7,1-0.9,1.4c-0.1,0.2-0.1,0.3-0.1,0.3
		h6.5v3.3h-10.6v-3.1c0-0.1,0.2-0.5,0.7-1.2c0.2-0.3,0.5-0.7,0.8-1.1l0.9-1.2c0.5-0.7,1.3-1.8,2.4-3.3c1-1.4,1.8-2.7,2.3-3.9
		c0.4-0.9,0.6-1.8,0.6-2.7c0-0.7-0.2-1.2-0.6-1.7c-0.4-0.5-0.9-0.7-1.6-0.7c-0.9,0-1.6,0.5-2,1.6c-0.1,0.4-0.2,0.8-0.2,1.3v0.8h-3.3
		V213.2z"/>
	<path class="st0" d="M133.4,224c0,1.5-0.5,2.7-1.5,3.7c-1,1-2.3,1.5-3.7,1.5c-1.5,0-2.7-0.5-3.7-1.5c-1-1-1.5-2.3-1.5-3.7v-12
		c0-1.5,0.5-2.7,1.5-3.7c1-1,2.3-1.5,3.7-1.5c1.5,0,2.7,0.5,3.7,1.5c1,1,1.5,2.3,1.5,3.7V224z M130,211.9c0-0.5-0.2-1-0.6-1.4
		c-0.4-0.4-0.8-0.6-1.4-0.6c-0.5,0-1,0.2-1.3,0.6c-0.4,0.4-0.6,0.8-0.6,1.4v12.1c0,0.5,0.2,1,0.6,1.4c0.4,0.4,0.8,0.6,1.3,0.6
		c0.5,0,1-0.2,1.4-0.6c0.4-0.4,0.6-0.8,0.6-1.4V211.9z"/>
	<path class="st0" d="M139,229v-17h-2.8v-2.3c0.8-0.1,1.6-0.4,2.3-0.9c0.7-0.5,1.2-1.1,1.6-1.9h2.3V229H139z"/>
	<path class="st0" d="M156,224c0,1.5-0.5,2.7-1.5,3.7c-1,1-2.3,1.5-3.7,1.5h-0.3c-1.5,0-2.7-0.5-3.7-1.5c-1-1-1.5-2.3-1.5-3.7v-2
		c0-1.3,0.5-2.5,1.4-3.5c0.4-0.4,0.8-0.8,1.4-1.1c-0.9-0.5-1.6-1.2-2.1-2.3c-0.2-0.6-0.4-1.2-0.4-2.1v-1.2c0-1.4,0.4-2.6,1.3-3.6
		c0.9-1.1,2.2-1.6,3.7-1.6h0.3c1.6,0,2.8,0.5,3.7,1.6c0.8,1,1.3,2.1,1.3,3.6v1.2c0,1.4-0.4,2.5-1.2,3.4c-0.4,0.4-0.8,0.7-1.2,1
		c1,0.6,1.7,1.4,2.3,2.5c0.3,0.6,0.4,1.3,0.4,2.1V224z M152.8,212.7c0-1.5-0.5-2.5-1.4-2.8c-0.2-0.1-0.5-0.1-0.8-0.1
		c-0.6,0-1,0.2-1.4,0.5c-0.3,0.3-0.5,0.6-0.6,1c-0.1,0.4-0.2,0.9-0.1,1.5c0,1,0.2,1.6,0.5,2.1c0.4,0.6,0.9,0.8,1.7,0.8
		c0.8,0,1.4-0.3,1.7-0.9C152.6,214.2,152.8,213.5,152.8,212.7z M152.7,222.4c0-1.3-0.3-2.2-0.9-2.6c-0.3-0.2-0.7-0.3-1.2-0.3
		c-0.9,0-1.5,0.4-1.8,1.1c-0.2,0.5-0.3,1.1-0.3,1.8v1.1c0,0.7,0.2,1.3,0.7,1.8c0.4,0.4,0.8,0.6,1.4,0.6c0.9,0,1.5-0.5,1.9-1.3
		c0.1-0.3,0.2-0.6,0.2-1V222.4z"/>
</g>
</svg>
