<?xml version="1.0" encoding="utf-8"?>
<!-- Generator: Adobe Illustrator 22.0.1, SVG Export Plug-In . SVG Version: 6.00 Build 0)  -->
<svg version="1.1" id="Layer_1" xmlns="http://www.w3.org/2000/svg" xmlns:xlink="http://www.w3.org/1999/xlink" x="0px" y="0px"
	 viewBox="0 0 267 273.5" style="enable-background:new 0 0 267 273.5;" xml:space="preserve">
<style type="text/css">
	.st0{fill:#FFFFFF;}
</style>
<g>
	<g>
		<g>
			<g>
				<path class="st0" d="M76.9,101.5h7.5c5.4,0,8,2.6,8,8v1.4c0,4.8-1.6,6.3-3.1,6.9c1.5,0.7,3.6,2,3.6,6.9v2.8
					c0,6.1-2.3,9.2-8.1,9.2h-7.9V101.5z M83.9,115.3c2.1,0,2.4-1.3,2.4-3.4v-1.8c0-1.6-0.6-2.6-2.2-2.6h-1.1v7.8H83.9z M82.9,130.3
					h1.2c2.1,0,2.4-1,2.4-3v-3.2c0-2.4-0.7-3-2.8-3h-0.8V130.3z"/>
			</g>
		</g>
		<g>
			<g>
				<path class="st0" d="M102.4,101.5v35.1h-6.2v-35.1H102.4z"/>
			</g>
		</g>
		<g>
			<g>
				<path class="st0" d="M91.1,142.4v35.1H85v-35.1H91.1z"/>
			</g>
		</g>
		<g>
			<g>
				<path class="st0" d="M72.7,101.5v35.1h-6.2v-35.1H72.7z"/>
			</g>
		</g>
		<g>
			<g>
				<path class="st0" d="M105.7,130.7l7-22.8h-6.6v-6.4h13.9v5.1l-7.5,23.6h7.5l0,6.4h-14.4V130.7z"/>
			</g>
		</g>
		<g>
			<g>
				<path class="st0" d="M128.2,131.4l-0.6,5.3h-6.4l5-35.1h8.1l5.1,35.1h-6.6l-0.6-5.3H128.2z M131.6,125.3
					c-0.4-4.5-1.1-9.4-1.4-12.8H130c-0.1,2.4-0.9,8.5-1.3,12.8H131.6z"/>
			</g>
		</g>
		<g>
			<g>
				<path class="st0" d="M81.6,166v1.9c0,4.5-0.7,10.2-7.9,10.2c-5.3,0-7.6-3.2-7.6-9.7V151c0-6.2,2.7-9.4,7.7-9.4
					c6.6,0,7.7,4.9,7.7,9.5v2.7h-6.1V151c0-1.9-0.4-2.9-1.6-2.9c-1.2,0-1.6,0.9-1.6,2.9v18.1c0,1.9,0.3,3.2,1.6,3.2
					c1.3,0,1.7-1.1,1.7-3.3V166H81.6z"/>
			</g>
		</g>
		<g>
			<g>
				<path class="st0" d="M95.6,177.5v-35.1h7c1.1,4,3.7,15.1,3.9,16.6h0.2c-0.4-4.4-0.3-4.5-0.3-9.1v-7.5h6.3v35.1h-7.1
					c-0.7-3.1-3.9-16.5-4.1-17.6h-0.2c0.2,3.9,0.1,6.7,0.1,11.9v5.7H95.6z"/>
			</g>
		</g>
		<g>
			<g>
				<path class="st0" d="M129,162.9h-6v8.3h7.6v6.3h-14v-35.1h14v6.4H123v7.7h6V162.9z"/>
			</g>
		</g>
		<g>
			<g>
				<path class="st0" d="M163.3,163h-6v8.3h7.6v6.3h-14v-35.1h14v6.4h-7.6v7.7h6V163z"/>
			</g>
		</g>
		<g>
			<g>
				<path class="st0" d="M133.7,142.5h13.7v6.3h-7.4v8.6h5.9v6.4h-5.9v13.8h-6.4V142.5z"/>
			</g>
		</g>
		<g>
			<g>
				<path class="st0" d="M173.6,166v2.2c0,2.3,0.5,3.4,2,3.4c1.5,0,1.4-1.6,1.4-3.3c0-2.5,0.1-3.6-3.5-6.4c-4-3.1-5.6-4.6-5.6-10.5
					c0-5.8,1.1-9.7,7.8-9.7c6.6,0,7.6,4.8,7.6,8.9v3.1h-6.4v-2.5c0-2.1-0.3-3.2-1.6-3.2c-1.2,0-1.3,1.2-1.3,3.2
					c0,4.1,2.7,4.5,5.3,6.9c3,2.8,3.9,5.6,3.9,9.9c0,5.5-1.1,10-7.7,10c-6.3,0-8.1-4.1-8.1-9.3V166H173.6z"/>
			</g>
		</g>
		<g>
			<g>
				<path class="st0" d="M189.6,148.7h-4.4v-6.2h15.6v6.2h-4.9v28.9h-6.4V148.7z"/>
			</g>
		</g>
		<g>
			<g>
				<path class="st0" d="M203.9,95.9h-4.2v-2h4.2V95.9z M198,95.9h-4.9v-2h4.9V95.9z M191.5,95.9h-4.9v-2h4.9V95.9z M184.9,95.9H180
					v-2h4.9V95.9z M178.4,95.9h-4.9v-2h4.9V95.9z M171.8,95.9h-4.9v-2h4.9V95.9z M165.3,95.9h-4.9v-2h4.9V95.9z M158.7,95.9h-4.9v-2
					h4.9V95.9z M152.1,95.9h-4.9v-2h4.9V95.9z M145.6,95.9h-4.9v-2h4.9V95.9z M139,95.9h-4.9v-2h4.9V95.9z M132.5,95.9h-4.9v-2h4.9
					V95.9z M125.9,95.9H121v-2h4.9V95.9z M119.4,95.9h-4.9v-2h4.9V95.9z M112.8,95.9h-4.9v-2h4.9V95.9z M106.3,95.9h-4.9v-2h4.9
					V95.9z M99.7,95.9h-4.9v-2h4.9V95.9z M93.1,95.9h-4.9v-2h4.9V95.9z"/>
			</g>
		</g>
		<g>
			<g>
				<rect x="64.1" y="93.9" class="st0" width="22.1" height="2"/>
			</g>
		</g>
		<g>
			<g>
				<path class="st0" d="M203.9,186.5h-4.2v-2h4.2V186.5z M198,186.5h-4.9v-2h4.9V186.5z M191.5,186.5h-4.9v-2h4.9V186.5z
					 M184.9,186.5H180v-2h4.9V186.5z M178.4,186.5h-4.9v-2h4.9V186.5z M171.8,186.5h-4.9v-2h4.9V186.5z M165.3,186.5h-4.9v-2h4.9
					V186.5z M158.7,186.5h-4.9v-2h4.9V186.5z M152.1,186.5h-4.9v-2h4.9V186.5z M145.6,186.5h-4.9v-2h4.9V186.5z M139,186.5h-4.9v-2
					h4.9V186.5z M132.5,186.5h-4.9v-2h4.9V186.5z M125.9,186.5H121v-2h4.9V186.5z M119.4,186.5h-4.9v-2h4.9V186.5z M112.8,186.5
					h-4.9v-2h4.9V186.5z M106.3,186.5h-4.9v-2h4.9V186.5z M99.7,186.5h-4.9v-2h4.9V186.5z M93.1,186.5h-4.9v-2h4.9V186.5z"/>
			</g>
		</g>
		<g>
			<g>
				<rect x="64.1" y="184.4" class="st0" width="22.1" height="2"/>
			</g>
		</g>
	</g>
	<g>
		<path class="st0" d="M49.4,210.7c-2-1.9-4-4-5.8-6.1c0.8-2,1.9-5.2,2.4-8.5c0.8-5.9-2.5-13.7-2.5-13.7s-3.1,5.6-3.8,11.6
			c-0.2,2.2-0.2,4.3,0,6.1c-1.3-1.6-2.6-3.3-3.9-4.9c-1.6-2.1-3.1-4.4-4.5-6.6c0.9-1.9,2.8-6,4-9.9c1.6-5.1,0-13.4,0-13.4
			s-3.9,4.3-5.8,10.7c-1,3.3-1,6.3-0.7,8.4c-2.8-4.9-5.2-9.9-7.1-15.2c1.3-1.5,5.3-6.6,7.3-10.7c2.3-5,1.3-10.5,1.3-10.5
			s-5.2,3.4-7.8,9c-1.5,3.2-1.9,6.4-2,8.6c-0.8-2.6-1.6-5.1-2.2-7.8c-0.8-3.6-1.4-7.2-1.8-10.8c1.6-1,6.4-4,9.5-7.9
			c3.8-4.7,4.1-11,4.1-11s-3.7,0.8-8.7,6.3c-3.3,3.6-4.6,7.5-5.2,9.7c-0.2-2.3-0.3-4.6-0.3-6.9c0-3.6,0.2-7.2,0.4-10.9
			c2.3-1.5,7.1-4.6,10-7.5c4-3.9,5.8-11.3,5.8-11.3s-6.1,1.6-11.2,6.7c-1.9,1.9-3.2,3.6-4,5.1c0.1-1,0.2-2,0.3-3
			c0.5-4.2,1.1-8.4,1.9-12.6c2.5-0.4,6.1-1.8,8.1-3.2c2-1.5,4.1-2.9,5.8-4.7c1.7-1.8,3.2-4,3.8-6.4c0,0-10-0.6-16.7,9.7
			c1.1-5.3,2.4-10.5,3.9-15.7c3.7,0.3,7.4-1.1,10.5-3.3c3.3-2.3,5.9-5.3,8.5-8.3c0.5-0.5,0.9-1.1,1.3-1.7c-1.4-0.1-2.8,0.1-4.2,0.4
			c-5.9,1.2-11.2,4.6-15,9.3c0.5-1.5,0.9-2.9,1.4-4.4c0.8-2.5,1.7-4.9,2.6-7.3l1.6-1.6c6-5.5,9.1-9.8,10.1-21.5c0,0-4.9,2.4-7.7,6.1
			c-3.4,4.7-4.8,10.8-5.4,16.6c-0.9,2.4-1.8,4.7-2.6,7.1c-0.2,0.6-0.4,1.2-0.6,1.8c0.8-7.1-1.1-13.5-7.6-20.2c0,0-4.3,19.6,5.6,26.6
			c-1.6,5.3-2.9,10.6-4.1,16c-0.2-7.5-3.9-14.9-9.9-19.3c-1,9.2,1.8,19.6,8.6,25.7c-0.6,3.6-1.2,7.1-1.6,10.7
			c-0.2,1.5-0.4,3.1-0.5,4.6c-0.6-1.9-1.7-5-4.1-9.2c-4.3-7.7-8.3-8.6-8.3-8.6s-0.8,8.1,3.2,14.6c3.2,5.1,7.2,8.3,8.7,9.4
			c-0.2,3.5-0.4,6.9-0.5,10.4c0,1.4,0,2.8,0,4.2c-0.9-1.9-2.3-4.3-4.4-6.7c-4.6-5.4-9.2-7.9-9.2-7.9s1.5,10.4,6.4,15.7
			c3,3.2,5.7,4.3,7.4,4.7c0.3,3.8,0.8,7.5,1.6,11.3c0.2,1.1,0.5,2.2,0.8,3.3c-1-1.4-2.3-2.8-3.9-4.3c-5.1-4.5-11-6.3-11-6.3
			s0.4,7.8,7.3,13c4.4,3.3,7.5,3.5,9.1,3.3c1.6,5.4,3.7,10.6,6.2,15.6c-6.9-4.7-16.3-8.1-16.3-8.1s2,8.9,11.1,12.4
			c4.2,1.6,7,2.2,8.8,2.4c1.5,2.6,3.1,5.2,4.9,7.7c1.4,2,2.8,3.9,4.3,5.7c-5.9-3-12.5-4.7-19.1-4.2c1.2,2,3,3.6,4.9,4.9
			c2.6,1.9,5.4,3.5,8.4,4.3c2.5,0.7,6.5,0.3,9.5-0.5c1.8,2.1,3.7,4.2,5.7,6.2c5.1,5.1,10.3,9.8,16.4,14l4.2-2.2
			C61.4,221.9,54.4,215.5,49.4,210.7z"/>
	</g>
	<g>
		<path class="st0" d="M216.1,210.7c2-1.9,4-4,5.8-6.1c-0.8-2-1.9-5.2-2.4-8.5c-0.8-5.9,2.5-13.7,2.5-13.7s3.1,5.6,3.8,11.6
			c0.2,2.2,0.2,4.3,0,6.1c1.3-1.6,2.6-3.3,3.9-4.9c1.6-2.1,3.1-4.4,4.5-6.6c-0.9-1.9-2.8-6-4-9.9c-1.6-5.1,0-13.4,0-13.4
			s3.9,4.3,5.8,10.7c1,3.3,1,6.3,0.7,8.4c2.8-4.9,5.2-9.9,7.1-15.2c-1.3-1.5-5.3-6.6-7.3-10.7c-2.3-5-1.3-10.5-1.3-10.5
			s5.2,3.4,7.8,9c1.5,3.2,1.9,6.4,2,8.6c0.8-2.6,1.6-5.1,2.2-7.8c0.8-3.6,1.4-7.2,1.8-10.8c-1.6-1-6.4-4-9.5-7.9
			c-3.8-4.7-4.1-11-4.1-11s3.7,0.8,8.7,6.3c3.3,3.6,4.6,7.5,5.2,9.7c0.2-2.3,0.3-4.6,0.3-6.9c0-3.6-0.2-7.2-0.4-10.9
			c-2.3-1.5-7.1-4.6-10-7.5c-4-3.9-5.8-11.3-5.8-11.3s6.1,1.6,11.2,6.7c1.9,1.9,3.2,3.6,4,5.1c-0.1-1-0.2-2-0.3-3
			c-0.5-4.2-1.1-8.4-1.9-12.6c-2.5-0.4-6.1-1.8-8.1-3.2c-2-1.5-4.1-2.9-5.8-4.7c-1.7-1.8-3.2-4-3.8-6.4c0,0,10-0.6,16.7,9.7
			c-1.1-5.3-2.4-10.5-3.9-15.7c-3.7,0.3-7.4-1.1-10.5-3.3c-3.3-2.3-5.9-5.3-8.5-8.3c-0.5-0.5-0.9-1.1-1.3-1.7
			c1.4-0.1,2.8,0.1,4.2,0.4c5.9,1.2,11.2,4.6,15,9.3c-0.5-1.5-0.9-2.9-1.4-4.4c-0.8-2.5-1.7-4.9-2.6-7.3l-1.6-1.6
			c-6-5.5-9.1-9.8-10.1-21.5c0,0,4.9,2.4,7.7,6.1c3.4,4.7,4.8,10.8,5.4,16.6c0.9,2.4,1.8,4.7,2.6,7.1c0.2,0.6,0.4,1.2,0.6,1.8
			c-0.8-7.1,1.1-13.5,7.6-20.2c0,0,4.3,19.6-5.6,26.6c1.6,5.3,2.9,10.6,4.1,16c0.2-7.5,3.9-14.9,9.9-19.3c1,9.2-1.8,19.6-8.6,25.7
			c0.6,3.6,1.2,7.1,1.6,10.7c0.2,1.5,0.4,3.1,0.5,4.6c0.6-1.9,1.7-5,4.1-9.2c4.3-7.7,8.3-8.6,8.3-8.6s0.8,8.1-3.2,14.6
			c-3.2,5.1-7.2,8.3-8.7,9.4c0.2,3.5,0.4,6.9,0.5,10.4c0,1.4,0,2.8,0,4.2c0.9-1.9,2.3-4.3,4.4-6.7c4.6-5.4,9.2-7.9,9.2-7.9
			s-1.5,10.4-6.4,15.7c-3,3.2-5.7,4.3-7.4,4.7c-0.3,3.8-0.8,7.5-1.6,11.3c-0.2,1.1-0.5,2.2-0.8,3.3c1-1.4,2.3-2.8,3.9-4.3
			c5.1-4.5,11-6.3,11-6.3s-0.4,7.8-7.3,13c-4.4,3.3-7.5,3.5-9.1,3.3c-1.6,5.4-3.7,10.6-6.2,15.6c6.9-4.7,16.3-8.1,16.3-8.1
			s-2,8.9-11.1,12.4c-4.2,1.6-7,2.2-8.8,2.4c-1.5,2.6-3.1,5.2-4.9,7.7c-1.4,2-2.8,3.9-4.3,5.7c5.9-3,12.5-4.7,19.1-4.2
			c-1.2,2-3,3.6-4.9,4.9c-2.6,1.9-5.4,3.5-8.4,4.3c-2.5,0.7-6.5,0.3-9.5-0.5c-1.8,2.1-3.7,4.2-5.7,6.2c-5.1,5.1-10.3,9.8-16.4,14
			l-4.2-2.2C204.1,221.9,211.1,215.5,216.1,210.7z"/>
	</g>
	<g>
		<path class="st0" d="M71,56.1c-0.5-0.6-1.2-0.9-1.9-0.9c-0.2,0-0.4,0-0.6,0.1s-0.4,0.2-0.6,0.3c-0.2,0.2-0.3,0.4-0.4,0.6
			c-0.1,0.2-0.1,0.5-0.1,0.9c0,0.6,0.2,1,0.5,1.4c0.4,0.3,0.8,0.6,1.4,0.9c0.3,0.2,0.7,0.4,1,0.6c0.4,0.2,0.7,0.5,1,0.8
			c0.3,0.3,0.5,0.7,0.7,1.1c0.2,0.4,0.3,0.9,0.3,1.5c0,0.7-0.1,1.3-0.3,1.8c-0.2,0.5-0.5,1-0.9,1.3c-0.4,0.4-0.8,0.6-1.3,0.8
			c-0.5,0.2-1,0.3-1.5,0.3c-0.8,0-1.5-0.2-2.1-0.5c-0.7-0.3-1.2-0.7-1.6-1.1l1.3-1.7c0.3,0.4,0.7,0.7,1.1,0.9
			c0.4,0.2,0.9,0.3,1.3,0.3c0.5,0,0.9-0.2,1.2-0.5c0.3-0.3,0.5-0.8,0.5-1.4c0-0.6-0.2-1.1-0.6-1.4c-0.4-0.4-0.9-0.7-1.5-1
			c-0.4-0.2-0.7-0.4-1.1-0.6c-0.3-0.2-0.6-0.5-0.9-0.8c-0.3-0.3-0.5-0.7-0.6-1.1c-0.2-0.4-0.2-0.9-0.2-1.5c0-0.7,0.1-1.3,0.3-1.9
			c0.2-0.5,0.5-0.9,0.9-1.3c0.4-0.3,0.8-0.6,1.3-0.8s1-0.2,1.4-0.2c0.7,0,1.3,0.1,1.9,0.3c0.6,0.2,1,0.6,1.4,1L71,56.1z"/>
		<path class="st0" d="M75.3,67.3V53.4h6.2v2.1h-4v3.7h3.7v1.9h-3.7v4.1h4.2v2.1H75.3z"/>
		<path class="st0" d="M84.9,67.3V53.4h2.4v11.7h3.8v2.2H84.9z"/>
		<path class="st0" d="M93.6,67.3V53.4h6.2v2.1h-4v3.7h3.7v1.9h-3.7v4.1h4.2v2.1H93.6z"/>
		<path class="st0" d="M109.8,67.1c-0.6,0.3-1.3,0.5-2.2,0.5c-0.8,0-1.5-0.2-2.1-0.6c-0.6-0.4-1.2-0.9-1.6-1.5
			c-0.4-0.6-0.8-1.4-1-2.3c-0.2-0.9-0.4-1.9-0.4-2.9s0.1-2,0.4-2.9c0.2-0.9,0.6-1.7,1-2.3c0.4-0.6,1-1.2,1.6-1.5
			c0.6-0.4,1.3-0.5,2.1-0.5c0.8,0,1.5,0.1,2.1,0.4c0.6,0.3,1.1,0.7,1.5,1.3l-1.4,1.7c-0.5-0.8-1.2-1.2-2.1-1.2
			c-0.5,0-0.9,0.1-1.2,0.4c-0.4,0.3-0.6,0.6-0.9,1.1c-0.2,0.5-0.4,1-0.5,1.6c-0.1,0.6-0.2,1.3-0.2,2c0,0.7,0.1,1.4,0.2,2
			c0.1,0.6,0.3,1.2,0.5,1.6c0.2,0.5,0.5,0.8,0.9,1.1c0.4,0.3,0.8,0.4,1.3,0.4c0.5,0,0.9-0.1,1.2-0.4c0.3-0.2,0.6-0.5,0.8-0.9
			l1.4,1.6C110.9,66.3,110.4,66.8,109.8,67.1z"/>
		<path class="st0" d="M120.3,67.1c-0.6,0.3-1.3,0.5-2.2,0.5c-0.8,0-1.5-0.2-2.1-0.6c-0.6-0.4-1.2-0.9-1.6-1.5
			c-0.4-0.6-0.8-1.4-1-2.3c-0.2-0.9-0.4-1.9-0.4-2.9s0.1-2,0.4-2.9c0.2-0.9,0.6-1.7,1-2.3c0.4-0.6,1-1.2,1.6-1.5
			c0.6-0.4,1.3-0.5,2.1-0.5c0.8,0,1.5,0.1,2.1,0.4c0.6,0.3,1.1,0.7,1.5,1.3l-1.4,1.7c-0.5-0.8-1.2-1.2-2.1-1.2
			c-0.5,0-0.9,0.1-1.2,0.4c-0.4,0.3-0.6,0.6-0.9,1.1c-0.2,0.5-0.4,1-0.5,1.6c-0.1,0.6-0.2,1.3-0.2,2c0,0.7,0.1,1.4,0.2,2
			c0.1,0.6,0.3,1.2,0.5,1.6c0.2,0.5,0.5,0.8,0.9,1.1c0.4,0.3,0.8,0.4,1.3,0.4c0.5,0,0.9-0.1,1.2-0.4c0.3-0.2,0.6-0.5,0.8-0.9
			l1.4,1.6C121.4,66.3,120.9,66.8,120.3,67.1z"/>
		<path class="st0" d="M124.4,67.3V53.4h2.4v13.9H124.4z"/>
		<path class="st0" d="M140,60.3c0,1.1-0.1,2.1-0.3,3c-0.2,0.9-0.6,1.7-1,2.3c-0.4,0.6-1,1.1-1.6,1.5c-0.6,0.4-1.3,0.5-2.1,0.5
			c-0.8,0-1.5-0.2-2.1-0.5c-0.6-0.4-1.1-0.9-1.6-1.5c-0.4-0.6-0.8-1.4-1-2.3c-0.2-0.9-0.3-1.9-0.3-3c0-1.1,0.1-2.1,0.3-3
			c0.2-0.9,0.6-1.7,1-2.3c0.4-0.6,1-1.1,1.6-1.5c0.6-0.3,1.3-0.5,2.1-0.5c0.8,0,1.5,0.2,2.1,0.5s1.2,0.8,1.6,1.5
			c0.4,0.6,0.8,1.4,1,2.3C139.9,58.2,140,59.2,140,60.3z M137.6,60.3c0-0.7-0.1-1.4-0.2-2c-0.1-0.6-0.3-1.2-0.5-1.6
			c-0.2-0.5-0.5-0.8-0.8-1.1c-0.3-0.3-0.7-0.4-1.1-0.4c-0.4,0-0.8,0.1-1.1,0.4c-0.3,0.3-0.6,0.6-0.8,1.1s-0.4,1-0.5,1.6
			c-0.1,0.6-0.2,1.3-0.2,2c0,0.7,0.1,1.4,0.2,2c0.1,0.6,0.3,1.2,0.5,1.6c0.2,0.5,0.5,0.8,0.8,1.1c0.3,0.3,0.7,0.4,1.1,0.4
			c0.4,0,0.8-0.1,1.1-0.4c0.3-0.3,0.6-0.6,0.8-1.1c0.2-0.5,0.4-1,0.5-1.6C137.5,61.7,137.6,61,137.6,60.3z M135.6,52.3h-1.7l1.8-2.8
			h2L135.6,52.3z"/>
		<path class="st0" d="M74.9,80c0,1.1-0.1,2.1-0.3,3c-0.2,0.9-0.6,1.7-1,2.3c-0.4,0.6-1,1.1-1.6,1.5c-0.6,0.4-1.3,0.5-2.1,0.5
			c-0.8,0-1.5-0.2-2.1-0.5c-0.6-0.4-1.1-0.9-1.6-1.5c-0.4-0.6-0.8-1.4-1-2.3c-0.2-0.9-0.3-1.9-0.3-3c0-1.1,0.1-2.1,0.3-3
			c0.2-0.9,0.6-1.7,1-2.3c0.4-0.6,1-1.1,1.6-1.5c0.6-0.3,1.3-0.5,2.1-0.5c0.8,0,1.5,0.2,2.1,0.5s1.2,0.8,1.6,1.5
			c0.4,0.6,0.8,1.4,1,2.3C74.8,77.9,74.9,78.9,74.9,80z M72.5,80c0-0.7-0.1-1.4-0.2-2c-0.1-0.6-0.3-1.2-0.5-1.6
			c-0.2-0.5-0.5-0.8-0.8-1.1c-0.3-0.3-0.7-0.4-1.1-0.4c-0.4,0-0.8,0.1-1.1,0.4c-0.3,0.3-0.6,0.6-0.8,1.1c-0.2,0.5-0.4,1-0.5,1.6
			c-0.1,0.6-0.2,1.3-0.2,2c0,0.7,0.1,1.4,0.2,2c0.1,0.6,0.3,1.2,0.5,1.6c0.2,0.5,0.5,0.8,0.8,1.1c0.3,0.3,0.7,0.4,1.1,0.4
			c0.4,0,0.8-0.1,1.1-0.4c0.3-0.3,0.6-0.6,0.8-1.1c0.2-0.5,0.4-1,0.5-1.6C72.4,81.3,72.5,80.7,72.5,80z"/>
		<path class="st0" d="M80.5,75.2V79h3.6v2h-3.6v6h-2.4V73h6.2v2.1H80.5z"/>
		<path class="st0" d="M87.3,87V73h2.4V87H87.3z"/>
		<path class="st0" d="M100.2,86.8c-0.6,0.3-1.3,0.5-2.2,0.5c-0.8,0-1.5-0.2-2.1-0.6c-0.6-0.4-1.2-0.9-1.6-1.5
			c-0.4-0.6-0.8-1.4-1-2.3C93,82,92.9,81.1,92.9,80c0-1.1,0.1-2,0.4-2.9c0.2-0.9,0.6-1.7,1-2.3c0.4-0.6,1-1.2,1.6-1.5
			c0.6-0.4,1.3-0.5,2.1-0.5c0.8,0,1.5,0.1,2.1,0.4c0.6,0.3,1.1,0.7,1.5,1.3l-1.4,1.7c-0.5-0.8-1.2-1.2-2.1-1.2
			c-0.5,0-0.9,0.1-1.2,0.4c-0.4,0.3-0.6,0.6-0.9,1.1c-0.2,0.5-0.4,1-0.5,1.6c-0.1,0.6-0.2,1.3-0.2,2c0,0.7,0.1,1.4,0.2,2
			s0.3,1.2,0.5,1.6c0.2,0.5,0.5,0.8,0.9,1.1c0.4,0.3,0.8,0.4,1.3,0.4c0.5,0,0.9-0.1,1.2-0.4c0.3-0.2,0.6-0.5,0.8-0.9l1.4,1.6
			C101.2,86,100.7,86.5,100.2,86.8z"/>
		<path class="st0" d="M104.2,87V73h2.4V87H104.2z"/>
		<path class="st0" d="M116.4,87l-0.7-2.9h-3.7l-0.7,2.9H109l3.5-13.9h3l3.4,13.9H116.4z M114,75.3L114,75.3l-1.6,6.9h3.1L114,75.3z
			"/>
		<path class="st0" d="M121.3,87V73h2.4v11.7h3.8V87H121.3z"/>
	</g>
	<g>
		<path class="st0" d="M104.7,220.4V220c0-5,1.3-7.5,4.2-11.7c2.6-3.8,3.1-4.7,3.1-7.3c0-1.6-0.1-2.6-1.3-2.6c-1,0-1.4,0.9-1.4,2.4
			v1.7h-4.6V201c0-2.9,0.9-6.5,6.2-6.5c4.8,0,6.1,3,6.1,6.7c0,3.9-0.9,5.1-3.8,9.2c-1.4,2-2.7,4-2.8,5.8h7.1l-0.6,4.2H104.7z"/>
		<path class="st0" d="M133.9,201.3v12.2c0,4-1.4,7.2-6.7,7.2c-5,0-6.3-3.4-6.3-7.2v-12.2c0-4.2,2.2-6.9,6.5-6.9
			C131.8,194.5,133.9,197.4,133.9,201.3z M125.8,200.8v13.6c0,1.3,0.4,2.2,1.5,2.2c1.2,0,1.5-0.9,1.5-2.3v-13.5
			c0-1.3-0.4-2.2-1.5-2.2C126.2,198.6,125.8,199.6,125.8,200.8z"/>
		<path class="st0" d="M139.3,220.4v-20.3c-0.6,0-1.5,0-2.2-0.1v-3.5c1.5-0.1,2.7-0.8,3.4-1.7h3.7v25.7H139.3z"/>
		<path class="st0" d="M153.6,214.3v0.6c0,1.2,0.3,2,1.4,2c1.2,0,1.5-1.1,1.5-3.8v-3.8c-0.7,0.9-1.8,1.4-3.3,1.4
			c-3.1,0-4.6-2.2-4.6-5.9V201c0-4,2.3-6.5,6.4-6.5c4.2,0,6.5,2.2,6.5,6.8V212c0,5.3-1,8.8-6.6,8.8c-5.2,0-6.1-3.5-6.1-6.5v0H153.6z
			 M153.5,200.5v3.7c0,1.4,0.4,2.2,1.5,2.2c1.1,0,1.5-0.7,1.5-2.4v-3.6c0-1.2-0.3-2-1.5-2C153.9,198.4,153.5,199.2,153.5,200.5z"/>
	</g>
</g>
</svg>
