<?xml version="1.0" encoding="utf-8"?>
<!-- Generator: Adobe Illustrator 21.1.0, SVG Export Plug-In . SVG Version: 6.00 Build 0)  -->
<svg version="1.1" id="Layer_1" xmlns="http://www.w3.org/2000/svg" xmlns:xlink="http://www.w3.org/1999/xlink" x="0px" y="0px"
	 viewBox="0 0 267 273.5" style="enable-background:new 0 0 267 273.5;" xml:space="preserve">
<style type="text/css">
	.st0{fill:#FFFFFF;}
</style>
<g>
	<g>
		<path class="st0" d="M75.4,40.3c-0.5,1.6-0.9,3.2-1.6,4.8c-2,4.5-5,8.2-9.5,10.6c-2.1,1.1-4.3,1.7-6.6,1.8c-0.5,0-1,0.2-1.4,0.5
			c-4.2,3.4-7.7,7.4-11.1,11.5c-0.1,0.1-0.1,0.2-0.2,0.3c1.4,0.2,1.6,0,2.2-1.2c1.2-2.5,3.2-4,5.7-5c2.2-0.8,4.4-1.1,6.7-0.8
			c3.1,0.4,6.2,0.9,9.4,1.3c-0.1,0.2-0.1,0.3-0.1,0.4c-4,5.1-9,8.1-15.7,7.8c-2-0.1-3.9-0.6-5.6-1.7c-0.4-0.3-0.8-0.4-1.3-0.2
			c-0.3,0.1-0.7,0.2-1,0.2c-0.8-0.1-1.2,0.4-1.6,0.9c-3.6,4.8-6.8,9.9-9.5,15.3c-0.1,0.2-0.2,0.5-0.4,0.9c0.6-0.2,1.1-0.3,1.6-0.5
			c0.2-0.1,0.4-0.4,0.4-0.6c0.6-3.6,2.8-6,6-7.5c2.2-1,4.5-1.5,6.9-1.7c2.9-0.2,5.8-0.4,8.8-0.6c0,0.2,0,0.3-0.1,0.3
			c-2.9,4.8-6.6,8.7-12.1,10.6c-3,1-6,1.2-9,0.1c-0.2-0.1-0.6,0-0.8,0c-0.7,0.2-1.3,0.4-2,0.7c-0.2,0.1-0.4,0.4-0.6,0.6
			c-2.7,5.5-4.9,11.2-6.7,17.1c-0.4,1.3-0.8,2.6-1.1,4c-0.1,0.2-0.1,0.4-0.2,0.8c0.5-0.3,1-0.5,1.3-0.8c0.2-0.1,0.3-0.4,0.3-0.6
			c-0.2-5.2,2.3-8.9,6.6-11.5c2-1.2,4.1-2.2,6.2-3.1c2.4-1.1,4.9-1.9,7.5-2.9c-0.1,0.5-0.2,1-0.4,1.4c-1.6,4.8-4,9.1-7.8,12.5
			c-2.4,2.1-5.1,3.8-8.3,4.4c-0.9,0.1-1.9,0.1-2.8,0.2c-0.3,0-0.6,0.1-0.8,0.3c-0.6,0.4-1.2,0.9-1.8,1.3c-0.2,0.1-0.3,0.4-0.4,0.6
			c-1.4,5.7-2.4,11.6-2.8,17.5c-0.2,2.5-0.3,5.1-0.5,7.7c1.1-0.6,1.4-1.3,1.3-2.5c-0.6-3.9,0.3-7.4,2.2-10.8c2-3.5,5-6.1,8.1-8.5
			c1.9-1.5,3.9-3,5.9-4.6c0,0.4,0,0.8,0,1.2c-0.4,6.8-2.5,13.1-6.9,18.4c-2.2,2.6-4.7,4.5-8,5.5c-0.3,0.1-0.6,0.4-0.8,0.6
			c-0.5,0.6-1,1.3-1.4,2c-0.2,0.3-0.3,0.7-0.3,1.1c0.1,3.4,0.1,6.9,0.5,10.3c0.5,4.4,1.3,8.8,2,13.2c0,0.2,0.1,0.4,0.2,0.8
			c0.3-0.8,0.6-1.5,0.9-2.1c0-0.1,0-0.3-0.1-0.4c-1.3-1.8-1.5-3.9-1.4-6c0.1-3.9,1.5-7.3,3.6-10.5c2.3-3.4,4.8-6.7,7.3-10
			c0.5-0.7,1.1-1.5,1.7-2.4c0.2,1.3,0.3,2.4,0.4,3.5c0.6,7-0.8,13.6-4.6,19.6c-1.4,2.3-3.3,4.2-5.5,5.8c-0.3,0.2-0.6,0.6-0.8,1
			c-0.4,0.8-0.8,1.6-1.1,2.4c-0.1,0.2-0.1,0.5-0.1,0.7c2,8.2,4.9,16.1,8.9,23.6c0,0.1,0.1,0.1,0.3,0.3c0.1-0.7,0.2-1.3,0.2-1.9
			c0-0.1,0-0.3-0.1-0.4c-1.9-1.6-2.4-3.9-3-6.2c-0.9-3.8-0.3-7.5,0.9-11c1.3-4,2.9-7.9,4.4-11.9c0.2-0.6,0.5-1.2,0.7-1.8
			c0.1,0,0.1,0,0.2-0.1c0.6,1.5,1.2,2.9,1.7,4.4c2.4,7.5,2.2,14.9-1,22.2c-0.6,1.4-1.6,2.6-2.3,3.9c-0.3,0.4-0.4,1-0.6,1.4
			c-0.1,0.4-0.1,0.8-0.2,1.2c-0.4,1.1,0,1.9,0.5,2.8c3.5,5.9,7.5,11.3,12.2,16.2c0.2,0.2,0.4,0.5,0.5,0.8c0.1-0.1,0.2-0.1,0.3-0.2
			c0-0.6-0.1-1.2-0.1-1.8c0-0.1-0.2-0.3-0.3-0.4c-2.4-1.2-3.7-3.2-4.8-5.4c-1.5-3.1-1.7-6.4-1.5-9.7c0.3-4.2,0.8-8.4,1.2-12.6
			c0.1-0.9,0.2-1.7,0.3-2.7c0.2,0.2,0.4,0.4,0.6,0.6c3.8,4.4,6.2,9.5,7,15.3c0.6,4.3,0.6,8.6-1,12.6c-0.6,1.6-0.5,3.2-0.5,4.8
			c0,0.3,0.3,0.6,0.5,0.8c4.6,4.4,9.7,8.1,15.4,11c0.9,0.5,1.9,0.9,2.9,1.4c0.1,0.1,0.2,0.1,0.4,0.2c0-0.3-0.1-0.5-0.1-0.7
			c-0.1-0.7-0.3-1-1.1-1.1c-1.6-0.1-2.8-1.1-4.1-2.1c-2.9-2.3-4.4-5.5-5.2-9c-0.8-3.5-1.4-7.1-2-10.6c-0.2-1.3-0.4-2.6-0.7-4.1
			c0.4,0.2,0.7,0.3,1,0.5c8.5,4.6,13.5,14.1,12.6,23.7c-0.1,1.1,0.3,2.3,0.5,3.5c0,0.2,0.4,0.4,0.6,0.5c4.6,1.9,9.4,3.4,14.4,4.3
			c1.4,0.2,1.6,0.5,1.7,2.1c-0.6-0.1-1.1-0.1-1.7-0.2c-4.4-0.7-8.6-1.9-12.8-3.5c-1.1-0.4-2.1,0.2-3.2,0.3c-0.2,0-0.5,0.2-0.6,0.4
			c-1.7,3.4-4.6,5.1-8.2,6c-1.3,0.3-2.6,0.4-3.8,0.6c-1.4,0-2.7,0-4.1,0c-0.3,0-0.5-0.1-0.8-0.1c-3-0.4-6-1-8.7-2.3
			c-1.3-0.6-2.5-1.3-3.5-2.5c0.2-0.1,0.3-0.2,0.4-0.3c2.3-2,4.8-3.6,7.7-4.8c3.8-1.6,7.7-2.3,11.8-1.8c3.1,0.4,5.9,1.8,8.6,3.3
			c0.8,0.5,0.8,0.5,1.8,0.1c-0.1-0.1-0.2-0.1-0.3-0.2c-6.4-2.9-12.3-6.7-17.6-11.3c-0.9-0.8-2.1-0.5-3.1-0.7c-0.1,0-0.3,0.1-0.3,0.3
			c-2.4,2.7-5.5,3.5-8.8,3.2c-6.4-0.6-11.9-3.3-16.7-7.5c-0.9-0.8-1.6-1.9-2.5-3c0.8-0.3,1.3-0.6,1.9-0.8c5.4-2,10.9-2.4,16.4-0.7
			c4,1.2,7,3.8,9.7,6.9c0.4,0.5,0.9,0.7,1.6,0.6c-0.1-0.2-0.2-0.3-0.3-0.4c-5.2-5-9.6-10.6-13.4-16.8c-0.1-0.2-0.2-0.4-0.4-0.5
			c-0.9-0.6-1.8-1.1-2.4-1.5c-1.5,0.4-2.8,0.9-4.1,1c-3.4,0.3-6.4-0.8-9.1-2.7c-3-2.1-5.5-4.8-7.7-7.8c-1.4-1.9-2.6-3.9-3.2-6.2
			c-0.1-0.5-0.2-1-0.3-1.5c0.2,0,0.3-0.1,0.4-0.1c0.2,0,0.3,0,0.5,0c6.2-0.3,11.6,1.8,16.3,5.9c3.1,2.8,5.3,6.2,7.1,9.9
			c0.3,0.6,0.7,0.9,1.4,1.1c-0.1-0.3-0.2-0.5-0.3-0.6c-3.9-6.8-6.9-14-9.1-21.5c-0.5-1.7-1.6-2.9-2.5-4.3c-2.3,0.5-4.5,0.1-6.4-1.2
			c-1.4-0.9-2.7-2-3.8-3.2c-3.1-3.3-5.2-7.2-6.8-11.4c-0.8-2.1-1.4-4.4-2-6.6c0-0.7,0-1.4,0-2.1c0.8,0.2,1.5,0.4,2.2,0.7
			c6.2,2.7,10.9,7.2,14.1,13.1c1.6,2.9,2.4,6,3.1,9.1c0.1,0.6,0.4,1.1,0.6,1.7c0.1,0,0.2-0.1,0.2-0.1c0-0.1,0-0.2-0.1-0.3
			c-1.7-7.1-2.5-14.3-2.7-21.5c0-0.5,0.1-1-0.1-1.4c-0.3-0.9-0.8-1.8-1.2-2.6c-0.1-0.2-0.4-0.4-0.6-0.4c-1.4-0.2-2.7-0.8-3.9-1.7
			c-1.7-1.3-2.9-3.1-3.9-5c-2.7-5.5-4.1-11.4-4.4-17.6c-0.1-1.8,0.1-3.7,0.1-5.5c0.3,0,0.3,0,0.4,0.1c0.1,0.1,0.3,0.1,0.4,0.2
			c6.6,4.9,10.6,11.4,12,19.4c0.6,3,0.5,6.1,0.3,9.2c0,0.5,0.3,1.1,0.5,1.6c0.1,0,0.2,0,0.2-0.1c0-0.2,0-0.3,0-0.5
			c0-5.9,0.5-11.8,1.2-17.7c0.2-1.9,0.8-3.7,0.2-5.7c-0.4-1.2-0.8-2.1-1.9-2.8c-2.5-1.5-3.8-4.1-4.4-6.9c-1.5-6.5-1.4-13-0.2-19.5
			c0.3-1.5,0.8-2.9,1.3-4.6c0.5,0.7,0.9,1.1,1.3,1.6c3.9,4.8,6,10.4,6.2,16.6c0.2,4.3-0.5,8.5-1.6,12.7c-0.2,0.7,0,1.7,0.4,2.3
			c1.4-6.9,3.4-13.7,6.1-20.2c0.1-0.1,0.1-0.3,0.2-0.4c0-1.1,0-2.1,0-3.2c0-0.2-0.1-0.4-0.2-0.5c-2.6-2.2-3.6-5.2-3.8-8.4
			c-0.3-3,0.1-6,0.6-9c0.8-4.1,1.8-8.1,3.7-11.9c0.4-0.8,1-1.6,1.5-2.5c0.1,0.1,0.2,0.2,0.2,0.2c0.1,0.2,0.2,0.3,0.2,0.5
			c1.9,3.7,2.9,7.6,3.1,11.8c0.4,6.4-0.7,12.5-3.9,18.1c-0.5,0.8-0.6,1.7-0.5,2.7c0.1-0.1,0.2-0.2,0.2-0.2c3-6.8,6.7-13.1,11-19.1
			c0.1-0.2,0.2-0.4,0.2-0.5c0.1-0.8,0.2-1.7,0.4-2.5c0.1-0.4,0-0.7-0.3-1.1c-0.5-0.5-0.9-1.1-1.2-1.8c-1.1-2.5-1.2-5.2-0.8-7.9
			c0.9-6,3.6-11.2,7.4-15.9c1-1.2,2.1-2.3,3.2-3.5c0.2,0.3,0.2,0.4,0.3,0.5c0.1,0.4,0.2,0.7,0.2,1.1c0.5,3.5,0.5,7.1,0,10.6
			c-0.8,6.3-3.1,12.1-7.5,16.8c-0.7,0.8-0.7,1.6-0.7,2.5c1-1.1,1.9-2.3,2.8-3.5c3.6-4.3,7.3-8.5,11.6-12.2c0.2-0.2,0.3-0.6,0.3-0.8
			c-0.1-1.4,0.1-2.8,0.7-4.2c1.2-2.9,3.4-4.9,5.9-6.6c2.4-1.6,5.2-2.6,7.9-3.6c1.5-0.5,2.9-1.1,4.3-1.7
			C75.3,40.3,75.4,40.3,75.4,40.3z"/>
	</g>
	<g>
		<path class="st0" d="M212.4,234.6c-1.6-0.3-3.3-0.5-4.9-0.9c-3.1-0.9-5.6-2.7-7.1-5.7c-0.1-0.1-0.1-0.3-0.2-0.3
			c-1.1-0.2-2.4-0.8-3.3-0.5c-4.6,1.6-9.2,2.9-13.9,3.6c-0.2,0-0.4,0.1-0.6,0.1c-0.1,0-0.1,0-0.2,0c-0.1-1.3,0.2-1.8,1.5-2
			c5-0.8,9.7-2.3,14.4-4.2c0.5-0.2,0.8-0.5,0.9-1.1c0.5-1.5,0.3-3.1,0.3-4.7c-0.1-9.8,4.2-17.2,12.7-22.1c0.2-0.1,0.4-0.2,0.5-0.3
			c0.1,0,0.2-0.1,0.4-0.1c-0.2,1.4-0.4,2.7-0.7,4c-0.7,3.7-1.3,7.5-2.2,11.2c-0.9,3.7-2.8,6.9-6,9.2c-1.1,0.7-2.2,1.4-3.6,1.4
			c-0.1,0-0.3,0.2-0.4,0.3c-0.1,0.4-0.2,0.8-0.4,1.4c0.9-0.4,1.8-0.8,2.6-1.2c6-3,11.3-6.8,16.2-11.4c0.4-0.4,0.5-0.8,0.6-1.3
			c0.1-1.7-0.2-3.3-0.7-4.9c-1.3-3.6-1.3-7.4-0.9-11.2c0.7-5.9,2.9-11.1,6.7-15.6c0.2-0.3,0.5-0.5,0.7-0.8c0.1-0.1,0.2-0.1,0.3-0.2
			c0.3,2.2,0.5,4.3,0.8,6.4c0.5,3.7,0.9,7.5,0.8,11.3c-0.1,3.8-1,7.4-3.5,10.4c-0.8,0.9-1.8,1.6-2.8,2.3c-0.2,0.1-0.4,0.4-0.4,0.6
			c-0.1,0.5-0.1,1.1-0.1,1.8c0.3-0.2,0.4-0.3,0.6-0.5c5.2-5.3,9.5-11.2,13.1-17.6c0.1-0.2,0.1-0.6,0.1-0.9c0-0.5-0.2-0.9-0.2-1.4
			c-0.1-1.1-0.5-2-1.2-2.9c-2.5-3.4-3.6-7.3-4.2-11.4c-0.8-6.1,0.2-11.9,2.6-17.5c0.1-0.3,0.3-0.6,0.5-1c0.2,0.6,0.4,1,0.5,1.5
			c1.3,3.3,2.6,6.6,3.8,9.9c1.1,2.9,1.9,5.9,2,9.1c0.2,3.2-0.5,6.2-2,9c-0.2,0.3-0.4,0.7-0.7,0.9c-1.2,0.8-0.8,1.8-0.5,2.9
			c0.6-1.3,1.3-2.6,1.9-3.9c3-6.4,5.3-13,7-19.8c0.1-0.3-0.1-0.8-0.2-1.1c-0.1-0.2-0.3-0.4-0.3-0.7c-0.4-1.6-1.4-2.6-2.7-3.6
			c-3.1-2.3-4.9-5.6-6.4-9.1c-2.5-5.9-3-12-1.9-18.3c0-0.1,0-0.2,0.1-0.4c0.5,0.7,0.9,1.2,1.3,1.7c2.3,3,4.6,6,6.8,9.1
			c1.9,2.8,3.5,5.7,4.2,9.1c0.4,2.2,0.5,4.4-0.1,6.6c-0.2,0.6-0.3,1.2-0.7,1.6c-0.6,0.6-0.4,1.2-0.1,1.8c0.2,0.4,0.3,0.7,0.7,1.1
			c0.4-2.4,0.9-4.9,1.3-7.3c0.9-5.6,1.3-11.3,1.2-17c0-0.3-0.2-0.7-0.4-1c-0.1-0.2-0.4-0.4-0.5-0.7c-0.6-1.2-1.6-1.8-2.9-2.3
			c-3.4-1.2-5.9-3.8-8-6.7c-3.2-4.3-4.8-9.3-5.5-14.5c-0.1-1.1-0.2-2.2-0.3-3.5c0.7,0.6,1.2,1,1.7,1.4c2.8,2.3,5.6,4.4,8.3,6.9
			c3.4,3.1,5.9,7,6.4,11.7c0.1,1.3,0.1,2.7-0.1,4c-0.2,0.9,0,1.6,0.7,2.1c0.1,0.1,0.3,0.3,0.5,0.5c0-0.5,0-0.8,0-1.1
			c-0.2-8.1-1.3-16-3.1-23.9c-0.1-0.5-0.3-0.9-0.8-1c-0.1,0-0.1-0.1-0.2-0.1c-1-1.1-2.3-1.4-3.8-1.4c-4-0.2-7.1-2.3-9.9-4.9
			c-3.8-3.5-6.1-8-7.6-12.9c0-0.2-0.1-0.3-0.1-0.6c4.6,2,9.4,3.3,13.6,6c2.8,1.8,5.1,4.1,6.1,7.5c0.3,1.2,0.5,2.4,0.5,3.6
			c0,0.8,0.2,1.3,1,1.7c0.2,0.1,0.3,0.2,0.6,0.3c0-0.2,0-0.4-0.1-0.6c-1.9-7.2-4.5-14.2-7.7-20.9c-0.3-0.5-0.5-1-1.2-1
			c0,0-0.1,0-0.1,0c-1.3-0.8-2.6-0.6-4-0.2c-3.4,0.9-6.7-0.1-9.7-1.6c-4.2-2.1-7.2-5.5-9.6-9.5c-0.1-0.1-0.1-0.2-0.1-0.4
			c1,0.1,2,0.1,3,0.2c3,0.3,6.1,0.4,9.1,0.9c2.9,0.5,5.5,1.7,7.5,4c1.1,1.3,1.9,2.7,2.1,4.4c0.1,0.7,0.4,0.9,1,1.1
			c0.3,0.1,0.7,0.2,1.2,0.4c-1.1-2-2-3.9-3.1-5.6c-2.4-3.7-4.8-7.3-7.3-10.9c-0.2-0.3-0.6-0.3-0.9-0.5c-0.1,0-0.3,0-0.4,0
			c-1.3-0.5-2.3,0-3.4,0.5c-4.3,1.9-8.6,1.5-12.8-0.5c-2.9-1.4-5.3-3.4-7.3-6c-0.1-0.1-0.2-0.2-0.3-0.5c1.1-0.2,2.1-0.3,3.1-0.5
			c2.9-0.5,5.7-1.1,8.6-1c2.7,0.1,5.2,0.9,7.4,2.5c1.2,0.9,2.2,2,2.7,3.4c0.3,0.8,0.7,1.2,1.6,1.2c0.2,0,0.3,0,0.7,0.1
			c-0.2-0.3-0.3-0.5-0.4-0.6c-2.9-3.6-6-6.9-9.4-10c-0.6-0.6-1.3-1.1-1.9-1.6c-0.2-0.1-0.4-0.2-0.6-0.2c-6.4-0.3-11.1-3.6-14.6-8.8
			c-1.6-2.4-2.7-5-3.5-7.8c-0.1-0.2,0-0.4-0.1-0.6c0.1,0,0.1,0,0.2,0c0.3,0.2,0.6,0.3,1,0.5c2,0.7,3.9,1.4,5.9,2.1
			c3.2,1.2,6.1,2.7,8.5,5.2c1.7,1.8,3,3.8,3.4,6.3c0.1,0.8-0.2,1.8,0.1,2.5c0.3,0.7,1.2,1.2,1.9,1.7c0.1,0.1,0.2,0.2,0.3,0.3
			c3.5,3.3,6.8,6.8,9.8,10.6c0.9,1.1,1.8,2.2,2.8,3.5c-0.1-1.1-0.1-2-0.8-2.7c-2-2.1-3.7-4.6-4.9-7.3c-2.5-5.8-3.3-11.9-2.8-18.1
			c0.1-1.1,0.3-2.2,0.5-3.4c0.2,0.1,0.3,0.1,0.3,0.2c0.2,0.2,0.4,0.3,0.6,0.5c3.6,3.2,6.1,7.2,8,11.6c1.6,3.6,2.4,7.4,2,11.4
			c-0.2,1.7-0.5,3.4-1.6,4.6c-0.8,0.9-0.8,1.7-0.6,2.7c0.1,0.4,0.1,0.8,0.2,1.2c0.1,0.3,0.1,0.6,0.3,0.9c4.2,5.9,7.8,12.1,10.7,18.6
			c0.1,0.2,0.2,0.4,0.4,0.8c0.1-1.2-0.1-2-0.6-2.9c-4.2-8-5-16.5-2.5-25.1c0.5-1.8,1.3-3.5,2.1-5.4c0.4,0.6,0.7,0.9,0.9,1.3
			c1.3,2.2,2.3,4.6,3,7.1c1.4,5,2.4,10,2,15.2c-0.2,2.8-1,5.5-3,7.5c-0.9,0.9-1.2,1.7-1,2.8c0.1,0.3,0,0.7,0.1,1.1
			c0.1,0.5,0.1,1,0.3,1.5c0.9,2.4,1.9,4.8,2.6,7.3c1.2,4.1,2.3,8.3,3.5,12.6c0-0.9,0.2-1.7,0.1-2.4c-0.4-2.8-1.2-5.5-1.4-8.2
			c-0.8-8,1.2-15.1,6.3-21.3c0.3-0.3,0.6-0.7,0.9-1.1c0.2,0.4,0.3,0.6,0.4,0.9c0.9,2.5,1.4,5.1,1.6,7.8c0.4,4.9,0.4,9.7-0.7,14.5
			c-0.7,3-1.8,5.8-4.6,7.5c-1.4,0.8-1.8,1.8-2,3.2c-0.1,0.5-0.4,1.1-0.4,1.6c1.1,6.6,1.6,13.2,1.8,19.8c0,0.7,0,1.4,0,2.2
			c0.1,0,0.2,0,0.3,0.1c0.1-0.6,0.4-1.2,0.4-1.7c0-1.8-0.1-3.7,0-5.5c0.5-9.5,4.7-17.1,12.2-22.8c0.2-0.2,0.5-0.3,0.8-0.5
			c0.1,1.1,0.2,2.1,0.3,3c0.2,5.3-0.8,10.5-2.5,15.5c-1,3-2.2,5.9-4.3,8.2c-1.3,1.4-2.7,2.6-4.6,2.9c-0.9,0.2-1.4,0.6-1.7,1.4
			c-0.1,0.5-0.4,0.9-0.6,1.4c-0.1,0.4-0.3,0.8-0.3,1.1c-0.1,6.1-0.6,12.2-1.8,18.2c-0.3,1.4-0.6,2.9-0.9,4.3c0.1,0,0.2,0.1,0.3,0.1
			c0.2-0.5,0.5-1.1,0.6-1.6c1.4-7.6,5-13.9,11.1-18.7c2.5-1.9,5.2-3.5,8.3-4.2c0,0.7,0,1.4,0,2.1c0,0.1-0.1,0.3-0.1,0.4
			c-1.4,6.7-4.4,12.7-8.9,17.8c-2.6,2.9-5.8,4.9-10,4.1c-0.5,0.7-1,1.4-1.4,2.1c-0.2,0.4-0.5,0.7-0.7,1.1
			c-2.4,7.9-5.5,15.5-9.6,22.7c-0.1,0.2-0.1,0.3-0.2,0.5c0.1,0.1,0.2,0.1,0.2,0.2c0.4-0.5,0.9-0.9,1.2-1.4c0.6-1,1.1-2.1,1.7-3.1
			c4.1-6.8,9.8-11.3,17.9-12.3c1.5-0.2,3,0,4.7,0c-0.3,1-0.5,1.9-0.9,2.8c-2.6,5.7-6.5,10.3-11.7,13.5c-3.6,2.2-7.6,2.9-11.7,0.8
			c-0.5,0.3-1.1,0.7-1.6,1c-0.8,0.4-1.4,1.1-1.9,1.9c-3.1,5-6.6,9.6-10.7,13.8c-0.8,0.8-1.7,1.6-2.7,2.5c0.9,0.1,1.4-0.1,1.8-0.6
			c2.2-2.5,4.6-4.7,7.6-6.1c4.9-2.2,9.9-2.4,15.1-1.2c1.7,0.4,3.4,1.1,5.3,1.7c-0.6,0.9-1.1,1.6-1.6,2.2c-1.6,1.8-3.6,3.2-5.6,4.4
			c-4.2,2.5-8.6,4.1-13.5,4.1c-2.5,0-4.9-0.7-6.7-2.6c-0.7-0.7-1.2-1-2.2-0.7c-0.7,0.2-1.4,0.1-2,0.7c-5.2,4.6-10.9,8.3-17.2,11.2
			c-0.2,0.1-0.4,0.2-0.6,0.3c0.7,0.4,1.4,0.3,2-0.2c0.3-0.2,0.7-0.4,1-0.6c2.9-1.5,5.9-2.7,9.2-2.8c4-0.2,7.8,0.8,11.4,2.5
			c2.5,1.2,4.7,2.7,6.9,4.7c-0.6,0.5-1.1,1.1-1.8,1.4c-1.6,0.8-3.3,1.6-5,2.1c-2,0.6-4.2,0.9-6.3,1.3
			C215.1,234.6,213.8,234.6,212.4,234.6z"/>
	</g>
	<g>
		<g>
			<path class="st0" d="M94.4,99.3c-2.8,0-5-0.9-6.6-2.7c-1.7-1.8-2.5-4.2-2.5-7.2c0-3,0.8-5.4,2.5-7.2c1.6-1.8,3.8-2.7,6.6-2.7
				c2.8,0,5,0.9,6.6,2.7c1.6,1.8,2.4,4.2,2.4,7.2c0,3-0.8,5.4-2.5,7.2C99.3,98.4,97.1,99.3,94.4,99.3z M94.4,82.9
				c-1.6,0-2.9,0.6-3.8,1.8c-0.9,1.2-1.4,2.8-1.4,4.8c0,2,0.5,3.6,1.4,4.8c0.9,1.2,2.2,1.8,3.8,1.8c1.6,0,2.9-0.6,3.8-1.7
				c0.9-1.2,1.4-2.8,1.4-4.8c0-2-0.5-3.6-1.4-4.8C97.3,83.4,96,82.9,94.4,82.9z"/>
		</g>
		<g>
			<path class="st0" d="M114.2,81.5c-1.4,0-2.1,0.8-2.1,2.3v0.8h2.9v2.6l-2.9,0l0,11.9l-3.4,0l0-11.9h-2.1v-2.6h2.1v-0.9
				c0-1.6,0.4-2.9,1.3-3.8c0.9-0.9,2.1-1.4,3.7-1.4c0.7,0,1.3,0.1,1.9,0.3v2.9C115.1,81.6,114.7,81.5,114.2,81.5z"/>
		</g>
		<g>
			<path class="st0" d="M125,81.5c-1.4,0-2.1,0.8-2.1,2.3v0.8l2.9,0v2.6h-2.9l0,11.9h-3.4l0-11.9h-2.1v-2.6h2.1v-0.9
				c0-1.6,0.4-2.9,1.3-3.8c0.9-0.9,2.1-1.4,3.7-1.4c0.7,0,1.3,0.1,1.9,0.3l0,2.9C125.9,81.6,125.4,81.5,125,81.5z"/>
		</g>
		<g>
			<path class="st0" d="M131,82.4c-0.6,0-1.1-0.2-1.5-0.6c-0.4-0.4-0.6-0.9-0.6-1.5c0-0.6,0.2-1.1,0.6-1.5c0.4-0.4,0.9-0.6,1.5-0.6
				s1.1,0.2,1.5,0.6c0.4,0.4,0.6,0.9,0.6,1.5c0,0.6-0.2,1.1-0.6,1.5C132.1,82.2,131.6,82.4,131,82.4z M129.3,99.1V84.6h3.4v14.4
				L129.3,99.1z"/>
		</g>
		<g>
			<path class="st0" d="M141.7,95.2c0.8,0.8,1.8,1.3,3.1,1.3c1.3,0,2.4-0.3,3.4-1v3c-1,0.6-2.3,0.9-3.8,0.9c-2.2,0-4-0.7-5.4-2.1
				c-1.4-1.4-2.1-3.2-2-5.3c0-2.1,0.7-3.9,2-5.3c1.4-1.4,3.2-2.2,5.6-2.2c1.4,0,2.6,0.3,3.6,0.8v3c-0.9-0.6-2.1-0.9-3.3-0.9
				s-2.3,0.4-3.1,1.3c-0.8,0.8-1.2,1.9-1.3,3.3C140.5,93.3,140.9,94.4,141.7,95.2z"/>
		</g>
		<g>
			<path class="st0" d="M154,82.4c-0.6,0-1.1-0.2-1.5-0.6c-0.4-0.4-0.6-0.9-0.6-1.5c0-0.6,0.2-1.1,0.6-1.5c0.4-0.4,0.9-0.6,1.5-0.6
				c0.6,0,1.1,0.2,1.5,0.6c0.4,0.4,0.6,0.9,0.6,1.5c0,0.6-0.2,1.1-0.6,1.5S154.6,82.4,154,82.4z M152.3,99.1l0-14.4h3.4v14.4H152.3z
				"/>
		</g>
		<g>
			<path class="st0" d="M165.7,84.4c3.9,0,5.9,1.8,5.9,5.5v9.2h-3.4v-1.7c-0.7,1.2-1.9,1.8-3.8,1.8c-1.4,0-2.5-0.4-3.3-1.2
				c-0.8-0.8-1.2-1.8-1.2-3.1c0-1.3,0.5-2.3,1.5-3.1c1-0.8,2.5-1.2,4.4-1.2h2.1v-0.9c0-0.8-0.2-1.4-0.6-1.8
				c-0.4-0.4-1.1-0.6-2.1-0.6c-1.5,0-2.9,0.4-4.2,1.3v-3.2C162.1,84.7,163.7,84.4,165.7,84.4z M168,92.9h-1.8c-0.9,0-1.6,0.2-2,0.6
				c-0.5,0.4-0.7,0.8-0.7,1.4c0,1.2,0.7,1.8,2.1,1.8c0.8,0,1.4-0.2,1.8-0.7c0.4-0.4,0.6-1,0.6-1.7V92.9z"/>
		</g>
		<g>
			<path class="st0" d="M176.4,99.1l0-20.1h3.4v20.1H176.4z"/>
		</g>
		<g>
			<path class="st0" d="M78.6,109.2c-0.9,0-1.6,0.2-2.1,0.6c-0.5,0.4-0.8,0.9-0.8,1.5c0,0.6,0.3,1.1,0.8,1.6
				c0.5,0.4,1.3,0.8,2.2,1.2c0.9,0.4,1.6,0.8,2.1,1c0.5,0.3,1,0.6,1.5,1.1c1.1,0.9,1.7,2.2,1.7,3.9c0,1.7-0.6,3-1.8,4
				c-1.2,1-2.9,1.5-5,1.5c-2.1,0-3.8-0.4-5.3-1.2v-3.7c1.6,1.2,3.4,1.8,5.3,1.8c0.9,0,1.6-0.2,2.1-0.6c0.5-0.4,0.8-1,0.8-1.7
				c0-0.3-0.1-0.6-0.2-0.9c-0.1-0.3-0.4-0.5-0.8-0.8c-0.8-0.5-1.7-1-2.7-1.4c-0.7-0.3-1.3-0.6-1.7-0.9c-0.4-0.3-0.9-0.6-1.4-1
				c-1-0.9-1.5-2.1-1.5-3.7c0-1.6,0.6-2.9,1.8-3.9c1.2-1,2.8-1.5,4.7-1.5c1.9,0,3.5,0.3,4.8,0.9v3.5
				C81.7,109.6,80.2,109.2,78.6,109.2z"/>
		</g>
		<g>
			<path class="st0" d="M94.9,125.5c-2.3,0-4.1-0.7-5.4-2c-1.3-1.4-2-3.2-2-5.4c0-2.2,0.6-4,1.9-5.3c1.3-1.3,2.8-2,4.7-2
				c1.9,0,3.4,0.6,4.5,1.7c1.1,1.1,1.7,2.8,1.7,5c0,0.5-0.1,1.2-0.2,2h-9c0.2,1,0.8,1.8,1.6,2.4c0.8,0.6,1.9,0.8,3.2,0.8
				c1.3,0,2.5-0.4,3.6-1.1l0,3C98.2,125.2,96.8,125.5,94.9,125.5z M96.9,117v-0.4c0-0.9-0.3-1.7-0.8-2.2c-0.5-0.6-1.1-0.8-2-0.8
				c-0.9,0-1.6,0.3-2.2,0.9c-0.6,0.6-1,1.5-1.2,2.6L96.9,117z"/>
		</g>
		<g>
			<path class="st0" d="M104.5,125.4l0-18.2h3.4l0,18.2H104.5z"/>
		</g>
		<g>
			<path class="st0" d="M119.5,125.5c-2.3,0-4.1-0.7-5.4-2c-1.3-1.4-2-3.2-2-5.4c0-2.2,0.6-4,1.9-5.3c1.3-1.3,2.8-2,4.7-2
				c1.9,0,3.4,0.6,4.5,1.7c1.1,1.1,1.7,2.8,1.7,5c0,0.5-0.1,1.2-0.2,2h-9c0.2,1,0.8,1.8,1.6,2.4c0.8,0.6,1.9,0.8,3.2,0.8
				c1.3,0,2.5-0.4,3.6-1.1v3C122.9,125.2,121.4,125.5,119.5,125.5z M121.5,117v-0.4c0-0.9-0.3-1.7-0.8-2.2c-0.5-0.6-1.1-0.8-2-0.8
				c-0.9,0-1.6,0.3-2.2,0.9c-0.6,0.6-1,1.5-1.2,2.6H121.5z"/>
		</g>
		<g>
			<path class="st0" d="M133,121.5c0.8,0.8,1.8,1.3,3.1,1.3s2.4-0.3,3.4-1v3c-1,0.6-2.3,0.9-3.8,0.9c-2.2,0-4-0.7-5.4-2.1
				c-1.4-1.4-2.1-3.2-2-5.3c0-2.1,0.7-3.9,2-5.3c1.4-1.4,3.2-2.2,5.6-2.2c1.4,0,2.6,0.3,3.6,0.8v3c-0.9-0.6-2.1-0.9-3.3-0.9
				c-1.3,0-2.3,0.4-3.1,1.3c-0.8,0.8-1.2,1.9-1.3,3.3C131.8,119.5,132.2,120.6,133,121.5z"/>
		</g>
		<g>
			<path class="st0" d="M147.7,113.5l0,7.3c0,0.6,0.2,1.1,0.5,1.4c0.3,0.3,0.8,0.5,1.5,0.5c0.6,0,1.3-0.2,1.9-0.6v2.9
				c-0.7,0.3-1.5,0.5-2.6,0.5c-3.1,0-4.7-1.6-4.7-4.7v-7.3h-2.2l0-2.6h2.2v-3.5h3.4v3.5l3.6,0v2.6H147.7z"/>
		</g>
		<g>
			<path class="st0" d="M157.3,109.2c-0.6,0-1.1-0.2-1.5-0.6c-0.4-0.4-0.6-0.9-0.6-1.5c0-0.6,0.2-1.1,0.6-1.5
				c0.4-0.4,0.9-0.6,1.5-0.6c0.6,0,1.1,0.2,1.5,0.6c0.4,0.4,0.6,0.9,0.6,1.5c0,0.6-0.2,1.1-0.6,1.5S157.8,109.2,157.3,109.2z
				 M155.6,125.4v-13.9h3.4l0,13.9L155.6,125.4z"/>
		</g>
		<g>
			<path class="st0" d="M177.1,118.1c0,2.2-0.6,3.9-1.8,5.3c-1.2,1.4-2.9,2.1-5.1,2.1s-3.9-0.7-5.1-2c-1.2-1.4-1.8-3.1-1.8-5.3
				c0-2.2,0.6-4,1.9-5.4c1.3-1.4,3-2.1,5.1-2.1c2.2,0,3.8,0.7,5.1,2.1C176.5,114.2,177.1,116,177.1,118.1z M173.5,118.2
				c0-1.4-0.3-2.5-0.8-3.4c-0.6-0.9-1.4-1.3-2.5-1.3c-1.1,0-2,0.4-2.6,1.3c-0.6,0.9-0.9,2-0.9,3.3c0,1.3,0.3,2.5,0.9,3.3
				c0.6,0.9,1.4,1.3,2.5,1.3s1.9-0.4,2.5-1.3C173.2,120.7,173.5,119.5,173.5,118.2z"/>
		</g>
		<g>
			<path class="st0" d="M184.5,110.9v2.5c0.8-1.8,2.3-2.6,4.4-2.6c1.4,0,2.6,0.4,3.4,1.3c0.8,0.9,1.3,2.1,1.3,3.7v9.6h-3.4v-8.9
				c0-0.9-0.2-1.7-0.7-2.1c-0.5-0.5-1.1-0.7-1.9-0.7c-0.8,0-1.6,0.3-2.2,1c-0.6,0.7-0.9,1.7-0.9,3l0,7.7h-3.4l0-14.4H184.5z"/>
		</g>
	</g>
	<g>
		<path class="st0" d="M94.2,145.3l0-9h1.4l0,9H94.2z"/>
		<path class="st0" d="M99.7,138.5v1.2c0.4-0.8,1.1-1.3,2.1-1.3c0.7,0,1.2,0.2,1.6,0.6c0.4,0.4,0.6,1,0.6,1.7v4.6h-1.3l0-4.3
			c0-0.5-0.1-0.8-0.4-1.1c-0.2-0.3-0.6-0.4-1-0.4c-0.4,0-0.8,0.2-1.1,0.5c-0.3,0.4-0.5,0.9-0.5,1.5v3.7h-1.3v-6.8H99.7z"/>
		<path class="st0" d="M108.3,139.5v3.7c0,0.7,0.3,1,0.9,1c0.4,0,0.7-0.1,0.9-0.3v1.2c-0.3,0.2-0.7,0.2-1.1,0.2
			c-1.4,0-2.1-0.7-2.1-2.1l0-3.7h-1.1v-1h1.1v-1.7h1.3v1.7h1.8v1H108.3z"/>
		<path class="st0" d="M115.5,145.3c-1.1,0-1.9-0.3-2.5-1c-0.6-0.6-0.9-1.5-0.9-2.5c0-1.1,0.3-1.9,0.9-2.5c0.6-0.6,1.3-0.9,2.2-0.9
			s1.6,0.3,2.1,0.8c0.5,0.5,0.8,1.3,0.8,2.3c0,0.3,0,0.6-0.1,0.9h-4.5c0.1,0.6,0.3,1,0.7,1.4c0.4,0.3,1,0.5,1.6,0.5
			c0.7,0,1.3-0.2,1.7-0.5v1.2C117,145.2,116.3,145.3,115.5,145.3z M116.6,141.4v-0.2c0-0.5-0.2-0.9-0.4-1.2
			c-0.3-0.3-0.6-0.4-1.1-0.4c-0.5,0-0.9,0.2-1.2,0.5c-0.3,0.3-0.5,0.8-0.6,1.4H116.6z"/>
		<path class="st0" d="M121.5,138.5v1.2c0.3-0.8,0.9-1.3,1.8-1.3c0.1,0,0.3,0,0.4,0v1.3c-0.2-0.1-0.4-0.1-0.6-0.1
			c-0.5,0-0.8,0.2-1.1,0.6c-0.3,0.4-0.4,0.9-0.4,1.4v3.6h-1.3v-6.8H121.5z"/>
		<path class="st0" d="M126.9,138.5v1.2c0.4-0.8,1.1-1.3,2.1-1.3c0.7,0,1.2,0.2,1.6,0.6s0.6,1,0.6,1.7v4.6h-1.3V141
			c0-0.5-0.1-0.8-0.4-1.1c-0.2-0.3-0.6-0.4-1-0.4c-0.4,0-0.8,0.2-1.1,0.5c-0.3,0.4-0.5,0.9-0.5,1.5v3.7h-1.3v-6.8H126.9z"/>
		<path class="st0" d="M136,138.4c1.8,0,2.7,0.9,2.7,2.6v4.3h-1.3v-0.8c-0.3,0.6-1,0.9-1.8,0.9c-0.6,0-1.2-0.2-1.5-0.6
			c-0.4-0.4-0.6-0.9-0.6-1.5c0-0.6,0.2-1.1,0.7-1.5c0.5-0.4,1.2-0.5,2.1-0.5h1.1v-0.4c0-0.5-0.1-0.8-0.3-1.1
			c-0.2-0.2-0.6-0.4-1.1-0.4c-0.7,0-1.4,0.2-2,0.6v-1.3C134.4,138.5,135.1,138.4,136,138.4z M137.3,142.2h-1c-0.5,0-0.9,0.1-1.1,0.3
			c-0.3,0.2-0.4,0.4-0.4,0.8s0.1,0.6,0.3,0.7c0.2,0.2,0.5,0.3,0.9,0.3c0.4,0,0.7-0.1,1-0.4c0.2-0.2,0.4-0.5,0.4-0.9V142.2z"/>
		<path class="st0" d="M142.9,139.5v3.7c0,0.7,0.3,1,0.9,1c0.4,0,0.7-0.1,0.9-0.3v1.2c-0.3,0.2-0.7,0.2-1.1,0.2
			c-1.4,0-2.1-0.7-2.1-2.1v-3.7h-1.1v-1h1.1v-1.7h1.3v1.7h1.8v1H142.9z"/>
		<path class="st0" d="M147.1,137c-0.2-0.2-0.2-0.3-0.2-0.6c0-0.2,0.1-0.4,0.2-0.6c0.2-0.2,0.3-0.2,0.6-0.2c0.2,0,0.4,0.1,0.6,0.2
			c0.2,0.2,0.2,0.4,0.2,0.6s-0.1,0.4-0.2,0.6s-0.4,0.2-0.6,0.2C147.5,137.2,147.3,137.1,147.1,137z M147.1,145.3v-6.8h1.3v6.8H147.1
			z"/>
		<path class="st0" d="M157.2,141.9c0,1-0.3,1.9-0.9,2.5c-0.6,0.7-1.4,1-2.4,1c-1,0-1.8-0.3-2.4-1c-0.6-0.7-0.9-1.5-0.9-2.5
			s0.3-1.8,0.9-2.5c0.6-0.7,1.4-1,2.4-1c1,0,1.8,0.3,2.3,1C156.9,140,157.2,140.9,157.2,141.9z M155.8,141.9c0-0.7-0.2-1.3-0.5-1.7
			c-0.3-0.4-0.8-0.7-1.4-0.7c-0.6,0-1.1,0.2-1.4,0.7c-0.3,0.5-0.5,1-0.5,1.7c0,0.7,0.2,1.2,0.5,1.7c0.3,0.5,0.8,0.7,1.4,0.7
			c0.6,0,1-0.2,1.4-0.7C155.6,143.2,155.8,142.6,155.8,141.9z"/>
		<path class="st0" d="M160.8,138.5v1.2c0.4-0.8,1.1-1.3,2.1-1.3c0.7,0,1.2,0.2,1.6,0.6c0.4,0.4,0.6,1,0.6,1.7v4.6h-1.3V141
			c0-0.5-0.1-0.8-0.4-1.1c-0.2-0.3-0.6-0.4-1-0.4c-0.4,0-0.8,0.2-1.1,0.5c-0.3,0.4-0.5,0.9-0.5,1.5l0,3.7h-1.3v-6.8H160.8z"/>
		<path class="st0" d="M169.9,138.4c1.8,0,2.7,0.9,2.7,2.6v4.3l-1.3,0v-0.8c-0.3,0.6-1,0.9-1.8,0.9c-0.6,0-1.2-0.2-1.5-0.6
			c-0.4-0.4-0.6-0.9-0.6-1.5c0-0.6,0.2-1.1,0.7-1.5c0.5-0.4,1.2-0.5,2.1-0.5h1.1v-0.4c0-0.5-0.1-0.8-0.3-1.1
			c-0.2-0.2-0.6-0.4-1.1-0.4c-0.7,0-1.4,0.2-2,0.6v-1.3C168.3,138.5,169,138.4,169.9,138.4z M171.2,142.2h-1c-0.5,0-0.9,0.1-1.1,0.3
			c-0.3,0.2-0.4,0.4-0.4,0.8c0,0.3,0.1,0.6,0.3,0.7c0.2,0.2,0.5,0.3,0.9,0.3s0.7-0.1,1-0.4c0.2-0.2,0.4-0.5,0.4-0.9V142.2z"/>
		<path class="st0" d="M175.2,145.3l0-9.5h1.3v9.5H175.2z"/>
		<path class="st0" d="M80.6,148.9h-3.7v3h3.3v1.2h-3.3l0,3.8h-1.4l0-9h5.1V148.9z"/>
		<path class="st0" d="M83,148.5c-0.2-0.2-0.2-0.3-0.2-0.6c0-0.2,0.1-0.4,0.2-0.6c0.2-0.2,0.3-0.2,0.6-0.2c0.2,0,0.4,0.1,0.6,0.2
			s0.2,0.4,0.2,0.6c0,0.2-0.1,0.4-0.2,0.6c-0.2,0.2-0.4,0.2-0.6,0.2C83.3,148.7,83.1,148.6,83,148.5z M82.9,156.7l0-6.8h1.3l0,6.8
			H82.9z"/>
		<path class="st0" d="M87,156.7l0-9.5h1.3l0,9.5H87z"/>
		<path class="st0" d="M92.3,149.9l0,1.1c0.4-0.8,1-1.2,1.9-1.2c1,0,1.7,0.4,2,1.3c0.2-0.4,0.5-0.7,0.8-1s0.8-0.3,1.2-0.3
			c0.7,0,1.2,0.2,1.6,0.6s0.5,1,0.5,1.7v4.6H99l0-4.3c0-1-0.4-1.5-1.2-1.5c-0.4,0-0.7,0.2-1.1,0.5c-0.3,0.3-0.5,0.9-0.5,1.5v3.7H95
			l0-4.3c0-1-0.4-1.5-1.2-1.5c-0.4,0-0.7,0.2-1,0.5c-0.3,0.3-0.5,0.9-0.5,1.5v3.7H91l0-6.8H92.3z"/>
		<path class="st0" d="M104.2,149.9v1.1c0.4-0.8,1-1.2,1.9-1.2c1,0,1.7,0.4,2,1.3c0.2-0.4,0.5-0.7,0.8-1s0.8-0.3,1.2-0.3
			c0.7,0,1.2,0.2,1.6,0.6c0.4,0.4,0.5,1,0.5,1.7v4.6h-1.3l0-4.3c0-1-0.4-1.5-1.2-1.5c-0.4,0-0.7,0.2-1.1,0.5
			c-0.3,0.3-0.5,0.9-0.5,1.5v3.7h-1.3l0-4.3c0-1-0.4-1.5-1.2-1.5c-0.4,0-0.7,0.2-1,0.5c-0.3,0.3-0.5,0.9-0.5,1.5v3.7h-1.3l0-6.8
			H104.2z"/>
		<path class="st0" d="M117.1,149.8c1.8,0,2.7,0.9,2.7,2.6l0,4.3h-1.3v-0.8c-0.3,0.6-1,0.9-1.8,0.9c-0.6,0-1.2-0.2-1.5-0.6
			c-0.4-0.4-0.6-0.9-0.6-1.5c0-0.6,0.2-1.1,0.7-1.5c0.5-0.4,1.2-0.5,2.1-0.5h1.1v-0.4c0-0.5-0.1-0.8-0.3-1.1
			c-0.2-0.2-0.6-0.4-1.1-0.4c-0.7,0-1.4,0.2-2,0.6v-1.3C115.5,150,116.2,149.8,117.1,149.8z M118.4,153.7h-1c-0.5,0-0.9,0.1-1.1,0.3
			c-0.3,0.2-0.4,0.4-0.4,0.8c0,0.3,0.1,0.6,0.3,0.7c0.2,0.2,0.5,0.3,0.9,0.3c0.4,0,0.7-0.1,1-0.4c0.2-0.2,0.4-0.5,0.4-0.9V153.7z"/>
		<path class="st0" d="M122.3,156.7l0-9.4h1.3l0,9.4H122.3z M125.2,153.2l2.7,3.5h-1.6l-2.6-3.5l2.6-3.2h1.5L125.2,153.2z"/>
		<path class="st0" d="M132.9,156.8c-1.1,0-1.9-0.3-2.5-1c-0.6-0.6-0.9-1.5-0.9-2.5c0-1.1,0.3-1.9,0.9-2.5c0.6-0.6,1.3-0.9,2.2-0.9
			s1.6,0.3,2.1,0.8c0.5,0.5,0.8,1.3,0.8,2.3c0,0.3,0,0.6-0.1,0.9h-4.5c0.1,0.6,0.3,1,0.7,1.4c0.4,0.3,1,0.5,1.6,0.5
			c0.7,0,1.3-0.2,1.7-0.5v1.2C134.4,156.6,133.7,156.8,132.9,156.8z M134,152.8v-0.2c0-0.5-0.2-0.9-0.4-1.2
			c-0.3-0.3-0.6-0.4-1.1-0.4c-0.5,0-0.9,0.2-1.2,0.5c-0.3,0.3-0.5,0.8-0.6,1.4H134z"/>
		<path class="st0" d="M138.9,149.9v1.2c0.3-0.8,0.9-1.3,1.8-1.3c0.1,0,0.3,0,0.4,0v1.3c-0.2-0.1-0.4-0.1-0.6-0.1
			c-0.5,0-0.8,0.2-1.1,0.6c-0.3,0.4-0.4,0.9-0.4,1.4v3.6h-1.3v-6.8H138.9z"/>
		<path class="st0" d="M152.2,148.9h-3.7l0,3h3.3v1.2h-3.3v3.8h-1.4v-9h5.1V148.9z"/>
		<path class="st0" d="M157.5,156.8c-1.1,0-1.9-0.3-2.5-1c-0.6-0.6-0.9-1.5-0.9-2.5c0-1.1,0.3-1.9,0.9-2.5c0.6-0.6,1.3-0.9,2.2-0.9
			c0.9,0,1.6,0.3,2.1,0.8c0.5,0.5,0.8,1.3,0.8,2.3c0,0.3,0,0.6-0.1,0.9h-4.5c0.1,0.6,0.3,1,0.7,1.4c0.4,0.3,1,0.5,1.6,0.5
			c0.7,0,1.3-0.2,1.7-0.5v1.2C159,156.6,158.4,156.8,157.5,156.8z M158.7,152.8v-0.2c0-0.5-0.2-0.9-0.4-1.2
			c-0.3-0.3-0.6-0.4-1.1-0.4c-0.5,0-0.9,0.2-1.2,0.5c-0.3,0.3-0.5,0.8-0.6,1.4H158.7z"/>
		<path class="st0" d="M164.5,151c-0.3,0-0.6,0.1-0.7,0.2c-0.2,0.1-0.3,0.3-0.3,0.6c0,0.3,0.1,0.5,0.3,0.6c0.1,0,0.1,0.1,0.2,0.1
			c0,0,0.1,0.1,0.2,0.1c0.1,0,0.2,0.1,0.2,0.1c0.1,0.1,0.4,0.2,0.7,0.3c0.4,0.2,0.7,0.4,1,0.7c0.3,0.3,0.4,0.7,0.4,1.3
			c0,0.5-0.2,1-0.6,1.3c-0.4,0.3-1,0.5-1.8,0.5c-0.8,0-1.4-0.1-2-0.4v-1.2c0.6,0.4,1.3,0.6,1.9,0.6c0.3,0,0.6-0.1,0.8-0.2
			c0.2-0.1,0.3-0.3,0.3-0.5s-0.1-0.4-0.2-0.6c-0.2-0.2-0.3-0.3-0.5-0.3c-0.2-0.1-0.4-0.2-0.8-0.4c-1.1-0.4-1.6-1.1-1.6-1.9
			c0-0.6,0.2-1.1,0.7-1.4c0.4-0.3,1-0.5,1.7-0.5s1.3,0.1,1.7,0.3v1.2C165.7,151.1,165.2,151,164.5,151z"/>
		<path class="st0" d="M170.4,151v3.7c0,0.7,0.3,1,0.9,1c0.4,0,0.7-0.1,0.9-0.3l0,1.2c-0.3,0.2-0.7,0.2-1.1,0.2
			c-1.4,0-2.1-0.7-2.1-2.1V151H168v-1h1.1v-1.7h1.3v1.7h1.8v1H170.4z"/>
		<path class="st0" d="M174.6,148.5c-0.2-0.2-0.2-0.3-0.2-0.6s0.1-0.4,0.2-0.6c0.2-0.2,0.3-0.2,0.6-0.2c0.2,0,0.4,0.1,0.6,0.2
			s0.2,0.4,0.2,0.6c0,0.2-0.1,0.4-0.2,0.6s-0.4,0.2-0.6,0.2C175,148.7,174.8,148.6,174.6,148.5z M174.6,156.7v-6.8h1.3l0,6.8H174.6z
			"/>
		<path class="st0" d="M180.3,156.7l-2.4-6.8h1.4c1.1,3.4,1.7,5.3,1.8,5.8c0.1-0.4,0.4-1.4,0.9-2.9l0.9-2.9h1.4l-2.5,6.8H180.3z"/>
		<path class="st0" d="M188.5,149.8c1.8,0,2.7,0.9,2.7,2.6v4.3h-1.3v-0.8c-0.3,0.6-1,0.9-1.8,0.9c-0.6,0-1.2-0.2-1.5-0.6
			c-0.4-0.4-0.6-0.9-0.6-1.5s0.2-1.1,0.7-1.5c0.5-0.4,1.2-0.5,2.1-0.5h1.1v-0.4c0-0.5-0.1-0.8-0.3-1.1c-0.2-0.2-0.6-0.4-1.1-0.4
			c-0.7,0-1.4,0.2-2,0.6v-1.3C186.9,150,187.6,149.8,188.5,149.8z M189.8,153.7h-1c-0.5,0-0.9,0.1-1.1,0.3c-0.3,0.2-0.4,0.4-0.4,0.8
			s0.1,0.6,0.3,0.7c0.2,0.2,0.5,0.3,0.9,0.3s0.7-0.1,1-0.4c0.2-0.2,0.4-0.5,0.4-0.9V153.7z"/>
		<path class="st0" d="M193.8,156.7v-9.5h1.3v9.5H193.8z"/>
		<path class="st0" d="M87.7,164.8c0,1-0.3,1.9-0.9,2.5c-0.6,0.7-1.4,1-2.4,1s-1.8-0.3-2.4-1c-0.6-0.7-0.9-1.5-0.9-2.5
			c0-1,0.3-1.8,0.9-2.5c0.6-0.7,1.4-1,2.4-1c1,0,1.8,0.3,2.3,1C87.4,163,87.7,163.8,87.7,164.8z M86.3,164.8c0-0.7-0.2-1.3-0.5-1.7
			c-0.3-0.4-0.8-0.7-1.4-0.7c-0.6,0-1.1,0.2-1.4,0.7c-0.3,0.5-0.5,1-0.5,1.7c0,0.7,0.2,1.2,0.5,1.7c0.3,0.5,0.8,0.7,1.4,0.7
			c0.6,0,1-0.2,1.4-0.7C86.2,166.1,86.3,165.5,86.3,164.8z"/>
		<path class="st0" d="M92.8,159.7c-0.7,0-1,0.4-1,1.2v0.5h1.4v1h-1.4l0,5.8h-1.3v-5.8h-1.1v-1h1.1v-0.5c0-0.7,0.2-1.3,0.6-1.7
			s0.9-0.6,1.6-0.6c0.2,0,0.5,0,0.8,0.1v1.2C93.3,159.8,93.1,159.7,92.8,159.7z"/>
		<path class="st0" d="M104.2,159.3h1.2l0.9,3.2l1.2,4.2c0.3-1.6,0.9-4.1,1.7-7.6h1.4l-2.2,9h-1.6l-0.9-2.8l-1.2-4
			c-0.2,0.7-0.8,3-2,6.9h-1.7l-2.4-9h1.4l0.8,3.3l1,4.2C102.5,165.4,103.2,162.9,104.2,159.3z"/>
		<path class="st0" d="M118.9,164.8c0,1-0.3,1.9-0.9,2.5c-0.6,0.7-1.4,1-2.4,1c-1,0-1.8-0.3-2.4-1c-0.6-0.7-0.9-1.5-0.9-2.5
			s0.3-1.8,0.9-2.5c0.6-0.7,1.4-1,2.4-1c1,0,1.8,0.3,2.3,1C118.6,163,118.9,163.8,118.9,164.8z M117.5,164.8c0-0.7-0.2-1.3-0.5-1.7
			c-0.3-0.4-0.8-0.7-1.4-0.7s-1.1,0.2-1.4,0.7s-0.5,1-0.5,1.7c0,0.7,0.2,1.2,0.5,1.7c0.3,0.5,0.8,0.7,1.4,0.7c0.6,0,1-0.2,1.4-0.7
			C117.4,166.1,117.5,165.5,117.5,164.8z"/>
		<path class="st0" d="M122.5,161.4v1.2c0.3-0.8,0.9-1.3,1.8-1.3c0.1,0,0.3,0,0.4,0v1.3c-0.2-0.1-0.4-0.1-0.6-0.1
			c-0.5,0-0.8,0.2-1.1,0.6c-0.3,0.4-0.4,0.9-0.4,1.4v3.6h-1.3v-6.8H122.5z"/>
		<path class="st0" d="M126.6,168.2l0-9.5l1.3,0l0,9.5H126.6z"/>
		<path class="st0" d="M135.2,158.7h1.3v9.5h-1.3v-1c-0.5,0.7-1.2,1.1-2.1,1.1s-1.6-0.3-2.1-1c-0.5-0.7-0.8-1.5-0.8-2.5
			c0-1,0.3-1.8,0.8-2.5c0.5-0.6,1.3-1,2.1-1c0.9,0,1.5,0.4,2,1.1V158.7z M131.6,164.8c0,0.7,0.2,1.3,0.5,1.7
			c0.3,0.4,0.8,0.6,1.3,0.6c0.5,0,0.9-0.2,1.3-0.6c0.4-0.4,0.5-1,0.5-1.8c0-0.8-0.2-1.4-0.6-1.7c-0.4-0.4-0.8-0.6-1.3-0.6
			c-0.5,0-0.9,0.2-1.3,0.6C131.7,163.5,131.6,164.1,131.6,164.8z"/>
		<path class="st0" d="M147.5,160.3c-0.9,0-1.7,0.3-2.3,0.9c-0.6,0.6-0.9,1.4-0.9,2.4s0.3,1.8,0.9,2.4c0.6,0.6,1.4,0.9,2.3,0.9
			s1.7-0.2,2.3-0.7v1.4c-0.6,0.4-1.3,0.5-2.3,0.5c-1.3,0-2.4-0.4-3.3-1.3c-0.9-0.8-1.3-2-1.3-3.3c0-1.4,0.4-2.5,1.3-3.4
			c0.9-0.9,2-1.3,3.3-1.3c1,0,1.7,0.2,2.3,0.5v1.4c-0.4-0.2-0.7-0.4-1.1-0.4C148.4,160.4,148,160.3,147.5,160.3z"/>
		<path class="st0" d="M152.3,159.9c-0.2-0.2-0.2-0.3-0.2-0.6s0.1-0.4,0.2-0.6c0.2-0.2,0.3-0.2,0.6-0.2c0.2,0,0.4,0.1,0.6,0.2
			s0.2,0.4,0.2,0.6c0,0.2-0.1,0.4-0.2,0.6c-0.2,0.2-0.4,0.2-0.6,0.2C152.6,160.2,152.4,160.1,152.3,159.9z M152.2,168.2v-6.8h1.3
			v6.8H152.2z"/>
		<path class="st0" d="M157.5,161.4v1.2c0.4-0.8,1.1-1.3,2.1-1.3c0.7,0,1.2,0.2,1.6,0.6c0.4,0.4,0.6,1,0.6,1.7l0,4.6h-1.3v-4.3
			c0-0.5-0.1-0.8-0.4-1.1c-0.2-0.3-0.6-0.4-1-0.4c-0.4,0-0.8,0.2-1.1,0.5c-0.3,0.4-0.5,0.9-0.5,1.5v3.7h-1.3l0-6.8H157.5z"/>
		<path class="st0" d="M167.5,168.3c-1.1,0-1.9-0.3-2.5-1c-0.6-0.6-0.9-1.5-0.9-2.5c0-1.1,0.3-1.9,0.9-2.5c0.6-0.6,1.3-0.9,2.2-0.9
			c0.9,0,1.6,0.3,2.1,0.8c0.5,0.5,0.8,1.3,0.8,2.3c0,0.3,0,0.6-0.1,0.9h-4.5c0.1,0.6,0.3,1,0.7,1.4c0.4,0.3,1,0.5,1.6,0.5
			c0.7,0,1.3-0.2,1.7-0.5v1.2C169,168.1,168.3,168.3,167.5,168.3z M168.6,164.3v-0.2c0-0.5-0.2-0.9-0.4-1.2
			c-0.3-0.3-0.6-0.4-1.1-0.4c-0.5,0-0.9,0.2-1.2,0.5c-0.3,0.3-0.5,0.8-0.6,1.4H168.6z"/>
		<path class="st0" d="M173.5,161.4v1.1c0.4-0.8,1-1.2,1.9-1.2c1,0,1.7,0.4,2,1.3c0.2-0.4,0.5-0.7,0.8-1c0.4-0.2,0.8-0.3,1.2-0.3
			c0.7,0,1.2,0.2,1.6,0.6c0.4,0.4,0.5,1,0.5,1.7v4.6h-1.3l0-4.3c0-1-0.4-1.5-1.2-1.5c-0.4,0-0.7,0.2-1.1,0.5
			c-0.3,0.3-0.5,0.9-0.5,1.5v3.7h-1.3v-4.3c0-1-0.4-1.5-1.2-1.5c-0.4,0-0.7,0.2-1,0.5c-0.3,0.3-0.5,0.9-0.5,1.5v3.7h-1.3l0-6.8
			H173.5z"/>
		<path class="st0" d="M186.4,161.3c1.8,0,2.7,0.9,2.7,2.6l0,4.3h-1.3v-0.8c-0.3,0.6-1,0.9-1.8,0.9c-0.6,0-1.2-0.2-1.5-0.6
			c-0.4-0.4-0.6-0.9-0.6-1.5c0-0.6,0.2-1.1,0.7-1.5c0.5-0.4,1.2-0.5,2.1-0.5h1.1v-0.4c0-0.5-0.1-0.8-0.3-1.1
			c-0.2-0.2-0.6-0.4-1.1-0.4c-0.7,0-1.4,0.2-2,0.6v-1.3C184.8,161.5,185.5,161.3,186.4,161.3z M187.7,165.2h-1
			c-0.5,0-0.9,0.1-1.1,0.3c-0.3,0.2-0.4,0.4-0.4,0.8c0,0.3,0.1,0.6,0.3,0.7c0.2,0.2,0.5,0.3,0.9,0.3c0.4,0,0.7-0.1,1-0.4
			c0.2-0.2,0.4-0.5,0.4-0.9V165.2z"/>
	</g>
	<g>
		<path class="st0" d="M91.7,187.5h5.5v3h-8.9l0-14.9h3.4V187.5z"/>
		<path class="st0" d="M107.3,190.6c-2.2,0-4-0.7-5.3-2.1c-1.3-1.4-2-3.2-2-5.5c0-2.3,0.7-4.1,2-5.6c1.3-1.4,3.1-2.1,5.3-2.1
			c2.2,0,4,0.7,5.3,2.1c1.3,1.4,2,3.2,2,5.5c0,2.3-0.7,4.1-2,5.6C111.3,189.9,109.5,190.6,107.3,190.6z M104.7,179.6
			c-0.6,0.8-1,1.9-1,3.3c0,1.4,0.3,2.5,1,3.3c0.6,0.8,1.5,1.2,2.6,1.2c1.1,0,2-0.4,2.6-1.2c0.6-0.8,1-1.9,1-3.3c0-1.4-0.3-2.5-1-3.3
			c-0.6-0.8-1.5-1.2-2.6-1.2C106.2,178.4,105.3,178.8,104.7,179.6z"/>
		<path class="st0" d="M118.4,190.5l0-14.9h3.7l3.5,6.2c1,1.8,1.7,3.3,2.1,4.5c-0.1-1.1-0.2-2.6-0.2-4.5l0-6.2h3.4v14.9h-3.7
			l-3.6-6.2c-0.9-1.6-1.6-2.9-2-4.1l-0.2-0.6c0.2,1.3,0.3,2.9,0.3,4.6l0,6.2H118.4z"/>
		<path class="st0" d="M135.4,175.5h5.1c2.2,0,4.1,0.7,5.5,2.1c1.4,1.4,2.1,3.1,2.1,5.1c0,2.4-0.7,4.3-2.1,5.6
			c-1.4,1.4-3.3,2.1-5.6,2.1h-5.1V175.5z M138.9,187.7h1.5c1.4,0,2.4-0.4,3.2-1.3c0.7-0.9,1.1-2,1.1-3.5c0-1.4-0.4-2.6-1.1-3.4
			c-0.8-0.8-1.8-1.2-3.2-1.2h-1.5V187.7z"/>
		<path class="st0" d="M158.8,190.6c-2.2,0-4-0.7-5.3-2.1c-1.3-1.4-2-3.2-2-5.5c0-2.3,0.7-4.1,2-5.6s3.1-2.1,5.3-2.1
			c2.2,0,4,0.7,5.3,2.1c1.3,1.4,2,3.2,2,5.5c0,2.3-0.7,4.1-2,5.6C162.7,189.9,161,190.6,158.8,190.6z M156.1,179.6
			c-0.6,0.8-1,1.9-1,3.3c0,1.4,0.3,2.5,1,3.3c0.6,0.8,1.5,1.2,2.6,1.2c1.1,0,2-0.4,2.6-1.2c0.6-0.8,1-1.9,1-3.3c0-1.4-0.3-2.5-1-3.3
			c-0.6-0.8-1.5-1.2-2.6-1.2C157.7,178.4,156.8,178.8,156.1,179.6z"/>
		<path class="st0" d="M169.9,190.5v-14.9h3.7l3.5,6.2c1,1.8,1.7,3.3,2.1,4.5c-0.1-1.1-0.2-2.6-0.2-4.5v-6.2h3.4v14.9h-3.7l-3.6-6.2
			c-0.9-1.6-1.6-2.9-2-4.1l-0.2-0.6c0.2,1.3,0.3,2.9,0.3,4.6v6.2H169.9z"/>
	</g>
	<g>
		<path class="st0" d="M125.3,207.7v1.9h-8v-1.8c1.5-1,2.7-2.2,3.8-3.3c1.1-1.2,1.6-2.3,1.6-3.2c0-0.6-0.2-1.1-0.5-1.5
			c-0.4-0.4-0.9-0.5-1.6-0.5c-1,0-2,0.4-3,1.2v-2.2c0.4-0.3,0.9-0.6,1.5-0.8c0.6-0.2,1.2-0.3,1.8-0.3c1.2,0,2.2,0.3,2.9,1
			c0.8,0.7,1.1,1.6,1.1,2.8c0,2.2-1.5,4.5-4.6,6.8H125.3z"/>
		<path class="st0" d="M131.4,209.8c-1.4,0-2.5-0.6-3.3-1.7c-0.8-1.2-1.1-2.7-1.1-4.6c0-1.9,0.4-3.5,1.1-4.6
			c0.8-1.1,1.9-1.7,3.3-1.7c1.4,0,2.5,0.6,3.3,1.7c0.8,1.1,1.2,2.7,1.2,4.6c0,1.9-0.4,3.5-1.1,4.6
			C134,209.2,132.9,209.8,131.4,209.8z M129.9,200.2c-0.4,0.7-0.6,1.8-0.6,3.2c0,1.4,0.2,2.4,0.6,3.2c0.4,0.7,0.9,1.1,1.6,1.1
			s1.2-0.4,1.6-1.1c0.4-0.7,0.6-1.8,0.6-3.2c0-1.4-0.2-2.5-0.6-3.2c-0.4-0.7-0.9-1.1-1.5-1.1S130.3,199.5,129.9,200.2z"/>
		<path class="st0" d="M142.4,197.3v12.3h-2.2v-9.9l-3,1.8v-2.4l3.3-1.9H142.4z"/>
		<path class="st0" d="M153.3,206.2c0,1.1-0.4,1.9-1.2,2.6c-0.8,0.6-1.9,1-3.1,1c-1.3,0-2.3-0.3-3.1-0.9c-0.8-0.6-1.2-1.4-1.2-2.5
			c0-1.4,0.6-2.4,1.9-2.9c-1.2-0.6-1.8-1.5-1.8-2.7c0-1.2,0.4-2.1,1.2-2.7c0.8-0.6,1.8-1,2.9-1c1.2,0,2.2,0.3,2.9,0.9
			c0.8,0.6,1.2,1.5,1.2,2.7c0,1.2-0.6,2.1-1.7,2.7C152.7,203.9,153.3,204.8,153.3,206.2z M147,206.2c0,0.5,0.2,0.9,0.5,1.2
			c0.3,0.3,0.8,0.5,1.5,0.5c0.7,0,1.2-0.2,1.5-0.5c0.4-0.3,0.5-0.8,0.5-1.2s-0.2-0.9-0.5-1.2c-0.4-0.3-0.9-0.5-1.5-0.5
			s-1.2,0.2-1.5,0.5C147.1,205.3,147,205.8,147,206.2z M150.8,200.7c0-0.5-0.1-1-0.4-1.3c-0.3-0.3-0.7-0.5-1.4-0.5
			c-0.6,0-1.1,0.2-1.4,0.5c-0.3,0.3-0.5,0.8-0.5,1.3c0,0.5,0.2,0.9,0.5,1.2c0.4,0.3,0.8,0.5,1.3,0.5c0.5,0,1-0.2,1.3-0.5
			C150.7,201.7,150.8,201.2,150.8,200.7z"/>
	</g>
	<g>
		<path class="st0" d="M133.6,218.8c-45,0-81.5-36.5-81.5-81.5c0-45,36.5-81.5,81.5-81.5c45,0,81.5,36.5,81.5,81.5
			C215.1,182.3,178.6,218.8,133.6,218.8z M217.6,137.4c0-46.4-37.6-84-84-84c-46.4,0-84,37.6-84,84c0,46.4,37.6,84,84,84
			S217.6,183.8,217.6,137.4z"/>
	</g>
</g>
</svg>
