<?xml version="1.0" encoding="utf-8"?>
<!-- Generator: Adobe Illustrator 21.1.0, SVG Export Plug-In . SVG Version: 6.00 Build 0)  -->
<svg version="1.1" id="Layer_1" xmlns="http://www.w3.org/2000/svg" xmlns:xlink="http://www.w3.org/1999/xlink" x="0px" y="0px"
	 viewBox="0 0 267 273.5" style="enable-background:new 0 0 267 273.5;" xml:space="preserve">
<style type="text/css">
	.st0{fill:#FFFFFF;}
</style>
<g>
	<g>
		<path class="st0" d="M198.4,225.1c6.2,6.3,13.8,3.4,20.7-0.5C212,220.9,204.6,217.9,198.4,225.1z"/>
		<path class="st0" d="M199.1,220.1c8.8-1.2,11-9.1,11.9-16.9C203.8,206.7,197,210.9,199.1,220.1z"/>
		<path class="st0" d="M213.9,215.9c6.7,5.8,14,2.2,20.5-2.3C227.1,210.6,219.4,208.3,213.9,215.9z"/>
		<path class="st0" d="M219.3,209.9c6.9-5.5,4.8-13.4,1.5-20.6C216.5,195.9,212.8,203,219.3,209.9z"/>
		<path class="st0" d="M228.1,206.7c8.1,3.7,14.1-1.7,19.1-7.8C239.3,197.9,231.3,197.8,228.1,206.7z"/>
		<path class="st0" d="M233.7,198.1c4.8-7.5,0.2-14.2-5.1-20C226.6,185.8,225.3,193.6,233.7,198.1z"/>
		<path class="st0" d="M240.7,194.9c8.6,2.1,13.5-4.4,17.3-11.3C250,184.1,242.2,185.5,240.7,194.9z"/>
		<path class="st0" d="M243.1,183.6c3.3-8.2-2.4-14-8.7-18.7C233.9,172.8,234.1,180.8,243.1,183.6z"/>
		<path class="st0" d="M247.1,180.3c8.9,0.4,12.4-6.9,14.8-14.4C254.3,167.9,246.8,170.8,247.1,180.3z"/>
		<path class="st0" d="M235.2,147.4c0.4,7.9,1.5,15.8,10.8,17.6C248.4,156.5,242,151.4,235.2,147.4z"/>
		<path class="st0" d="M249.6,165.7c8.8-0.6,11.5-8.3,13-16.1C255.2,152.6,248.2,156.3,249.6,165.7z"/>
		<path class="st0" d="M245.6,146.1c0.4-8.9-6.9-12.4-14.5-14.8C233.3,139,236.2,146.5,245.6,146.1z"/>
		<path class="st0" d="M250.6,150.8c7.9-3.9,7.5-12.1,5.9-19.8C250.9,136.6,245.8,142.7,250.6,150.8z"/>
		<path class="st0" d="M237.6,126.7c-2-8.6-10-10.1-17.9-10.4C223.9,123.1,228.6,129.5,237.6,126.7z"/>
		<path class="st0" d="M246.1,133.5c6.1-6.5,2.8-13.9-1.4-20.6C241.3,120.1,238.7,127.6,246.1,133.5z"/>
		<path class="st0" d="M225.6,110.1c-1-8.8-8.8-11.1-16.6-12.3C212.3,105.1,216.4,111.9,225.6,110.1z"/>
		<path class="st0" d="M236.6,118c4.6-7.6-0.1-14.2-5.5-19.9C229.2,105.9,228.2,113.8,236.6,118z"/>
		<path class="st0" d="M48.6,224.5c6.9,3.9,14.5,6.9,20.7,0.5C63.1,217.9,55.7,220.9,48.6,224.5z"/>
		<path class="st0" d="M68.6,220.1c2-9.2-4.8-13.4-11.9-16.9C57.7,211.1,59.9,218.9,68.6,220.1z"/>
		<path class="st0" d="M33.3,213.7c6.5,4.5,13.8,8.1,20.5,2.3C48.3,208.3,40.6,210.6,33.3,213.7z"/>
		<path class="st0" d="M48.4,209.9c6.5-6.9,2.8-14-1.5-20.6C43.7,196.5,41.5,204.4,48.4,209.9z"/>
		<path class="st0" d="M39.6,206.7c-3.2-8.9-11.2-8.8-19.1-7.8C25.5,205,31.6,210.4,39.6,206.7z"/>
		<path class="st0" d="M39.1,178.1c-5.3,5.8-9.9,12.6-5.1,20C42.4,193.6,41.2,185.8,39.1,178.1z"/>
		<path class="st0" d="M27.1,194.9c-1.5-9.3-9.4-10.7-17.3-11.3C13.5,190.5,18.4,197,27.1,194.9z"/>
		<path class="st0" d="M33.3,164.9c-6.3,4.7-12.1,10.5-8.7,18.7C33.6,180.8,33.9,172.8,33.3,164.9z"/>
		<path class="st0" d="M20.6,180.3c0.3-9.4-7.2-12.3-14.8-14.4C8.2,173.4,11.8,180.7,20.6,180.3z"/>
		<path class="st0" d="M21.7,165c9.3-1.8,10.5-9.7,10.8-17.6C25.7,151.4,19.4,156.5,21.7,165z"/>
		<path class="st0" d="M18.1,165.7c1.4-9.3-5.6-13.1-13-16.1C6.6,157.4,9.3,165,18.1,165.7z"/>
		<path class="st0" d="M36.6,131.4c-7.6,2.4-14.9,5.9-14.5,14.8C31.5,146.5,34.4,139,36.6,131.4z"/>
		<path class="st0" d="M17.1,150.8c4.9-8.1-0.2-14.2-5.9-19.8C9.6,138.8,9.1,146.9,17.1,150.8z"/>
		<path class="st0" d="M47.9,116.3c-7.9,0.3-15.9,1.8-17.8,10.4C39.1,129.5,43.9,123.1,47.9,116.3z"/>
		<path class="st0" d="M23,112.9c-4.2,6.7-7.4,14.2-1.4,20.6C29,127.6,26.4,120.1,23,112.9z"/>
		<path class="st0" d="M58.7,97.9c-7.8,1.1-15.6,3.5-16.6,12.3C51.3,111.9,55.4,105.1,58.7,97.9z"/>
		<path class="st0" d="M36.6,98.1c-5.5,5.7-10.2,12.4-5.5,19.9C39.5,113.8,38.5,105.9,36.6,98.1z"/>
		<polygon class="st0" points="56.9,175.7 67.2,175.7 67.2,158.8 79.6,158.8 79.6,149.2 67.2,149.2 67.2,142.5 80.3,142.5 80.3,133 
			56.9,133 		"/>
		<rect x="94.7" y="133" class="st0" width="10.4" height="42.7"/>
		<path class="st0" d="M152.8,170.7l-6.2-7.3c-2.1,3.1-5,4.5-8.8,4.3c-6.1-0.4-8.2-7.3-8.2-13.4s2.1-12.7,8.2-13.4
			c3.6-0.4,6.5,0.8,8.8,3.6l6.2-6.5c-4.2-4.7-8.6-6.4-14.9-6.4c-10.7,0-18.6,11.3-18.6,22.8c0,11.5,7.1,22.8,18.6,22.8
			C144.2,177.1,148.6,175.4,152.8,170.7z"/>
		<polygon class="st0" points="202.9,177.1 213.1,175.2 205,133 195.5,133 187.9,161.9 180.3,133 170.7,133 162.6,175.2 
			172.9,177.1 175.8,148.9 183.1,175.7 192.6,175.7 199.9,148.9 		"/>
	</g>
	<g>
		<path class="st0" d="M111.6,209c1-1,2.6-2.2,2.6-3.5c0-1.1-0.8-2.1-2.4-2.1s-2.9,1.1-3.6,2.1l-2.1-2.9c0.5-0.6,3-2.7,6-2.7
			c3.6,0,5.9,2.2,5.9,5.2c0,2.1-1.4,3.7-2.5,4.8l-2.4,2.2c-1,1-2.1,2.4-2.4,3.6c1.4,0,7.3,0,7.3,0v3.6c0,0-9.5,0-11.6,0
			c-0.1-4.1,1.7-7,3.4-8.6L111.6,209z"/>
		<path class="st0" d="M136.3,209.9c0,4.9-2.8,10-7.7,10c-4.9,0-7.7-5.1-7.7-10s2.8-10,7.7-10S136.3,205,136.3,209.9z M128.6,216.2
			c2.9,0,3.9-3.1,3.9-6.3s-1-6.3-3.9-6.3c-2.9,0-3.9,3.1-3.9,6.3S125.7,216.2,128.6,216.2z"/>
		<path class="st0" d="M145.2,219.4h-3.6v-13.2c-0.8,0.3-1.4,0.5-2.2,0.7l-1-3.6c2.5-0.6,4.5-1.5,6.8-3.1V219.4z"/>
		<path class="st0" d="M149.1,204v-3.6h12.5l-2.5,5.4c-2.3,5-4,9.3-4,13.5c0,0.1,0,0.2,0,0.2h-3.6c0,0,0-0.1,0-0.2
			c0-4.4,1.6-8.8,4-14l0.5-1.2L149.1,204L149.1,204z"/>
	</g>
</g>
</svg>
