<?xml version="1.0" encoding="utf-8"?>
<!-- Generator: Adobe Illustrator 22.0.1, SVG Export Plug-In . SVG Version: 6.00 Build 0)  -->
<svg version="1.1" id="Layer_1" xmlns="http://www.w3.org/2000/svg" xmlns:xlink="http://www.w3.org/1999/xlink" x="0px" y="0px"
	 viewBox="0 0 267 273.5" style="enable-background:new 0 0 267 273.5;" xml:space="preserve">
<style type="text/css">
	.st0{fill:#FFFFFF;stroke:#FFFFFF;stroke-width:0.15;stroke-miterlimit:10;}
	.st1{fill:#FFFFFF;}
</style>
<g>
	<g>
		<g>
			<path class="st0" d="M82.9,217.2c0,2.6,1.7,4.6,4.4,4.6c1.3,0,2.5-0.6,3.3-1.6l0.8,0.8c-1,1.2-2.5,1.9-4.1,1.9
				c-3.2,0-5.4-2.5-5.4-5.7c0-3.2,2.3-5.7,5.3-5.7c1.6,0,3,0.7,4,1.9l-0.9,0.7c-0.8-0.9-1.8-1.5-3.1-1.5
				C84.5,212.5,82.9,214.5,82.9,217.2z"/>
			<path class="st0" d="M102.8,214.7c0-0.9,0-2.5,0-3h1.1c0,0.5,0,2.1,0,3v4.9c0,0.9,0,2.5,0,3h-1.1c0-0.5,0-2.1,0-3V214.7z
				 M103.9,209.8c0,0.2-0.2,0.3-0.5,0.3c-0.3,0-0.5-0.1-0.5-0.3v-1.3c0-0.2,0.2-0.3,0.6-0.3c0.3,0,0.5,0.1,0.5,0.3V209.8z"/>
			<path class="st0" d="M118.4,217.2c0,3.2-2.6,5.7-5.7,5.7c-3.2,0-5.7-2.6-5.7-5.7c0-3.2,2.6-5.7,5.7-5.7
				C115.8,211.4,118.4,214,118.4,217.2z M108,217.2c0,2.6,2.1,4.6,4.6,4.6c2.6,0,4.6-2.1,4.6-4.6s-2.1-4.7-4.6-4.7
				C110.1,212.5,108,214.6,108,217.2z"/>
			<path class="st0" d="M122.7,213.1L122.7,213.1c0.9-1,2.1-1.7,3.5-1.7c2.3,0,3.6,1.7,3.6,3.9v4.2c0,0.9,0,2.5,0,3h-1.1
				c0-0.5,0-2.1,0-3v-4c0-1.7-0.8-3.1-2.5-3.1c-1.8,0-3.3,1.5-3.3,3.2v3.9c0,0.9,0,2.5,0,3h-1.1c0-0.5,0-2.1,0-3v-4.9
				c0-0.9,0-2.5,0-3h1.1C122.8,212.4,122.8,213,122.7,213.1z"/>
			<path class="st0" d="M174.4,214.7c0-0.9,0-2.5,0-3h1.1c0,0.5,0,2.1,0,3v4.9c0,0.9,0,2.5,0,3h-1.1c0-0.5,0-2.1,0-3V214.7z
				 M175.5,209c0,0.2-0.2,0.3-0.5,0.3c-0.3,0-0.5-0.1-0.5-0.3v-1.3c0-0.2,0.2-0.3,0.6-0.3c0.3,0,0.5,0.1,0.5,0.3V209z"/>
			<path class="st0" d="M180,217.2c0,2.6,1.7,4.6,4.4,4.6c1.3,0,2.5-0.6,3.3-1.6l0.8,0.8c-1,1.2-2.5,1.9-4.1,1.9
				c-3.2,0-5.4-2.5-5.4-5.7c0-3.2,2.3-5.7,5.3-5.7c1.6,0,3,0.7,4,1.9l-0.9,0.7c-0.8-0.9-1.8-1.5-3.1-1.5
				C181.7,212.5,180,214.5,180,217.2z"/>
			<path class="st0" d="M192.4,214.7c0-0.9,0-2.5,0-3h1.1c0,0.5,0,2.1,0,3v4.9c0,0.9,0,2.5,0,3h-1.1c0-0.5,0-2.1,0-3V214.7z
				 M193.5,209c0,0.2-0.2,0.3-0.5,0.3c-0.3,0-0.5-0.1-0.5-0.3v-1.3c0-0.2,0.2-0.3,0.6-0.3c0.3,0,0.5,0.1,0.5,0.3V209z"/>
			<g>
				<path class="st0" d="M46.8,208.1c-0.7-0.9-1.6-1.6-2.9-1.6c-1.5,0-2.8,1.1-2.8,2.5c0,1.7,1.4,2.7,3.3,4.1c2.3,1.6,4,2.8,4,5.6
					c0,2.5-2,4.2-4.6,4.2c-2.1,0-3.7-1.1-4.7-2.6l0.9-0.7c0.9,1.2,2.1,2.2,3.9,2.2c1.9,0,3.5-1.3,3.5-3.1c0-2.2-1.6-3.3-3.6-4.7
					c-2.1-1.5-3.7-2.7-3.7-4.9c0-2,1.7-3.6,3.9-3.6c1.7,0,2.9,0.9,3.8,2L46.8,208.1z"/>
				<path class="st0" d="M63.7,208c0-0.8,0-2.2,0-2.6h1.1c0,0.4,0,1.8,0,2.6v12c0,0.8,0,2.2,0,2.6h-1.1c0-0.4,0-1.8,0-2.6V208z"/>
				<path class="st0" d="M159.1,214.1c0,4.9-4,8.9-8.9,8.9c-4.9,0-8.9-4-8.9-8.9s4-8.9,8.9-8.9C155.1,205.2,159.1,209.2,159.1,214.1
					z M142.3,214.1c0,4.3,3.5,7.9,7.8,7.9c4.3,0,7.8-3.5,7.8-7.9s-3.5-7.9-7.8-7.9C145.9,206.3,142.3,209.8,142.3,214.1z"/>
				<path class="st0" d="M210.4,208c0-0.8,0-2.2,0-2.6h1.1c0,0.4,0,1.8,0,2.6v12c0,0.8,0,2.2,0,2.6h-1.1c0-0.4,0-1.8,0-2.6V208z"/>
				<path class="st0" d="M215.3,208c0-0.8,0-2.2,0-2.6h1.1c0,0.4,0,1.8,0,2.6v12c0,0.8,0,2.2,0,2.6h-1.1c0-0.4,0-1.8,0-2.6V208z"/>
				<path class="st0" d="M166.8,206.3c-2.9-0.5-4,1.3-4,3c0,0.4,0,2.5,0,2.5c-0.7,0-1.4,0-1.7,0v1.1c0.3,0,1.4,0,1.7,0v7.4
					c0,0.9,0,1.8,0,2.2h0h0h1.1h0.1h0c0-0.5,0-2,0-2.8V213c0.7,0,1.5,0,1.8,0V212c0,0-0.1,0-0.1,0v-0.1c-0.3,0-1,0-1.7,0
					c0,0,0-1.3,0-1.8c0-1.3,0.4-3,2.3-2.5C166.5,207.6,167.5,206.5,166.8,206.3z"/>
				<path class="st0" d="M172.7,206.3c-2.9-0.5-4,1.3-4,3c0,0.4,0,2.5,0,2.5c-0.7,0-1.4,0-1.7,0v1.1c0.3,0,1.4,0,1.7,0v7.4
					c0,0.9,0,1.8,0,2.2h0h0h1.1h0.1h0c0-0.5,0-2,0-2.8V213c0.7,0,1.5,0,1.8,0V212c0,0-0.1,0-0.1,0v-0.1c-0.3,0-1,0-1.7,0
					c0,0,0-1.3,0-1.8c0-1.3,0.4-3,2.3-2.5C172.4,207.6,173.4,206.5,172.7,206.3z"/>
			</g>
			<path class="st0" d="M99.1,212.8v-1.1c-0.3,0-1,0-1.7,0V211c0-0.9,0-2.5,0-3h0h-1.1h0c0,0.5,0,2.1,0,3v0.7c-0.7,0-1.4,0-1.7,0
				v1.1c0.3,0,1.4,0,1.7,0v6.8c0,0.9,0,2.5,0,3h0h1.1h0c0-0.5,0-2.1,0-3v-6.8C97.7,212.8,98.8,212.8,99.1,212.8z"/>
			<path class="st0" d="M77.8,219.7c-0.1,0.1-0.2,0.3-0.3,0.4c-1.9,1.9-4.6,1.6-6.5-0.3l-0.1-0.1l6.3-6.3c-0.7-0.8-1.6-1.3-2.6-1.6
				c-1.6-0.4-3.4-0.1-4.7,1.2c-2.2,2.2-1.8,5.5,0.3,7.5c2.4,2.4,5.7,2.7,8.1,0.3c0.2-0.2,0.3-0.4,0.4-0.6L77.8,219.7z M70.7,213.8
				c1.4-1.4,3.5-1.4,4.9-0.3l-5.4,5.4C69.3,217.3,69.3,215.2,70.7,213.8z"/>
			<path class="st0" d="M60.2,219.7c-0.1,0.1-0.2,0.3-0.3,0.4c-1.9,1.9-4.6,1.6-6.5-0.3l-0.1-0.1l6.3-6.3c-0.7-0.8-1.6-1.3-2.6-1.6
				c-1.6-0.4-3.4-0.1-4.7,1.2c-2.2,2.2-1.8,5.5,0.3,7.5c2.4,2.4,5.7,2.7,8.1,0.3c0.2-0.2,0.3-0.4,0.4-0.6L60.2,219.7z M53.1,213.8
				c1.4-1.4,3.5-1.4,4.9-0.3l-5.4,5.4C51.7,217.3,51.6,215.2,53.1,213.8z"/>
			<path class="st0" d="M228.8,219.7c-0.1,0.1-0.2,0.3-0.3,0.4c-1.9,1.9-4.6,1.6-6.5-0.3l-0.1-0.1l6.3-6.3c-0.7-0.8-1.6-1.3-2.6-1.6
				c-1.6-0.4-3.4-0.1-4.7,1.2c-2.2,2.2-1.8,5.5,0.3,7.5c2.4,2.4,5.7,2.7,8.1,0.3c0.2-0.2,0.3-0.4,0.4-0.6L228.8,219.7z M221.7,213.8
				c1.4-1.4,3.5-1.4,4.9-0.3l-5.4,5.4C220.3,217.3,220.3,215.2,221.7,213.8z"/>
			<path class="st0" d="M206.4,219.7c-0.1,0.1-0.2,0.3-0.3,0.4c-1.9,1.9-4.6,1.6-6.5-0.3l-0.1-0.1l6.3-6.3c-0.7-0.8-1.6-1.3-2.6-1.6
				c-1.6-0.4-3.4-0.1-4.7,1.2c-2.2,2.2-1.8,5.5,0.3,7.5c2.4,2.4,5.7,2.7,8.1,0.3c0.2-0.2,0.3-0.4,0.4-0.6L206.4,219.7z M199.3,213.8
				c1.4-1.4,3.5-1.4,4.9-0.3l-5.4,5.4C197.9,217.3,197.9,215.2,199.3,213.8z"/>
			<path class="st0" d="M55.1,210l2.5-3l0.8,0.7l-2.7,2.8L55.1,210z"/>
		</g>
	</g>
	<g>
		<polygon class="st1" points="120,172.5 126.5,155.5 124.3,155.5 119.7,167.7 115.1,155.5 112.9,155.5 119.4,172.5 		"/>
		<polygon class="st1" points="138.4,172.5 144.9,155.5 142.7,155.5 138.1,167.7 133.5,155.5 131.3,155.5 137.8,172.5 		"/>
		<path class="st1" d="M149.2,155.5l-6.5,17.1h2.2l2.3-6.2h4.5l2.3,6.2h2.2l-6.5-17.1H149.2z M148,164.3l1.5-4l1.5,4H148z"/>
		<rect x="127.9" y="155.5" class="st1" width="2.1" height="17.1"/>
		<polygon class="st1" points="112.6,178.4 112.6,178.4 112.6,185.5 112.6,187.6 112.6,192.6 112.6,194.7 114.8,194.7 121.5,194.7 
			121.5,192.6 114.8,192.6 114.8,187.6 121.5,187.6 121.5,185.5 114.8,185.5 114.8,180.5 121.5,180.5 121.5,178.4 114.8,178.4 		"/>
		<rect x="136.6" y="178.4" class="st1" width="2.2" height="16.3"/>
		<polygon class="st1" points="134,178.4 131.8,178.4 128.8,183.7 125.8,178.4 123.6,178.4 127.7,185.7 122.6,194.7 124.8,194.7 
			128.8,187.6 132.9,194.7 135.1,194.7 129.9,185.7 		"/>
		<polygon class="st1" points="101.9,187.5 96.9,178.4 94.7,178.4 94.7,178.8 94.7,194.7 96.9,194.7 96.9,182.7 101.9,191.5 
			107.1,182.6 107.1,194.7 109.3,194.7 109.3,178.8 109.3,178.4 107.1,178.4 		"/>
		<path class="st1" d="M166,178.2c-4.5,0-8.2,3.7-8.2,8.3c0,4.6,3.7,8.3,8.2,8.3c4.5,0,8.2-3.7,8.2-8.3
			C174.2,181.9,170.5,178.2,166,178.2z M166,192.9c-3.4,0-6.2-2.9-6.2-6.4c0-3.5,2.8-6.4,6.2-6.4c3.4,0,6.2,2.9,6.2,6.4
			C172.2,190,169.4,192.9,166,192.9z"/>
		<path class="st1" d="M149.6,192.9c-3.4,0-6.2-2.9-6.2-6.4c0-3.5,2.8-6.4,6.2-6.4c1.8,0,3.5,0.8,4.6,2.1l1.4-1.3
			c-1.5-1.7-3.6-2.7-6-2.7c-4.5,0-8.2,3.7-8.2,8.3c0,4.6,3.7,8.3,8.2,8.3c2.4,0,4.5-1,6-2.7l-1.4-1.3
			C153.1,192.1,151.4,192.9,149.6,192.9z"/>
	</g>
	<g>
		<path class="st1" d="M265,157.4c-8-2.2-16.2-3.7-21.4,3.7c0.2-0.4,0.4-0.7,0.6-1.1l2-5c0.3-0.8,0.6-1.7,0.8-2.6
			c9.2,3,15.2-3.6,20.1-10.8c-8-0.2-15.9,0.5-19.4,8l0.6-2.3c0.2-0.9,0.3-1.8,0.5-2.6c0.2-1.1,0.3-2.2,0.5-3.2
			c10.5-0.1,14.6-8.9,17.3-18c-7.2,2.1-14.3,4.8-16.9,11.1c0-2-0.1-4-0.2-6c10.4-2.9,11.8-12.7,11.8-22.3c-6,3.9-11.7,8.2-12.9,14.5
			c-0.2-0.8-0.3-1.7-0.5-2.5c-0.4-1.6-0.8-3.1-1.3-4.7c8.4-4.4,7.9-13.3,6.2-21.8c-4.4,4.3-8.5,8.9-8.8,14.4
			c-1.1-2.7-2.2-5.3-3.5-7.8c0,0,0,0,0,0c8.2-4.5,7.7-13.3,6-21.7c-5.1,5-9.7,10.4-8.6,17c-1.5-2.6-3.1-5.1-4.8-7.6
			c0.1,0.1,0.2,0.2,0.3,0.4c4.8-7.8,2.3-15.6-1-22.6c-2.2,6.8-4,13.9-1.4,19.3c-0.6-0.9-1.3-1.8-1.9-2.6c-1.9-2.5-3.9-5-6-7.3
			c3.8-8.1,0.6-15.5-3.3-22c-1.5,6.6-2.6,13.3-0.1,18.4c-0.7-0.7-1.5-1.5-2.2-2.2c-1.5-9.1-9.9-11.7-18.4-12.9
			c3.6,7.8,8,15.3,17.8,13.8c1.8,1.8,3.6,3.7,5.3,5.6c-5.1-3.6-12.5-1.8-19.5,0.7c6.5,4.2,13.5,7.8,21.8,1.9c2.1,2.5,4.1,5.2,6,7.9
			c-4.8-4-11.4-2.5-17.7-0.3c6,4.6,12.5,8.5,19.6,3.2c2,3,3.8,6.1,5.5,9.3c-4.5-4.2-12.1-4.2-19.7-3.5c5.3,6.7,11.5,12.9,22.3,8.7
			c1.1,2.3,2,4.7,2.9,7.1c-4.1-4.8-11.2-5.3-18.1-5c5,6.9,10.7,13.3,19.8,10.2c1,3.4,1.7,6.8,2.2,10.3c-2.5-6.6-9.8-8.9-17.1-10.3
			c3.3,8.1,7.5,15.7,17.5,14.4c0.3,3.4,0.3,6.8,0,10.2c-2-7.6-9.7-10.2-17.5-11.6c3.3,8,7.4,15.6,17.2,14.5c-0.1,1-0.2,1.9-0.4,2.9
			c-0.2,0.8-0.3,1.7-0.5,2.6l-0.7,2.5c-0.1,0.4-0.2,0.7-0.3,1.1c-1.1-8-8.6-10.9-16.3-12.8c2.6,7.8,6.1,15.3,15.7,14.8
			c-0.2,0.6-0.4,1.3-0.6,1.9l-2,4.8c-0.6,1.2-1.2,2.4-1.9,3.6c1.2-7.5-4.6-11.8-10.8-15.2c0.6,7.3,2,14.5,10.3,16
			c-1.7,2.9-3.6,5.7-5.8,8.3c3-7.3-2.6-12.3-8.7-16.3c-0.6,7.2-0.3,14.3,8.5,16.6c-1.1,1.3-2.3,2.6-3.5,3.9c-2,2-4.1,3.8-6.2,5.6
			c3.8-6.6,0.5-14-3.5-20.6c-2.1,7.4-3.6,15.2,2.9,21.1c-3.1,2.4-6.4,4.7-9.8,6.6c5.5-6.8,2.5-13.4-1.4-19.3
			c-3.5,7.3-6.2,14.8,0.6,19.7c-5.7,3.2-11.8,5.8-18,7.6l0.8,3c6.2-1.9,12-4.6,17.5-7.7c5.3,8.3,14.2,6.8,22.6,4.1
			c-5.9-4.8-12.3-9.1-19.3-6.1c2.7-1.7,5.3-3.5,7.8-5.5c6.1,6.6,14,3.8,21.1,0c-5.9-3.3-12.2-6.1-17.9-2.7c1.5-1.3,3-2.7,4.4-4.2
			c0.8-0.9,1.6-1.8,2.4-2.8c-0.1,0.2-0.3,0.4-0.4,0.6c7.9,5.9,15.8,1.3,22.6-4.2c-7.3-2.4-14.8-4.2-20.3,1.3
			c2.4-3.1,4.4-6.3,6.2-9.8C250.9,168.1,258.4,163.2,265,157.4z"/>
		<path class="st1" d="M3.9,157.4c8-2.2,16.2-3.7,21.4,3.7c-0.2-0.4-0.4-0.7-0.6-1.1l-2-5c-0.3-0.8-0.6-1.7-0.8-2.6
			c-9.2,3-15.2-3.6-20.1-10.8c8-0.2,15.9,0.5,19.4,8l-0.6-2.3c-0.2-0.9-0.3-1.8-0.5-2.6c-0.2-1.1-0.3-2.2-0.5-3.2
			c-10.5-0.1-14.6-8.9-17.3-18c7.2,2.1,14.3,4.8,16.9,11.1c0-2,0.1-4,0.2-6c-10.4-2.9-11.8-12.7-11.8-22.3c6,3.9,11.7,8.2,12.9,14.5
			c0.2-0.8,0.3-1.7,0.5-2.5c0.4-1.6,0.8-3.1,1.3-4.7c-8.4-4.4-7.9-13.3-6.2-21.8c4.4,4.3,8.5,8.9,8.8,14.4c1.1-2.7,2.2-5.3,3.5-7.8
			c0,0,0,0,0,0c-8.2-4.5-7.7-13.3-6-21.7c5.1,5,9.7,10.4,8.6,17c1.5-2.6,3.1-5.1,4.8-7.6c-0.1,0.1-0.2,0.2-0.3,0.4
			c-4.8-7.8-2.3-15.6,1-22.6c2.2,6.8,4,13.9,1.4,19.3c0.6-0.9,1.3-1.8,1.9-2.6c1.9-2.5,3.9-5,6-7.3c-3.8-8.1-0.6-15.5,3.3-22
			c1.5,6.6,2.6,13.3,0.1,18.4c0.7-0.7,1.5-1.5,2.2-2.2c1.5-9.1,9.9-11.7,18.4-12.9c-3.6,7.8-8,15.3-17.8,13.8
			c-1.8,1.8-3.6,3.7-5.3,5.6C51.7,70.3,59,72,66,74.5c-6.5,4.2-13.5,7.8-21.8,1.9c-2.1,2.5-4.1,5.2-6,7.9c4.8-4,11.4-2.5,17.7-0.3
			c-6,4.6-12.5,8.5-19.6,3.2c-2,3-3.8,6.1-5.5,9.3c4.5-4.2,12.1-4.2,19.7-3.5c-5.3,6.7-11.5,12.9-22.3,8.7c-1.1,2.3-2,4.7-2.9,7.1
			c4.1-4.8,11.2-5.3,18.1-5c-5,6.9-10.7,13.3-19.8,10.2c-1,3.4-1.7,6.8-2.2,10.3c2.5-6.6,9.8-8.9,17.1-10.3
			c-3.3,8.1-7.5,15.7-17.5,14.4c-0.3,3.4-0.3,6.8,0,10.2c2-7.6,9.7-10.2,17.5-11.6c-3.3,8-7.4,15.6-17.2,14.5c0.1,1,0.2,1.9,0.4,2.9
			c0.2,0.8,0.3,1.7,0.5,2.6l0.7,2.5c0.1,0.4,0.2,0.7,0.3,1.1c1.1-8,8.6-10.9,16.3-12.8c-2.6,7.8-6.1,15.3-15.7,14.8
			c0.2,0.6,0.4,1.3,0.6,1.9l2,4.8c0.6,1.2,1.2,2.4,1.9,3.6c-1.2-7.5,4.6-11.8,10.8-15.2c-0.6,7.3-2,14.5-10.3,16
			c1.7,2.9,3.6,5.7,5.8,8.3c-3-7.3,2.6-12.3,8.7-16.3c0.6,7.2,0.3,14.3-8.5,16.6c1.1,1.3,2.3,2.6,3.5,3.9c2,2,4.1,3.8,6.2,5.6
			c-3.8-6.6-0.5-14,3.5-20.6c2.1,7.4,3.6,15.2-2.9,21.1c3.1,2.4,6.4,4.7,9.8,6.6c-5.5-6.8-2.5-13.4,1.4-19.3
			c3.5,7.3,6.2,14.8-0.6,19.7c5.7,3.2,11.8,5.8,18,7.6l-0.8,3c-6.2-1.9-12-4.6-17.5-7.7c-5.3,8.3-14.2,6.8-22.6,4.1
			c5.9-4.8,12.3-9.1,19.3-6.1c-2.7-1.7-5.3-3.5-7.8-5.5c-6.1,6.6-14,3.8-21.1,0c5.9-3.3,12.2-6.1,17.9-2.7c-1.5-1.3-3-2.7-4.4-4.2
			c-0.8-0.9-1.6-1.8-2.4-2.8c0.1,0.2,0.3,0.4,0.4,0.6c-7.9,5.9-15.8,1.3-22.6-4.2c7.3-2.4,14.8-4.2,20.3,1.3
			c-2.4-3.1-4.4-6.3-6.2-9.8C18,168.1,10.4,163.2,3.9,157.4z"/>
	</g>
	<g>
		<rect x="133.6" y="50.1" class="st1" width="1.6" height="99.7"/>
		<rect x="137" y="57.7" class="st1" width="1.6" height="92"/>
		<rect x="140.4" y="65.9" class="st1" width="1.6" height="83.9"/>
		<rect x="143.8" y="75.7" class="st1" width="1.6" height="74.1"/>
		<rect x="147.3" y="84.4" class="st1" width="1.6" height="65.4"/>
		<rect x="150.7" y="93.4" class="st1" width="1.6" height="56.4"/>
		<rect x="154.1" y="102" class="st1" width="1.6" height="47.7"/>
		<rect x="161.7" y="110.9" class="st1" width="1.6" height="61.6"/>
		<rect x="165.1" y="120.2" class="st1" width="1.6" height="52.3"/>
		<rect x="168.5" y="130.5" class="st1" width="1.6" height="42"/>
		<rect x="171.9" y="141.7" class="st1" width="1.6" height="30.8"/>
		<rect x="130.2" y="57.7" class="st1" width="1.6" height="92"/>
		<rect x="126.8" y="65.9" class="st1" width="1.6" height="83.9"/>
		<rect x="123.4" y="75.7" class="st1" width="1.6" height="74.1"/>
		<rect x="119.9" y="84.4" class="st1" width="1.6" height="65.4"/>
		<rect x="116.5" y="93.4" class="st1" width="1.6" height="56.4"/>
		<rect x="113.1" y="102" class="st1" width="1.6" height="47.7"/>
		<rect x="105.5" y="110.9" class="st1" width="1.6" height="61.6"/>
		<rect x="102.1" y="120.2" class="st1" width="1.6" height="52.3"/>
		<rect x="98.7" y="130.5" class="st1" width="1.6" height="42"/>
		<rect x="95.3" y="141.7" class="st1" width="1.6" height="30.8"/>
	</g>
</g>
</svg>
