<?xml version="1.0" encoding="utf-8"?>
<svg version="1.1" xmlns="http://www.w3.org/2000/svg" xmlns:xlink="http://www.w3.org/1999/xlink" x="0px" y="0px" viewBox="0 0 880 228" style="enable-background:new 0 0 880 228" xml:space="preserve">
    <g>
        <path style="fill:none;stroke:#000;stroke-width:2;stroke-miterlimit:10" d="M4.6,220.7V48.6h93.1v25.9l-64.5-0.7l-1,48h57.6
		v24.1H32.2l1.2,74.9H4.6V220.7L4.6,220.7z M160,221l1-79.3l-1-93.1h29.1l-1,76.4l1,96.1H160V221z M264.2,220.7V48.6h93.1v25.1
		L293,72.9l-1.2,48.3h59.4v24.4h-59.4l1.2,50.5l64.3-0.5v25.1H264.2L264.2,220.7z M482.9,45.4c39.6,0,59.4,18.5,59.4,55.4
		c0,27.3-12,44.3-36,51v1.2l40.1,67.7h-33.7l-33.5-65l-27.1-1v66H423l1.2-80.8l-0.7-91.1C442,46.5,461.7,45.4,482.9,45.4z
		 M451.9,130.1c13,1.5,24.3,2.2,34.1,2.2s16.6-2.4,20.4-7.3c3.9-4.8,5.8-13.5,5.8-26.1s-2-21.1-5.9-25.5c-3.4-3.6-10.6-5.4-21.3-5.4
		c-10.8,0-21.7,0.7-32.9,2.2L451.9,130.1L451.9,130.1z M589.8,220.7l49-172.2h35l48.8,172.2h-29.8L682,178.3h-51.2l-11.1,42.4
		L589.8,220.7L589.8,220.7z M636.1,154.2h40.4L657,73.9h-1.5L636.1,154.2L636.1,154.2z M820.9,198.1c14.4,0,21.7-7.9,21.7-23.6
		c0-6.7-2.7-12.4-8.1-17c-6.8-5.5-14.4-10-22.5-13.4c-9.6-4.3-15.1-6.9-16.5-7.6l-7.5-4.1c-5.2-2.6-9.7-6.2-13.4-10.7
		c-2.3-2.2-4.1-4.8-5.3-7.8c-2.8-7.1-4.2-14-4.2-20.7c-0.4-13,4.9-25.6,14.4-34.4c9.6-8.9,23.3-13.4,41-13.4c13,0,25.8,1.8,38.4,5.4
		l6.7,1.7l-4.7,24.1c-17.9-3.4-31.6-5.2-41-5.2s-16,1.5-19.6,4.6c-3.6,3-5.4,7.9-5.4,14.5c0,6.7,2.3,11.8,6.8,15.5s9.8,7,15.8,9.9
		l14.5,6.8l8.4,3.8c1.9,0.9,4.5,2.3,7.8,4.2c5.4,2.9,10.1,6.7,14,11.4c2.5,2.5,4.3,5.1,5.4,7.8c3.1,6.5,4.7,13.5,4.7,20.7
		c0,15.9-5.2,28.8-15.5,38.7s-23.9,14.8-40.6,14.8c-8.5,0-17.4-1.2-26.7-3.7s-16.4-4.9-21.3-7.4l-7.6-3.9l3.7-10.7l2.5-6.9l2.2-6
		C785.2,193.3,802.9,197.6,820.9,198.1L820.9,198.1z"/>
    </g>
    <g>
        <path d="M4.9,36V8.2h3.5V33h8.9v3H4.9z M33.1,36l-1.5-7h-7.7l-1.5,7h-3.5l6.7-27.8h4.6L36.7,36C36.7,36,33.1,36,33.1,36z
		 M27.7,10.8L24.5,26H31C31,26,27.7,10.8,27.7,10.8z M66.3,21.6c0,3-0.2,5.4-0.5,7.3c-0.3,1.9-0.8,3.4-1.5,4.5s-1.5,1.8-2.5,2.2
		s-2.2,0.6-3.5,0.6h-2.4l-2.2-0.1l-2.3-0.2V8.2L53.5,8l2.1-0.1h2.2c1.4,0,2.6,0.2,3.7,0.5s1.9,1,2.7,2c0.7,1,1.3,2.4,1.6,4.2
		C66.1,16.3,66.3,18.7,66.3,21.6z M62.7,21.9c0-2.4-0.1-4.3-0.3-5.8s-0.5-2.6-0.9-3.4c-0.4-0.8-0.8-1.3-1.3-1.6s-1-0.4-1.6-0.4h-1.2
		l-1.3,0.1l-1.4,0.1v22.2l1.3,0.1l1.2,0.1h1.3c0.6,0,1.2-0.2,1.7-0.6c0.5-0.4,1-1,1.3-1.9C62.3,27.9,62.7,24.9,62.7,21.9z M83.4,36
		l-1.5-7h-7.7l-1.5,7h-3.5l6.7-27.8h4.6L86.9,36H83.4z M78,10.8L74.8,26h6.5L78,10.8z M100.6,36l-6.1-24.9V36h-3.2V8.2h5.6l6.1,24.9
		V8.2h3.2V36H100.6z M115,33h9.8v3h-13.3v-3.5l10.2-21.4h-9.3V8.2h12.8v3.5L115,33z M142.3,36l-1.5-7h-7.7l-1.5,7H128l6.7-27.8h4.6
		l6.6,27.8H142.3z M136.9,10.8L133.7,26h6.5L136.9,10.8L136.9,10.8z M175.5,21.6c0,3-0.2,5.4-0.5,7.3c-0.3,1.9-0.8,3.4-1.5,4.5
		s-1.5,1.8-2.5,2.2s-2.2,0.6-3.5,0.6h-2.4l-2.2-0.1l-2.3-0.2V8.2l2.2-0.2l2.1-0.1h2.2c1.4,0,2.6,0.2,3.7,0.5s1.9,1,2.7,2
		c0.7,1,1.3,2.4,1.6,4.2C175.3,16.3,175.5,18.7,175.5,21.6z M171.9,21.9c0-2.4-0.1-4.3-0.3-5.8s-0.5-2.6-0.9-3.4
		c-0.4-0.8-0.8-1.3-1.3-1.6s-1-0.4-1.6-0.4h-1.2l-1.3,0.1l-1.4,0.1v22.2l1.3,0.1l1.2,0.1h1.3c0.6,0,1.2-0.2,1.7-0.6
		c0.5-0.4,1-1,1.3-1.9C171.5,27.9,171.9,24.9,171.9,21.9z M181.4,36V8.2h13v2.9h-9.6v9.1h8.6V23h-8.6v10h9.6v3H181.4z M210.6,36V8.2
		h3.5V33h8.9v3H210.6z M238.8,36l-1.5-7h-7.7l-1.5,7h-3.5l6.7-27.8h4.6l6.6,27.8H238.8L238.8,36z M233.4,10.8L230.2,26h6.5
		L233.4,10.8L233.4,10.8z M258.5,28.1c0,1.6-0.2,3-0.6,4.1c-0.3,1-0.9,1.8-1.6,2.5c-0.7,0.6-1.5,1-2.5,1.3c-1,0.2-2,0.4-3.2,0.4
		l-2.3-0.2l-2.3-0.4v-2.9l2.1,0.4l2.9,0.2c1.4,0,2.4-0.4,3-1.2s0.9-2,0.9-3.7l-0.2-2.4c-0.1-0.6-0.3-1.2-0.6-1.6s-0.6-0.7-1-0.9
		l-1.4-0.5c-1-0.1-1.9-0.5-2.8-0.9c-0.8-0.4-1.4-0.8-1.9-1.4s-0.8-1.3-1.1-2.1c-0.5-2.2-0.4-4.5,0.3-6.6c0.3-0.9,0.9-1.7,1.6-2.4
		c0.7-0.6,1.5-1,2.5-1.3s2-0.4,3.1-0.4l2.2,0.2l2,0.4v2.9l-2.3-0.4L253,11l-1.4,0.2c-0.5,0.2-0.9,0.4-1.2,0.8l-0.9,1.3
		c-0.3,1.3-0.4,2.7-0.2,4c0.1,0.5,0.2,1,0.5,1.3c0.2,0.3,0.5,0.6,0.9,0.8l1.5,0.5c1,0.2,1.8,0.5,2.6,0.8c1.6,0.7,2.9,2.1,3.3,3.8
		C258.3,25.4,258.5,26.6,258.5,28.1L258.5,28.1z"/>
    </g>
</svg>
