<?xml version="1.0" encoding="utf-8"?>
<!-- Generator: Adobe Illustrator 21.0.2, SVG Export Plug-In . SVG Version: 6.00 Build 0)  -->
<svg version="1.1" id="Layer_1" xmlns="http://www.w3.org/2000/svg" xmlns:xlink="http://www.w3.org/1999/xlink" x="0px" y="0px"
	 viewBox="0 0 538.6 273.5" style="enable-background:new 0 0 538.6 273.5;" xml:space="preserve">
<style type="text/css">
	.st0{fill:#FFFFFF;}
	.st1{fill:#C6C5C4;}
	.st2{fill:#DBDADA;}
	.st3{fill:#CBCBCA;}
	.st4{fill:#E4E4E4;}
</style>
<g>
	<g>
		<g>
			<g>
				<g>
					<g>
						<path class="st0" d="M182,121.5c1,24.5-1.6,48.6-25.1,69.5s-44.4,28.7-72.6,28.7c-28.2,0-63.7-20.9-71-37.1s-8.9-61.1,0-87.2
							c8.9-26.6,30.3-51.2,70-48.6C122.9,48.9,179.3,66.1,182,121.5z"/>
					</g>
				</g>
				<g>
					<path class="st0" d="M203.8,128.1c-0.6,0-0.9-0.3-0.9-0.9l0-20c0-0.6,0.3-0.9,0.9-0.9l10.9,0c0.2,0,0.4,0.1,0.5,0.2
						c0.1,0.1,0.1,0.4,0.1,0.7v0.5c0,0.3,0,0.6-0.1,0.7c-0.1,0.1-0.2,0.2-0.5,0.2l-9.1,0l0,7.1l8.2,0c0.2,0,0.4,0.1,0.5,0.2
						c0.1,0.1,0.1,0.4,0.1,0.7v0.5c0,0.6-0.2,1-0.6,1l-8.2,0l0,7.6l9.2,0c0.4,0,0.6,0.3,0.6,0.9v0.5c0,0.3,0,0.6-0.1,0.7
						c-0.1,0.1-0.2,0.2-0.5,0.2L203.8,128.1z"/>
					<path class="st0" d="M225.1,128.1c-0.6,0-1-0.3-1-0.9l0-20c0-0.6,0.3-0.9,1-0.9l6.3,0c1.1,0,2.1,0.1,3.1,0.4
						c0.9,0.2,1.8,0.6,2.6,1.2c0.8,0.5,1.5,1.2,2.1,2.1c0.6,0.8,1,1.9,1.4,3.1c0.3,1.3,0.5,2.7,0.5,4.3c0,1.3-0.1,2.5-0.3,3.6
						c-0.2,1.1-0.5,2-1,2.8c-0.4,0.8-0.9,1.5-1.5,2.1c-0.6,0.6-1.2,1.1-2,1.4c-0.7,0.4-1.5,0.6-2.3,0.8c-0.8,0.2-1.7,0.3-2.6,0.3
						L225.1,128.1z M226.9,125.7l4.3,0c1,0,1.9-0.2,2.8-0.5c0.8-0.3,1.6-0.8,2.2-1.5c0.7-0.7,1.2-1.5,1.5-2.7c0.4-1.1,0.5-2.4,0.5-4
						c0-1.5-0.2-2.8-0.5-4c-0.4-1.1-0.9-2-1.5-2.7c-0.7-0.7-1.4-1.2-2.2-1.5c-0.8-0.3-1.8-0.5-2.8-0.5l-4.3,0L226.9,125.7z"/>
					<path class="st0" d="M258.1,128.2c-2.7,0-4.9-0.6-6.3-1.9c-1.5-1.3-2.2-3-2.2-5.3l0-14.3c0-0.4,0.4-0.7,1.3-0.7h0.2
						c0.8,0,1.2,0.2,1.2,0.7l0,14.4c0,1.4,0.5,2.5,1.6,3.4c1.1,0.9,2.5,1.3,4.2,1.3c1.7,0,3.1-0.4,4.1-1.3c1.1-0.9,1.6-2,1.6-3.4
						l0-14.4c0-0.4,0.4-0.7,1.2-0.7h0.3c0.8,0,1.2,0.2,1.2,0.7l0,14.3c0,2.3-0.7,4-2.2,5.3C263,127.6,260.9,128.2,258.1,128.2z"/>
					<path class="st0" d="M285.3,128.2c-3.4,0-6-0.9-7.6-2.7c-1.6-1.8-2.5-4.6-2.5-8.4c0-7.4,3.4-11.1,10.1-11.1
						c1.5,0,2.9,0.2,4.1,0.6c1.3,0.4,1.9,0.9,1.9,1.3c0,0.3-0.1,0.7-0.4,1.1c-0.3,0.5-0.5,0.7-0.7,0.7c0,0-0.3-0.1-0.7-0.3
						c-0.4-0.2-1-0.5-1.7-0.7c-0.7-0.2-1.6-0.3-2.4-0.3c-2.5,0-4.4,0.7-5.6,2.1c-1.2,1.4-1.8,3.6-1.8,6.7c0,3,0.6,5.2,1.8,6.6
						c1.2,1.4,3,2.1,5.5,2.1c0.7,0,1.4-0.1,2.1-0.2c0.7-0.2,1.2-0.3,1.6-0.5c0.4-0.2,0.8-0.4,1.1-0.5c0.3-0.2,0.5-0.2,0.6-0.2
						c0.2,0,0.4,0.2,0.7,0.7s0.4,0.8,0.4,1c0,0.3-0.3,0.6-0.8,1c-0.6,0.4-1.3,0.7-2.4,0.9C287.5,128.1,286.4,128.2,285.3,128.2z"/>
					<path class="st0" d="M298.6,128.1c-0.9,0-1.3-0.2-1.3-0.5c0-0.1,0-0.2,0.1-0.4l7.4-20.6c0.1-0.3,0.5-0.5,1.2-0.5l0.9,0
						c0.8,0,1.2,0.2,1.2,0.5l7.4,20.6c0.1,0.2,0.1,0.3,0.1,0.4c0,0.4-0.4,0.5-1.3,0.5h-0.2c-0.7,0-1.2-0.2-1.3-0.5l-1.9-5.1l-9.2,0
						l-1.8,5.1c-0.1,0.3-0.5,0.5-1.2,0.5H298.6z M302.7,120.1l7.5,0l-3.3-9.3c-0.1-0.3-0.2-1-0.4-1.8h-0.1c-0.1,0.7-0.3,1.3-0.5,1.8
						L302.7,120.1z"/>
					<path class="st0" d="M324.2,128.1c-0.6,0-1-0.3-1-0.9l0-20c0-0.6,0.3-0.9,1-0.9l6.3,0c1.1,0,2.1,0.1,3.1,0.4
						c0.9,0.2,1.8,0.6,2.6,1.2c0.8,0.5,1.5,1.2,2.1,2.1c0.6,0.8,1,1.9,1.4,3.1c0.3,1.3,0.5,2.7,0.5,4.3c0,1.3-0.1,2.5-0.3,3.6
						c-0.2,1.1-0.5,2-1,2.8c-0.4,0.8-0.9,1.5-1.5,2.1c-0.6,0.6-1.2,1.1-2,1.4c-0.7,0.4-1.5,0.6-2.3,0.8c-0.8,0.2-1.7,0.3-2.6,0.3
						L324.2,128.1z M326,125.7h4.3c1,0,1.9-0.2,2.8-0.5c0.8-0.3,1.6-0.8,2.2-1.5s1.2-1.5,1.5-2.7c0.4-1.1,0.5-2.4,0.5-4
						c0-1.5-0.2-2.8-0.5-4c-0.4-1.1-0.9-2-1.5-2.7c-0.7-0.7-1.4-1.2-2.2-1.5c-0.8-0.3-1.8-0.5-2.8-0.5H326L326,125.7z"/>
					<path class="st0" d="M357.6,128.2c-3.1,0-5.5-1-7.2-2.9s-2.5-4.7-2.5-8.3c0-3.6,0.8-6.4,2.5-8.3c1.6-1.9,4-2.8,7.2-2.8
						c3.2,0,5.6,0.9,7.2,2.8s2.5,4.6,2.5,8.3c0,3.7-0.8,6.4-2.5,8.4C363.1,127.3,360.7,128.2,357.6,128.2z M357.6,125.9
						c2.2,0,3.9-0.8,5.1-2.3c1.2-1.5,1.7-3.7,1.7-6.6c0-2.9-0.6-5-1.7-6.5c-1.2-1.5-2.9-2.2-5.1-2.2c-2.2,0-3.9,0.7-5,2.2
						c-1.2,1.5-1.7,3.6-1.7,6.5c0,2.9,0.6,5.1,1.7,6.6C353.7,125.1,355.4,125.9,357.6,125.9z"/>
					<path class="st0" d="M377.5,128.1c-0.9,0-1.3-0.2-1.3-0.7l0-20.3c0-0.6,0.3-0.9,1-0.9h5.3c2.5,0,4.4,0.4,5.7,1.3
						s1.9,2.3,1.9,4.2c0,2.6-1.2,4.3-3.6,5.3v0.1c0.6,0.2,1.1,0.6,1.5,1.2c0.4,0.6,0.8,1.5,1.3,2.7l2.4,6.2c0.1,0.2,0.1,0.3,0.1,0.4
						c0,0.3-0.4,0.5-1.3,0.5h-0.3c-0.3,0-0.6,0-0.8-0.1c-0.2-0.1-0.4-0.2-0.4-0.4l-2.4-6.1c-0.5-1.2-1-2-1.7-2.4
						c-0.7-0.4-1.7-0.7-2.9-0.7H379l0,9c0,0.5-0.4,0.7-1.2,0.7H377.5z M379,116h4.1c1.1,0,2.1-0.4,2.9-1.1c0.8-0.8,1.2-1.7,1.2-2.7
						c0-1.2-0.4-2.1-1.1-2.7c-0.8-0.6-1.8-0.9-3.1-0.9l-3.9,0L379,116z"/>
					<path class="st0" d="M400.4,128.1c-0.6,0-1-0.3-1-0.9l0-20c0-0.6,0.3-0.9,1-0.9l10.9,0c0.2,0,0.4,0.1,0.5,0.2
						c0.1,0.1,0.1,0.4,0.1,0.7v0.5c0,0.3,0,0.6-0.1,0.7c-0.1,0.1-0.2,0.2-0.5,0.2l-9.1,0l0,7.1l8.2,0c0.2,0,0.4,0.1,0.5,0.2
						c0.1,0.1,0.1,0.4,0.1,0.7v0.5c0,0.6-0.2,1-0.6,1l-8.2,0l0,7.6l9.2,0c0.4,0,0.6,0.3,0.6,0.9v0.5c0,0.3,0,0.6-0.1,0.7
						c-0.1,0.1-0.2,0.2-0.5,0.2L400.4,128.1z"/>
					<path class="st0" d="M425.3,128.2c-1.1,0-2.2-0.1-3.3-0.4c-1-0.3-1.8-0.6-2.4-0.9c-0.6-0.4-0.8-0.7-0.8-1c0-0.3,0.1-0.6,0.4-1
						c0.3-0.4,0.5-0.7,0.7-0.7c0.1,0,0.3,0.1,0.6,0.3c0.3,0.2,0.7,0.4,1,0.5c0.4,0.2,0.9,0.4,1.6,0.5c0.7,0.2,1.4,0.3,2.1,0.3
						c1.2,0,2.2-0.3,3-1c0.8-0.7,1.1-1.6,1.1-2.7c0-0.6-0.1-1.1-0.3-1.5c-0.2-0.4-0.6-0.8-1.1-1.1c-0.5-0.3-0.9-0.6-1.4-0.8
						c-0.4-0.2-1-0.4-1.7-0.7c-0.1,0-0.2-0.1-0.2-0.1h0l0,0h0l0,0h0h0l0,0c-1.5-0.6-2.5-1.1-3.1-1.5c-1.4-1.1-2.2-2.6-2.2-4.6
						c0-1.7,0.6-3.1,1.9-4.2c1.3-1.1,3-1.6,5-1.6c1,0,2.1,0.2,3.3,0.6c1.2,0.4,1.7,0.8,1.7,1.4c0,0.2-0.1,0.6-0.4,1
						s-0.5,0.6-0.6,0.6c-0.1,0-0.3-0.1-0.7-0.3c-0.4-0.2-0.8-0.4-1.4-0.6c-0.6-0.2-1.3-0.3-2-0.3c-1.2,0-2.2,0.3-2.9,0.9
						c-0.8,0.6-1.1,1.5-1.1,2.6c0,0.4,0.1,0.8,0.2,1.1c0.2,0.3,0.3,0.6,0.5,0.8c0.1,0.2,0.5,0.4,0.9,0.7c0.5,0.3,0.8,0.4,1,0.5
						c0.2,0.1,0.6,0.2,1.3,0.5c0.2,0.1,0.3,0.1,0.4,0.1c0.4,0.2,0.7,0.3,0.9,0.4c0.2,0.1,0.5,0.2,0.9,0.4c0.4,0.2,0.7,0.3,0.9,0.5
						c0.2,0.1,0.5,0.3,0.8,0.5c0.3,0.2,0.6,0.4,0.8,0.7c0.2,0.2,0.4,0.5,0.6,0.8c0.2,0.3,0.4,0.6,0.5,0.9c0.1,0.3,0.2,0.7,0.3,1.1
						c0.1,0.4,0.1,0.9,0.1,1.3c0,1.9-0.6,3.3-1.9,4.4C429.1,127.7,427.5,128.2,425.3,128.2z"/>
				</g>
				<g>
					<path class="st0" d="M202.4,195c-0.4,0-0.6-0.2-0.6-0.6l0-12.6c0-0.4,0.2-0.6,0.6-0.6h6.9c0.1,0,0.2,0,0.3,0.1s0.1,0.2,0.1,0.5
						v0.3c0,0.2,0,0.4-0.1,0.5c-0.1,0.1-0.2,0.1-0.3,0.1l-5.8,0l0,4.5h5.2c0.1,0,0.2,0,0.3,0.1c0.1,0.1,0.1,0.2,0.1,0.5v0.3
						c0,0.4-0.1,0.6-0.4,0.6h-5.2l0,4.8h5.8c0.3,0,0.4,0.2,0.4,0.6v0.3c0,0.2,0,0.4-0.1,0.5s-0.2,0.1-0.3,0.1L202.4,195z"/>
					<path class="st0" d="M218.1,195.1c-1.2,0-2.1-0.5-2.8-1.5c-0.7-1-1-2.2-1-3.8c0-1.7,0.4-3,1.1-3.9c0.7-0.9,1.7-1.4,2.9-1.4
						c1,0,1.9,0.3,2.8,1l0-5c0-0.3,0.3-0.4,0.8-0.4h0.1c0.5,0,0.8,0.1,0.8,0.4l0,11.5c0,0.3,0,0.6,0,0.9c0,0.3,0,0.5,0.1,0.7
						c0,0.2,0,0.3,0.1,0.5c0,0.1,0,0.2,0.1,0.3c0,0.1,0,0.1,0,0.1c0,0.2-0.1,0.3-0.4,0.4c-0.2,0.1-0.5,0.1-0.7,0.1
						c-0.1,0-0.1,0-0.2,0c-0.1,0-0.1-0.1-0.1-0.1c0-0.1-0.1-0.1-0.1-0.2c0-0.1-0.1-0.1-0.1-0.2c0-0.1-0.1-0.2-0.1-0.2
						c0-0.1,0-0.1-0.1-0.3c0-0.1,0-0.2-0.1-0.2C220.3,194.6,219.3,195.1,218.1,195.1z M218.4,193.7c0.4,0,0.9-0.1,1.4-0.4
						c0.5-0.2,0.9-0.6,1.3-1l0-5.4c-0.7-0.6-1.5-0.9-2.4-0.9c-0.9,0-1.5,0.3-2,1c-0.4,0.6-0.7,1.5-0.7,2.7c0,1.3,0.2,2.3,0.6,3
						C217.1,193.3,217.7,193.7,218.4,193.7z"/>
					<path class="st0" d="M231.8,195.1c-1,0-1.8-0.3-2.4-0.8c-0.6-0.6-0.9-1.3-0.9-2.3l0-6.9c0-0.3,0.3-0.4,0.8-0.4h0.1
						c0.5,0,0.8,0.1,0.8,0.4l0,6.7c0,0.6,0.2,1.1,0.5,1.4c0.4,0.3,0.8,0.5,1.5,0.5c0.4,0,0.9-0.1,1.3-0.4c0.4-0.3,0.8-0.6,1.2-1
						l0-7.2c0-0.3,0.3-0.4,0.8-0.4h0.1c0.5,0,0.8,0.1,0.8,0.4l0,7c0,0.3,0,0.6,0,0.9s0,0.5,0.1,0.7c0,0.2,0,0.3,0.1,0.5
						c0,0.1,0,0.2,0.1,0.3c0,0.1,0,0.1,0,0.1c0,0.2-0.1,0.3-0.4,0.4c-0.2,0.1-0.5,0.1-0.7,0.1c-0.1,0-0.2,0-0.2-0.1
						c-0.1-0.1-0.1-0.1-0.2-0.3c0-0.1-0.1-0.2-0.1-0.3c0-0.1-0.1-0.2-0.1-0.4c0-0.2-0.1-0.3-0.1-0.3c-0.4,0.5-0.9,0.8-1.4,1.1
						C232.8,195,232.3,195.1,231.8,195.1z"/>
					<path class="st0" d="M246.5,195.1c-1.6,0-2.9-0.4-3.7-1.3c-0.8-0.8-1.2-2.2-1.2-4.1c0-0.8,0.1-1.5,0.3-2.1
						c0.2-0.6,0.4-1.1,0.7-1.5c0.3-0.4,0.7-0.7,1.1-0.9c0.4-0.2,0.8-0.4,1.3-0.5c0.4-0.1,0.9-0.1,1.4-0.1c0.8,0,1.5,0.1,2.1,0.3
						c0.6,0.2,0.9,0.4,0.9,0.6c0,0.2-0.1,0.4-0.2,0.7c-0.2,0.3-0.3,0.4-0.4,0.4c0,0,0,0,0,0c0,0,0,0-0.1,0c0,0-0.1,0-0.1,0
						c-0.8-0.3-1.5-0.5-2.2-0.5c-1.9,0-2.9,1.3-2.9,3.8c0,1.4,0.2,2.4,0.7,3c0.5,0.6,1.3,0.9,2.4,0.9c0.8,0,1.6-0.2,2.2-0.5l0.2-0.1
						c0.1,0,0.3,0.1,0.4,0.4c0.2,0.3,0.2,0.5,0.2,0.6c0,0.2-0.3,0.5-0.9,0.7C248.1,195,247.4,195.1,246.5,195.1z"/>
					<path class="st0" d="M257.2,195.1c-1,0-1.8-0.2-2.4-0.7c-0.6-0.5-0.9-1.2-0.9-2.2c0-0.4,0-0.7,0.1-1c0.1-0.3,0.2-0.6,0.3-0.8
						c0.1-0.2,0.3-0.4,0.6-0.6c0.2-0.2,0.5-0.3,0.7-0.5c0.2-0.1,0.5-0.2,0.8-0.3c0.3-0.1,0.6-0.2,0.9-0.2c0.3,0,0.6-0.1,1-0.1
						c0.4,0,0.7-0.1,1-0.1c0.3,0,0.6,0,1,0v-0.9c0-0.5-0.2-0.9-0.5-1.2c-0.3-0.3-0.9-0.5-1.7-0.5c-0.5,0-1,0.1-1.5,0.2
						c-0.5,0.1-0.9,0.3-1.1,0.4c-0.3,0.1-0.4,0.2-0.4,0.2c-0.1,0-0.3-0.1-0.4-0.4c-0.2-0.3-0.2-0.5-0.2-0.6c0-0.2,0.2-0.4,0.5-0.6
						c0.3-0.2,0.8-0.4,1.4-0.5c0.6-0.1,1.2-0.2,1.8-0.2c1.2,0,2.2,0.3,2.9,0.8c0.7,0.5,1,1.3,1,2.3v4.4c0,0.3,0,0.6,0,0.9
						c0,0.3,0,0.5,0.1,0.7c0,0.2,0,0.3,0.1,0.5c0,0.1,0,0.2,0.1,0.3c0,0.1,0,0.1,0,0.1c0,0.2-0.1,0.3-0.4,0.4
						c-0.2,0.1-0.5,0.1-0.7,0.1c-0.1,0-0.2,0-0.3-0.1c-0.1-0.1-0.1-0.2-0.2-0.3c0-0.1-0.1-0.3-0.1-0.4c0-0.1-0.1-0.3-0.1-0.4
						c0-0.1,0-0.1,0-0.1C259.6,194.6,258.5,195.1,257.2,195.1z M257.3,193.7c0.6,0,1.2-0.1,1.7-0.4c0.5-0.2,0.9-0.6,1.4-1V190
						c-1.4,0-2.3,0.1-2.9,0.2c-1.3,0.3-1.9,0.9-1.9,1.9c0,0.5,0.1,0.9,0.4,1.2C256.3,193.5,256.7,193.7,257.3,193.7z"/>
					<path class="st0" d="M271.1,195.1c-1.2,0-2.1-0.5-2.8-1.5c-0.7-1-1-2.2-1-3.8c0-1.7,0.4-3,1.1-3.9c0.7-0.9,1.7-1.4,2.9-1.4
						c1,0,1.9,0.3,2.8,1v-5c0-0.3,0.3-0.4,0.8-0.4h0.1c0.5,0,0.8,0.1,0.8,0.4l0,11.5c0,0.3,0,0.6,0,0.9c0,0.3,0,0.5,0.1,0.7
						c0,0.2,0,0.3,0.1,0.5c0,0.1,0,0.2,0.1,0.3c0,0.1,0,0.1,0,0.1c0,0.2-0.1,0.3-0.4,0.4c-0.2,0.1-0.5,0.1-0.7,0.1
						c-0.1,0-0.1,0-0.2,0c-0.1,0-0.1-0.1-0.1-0.1c0-0.1-0.1-0.1-0.1-0.2c0-0.1-0.1-0.1-0.1-0.2c0-0.1-0.1-0.2-0.1-0.2
						c0-0.1,0-0.1-0.1-0.3c0-0.1,0-0.2-0.1-0.2C273.2,194.6,272.2,195.1,271.1,195.1z M271.4,193.7c0.4,0,0.9-0.1,1.4-0.4
						c0.5-0.2,0.9-0.6,1.3-1v-5.4c-0.7-0.6-1.5-0.9-2.4-0.9c-0.9,0-1.5,0.3-2,1s-0.7,1.5-0.7,2.7c0,1.3,0.2,2.3,0.6,3
						C270,193.3,270.6,193.7,271.4,193.7z"/>
					<path class="st0" d="M285.7,195.1c-1.5,0-2.6-0.4-3.4-1.3c-0.8-0.9-1.2-2.2-1.2-3.9c0-1.7,0.4-3,1.2-4c0.8-0.9,1.9-1.4,3.4-1.4
						c1.5,0,2.6,0.5,3.3,1.4c0.8,0.9,1.2,2.2,1.2,4c0,1.7-0.4,3-1.1,3.9C288.2,194.7,287.1,195.1,285.7,195.1z M285.6,193.7
						c1,0,1.7-0.3,2.1-0.9c0.5-0.6,0.7-1.6,0.7-2.9c0-1.3-0.2-2.3-0.7-2.9c-0.5-0.6-1.2-0.9-2.1-0.9c-1,0-1.7,0.3-2.1,0.9
						c-0.5,0.6-0.7,1.6-0.7,2.9c0,1.3,0.2,2.3,0.7,2.9S284.6,193.7,285.6,193.7z"/>
					<path class="st0" d="M296.4,195c-0.5,0-0.8-0.1-0.8-0.4l0-6.9c0-0.3,0-0.6,0-0.9c0-0.3,0-0.5-0.1-0.7c0-0.2,0-0.3-0.1-0.5
						c0-0.1,0-0.2-0.1-0.3c0-0.1,0-0.1,0-0.1c0-0.2,0.1-0.3,0.4-0.4c0.2-0.1,0.5-0.1,0.7-0.1c0.1,0,0.1,0,0.2,0
						c0.1,0,0.1,0.1,0.1,0.1c0,0.1,0.1,0.1,0.1,0.2c0,0.1,0.1,0.1,0.1,0.2c0,0.1,0,0.2,0.1,0.2c0,0.1,0,0.2,0.1,0.3
						c0,0.1,0,0.2,0.1,0.2c0.7-1,1.4-1.5,2.3-1.5c0.4,0,0.6,0.1,0.8,0.2c0.2,0.1,0.3,0.3,0.3,0.5c0,0.2,0,0.5-0.1,0.7
						c-0.1,0.3-0.2,0.4-0.3,0.4c0,0-0.2,0-0.4-0.1c-0.2-0.1-0.4-0.1-0.7-0.1c-0.2,0-0.4,0-0.6,0.1c-0.2,0.1-0.4,0.2-0.5,0.3
						c-0.1,0.1-0.3,0.2-0.4,0.4c-0.1,0.1-0.2,0.2-0.3,0.3l-0.1,0.1l0,7.2C297.3,194.9,297,195,296.4,195L296.4,195z"/>
					<path class="st0" d="M309.6,195.1c-1.6,0-2.9-0.4-3.7-1.3c-0.8-0.9-1.2-2.2-1.2-3.9c0-1.8,0.4-3.1,1.2-4
						c0.8-0.9,1.9-1.4,3.4-1.4c1.3,0,2.4,0.4,3,1.3c0.7,0.9,1,2.2,1,3.8c0,0.1-0.1,0.3-0.2,0.5c-0.2,0.2-0.3,0.3-0.4,0.3l-6.3,0
						c0.1,1.1,0.4,1.9,0.9,2.4c0.5,0.5,1.2,0.8,2.2,0.8c0.5,0,1-0.1,1.4-0.2c0.4-0.1,0.8-0.3,1-0.4c0.3-0.1,0.4-0.2,0.4-0.2
						c0.1,0,0.3,0.1,0.4,0.4c0.2,0.3,0.2,0.5,0.2,0.6c0,0.2-0.2,0.3-0.5,0.5c-0.3,0.2-0.7,0.4-1.3,0.5
						C310.8,195,310.2,195.1,309.6,195.1z M306.5,189.1h5.1c0-2.1-0.8-3.1-2.3-3.1C307.6,186,306.7,187,306.5,189.1z"/>
					<path class="st0" d="M320.8,195.1c-0.6,0-1.1-0.1-1.6-0.2c-0.5-0.1-0.9-0.3-1.1-0.5c-0.3-0.2-0.4-0.4-0.4-0.5
						c0-0.1,0.1-0.3,0.2-0.6c0.2-0.3,0.3-0.4,0.4-0.4c0,0,0.1,0,0.2,0.1c0.1,0.1,0.3,0.2,0.5,0.3c0.2,0.1,0.4,0.2,0.7,0.3
						c0.3,0.1,0.6,0.1,0.9,0.1c1.3,0,2-0.5,2-1.6c0-0.4-0.1-0.8-0.4-1.1c-0.3-0.3-0.8-0.5-1.6-0.7c-1-0.3-1.7-0.7-2.1-1.1
						s-0.6-1.1-0.6-1.8c0-0.8,0.3-1.5,0.9-2.1c0.6-0.5,1.4-0.8,2.4-0.8c0.7,0,1.3,0.1,1.8,0.3c0.5,0.2,0.8,0.4,0.8,0.6
						c0,0.2-0.1,0.4-0.2,0.7s-0.3,0.4-0.4,0.4c0,0-0.1,0-0.3-0.1c-0.2-0.1-0.4-0.2-0.7-0.3c-0.3-0.1-0.6-0.1-0.9-0.1
						c-0.5,0-0.9,0.1-1.3,0.3c-0.3,0.2-0.5,0.5-0.5,0.9c0,0.4,0.1,0.8,0.4,1.1c0.2,0.3,0.6,0.5,1.2,0.7c1.2,0.4,2.1,0.8,2.5,1.2
						s0.7,1.1,0.7,2c0,0.9-0.3,1.6-1,2.2C322.6,194.8,321.7,195.1,320.8,195.1z"/>
					<path class="st0" d="M338.9,195.1c-0.6,0-1.1-0.1-1.6-0.2s-0.9-0.3-1.1-0.5c-0.3-0.2-0.4-0.4-0.4-0.5c0-0.1,0.1-0.3,0.2-0.6
						c0.2-0.3,0.3-0.4,0.4-0.4c0,0,0.1,0,0.2,0.1c0.1,0.1,0.3,0.2,0.5,0.3c0.2,0.1,0.4,0.2,0.7,0.3s0.6,0.1,0.9,0.1
						c1.3,0,2-0.5,2-1.6c0-0.4-0.1-0.8-0.4-1.1c-0.3-0.3-0.8-0.5-1.6-0.7c-1-0.3-1.7-0.7-2.1-1.1s-0.6-1.1-0.6-1.8
						c0-0.8,0.3-1.5,0.9-2.1c0.6-0.5,1.4-0.8,2.4-0.8c0.7,0,1.3,0.1,1.8,0.3s0.8,0.4,0.8,0.6c0,0.2-0.1,0.4-0.2,0.7
						c-0.1,0.3-0.3,0.4-0.4,0.4c0,0-0.1,0-0.3-0.1c-0.2-0.1-0.4-0.2-0.7-0.3c-0.3-0.1-0.6-0.1-0.9-0.1c-0.5,0-0.9,0.1-1.3,0.3
						c-0.3,0.2-0.5,0.5-0.5,0.9c0,0.4,0.1,0.8,0.4,1.1c0.2,0.3,0.6,0.5,1.2,0.7c1.2,0.4,2.1,0.8,2.5,1.2s0.7,1.1,0.7,2
						c0,0.9-0.3,1.6-1,2.2C340.7,194.8,339.9,195.1,338.9,195.1z"/>
					<path class="st0" d="M351.5,195.1c-1.5,0-2.6-0.4-3.4-1.3c-0.8-0.9-1.2-2.2-1.2-3.9c0-1.7,0.4-3,1.2-4c0.8-0.9,1.9-1.4,3.4-1.4
						c1.5,0,2.6,0.5,3.3,1.4c0.8,0.9,1.2,2.2,1.2,4c0,1.7-0.4,3-1.1,3.9C354.1,194.7,353,195.1,351.5,195.1z M351.4,193.7
						c1,0,1.7-0.3,2.1-0.9c0.5-0.6,0.7-1.6,0.7-2.9c0-1.3-0.2-2.3-0.7-2.9c-0.5-0.6-1.2-0.9-2.1-0.9c-1,0-1.7,0.3-2.1,0.9
						c-0.5,0.6-0.7,1.6-0.7,2.9c0,1.3,0.2,2.3,0.7,2.9C349.8,193.3,350.5,193.7,351.4,193.7z"/>
					<path class="st0" d="M371.8,184.5c0.3,0,0.6,0,0.8,0.1c0.3,0,0.5,0.1,0.8,0.3c0.3,0.1,0.5,0.3,0.7,0.6c0.2,0.2,0.4,0.5,0.5,0.9
						c0.1,0.4,0.2,0.8,0.2,1.4l0,6.8c0,0.3-0.3,0.4-0.8,0.4h-0.1c-0.5,0-0.8-0.1-0.8-0.4l0-6.7c0-0.6-0.2-1.1-0.5-1.4
						c-0.3-0.3-0.8-0.5-1.4-0.5c-0.3,0-0.5,0-0.8,0.2c-0.3,0.1-0.5,0.2-0.7,0.4c-0.2,0.2-0.4,0.3-0.5,0.4c-0.1,0.1-0.3,0.3-0.4,0.4
						c0,0.1,0,0.2,0,0.4l0,6.8c0,0.3-0.3,0.4-0.8,0.4h-0.1c-0.5,0-0.8-0.1-0.8-0.4l0-6.7c0-0.6-0.2-1.1-0.5-1.4
						c-0.3-0.3-0.8-0.5-1.4-0.5c-0.3,0-0.5,0-0.8,0.1c-0.3,0.1-0.5,0.2-0.7,0.3c-0.2,0.1-0.3,0.3-0.5,0.4c-0.2,0.1-0.3,0.2-0.3,0.3
						l-0.1,0.1l0,7.2c0,0.3-0.3,0.4-0.8,0.4h-0.1c-0.5,0-0.8-0.1-0.8-0.4l0-6.9c0-0.3,0-0.6,0-0.9c0-0.3,0-0.5-0.1-0.7
						c0-0.2,0-0.3-0.1-0.5c0-0.1,0-0.2-0.1-0.3c0-0.1,0-0.1,0-0.1c0-0.2,0.1-0.3,0.4-0.4c0.2-0.1,0.5-0.1,0.7-0.1
						c0.1,0,0.2,0,0.2,0.1c0.1,0.1,0.1,0.1,0.2,0.3c0,0.1,0.1,0.2,0.1,0.3c0,0.1,0.1,0.2,0.1,0.4c0,0.2,0.1,0.3,0.1,0.3
						c0.4-0.4,0.8-0.8,1.3-1.1c0.5-0.3,1.1-0.4,1.7-0.4c0.3,0,0.5,0,0.8,0.1c0.3,0,0.5,0.1,0.8,0.2c0.3,0.1,0.5,0.3,0.7,0.5
						c0.2,0.2,0.4,0.5,0.5,0.8c0.4-0.5,0.9-0.9,1.4-1.2C370.7,184.7,371.2,184.5,371.8,184.5z"/>
					<path class="st0" d="M384.7,195.1c-1.5,0-2.6-0.4-3.4-1.3c-0.8-0.9-1.2-2.2-1.2-3.9c0-1.7,0.4-3,1.2-4c0.8-0.9,1.9-1.4,3.4-1.4
						c1.5,0,2.6,0.5,3.3,1.4c0.8,0.9,1.2,2.2,1.2,4c0,1.7-0.4,3-1.1,3.9C387.2,194.7,386.1,195.1,384.7,195.1z M384.6,193.7
						c1,0,1.7-0.3,2.1-0.9c0.5-0.6,0.7-1.6,0.7-2.9c0-1.3-0.2-2.3-0.7-2.9c-0.5-0.6-1.2-0.9-2.1-0.9c-1,0-1.7,0.3-2.1,0.9
						c-0.5,0.6-0.7,1.6-0.7,2.9c0,1.3,0.2,2.3,0.7,2.9C382.9,193.3,383.6,193.7,384.6,193.7z"/>
					<path class="st0" d="M396.7,195.1c-0.6,0-1.1-0.1-1.6-0.2s-0.9-0.3-1.1-0.5c-0.3-0.2-0.4-0.4-0.4-0.5c0-0.1,0.1-0.3,0.2-0.6
						c0.2-0.3,0.3-0.4,0.4-0.4c0,0,0.1,0,0.2,0.1s0.3,0.2,0.5,0.3c0.2,0.1,0.4,0.2,0.7,0.3c0.3,0.1,0.6,0.1,0.9,0.1
						c1.3,0,2-0.5,2-1.6c0-0.4-0.1-0.8-0.4-1.1c-0.3-0.3-0.8-0.5-1.6-0.7c-1-0.3-1.7-0.7-2.1-1.1s-0.6-1.1-0.6-1.8
						c0-0.8,0.3-1.5,0.9-2.1c0.6-0.5,1.4-0.8,2.4-0.8c0.7,0,1.3,0.1,1.8,0.3s0.8,0.4,0.8,0.6c0,0.2-0.1,0.4-0.2,0.7
						c-0.1,0.3-0.3,0.4-0.4,0.4c0,0-0.1,0-0.3-0.1c-0.2-0.1-0.4-0.2-0.7-0.3c-0.3-0.1-0.6-0.1-0.9-0.1c-0.5,0-0.9,0.1-1.3,0.3
						c-0.3,0.2-0.5,0.5-0.5,0.9c0,0.4,0.1,0.8,0.4,1.1c0.2,0.3,0.6,0.5,1.2,0.7c1.2,0.4,2.1,0.8,2.5,1.2c0.4,0.4,0.7,1.1,0.7,2
						c0,0.9-0.3,1.6-1,2.2C398.5,194.8,397.6,195.1,396.7,195.1z"/>
					<path class="st0" d="M415.6,195.1c-0.3,0-0.6,0-0.8-0.1c-0.3-0.1-0.5-0.2-0.8-0.4c-0.3-0.2-0.5-0.5-0.7-0.8
						c-0.2-0.4-0.2-0.8-0.2-1.4v-6.3h-1c-0.3,0-0.4-0.2-0.4-0.6v-0.2c0-0.4,0.1-0.6,0.4-0.6h1l0.2-2.1c0-0.3,0.2-0.4,0.6-0.4h0.2
						c0.4,0,0.6,0.1,0.6,0.4v2.1l1.6,0c0.3,0,0.4,0.2,0.4,0.6v0.2c0,0.4-0.1,0.6-0.4,0.6h-1.6v6.1c0,0.5,0.1,0.9,0.3,1.1
						c0.2,0.2,0.4,0.3,0.8,0.3c0.2,0,0.4,0,0.6,0c0.2,0,0.3,0,0.3,0c0.1,0,0.2,0.1,0.3,0.4c0.1,0.2,0.1,0.4,0.1,0.6
						C417.1,194.9,416.6,195.1,415.6,195.1z"/>
					<path class="st0" d="M426,195.1c-1.5,0-2.6-0.4-3.4-1.3c-0.8-0.9-1.2-2.2-1.2-3.9c0-1.7,0.4-3,1.2-4c0.8-0.9,1.9-1.4,3.4-1.4
						c1.5,0,2.6,0.5,3.3,1.4c0.8,0.9,1.2,2.2,1.2,4c0,1.7-0.4,3-1.1,3.9C428.6,194.7,427.5,195.1,426,195.1z M426,193.7
						c1,0,1.7-0.3,2.1-0.9c0.5-0.6,0.7-1.6,0.7-2.9c0-1.3-0.2-2.3-0.7-2.9c-0.5-0.6-1.2-0.9-2.1-0.9c-1,0-1.7,0.3-2.1,0.9
						s-0.7,1.6-0.7,2.9c0,1.3,0.2,2.3,0.7,2.9C424.3,193.3,425,193.7,426,193.7z"/>
					<path class="st0" d="M439,195.1c-1.2,0-2.1-0.5-2.8-1.5c-0.7-1-1-2.2-1-3.8c0-1.7,0.4-3,1.1-3.9c0.7-0.9,1.7-1.4,2.9-1.4
						c1,0,1.9,0.3,2.8,1l0-5c0-0.3,0.3-0.4,0.8-0.4h0.1c0.5,0,0.8,0.1,0.8,0.4l0,11.5c0,0.3,0,0.6,0,0.9c0,0.3,0,0.5,0.1,0.7
						c0,0.2,0,0.3,0.1,0.5c0,0.1,0,0.2,0.1,0.3c0,0.1,0,0.1,0,0.1c0,0.2-0.1,0.3-0.4,0.4c-0.2,0.1-0.5,0.1-0.7,0.1
						c-0.1,0-0.1,0-0.2,0c-0.1,0-0.1-0.1-0.1-0.1c0-0.1-0.1-0.1-0.1-0.2c0-0.1-0.1-0.1-0.1-0.2c0-0.1-0.1-0.2-0.1-0.2
						c0-0.1,0-0.1-0.1-0.3c0-0.1,0-0.2-0.1-0.2C441.2,194.6,440.2,195.1,439,195.1z M439.4,193.7c0.4,0,0.9-0.1,1.4-0.4
						c0.5-0.2,0.9-0.6,1.3-1l0-5.4c-0.7-0.6-1.5-0.9-2.4-0.9c-0.9,0-1.5,0.3-2,1c-0.4,0.6-0.7,1.5-0.7,2.7c0,1.3,0.2,2.3,0.6,3
						C438,193.3,438.6,193.7,439.4,193.7z"/>
					<path class="st0" d="M453.6,195.1c-1.5,0-2.6-0.4-3.4-1.3c-0.8-0.9-1.2-2.2-1.2-3.9c0-1.7,0.4-3,1.2-4c0.8-0.9,1.9-1.4,3.4-1.4
						c1.5,0,2.6,0.5,3.3,1.4c0.8,0.9,1.2,2.2,1.2,4c0,1.7-0.4,3-1.1,3.9C456.2,194.7,455.1,195.1,453.6,195.1z M453.6,193.7
						c1,0,1.7-0.3,2.1-0.9c0.5-0.6,0.7-1.6,0.7-2.9c0-1.3-0.2-2.3-0.7-2.9c-0.5-0.6-1.2-0.9-2.1-0.9c-1,0-1.7,0.3-2.1,0.9
						s-0.7,1.6-0.7,2.9c0,1.3,0.2,2.3,0.7,2.9C451.9,193.3,452.6,193.7,453.6,193.7z"/>
					<path class="st0" d="M465.6,195.1c-0.6,0-1.1-0.1-1.6-0.2s-0.9-0.3-1.1-0.5c-0.3-0.2-0.4-0.4-0.4-0.5c0-0.1,0.1-0.3,0.2-0.6
						c0.2-0.3,0.3-0.4,0.4-0.4c0,0,0.1,0,0.2,0.1s0.3,0.2,0.5,0.3c0.2,0.1,0.4,0.2,0.7,0.3s0.6,0.1,0.9,0.1c1.3,0,2-0.5,2-1.6
						c0-0.4-0.1-0.8-0.4-1.1c-0.3-0.3-0.8-0.5-1.6-0.7c-1-0.3-1.7-0.7-2.1-1.1s-0.6-1.1-0.6-1.8c0-0.8,0.3-1.5,0.9-2.1
						c0.6-0.5,1.4-0.8,2.4-0.8c0.7,0,1.3,0.1,1.8,0.3c0.5,0.2,0.8,0.4,0.8,0.6c0,0.2-0.1,0.4-0.2,0.7c-0.1,0.3-0.3,0.4-0.4,0.4
						c0,0-0.1,0-0.3-0.1c-0.2-0.1-0.4-0.2-0.7-0.3c-0.3-0.1-0.6-0.1-0.9-0.1c-0.5,0-0.9,0.1-1.3,0.3c-0.3,0.2-0.5,0.5-0.5,0.9
						c0,0.4,0.1,0.8,0.4,1.1c0.2,0.3,0.6,0.5,1.2,0.7c1.2,0.4,2.1,0.8,2.5,1.2s0.7,1.1,0.7,2c0,0.9-0.3,1.6-1,2.2
						C467.4,194.8,466.6,195.1,465.6,195.1z"/>
					<path class="st0" d="M481,195c-0.6,0-0.8-0.1-0.8-0.3c0-0.1,0-0.1,0.1-0.3l4.7-13c0.1-0.2,0.3-0.3,0.8-0.3h0.6
						c0.5,0,0.7,0.1,0.8,0.3l4.7,13c0,0.1,0.1,0.2,0.1,0.2c0,0.2-0.3,0.3-0.8,0.3h-0.1c-0.5,0-0.7-0.1-0.8-0.3l-1.2-3.2H483
						l-1.1,3.2c-0.1,0.2-0.3,0.3-0.8,0.3H481z M483.6,190h4.7l-2.1-5.9c-0.1-0.2-0.1-0.6-0.2-1.2h0c-0.1,0.4-0.2,0.8-0.3,1.2
						L483.6,190z"/>
					<path class="st0" d="M496.4,195c-0.5,0-0.8-0.1-0.8-0.4l0-1.3c0-0.3,0.3-0.4,0.8-0.4h0.3c0.5,0,0.8,0.1,0.8,0.4v1.3
						c0,0.3-0.3,0.4-0.8,0.4H496.4z"/>
					<path class="st0" d="M508.7,195.1c-2.2,0-3.8-0.6-4.8-1.7c-1-1.1-1.6-2.9-1.6-5.3c0-4.7,2.1-7,6.4-7c0.9,0,1.8,0.1,2.6,0.4
						c0.8,0.3,1.2,0.5,1.2,0.8c0,0.2-0.1,0.4-0.2,0.7c-0.2,0.3-0.3,0.4-0.4,0.4c0,0-0.2-0.1-0.4-0.2c-0.3-0.1-0.6-0.3-1.1-0.4
						c-0.5-0.1-1-0.2-1.5-0.2c-1.6,0-2.8,0.4-3.5,1.3c-0.7,0.9-1.1,2.3-1.1,4.2c0,1.9,0.4,3.3,1.1,4.2c0.7,0.9,1.9,1.3,3.4,1.3
						c0.5,0,0.9-0.1,1.3-0.2c0.4-0.1,0.8-0.2,1-0.3c0.3-0.1,0.5-0.2,0.7-0.3c0.2-0.1,0.3-0.2,0.4-0.2c0.1,0,0.3,0.1,0.4,0.4
						c0.2,0.3,0.2,0.5,0.2,0.6c0,0.2-0.2,0.4-0.5,0.6c-0.3,0.2-0.8,0.4-1.5,0.6C510.1,195,509.4,195.1,508.7,195.1z"/>
					<path class="st0" d="M517.8,195c-0.5,0-0.8-0.1-0.8-0.4v-1.3c0-0.3,0.3-0.4,0.8-0.4h0.3c0.5,0,0.8,0.1,0.8,0.4v1.3
						c0,0.3-0.3,0.4-0.8,0.4H517.8z"/>
				</g>
				<g>
					<path class="st0" d="M208.2,166.3c-2.3,0-4.1-0.3-5.5-0.9s-2.1-1.3-2.1-1.9c0-0.5,0.2-1.1,0.7-1.8c0.5-0.7,0.9-1.1,1.2-1.1
						c0.1,0,0.4,0.1,0.9,0.4c0.4,0.2,1,0.5,1.7,0.7c0.7,0.2,1.4,0.4,2.2,0.4c0.5,0,1-0.1,1.4-0.2c0.4-0.1,0.8-0.3,1.1-0.7
						c0.3-0.4,0.5-0.8,0.5-1.4c0-0.3-0.1-0.6-0.2-0.9c-0.1-0.3-0.3-0.5-0.5-0.7c-0.2-0.2-0.5-0.4-0.9-0.6c-0.4-0.2-0.7-0.4-1-0.5
						c-0.3-0.1-0.7-0.3-1.2-0.5c-0.5-0.2-0.9-0.4-1.2-0.5c-0.5-0.2-0.9-0.5-1.3-0.7c-0.4-0.2-0.8-0.5-1.2-0.9
						c-0.4-0.4-0.7-0.8-1-1.2s-0.5-1-0.6-1.6c-0.2-0.6-0.2-1.3-0.2-2.1c0-1.1,0.2-2.1,0.6-3c0.4-0.9,1-1.5,1.7-2
						c0.7-0.5,1.5-0.9,2.4-1.1c0.9-0.3,1.8-0.4,2.8-0.4c1.6,0,3,0.2,4.1,0.7c1.1,0.5,1.7,1,1.7,1.5c0,0.5-0.2,1.1-0.6,1.8
						c-0.4,0.7-0.8,1-1.1,1c-0.1,0-0.3-0.1-0.6-0.2c-0.3-0.1-0.7-0.3-1.3-0.4c-0.5-0.1-1.1-0.2-1.8-0.2c-1.1,0-1.9,0.2-2.3,0.5
						c-0.4,0.4-0.7,0.8-0.7,1.3c0,0.3,0.1,0.7,0.2,1c0.1,0.3,0.3,0.5,0.4,0.7c0.2,0.2,0.4,0.4,0.8,0.6c0.4,0.2,0.7,0.4,0.9,0.5
						c0.2,0.1,0.6,0.3,1.1,0.5c0.4,0.1,0.7,0.3,0.9,0.4c0.2,0.1,0.5,0.2,0.9,0.4c0.4,0.2,0.7,0.3,0.9,0.5c0.2,0.1,0.5,0.3,0.8,0.6
						s0.6,0.5,0.8,0.7c0.2,0.2,0.4,0.5,0.6,0.8s0.4,0.6,0.5,1c0.1,0.3,0.2,0.7,0.3,1.1c0.1,0.4,0.1,0.9,0.1,1.4
						c0,1.3-0.2,2.4-0.6,3.3c-0.4,0.9-1,1.7-1.7,2.2c-0.7,0.5-1.5,0.9-2.3,1.2C210,166.2,209.1,166.3,208.2,166.3z"/>
					<path class="st0" d="M224.2,166.2c-1.3,0-1.9-0.4-1.9-1.1l0-20.6c0-0.7,0.6-1.1,1.9-1.1h1.1c1.3,0,1.9,0.4,1.9,1.1l0,20.6
						c0,0.7-0.6,1.1-1.9,1.1H224.2z"/>
					<path class="st0" d="M237.7,166.2c-1.3,0-1.9-0.3-1.9-1l0-20.6c0-0.7,0.6-1,1.9-1h1.4c0.5,0,1,0.1,1.3,0.2s0.6,0.3,0.8,0.7
						l7.6,11.7l0.9,1.3l0-12.9c0-0.7,0.6-1,1.9-1h0.9c1.3,0,1.9,0.3,1.9,1l0,20.6c0,0.7-0.6,1-1.9,1h-1.2c-0.5,0-0.9-0.1-1.3-0.2
						c-0.3-0.1-0.6-0.3-0.8-0.7l-8-12.2l-0.7-1l0,13c0,0.7-0.6,1-1.9,1H237.7z"/>
					<path class="st0" d="M277.2,166.2c-1.3,0-1.9-0.3-1.9-1l0-20.3c0-0.4,0.1-0.8,0.3-1c0.2-0.2,0.5-0.3,1-0.3l10.8,0
						c0.6,0,1,0.5,1,1.6v1c0,1.1-0.3,1.6-1,1.6l-7.1,0l0,4.7l6.8,0c0.3,0,0.6,0.1,0.8,0.4c0.2,0.2,0.2,0.7,0.2,1.2v1
						c0,0.6-0.1,1-0.2,1.2c-0.2,0.3-0.4,0.4-0.8,0.4l-6.8,0l0,8.4c0,0.7-0.6,1-1.9,1H277.2z"/>
					<path class="st0" d="M297.7,166.2c-1.3,0-1.9-0.3-1.9-1l0-20.3c0-0.4,0.1-0.8,0.3-1c0.2-0.2,0.5-0.3,1-0.3l6.3,0c5.3,0,8,2,8,6
						c0,1.2-0.3,2.3-1,3.1c-0.7,0.9-1.6,1.5-2.8,2v0.1c0.4,0.1,0.8,0.5,1.3,1.1c0.4,0.6,0.8,1.2,1,1.9l2.8,7.1
						c0.1,0.3,0.2,0.5,0.2,0.6c0,0.4-0.6,0.7-1.9,0.7h-1.3c-1.1,0-1.7-0.2-1.9-0.7l-2.6-6.3c-0.3-0.7-0.7-1.2-1.1-1.5
						c-0.4-0.3-1.1-0.4-2.1-0.4h-1.3l0,7.9c0,0.7-0.6,1-1.9,1H297.7z M300.7,153h3c0.7,0,1.3-0.3,1.8-0.8c0.5-0.5,0.7-1.2,0.7-1.9
						c0-0.7-0.2-1.3-0.7-1.8c-0.5-0.4-1.1-0.7-2-0.7h-2.8L300.7,153z"/>
					<path class="st0" d="M336.9,163.4c-1.8,2-4.3,3-7.6,3c-3.3,0-5.9-1-7.7-3c-1.8-2-2.7-4.8-2.7-8.5c0-3.7,0.9-6.6,2.7-8.6
						c1.8-2,4.3-3,7.7-3c3.3,0,5.9,1,7.6,3c1.8,2,2.7,4.8,2.7,8.6C339.6,158.6,338.7,161.4,336.9,163.4z M325.3,160.3
						c0.9,1.2,2.2,1.9,3.9,1.9c1.7,0,3-0.6,3.9-1.9c0.9-1.2,1.3-3,1.3-5.4c0-2.4-0.4-4.2-1.3-5.4c-0.9-1.2-2.2-1.9-3.9-1.9
						c-1.7,0-3,0.6-3.9,1.9c-0.9,1.2-1.3,3.1-1.3,5.4C324,157.2,324.4,159,325.3,160.3z"/>
					<path class="st0" d="M349.4,166.2c-1.3,0-1.9-0.3-1.9-1l0-20.6c0-0.7,0.6-1,1.9-1h1.4c0.5,0,1,0.1,1.3,0.2s0.6,0.3,0.8,0.7
						l7.6,11.7l0.9,1.3l0-12.9c0-0.7,0.6-1,1.9-1h0.9c1.3,0,1.9,0.3,1.9,1l0,20.6c0,0.7-0.6,1-1.9,1h-1.2c-0.5,0-0.9-0.1-1.3-0.2
						c-0.3-0.1-0.6-0.3-0.8-0.7l-8-12.2l-0.7-1l0,13c0,0.7-0.6,1-1.9,1H349.4z"/>
					<path class="st0" d="M381,166.2c-1.3,0-1.9-0.3-1.9-1l0-17.4l-5.1,0c-0.7,0-1-0.5-1-1.6v-1c0-1.1,0.3-1.6,1-1.6l15.2,0
						c0.3,0,0.6,0.1,0.7,0.4c0.1,0.2,0.2,0.7,0.2,1.2v1c0,0.6-0.1,1-0.2,1.2c-0.1,0.3-0.4,0.4-0.7,0.4h-5.1l0,17.4
						c0,0.7-0.6,1-1.9,1H381z"/>
					<path class="st0" d="M398.2,166.1c-0.5,0-0.8-0.1-1-0.3c-0.2-0.2-0.3-0.5-0.3-1l0-20c0-0.4,0.1-0.8,0.3-1
						c0.2-0.2,0.5-0.3,1-0.3l11.8,0c0.7,0,1,0.5,1,1.6l0,1c0,1.1-0.3,1.6-1,1.6l-8.1,0v4.7l7.3,0c0.3,0,0.6,0.1,0.7,0.4
						c0.1,0.2,0.2,0.7,0.2,1.2v1c0,0.6-0.1,1-0.2,1.2c-0.1,0.3-0.4,0.4-0.7,0.4h-7.3v5.2l8.2,0c0.7,0,1,0.5,1,1.6v1
						c0,1.1-0.3,1.6-1,1.6L398.2,166.1z"/>
					<path class="st0" d="M420.7,166.2c-1.3,0-1.9-0.3-1.9-1l0-20.3c0-0.4,0.1-0.8,0.3-1c0.2-0.2,0.5-0.3,1-0.3l6.3,0c5.3,0,8,2,8,6
						c0,1.2-0.3,2.3-1,3.1c-0.7,0.9-1.6,1.5-2.8,2v0.1c0.4,0.1,0.8,0.5,1.3,1.1c0.4,0.6,0.8,1.2,1,1.9l2.8,7.1
						c0.1,0.3,0.2,0.5,0.2,0.6c0,0.4-0.6,0.7-1.9,0.7h-1.3c-1.1,0-1.7-0.2-1.9-0.7l-2.6-6.3c-0.3-0.7-0.7-1.2-1.1-1.5
						c-0.4-0.3-1.1-0.4-2.1-0.4h-1.3l0,7.9c0,0.7-0.6,1-1.9,1H420.7z M423.7,153h3c0.7,0,1.3-0.3,1.8-0.8c0.5-0.5,0.7-1.2,0.7-1.9
						c0-0.7-0.2-1.3-0.7-1.8c-0.5-0.4-1.1-0.7-2-0.7h-2.8L423.7,153z"/>
					<path class="st0" d="M442.5,166.2c-1.3,0-2-0.2-2-0.7c0-0.1,0-0.3,0.1-0.6l7.1-20.7c0.1-0.4,0.8-0.7,1.8-0.7h1.7
						c1.1,0,1.7,0.2,1.8,0.7l7.1,20.7c0,0.3,0.1,0.5,0.1,0.6c0,0.5-0.5,0.7-1.6,0.7h-1.4c-1.1,0-1.7-0.2-1.8-0.7l-1.3-3.9l-7.6,0
						l-1.3,3.9c-0.2,0.5-0.7,0.7-1.5,0.7H442.5z M447.9,157.3h4.8l-1.8-5.7c-0.1-0.5-0.3-1.2-0.5-2.1h-0.1c-0.1,0.9-0.3,1.6-0.5,2.1
						L447.9,157.3z"/>
					<path class="st0" d="M472.8,166.4c-2.3,0-4.1-0.3-5.5-0.9c-1.4-0.6-2.1-1.3-2.1-1.9c0-0.5,0.2-1.1,0.7-1.8
						c0.5-0.7,0.9-1.1,1.2-1.1c0.1,0,0.4,0.1,0.9,0.4c0.4,0.2,1,0.5,1.7,0.7c0.7,0.2,1.4,0.4,2.2,0.4c0.5,0,1-0.1,1.4-0.2
						c0.4-0.1,0.8-0.3,1.1-0.7c0.3-0.4,0.5-0.8,0.5-1.4c0-0.3-0.1-0.6-0.2-0.9c-0.1-0.3-0.3-0.5-0.5-0.7c-0.2-0.2-0.5-0.4-0.9-0.6
						c-0.4-0.2-0.7-0.4-1-0.5c-0.3-0.1-0.7-0.3-1.2-0.5c-0.5-0.2-0.9-0.4-1.2-0.5c-0.5-0.2-0.9-0.5-1.3-0.7
						c-0.4-0.2-0.8-0.5-1.2-0.9c-0.4-0.4-0.7-0.8-1-1.2s-0.5-1-0.6-1.6c-0.2-0.6-0.2-1.3-0.2-2.1c0-1.1,0.2-2.1,0.6-3
						c0.4-0.9,1-1.5,1.7-2c0.7-0.5,1.5-0.9,2.4-1.1c0.9-0.3,1.8-0.4,2.8-0.4c1.6,0,3,0.2,4.1,0.7c1.1,0.5,1.7,1,1.7,1.5
						c0,0.5-0.2,1.1-0.6,1.8c-0.4,0.7-0.8,1-1.1,1c-0.1,0-0.3-0.1-0.6-0.2c-0.3-0.1-0.7-0.3-1.3-0.4c-0.5-0.1-1.1-0.2-1.8-0.2
						c-1.1,0-1.9,0.2-2.3,0.5c-0.4,0.4-0.7,0.8-0.7,1.3c0,0.3,0.1,0.7,0.2,1s0.3,0.5,0.4,0.7c0.2,0.2,0.4,0.4,0.8,0.6
						c0.4,0.2,0.7,0.4,0.9,0.5c0.2,0.1,0.6,0.3,1.1,0.5c0.4,0.1,0.7,0.3,0.9,0.4c0.2,0.1,0.5,0.2,0.9,0.4c0.4,0.2,0.7,0.3,0.9,0.5
						c0.2,0.1,0.5,0.3,0.8,0.6c0.3,0.2,0.6,0.5,0.8,0.7c0.2,0.2,0.4,0.5,0.6,0.8c0.2,0.3,0.4,0.6,0.5,1s0.2,0.7,0.3,1.1
						c0.1,0.4,0.1,0.9,0.1,1.4c0,1.3-0.2,2.4-0.6,3.3c-0.4,0.9-1,1.7-1.7,2.2c-0.7,0.5-1.5,0.9-2.3,1.2
						C474.6,166.2,473.8,166.4,472.8,166.4z"/>
				</g>
				<g>
					<path class="st1" d="M68,163.9c-2.9-8.8-6.7-14.7-6.7-14.7s0-0.5,0-1c0-0.5,0-0.5,0.5-0.5c0.5,0,6.8-3.7,6.3-11.5
						c0-5.2-1.6-8.9-3.7-10.4c-2.1-1.6-4.7-2.6-8.4-2.1c-9.4,0.5-11.5,4.2-11.5,9.9c-1,12,6.8,13.6,7.3,14.1c0.5,0,0.5,0.5,1,0.5
						c0,0.5,0,0.5,0,1c0,0-9.9,11-9.9,35.5c-0.4,9.2-0.1,17.3,0.4,23.8c7.4,3.8,15.6,7,23.7,8.9c-0.9-8-1.6-17.9-1.6-29.6
						C65.5,178.4,66.5,170.5,68,163.9z"/>
					<g>
						<path class="st2" d="M108.3,183.1c-0.5-23.5-13.6-43.4-13.6-43.9c0,0,0-0.5,0-1c0-0.5,0-0.5,0.5-0.5c0.5,0,8.9-5.2,8.9-15.7v0
							c0,0,0,0,0,0c-0.5-7.3-2.1-12-5.2-14.6c-2.6-2.6-6.3-3.1-11.5-3.1c-13.1,1-15.7,5.7-16.2,14.1c-1,17.2,9.9,19.3,9.9,19.3
							c0.5,0,0.5,0.5,1,0.5c0,0.5,0,0.5,0,1c0,0-13.1,15.1-13.1,48.1c-0.7,12.4-0.2,22.6,0.6,30.7c4.9,1,9.9,1.7,14.6,1.7
							c7.7,0,14.9-0.6,21.8-1.9C107.4,206.7,108.6,193.7,108.3,183.1z"/>
					</g>
					<g>
						<path class="st3" d="M121.9,160.6c0,0,0-0.5,0-1c0-0.5,0-0.5,0.5-0.5c0,0,4.4-2.4,5.1-7.2c0.1-0.7,0.1-1.4,0.1-2.2
							c0-4.2-1-7.3-3.1-8.9c-1.6-1.6-3.7-2.1-6.8-1.6c-7.8,0.5-9.4,3.1-9.9,8.4c-0.5,10.4,5.7,11.5,6.3,11.5s0.5,0.5,1,0.5
							c0,0.5,0,0.5,0,1c0,0-3.7,4.1-6.1,13c0.5,3.1,0.8,6.2,0.9,9.5c0.2,10.6-0.9,23.4-2.2,34.3c7.3-1.5,14.2-3.8,21-7.1
							c0.8-7.7,1.5-16.3,1.5-22.5C129.7,173.2,121.9,160.6,121.9,160.6z"/>
					</g>
					<g>
						<path class="st4" d="M140.2,175.8c0,0,0-0.5,0-1c0-0.5,0-0.5,0.5-0.5c0,0,3.7-2.1,3.7-6.8c0-3.1-1-5.2-2.1-6.3
							c-1-1-2.6-1.6-4.7-1c-5.7,0.5-6.8,2.1-6.8,5.7c-0.5,7.3,4.2,8.4,4.2,8.4c0.5,0,0.5,0.5,1,0.5c0,0.5,0,0.5,0,1
							c0,0-2.6,3.2-4.3,9.9c0,0.5,0.1,1,0.1,1.6c0.2,6.3-0.4,14.5-1.1,22.1c5.2-2.7,10.4-6,15.7-9.9c0.1-1.4,0.1-2.7,0.1-3.9
							C146.4,185.2,140.2,175.8,140.2,175.8z"/>
					</g>
				</g>
			</g>
		</g>
	</g>
</g>
</svg>
