<svg version="1.1" xmlns="http://www.w3.org/2000/svg" xmlns:xlink="http://www.w3.org/1999/xlink" x="0px" y="0px"
	 viewBox="0 0 500 245" style="enable-background:new 0 0 500 245;" xml:space="preserve">
<path style="fill:#FFFFF;" d="M499.1,219.9l0-194.9c0-13.5-10.9-24.4-24.4-24.4l-196,0c-13.5,0-24.4,10.9-24.4,24.3l0,195
	c0.1,13.4,10.9,24.2,24.4,24.2l106.5,0l0-94.8l-31.9,0v-37.1l31.9,0l0-27.3c0-31.6,19.3-48.9,47.6-48.9c9.5,0,19,0.4,28.5,1.5
	l0,33.1l-19.5,0c-15.4,0-18.4,7.4-18.4,18v23.6l36.7,0l-4.9,37.1h-31.9l0,94.8l51.3,0C488.2,244.3,499.1,233.4,499.1,219.9z"/>
</svg>
