<?xml version="1.0" encoding="utf-8"?>
<!-- Generator: Adobe Illustrator 22.0.1, SVG Export Plug-In . SVG Version: 6.00 Build 0)  -->
<svg version="1.1" id="Layer_1" xmlns="http://www.w3.org/2000/svg" xmlns:xlink="http://www.w3.org/1999/xlink" x="0px" y="0px"
	 viewBox="0 0 246.7 245" style="enable-background:new 0 0 246.7 245;" xml:space="preserve">
<path d="M245.8,219.9V25c0-13.5-10.9-24.4-24.4-24.4h-196C11.9,0.6,1,11.5,1,24.9v195c0.1,13.4,10.9,24.2,24.4,24.2h106.5v-94.8H100
	v-37.1h31.9V84.9c0-31.6,19.3-48.9,47.6-48.9c9.5,0,19,0.4,28.5,1.5v33.1h-19.5c-15.4,0-18.4,7.4-18.4,18v23.6h36.7l-4.9,37.1H170
	v94.8h51.3C234.9,244.3,245.8,233.4,245.8,219.9z"/>
</svg>
