<svg xmlns="http://www.w3.org/2000/svg" viewBox="0 0 880 228">
  <g fill="none" stroke="#f7f7f7" stroke-miterlimit="10" stroke-width="2">
    <path d="M4.6 220.7V48.6h93.1v25.9l-64.5-.7-1 48h57.6v24.1H32.2l1.2 74.9H4.6v-.1zM160 221l1-79.3-1-93.1h29.1l-1 76.4 1 96.1H160v-.1zM264.2 220.7V48.6h93.1v25.1l-64.3-.8-1.2 48.3h59.4v24.4h-59.4l1.2 50.5 64.3-.5v25.1h-93.1zM482.9 45.4c39.6 0 59.4 18.5 59.4 55.4 0 27.3-12 44.3-36 51v1.2l40.1 67.7h-33.7l-33.5-65-27.1-1v66H423l1.2-80.8-.7-91.1c18.5-2.3 38.2-3.4 59.4-3.4zm-31 84.7c13 1.5 24.3 2.2 34.1 2.2s16.6-2.4 20.4-7.3c3.9-4.8 5.8-13.5 5.8-26.1s-2-21.1-5.9-25.5c-3.4-3.6-10.6-5.4-21.3-5.4-10.8 0-21.7.7-32.9 2.2l-.2 59.9zM589.8 220.7l49-172.2h35l48.8 172.2h-29.8L682 178.3h-51.2l-11.1 42.4h-29.9zm46.3-66.5h40.4L657 73.9h-1.5l-19.4 80.3zM820.9 198.1c14.4 0 21.7-7.9 21.7-23.6 0-6.7-2.7-12.4-8.1-17a94.5 94.5 0 0 0-22.5-13.4c-9.6-4.3-15.1-6.9-16.5-7.6l-7.5-4.1a42 42 0 0 1-13.4-10.7 22.1 22.1 0 0 1-5.3-7.8c-2.8-7.1-4.2-14-4.2-20.7a45 45 0 0 1 14.4-34.4c9.6-8.9 23.3-13.4 41-13.4 13 0 25.8 1.8 38.4 5.4l6.7 1.7-4.7 24.1c-17.9-3.4-31.6-5.2-41-5.2s-16 1.5-19.6 4.6c-3.6 3-5.4 7.9-5.4 14.5 0 6.7 2.3 11.8 6.8 15.5s9.8 7 15.8 9.9l14.5 6.8 8.4 3.8c1.9.9 4.5 2.3 7.8 4.2a46.7 46.7 0 0 1 14 11.4c2.5 2.5 4.3 5.1 5.4 7.8a46.9 46.9 0 0 1 4.7 20.7c0 15.9-5.2 28.8-15.5 38.7s-23.9 14.8-40.6 14.8c-8.5 0-17.4-1.2-26.7-3.7s-16.4-4.9-21.3-7.4l-7.6-3.9 3.7-10.7 2.5-6.9 2.2-6a128.1 128.1 0 0 0 51.9 12.6z"/>
  </g>
  <g fill="#fff">
    <path d="M4.9 36V8.2h3.5V33h8.9v3H4.9zM33.1 36l-1.5-7h-7.7l-1.5 7h-3.5l6.7-27.8h4.6L36.7 36h-3.6zm-5.4-25.2L24.5 26H31l-3.3-15.2zM66.3 21.6c0 3-.2 5.4-.5 7.3-.3 1.9-.8 3.4-1.5 4.5s-1.5 1.8-2.5 2.2-2.2.6-3.5.6h-2.4l-2.2-.1-2.3-.2V8.2l2.1-.2 2.1-.1h2.2c1.4 0 2.6.2 3.7.5s1.9 1 2.7 2c.7 1 1.3 2.4 1.6 4.2.3 1.7.5 4.1.5 7zm-3.6.3c0-2.4-.1-4.3-.3-5.8s-.5-2.6-.9-3.4c-.4-.8-.8-1.3-1.3-1.6s-1-.4-1.6-.4h-1.2l-1.3.1-1.4.1v22.2l1.3.1 1.2.1h1.3c.6 0 1.2-.2 1.7-.6.5-.4 1-1 1.3-1.9a37.4 37.4 0 0 0 1.2-8.9zM83.4 36l-1.5-7h-7.7l-1.5 7h-3.5l6.7-27.8h4.6L86.9 36h-3.5zM78 10.8L74.8 26h6.5L78 10.8zM100.6 36l-6.1-24.9V36h-3.2V8.2h5.6l6.1 24.9V8.2h3.2V36h-5.6zM115 33h9.8v3h-13.3v-3.5l10.2-21.4h-9.3V8.2h12.8v3.5L115 33zM142.3 36l-1.5-7h-7.7l-1.5 7H128l6.7-27.8h4.6l6.6 27.8h-3.6zm-5.4-25.2L133.7 26h6.5l-3.3-15.2zM175.5 21.6c0 3-.2 5.4-.5 7.3-.3 1.9-.8 3.4-1.5 4.5s-1.5 1.8-2.5 2.2-2.2.6-3.5.6h-2.4l-2.2-.1-2.3-.2V8.2l2.2-.2 2.1-.1h2.2c1.4 0 2.6.2 3.7.5s1.9 1 2.7 2c.7 1 1.3 2.4 1.6 4.2.2 1.7.4 4.1.4 7zm-3.6.3c0-2.4-.1-4.3-.3-5.8s-.5-2.6-.9-3.4c-.4-.8-.8-1.3-1.3-1.6s-1-.4-1.6-.4h-1.2l-1.3.1-1.4.1v22.2l1.3.1 1.2.1h1.3c.6 0 1.2-.2 1.7-.6.5-.4 1-1 1.3-1.9a37.4 37.4 0 0 0 1.2-8.9zM181.4 36V8.2h13v2.9h-9.6v9.1h8.6V23h-8.6v10h9.6v3h-13zM210.6 36V8.2h3.5V33h8.9v3h-12.4zM238.8 36l-1.5-7h-7.7l-1.5 7h-3.5l6.7-27.8h4.6l6.6 27.8h-3.7zm-5.4-25.2L230.2 26h6.5l-3.3-15.2zM258.5 28.1c0 1.6-.2 3-.6 4.1a5.7 5.7 0 0 1-1.6 2.5c-.7.6-1.5 1-2.5 1.3-1 .2-2 .4-3.2.4l-2.3-.2-2.3-.4v-2.9l2.1.4 2.9.2c1.4 0 2.4-.4 3-1.2s.9-2 .9-3.7l-.2-2.4c-.1-.6-.3-1.2-.6-1.6s-.6-.7-1-.9l-1.4-.5a9.2 9.2 0 0 1-2.8-.9c-.8-.4-1.4-.8-1.9-1.4s-.8-1.3-1.1-2.1a13.2 13.2 0 0 1 .3-6.6 6 6 0 0 1 1.6-2.4c.7-.6 1.5-1 2.5-1.3s2-.4 3.1-.4l2.2.2 2 .4v2.9l-2.3-.4-2.3-.2-1.4.2c-.5.2-.9.4-1.2.8l-.9 1.3a11.5 11.5 0 0 0-.2 4c.1.5.2 1 .5 1.3.2.3.5.6.9.8l1.5.5c1 .2 1.8.5 2.6.8a5.6 5.6 0 0 1 3.3 3.8c.2.9.4 2.1.4 3.6z"/>
  </g>
</svg>