<?xml version="1.0" encoding="utf-8"?>
<!-- Generator: Adobe Illustrator 22.0.1, SVG Export Plug-In . SVG Version: 6.00 Build 0)  -->
<svg version="1.1" id="Layer_1" xmlns="http://www.w3.org/2000/svg" xmlns:xlink="http://www.w3.org/1999/xlink" x="0px" y="0px"
	 viewBox="0 0 244.5 245" style="enable-background:new 0 0 244.5 245;" xml:space="preserve">
<style type="text/css">
	.st0{fill:#FFFFFF;}
</style>
<g>
	<path class="st0" d="M122.2,22.9c32.5,0,36.5,0,49.4,0.6c12,0.6,18.4,2.5,22.7,4.3c5.8,2.1,9.8,4.9,14.1,9.2
		c4.3,4.3,7.1,8.3,9.2,14.1c1.5,4.3,3.7,10.7,4.3,22.7c0.6,12.9,0.6,16.9,0.6,49.4s0,36.5-0.6,49.4c-0.6,12-2.5,18.4-4.3,22.7
		c-2.1,5.8-4.9,9.8-9.2,14.1c-4.3,4.3-8.3,7.1-14.1,9.2c-4.3,1.5-10.7,3.7-22.7,4.3c-12.9,0.6-16.9,0.6-49.4,0.6s-36.5,0-49.4-0.6
		c-12-0.6-18.4-2.5-22.7-4.3c-5.8-2.1-9.8-4.9-14.1-9.2c-4.3-4.3-7.1-8.3-9.2-14.1c-1.5-4.3-3.7-10.7-4.3-22.7
		c-0.6-12.9-0.6-16.9-0.6-49.4s0-36.5,0.6-49.4c0.6-12,2.5-18.4,4.3-22.7c2.1-5.8,4.9-9.8,9.2-14.1c4.3-4.3,8.3-7.1,14.1-9.2
		c4.3-1.5,10.7-3.7,22.7-4.3C85.7,22.9,89.7,22.9,122.2,22.9 M122.2,0.8c-33.1,0-37.4,0-50.3,0.6S50.1,4.2,42.1,6.9
		c-8,3.1-14.7,7.4-21.5,14.1S9.6,34.6,6.5,42.5C3.4,50.2,1.3,59.1,1,72.3c-0.6,12.9-0.6,17.2-0.6,50.3s0,37.4,0.6,50.3
		c0.6,12.9,2.8,21.8,5.5,29.8c3.1,8,7.4,14.7,14.1,21.5c6.8,6.8,13.5,11,21.5,14.1c7.7,3.1,16.6,5.2,29.8,5.5
		c12.9,0.6,17.2,0.6,50.3,0.6s37.4,0,50.3-0.6c12.9-0.6,21.8-2.8,29.8-5.5c8-3.1,14.7-7.4,21.5-14.1c6.8-6.8,11-13.5,14.1-21.5
		c3.1-7.7,5.2-16.6,5.5-29.8c0.6-12.9,0.6-17.2,0.6-50.3s0-37.4-0.6-50.3c-0.6-12.9-2.8-21.8-5.5-29.8c-3.1-8-7.4-14.7-14.1-21.5
		c-6.8-6.8-13.5-11-21.5-14.1c-7.7-3.1-16.6-5.2-29.8-5.5C159.6,0.8,155.3,0.8,122.2,0.8L122.2,0.8z"/>
	<path class="st0" d="M122.2,60.3c-34.7,0-62.6,28.2-62.6,62.6s28.2,62.6,62.6,62.6s62.6-28.2,62.6-62.6S156.9,60.3,122.2,60.3z
		 M122.2,163.8c-22.4,0-40.8-18.1-40.8-40.8s18.1-40.8,40.8-40.8S163,100.2,163,123S144.6,163.8,122.2,163.8z"/>
	<circle class="st0" cx="187.3" cy="57.9" r="14.7"/>
</g>
</svg>
