<svg version="1.1" xmlns="http://www.w3.org/2000/svg" xmlns:xlink="http://www.w3.org/1999/xlink" x="0px" y="0px"
	 viewBox="0 0 500 245" style="enable-background:new 0 0 500 245;" xml:space="preserve">
	<path style="fill:#FFFFFF;" d="M474.7,0.7l-449.2,0C12.1,0.7,1.1,11.6,1.1,25.1l0,194.9c0,13.5,10.9,24.4,24.4,24.4l449.2,0
		c13.5,0,24.4-10.9,24.4-24.4l0-194.9C499.1,11.6,488.2,0.7,474.7,0.7z M390.8,90.9c3.7-1.7,9.1-2.6,13.3-2.6
		c4.9,0,9.1,0.8,12.7,2.3c3.6,1.5,6.3,3.7,8.2,6.4c1.9,2.8,3,5.4,3.4,8.1c0.4,2.6,0.6,8.2,0.6,16.8v39.9c0,8.5-0.6,14.8-1.7,19
		c-1.1,4.1-3.8,7.8-8.1,10.8c-4.2,3.1-9.3,4.6-15.1,4.6c-4.2,0-9.6-0.9-13.2-2.7c-3.6-1.9-7-4.5-9.9-8.2l-2.3,9l-33.2,0l0-142.1
		l35.5,0v46.2C383.9,95.1,387.2,92.6,390.8,90.9z M332.9,102.4l0,49.9c0,12.7-0.7,21.3-1.9,25.5c-1.2,4.3-3.3,7.6-6.3,10.1
		c-3,2.5-6.7,4.1-11,5.1c-4.4,1-11,1.4-19.8,1.4l-44.7,0l0-142.1l27.5,0c17.8,0,28.2,0.8,34.4,2.5c6.3,1.6,11.1,4.3,14.3,8.1
		c3.3,3.7,5.4,7.9,6.2,12.5C332.4,79.9,332.9,88.9,332.9,102.4z M236.6,52.3l0,142.1l-32.2,0l-0.1-95.9l-12.9,95.9l-23,0l-13.6-93.8
		l-0.1,93.8l-32.3,0l0-142.1l47.8,0c1.4,8.6,2.9,18.7,4.5,30.3l5.2,36.1l8.5-66.4L236.6,52.3z M109.7,52.3l0,142.1l-36.9,0l0-142.1
		L109.7,52.3z"/>
	<path style="fill:#FFFFFF;" d="M294.2,77.9c-1.5-0.9-4.2-1.3-8.2-1.3l0,93.2c5.3,0,8.5-1,9.8-3.2c1.2-2.1,1.9-7.9,1.9-17.4v-55
		c0-6.4-0.2-10.5-0.6-12.3C296.6,80,295.6,78.7,294.2,77.9z"/>
	<path style="fill:#FFFFFF;" d="M381,161c0,6.3,0.4,10.3,1.1,12c0.7,1.8,2.2,2.6,4.4,2.6c2.3,0,5.2-0.9,5.9-2.7c0.7-1.8,1-6.2,1-13
		v-36.4c0-6-0.4-9.9-1.2-11.8c-0.8-1.8-3.8-2.8-6.1-2.8c-2.1,0-3.6,0.8-4.3,2.4c-0.6,1.7-1,5.6-1,12.1V161z"/>
</svg>
