<svg xmlns="http://www.w3.org/2000/svg" viewBox="0 0 500 245">
  <path fill="#fff" d="M474.7.7H25.5A24.4 24.4 0 0 0 1.1 25.1V220a24.4 24.4 0 0 0 24.4 24.4h449.2a24.4 24.4 0 0 0 24.4-24.4V25.1A24.4 24.4 0 0 0 474.7.7zm-83.9 90.2a35 35 0 0 1 26-.3 19.3 19.3 0 0 1 11.6 14.5c.4 2.6.6 8.2.6 16.8v39.9a80 80 0 0 1-1.7 19 19.4 19.4 0 0 1-8.1 10.8 24.8 24.8 0 0 1-15.1 4.6c-4.2 0-9.6-.9-13.2-2.7-3.6-1.9-7-4.5-9.9-8.2l-2.3 9h-33.2V52.2H381v46.2c2.9-3.3 6.2-5.8 9.8-7.5zm-57.9 11.5v49.9c0 12.7-.7 21.3-1.9 25.5a19.5 19.5 0 0 1-6.3 10.1 26 26 0 0 1-11 5.1 98 98 0 0 1-19.8 1.4h-44.7V52.3h27.5c17.8 0 28.2.8 34.4 2.5a26.7 26.7 0 0 1 14.3 8.1 25 25 0 0 1 6.2 12.5c.8 4.5 1.3 13.5 1.3 27zm-96.3-50.1v142.1h-32.2l-.1-95.9-12.9 95.9h-23l-13.6-93.8-.1 93.8h-32.3V52.3h47.8a1281 1281 0 0 1 4.5 30.3l5.2 36.1 8.5-66.4h48.2zm-126.9 0v142.1H72.8V52.3h36.9z"/>
  <path fill="#fff" d="M294.2 77.9c-1.5-.9-4.2-1.3-8.2-1.3v93.2c5.3 0 8.5-1 9.8-3.2 1.2-2.1 1.9-7.9 1.9-17.4v-55c0-6.4-.2-10.5-.6-12.3a6.2 6.2 0 0 0-2.9-4zM381 161c0 6.3.4 10.3 1.1 12 .7 1.8 2.2 2.6 4.4 2.6 2.3 0 5.2-.9 5.9-2.7.7-1.8 1-6.2 1-13v-36.4c0-6-.4-9.9-1.2-11.8-.8-1.8-3.8-2.8-6.1-2.8-2.1 0-3.6.8-4.3 2.4-.6 1.7-1 5.6-1 12.1V161z"/>
</svg>