<?xml version="1.0" encoding="utf-8"?>
<!-- Generator: Adobe Illustrator 22.0.1, SVG Export Plug-In . SVG Version: 6.00 Build 0)  -->
<svg version="1.1" id="Layer_1" xmlns="http://www.w3.org/2000/svg" xmlns:xlink="http://www.w3.org/1999/xlink" x="0px" y="0px"
	 viewBox="0 0 245.2 245" style="enable-background:new 0 0 245.2 245;" xml:space="preserve">
<g>
	<path d="M226.4,0.6H18.5c-9.8,0-18.1,8-18.1,17.5v208.8c0,9.8,8,17.5,18.1,17.5h208.2c9.8,0,18.1-8,18.1-17.5V18.1
		C244.5,8.3,236.5,0.6,226.4,0.6z M72.9,208.5H36.6V92.1h36.2V208.5z M54.8,76.1c-11.7,0-20.9-9.5-20.9-20.9
		c0-11.7,9.5-20.9,20.9-20.9c11.7,0,20.9,9.5,20.9,20.9S66.4,76.1,54.8,76.1z M208.3,208.5h-35.9V152c0-13.5-0.3-31-18.7-31
		c-18.7,0-21.8,14.7-21.8,29.8v57.7H95.6V92.1h34.7v16h0.6c4.9-9.2,16.6-18.7,34.4-18.7c36.5,0,43.3,24.3,43.3,55.6v63.6H208.3z"/>
</g>
</svg>
