<svg xmlns="http://www.w3.org/2000/svg" viewBox="0 0 245.2 245">
  <path d="M243.9 114.6A121.8 121.8 0 0 0 130.7 1.1h-16.2A122.2 122.2 0 0 0 1.1 114.6l.3 16.2a121.1 121.1 0 0 0 113.1 113.1h16.2a121.3 121.3 0 0 0 113.2-113.2v-16.1zM77.1 27.4a132 132 0 0 0-19.2 38.3H33.7a105.8 105.8 0 0 1 43.4-38.3zM25.3 81.9h28.4a187.7 187.7 0 0 0-3.9 32.3H17.5a109 109 0 0 1 7.8-32.3zm-7.8 48.8h32.3c.3 11.4 1.8 22.2 3.9 32.3H25.3a105.4 105.4 0 0 1-7.8-32.3zm16.2 48.5H58c4.8 15 11.4 27.8 19.2 38.3a102 102 0 0 1-43.5-38.3zm80.8 47.9c-16.8-4.5-31.1-22.5-39.8-47.6h39.8v47.6zm0-64H70.2c-2.4-10.2-3.6-21-4.2-32.3h48.5v32.3zm0-48.5H66c.6-11.4 1.8-22.5 4.2-32.3h44.3v32.3zm0-48.8H74.7c8.7-25.2 23.1-43.1 39.8-47.6v47.6zm97 0h-24.3c-4.8-15-11.4-27.8-19.2-38.3a103.5 103.5 0 0 1 43.5 38.3zm-80.8-47.6c16.8 4.5 31.1 22.5 39.8 47.6h-39.8V18.2zm0 63.7H175c2.4 10.2 3.6 21 4.2 32.3h-48.5V81.9zm0 48.8h48.5c-.6 11.4-1.8 22.5-4.2 32.3h-44.3v-32.3zm0 96.4v-47.9h39.8c-8.7 25.5-23 43.5-39.8 47.9zm37.4-9.2a132 132 0 0 0 19.2-38.3h24.3a108.2 108.2 0 0 1-43.5 38.3zm51.8-54.8h-28.4c2.1-10.2 3.6-21.3 3.9-32.3h32.3c-.9 11.3-3.6 22.1-7.8 32.3zm-24.5-48.5c-.3-11.4-1.8-22.2-3.9-32.3h28.4c4.2 10.2 6.9 21 7.8 32.3h-32.3z"/>
</svg>