<svg xmlns="http://www.w3.org/2000/svg" viewBox="0 0 286.6 273.5">
  <path fill="#FFF" d="M58.2 206.5l-8.6 17.4h6.7l1.3-2.8h10l1.3 2.8h7.2L67 206.5h-8.8zm1.5 10.3l2.8-6 2.9 6h-5.7zM94.9 216.4l-10-9.9h-7.4v17.4H84v-10.5l10.9 10.5h6.7v-17.4h-6.7zM103.7 211.3h7.5v12.6h6.6v-12.6h7.5v-4.8h-21.6zM127.5 206.5h6.6v17.4h-6.6zM127.9 205.5h6l2.3-3.6h-6.4zM136.3 211.3h7.5v12.6h6.7v-12.6h7.5v-4.8h-21.7zM166.7 217.2H179V213h-12.3v-2.2h12.6v-4.3h-19.1v17.4h19.3v-4.4h-12.8zM195.5 212.8l-3.1-.1c-3.2-.1-3.8-.7-3.8-1.3 0-.7.4-1.3 3.8-1.3h.2c3.8 0 4.2 1.2 4.2 1.8h7.2v-.2c0-2.8-2-5.5-10.5-5.5h-2.1c-8.1 0-10 2.5-10 5.3v.2c0 2.7 1.8 5 8.5 5.2l3.2.1c3.6.1 4.1.7 4.1 1.5 0 .9-.6 1.6-4.3 1.6h-.2c-3.8 0-4.3-1.5-4.4-2.5H181v.2c0 2.3 1 6.2 10.6 6.2h2.1c9.1 0 10.7-2.9 10.7-5.9v-.3c.2-3.3-2.4-4.8-8.9-5zM206.6 206.5h6.6v17.4h-6.6zM229.4 212.8l-3.1-.1c-3.2-.1-3.8-.7-3.8-1.3 0-.7.4-1.3 3.8-1.3h.2c3.8 0 4.2 1.2 4.2 1.8h7.2v-.2c0-2.8-2-5.5-10.5-5.5h-2.1c-8.1 0-10 2.5-10 5.3v.2c0 2.7 1.8 5 8.5 5.2l3.2.1c3.6.1 4.1.7 4.1 1.5 0 .9-.6 1.6-4.3 1.6h-.2c-3.8 0-4.3-1.5-4.4-2.5h-7.3v.2c0 2.3 1 6.2 10.6 6.2h2.1c9.1 0 10.7-2.9 10.7-5.9v-.3c.3-3.3-2.3-4.8-8.9-5zM77.9 100.1a66.7 66.7 0 0 0 21.5 39.3v27.5l.2.1c7 4.1 14.6 7.1 22.4 9.2l.6.2v-23.3a65.1 65.1 0 0 0 21.5 3.6h1c7.3-.1 14.5-1.2 21.5-3.6v23.3l.6-.2a86 86 0 0 0 22.4-9.2l.2-.1v-27.5l2.6-2.5a67.4 67.4 0 0 0 18.9-36.7v49.2l.8-.9a89.6 89.6 0 0 0 22.4-59.3v-.3a90 90 0 0 0-22.4-59.3L211 29v49.3a66.5 66.5 0 0 0-18.9-36.7l-2.6-2.5V11.6l-.2-.1c-7-4.1-14.6-7.2-22.4-9.2l-.6-.2v23.3a65.1 65.1 0 0 0-21.5-3.6h-.8c-7.3.1-14.5 1.2-21.5 3.6V2l-.5.2a86 86 0 0 0-22.4 9.2l-.2.1V39l-2.6 2.5a66.8 66.8 0 0 0-18.9 36.7V28.9l-.9.9a90 90 0 0 0 .1 118.9l.8.9v-49.5zm89.4-73.5a66.4 66.4 0 0 1 21.5 12.8v40.8a45.5 45.5 0 0 0-21.4-30V26.6zm0 101.5a44.1 44.1 0 0 0 21.4-30v40.8a66.4 66.4 0 0 1-21.5 12.8v-23.6zm-44.7-77.4a43.4 43.4 0 0 1 43.7 0v24.9a25.6 25.6 0 0 0-21.5-12.2h-1a26 26 0 0 0-21.5 12.2l.3-24.9zm0 51.9a25.6 25.6 0 0 0 21.5 12.2h1a26 26 0 0 0 21.5-12.2v25a44 44 0 0 1-43.7 0l-.3-25zm-22.4-63.2c6.4-5.6 13.6-10 21.5-12.8v23.6a44.3 44.3 0 0 0-21.4 30V39.4zm0 58.7a45.5 45.5 0 0 0 21.4 30v23.6a66.4 66.4 0 0 1-21.5-12.8V98.1z"/>
</svg>