<?xml version="1.0" encoding="utf-8"?>
<!-- Generator: Adobe Illustrator 22.0.1, SVG Export Plug-In . SVG Version: 6.00 Build 0)  -->
<svg version="1.1" id="Layer_1" xmlns="http://www.w3.org/2000/svg" xmlns:xlink="http://www.w3.org/1999/xlink" x="0px" y="0px"
	 viewBox="0 0 286.6 273.5" style="enable-background:new 0 0 286.6 273.5;" xml:space="preserve">
<g>
	<path style="fill:#FFFFFF;" d="M58.2,206.5l-8.6,17.4h6.7l1.3-2.8h10l1.3,2.8h7.2L67,206.5H58.2z M59.7,216.8l2.8-6l2.9,6H59.7z"/>
	<polygon style="fill:#FFFFFF;" points="94.9,216.4 84.9,206.5 77.5,206.5 77.5,223.9 84,223.9 84,213.4 94.9,223.9 101.6,223.9 
		101.6,206.5 94.9,206.5 	"/>
	<polygon style="fill:#FFFFFF;" points="103.7,211.3 111.2,211.3 111.2,223.9 117.8,223.9 117.8,211.3 125.3,211.3 125.3,206.5 
		103.7,206.5 	"/>
	<rect x="127.5" y="206.5" style="fill:#FFFFFF;" width="6.6" height="17.4"/>
	<polygon style="fill:#FFFFFF;" points="127.9,205.5 133.9,205.5 136.2,201.9 129.8,201.9 	"/>
	<polygon style="fill:#FFFFFF;" points="136.3,211.3 143.8,211.3 143.8,223.9 150.5,223.9 150.5,211.3 158,211.3 158,206.5 
		136.3,206.5 	"/>
	<polygon style="fill:#FFFFFF;" points="166.7,217.2 179,217.2 179,213 166.7,213 166.7,210.8 179.3,210.8 179.3,206.5 160.2,206.5 
		160.2,223.9 179.5,223.9 179.5,219.5 166.7,219.5 	"/>
	<path style="fill:#FFFFFF;" d="M195.5,212.8l-3.1-0.1c-3.2-0.1-3.8-0.7-3.8-1.3l0,0c0-0.7,0.4-1.3,3.8-1.3h0.2
		c3.8,0,4.2,1.2,4.2,1.8h7.2v-0.2c0-2.8-2-5.5-10.5-5.5h-2.1c-8.1,0-10,2.5-10,5.3v0.2c0,2.7,1.8,5,8.5,5.2l3.2,0.1
		c3.6,0.1,4.1,0.7,4.1,1.5l0,0c0,0.9-0.6,1.6-4.3,1.6h-0.2c-3.8,0-4.3-1.5-4.4-2.5H181v0.2c0,2.3,1,6.2,10.6,6.2h2.1
		c9.1,0,10.7-2.9,10.7-5.9v-0.3C204.6,214.5,202,213,195.5,212.8z"/>
	<rect x="206.6" y="206.5" style="fill:#FFFFFF;" width="6.6" height="17.4"/>
	<path style="fill:#FFFFFF;" d="M229.4,212.8l-3.1-0.1c-3.2-0.1-3.8-0.7-3.8-1.3l0,0c0-0.7,0.4-1.3,3.8-1.3h0.2
		c3.8,0,4.2,1.2,4.2,1.8h7.2v-0.2c0-2.8-2-5.5-10.5-5.5h-2.1c-8.1,0-10,2.5-10,5.3v0.2c0,2.7,1.8,5,8.5,5.2l3.2,0.1
		c3.6,0.1,4.1,0.7,4.1,1.5l0,0c0,0.9-0.6,1.6-4.3,1.6h-0.2c-3.8,0-4.3-1.5-4.4-2.5h-7.3v0.2c0,2.3,1,6.2,10.6,6.2h2.1
		c9.1,0,10.7-2.9,10.7-5.9v-0.3C238.6,214.5,236,213,229.4,212.8z"/>
	<path style="fill:#FFFFFF;" d="M77.9,100.1c2.3,13.9,8.7,26.7,18.9,36.8c0.8,0.8,1.6,1.6,2.6,2.5v27.5l0.2,0.1
		c7,4.1,14.6,7.1,22.4,9.2l0.6,0.2v-23.3c6.9,2.4,14.1,3.6,21.5,3.6l0,0h0.5l0,0h0.5l0,0c7.3-0.1,14.5-1.2,21.5-3.6v23.3l0.6-0.2
		c7.9-2,15.4-5.1,22.4-9.2l0.2-0.1v-27.5c0.9-0.9,1.8-1.6,2.6-2.5c10.1-10.1,16.6-22.9,18.9-36.7v49.2l0.8-0.9
		c14.4-16.3,22.4-37.4,22.4-59.3v-0.3c0-21.8-8-42.9-22.4-59.3L211,29v49.3c-2.3-13.9-8.7-26.6-18.9-36.7c-0.8-0.8-1.6-1.6-2.6-2.5
		V11.6l-0.2-0.1c-7-4.1-14.6-7.2-22.4-9.2l-0.6-0.2v23.3c-6.9-2.4-14.1-3.6-21.5-3.6l0,0h-0.5l0,0H144l0,0
		c-7.3,0.1-14.5,1.2-21.5,3.6V2L122,2.2c-7.9,2-15.4,5.1-22.4,9.2l-0.2,0.1V39c-0.9,0.9-1.8,1.6-2.6,2.5
		C86.7,51.6,80.1,64.4,77.9,78.2V28.9l-0.9,0.9C62.6,46.2,54.7,67.3,54.7,89.3s8,43,22.4,59.4l0.8,0.9L77.9,100.1L77.9,100.1z
		 M167.3,26.6c7.9,2.8,15.1,7.2,21.5,12.8v40.8c-1.7-8.6-6-16.6-12.3-23c-2.8-2.8-5.8-5.1-9.1-7V26.6z M167.3,128.1
		c3.3-1.9,6.4-4.3,9.1-7c6.4-6.4,10.6-14.3,12.3-23v40.8c-6.4,5.6-13.6,10-21.5,12.8V128.1z M122.6,50.7c6.6-3.8,14.2-5.8,21.9-5.8
		l0,0l0,0c7.7,0,15.3,2,21.8,5.8v24.9c-1-1.7-2.3-3.2-3.7-4.7c-4.7-4.7-11-7.4-17.8-7.5l0,0h-0.5l0,0l0,0h-0.5l0,0
		c-6.7,0.1-13,2.8-17.8,7.5c-1.4,1.4-2.7,2.9-3.7,4.7L122.6,50.7L122.6,50.7z M122.6,102.6c1,1.7,2.3,3.2,3.7,4.7
		c4.7,4.7,11,7.4,17.8,7.5l0,0h0.5l0,0l0,0h0.5l0,0c6.7-0.1,13-2.8,17.8-7.5c1.4-1.4,2.7-2.9,3.7-4.7v25c-6.6,3.8-14.2,5.8-21.8,5.8
		l0,0l0,0c-7.7,0-15.3-2-21.9-5.8L122.6,102.6L122.6,102.6z M100.2,39.4c6.4-5.6,13.6-10,21.5-12.8v23.6c-3.3,2-6.4,4.3-9.1,7
		c-6.4,6.4-10.6,14.3-12.3,23V39.4z M100.2,98.1c1.7,8.6,6,16.6,12.3,23c2.8,2.8,5.8,5.1,9.1,7v23.6c-7.9-2.8-15.1-7.2-21.5-12.8
		V98.1z"/>
</g>
</svg>
