<?xml version="1.0" encoding="utf-8"?>
<!-- Generator: Adobe Illustrator 21.0.2, SVG Export Plug-In . SVG Version: 6.00 Build 0)  -->
<svg version="1.1" id="Layer_1" xmlns="http://www.w3.org/2000/svg" xmlns:xlink="http://www.w3.org/1999/xlink" x="0px" y="0px"
	 viewBox="0 0 286.6 273.5" style="enable-background:new 0 0 286.6 273.5;" xml:space="preserve">
<style type="text/css">
	.st0{fill:#FFFFFF;}
</style>
<g id="XMLID_1_">
	<g id="XMLID_35_">
		<path id="XMLID_172_" class="st0" d="M158.5,78.8c-0.8,2.2-3.5,5-4.9,10.3c-0.2,0.9,3.5,2.5,4.2,2.1c2.8-1.9,4-9.5,4.5-11.7
			C161.1,79.2,159.8,78.9,158.5,78.8C158.5,78.7,158.5,78.7,158.5,78.8z"/>
		<path id="XMLID_171_" class="st0" d="M148.5,123.4c0.1,0.3,0.3,0.6,0.4,0.7c1,0.8,2.2-1.5,3-2.8c1.5-2.7,3.2-6.4,2.7-9.5
			c-0.2-1.4-1.4-5.5-2.8-5.9c-3.3-0.8-2.2,3.4-1.6,6c0.5,2.2,0.1,5.6-0.2,7.8C149.9,120.8,148.3,122.7,148.5,123.4z"/>
		<path id="XMLID_170_" class="st0" d="M150.9,81.9c-1,1.9-0.9,2.9-1.2,5.3c-0.1,1.5,0.8,1.4,1.2,0.5c1.8-3.8,3.6-6.4,5.2-9.3
			c-1.1-0.2-2.1-0.3-3.2-0.4C152.6,79.7,151.6,80.6,150.9,81.9z"/>
		<path id="XMLID_169_" class="st0" d="M170.4,164.7c-0.4-2.1-2.7-7.7-3.4-9.4c-1.1-3-0.7-5.8-5-2.8c-1.5,1.1-2.7,1.8-2.4,2.6
			c1.1,3.2,5.3,9.6,6.4,16.6c0.8,4.5,0.7,14,2.3,14.6c0.4,0.1,2-1.7,2-4c0-1.8-0.2-2.6,0.2-4.1C171.2,176.4,171.4,169.4,170.4,164.7
			z"/>
		<path id="XMLID_168_" class="st0" d="M199,109c1.2,0.3,9.7,3.9,10.6,3.4c0.4-0.3,0.3-1.4-0.1-1.9c-0.7-1.1-2.2-1.4-3.3-1.9
			c-1.1-0.5-2.2-1.1-3-2c-1.1-1.1-2.1-2.6-3.8-2.6c-0.3,0-2.4,0.1-3.9,0.4c-4.7,1.1-9.4,3-13.2,5.1c-1.3,0.7-4.3,2.3-3.9,3.1
			c0.6,1.3,6.3-2.3,11.5-3.1C192.9,108.9,195.8,108.3,199,109z"/>
		<path id="XMLID_167_" class="st0" d="M208.7,124.8c-0.2,1.1,1.4,0.7,1.7,0.2c0.2-0.5-0.5-1-0.4-1.4c0-1-0.5-1.3-1.2-0.9
			C207.1,123.5,208.8,123.8,208.7,124.8z"/>
		<path id="XMLID_166_" class="st0" d="M197.6,111.3c-0.3,0-0.7,0.3-1.3,0.6c-0.5,0.3-0.3,0.7,1.4,1c2,0.3,1.9,0,1.5-0.8
			C198.9,111.5,197.9,111.3,197.6,111.3z"/>
		<path id="XMLID_165_" class="st0" d="M139.4,81.1c0,0.8,0.2,4.3,0.7,5.5c0.1,0.3,1.4,0.4,1.5,0.1c1.3-4.2,0.5-7.1,1.2-9.6
			c-1.2,0-2.4-0.1-3.6-0.1c-0.1,0-0.1,0-0.2,0C139.3,78.6,139.4,80,139.4,81.1z"/>
		<path id="XMLID_164_" class="st0" d="M207.3,137.2c0.3,0.3-0.1,1.6,0.6,2c1.4,0.9,1.9-0.5,1.5-1.8c-0.1-0.4-1.5-1.9-1.7-2.1
			c-0.5-0.4-2.4-2.5-3.4-1.3C203,135.4,206.3,136.2,207.3,137.2z"/>
		<path id="XMLID_163_" class="st0" d="M176.9,117.9c1,0,4-0.4,5.5-0.4c2.3-0.1,2.4-0.4,1.6-0.8c-1.7-0.9-6.2-0.8-7.8-0.1
			C175.9,116.6,175.8,117.9,176.9,117.9z"/>
		<path id="XMLID_162_" class="st0" d="M136.9,86.5c0.2,0.7,0.8,0.5,0.9-0.1c0.2-4.1-0.5-7.7-0.9-9.3l0,0c-0.7,0-1.4,0-2,0.1
			C136,79.6,135.2,80.8,136.9,86.5z"/>
		<path id="XMLID_161_" class="st0" d="M145,189.3c-0.7,0.6-1,1.4-1.5,2.1c-0.7,1-1.6,2.3-0.9,2.3c2.2,0.1,2.4-1.5,3-2.5
			c0.3-0.6,1.2-2,0.8-2.5C146.2,188.2,145.5,188.9,145,189.3z"/>
		<path id="XMLID_160_" class="st0" d="M199.1,150.5c-0.6-1-2.1-2.7-3.1-2c-0.8,0.7,2.5,5.9,4,7.1c0.6,0.5,1.1,0.2,0.6-0.3
			C198,153,199.8,151.7,199.1,150.5z"/>
		<path id="XMLID_159_" class="st0" d="M203.6,130.8c0.2,0,0.3,0.1,0.4,0.1c0.7,0.2,1.2,0.6,2,0.1c-0.3-4.8-5.1-7.7-9.4-9.2
			c-8.7-2.9-13-2-19.9-1.1c-0.8,0.1-1,4.2-0.2,4.6c1.1,0.6,2.8,0.8,3.8,0.9c2.5,0.2,4.6,1,7,1.6c2.8,0.6,5.7,0.4,8.5,0.9
			C198.5,129.3,201,130.3,203.6,130.8z"/>
		<path id="XMLID_158_" class="st0" d="M200.7,144.8c-0.5-1.5-1.6-2.9-2.7-4.1c0,0,0,0,0,0c-1.2-1.5-2.5-3.6-4.2-4.8
			c-2.5-1.7-5.8-3.7-6.7-4.1c-1.9-0.8-8-3-11-3.1c-1.5-0.1-2,6.2-1.3,6.6c1.1,0.6,4.1,1.5,5.3,1.8c2.5,0.6,5.7,2.2,8,3.6
			c2.7,1.6,5.8,2.9,8.4,4.7c0.7,0.5,4.4,3,4.3,3.9C201.2,148.3,201,145.9,200.7,144.8z"/>
		<path id="XMLID_157_" class="st0" d="M180.6,84.1c-0.8-0.3-1.7-0.5-2.6-0.8C176.8,86,176.7,88,180.6,84.1z"/>
		<path id="XMLID_156_" class="st0" d="M141.1,184.5c-0.1,1.9-0.3,4,0.2,4.4c0.7,0.6,1.2-0.8,2-1.8c3.1-4.2,5.5-11.7,6-17.9
			c0.2-2,1-7.7,0.4-11.4c-0.2-1.3-6.9-1.5-7-0.2c-0.4,3.3-0.3,7.3-0.2,10C142.8,173.6,141.3,178.7,141.1,184.5L141.1,184.5z"/>
		<path id="XMLID_155_" class="st0" d="M165.2,185c0.3-8.8-1.9-19.5-7.7-28.6c-0.8-1.3-3.7-1-3.7,0.1c-0.1,0.4-0.1,1.3-0.2,1.6
			c-0.3,2.8-0.1,5.8,0.5,8.5c0.5,2.5,0.8,4.5,1.1,7.1c0.8,6.4,0.3,15,0.2,15.9c-0.1,0.9-0.1,1.5-0.8,1.5c-1.1,0-1.1-1-1.2-2
			c-0.1-1.3,0.7-7.2,0.1-13.6c-0.2-2.7-0.9-4.1-1.6-4.1c-0.8,0.1-0.9,2.8-1.6,5.5c-0.8,3.2-1.5,4.5-1.6,6.1c-0.1,1,0,1.7,0.4,1.7
			c0.8,0.2,0.8,1.2,0.9,2c0.1,1.2,0.7,0.9,0.8,2.1c0.3,2.9,0,4.3-0.6,4.7c0,0-0.1,0-0.1,0c2.3-0.2,4.5-0.5,6.6-0.9
			c-0.3-1.8,1.7-3.1,1.9-5.9c0-0.6-1.2-7.1,1.2-7.3c1.8-0.1,1.8,1,3,3.1c1.4,2.5,2,6.1,2.2,8.4c0.6-0.2,1.3-0.3,1.9-0.5
			C166.3,190,165.1,186.3,165.2,185z"/>
		<path id="XMLID_154_" class="st0" d="M163.6,86.7c0.7-0.9,3.3-5.2,3.8-6.2l0,0c-0.7-0.2-1.4-0.3-2.1-0.5c-0.3,0.9-1.5,3.8-2.4,6.6
			C162.6,87.7,163,87.6,163.6,86.7z"/>
		<path id="XMLID_153_" class="st0" d="M146.1,87.5c1.8-3.3,1.1-4.2,3-7.1c0.8-1.3,1-1.8,1.3-2.7c-1.6-0.2-3.3-0.3-5-0.4
			c-0.4,2.2-1.2,3.7-1.5,9.9C143.9,87.5,145.8,88,146.1,87.5z"/>
		<path id="XMLID_152_" class="st0" d="M191,170.7c-0.7-1.2-2.2-4.9-6.3-11.3c-1.4-2.2-3-4.5-4.9-6.2c-1.4-1.3-9.4-7.7-11-7.1
			c-0.7,0.3-0.5,2-0.2,2.5c0.7,1.1,2.9,1.9,5.3,5.1c6.6,8.6,9.6,20.7,10.5,25.6c0.3,1.3,0.5,2.2,0.4,2.8c0.6-0.4,1.1-0.8,1.7-1.2
			c-0.7-1.6-1.4-3.5-1.5-5.7c-0.2-2.5-1-5.6,0.5-5.4c2.9,0.4,1.5,2.4,3.7,3.5c1.3,0.7,2.4,1.9,2.4,3.3c0.4-0.4,0.9-0.8,1.3-1.3
			C192.6,173.9,191.5,171.5,191,170.7z"/>
		<path id="XMLID_151_" class="st0" d="M181.5,184.3c0.5-0.3,1-0.6,1.5-0.9c-0.5-0.2-0.5-0.9-0.6-2c-0.3-1.4-2.8-10.9-5.7-17.6
			c-1-2.4-4.1-9-6.8-11.3c-0.7-0.5-1.3,0.2-1.1,0.7c0.5,1,3.2,7.6,4,11.1c1.3,5.6,1,10.1,0.9,13.3c-0.1,1.7-0.2,3.7-0.7,5.3
			c-0.3,0.8-1.5,3-2.3,4.5c-0.5,0.7-1,0.6-1.3,1.2c-0.2,0.4,0.1,0.7,0.1,1c2.1-0.7,4.1-1.4,5.9-2.2c-0.7-0.4,0.2-1.7,0.4-5.5
			c0.1-1.8-0.8-6.6,1.7-6.4c2,0.1,2.5,5.7,3.4,7C181.3,183.4,181.6,183.6,181.5,184.3C181.5,184.3,181.5,184.3,181.5,184.3z"/>
		<path id="XMLID_150_" class="st0" d="M160.7,189.4c-1.9,0.8-0.9,2.1-0.9,2.8c0.9-0.2,1.9-0.4,2.8-0.6
			C163.3,190.2,162.4,188.7,160.7,189.4z"/>
		<path id="XMLID_149_" class="st0" d="M164.8,97c3.3-1.9,8.9-9.8,10.1-14.5c-1.1-0.3-2.2-0.6-3.3-0.9c-4,5.1-8.7,10.3-9.9,12.6
			C161.5,94.6,163.9,97.5,164.8,97z"/>
		<path id="XMLID_148_" class="st0" d="M205.8,119.3c1.1-0.5,4.8,0.5,4.6,0.1c-0.1-0.2-0.3-0.5-0.5-0.7c-1-1-2.6-2.3-3.7-2.5
			c-2.2-0.4-5.9,0-8.1-0.2c-2.7-0.2-3.1-1.2-5.8-1c-1.8,0.1-3.7,0.5-4,1.6c-0.2,0.6,0.9,0.7,1.8,0.7c1.8,0.1,7.5,1.2,9.1,2
			c0.6,0.3,5.5,3.7,6,3.6C205.8,122.8,204.7,119.9,205.8,119.3z"/>
		<path id="XMLID_147_" class="st0" d="M170.5,143.2c5.3,3.2,9.1,6,10.9,7.9c3.1,3.3,7,8.7,8.9,12.8c0.8,1.7,2.6,5.8,3.8,5.6
			c3-0.5-2-13.5-6.9-18c-1.2-1.1-3.6-3.3-4.8-4.9c-2.8-3.8-6-6-9.4-6.8C171.7,139.4,169.9,142.8,170.5,143.2z"/>
		<path id="XMLID_146_" class="st0" d="M208.3,130.6c-0.4,0.3,0.1,0.6,1.1,1.8c0.6,0.7,1.2,0.8,1.3,0.4c0.1-1.9-1.3-3.8-2.3-3.8
			C207.6,128.8,208.7,130.3,208.3,130.6z"/>
		<path id="XMLID_145_" class="st0" d="M191.4,102.6c5.8-1.9,13.7-2.1,13.4-2.5c-1.4-1.4-4.3-2.1-6.4-2c-4.4,0.1-8.4,1.1-12.5,2.8
			c-3.7,1.6-9.2,1.9-12.9,7c-0.5,0.7,0.9,3.4,1.5,3.1c1.2-0.6,4.1-2.6,5.2-3.4C182.8,105.4,187.9,103.8,191.4,102.6z"/>
		<path id="XMLID_144_" class="st0" d="M179.6,100.1c1,1.1,11.4-4.1,13-5.6c1.7-1.6,0-5.2,1-5.7c-0.8-0.3-1.6-0.6-2.4-0.9
			c-2.4,1.7-6.3,4.8-8.4,6.9C181.2,96.4,178.8,99.2,179.6,100.1z"/>
		<path id="XMLID_143_" class="st0" d="M97.2,179.9c0.7,0.5,1.4,1,2.1,1.5c0-2.4,0.7-9.6,2.6-10.4c1.5-0.6,1.6,1.2,2.1,0.8
			c2-1.5,2.6-7.7,6.8-15.6c2-3.7,6.5-7.6,5.3-8.9c0,0-1.4-1.9-3.3-4c-0.9-1-0.8-3-0.5-4.2c0.1-0.5,0.5-0.8,0.9-1.1
			c0.6-0.5,2.2-0.2,3-0.8c2.6-1.6,4.7-1,4.9-1.9c0.3-1.4,1.8-3.4,1.4-4.6c-0.1-0.3-0.4-2.5-0.4-3.3c0-2.1-4-3-5.4-3.1
			c-1.4-0.1-4,0.3-5.5,0.5c-2.5,0.4-5.2,0.6-5.6,0c-0.4-0.5-0.6-0.4-1.3-0.5c-3.3-0.1-6,0.1-8.9,0.2c-3.2,0.2-5.9,1-8.8,2
			c-1,0.3-3.7,1.5-6.2,2.8c-2.2,1.2-4.3,2.5-4.9,3.1c-0.6,0.6-1.3,1.9-0.8,2.2c0.8,0.6,7.5-6.3,20-5.5c1.6,0.1,3.9-1.7,3.9,0
			c0,1.7-1.4,3.7-3.9,3.4c-5.2-0.6-12,0.2-16,3c-1,0.7-3.7,2.4-5.2,2.6c-0.4,0.1-1.6,0.5-2.6,1.5c0.1,0.6,0.3,1.3,0.4,1.9
			c0.3-0.7,7.2-4.3,7.6-4.5c1.3-0.5,4.1-1.2,4.9,0.3c1,1.7-1.9,2.6-0.9,3.8c0.4,0.4,2.2-1.1,3.2-1.8c1.5-1,4-1.4,7.9-3.1
			c3.7-1.6,3.3,1.8,2.8,2.3c-1.1,1-4,1.3-5.5,1.6c-4.2,0.8-6.2,2.7-8.6,4.2c-0.8,0.5-1.8,1.3-2.5,2c-1.2,1.2-3.1,2.6-4.4,4.2
			c-0.5,0.5-0.7,1.1-1,1.3c0.2,0.5,0.4,1,0.7,1.5c0.1-0.3,0.5-0.3,1.5-0.5c0.8-0.2,3.3-3.4,4.2-4c1.5-1.1,2.3-2.6,4-1.9
			c2.1,0.9,1.7,2.7,0.7,4.4c-0.9,1.6-2.3,3.3-3.1,4.9c-0.9,1.7-1.4,3.1-1.5,4.3c-0.2,1-0.5,1.5-0.8,1.4c0.2,0.3,0.4,0.6,0.6,0.9
			c0.7-1.6,2-4.9,2.8-6.2c2.8-4.5,6.3-7.7,8.3-9.1c0.9-0.6,2.1-1.8,3-2.4c0.7-0.5,3.7-1.6,2.6,1.1c-0.2,0.5-4.7,3.2-7.3,5.7
			c-1.9,1.8-7.6,10-8.4,12.5c0.3,0.4,0.6,0.8,0.8,1.1c0.3-0.3,3.7-3.9,4.3-5.4c0.6-1.5,2.2-2.9,3.5-2.9c1.8,0,2,0.7,1.5,2.6
			c-0.2,0.9,0,1.5,0.3,1.8c2.6-2.5,6.3-7.2,5.9-6.7c-0.4,0.5,2.3-3,2.8-3.3c1.9-1.3,4.2-0.8,4.3,1.5c0,1.7-2.7,6.3-3.5,8.1
			c-1.1,2.4-2.4,5-3.6,7.5C95.9,174.3,97.6,179.2,97.2,179.9L97.2,179.9z"/>
		<path id="XMLID_142_" class="st0" d="M168,99.8c-0.5,1.1,0.9,3.9,2,3.5c5.3-2,12-11.7,17.4-16.8c0,0,0,0,0.1-0.1
			c-0.9-0.3-1.9-0.7-2.8-1C177.6,90,170.2,95.3,168,99.8z"/>
		<path id="XMLID_141_" class="st0" d="M199.7,167.3c-0.5-3.1-2.1-7.6-3.8-11c-1.2-2.4-3.3-5.3-3.3-8c0-1.4,0.9-1.5-0.1-2.5
			c-0.7-0.8-3.2-1.7-4.1-2.1c-2.7-1.2-6.6-4.1-7.4-3.4c-0.7,0.7,3.8,5.5,6.1,7.5c5.8,4.9,9,13.4,9.4,15c0.5,1.5,1.1,4.4,0.7,7.6
			C198.2,169.4,199,168.4,199.7,167.3z"/>
		<path id="XMLID_140_" class="st0" d="M115.2,187.7c0.8-0.9,1-2.4,1.2-3c0.9-2.7,1.2-5.4,2.5-8c1.5-2.8,3.6-5.4,4-8.5
			c0.2-1.8,1.5-2.8,2.4-4.5c1.1-2.1,2.2-3.4,4.3-6.8c0.5-0.8-0.1-1.1-2-1.9c-1.6-0.6-2.6-0.2-3.1,0.4c-2.3,2.2-4.9,7.6-6.4,10.7
			c-1.4,2.9-2.3,6.8-2.5,9.7c-0.2,1.9-0.3,3.8-0.5,5.8c-0.2,1.4-1.2,2.5-1.4,5.5c-0.1,0.7-0.1,1.5-0.2,2.1c0.2,0.1,0.5,0.2,0.7,0.3
			C114.1,189,114.5,188.5,115.2,187.7z"/>
		<path id="XMLID_139_" class="st0" d="M119.1,151c-1.7,0.8-4.2,3.4-6.3,7.6c-2.5,4.8-7.1,18.1-7.4,19.8c-0.2,1.4-0.3,2.2,0.4,2.3
			c2.2,0.4,0.6-2.8,2-4.4c2-2.3,4.2,1.6,4.9,0c0.2-0.5,0.3-3.6,1-6.1c1.8-7.1,6-13.2,8.2-17.2C122.4,152.1,120,150.6,119.1,151z"/>
		<path id="XMLID_138_" class="st0" d="M110.5,187.7c0.6-1.1,1.1-4.9-0.5-5.1c-0.7-0.1-2,2.2-2,4c0.8,0.4,1.6,0.8,2.4,1.2
			C110.4,187.8,110.4,187.8,110.5,187.7z"/>
		<path id="XMLID_137_" class="st0" d="M79.6,91.3c0.5,0.8-0.3,1.2,0.2,1.9c0.4,0.7,3.4-0.6,3.4-1.2c0-0.9-1.7-1-1.9-1.2
			c-0.1,0-0.1-0.1-0.1-0.1C80.6,90.9,80.1,91.1,79.6,91.3C79.6,91.3,79.6,91.3,79.6,91.3z"/>
		<path id="XMLID_136_" class="st0" d="M94.4,104.1c1.6,0.3,2.7,0.6,4.2,1.2c0.8,0.4,5.7,2.8,5.8,2.6c0.3-0.7-3-1.8-5.7-3.5
			c-2.6-1.7-15.5-5.7-15.8-4.9c-0.4,0.9-0.1,1.8,0.9,2.8c1.2,1.3,3.4,1.1,5,1.3C90.4,103.7,92.9,103.8,94.4,104.1z"/>
		<path id="XMLID_135_" class="st0" d="M78.2,101.4c0.1-0.3-0.2-1.1-1-1.2c-0.5,0-1.5,0.7-1.9,0.7c-0.9,0.1-1.2-0.5-1.9-0.2
			c-0.4,0.2-0.5,0.7-0.2,1c0.4,0.5,2.5,0.4,3.6,0.6C77.9,102.7,78.1,102.1,78.2,101.4z"/>
		<path id="XMLID_134_" class="st0" d="M108.5,104.4c-1.5-3.2-7.8-5.2-11-5.8c-5.5-1.1-13.1-4.9-14.8-3.5
			c-2.3,2.1,18.4,5.9,24.2,10.3C107.7,106.1,108.8,105,108.5,104.4z"/>
		<path id="XMLID_133_" class="st0" d="M91,89.9c0.9,1.3,1.7,2.9,2.9,3.7c1.2,0.8,4.3,2.5,5,1.4c0.4-0.6-5.3-4.2-6.9-5.4
			c-1.4-1.1-2.9-1.8-2.9-2.2c-0.5,0.2-0.9,0.3-1.3,0.5C88.2,88.6,88.5,89,91,89.9z"/>
		<path id="XMLID_132_" class="st0" d="M91.7,172.4L91.7,172.4c0.1-0.5,0.4-1.4,0.4-1.5c0.9-2.3,2.3-0.9,3.6-1.9
			c0.8-0.6,5.4-10.6,4.9-11.4c-1.1-1.9-6.6,6.1-8.4,9.3c-0.8,1.4-0.7,3.7-1.2,4.7c-0.3,0.6-0.9,1.4-1.5,1.6c0.6,0.6,1.3,1.2,1.9,1.8
			C91.3,174.1,91.5,173.1,91.7,172.4z"/>
		<path id="XMLID_131_" class="st0" d="M138.7,185.9c0-2,0.2-3.9,0.4-5.9c0.2-3.2,0.8-6.4,0.8-9.6c0-2.4-0.5-11.1-1.1-12.7
			c-0.1-0.3-1.4-0.4-1.4,0.1c-0.1,1.6-0.3,3.5-0.5,5c-0.4,2.4-0.9,4.6-1.6,6.9c-1,3.2-3.3,6.6-3.4,10c0,1.6,0.1,2.9,0,4.4
			c-0.1,1.6-2.6,5.7-0.8,5.9c1.2,0.1,0.7-12,4.9-10.4c2.1,0.8,0.3,4.9,0.3,6.1c-0.1,1.2-0.2,3.2,0.1,5.2c0.2,0.9,1.1,2.8,0.2,3.4
			c1,0,2.1,0,3.1,0c0,0,0.1,0,0.1,0C138.7,193,138.7,186.4,138.7,185.9z"/>
		<path id="XMLID_130_" class="st0" d="M206.5,151.5c-0.5-2.6-1.5-6.7-2.1-8.5c-0.8-2.4-3.1-4.4-4-6.8c-0.9-2.4,0.8-3.4-2.2-4.5
			c-0.8-0.3-4.2-1.2-4.8,0c-0.4,0.9,1.6,1.8,2,2.2c1.7,1.4,3.2,3,4.6,4.7c1.5,1.8,2.8,3.2,3.1,5.7c0.2,2.3,0.9,3.8,1.2,4.5
			c0.4,1.3-0.1,2.4,0.1,3.7c0.2,1.6,0.8,2.9-0.1,4.4c-0.6,0.9-3.8,0.7-4.6,1.3c-0.7,0.5,1,4.2,2.6,5.6c1.5-2.3,3-4.8,4.4-7.3
			c0.5-0.9,0.9-1.8,1.4-2.7C207.6,153.8,206.7,152.6,206.5,151.5z"/>
		<path id="XMLID_129_" class="st0" d="M122.2,189.4c-0.2,0.1-0.4,2-0.4,2.7c0.5,0.2,1.1,0.3,1.6,0.4
			C123.1,191.3,123.1,189.1,122.2,189.4z"/>
		<path id="XMLID_128_" class="st0" d="M135.1,157.7c0-0.5-1.1-0.9-1.6-0.5c-3.1,2.3-6.6,18.1-6.5,23.6c0,2-0.5,4.9,1.3,6
			c0.8,0.5,1.3-5.7,2-9.6c0.7-3.8,2.2-7.2,2.8-11.1C133.2,164.9,135,160.4,135.1,157.7z"/>
		<path id="XMLID_127_" class="st0" d="M91.5,163.5c-0.3,0-0.7,0.5-0.8,0.6c-0.3,0.3-0.5,0.7-0.5,1c-0.1,0.4,0.2,0.8,0.8,0.6
			c0.6-0.4,0.5-0.7,0.7-0.9c0.3-0.5,0.5-0.7,0.5-0.8C92.1,163.7,91.7,163.5,91.5,163.5z"/>
		<path id="XMLID_126_" class="st0" d="M119.2,189.6L119.2,189.6c0.2-0.4,0.3-0.8,0.3-1.1c0.3-1.5,0.1-3-0.7-2.5
			c-0.6,0.4-1.4,1.7-1.5,2.3c-0.2,0.6,0,1.8-0.2,2.3c0.6,0.2,1.1,0.4,1.7,0.6C118.8,190.6,119.1,189.7,119.2,189.6z"/>
		<path id="XMLID_125_" class="st0" d="M125.4,193c1.2,0.3,2.4,0.5,3.6,0.7c-1-0.9-1.4-3-1.8-3.9c0,0,0,0,0,0
			c-0.2-0.8-0.7-1.8-1.5-3.1c-1-1.7-0.9-3.8-1-5.7c-0.2-3.1,1.5-8.6,0.2-9.7c-0.4-0.3-2.4,3.5-2.8,4.5c-0.6,1.6-2.2,3.9-0.6,4.2
			c3.1,0.5,0.8,5.7,2.8,7c1.1,0.7,1.5,1.7,1.7,2.6v0C126.2,190.5,126.1,192.4,125.4,193z"/>
		<path id="XMLID_124_" class="st0" d="M72.1,134.6c0.1-0.4,0.8-0.8,0.8-1.3c0-0.1-0.2-0.3-0.3-0.3c-0.5-0.1-0.9,0.2-1.6,1.5
			c-0.2,0.4-0.6,0.5-0.9,0.4c0.1,0.7,0.2,1.4,0.3,2.1C70.9,136.6,71.6,136,72.1,134.6z"/>
		<path id="XMLID_123_" class="st0" d="M125.4,81.8c0.8,1.5,2.9,5.7,3.4,6.2c0.4,0.4,2,0,2-0.5c-0.4-3.7-2.9-8.2-3.7-9.8
			c-1.4,0.2-2.7,0.3-4,0.5C124,79.7,125.1,81.3,125.4,81.8z"/>
		<path id="XMLID_122_" class="st0" d="M120.9,83.9c0.8,0.4,2.6,5.6,3.8,5.9c0.2,0.1,1.3-0.4,1.3-0.7c0-1.1-1.7-2.7-2.5-4
			c-0.7-1.1-2.5-4.1-3.3-6.5c-0.7,0.1-1.4,0.2-2.2,0.4C118.6,79.5,120.2,83.6,120.9,83.9z"/>
		<path id="XMLID_121_" class="st0" d="M93.9,87.4c0.5,0.6,1.1,1.2,1.7,1.6c1.2,0.8,2.6,1.1,3.8,1.9c2.7,1.8,2.8,3.6,4.1,5
			c1.4,1.5,5.5,4.5,7.6,5.1c0.6,0.2,1.9-2,1.2-2.7c-1.8-2.1-8.2-6.7-9.9-8.3c-1.2-1.1-2.3-2.1-3.9-2.8c-0.8-0.3-3.5-1.3-3.9-1.9
			c-0.8,0.3-1.6,0.6-2.4,0.9C92.4,86.2,93.2,86.7,93.9,87.4z"/>
		<path id="XMLID_120_" class="st0" d="M85.4,168.7c0.2,0.3,0.4,0.5,0.7,0.8C86.9,167.7,86.2,168.3,85.4,168.7z"/>
		<path id="XMLID_119_" class="st0" d="M75.7,148.6c0-0.4-1.2-0.5-2.1,0c0.2,0.4,0.3,0.9,0.5,1.3C74.4,149.5,75.7,149.6,75.7,148.6z
			"/>
		<path id="XMLID_118_" class="st0" d="M77.3,156.7c0.4,0.7,0.8,1.4,1.2,2.2c0.1-0.4,0.4-0.5,0.6-1.1
			C79.5,156.7,78.5,156.3,77.3,156.7z"/>
		<path id="XMLID_117_" class="st0" d="M105.3,112.7c0.3-1.2-1.6-2.2-2.6-2.5c-1-0.4-2.6-1.3-4-1.7c-2-0.5-4.2-1.9-7.9-2.4
			c-1-0.1-5-0.1-5.6-0.1c-2.2-0.1-4.5,0.2-7,0.4c-1.7,0.1-4.3,0.9-4.9,1.9c-0.2,0.3,0,0.8,1,0.6c2.8-0.6,4.9-0.8,7.3-1.1
			c1.2-0.1,3-0.1,4.3-0.1c2.2-0.1,3.6,0.3,5.7,0.6c3.3,0.5,6.3,1.3,9.1,3.3c0.4,0.3,1.8,1.4,2.4,1.5
			C104.1,113.3,104.9,113.3,105.3,112.7z"/>
		<path id="XMLID_116_" class="st0" d="M133.2,87.1c0.2,0.7,2,0.2,1.8-0.5c-2.2-6.2-0.9-6-2.3-9.2c0,0,0-0.1,0-0.1
			c-1,0.1-2,0.1-3,0.2C131,79.9,132.3,83.5,133.2,87.1z"/>
		<path id="XMLID_115_" class="st0" d="M80.9,114.6c1.1-0.4,2.2-1.1,3.4-1.3c1.2-0.2,3.1-0.1,5.2-0.5c1.1-0.2,2.6-0.2,2.9-0.7
			c0.3-0.4,0.4-0.9-0.4-1c-0.8-0.1-4.2-0.2-5-0.1c-1.9,0.2-3.2,0-5.1,0c-2.6,0.1-4,1.7-4.5,3.1c-0.2,0.6-0.2,1.3,0.4,1.4
			C78.7,115.7,80.4,114.8,80.9,114.6z"/>
		<path id="XMLID_114_" class="st0" d="M73.1,106.3c0.5-0.2,2-1,1.9-1.5c-0.1-0.3-1.2-0.1-1.8-0.5c-0.8-0.6-2.1,1.2-1.9,2
			C71.6,106.9,72.5,106.6,73.1,106.3z"/>
		<path id="XMLID_113_" class="st0" d="M80,125.3c-0.9,0.7-1.6,1.5-2.6,2.1c-1.1,0.7-2.1,1.2-2.9,2.7c-0.1,0.2-0.1,0.6,0,0.8
			c0.3,0.3,0.4-0.1,0.6-0.3c0.3-0.3,1.1-1.1,1.9-1.5c0.9-0.5,3-1.7,3.7-2.1c1.4-0.8,2.3-1.4,3.7-2.1c2-1,3.8-1.6,5.7-1.9
			c1-0.2,6.2-1,7.8-1.1c1.2-0.1,2.4-0.1,3.5-0.1c0.6,0,2.2,0.2,2.7-0.3c0.3-0.2,0.6-1.4,0.6-2.4c0-1.6-0.9-1.5-2.2-2
			c-2.9-1.2-5.8-2-9-1.8c-3,0.2-6,0.4-9,0.8c-1.3,0.2-2.7,0.4-3.9,0.8c-0.8,0.3-5.5,2-5.2,3.2c0.2,1.1,7-0.3,6.6,3.5
			C82,124.2,80.5,124.9,80,125.3z"/>
		<path id="XMLID_112_" class="st0" d="M98.7,84c0.9,0.2,1.9,0.8,2.7,1.4c2.8,1.8,7.2,5.7,7,4.8c-0.2-0.7-2.7-3.9-5.6-7.1
			c-0.1-0.1-0.1-0.2-0.1-0.3C101.3,83.1,99.9,83.6,98.7,84z"/>
		<path id="XMLID_37_" class="st0" d="M114.6,85.5c0.9,0.8,5.3,5.7,6.4,6.6c0.2,0.1,0.9-0.3,0.9-0.4c0-1.1-6.4-10.6-6.4-12.1
			c-1.6,0.3-3.2,0.7-4.8,1C111.9,81.3,114.1,85,114.6,85.5z"/>
		<path id="XMLID_36_" class="st0" d="M109.4,87.2c1.6,2,3.6,3.8,5.4,5.7c0.6,0.6,1.4,1.9,2.3,2.2c0.7,0.2,1.9-1,1.8-1.4
			c-0.7-1.9-4.6-4.5-6.5-6.8c-0.6-0.8-2.3-2.4-2.9-3.2c-0.3-0.5-1.2-1.8-1.3-2.4c-1.1,0.3-2.2,0.6-3.2,0.9
			C106.6,83.1,108.5,86.1,109.4,87.2z"/>
	</g>
	<g id="XMLID_2_">
		<g id="XMLID_20_">
			<path id="XMLID_32_" class="st0" d="M13,212.5c-1.4,2.3-2.1,3.6-2.3,3.7c-0.4,0.2-0.8,0.2-1.2-0.2c-0.3-0.3-0.2-1,0.4-2.1l5.4-9
				l6-10.4c1.6-2.8,2.9-5.1,3.8-6.8c0.5-0.9,1.1-2,1.7-2.9c0.6-1.1,1-1.7,1.1-1.8c0.4-0.8,0.7-1.4,1-1.8c0.6-1.1,1.2-2.2,1.8-3.2
				c0.4-0.5,1-0.5,1.9,0c1.1,0.6,1.9,1.5,2.6,2.6c0.6,0.9,0.9,2.1,1,3.4c0,2.1-0.4,3.8-1.1,5.3c-0.8,1.6-1.9,3.1-3.4,4.4
				c-1.9,1.8-3.9,2.6-6.1,2.3c-1.9-0.2-3.1-0.2-3.4,0.1C21.9,196.3,18.9,201.7,13,212.5z M26.9,187c-2.7,4.7-3.9,7.1-3.9,7.3
				c0.4,0.7,1.7,0.8,3.9,0.4c2.3-0.4,4.2-1.7,5.7-3.8c1.2-1.8,1.9-3.8,2.2-5.9c0.2-1.7-0.3-3.1-1.3-4.4c-0.8-0.9-1.4-1.2-2.1-0.9
				C31.1,179.8,29.6,182.2,26.9,187z"/>
			<path id="XMLID_29_" class="st0" d="M51.3,219.9c-0.1,0.4-0.7,5-1.9,13.9c-0.2,1.5-0.8,2-1.7,1.6c-0.3-0.1-0.4-0.8-0.3-1.9
				c0-0.3,0.2-1.2,0.4-2.8c0.3-1.8,0.6-3.1,0.6-3.9c0.3-2.1,0.7-4.2,1.2-6.3c0.2-1,0.6-3,1.1-6.1c0.8-3.9,1.1-5.8,1-5.9
				c-0.1-0.4-2.9,5.8-8.6,18.7c-1.3,2.7-2.1,4.1-2.2,4.2c-0.4,0.3-0.9,0.3-1.3-0.1c-0.4-0.3-0.3-1.1,0.3-2.3l5.4-10.3l5.6-12.3
				c0.8-1.7,1.9-4.2,3.4-7.7c0.5-1.1,1-2.3,1.6-3.4c0.6-1.2,0.9-1.9,1-2.1c0.4-0.9,0.7-1.7,0.9-2.1c0.5-1.3,1.1-2.5,1.8-3.7
				c0.3-0.6,1-0.7,2.1-0.2c1.3,0.6,2.3,1.5,3.1,2.7c0.7,0.9,1.2,2.2,1.4,3.7c0.2,2.3-0.1,4.3-0.8,6c-0.8,1.8-1.9,3.6-3.4,5.2
				c-1.8,1.9-3.9,2.8-6.3,2.9c-1,0-1.7,0.2-2.2,0.6C53.3,208.6,52.6,212.4,51.3,219.9z M60.7,189.3c-0.3,0.2-1.7,2.9-4.2,8.3
				c-2.5,5.4-3.7,8.2-3.6,8.3c0.4,0.7,1.8,0.8,4.3,0.2c2.4-0.7,4.2-2.3,5.6-4.7c1.2-2.1,1.8-4.3,1.9-6.7c0.1-1.8-0.4-3.4-1.7-4.7
				C62.2,189.2,61.4,189,60.7,189.3z"/>
			<path id="XMLID_26_" class="st0" d="M90.3,239.1c-1.4,2.7-2.8,4.8-4.1,6.4c-1.1,1.2-2.1,2.1-2.9,2.5c-1.4,0.7-2.8,0.8-4.1,0.4
				c-1.5-0.6-2.5-1.8-3-3.8c-0.3-1.1-0.2-3.1,0.1-6.1c0.2-1.6,0.9-4.8,2.2-9.9c1.1-3.9,1.9-6.6,2.5-8.2c2.1-5.4,3.3-8.6,3.7-9.6
				c1.3-2.9,2.5-5.1,3.6-6.6c1.1-1.6,2.2-2.7,3.3-3.2c1.2-0.6,2.5-0.6,3.9-0.1c1.3,0.4,2.2,1.2,2.7,2.2c0.7,1.2,0.9,2.9,0.8,5
				c-0.2,3.9-0.4,6.4-0.7,7.7c-1.1,5-2.7,10.1-4.6,15.3C91.8,235.7,90.6,238.2,90.3,239.1z M84,217.7c-1.9,5.2-3.2,9-3.8,11.2
				c-0.9,3.7-1.6,6.5-1.8,8.5c-0.4,3.3-0.7,5.2-0.7,5.7c0.1,1.9,0.7,3.1,2.1,3.6c1.5,0.6,3.3-0.3,5.3-2.7c1.8-2.2,3.2-4.6,4.3-7.2
				c1.8-4.6,3.1-7.6,3.7-9.2c0.2-0.6,0.6-1.5,0.9-2.6c0.6-1.6,1.2-3.8,2.1-6.8c0.7-2.4,1.1-4.5,1.2-6.2c0.2-2.9,0.3-4.7,0.2-5.3
				c-0.4-2.2-1.2-3.5-2.6-4C91.8,201.5,88.1,206.5,84,217.7z"/>
			<path id="XMLID_25_" class="st0" d="M121.3,252.6c-0.7,1.4-1.8,2.7-3.1,3.7c-2.3,1.7-4,2.5-5.1,2.3c-1.1-0.2-1.5-0.7-1.3-1.6
				c0.1-0.4,0.6-0.6,1.4-0.8c1.2-0.2,2.3-0.6,3.2-1.1c2.1-1.3,3.5-4,4.1-7.8c0.1-0.7,0.3-2.1,0.7-4.1c0.3-2.1,0.6-3.8,0.8-5.2
				c0.9-5.7,1.6-9.7,1.8-11.8c1.2-12,1.6-18.2,1.1-18.6c-0.4-0.3-1.6-0.6-3.6-0.7c-0.3-0.1-0.5-0.2-0.6-0.4
				c-0.1-0.3-0.2-0.5-0.1-0.8c0.1-0.7,3.3-0.5,9.7,0.6c0.3,0.1,0.6,0.2,0.7,0.4c0.3,0.4,0.3,0.9-0.1,1.4c-0.2,0.3-0.9,0.3-2,0.1
				c-1.2-0.3-1.8-0.3-1.9-0.2c-0.2,0.1-0.3,1.1-0.4,2.9c0,0.2-0.3,3.2-0.9,8.8c-0.1,0.6-0.2,2.1-0.3,4.6c-0.2,2.6-0.4,5.1-0.7,7.5
				c-0.2,1.7-0.8,6.1-1.8,13.4C122.4,249,121.8,251.6,121.3,252.6z"/>
			<path id="XMLID_24_" class="st0" d="M159.2,257.5c3.3-0.6,5-0.4,5,0.6c0.1,0.5-2.6,1.1-8.2,1.6c-2.3,0.3-3.6,0.4-3.7,0.2
				c-0.2-0.1-0.4-1.5-0.7-4.2c-0.1-0.6-0.3-2.4-0.7-5.6c-0.4-3.5-0.7-5.9-0.8-7.1c-2.1-17.1-3.5-27.7-4.1-32c-0.6-3-0.2-4.6,1.1-4.8
				c2.7-0.4,4.5-0.7,5.4-0.7c0.2,0,0.6-0.1,1.2-0.1c0.7-0.1,1.2-0.1,1.6-0.2c1.3-0.1,1.8,0.2,1.7,0.8c-0.1,0.4-1.8,0.8-5.1,1.1
				c-3.1,0.3-4.5,0.8-4.4,1.5l1.2,10.9c0.9,5.8,1.6,8.8,1.7,9.2c0.1,0.2,1.6,0.1,4.6-0.6c0.4-0.1,0.8,0.3,1.3,0.9
				c0.4,0.7,0.4,1-0.1,1.1c-2,0.2-3.2,0.3-3.7,0.4c-1.2,0.3-1.8,0.8-1.7,1.3c1.2,13.2,1.9,20.3,2.1,21.3c0.3,2.7,0.8,4.2,1.2,4.5
				C154.7,258.1,156.3,258,159.2,257.5z"/>
			<path id="XMLID_23_" class="st0" d="M186.7,232.2c1.2,3.1,1.9,5.2,2.4,6.4c1.5,4.2,3.1,7.1,4.8,8.4c2.3,1.9,4.5,1.8,6.6-0.3
				c1.8-1.9,2.5-3.8,2-5.4c-0.3-1.1,0.2-1.4,1.6-1c0.9,0.4,0.9,2,0.1,4.7c-0.9,2.7-2.7,4.4-5.3,5.2c-2.4,0.8-4.7,0.1-6.7-2.1
				c-2.1-2.2-5.3-10.2-9.7-24.1c-2-6.2-2.7-11.4-2.3-15.5c0.1-1.5,0.8-2.8,1.9-4c1.3-1.4,3-2,4.9-1.8c2.2,0.2,3.8,1.1,4.8,2.6
				c0.8,1.2,1.1,2.1,0.8,2.7c-0.1,0.2-0.4,0.3-0.7,0.3c-0.4-0.1-0.7-0.2-0.7-0.6c-0.7-2.7-2.7-3.7-6.1-2.9c-2.2,0.7-3.4,2.5-3.4,5.2
				c-0.1,2.9,0.1,5.3,0.4,7.2c0.4,2,1.4,5.5,3,10.3C185.3,228.4,185.8,230,186.7,232.2z"/>
			<path id="XMLID_22_" class="st0" d="M235.1,239.2c-0.3,0.1-0.6-0.3-0.9-1.3c-0.6-1.7-0.9-2.4-0.8-2.2c-0.9-2.2-1.4-3.7-1.7-4.4
				c-0.2-0.5-0.6-1.3-1-2.6c-0.4-1.1-0.7-1.9-1-2.6c-0.1-0.2-0.7-1.6-1.7-4.2c-1-2.4-1.9-4.7-2.8-6.7c-0.9-1.9-1.9-4.1-2.9-6.6
				c-1.3-2.9-1.9-4.4-1.9-4.6l-2.7-6.6c-1.1-2.7-1.8-4.1-2-4.2c-0.2-0.3-1.7,0.3-4.4,1.7c-0.7,0.3-1,0-1.1-1
				c-0.1-0.4,1.8-1.4,5.6-2.8c2.5-1.1,4.3-1.9,5.2-2.2c0.8-0.3,1.2-0.3,1.4,0.1c0.2,0.6,0.2,1-0.3,1.2c-0.4,0.2-1.3,0.6-2.8,1.2
				c-0.8,0.3-1.2,0.6-1.4,0.8c-0.3,0.5,0.3,2.6,1.9,6.4c3.5,8.5,5.7,13.5,6.5,15.1c1.5,3.1,4.2,9.3,7.9,18.7c0.2,0.6,0.6,1.3,1,2.2
				c0.6,1.1,0.9,1.7,0.9,1.7c0.5,1,0.6,1.7,0.4,2C236.2,238.9,235.8,239.1,235.1,239.2z"/>
			<path id="XMLID_21_" class="st0" d="M268.9,208.6c1.1,2.2,1.7,4.8,1.7,7.7c0.1,2.8-0.9,4.8-2.9,6c-0.7,0.4-1.3,0.7-2.1,1
				c-1.6,0.6-2.6,0.5-3-0.2c-0.2-0.5-0.1-0.9,0.6-1.2c0.3-0.1,0.9-0.2,1.8-0.2c1.6-0.3,2.6-1.2,3.1-2.7c0.4-1.3,0.6-2.4,0.6-3.2
				c-0.3-2.7-1-5-1.8-6.8c-0.7-1.4-1.9-3-3.6-4.8c-1.5-1.6-3.1-3-4.6-4.2c-1.7-1.2-3.2-2.4-4.7-3.5c-3.7-2.8-6.4-5.8-8.1-9.1
				c-1.3-2.7-1.7-5.2-0.9-7.5c0.5-1.7,1.6-2.8,3.2-3.2c1.4-0.4,2.6-0.3,3.3,0.2c0.4,0.3,0.5,0.6,0.2,1c-0.1,0.2-0.5,0.2-1.2,0.1
				c-0.8-0.1-1.4-0.1-1.7-0.1c-1.1,0.3-1.8,1.2-2.3,2.9c-0.4,1.2,0,2.9,1.1,5.1c1.7,3.4,4.3,6.4,7.7,9c3.1,2.2,4.7,3.4,5,3.6
				c1.4,1.1,3.2,2.9,5.3,5.2C267.2,205.9,268.3,207.4,268.9,208.6z"/>
		</g>
		<g id="XMLID_3_">
			<path id="XMLID_19_" class="st0" d="M52.9,90.4c-3.4-2.3-7.2-5.3-11.1-8.8c-7.4-6.5-11.1-9.7-11.3-9.6c-0.2,0.1,0.9,2.2,3.1,6.3
				c3.4,6.3,5.5,10.3,6.2,12c0.4,0.7,1.2,2.1,2.3,4.4c0.9,1.7,1.1,2.7,0.6,3c-0.6,0.3-1.4-0.5-2.6-2.5c-0.3-0.5-0.8-1.6-1.8-3.4
				c-0.9-2-1.9-3.8-2.9-5.7c-0.8-1.4-1.8-3.4-3.1-6c-1.2-2.4-1.9-3.8-2.1-4.2c-0.3-0.4-2.6-4.4-6.8-11.9c-4.2-7.3-6.4-11.2-6.6-11.5
				c-0.3-0.6-0.2-1.2,0.3-1.7c0.6-0.6,1-0.7,1.3-0.3c0.3,0.2,1.4,2.6,3.5,7.1c4,8.5,6.3,12.5,6.7,11.9c0.3-0.2,0.3-3.2,0.1-8.8
				c-0.1-1.5-0.2-3.3-0.3-5.3c-0.1-2.1-0.2-3.5-0.2-4.2c-0.2-4.2,0-6.5,0.5-6.8c0.6-0.3,1.1-0.2,1.5,0.4c0.1,0.3,0.2,1.1,0.1,2.3
				c-0.1,1.5-0.1,2.4-0.1,2.7c0,0.4,0,1.4,0,2.9c-0.1,1.5-0.1,2.4,0,2.8c0.1,9.2,0.4,14,0.7,14.3c0.4,0.7,3.9,3.9,10.5,9.6
				c2.2,1.9,5.1,4.1,8.4,6.4c2.8,1.9,4.4,3.1,4.7,3.4c0.6,0.8,0.6,1.4,0.1,1.9C54.5,91.3,53.8,91.1,52.9,90.4z"/>
			<path id="XMLID_16_" class="st0" d="M116.1,61.3c0.5,3.3,0.7,5,0.6,5.2c-0.2,0.6-0.7,0.8-1.2,0.7c-0.6-0.1-1-0.8-1.2-2.2
				l-1.7-12.6l-2.3-14.3c-0.6-3.9-1.1-7-1.5-9.2c-0.2-1.3-0.5-2.6-0.7-4.1c-0.2-1.5-0.3-2.3-0.3-2.5c-0.2-1.1-0.3-1.9-0.5-2.5
				c-0.4-1.5-0.6-2.9-0.6-4.4c-0.1-0.7,0.6-1.2,1.8-1.4c1.5-0.3,3-0.1,4.4,0.5c1.2,0.4,2.4,1.3,3.5,2.5c1.5,2,2.5,3.9,2.9,5.8
				c0.4,2.1,0.5,4.4,0.1,6.8c-0.4,3.1-1.8,5.3-4,6.8c-2,1.3-3,2.2-3.2,2.7C112.3,39.1,113.5,46.5,116.1,61.3z M109.9,26.5
				c1,6.4,1.7,9.7,1.8,9.9c0.9,0.3,2.2-0.6,4.1-2.6c1.9-2.1,2.7-4.7,2.5-7.8c-0.2-2.7-1-5-2.4-7.3c-1.1-1.7-2.6-2.8-4.6-3.2
				c-1.4-0.3-2.3,0-2.7,0.8C108.5,16.6,108.9,20,109.9,26.5z"/>
			<path id="XMLID_15_" class="st0" d="M150.1,66.5c-0.3-0.1-0.4-0.7-0.2-1.7c0.3-1.8,0.5-2.6,0.4-2.3c0.4-2.4,0.7-4.1,0.8-4.8
				c0.1-0.6,0.3-1.4,0.5-2.8c0.2-1.2,0.4-2.1,0.5-2.8c0.1-0.2,0.3-1.8,0.8-4.7c0.4-2.7,0.8-5.2,1.1-7.4c0.2-2.2,0.6-4.7,0.9-7.4
				c0.4-3.2,0.7-4.9,0.7-5.1l1.2-7.2c0.4-3,0.6-4.6,0.5-4.8c-0.1-0.4-1.7-0.7-4.8-0.9c-0.7,0-0.9-0.6-0.4-1.4
				c0.2-0.4,2.3-0.2,6.5,0.6c2.8,0.4,4.8,0.6,5.8,0.8c0.9,0.1,1.3,0.5,1.2,0.8c-0.1,0.7-0.4,0.9-1,0.9c-0.4-0.1-1.4-0.2-3.1-0.5
				c-0.9-0.1-1.4-0.2-1.7-0.1c-0.6,0.3-1.1,2.5-1.8,6.7c-1.4,9.3-2.3,14.9-2.4,16.8c-0.3,3.5-1.3,10.4-3.1,20.7
				c-0.1,0.6-0.2,1.4-0.3,2.5c-0.1,1.3-0.2,1.9-0.2,2c-0.1,1.2-0.4,1.8-0.7,2C151.2,66.8,150.7,66.7,150.1,66.5z"/>
			<path id="XMLID_14_" class="st0" d="M196.6,65.4c-1.6,5.2-3.9,8.2-6.7,9c-1.3,0.3-2.8,0.2-4.5-0.3c-1.6-0.5-2.8-1.8-3.7-3.7
				c-0.7-1.7-1-3.7-0.9-6.2c0.1-2.3,0.8-5.6,2.1-9.7l5.4-15.9c1-2.9,2.1-6,3.3-9.3c0.3-1,0.7-2,1.1-3.2c0.3-1,0.6-1.5,0.6-1.6
				c0.1-0.3,0.3-0.8,0.5-1.6c0.2-0.8,0.4-1.4,0.5-1.7c0.3-0.9,0.8-1.2,1.4-0.8c0.7,0.3,0.9,0.9,0.7,1.7c0.1-0.3-0.3,1-1.3,3.7
				c-4.7,12.8-7.4,20.3-8,22.5c-2,6.8-3,10.2-3,10.3c-0.7,2.9-1.1,5-1.1,6.2c-0.1,1.9,0.1,3.4,0.7,4.5c0.8,1.6,1.8,2.6,2.9,2.9
				c1.4,0.4,2.6,0.3,3.5-0.3c1.6-1.1,3.1-3.2,4.4-6.1c0.5-1.2,1.4-3.7,2.6-7.6l1.4-4.1c1.4-4.5,2.4-7.6,3.2-9.6
				c0.4-1.2,1.4-3.8,2.8-8c1.9-6.4,3-9.8,3.2-10.3c0.3-1,0.8-1.4,1.6-1.1c0.6,0.2,0.8,0.7,0.7,1.5c-0.1,0.6-0.7,2.6-1.9,6
				c-0.6,1.6-1.9,5.2-3.9,10.9c-2.8,8.4-4.3,12.8-4.5,13.2L196.6,65.4z"/>
			<path id="XMLID_11_" class="st0" d="M226.5,77.1c-0.2,0.3-1.7,4.6-4.6,12.8c-0.5,1.4-1.1,1.7-1.9,1.1c-0.3-0.2-0.2-0.8,0-1.9
				c0.1-0.2,0.4-1.1,1-2.6c0.7-1.7,1.1-2.8,1.3-3.6c0.7-1.9,1.4-3.8,2.3-5.8c0.4-0.9,1.1-2.8,2.2-5.6c1.4-3.6,2.2-5.3,2.1-5.4
				c0.1-0.4-3.9,4.9-11.8,16.2c-1.8,2.3-2.8,3.6-2.9,3.6c-0.5,0.2-0.9,0.1-1.2-0.3c-0.3-0.4-0.1-1.1,0.7-2.2l7.1-8.7l7.7-10.7
				c1.1-1.4,2.7-3.7,4.7-6.6c0.7-0.9,1.4-1.9,2.2-2.9c0.8-1.1,1.3-1.7,1.3-1.7c0.6-0.8,1-1.4,1.3-1.9c0.7-1.1,1.6-2.2,2.4-3.1
				c0.4-0.5,1.1-0.4,2,0.2c1.1,0.8,1.9,1.9,2.4,3.2c0.4,1.1,0.7,2.3,0.6,3.8c-0.3,2.2-0.9,4.1-1.9,5.5c-1.1,1.6-2.5,3.1-4.2,4.3
				c-2.1,1.5-4.3,1.9-6.6,1.6c-0.9-0.2-1.7-0.2-2.2,0.1C230.6,66.8,229.2,70.2,226.5,77.1z M241.6,50c-0.3,0.1-2.2,2.4-5.6,7.1
				c-3.4,4.6-5.2,7.1-5.1,7.2c0.3,0.7,1.6,1.1,4,1c2.4-0.2,4.4-1.4,6.2-3.4c1.6-1.8,2.7-3.8,3.2-6c0.5-1.7,0.2-3.3-0.7-4.8
				C243,50.2,242.3,49.8,241.6,50z"/>
			<path id="XMLID_8_" class="st0" d="M245.4,107.7c-0.2,0.3-0.4,0.4-0.6,0.5c-0.3,0.1-0.6,0.1-0.8-0.1c-0.6-0.3-0.8-0.6-0.5-0.9
				c2.1-2.1,3.6-4.5,4.7-7.2c0.1-0.4-0.4-1.1-1.6-2.2c-1.3-1.2-2.6-1.9-3.7-2.2c-0.5,0-1.1,0.3-1.7,0.9c-1.6,1.5-2.8,2.7-3.6,3.7
				c-0.9,1.4-1.6,2.1-1.8,2.1c-0.4-0.2-0.6-0.6-0.6-1.2c-0.1-0.3,1.4-1.9,4.4-4.9c0.5-0.6,1.9-2.1,4.1-4.4c2.2-2.4,3.8-4.1,4.9-5.2
				c0.5-0.4,2.6-2.6,6.2-6.4c0.9-0.9,1.6-1.6,2-1.9c0.4-0.4,1-0.8,1.6-1.3c1.5-1.2,2.4-1.7,2.7-1.4c0.4,0.3,0.4,0.9,0.2,2
				c-0.6,1.9-1.2,3.5-1.8,4.7c-1.9,4.1-3,6.2-3.2,6.6c-0.3,0.6-0.7,1.3-1.2,2.2c-0.9,1.7-1.7,3.1-2.3,4.2c-2.5,4.3-4.8,8.4-7.2,12.3
				L245.4,107.7z M256.4,86.1c2.8-5.3,3.9-8.1,3.2-8.4c-0.2-0.1-1.3,0.9-3.3,3.1c-0.2,0.2-1,0.9-2.3,2.2c-1.3,1.2-2.4,2.2-3.3,3.1
				c-0.9,0.9-2.1,2.1-3.5,3.7c-1.4,1.5-2.2,2.4-2.5,2.6c-1.1,1-1.4,1.7-1.1,1.9c3.5,2.7,5.4,3.9,5.8,3.5
				C251.4,95.1,253.7,91.2,256.4,86.1z"/>
			<g id="XMLID_4_">
				<path id="XMLID_5_" class="st0" d="M73.6,70.5c0.6-0.7,3.2-3.5,5.9-4.4c2.9-1,5.9-0.9,8.1-0.6c-1.2-3.1-2.5-6.2-3.8-9.3
					c-0.7-1.6-1.6-3.7-2.6-6.2c-0.6-1.3-1-2.4-1.3-3.2c-0.2-0.5-1.7-3.6-4.6-9.1c-0.8-1.7-2.1-3.7-3.7-6c-0.9-1.2-1.7-1.7-2.3-1.5
					c-0.6,0.2-0.8,1.6-0.7,4.3c0,1.1,0.1,2.1,0.1,2.9c0.1,0.8,0.2,2.1,0.4,3.8c1.1,7.3,1.6,11.5,1.8,12.4c0.3,2.2,0.8,5.5,1.6,9.9
					C73,66.7,73.4,69.1,73.6,70.5z M71.5,44.6c-0.2-2.5-0.4-3.9-0.4-4.4c-0.6-4.1-0.7-6.2-0.5-6.3c0.8-0.5,3,3.1,6.5,10.8
					c3.3,7.3,5.6,13.2,6.9,17.7c0.2,0.7-2.7,1.8-8.8,3.4c-0.6,0.2-1-0.8-1.2-2.8c-0.1-0.5-0.3-2.1-0.8-5c-0.5-3-0.8-5.3-1.1-7.1
					C71.9,49.2,71.7,47.1,71.5,44.6z"/>
			</g>
		</g>
	</g>
</g>
</svg>
