<svg xmlns="http://www.w3.org/2000/svg" viewBox="0 0 208.6 273.5">
  <g fill="#fff">
    <path d="M15.2 219.7h6.5v-40.9h-6.5v-3.7h19.4c11.3 0 15.6 5.9 15.6 12 0 5.9-3.7 9.9-9.1 11.5 6.6 1.7 10.5 5.4 10.5 11.7 0 7.4-6 13.1-16.1 13.1H15.2v-3.7zm18.4-22.8c8.5 0 12.5-3.9 12.5-9.5 0-5.4-4-8.7-11.7-8.7h-8.6v18.2h7.8zm2 22.8c7.8 0 11.9-4.2 11.9-9.5 0-6.5-5.3-9.8-13.9-9.8h-7.7v19.2l9.7.1zM55.7 219.7h4.8l15.5-41h-5.6V175h19.7v3.7h-5.6l15.5 40.9h4.8v3.7h-15v-3.7h5.7L90.4 206H70l-5.1 13.6h5.9v3.7h-15l-.1-3.6zm33.4-17.3l-8.9-24.1-9 24.1h17.9zM110.2 219.7h6.5v-40.9h-6.5v-3.7h17.5v3.7h-6.8v40.9h18.3v-7.6h4v11.3h-32.9l-.1-3.7zM148.7 219.7h4.8l15.5-40.9h-5.6v-3.7h19.7v3.7h-5.6l15.5 40.9h4.8v3.7h-15v-3.7h5.6l-5.1-13.6h-20.5l-5.1 13.6h5.9v3.7h-15v-3.7h.1zm33.4-17.3l-8.9-24.1-9 24.1h17.9zM184.9 146.6h-74.4l6.1-2.2a100.5 100.5 0 0 0 34.7-21.3l.3-.3h33.3v23.8zm-62-2.3h59.8V125h-30.2c-8.8 8.2-18.7 14.7-29.6 19.3zM121.9 128.5a19.48 19.48 0 0 1-10.7-35.8c3.2-2.1 6.8-3.1 10.6-3.1a19.54 19.54 0 0 1 19 23.6 19.5 19.5 0 0 1-8.4 12.3c-3.1 1.9-6.7 3-10.5 3zm0-36.7a17.27 17.27 0 0 0-14.5 26.6c3.2 4.9 8.6 7.9 14.5 7.9 3.3 0 6.6-1 9.4-2.8 3.9-2.5 6.5-6.4 7.5-10.9s.1-9.1-2.4-13c-3.3-4.9-8.7-7.8-14.5-7.8zm-48.1 36.7c-5.5 0-10.8-2.3-14.5-6.4-3.5-3.9-5.3-8.9-5-14a19.44 19.44 0 0 1 19.5-18.5c5.5 0 10.8 2.3 14.5 6.4 7.2 8 6.5 20.3-1.4 27.5-3.6 3.2-8.3 5-13.1 5zm0-36.7c-4.3 0-8.4 1.6-11.5 4.4a17.5 17.5 0 0 0-5.7 11.9c-.2 4.6 1.3 9 4.4 12.4 3.3 3.6 7.9 5.7 12.8 5.7 4.3 0 8.3-1.6 11.5-4.4 7-6.4 7.6-17.3 1.3-24.3a17 17 0 0 0-12.8-5.7zm24-37.6c-10.7 0-19.5-8.7-19.5-19.5 0-10.7 8.7-19.5 19.5-19.5 10.7 0 19.5 8.7 19.5 19.5s-8.7 19.5-19.5 19.5zm0-36.7A17.2 17.2 0 1 0 115 34.7c.1-9.5-7.7-17.2-17.2-17.2zM138.7 71.4a8.5 8.5 0 1 1 8.5-8.5c.1 4.7-3.8 8.5-8.5 8.5zm0-14.7c-3.5 0-6.3 2.8-6.3 6.3s2.8 6.3 6.3 6.3 6.3-2.8 6.3-6.3-2.8-6.3-6.3-6.3zM28 244.2h4.8v.7H28v-.7zM47 251.3h2.6v-16.7H47v-.6h12.1v3.9h-.7v-3.3h-8.1v8.1h6.5v.6h-6.5v8H53v.6h-6v-.6zM73.7 251.3h2.7v-16.7h-2.7v-.6h6.2v.6h-2.7v16.7h2.7v.6h-6.2v-.6zM94.3 251.3h2.6v-16.7h-2.6v-.6h5.9v.6h-2.6v16.7h7.7v-3.5h.7v4.1H94.3v-.6zM119.8 251.3h2.7l.6-16.7h-2.6v-.6h3.5l6.4 14.2 6.4-14.2h3.4v.6h-2.6l.6 16.7h2.8v.6h-6v-.6h2.4l-.6-16.1-6.4 14.2h-.3l-6.4-14.3-.6 16.1h2.4v.6h-5.8v-.5h.1zM154.9 248.6c0-.6.3-1 .8-1 .4 0 .7.3.7.7 0 .4-.2.7-.6.8.5 1.2 2.2 2.3 4.6 2.3 2.9 0 4.7-1.7 4.7-4.1 0-2.5-2.3-3.5-4.7-4.5s-4.8-2.1-4.8-4.8c0-2.6 2.2-4.4 5-4.4 2.7 0 4.8 1.7 4.8 3.3 0 .5-.3.9-.7.9s-.7-.3-.7-.7.2-.7.5-.8c-.4-1.1-2.2-2-4-2-2.5 0-4.4 1.6-4.4 3.8 0 2.5 2.3 3.4 4.7 4.4s4.9 2.2 4.9 5-2.3 4.7-5.5 4.7c-3.2-.1-5.3-2-5.3-3.6zM180.2 244.2h4.8v.7h-4.8v-.7z"/>
    <path d="M157.9 59.9c-1.5-9.5-9.6-16.4-19.2-16.4-1 0-2 .1-3.1.2A19.53 19.53 0 0 0 119.4 66c1.5 9.5 9.6 16.4 19.2 16.4 1 0 2-.1 3.1-.2 5.1-.8 9.6-3.6 12.7-7.8 3.1-4.2 4.4-9.4 3.5-14.5zM152.6 73c-2.7 3.7-6.7 6.2-11.2 6.9-.9.1-1.8.2-2.7.2-8.5 0-15.7-6.1-17-14.5-1.5-9.4 5-18.2 14.3-19.7.9-.1 1.8-.2 2.7-.2 8.5 0 15.7 6.1 17 14.5.7 4.6-.4 9.1-3.1 12.8z"/>
    <path d="M98.6 119C74.6 119 55 99.5 55 75.4c0-24 19.5-43.6 43.6-43.6 24 0 43.6 19.5 43.6 43.6 0 24-19.6 43.6-43.6 43.6zm0-85c-22.8 0-41.4 18.6-41.4 41.4s18.6 41.4 41.4 41.4S140 98.2 140 75.4C140 52.5 121.4 34 98.6 34z"/>
    <path d="M98.8 64.9a10.5 10.5 0 1 0 0 21 10.5 10.5 0 0 0 0-21zm0 18.8c-4.6 0-8.3-3.7-8.3-8.3 0-4.6 3.7-8.3 8.3-8.3 4.6 0 8.3 3.7 8.3 8.3 0 4.6-3.7 8.3-8.3 8.3zM65.1 45.7a19.37 19.37 0 0 0-25.7 9.9A19.5 19.5 0 0 0 57.2 83c7.7 0 14.7-4.5 17.8-11.6 4.4-9.9-.1-21.4-9.9-25.7zm7.8 24.7a17.26 17.26 0 0 1-22.8 8.7 17.17 17.17 0 0 1-8.7-22.7 17.22 17.22 0 0 1 22.7-8.7c8.8 3.9 12.7 14.1 8.8 22.7z"/>
    <path d="M98.6 2.2c-40.4 0-73.2 32.9-73.2 73.2 0 40.4 32.8 73.2 73.2 73.2s73.2-32.8 73.2-73.2C171.8 35 139 2.2 98.6 2.2zm0 144.2c-39.1 0-71-31.8-71-71 0-39.1 31.8-71 71-71 39.1 0 71 31.8 71 71 0 39.1-31.9 71-71 71z"/>
  </g>
</svg>