<?xml version="1.0" encoding="utf-8"?>
<!-- Generator: Adobe Illustrator 22.0.1, SVG Export Plug-In . SVG Version: 6.00 Build 0)  -->
<svg version="1.1" id="Layer_1" xmlns="http://www.w3.org/2000/svg" xmlns:xlink="http://www.w3.org/1999/xlink" x="0px" y="0px"
	 viewBox="0 0 208.6 273.5" style="enable-background:new 0 0 208.6 273.5;" xml:space="preserve">
<g>
	<g>
		<g>
			<g id="XMLID_281_">
				<path id="XMLID_389_" style="fill:#FFFFFF;" d="M15.2,219.7h6.5v-40.9h-6.5v-3.7h19.4c11.3,0,15.6,5.9,15.6,12
					c0,5.9-3.7,9.9-9.1,11.5c6.6,1.7,10.5,5.4,10.5,11.7c0,7.4-6,13.1-16.1,13.1H15.2V219.7z M33.6,196.9c8.5,0,12.5-3.9,12.5-9.5
					c0-5.4-4-8.7-11.7-8.7h-8.6v18.2H33.6z M35.6,219.7c7.8,0,11.9-4.2,11.9-9.5c0-6.5-5.3-9.8-13.9-9.8h-7.7v19.2L35.6,219.7z"/>
				<path id="XMLID_386_" style="fill:#FFFFFF;" d="M55.7,219.7h4.8l15.5-41h-5.6V175h19.7v3.7h-5.6l15.5,40.9h4.8v3.7h-15v-3.7h5.7
					L90.4,206H70l-5.1,13.6h5.9v3.7h-15L55.7,219.7z M89.1,202.4l-8.9-24.1l-9,24.1H89.1z"/>
				<path id="XMLID_384_" style="fill:#FFFFFF;" d="M110.2,219.7h6.5v-40.9h-6.5v-3.7h17.5v3.7h-6.8v40.9h18.3v-7.6h4v11.3h-32.9
					L110.2,219.7L110.2,219.7z"/>
				<path id="XMLID_381_" style="fill:#FFFFFF;" d="M148.7,219.7h4.8l15.5-40.9h-5.6v-3.7h19.7v3.7h-5.6l15.5,40.9h4.8v3.7h-15v-3.7
					h5.6l-5.1-13.6h-20.5l-5.1,13.6h5.9v3.7h-15v-3.7H148.7z M182.1,202.4l-8.9-24.1l-9,24.1H182.1z"/>
				<path id="XMLID_378_" style="fill:#FFFFFF;" d="M184.9,146.6h-74.4l6.1-2.2c12.9-4.7,24.6-11.8,34.7-21.3l0.3-0.3h33.3V146.6z
					 M122.9,144.3h59.8V125h-30.2C143.7,133.2,133.8,139.7,122.9,144.3z"/>
				<path id="XMLID_371_" style="fill:#FFFFFF;" d="M121.9,128.5c-6.6,0-12.7-3.3-16.4-8.9c-5.8-9-3.3-21.1,5.7-26.9
					c3.2-2.1,6.8-3.1,10.6-3.1c6.6,0,12.7,3.3,16.3,8.9c2.8,4.4,3.8,9.6,2.7,14.7s-4.1,9.5-8.4,12.3
					C129.3,127.4,125.7,128.5,121.9,128.5z M121.9,91.8c-3.3,0-6.6,1-9.4,2.8c-8,5.2-10.2,15.9-5.1,23.8c3.2,4.9,8.6,7.9,14.5,7.9
					c3.3,0,6.6-1,9.4-2.8c3.9-2.5,6.5-6.4,7.5-10.9s0.1-9.1-2.4-13C133.1,94.7,127.7,91.8,121.9,91.8z M73.8,128.5
					c-5.5,0-10.8-2.3-14.5-6.4c-3.5-3.9-5.3-8.9-5-14c0.3-5.2,2.5-10,6.4-13.5c3.6-3.2,8.2-5,13.1-5c5.5,0,10.8,2.3,14.5,6.4
					c7.2,8,6.5,20.3-1.4,27.5C83.3,126.7,78.6,128.5,73.8,128.5z M73.8,91.8c-4.3,0-8.4,1.6-11.5,4.4c-3.4,3.1-5.4,7.3-5.7,11.9
					c-0.2,4.6,1.3,9,4.4,12.4c3.3,3.6,7.9,5.7,12.8,5.7c4.3,0,8.3-1.6,11.5-4.4c7-6.4,7.6-17.3,1.3-24.3
					C83.3,93.8,78.7,91.8,73.8,91.8z M97.8,54.2c-10.7,0-19.5-8.7-19.5-19.5c0-10.7,8.7-19.5,19.5-19.5c10.7,0,19.5,8.7,19.5,19.5
					S108.6,54.2,97.8,54.2z M97.8,17.5c-9.5,0-17.2,7.7-17.2,17.2s7.7,17.2,17.2,17.2S115,44.2,115,34.7
					C115.1,25.2,107.3,17.5,97.8,17.5z"/>
				<path id="XMLID_368_" style="fill:#FFFFFF;" d="M138.7,71.4c-4.7,0-8.5-3.8-8.5-8.5s3.8-8.5,8.5-8.5s8.5,3.8,8.5,8.5
					C147.3,67.6,143.4,71.4,138.7,71.4z M138.7,56.7c-3.5,0-6.3,2.8-6.3,6.3s2.8,6.3,6.3,6.3s6.3-2.8,6.3-6.3S142.2,56.7,138.7,56.7
					z"/>
				<path id="XMLID_366_" style="fill:#FFFFFF;" d="M28,244.2h4.8v0.7H28V244.2z"/>
				<path id="XMLID_364_" style="fill:#FFFFFF;" d="M47,251.3h2.6v-16.7H47V234h12.1v3.9h-0.7v-3.3h-8.1v8.1h6.5v0.6h-6.5v8H53v0.6
					h-6C47,251.9,47,251.3,47,251.3z"/>
				<path id="XMLID_362_" style="fill:#FFFFFF;" d="M73.7,251.3h2.7v-16.7h-2.7V234h6.2v0.6h-2.7v16.7h2.7v0.6h-6.2V251.3z"/>
				<path id="XMLID_360_" style="fill:#FFFFFF;" d="M94.3,251.3h2.6v-16.7h-2.6V234h5.9v0.6h-2.6v16.7h7.7v-3.5h0.7v4.1H94.3V251.3z
					"/>
				<path id="XMLID_358_" style="fill:#FFFFFF;" d="M119.8,251.3h2.7l0.6-16.7h-2.6V234h3.5l6.4,14.2l6.4-14.2h3.4v0.6h-2.6
					l0.6,16.7h2.8v0.6h-6v-0.6h2.4l-0.6-16.1l-6.4,14.2h-0.3l-6.4-14.3l-0.6,16.1h2.4v0.6h-5.8v-0.5H119.8z"/>
				<path id="XMLID_356_" style="fill:#FFFFFF;" d="M154.9,248.6c0-0.6,0.3-1,0.8-1c0.4,0,0.7,0.3,0.7,0.7c0,0.4-0.2,0.7-0.6,0.8
					c0.5,1.2,2.2,2.3,4.6,2.3c2.9,0,4.7-1.7,4.7-4.1c0-2.5-2.3-3.5-4.7-4.5s-4.8-2.1-4.8-4.8c0-2.6,2.2-4.4,5-4.4
					c2.7,0,4.8,1.7,4.8,3.3c0,0.5-0.3,0.9-0.7,0.9s-0.7-0.3-0.7-0.7s0.2-0.7,0.5-0.8c-0.4-1.1-2.2-2-4-2c-2.5,0-4.4,1.6-4.4,3.8
					c0,2.5,2.3,3.4,4.7,4.4s4.9,2.2,4.9,5c0,2.8-2.3,4.7-5.5,4.7C157,252.1,154.9,250.2,154.9,248.6z"/>
				<path id="XMLID_354_" style="fill:#FFFFFF;" d="M180.2,244.2h4.8v0.7h-4.8V244.2z"/>
				<path id="XMLID_351_" style="fill:#FFFFFF;" d="M157.9,59.9c-1.5-9.5-9.6-16.4-19.2-16.4c-1,0-2,0.1-3.1,0.2
					C125,45.4,117.7,55.4,119.4,66c1.5,9.5,9.6,16.4,19.2,16.4c1,0,2-0.1,3.1-0.2c5.1-0.8,9.6-3.6,12.7-7.8
					C157.5,70.2,158.8,65,157.9,59.9z M152.6,73c-2.7,3.7-6.7,6.2-11.2,6.9c-0.9,0.1-1.8,0.2-2.7,0.2c-8.5,0-15.7-6.1-17-14.5
					c-1.5-9.4,5-18.2,14.3-19.7c0.9-0.1,1.8-0.2,2.7-0.2c8.5,0,15.7,6.1,17,14.5C156.4,64.8,155.3,69.3,152.6,73z"/>
				<g id="XMLID_288_">
					<path id="XMLID_348_" style="fill:#FFFFFF;" d="M98.6,119C74.6,119,55,99.5,55,75.4c0-24,19.5-43.6,43.6-43.6
						c24,0,43.6,19.5,43.6,43.6C142.2,99.4,122.6,119,98.6,119z M98.6,34c-22.8,0-41.4,18.6-41.4,41.4s18.6,41.4,41.4,41.4
						S140,98.2,140,75.4C140,52.5,121.4,34,98.6,34z"/>
					<path id="XMLID_289_" style="fill:#FFFFFF;" d="M98.8,64.9c-5.8,0-10.5,4.7-10.5,10.5S93,85.9,98.8,85.9s10.5-4.7,10.5-10.5
						S104.6,64.9,98.8,64.9z M98.8,83.7c-4.6,0-8.3-3.7-8.3-8.3c0-4.6,3.7-8.3,8.3-8.3c4.6,0,8.3,3.7,8.3,8.3
						C107.1,80,103.4,83.7,98.8,83.7z"/>
				</g>
				<path id="XMLID_285_" style="fill:#FFFFFF;" d="M65.1,45.7c-2.5-1.1-5.2-1.7-7.9-1.7c-7.7,0-14.7,4.5-17.8,11.6
					c-4.4,9.8,0.1,21.3,9.9,25.7c2.5,1.1,5.2,1.7,7.9,1.7c7.7,0,14.7-4.5,17.8-11.6C79.4,61.5,74.9,50,65.1,45.7z M72.9,70.4
					c-2.8,6.2-8.9,10.2-15.8,10.2c-2.4,0-4.8-0.5-7-1.5c-8.7-3.9-12.6-14.1-8.7-22.7c2.8-6.2,8.9-10.2,15.7-10.2
					c2.4,0,4.8,0.5,7,1.5C72.9,51.6,76.8,61.8,72.9,70.4z"/>
				<path id="XMLID_282_" style="fill:#FFFFFF;" d="M98.6,2.2c-40.4,0-73.2,32.9-73.2,73.2c0,40.4,32.8,73.2,73.2,73.2
					s73.2-32.8,73.2-73.2C171.8,35,139,2.2,98.6,2.2z M98.6,146.4c-39.1,0-71-31.8-71-71c0-39.1,31.8-71,71-71c39.1,0,71,31.8,71,71
					C169.6,114.5,137.7,146.4,98.6,146.4z"/>
			</g>
		</g>
	</g>
</g>
</svg>
