<?xml version="1.0" encoding="utf-8"?>
<!-- Generator: Adobe Illustrator 21.0.2, SVG Export Plug-In . SVG Version: 6.00 Build 0)  -->
<svg version="1.1" id="Layer_1" xmlns="http://www.w3.org/2000/svg" xmlns:xlink="http://www.w3.org/1999/xlink" x="0px" y="0px"
	 viewBox="0 0 208.6 273.5" style="enable-background:new 0 0 208.6 273.5;" xml:space="preserve">
<style type="text/css">
	.st0{fill:#FFFFFF;}
</style>
<g>
	<g>
		<g>
			<g id="XMLID_281_">
				<path id="XMLID_389_" class="st0" d="M15.2,229.7h6.5l0-40.9h-6.5l0-3.7l19.4,0c11.3,0,15.6,5.9,15.6,12c0,5.9-3.7,9.9-9.1,11.5
					c6.6,1.7,10.5,5.4,10.5,11.7c0,7.4-6,13.1-16.1,13.1H15.2L15.2,229.7z M33.6,206.9c8.5,0,12.5-3.9,12.5-9.5
					c0-5.4-4-8.7-11.7-8.7h-8.6l0,18.2H33.6z M35.6,229.7c7.8,0,11.9-4.2,11.9-9.5c0-6.5-5.3-9.8-13.9-9.8h-7.7l0,19.2L35.6,229.7z"
					/>
				<path id="XMLID_386_" class="st0" d="M55.7,229.7h4.8L76,188.7h-5.6v-3.7h19.7v3.7h-5.6l15.5,40.9l4.8,0v3.7h-15v-3.7h5.7
					L90.4,216H70l-5.1,13.6h5.9v3.7h-15L55.7,229.7z M89.1,212.4l-8.9-24.1l-9,24.1H89.1z"/>
				<path id="XMLID_384_" class="st0" d="M110.2,229.7h6.5l0-40.9l-6.5,0v-3.7h17.5v3.7h-6.8l0,40.9h18.3v-7.6h4v11.3l-32.9,0V229.7
					z"/>
				<path id="XMLID_381_" class="st0" d="M148.7,229.7h4.8l15.5-40.9h-5.6v-3.7l19.7,0v3.7h-5.6l15.5,40.9h4.8v3.7l-15,0v-3.7h5.6
					l-5.1-13.6l-20.5,0l-5.1,13.6h5.9v3.7h-15V229.7z M182.1,212.4l-8.9-24.1l-9,24.1L182.1,212.4z"/>
				<path id="XMLID_378_" class="st0" d="M184.9,156.6l-74.4,0l6.1-2.2c12.9-4.7,24.6-11.8,34.7-21.3l0.3-0.3l33.3,0V156.6z
					 M122.9,154.3l59.8,0V135h-30.2C143.7,143.2,133.8,149.7,122.9,154.3z"/>
				<path id="XMLID_371_" class="st0" d="M121.9,138.5c-6.6,0-12.7-3.3-16.4-8.9c-5.8-9-3.3-21.1,5.7-26.9c3.2-2.1,6.8-3.1,10.6-3.1
					c6.6,0,12.7,3.3,16.3,8.9c2.8,4.4,3.8,9.6,2.7,14.7c-1.1,5.1-4.1,9.5-8.4,12.3C129.3,137.4,125.7,138.5,121.9,138.5z
					 M121.9,101.8c-3.3,0-6.6,1-9.4,2.8c-8,5.2-10.2,15.9-5.1,23.8c3.2,4.9,8.6,7.9,14.5,7.9c3.3,0,6.6-1,9.4-2.8
					c3.9-2.5,6.5-6.4,7.5-10.9c1-4.5,0.1-9.1-2.4-13C133.1,104.7,127.7,101.8,121.9,101.8z M73.8,138.5c-5.5,0-10.8-2.3-14.5-6.4
					c-3.5-3.9-5.3-8.9-5-14c0.3-5.2,2.5-10,6.4-13.5c3.6-3.2,8.2-5,13.1-5c5.5,0,10.8,2.3,14.5,6.4c7.2,8,6.5,20.3-1.4,27.5
					C83.3,136.7,78.6,138.5,73.8,138.5z M73.8,101.8c-4.3,0-8.4,1.6-11.5,4.4c-3.4,3.1-5.4,7.3-5.7,11.9c-0.2,4.6,1.3,9,4.4,12.4
					c3.3,3.6,7.9,5.7,12.8,5.7c4.3,0,8.3-1.6,11.5-4.4c7-6.4,7.6-17.3,1.3-24.3C83.3,103.8,78.7,101.8,73.8,101.8z M97.8,64.2
					c-10.7,0-19.5-8.7-19.5-19.5c0-10.7,8.7-19.5,19.5-19.5c10.7,0,19.5,8.7,19.5,19.5C117.3,55.5,108.6,64.2,97.8,64.2z M97.8,27.5
					c-9.5,0-17.2,7.7-17.2,17.2c0,9.5,7.7,17.2,17.2,17.2c9.5,0,17.2-7.7,17.2-17.2C115.1,35.2,107.3,27.5,97.8,27.5z"/>
				<path id="XMLID_368_" class="st0" d="M138.7,81.4c-4.7,0-8.5-3.8-8.5-8.5c0-4.7,3.8-8.5,8.5-8.5c4.7,0,8.5,3.8,8.5,8.5
					C147.3,77.6,143.4,81.4,138.7,81.4z M138.7,66.7c-3.5,0-6.3,2.8-6.3,6.3c0,3.5,2.8,6.3,6.3,6.3c3.5,0,6.3-2.8,6.3-6.3
					C145,69.5,142.2,66.7,138.7,66.7z"/>
				<path id="XMLID_366_" class="st0" d="M28,254.2h4.8v0.7H28V254.2z"/>
				<path id="XMLID_364_" class="st0" d="M47,261.3h2.6l0-16.7H47v-0.6h12.1l0,3.9h-0.7v-3.3h-8.1v8.1h6.5v0.6h-6.5l0,8h2.7v0.6h-6
					V261.3z"/>
				<path id="XMLID_362_" class="st0" d="M73.7,261.3h2.7v-16.7h-2.7v-0.6h6.2v0.6h-2.7l0,16.7h2.7v0.6h-6.2V261.3z"/>
				<path id="XMLID_360_" class="st0" d="M94.3,261.3h2.6v-16.7h-2.6v-0.6h5.9v0.6h-2.6v16.7h7.7v-3.5h0.7v4.1l-11.7,0V261.3z"/>
				<path id="XMLID_358_" class="st0" d="M119.8,261.3h2.7l0.6-16.7h-2.6v-0.6h3.5l6.4,14.2l6.4-14.2h3.4v0.6h-2.6l0.6,16.7h2.8v0.6
					H135v-0.6h2.4l-0.6-16.1l-6.4,14.2h-0.3l-6.4-14.3l-0.6,16.1h2.4v0.6h-5.8V261.3z"/>
				<path id="XMLID_356_" class="st0" d="M154.9,258.6c0-0.6,0.3-1,0.8-1c0.4,0,0.7,0.3,0.7,0.7c0,0.4-0.2,0.7-0.6,0.8
					c0.5,1.2,2.2,2.3,4.6,2.3c2.9,0,4.7-1.7,4.7-4.1c0-2.5-2.3-3.5-4.7-4.5c-2.4-1-4.8-2.1-4.8-4.8c0-2.6,2.2-4.4,5-4.4
					c2.7,0,4.8,1.7,4.8,3.3c0,0.5-0.3,0.9-0.7,0.9c-0.4,0-0.7-0.3-0.7-0.7c0-0.4,0.2-0.7,0.5-0.8c-0.4-1.1-2.2-2-4-2
					c-2.5,0-4.4,1.6-4.4,3.8c0,2.5,2.3,3.4,4.7,4.4c2.4,1,4.9,2.2,4.9,5c0,2.8-2.3,4.7-5.5,4.7C157,262.1,154.9,260.2,154.9,258.6z"
					/>
				<path id="XMLID_354_" class="st0" d="M180.2,254.2h4.8v0.7h-4.8V254.2z"/>
				<path id="XMLID_351_" class="st0" d="M157.9,69.9c-1.5-9.5-9.6-16.4-19.2-16.4c-1,0-2,0.1-3.1,0.2
					c-10.6,1.7-17.9,11.7-16.2,22.3c1.5,9.5,9.6,16.4,19.2,16.4c1,0,2-0.1,3.1-0.2c5.1-0.8,9.6-3.6,12.7-7.8
					C157.5,80.2,158.8,75,157.9,69.9z M152.6,83c-2.7,3.7-6.7,6.2-11.2,6.9c-0.9,0.1-1.8,0.2-2.7,0.2c-8.5,0-15.7-6.1-17-14.5
					c-1.5-9.4,5-18.2,14.3-19.7c0.9-0.1,1.8-0.2,2.7-0.2c8.5,0,15.7,6.1,17,14.5C156.4,74.8,155.3,79.3,152.6,83z"/>
				<g id="XMLID_288_">
					<path id="XMLID_348_" class="st0" d="M98.6,129c-24,0-43.6-19.5-43.6-43.6c0-24,19.5-43.6,43.6-43.6c24,0,43.6,19.5,43.6,43.6
						C142.2,109.4,122.6,129,98.6,129z M98.6,44c-22.8,0-41.4,18.6-41.4,41.4c0,22.8,18.6,41.4,41.4,41.4
						c22.8,0,41.4-18.6,41.4-41.4C140,62.5,121.4,44,98.6,44z"/>
					<path id="XMLID_289_" class="st0" d="M98.8,74.9c-5.8,0-10.5,4.7-10.5,10.5c0,5.8,4.7,10.5,10.5,10.5c5.8,0,10.5-4.7,10.5-10.5
						C109.3,79.6,104.6,74.9,98.8,74.9z M98.8,93.7c-4.6,0-8.3-3.7-8.3-8.3c0-4.6,3.7-8.3,8.3-8.3c4.6,0,8.3,3.7,8.3,8.3
						C107.1,90,103.4,93.7,98.8,93.7z"/>
				</g>
				<path id="XMLID_285_" class="st0" d="M65.1,55.7c-2.5-1.1-5.2-1.7-7.9-1.7c-7.7,0-14.7,4.5-17.8,11.6
					c-4.4,9.8,0.1,21.3,9.9,25.7c2.5,1.1,5.2,1.7,7.9,1.7c7.7,0,14.7-4.5,17.8-11.6C79.4,71.5,74.9,60,65.1,55.7z M72.9,80.4
					c-2.8,6.2-8.9,10.2-15.8,10.2c-2.4,0-4.8-0.5-7-1.5c-8.7-3.9-12.6-14.1-8.7-22.7c2.8-6.2,8.9-10.2,15.7-10.2
					c2.4,0,4.8,0.5,7,1.5C72.9,61.6,76.8,71.8,72.9,80.4z"/>
				<path id="XMLID_282_" class="st0" d="M98.6,12.2c-40.4,0-73.2,32.9-73.2,73.2c0,40.4,32.8,73.2,73.2,73.2
					c40.4,0,73.2-32.8,73.2-73.2C171.8,45,139,12.2,98.6,12.2z M98.6,156.4c-39.1,0-71-31.8-71-71c0-39.1,31.8-71,71-71
					c39.1,0,71,31.8,71,71C169.6,124.5,137.7,156.4,98.6,156.4z"/>
			</g>
		</g>
	</g>
</g>
</svg>
