<svg xmlns="http://www.w3.org/2000/svg" viewBox="0 0 538.6 273.5">
  <path fill="#fff" d="M241.4 68.1c.9 21.4-1.4 42.5-21.9 60.8S180.7 154 156 154s-55.7-18.3-62.1-32.4-7.8-53.4 0-76.2c7.8-23.3 26.5-44.8 61.2-42.5 34.6 1.7 83.9 16.7 86.3 65.2z"/>
  <g fill="#fff">
    <path d="M260.5 73.8c-.5 0-.8-.3-.8-.8V55.6c0-.5.3-.8.8-.8h9.5l.4.2.1.6v.4l-.1.6-.4.2h-8V63h7.2l.4.2.1.6v.4c0 .5-.2.9-.5.9H262v6.6h8c.3 0 .5.3.5.8v.5l-.1.6-.4.2h-9.5zM279.1 73.8c-.5 0-.9-.3-.9-.8V55.6c0-.5.3-.8.9-.8h5.5c1 0 1.8.1 2.7.3.8.2 1.6.5 2.3 1 .7.4 1.3 1 1.8 1.8.5.7.9 1.7 1.2 2.7.3 1.1.4 2.4.4 3.8 0 1.1-.1 2.2-.3 3.1s-.4 1.7-.9 2.4a6 6 0 0 1-1.3 1.8c-.5.5-1 1-1.7 1.2l-2 .7c-.7.2-1.5.3-2.3.3l-5.4-.1zm1.5-2.1h3.8c.9 0 1.7-.2 2.4-.4a5 5 0 0 0 1.9-1.3 5 5 0 0 0 1.3-2.4c.3-1 .4-2.1.4-3.5 0-1.3-.2-2.4-.4-3.5-.3-1-.8-1.7-1.3-2.4-.6-.6-1.2-1-1.9-1.3-.7-.3-1.6-.4-2.4-.4h-3.8v15.2zM307.9 73.9c-2.4 0-4.3-.5-5.5-1.7-1.3-1.1-1.9-2.6-1.9-4.6V55.1c0-.3.3-.6 1.1-.6h.2c.7 0 1 .2 1 .6v12.6c0 1.2.4 2.2 1.4 3 1 .8 2.2 1.1 3.7 1.1s2.7-.3 3.6-1.1c1-.8 1.4-1.7 1.4-3V55.1c0-.3.3-.6 1-.6h.3c.7 0 1 .2 1 .6v12.5c0 2-.6 3.5-1.9 4.6-1.1 1.2-2.9 1.7-5.4 1.7zM331.7 73.9c-3 0-5.2-.8-6.6-2.4-1.4-1.6-2.2-4-2.2-7.3 0-6.5 3-9.7 8.8-9.7 1.3 0 2.5.2 3.6.5s1.7.8 1.7 1.1l-.3 1c-.3.4-.4.6-.6.6l-.6-.3-1.5-.6c-.6-.2-1.4-.3-2.1-.3-2.2 0-3.8.6-4.9 1.8-1 1.2-1.6 3.1-1.6 5.9 0 2.6.5 4.5 1.6 5.8 1 1.2 2.6 1.8 4.8 1.8l1.8-.2 1.4-.4 1-.4.5-.2c.2 0 .3.2.6.6s.3.7.3.9c0 .3-.3.5-.7.9-.5.3-1.1.6-2.1.8l-2.9.1zM343.3 73.8c-.8 0-1.1-.2-1.1-.4l.1-.3 6.5-18c.1-.3.4-.4 1-.4h.8c.7 0 1 .2 1 .4l6.5 18 .1.3c0 .3-.3.4-1.1.4h-.2c-.6 0-1-.2-1.1-.4l-1.7-4.5h-8l-1.6 4.5c-.1.3-.5.4-1.2.4zm3.6-6.9h6.6l-2.9-8.1-.3-1.6h-.1l-.4 1.6-2.9 8.1zM365.7 73.8c-.5 0-.9-.3-.9-.8V55.6c0-.5.3-.8.9-.8h5.5c1 0 1.8.1 2.7.3.8.2 1.6.5 2.3 1 .7.4 1.3 1 1.8 1.8.5.7.9 1.7 1.2 2.7.3 1.1.4 2.4.4 3.8 0 1.1-.1 2.2-.3 3.1s-.4 1.7-.9 2.4a6 6 0 0 1-1.3 1.8c-.5.5-1 1-1.7 1.2l-2 .7c-.7.2-1.5.3-2.3.3l-5.4-.1zm1.6-2.1h3.8c.9 0 1.7-.2 2.4-.4.7-.3 1.4-.7 1.9-1.3s1-1.3 1.3-2.4c.3-1 .4-2.1.4-3.5 0-1.3-.2-2.4-.4-3.5-.3-1-.8-1.7-1.3-2.4-.6-.6-1.2-1-1.9-1.3-.7-.3-1.6-.4-2.4-.4h-3.8v15.2zM394.9 73.9c-2.7 0-4.8-.9-6.3-2.5s-2.2-4.1-2.2-7.3c0-3.1.7-5.6 2.2-7.3 1.4-1.7 3.5-2.4 6.3-2.4s4.9.8 6.3 2.4a11 11 0 0 1 2.2 7.3c0 3.2-.7 5.6-2.2 7.3-1.5 1.7-3.6 2.5-6.3 2.5zm0-2c1.9 0 3.4-.7 4.5-2 1-1.3 1.5-3.2 1.5-5.8s-.5-4.4-1.5-5.7c-1-1.3-2.5-1.9-4.5-1.9s-3.4.6-4.4 1.9c-1 1.3-1.5 3.1-1.5 5.7s.5 4.5 1.5 5.8c1 1.3 2.5 2 4.4 2zM412.3 73.8c-.8 0-1.1-.2-1.1-.6V55.5c0-.5.3-.8.9-.8h4.6c2.2 0 3.8.3 5 1.1 1.1.8 1.7 2 1.7 3.7 0 2.3-1 3.8-3.1 4.6v.1c.5.2 1 .5 1.3 1l1.1 2.4 2.1 5.4.1.3c0 .3-.3.4-1.1.4h-.3l-.7-.1-.3-.3-2.1-5.3c-.4-1-.9-1.7-1.5-2.1-.6-.3-1.5-.6-2.5-.6h-2.6v7.9c0 .4-.3.6-1 .6h-.5zm1.3-10.5h3.6c1 0 1.8-.3 2.5-1s1-1.5 1-2.4a3 3 0 0 0-1-2.4c-.7-.5-1.6-.8-2.7-.8h-3.4v6.6zM432.3 73.8c-.5 0-.9-.3-.9-.8V55.6c0-.5.3-.8.9-.8h9.5l.4.2.1.6v.4l-.1.6-.4.2h-8V63h7.2l.4.2.1.6v.4c0 .5-.2.9-.5.9h-7.2v6.6h8c.3 0 .5.3.5.8v.5l-.1.6-.4.2h-9.5zM454.1 73.9c-1 0-1.9-.1-2.9-.3-.9-.3-1.6-.5-2.1-.8-.5-.3-.7-.6-.7-.9l.3-.9c.2-.4.4-.6.6-.6l.5.3.9.4c.3.2.8.3 1.4.4l1.8.3c1 0 1.9-.3 2.6-.9s1-1.4 1-2.4c0-.5-.1-1-.3-1.3-.2-.3-.5-.7-1-1l-1.2-.7-1.5-.6-.2-.1c-1.3-.5-2.2-1-2.7-1.3a5 5 0 0 1-1.9-4c0-1.5.5-2.7 1.7-3.7 1.1-1 2.6-1.4 4.4-1.4.9 0 1.8.2 2.9.5 1 .3 1.5.7 1.5 1.2l-.3.9-.5.5-.6-.3-1.2-.5c-.5-.2-1.1-.3-1.7-.3a4 4 0 0 0-2.5.8c-.7.5-1 1.3-1 2.3l.2 1 .4.7c.1.2.4.3.8.6s.7.3.9.4l1.1.4.3.1.8.3.8.3.8.4.7.4c.3.1.5.3.7.6l.5.7.4.8.3 1 .1 1.1c0 1.7-.5 2.9-1.7 3.8-1.1 1.4-2.5 1.8-4.4 1.8z"/>
  </g>
  <g fill="#fff">
    <path d="M259.2 132.3c-.3 0-.5-.2-.5-.5v-11c0-.3.2-.5.5-.5h6l.3.1.1.4v.3l-.1.4-.3.1h-5.1v3.9h4.5l.3.1.1.4v.3c0 .3-.1.5-.3.5h-4.5v4.2h5.1c.3 0 .3.2.3.5v.3l-.1.4-.3.1h-6zM273 132.4c-1 0-1.8-.4-2.4-1.3s-.9-1.9-.9-3.3c0-1.5.3-2.6 1-3.4a3 3 0 0 1 2.5-1.2c.9 0 1.7.3 2.4.9v-4.4c0-.3.3-.3.7-.3h.1c.4 0 .7.1.7.3v10.9l.1.6.1.4.1.3v.1c0 .2-.1.3-.3.3l-.6.1h-.2l-.1-.1-.1-.2-.1-.2-.1-.2-.1-.3-.1-.2c-.8.8-1.7 1.2-2.7 1.2zm.2-1.2a3 3 0 0 0 2.3-1.2v-4.7c-.6-.5-1.3-.8-2.1-.8s-1.3.3-1.7.9c-.3.5-.6 1.3-.6 2.4 0 1.1.2 2 .5 2.6.5.4 1 .8 1.6.8zM284.9 132.4c-.9 0-1.6-.3-2.1-.7-.5-.5-.8-1.1-.8-2v-6c0-.3.3-.3.7-.3h.1c.4 0 .7.1.7.3v5.9c0 .5.2 1 .4 1.2.3.3.7.4 1.3.4.3 0 .8-.1 1.1-.3l1-.9v-6.3c0-.3.3-.3.7-.3h.1c.4 0 .7.1.7.3V130.6l.1.6.1.4.1.3v.1c0 .2-.1.3-.3.3l-.6.1-.2-.1-.2-.3-.1-.3-.1-.3-.1-.3c-.3.4-.8.7-1.2 1-.5.2-.9.3-1.4.3zM297.8 132.4c-1.4 0-2.5-.3-3.2-1.1-.7-.7-1-1.9-1-3.6 0-.7.1-1.3.3-1.8s.3-1 .6-1.3l1-.8 1.1-.4 1.2-.1c.7 0 1.3.1 1.8.3.5.2.8.3.8.5l-.2.6-.3.3h-.2c-.7-.3-1.3-.4-1.9-.4-1.7 0-2.5 1.1-2.5 3.3 0 1.2.2 2.1.6 2.6.4.5 1.1.8 2.1.8.7 0 1.4-.2 1.9-.4l.2-.1c.1 0 .3.1.3.3l.2.5c0 .2-.3.4-.8.6l-2 .2zM307.1 132.4c-.9 0-1.6-.2-2.1-.6-.5-.4-.8-1-.8-1.9l.1-.9.3-.7.5-.5.6-.4.7-.3.8-.2.9-.1.9-.1h.9v-.8c0-.4-.2-.8-.4-1-.3-.3-.8-.4-1.5-.4l-1.3.2-1 .3-.3.2c-.1 0-.3-.1-.3-.3l-.2-.5c0-.2.2-.3.4-.5l1.2-.4 1.6-.2c1 0 1.9.3 2.5.7.6.4.9 1.1.9 2v4.6l.1.6.1.4.1.3v.1c0 .2-.1.3-.3.3l-.6.1-.3-.1-.2-.3-.1-.3-.1-.3v-.1c-1 .7-1.9 1.1-3.1 1.1zm.1-1.2l1.5-.3 1.2-.9v-2l-2.5.2c-1.1.3-1.7.8-1.7 1.7 0 .4.1.8.3 1 .3.1.7.3 1.2.3zM319.3 132.4c-1 0-1.8-.4-2.4-1.3-.6-.9-.9-1.9-.9-3.3 0-1.5.3-2.6 1-3.4a3 3 0 0 1 2.5-1.2c.9 0 1.7.3 2.4.9v-4.4c0-.3.3-.3.7-.3h.1c.4 0 .7.1.7.3v10.9l.1.6.1.4.1.3v.1c0 .2-.1.3-.3.3l-.6.1h-.2l-.1-.1-.1-.2-.1-.2-.1-.2-.1-.3-.1-.2a4 4 0 0 1-2.7 1.2zm.2-1.2a3 3 0 0 0 2.3-1.2v-4.7c-.6-.5-1.3-.8-2.1-.8s-1.3.3-1.7.9-.6 1.3-.6 2.4c0 1.1.2 2 .5 2.6.4.4.9.8 1.6.8zM332 132.4c-1.3 0-2.3-.3-3-1.1-.7-.8-1-1.9-1-3.4s.3-2.6 1-3.5c.7-.8 1.7-1.2 3-1.2s2.3.4 2.9 1.2c.7.8 1 1.9 1 3.5 0 1.5-.3 2.6-1 3.4-.7.8-1.6 1.1-2.9 1.1zm0-1.2c.9 0 1.5-.3 1.8-.8.4-.5.6-1.4.6-2.5s-.2-2-.6-2.5c-.4-.5-1-.8-1.8-.8-.9 0-1.5.3-1.8.8-.4.5-.6 1.4-.6 2.5s.2 2 .6 2.5c.4.5.9.8 1.8.8zM341.4 132.3c-.4 0-.7-.1-.7-.3v-6-.8l-.1-.6-.1-.4-.1-.3v-.1c0-.2.1-.3.3-.3l.6-.1h.2l.1.1.1.2.1.2.1.2.1.3.1.2c.6-.9 1.2-1.3 2-1.3l.7.2c.2.1.3.3.3.4l-.1.6c-.1.3-.2.3-.3.3l-.3-.1-.6-.1-.5.1-.4.3-.3.3-.3.3-.1.1v6.3c0 .2-.3.3-.8.3zM352.9 132.4c-1.4 0-2.5-.3-3.2-1.1-.7-.8-1-1.9-1-3.4 0-1.6.3-2.7 1-3.5.7-.8 1.7-1.2 3-1.2 1.1 0 2.1.3 2.6 1.1.6.8.9 1.9.9 3.3l-.2.4-.3.3h-5.5c.1 1 .3 1.7.8 2.1.4.4 1 .7 1.9.7l1.2-.2.9-.3.3-.2c.1 0 .3.1.3.3l.2.5c0 .2-.2.3-.4.4l-1.1.4c-.3.3-.8.4-1.4.4zm-2.7-5.2h4.5c0-1.8-.7-2.7-2-2.7-1.5 0-2.3.8-2.5 2.7zM362.7 132.4a5.9 5.9 0 0 1-2.4-.6c-.3-.2-.3-.3-.3-.4l.2-.5.3-.3.2.1.4.3.6.3.8.1c1.1 0 1.7-.4 1.7-1.4 0-.3-.1-.7-.3-1s-.7-.4-1.4-.6c-.9-.3-1.5-.6-1.8-1-.3-.3-.5-1-.5-1.6 0-.7.3-1.3.8-1.8.5-.4 1.2-.7 2.1-.7.6 0 1.1.1 1.6.3.4.2.7.3.7.5l-.2.6c-.1.3-.3.3-.3.3l-.3-.1-.6-.3-.8-.1a2 2 0 0 0-1.1.3c-.3.2-.4.4-.4.8 0 .3.1.7.3 1 .2.3.5.4 1 .6 1 .3 1.8.7 2.2 1 .3.3.6 1 .6 1.7s-.3 1.4-.9 1.9a4 4 0 0 1-2.2.6zM378.6 132.4a5.9 5.9 0 0 1-2.4-.6c-.3-.2-.3-.3-.3-.4l.2-.5.3-.3.2.1.4.3.6.3.8.1c1.1 0 1.7-.4 1.7-1.4 0-.3-.1-.7-.3-1s-.7-.4-1.4-.6c-.9-.3-1.5-.6-1.8-1-.3-.3-.5-1-.5-1.6 0-.7.3-1.3.8-1.8.5-.4 1.2-.7 2.1-.7.6 0 1.1.1 1.6.3.4.2.7.3.7.5l-.2.6c-.1.3-.3.3-.3.3l-.3-.1-.6-.3-.8-.1a2 2 0 0 0-1.1.3c-.3.2-.4.4-.4.8 0 .3.1.7.3 1 .2.3.5.4 1 .6 1 .3 1.8.7 2.2 1 .3.3.6 1 .6 1.7s-.3 1.4-.9 1.9c-.7.4-1.4.6-2.2.6zM389.6 132.4c-1.3 0-2.3-.3-3-1.1-.7-.8-1-1.9-1-3.4s.3-2.6 1-3.5c.7-.8 1.7-1.2 3-1.2s2.3.4 2.9 1.2c.7.8 1 1.9 1 3.5 0 1.5-.3 2.6-1 3.4-.7.8-1.6 1.1-2.9 1.1zm-.1-1.2c.9 0 1.5-.3 1.8-.8.4-.5.6-1.4.6-2.5s-.2-2-.6-2.5c-.4-.5-1-.8-1.8-.8-.9 0-1.5.3-1.8.8-.4.5-.6 1.4-.6 2.5s.2 2 .6 2.5c.4.4 1 .8 1.8.8zM407.3 123.1l.7.1c.3 0 .4.1.7.3.3.1.4.3.6.5l.4.8.2 1.2v5.9c0 .3-.3.3-.7.3h-.1c-.4 0-.7-.1-.7-.3V126c0-.5-.2-1-.4-1.2-.3-.3-.7-.4-1.2-.4-.3 0-.4 0-.7.2l-.6.3-.4.3-.3.3v6.2c0 .3-.3.3-.7.3h-.1c-.4 0-.7-.1-.7-.3v-5.9c0-.5-.2-1-.4-1.2-.3-.3-.7-.4-1.2-.4l-.7.1-.6.3-.4.3-.3.3-.1.1v6.3c0 .3-.3.3-.7.3h-.1c-.4 0-.7-.1-.7-.3v-6-.8l-.1-.6-.1-.4-.1-.3v-.1c0-.2.1-.3.3-.3l.6-.1.2.1.2.3.1.3.1.3.1.3 1.1-1c.4-.3 1-.3 1.5-.3l.7.1.7.2.6.4.4.7c.3-.4.8-.8 1.2-1l1.7-.3zM418.6 132.4c-1.3 0-2.3-.3-3-1.1s-1-1.9-1-3.4.3-2.6 1-3.5c.7-.8 1.7-1.2 3-1.2s2.3.4 2.9 1.2c.7.8 1 1.9 1 3.5 0 1.5-.3 2.6-1 3.4-.7.8-1.7 1.1-2.9 1.1zm-.1-1.2c.9 0 1.5-.3 1.8-.8.4-.5.6-1.4.6-2.5s-.2-2-.6-2.5c-.4-.5-1-.8-1.8-.8-.9 0-1.5.3-1.8.8-.4.5-.6 1.4-.6 2.5s.2 2 .6 2.5c.3.4.9.8 1.8.8zM429.1 132.4a5.9 5.9 0 0 1-2.4-.6c-.3-.2-.3-.3-.3-.4l.2-.5.3-.3.2.1.4.3.6.3.8.1c1.1 0 1.7-.4 1.7-1.4 0-.3-.1-.7-.3-1s-.7-.4-1.4-.6c-.9-.3-1.5-.6-1.8-1-.3-.3-.5-1-.5-1.6 0-.7.3-1.3.8-1.8.5-.4 1.2-.7 2.1-.7.6 0 1.1.1 1.6.3.4.2.7.3.7.5l-.2.6c-.1.3-.3.3-.3.3l-.3-.1-.6-.3-.8-.1a2 2 0 0 0-1.1.3c-.3.2-.4.4-.4.8 0 .3.1.7.3 1 .2.3.5.4 1 .6 1 .3 1.8.7 2.2 1 .3.3.6 1 .6 1.7s-.3 1.4-.9 1.9a4 4 0 0 1-2.2.6zM445.6 132.4l-.7-.1-.7-.3-.6-.7c-.2-.3-.2-.7-.2-1.2v-5.5h-.9c-.3 0-.3-.2-.3-.5v-.2c0-.3.1-.5.3-.5h.9l.2-1.8c0-.3.2-.3.5-.3h.2c.3 0 .5.1.5.3v1.8h1.4c.3 0 .3.2.3.5v.2c0 .3-.1.5-.3.5h-1.4v5.3c0 .4.1.8.3 1 .2.2.3.3.7.3h.8l.3.3.1.5c-.1.2-.5.4-1.4.4zM454.7 132.4c-1.3 0-2.3-.3-3-1.1s-1-1.9-1-3.4.3-2.6 1-3.5c.7-.8 1.7-1.2 3-1.2s2.3.4 2.9 1.2c.7.8 1 1.9 1 3.5 0 1.5-.3 2.6-1 3.4-.6.8-1.6 1.1-2.9 1.1zm0-1.2c.9 0 1.5-.3 1.8-.8.4-.5.6-1.4.6-2.5s-.2-2-.6-2.5c-.4-.5-1-.8-1.8-.8-.9 0-1.5.3-1.8.8a5 5 0 0 0-.6 2.5c0 1.1.2 2 .6 2.5.3.4.9.8 1.8.8zM466.1 132.4c-1 0-1.8-.4-2.4-1.3-.6-.9-.9-1.9-.9-3.3 0-1.5.3-2.6 1-3.4a3 3 0 0 1 2.5-1.2c.9 0 1.7.3 2.4.9v-4.4c0-.3.3-.3.7-.3h.1c.4 0 .7.1.7.3v10.9l.1.6.1.4.1.3v.1c0 .2-.1.3-.3.3l-.6.1h-.2l-.1-.1-.1-.2-.1-.2-.1-.2-.1-.3-.1-.2c-.8.8-1.7 1.2-2.7 1.2zm.3-1.2a3 3 0 0 0 2.3-1.2v-4.7c-.6-.5-1.3-.8-2.1-.8s-1.3.3-1.7.9c-.3.5-.6 1.3-.6 2.4 0 1.1.2 2 .5 2.6.4.4.9.8 1.6.8zM478.8 132.4c-1.3 0-2.3-.3-3-1.1s-1-1.9-1-3.4.3-2.6 1-3.5c.7-.8 1.7-1.2 3-1.2s2.3.4 2.9 1.2c.7.8 1 1.9 1 3.5 0 1.5-.3 2.6-1 3.4-.6.8-1.6 1.1-2.9 1.1zm0-1.2c.9 0 1.5-.3 1.8-.8.4-.5.6-1.4.6-2.5s-.2-2-.6-2.5c-.4-.5-1-.8-1.8-.8-.9 0-1.5.3-1.8.8a5 5 0 0 0-.6 2.5c0 1.1.2 2 .6 2.5.3.4.9.8 1.8.8zM489.3 132.4a5.9 5.9 0 0 1-2.4-.6c-.3-.2-.3-.3-.3-.4l.2-.5.3-.3.2.1.4.3.6.3.8.1c1.1 0 1.7-.4 1.7-1.4 0-.3-.1-.7-.3-1s-.7-.4-1.4-.6c-.9-.3-1.5-.6-1.8-1-.3-.3-.5-1-.5-1.6 0-.7.3-1.3.8-1.8.5-.4 1.2-.7 2.1-.7.6 0 1.1.1 1.6.3.4.2.7.3.7.5l-.2.6c-.1.3-.3.3-.3.3l-.3-.1-.6-.3-.8-.1a2 2 0 0 0-1.1.3c-.3.2-.4.4-.4.8 0 .3.1.7.3 1 .2.3.5.4 1 .6 1 .3 1.8.7 2.2 1 .3.3.6 1 .6 1.7s-.3 1.4-.9 1.9c-.6.4-1.3.6-2.2.6zM502.8 132.3c-.5 0-.7-.1-.7-.3l.1-.3 4.1-11.4c.1-.2.3-.3.7-.3h.5c.4 0 .6.1.7.3l4.1 11.4.1.2c0 .2-.3.3-.7.3h-.1c-.4 0-.6-.1-.7-.3l-1-2.8h-5.3l-1 2.8c-.1.3-.3.3-.8.4zm2.2-4.3h4.1l-1.8-5.2-.2-1-.3 1-1.8 5.2zM516.2 132.3c-.4 0-.7-.1-.7-.3v-1.1c0-.3.3-.3.7-.3h.3c.4 0 .7.1.7.3v1.1c0 .3-.3.3-.7.3h-.3zM527 132.4c-1.9 0-3.3-.5-4.2-1.5-.9-1-1.4-2.5-1.4-4.6 0-4.1 1.8-6.1 5.6-6.1.8 0 1.6.1 2.3.3.7.3 1 .4 1 .7l-.2.6-.3.3-.3-.2c-.3-.1-.5-.3-1-.3l-1.3-.2c-1.4 0-2.4.3-3.1 1.1-.6.8-1 2-1 3.7s.3 2.9 1 3.7c.6.8 1.7 1.1 3 1.1l1.1-.2.9-.3.6-.3.3-.2c.1 0 .3.1.3.3l.2.5c0 .2-.2.3-.4.5l-1.3.5c-.6.5-1.2.6-1.8.6zM534.9 132.3c-.4 0-.7-.1-.7-.3v-1.1c0-.3.3-.3.7-.3h.3c.4 0 .7.1.7.3v1.1c0 .3-.3.3-.7.3h-.3z"/>
  </g>
  <g fill="#fff">
    <path d="M264.3 107.2c-2 0-3.6-.3-4.8-.8s-1.8-1.1-1.8-1.7c0-.4.2-1 .6-1.6.4-.6.8-1 1-1l.8.3 1.5.6c.6.2 1.2.3 1.9.3l1.2-.2c.3-.1.7-.3 1-.6.3-.3.4-.7.4-1.2l-.2-.8-.4-.6c-.1-.2-.4-.3-.8-.5l-.9-.4-1-.4-1-.4-1.1-.6c-.3-.2-.7-.4-1-.8l-.9-1c-.3-.3-.4-.9-.5-1.4-.2-.5-.2-1.1-.2-1.8 0-1 .2-1.8.5-2.6s.9-1.3 1.5-1.7 1.3-.8 2.1-1c.8-.3 1.6-.3 2.4-.3 1.4 0 2.6.2 3.6.6s1.5.9 1.5 1.3-.2 1-.5 1.6c-.3.6-.7.9-1 .9l-.5-.2c-.3-.1-.6-.3-1.1-.3a7 7 0 0 0-1.6-.2 4 4 0 0 0-2 .4c-.3.3-.6.7-.6 1.1l.2.9.3.6.7.5.8.4 1 .4.8.3.8.3.8.4.7.5.7.6.5.7.4.9.3 1 .1 1.2c0 1.1-.2 2.1-.5 2.9-.3.8-.9 1.5-1.5 1.9-.6.4-1.3.8-2 1-.6.5-1.4.5-2.2.5zM278.3 107.2c-1.1 0-1.7-.3-1.7-1v-18c0-.6.5-1 1.7-1h1c1.1 0 1.7.3 1.7 1v18c0 .6-.5 1-1.7 1h-1zM290.1 107.2c-1.1 0-1.7-.3-1.7-.9v-18c0-.6.5-.9 1.7-.9h1.2l1.1.2c.3.1.5.3.7.6l6.6 10.2.8 1.1V88.3c0-.6.5-.9 1.7-.9h.8c1.1 0 1.7.3 1.7.9v18c0 .6-.5.9-1.7.9h-1l-1.1-.2c-.3-.1-.5-.3-.7-.6l-7-10.7-.6-.9v11.4c0 .6-.5.9-1.7.9l-.8.1zM324.6 107.2c-1.1 0-1.7-.3-1.7-.9V88.5c0-.3.1-.7.3-.9.2-.2.4-.3.9-.3h9.4c.5 0 .9.4.9 1.4v.9c0 1-.3 1.4-.9 1.4h-6.2v4.1h5.9c.3 0 .5.1.7.3.2.2.2.6.2 1v.9l-.2 1c-.2.3-.3.3-.7.3h-5.9v7.3c0 .6-.5.9-1.7.9l-1 .4zM342.5 107.2c-1.1 0-1.7-.3-1.7-.9V88.5c0-.3.1-.7.3-.9s.4-.3.9-.3h5.5c4.6 0 7 1.7 7 5.2 0 1-.3 2-.9 2.7-.6.8-1.4 1.3-2.4 1.7v.1c.3.1.7.4 1.1 1 .3.5.7 1 .9 1.7l2.4 6.2.2.5c0 .3-.5.6-1.7.6H353c-1 0-1.5-.2-1.7-.6l-2.3-5.5c-.3-.6-.6-1-1-1.3-.3-.3-1-.3-1.8-.3h-1.1v6.9c0 .6-.5.9-1.7.9l-.9.1zm2.7-11.6h2.6c.6 0 1.1-.3 1.6-.7.4-.4.6-1 .6-1.7s-.2-1.1-.6-1.6c-.4-.3-1-.6-1.7-.6h-2.4v4.6zM376.8 104.7a8.7 8.7 0 0 1-6.6 2.6c-2.9 0-5.2-.9-6.7-2.6-1.6-1.7-2.4-4.2-2.4-7.4s.8-5.8 2.4-7.5 3.8-2.6 6.7-2.6c2.9 0 5.2.9 6.6 2.6 1.6 1.7 2.4 4.2 2.4 7.5 0 3.2-.8 5.7-2.4 7.4zm-10.1-2.7c.8 1 1.9 1.7 3.4 1.7s2.6-.5 3.4-1.7c.8-1 1.1-2.6 1.1-4.7s-.3-3.7-1.1-4.7-1.9-1.7-3.4-1.7-2.6.5-3.4 1.7c-.8 1-1.1 2.7-1.1 4.7-.1 2 .3 3.6 1.1 4.7zM387.7 107.2c-1.1 0-1.7-.3-1.7-.9v-18c0-.6.5-.9 1.7-.9h1.2l1.1.2c.3.1.5.3.7.6l6.6 10.2.8 1.1V88.3c0-.6.5-.9 1.7-.9h.8c1.1 0 1.7.3 1.7.9v18c0 .6-.5.9-1.7.9h-1l-1.1-.2c-.3-.1-.5-.3-.7-.6l-7-10.7-.6-.9v11.4c0 .6-.5.9-1.7.9l-.8.1zM415.4 107.2c-1.1 0-1.7-.3-1.7-.9V91.1h-4.5c-.6 0-.9-.4-.9-1.4v-.9c0-1 .3-1.4.9-1.4h13.3c.3 0 .5.1.6.3l.2 1v.9l-.2 1c-.1.3-.3.3-.6.3H418v15.2c0 .6-.5.9-1.7.9l-.9.2zM430.4 107.1c-.4 0-.7-.1-.9-.3-.2-.2-.3-.4-.3-.9V88.4c0-.3.1-.7.3-.9s.4-.3.9-.3h10.3c.6 0 .9.4.9 1.4v.9c0 1-.3 1.4-.9 1.4h-7.1V95h6.4c.3 0 .5.1.6.3l.2 1v.9l-.2 1c-.1.3-.3.3-.6.3h-6.4v4.5h7.2c.6 0 .9.4.9 1.4v.9c0 1-.3 1.4-.9 1.4l-10.4.4zM450.1 107.2c-1.1 0-1.7-.3-1.7-.9V88.5c0-.3.1-.7.3-.9.2-.2.4-.3.9-.3h5.5c4.6 0 7 1.7 7 5.2 0 1-.3 2-.9 2.7-.6.8-1.4 1.3-2.4 1.7v.1c.3.1.7.4 1.1 1 .3.5.7 1 .9 1.7l2.4 6.2.2.5c0 .3-.5.6-1.7.6h-1.1c-1 0-1.5-.2-1.7-.6l-2.3-5.5c-.3-.6-.6-1-1-1.3-.3-.3-1-.3-1.8-.3h-1.1v6.9c0 .6-.5.9-1.7.9l-.9.1zm2.6-11.6h2.6c.6 0 1.1-.3 1.6-.7s.6-1 .6-1.7-.2-1.1-.6-1.6c-.4-.3-1-.6-1.7-.6h-2.4v4.6zM469.1 107.2c-1.1 0-1.7-.2-1.7-.6l.1-.5 6.2-18.1c.1-.3.7-.6 1.6-.6h1.5c1 0 1.5.2 1.6.6l6.2 18.1.1.5c0 .4-.4.6-1.4.6H482c-1 0-1.5-.2-1.6-.6l-1.1-3.4h-6.6l-1.1 3.4c-.2.4-.6.6-1.3.6h-1.2zm4.7-7.8h4.2l-1.6-5-.4-1.8h-.1l-.4 1.8-1.7 5zM495.6 107.3c-2 0-3.6-.3-4.8-.8-1.2-.5-1.8-1.1-1.8-1.7 0-.4.2-1 .6-1.6.4-.6.8-1 1-1l.8.3 1.5.6c.6.2 1.2.3 1.9.3l1.2-.2c.3-.1.7-.3 1-.6.3-.3.4-.7.4-1.2l-.2-.8-.4-.6c-.1-.2-.4-.3-.8-.5l-.9-.4-1-.4-1-.4-1.1-.6c-.3-.2-.7-.4-1-.8l-.9-1c-.3-.3-.4-.9-.5-1.4-.2-.5-.2-1.1-.2-1.8 0-1 .2-1.8.5-2.6s.9-1.3 1.5-1.7c.6-.4 1.3-.8 2.1-1 .8-.3 1.6-.3 2.4-.3 1.4 0 2.6.2 3.6.6 1 .4 1.5.9 1.5 1.3s-.2 1-.5 1.6c-.3.6-.7.9-1 .9l-.5-.2c-.3-.1-.6-.3-1.1-.3a7 7 0 0 0-1.6-.2 4 4 0 0 0-2 .4c-.3.3-.6.7-.6 1.1l.2.9.3.6.7.5.8.4 1 .4.8.3.8.3.8.4.7.5.7.6.5.7.4.9.3 1 .1 1.2c0 1.1-.2 2.1-.5 2.9-.3.8-.9 1.5-1.5 1.9-.6.4-1.3.8-2 1-.6.4-1.3.5-2.2.5z"/>
  </g>
  <path fill="#c6c5c4" d="M141.7 105.1c-2.5-7.7-5.9-12.9-5.9-12.9v-.9c0-.5 0-.4.4-.4s5.9-3.2 5.5-10.1c0-4.5-1.4-7.8-3.2-9.1a9 9 0 0 0-7.3-1.8c-8.2.4-10.1 3.7-10.1 8.7-.9 10.5 5.9 11.9 6.4 12.3.4 0 .4.4.9.4v.9s-8.7 9.6-8.7 31c-.3 8-.1 15.1.3 20.8a95.8 95.8 0 0 0 20.7 7.8c-.8-7-1.4-15.6-1.4-25.9.3-8.1 1.1-15 2.4-20.8z"/>
  <path fill="#dbdada" d="M177 121.9c-.4-20.5-11.9-37.9-11.9-38.4v-.9c0-.5 0-.4.4-.4s7.8-4.5 7.8-13.7c-.4-6.4-1.8-10.5-4.5-12.8-2.3-2.3-5.5-2.7-10.1-2.7-11.5.9-13.7 5-14.2 12.3-.9 15 8.7 16.9 8.7 16.9.4 0 .4.4.9.4v.9s-11.5 13.2-11.5 42a173 173 0 0 0 .5 26.8c4.3.9 8.7 1.5 12.8 1.5 6.7 0 13-.5 19.1-1.7a221 221 0 0 0 2-30.2z"/>
  <path fill="#cbcbca" d="M188.9 102.3v-.9c0-.5 0-.4.4-.4 0 0 3.8-2.1 4.5-6.3l.1-1.9c0-3.7-.9-6.4-2.7-7.8-1.4-1.4-3.2-1.8-5.9-1.4-6.8.4-8.2 2.7-8.7 7.3-.4 9.1 5 10.1 5.5 10.1s.4.4.9.4v.9s-3.2 3.6-5.3 11.4c.4 2.7.7 5.4.8 8.3.2 9.3-.8 20.5-1.9 30a76.7 76.7 0 0 0 18.4-6.2c.7-6.7 1.3-14.2 1.3-19.7-.6-12.8-7.4-23.8-7.4-23.8z"/>
  <path fill="#e4e4e4" d="M204.9 115.5v-.9c0-.5 0-.4.4-.4 0 0 3.2-1.8 3.2-5.9 0-2.7-.9-4.5-1.8-5.5-.9-.9-2.3-1.4-4.1-.9-5 .4-5.9 1.8-5.9 5-.4 6.4 3.7 7.3 3.7 7.3.4 0 .4.4.9.4v.9s-2.3 2.8-3.8 8.7l.1 1.4c.2 5.5-.3 12.7-1 19.3 4.5-2.4 9.1-5.2 13.7-8.7l.1-3.4c-.1-9-5.5-17.3-5.5-17.3z"/>
</svg>