<?xml version="1.0" encoding="utf-8"?>
<!-- Generator: Adobe Illustrator 22.0.1, SVG Export Plug-In . SVG Version: 6.00 Build 0)  -->
<svg version="1.1" id="Layer_1" xmlns="http://www.w3.org/2000/svg" xmlns:xlink="http://www.w3.org/1999/xlink" x="0px" y="0px"
	 viewBox="0 0 538.6 273.5" style="enable-background:new 0 0 538.6 273.5;" xml:space="preserve">
<g>
	<g>
		<g>
			<g>
				<g>
					<g>
						<path style="fill:#FFFFFF;" d="M241.4,68.1c0.9,21.4-1.4,42.5-21.9,60.8s-38.8,25.1-63.5,25.1s-55.7-18.3-62.1-32.4
							s-7.8-53.4,0-76.2c7.8-23.3,26.5-44.8,61.2-42.5C189.7,4.6,239,19.6,241.4,68.1z"/>
					</g>
				</g>
				<g>
					<path style="fill:#FFFFFF;" d="M260.5,73.8c-0.5,0-0.8-0.3-0.8-0.8V55.6c0-0.5,0.3-0.8,0.8-0.8h9.5c0.2,0,0.3,0.1,0.4,0.2
						c0.1,0.1,0.1,0.3,0.1,0.6V56c0,0.3,0,0.5-0.1,0.6c-0.1,0.1-0.2,0.2-0.4,0.2h-8V63h7.2c0.2,0,0.3,0.1,0.4,0.2
						c0.1,0.1,0.1,0.3,0.1,0.6v0.4c0,0.5-0.2,0.9-0.5,0.9H262v6.6h8c0.3,0,0.5,0.3,0.5,0.8V73c0,0.3,0,0.5-0.1,0.6
						c-0.1,0.1-0.2,0.2-0.4,0.2L260.5,73.8z"/>
					<path style="fill:#FFFFFF;" d="M279.1,73.8c-0.5,0-0.9-0.3-0.9-0.8V55.6c0-0.5,0.3-0.8,0.9-0.8h5.5c1,0,1.8,0.1,2.7,0.3
						c0.8,0.2,1.6,0.5,2.3,1c0.7,0.4,1.3,1,1.8,1.8c0.5,0.7,0.9,1.7,1.2,2.7c0.3,1.1,0.4,2.4,0.4,3.8c0,1.1-0.1,2.2-0.3,3.1
						s-0.4,1.7-0.9,2.4c-0.3,0.7-0.8,1.3-1.3,1.8c-0.5,0.5-1,1-1.7,1.2c-0.6,0.3-1.3,0.5-2,0.7s-1.5,0.3-2.3,0.3L279.1,73.8z
						 M280.6,71.7h3.8c0.9,0,1.7-0.2,2.4-0.4c0.7-0.3,1.4-0.7,1.9-1.3c0.6-0.6,1-1.3,1.3-2.4c0.3-1,0.4-2.1,0.4-3.5
						c0-1.3-0.2-2.4-0.4-3.5c-0.3-1-0.8-1.7-1.3-2.4c-0.6-0.6-1.2-1-1.9-1.3c-0.7-0.3-1.6-0.4-2.4-0.4h-3.8V71.7z"/>
					<path style="fill:#FFFFFF;" d="M307.9,73.9c-2.4,0-4.3-0.5-5.5-1.7c-1.3-1.1-1.9-2.6-1.9-4.6V55.1c0-0.3,0.3-0.6,1.1-0.6h0.2
						c0.7,0,1,0.2,1,0.6v12.6c0,1.2,0.4,2.2,1.4,3c1,0.8,2.2,1.1,3.7,1.1c1.5,0,2.7-0.3,3.6-1.1c1-0.8,1.4-1.7,1.4-3V55.1
						c0-0.3,0.3-0.6,1-0.6h0.3c0.7,0,1,0.2,1,0.6v12.5c0,2-0.6,3.5-1.9,4.6C312.2,73.4,310.4,73.9,307.9,73.9z"/>
					<path style="fill:#FFFFFF;" d="M331.7,73.9c-3,0-5.2-0.8-6.6-2.4c-1.4-1.6-2.2-4-2.2-7.3c0-6.5,3-9.7,8.8-9.7
						c1.3,0,2.5,0.2,3.6,0.5c1.1,0.3,1.7,0.8,1.7,1.1c0,0.3-0.1,0.6-0.3,1c-0.3,0.4-0.4,0.6-0.6,0.6c0,0-0.3-0.1-0.6-0.3
						c-0.3-0.2-0.9-0.4-1.5-0.6c-0.6-0.2-1.4-0.3-2.1-0.3c-2.2,0-3.8,0.6-4.9,1.8c-1,1.2-1.6,3.1-1.6,5.9c0,2.6,0.5,4.5,1.6,5.8
						c1,1.2,2.6,1.8,4.8,1.8c0.6,0,1.2-0.1,1.8-0.2c0.6-0.2,1-0.3,1.4-0.4c0.3-0.2,0.7-0.3,1-0.4c0.3-0.2,0.4-0.2,0.5-0.2
						c0.2,0,0.3,0.2,0.6,0.6s0.3,0.7,0.3,0.9c0,0.3-0.3,0.5-0.7,0.9c-0.5,0.3-1.1,0.6-2.1,0.8C333.6,73.8,332.7,73.9,331.7,73.9z"/>
					<path style="fill:#FFFFFF;" d="M343.3,73.8c-0.8,0-1.1-0.2-1.1-0.4c0-0.1,0-0.2,0.1-0.3l6.5-18c0.1-0.3,0.4-0.4,1-0.4h0.8
						c0.7,0,1,0.2,1,0.4l6.5,18c0.1,0.2,0.1,0.3,0.1,0.3c0,0.3-0.3,0.4-1.1,0.4h-0.2c-0.6,0-1-0.2-1.1-0.4l-1.7-4.5h-8l-1.6,4.5
						C344.4,73.7,344,73.8,343.3,73.8L343.3,73.8z M346.9,66.9h6.6l-2.9-8.1c-0.1-0.3-0.2-0.9-0.3-1.6h-0.1
						c-0.1,0.6-0.3,1.1-0.4,1.6L346.9,66.9z"/>
					<path style="fill:#FFFFFF;" d="M365.7,73.8c-0.5,0-0.9-0.3-0.9-0.8V55.6c0-0.5,0.3-0.8,0.9-0.8h5.5c1,0,1.8,0.1,2.7,0.3
						c0.8,0.2,1.6,0.5,2.3,1c0.7,0.4,1.3,1,1.8,1.8c0.5,0.7,0.9,1.7,1.2,2.7c0.3,1.1,0.4,2.4,0.4,3.8c0,1.1-0.1,2.2-0.3,3.1
						s-0.4,1.7-0.9,2.4c-0.3,0.7-0.8,1.3-1.3,1.8c-0.5,0.5-1,1-1.7,1.2c-0.6,0.3-1.3,0.5-2,0.7c-0.7,0.2-1.5,0.3-2.3,0.3L365.7,73.8
						z M367.3,71.7h3.8c0.9,0,1.7-0.2,2.4-0.4c0.7-0.3,1.4-0.7,1.9-1.3s1-1.3,1.3-2.4c0.3-1,0.4-2.1,0.4-3.5c0-1.3-0.2-2.4-0.4-3.5
						c-0.3-1-0.8-1.7-1.3-2.4c-0.6-0.6-1.2-1-1.9-1.3c-0.7-0.3-1.6-0.4-2.4-0.4h-3.8V71.7z"/>
					<path style="fill:#FFFFFF;" d="M394.9,73.9c-2.7,0-4.8-0.9-6.3-2.5s-2.2-4.1-2.2-7.3c0-3.1,0.7-5.6,2.2-7.3
						c1.4-1.7,3.5-2.4,6.3-2.4c2.8,0,4.9,0.8,6.3,2.4c1.4,1.7,2.2,4,2.2,7.3c0,3.2-0.7,5.6-2.2,7.3
						C399.7,73.1,397.6,73.9,394.9,73.9z M394.9,71.9c1.9,0,3.4-0.7,4.5-2c1-1.3,1.5-3.2,1.5-5.8s-0.5-4.4-1.5-5.7
						c-1-1.3-2.5-1.9-4.5-1.9s-3.4,0.6-4.4,1.9c-1,1.3-1.5,3.1-1.5,5.7s0.5,4.5,1.5,5.8C391.5,71.2,393,71.9,394.9,71.9z"/>
					<path style="fill:#FFFFFF;" d="M412.3,73.8c-0.8,0-1.1-0.2-1.1-0.6V55.5c0-0.5,0.3-0.8,0.9-0.8h4.6c2.2,0,3.8,0.3,5,1.1
						c1.1,0.8,1.7,2,1.7,3.7c0,2.3-1,3.8-3.1,4.6v0.1c0.5,0.2,1,0.5,1.3,1c0.3,0.5,0.7,1.3,1.1,2.4l2.1,5.4c0.1,0.2,0.1,0.3,0.1,0.3
						c0,0.3-0.3,0.4-1.1,0.4h-0.3c-0.3,0-0.5,0-0.7-0.1s-0.3-0.2-0.3-0.3l-2.1-5.3c-0.4-1-0.9-1.7-1.5-2.1c-0.6-0.3-1.5-0.6-2.5-0.6
						h-2.6v7.9c0,0.4-0.3,0.6-1,0.6H412.3z M413.6,63.3h3.6c1,0,1.8-0.3,2.5-1c0.7-0.7,1-1.5,1-2.4c0-1-0.3-1.8-1-2.4
						c-0.7-0.5-1.6-0.8-2.7-0.8h-3.4L413.6,63.3z"/>
					<path style="fill:#FFFFFF;" d="M432.3,73.8c-0.5,0-0.9-0.3-0.9-0.8V55.6c0-0.5,0.3-0.8,0.9-0.8h9.5c0.2,0,0.3,0.1,0.4,0.2
						s0.1,0.3,0.1,0.6V56c0,0.3,0,0.5-0.1,0.6s-0.2,0.2-0.4,0.2h-8V63h7.2c0.2,0,0.3,0.1,0.4,0.2c0.1,0.1,0.1,0.3,0.1,0.6v0.4
						c0,0.5-0.2,0.9-0.5,0.9h-7.2v6.6h8c0.3,0,0.5,0.3,0.5,0.8V73c0,0.3,0,0.5-0.1,0.6c-0.1,0.1-0.2,0.2-0.4,0.2L432.3,73.8z"/>
					<path style="fill:#FFFFFF;" d="M454.1,73.9c-1,0-1.9-0.1-2.9-0.3c-0.9-0.3-1.6-0.5-2.1-0.8c-0.5-0.3-0.7-0.6-0.7-0.9
						c0-0.3,0.1-0.5,0.3-0.9s0.4-0.6,0.6-0.6c0.1,0,0.3,0.1,0.5,0.3c0.3,0.2,0.6,0.3,0.9,0.4c0.3,0.2,0.8,0.3,1.4,0.4
						c0.6,0.2,1.2,0.3,1.8,0.3c1,0,1.9-0.3,2.6-0.9s1-1.4,1-2.4c0-0.5-0.1-1-0.3-1.3c-0.2-0.3-0.5-0.7-1-1c-0.4-0.3-0.8-0.5-1.2-0.7
						c-0.3-0.2-0.9-0.3-1.5-0.6c-0.1,0-0.2-0.1-0.2-0.1l0,0l0,0l0,0l0,0l0,0l0,0l0,0c-1.3-0.5-2.2-1-2.7-1.3c-1.2-1-1.9-2.3-1.9-4
						c0-1.5,0.5-2.7,1.7-3.7c1.1-1,2.6-1.4,4.4-1.4c0.9,0,1.8,0.2,2.9,0.5c1,0.3,1.5,0.7,1.5,1.2c0,0.2-0.1,0.5-0.3,0.9
						c-0.3,0.3-0.4,0.5-0.5,0.5c-0.1,0-0.3-0.1-0.6-0.3c-0.3-0.2-0.7-0.3-1.2-0.5s-1.1-0.3-1.7-0.3c-1,0-1.9,0.3-2.5,0.8
						c-0.7,0.5-1,1.3-1,2.3c0,0.3,0.1,0.7,0.2,1c0.2,0.3,0.3,0.5,0.4,0.7c0.1,0.2,0.4,0.3,0.8,0.6c0.4,0.3,0.7,0.3,0.9,0.4
						c0.2,0.1,0.5,0.2,1.1,0.4c0.2,0.1,0.3,0.1,0.3,0.1c0.3,0.2,0.6,0.3,0.8,0.3c0.2,0.1,0.4,0.2,0.8,0.3c0.3,0.2,0.6,0.3,0.8,0.4
						c0.2,0.1,0.4,0.3,0.7,0.4s0.5,0.3,0.7,0.6c0.2,0.2,0.3,0.4,0.5,0.7c0.2,0.3,0.3,0.5,0.4,0.8c0.1,0.3,0.2,0.6,0.3,1
						c0.1,0.3,0.1,0.8,0.1,1.1c0,1.7-0.5,2.9-1.7,3.8C457.4,73.5,456,73.9,454.1,73.9z"/>
				</g>
				<g>
					<path style="fill:#FFFFFF;" d="M259.2,132.3c-0.3,0-0.5-0.2-0.5-0.5v-11c0-0.3,0.2-0.5,0.5-0.5h6c0.1,0,0.2,0,0.3,0.1
						c0.1,0.1,0.1,0.2,0.1,0.4v0.3c0,0.2,0,0.3-0.1,0.4c-0.1,0.1-0.2,0.1-0.3,0.1h-5.1v3.9h4.5c0.1,0,0.2,0,0.3,0.1
						c0.1,0.1,0.1,0.2,0.1,0.4v0.3c0,0.3-0.1,0.5-0.3,0.5h-4.5v4.2h5.1c0.3,0,0.3,0.2,0.3,0.5v0.3c0,0.2,0,0.3-0.1,0.4
						c-0.1,0.1-0.2,0.1-0.3,0.1L259.2,132.3z"/>
					<path style="fill:#FFFFFF;" d="M273,132.4c-1,0-1.8-0.4-2.4-1.3s-0.9-1.9-0.9-3.3c0-1.5,0.3-2.6,1-3.4c0.6-0.8,1.5-1.2,2.5-1.2
						c0.9,0,1.7,0.3,2.4,0.9v-4.4c0-0.3,0.3-0.3,0.7-0.3h0.1c0.4,0,0.7,0.1,0.7,0.3v10.1c0,0.3,0,0.5,0,0.8c0,0.3,0,0.4,0.1,0.6
						c0,0.2,0,0.3,0.1,0.4c0,0.1,0,0.2,0.1,0.3c0,0.1,0,0.1,0,0.1c0,0.2-0.1,0.3-0.3,0.3c-0.2,0.1-0.4,0.1-0.6,0.1
						c-0.1,0-0.1,0-0.2,0c-0.1,0-0.1-0.1-0.1-0.1c0-0.1-0.1-0.1-0.1-0.2c0-0.1-0.1-0.1-0.1-0.2s-0.1-0.2-0.1-0.2
						c0-0.1,0-0.1-0.1-0.3c0-0.1,0-0.2-0.1-0.2C274.9,132,274,132.4,273,132.4z M273.2,131.2c0.3,0,0.8-0.1,1.2-0.3
						c0.4-0.2,0.8-0.5,1.1-0.9v-4.7c-0.6-0.5-1.3-0.8-2.1-0.8s-1.3,0.3-1.7,0.9c-0.3,0.5-0.6,1.3-0.6,2.4c0,1.1,0.2,2,0.5,2.6
						C272.1,130.8,272.6,131.2,273.2,131.2z"/>
					<path style="fill:#FFFFFF;" d="M284.9,132.4c-0.9,0-1.6-0.3-2.1-0.7c-0.5-0.5-0.8-1.1-0.8-2v-6c0-0.3,0.3-0.3,0.7-0.3h0.1
						c0.4,0,0.7,0.1,0.7,0.3v5.9c0,0.5,0.2,1,0.4,1.2c0.3,0.3,0.7,0.4,1.3,0.4c0.3,0,0.8-0.1,1.1-0.3c0.3-0.3,0.7-0.5,1-0.9v-6.3
						c0-0.3,0.3-0.3,0.7-0.3h0.1c0.4,0,0.7,0.1,0.7,0.3v6.1c0,0.3,0,0.5,0,0.8s0,0.4,0.1,0.6c0,0.2,0,0.3,0.1,0.4
						c0,0.1,0,0.2,0.1,0.3c0,0.1,0,0.1,0,0.1c0,0.2-0.1,0.3-0.3,0.3c-0.2,0.1-0.4,0.1-0.6,0.1c-0.1,0-0.2,0-0.2-0.1
						c-0.1-0.1-0.1-0.1-0.2-0.3c0-0.1-0.1-0.2-0.1-0.3c0-0.1-0.1-0.2-0.1-0.3c0-0.2-0.1-0.3-0.1-0.3c-0.3,0.4-0.8,0.7-1.2,1
						C285.8,132.3,285.4,132.4,284.9,132.4z"/>
					<path style="fill:#FFFFFF;" d="M297.8,132.4c-1.4,0-2.5-0.3-3.2-1.1c-0.7-0.7-1-1.9-1-3.6c0-0.7,0.1-1.3,0.3-1.8s0.3-1,0.6-1.3
						c0.3-0.3,0.6-0.6,1-0.8s0.7-0.3,1.1-0.4c0.3-0.1,0.8-0.1,1.2-0.1c0.7,0,1.3,0.1,1.8,0.3c0.5,0.2,0.8,0.3,0.8,0.5
						c0,0.2-0.1,0.3-0.2,0.6c-0.2,0.3-0.3,0.3-0.3,0.3l0,0c0,0,0,0-0.1,0h-0.1c-0.7-0.3-1.3-0.4-1.9-0.4c-1.7,0-2.5,1.1-2.5,3.3
						c0,1.2,0.2,2.1,0.6,2.6c0.4,0.5,1.1,0.8,2.1,0.8c0.7,0,1.4-0.2,1.9-0.4l0.2-0.1c0.1,0,0.3,0.1,0.3,0.3c0.2,0.3,0.2,0.4,0.2,0.5
						c0,0.2-0.3,0.4-0.8,0.6C299.2,132.3,298.6,132.4,297.8,132.4z"/>
					<path style="fill:#FFFFFF;" d="M307.1,132.4c-0.9,0-1.6-0.2-2.1-0.6c-0.5-0.4-0.8-1-0.8-1.9c0-0.3,0-0.6,0.1-0.9
						c0.1-0.3,0.2-0.5,0.3-0.7c0.1-0.2,0.3-0.3,0.5-0.5c0.2-0.2,0.4-0.3,0.6-0.4c0.2-0.1,0.4-0.2,0.7-0.3c0.3-0.1,0.5-0.2,0.8-0.2
						s0.5-0.1,0.9-0.1c0.3,0,0.6-0.1,0.9-0.1s0.5,0,0.9,0v-0.8c0-0.4-0.2-0.8-0.4-1c-0.3-0.3-0.8-0.4-1.5-0.4
						c-0.4,0-0.9,0.1-1.3,0.2c-0.4,0.1-0.8,0.3-1,0.3c-0.3,0.1-0.3,0.2-0.3,0.2c-0.1,0-0.3-0.1-0.3-0.3c-0.2-0.3-0.2-0.4-0.2-0.5
						c0-0.2,0.2-0.3,0.4-0.5c0.3-0.2,0.7-0.3,1.2-0.4c0.5-0.1,1-0.2,1.6-0.2c1,0,1.9,0.3,2.5,0.7c0.6,0.4,0.9,1.1,0.9,2v3.8
						c0,0.3,0,0.5,0,0.8c0,0.3,0,0.4,0.1,0.6c0,0.2,0,0.3,0.1,0.4c0,0.1,0,0.2,0.1,0.3c0,0.1,0,0.1,0,0.1c0,0.2-0.1,0.3-0.3,0.3
						c-0.2,0.1-0.4,0.1-0.6,0.1c-0.1,0-0.2,0-0.3-0.1c-0.1-0.1-0.1-0.2-0.2-0.3c0-0.1-0.1-0.3-0.1-0.3c0-0.1-0.1-0.3-0.1-0.3
						c0-0.1,0-0.1,0-0.1C309.2,132,308.3,132.4,307.1,132.4z M307.2,131.2c0.5,0,1-0.1,1.5-0.3c0.4-0.2,0.8-0.5,1.2-0.9v-2
						c-1.2,0-2,0.1-2.5,0.2c-1.1,0.3-1.7,0.8-1.7,1.7c0,0.4,0.1,0.8,0.3,1C306.3,131,306.7,131.2,307.2,131.2z"/>
					<path style="fill:#FFFFFF;" d="M319.3,132.4c-1,0-1.8-0.4-2.4-1.3c-0.6-0.9-0.9-1.9-0.9-3.3c0-1.5,0.3-2.6,1-3.4
						c0.6-0.8,1.5-1.2,2.5-1.2c0.9,0,1.7,0.3,2.4,0.9v-4.4c0-0.3,0.3-0.3,0.7-0.3h0.1c0.4,0,0.7,0.1,0.7,0.3v10.1c0,0.3,0,0.5,0,0.8
						c0,0.3,0,0.4,0.1,0.6c0,0.2,0,0.3,0.1,0.4c0,0.1,0,0.2,0.1,0.3c0,0.1,0,0.1,0,0.1c0,0.2-0.1,0.3-0.3,0.3
						c-0.2,0.1-0.4,0.1-0.6,0.1c-0.1,0-0.1,0-0.2,0s-0.1-0.1-0.1-0.1c0-0.1-0.1-0.1-0.1-0.2c0-0.1-0.1-0.1-0.1-0.2s-0.1-0.2-0.1-0.2
						c0-0.1,0-0.1-0.1-0.3c0-0.1,0-0.2-0.1-0.2C321.1,132,320.2,132.4,319.3,132.4z M319.5,131.2c0.3,0,0.8-0.1,1.2-0.3
						c0.4-0.2,0.8-0.5,1.1-0.9v-4.7c-0.6-0.5-1.3-0.8-2.1-0.8s-1.3,0.3-1.7,0.9s-0.6,1.3-0.6,2.4c0,1.1,0.2,2,0.5,2.6
						C318.3,130.8,318.8,131.2,319.5,131.2z"/>
					<path style="fill:#FFFFFF;" d="M332,132.4c-1.3,0-2.3-0.3-3-1.1c-0.7-0.8-1-1.9-1-3.4s0.3-2.6,1-3.5c0.7-0.8,1.7-1.2,3-1.2
						c1.3,0,2.3,0.4,2.9,1.2c0.7,0.8,1,1.9,1,3.5c0,1.5-0.3,2.6-1,3.4C334.2,132.1,333.3,132.4,332,132.4z M332,131.2
						c0.9,0,1.5-0.3,1.8-0.8c0.4-0.5,0.6-1.4,0.6-2.5c0-1.1-0.2-2-0.6-2.5c-0.4-0.5-1-0.8-1.8-0.8c-0.9,0-1.5,0.3-1.8,0.8
						c-0.4,0.5-0.6,1.4-0.6,2.5c0,1.1,0.2,2,0.6,2.5C330.6,130.9,331.1,131.2,332,131.2z"/>
					<path style="fill:#FFFFFF;" d="M341.4,132.3c-0.4,0-0.7-0.1-0.7-0.3v-6c0-0.3,0-0.5,0-0.8c0-0.3,0-0.4-0.1-0.6
						c0-0.2,0-0.3-0.1-0.4c0-0.1,0-0.2-0.1-0.3c0-0.1,0-0.1,0-0.1c0-0.2,0.1-0.3,0.3-0.3c0.2-0.1,0.4-0.1,0.6-0.1c0.1,0,0.1,0,0.2,0
						c0.1,0,0.1,0.1,0.1,0.1c0,0.1,0.1,0.1,0.1,0.2c0,0.1,0.1,0.1,0.1,0.2c0,0.1,0,0.2,0.1,0.2c0,0.1,0,0.2,0.1,0.3
						c0,0.1,0,0.2,0.1,0.2c0.6-0.9,1.2-1.3,2-1.3c0.3,0,0.5,0.1,0.7,0.2c0.2,0.1,0.3,0.3,0.3,0.4s0,0.4-0.1,0.6
						c-0.1,0.3-0.2,0.3-0.3,0.3c0,0-0.2,0-0.3-0.1c-0.2-0.1-0.3-0.1-0.6-0.1c-0.2,0-0.3,0-0.5,0.1c-0.2,0.1-0.3,0.2-0.4,0.3
						c-0.1,0.1-0.3,0.2-0.3,0.3c-0.1,0.1-0.2,0.2-0.3,0.3l-0.1,0.1v6.3C342.2,132.2,341.9,132.3,341.4,132.3L341.4,132.3z"/>
					<path style="fill:#FFFFFF;" d="M352.9,132.4c-1.4,0-2.5-0.3-3.2-1.1c-0.7-0.8-1-1.9-1-3.4c0-1.6,0.3-2.7,1-3.5
						c0.7-0.8,1.7-1.2,3-1.2c1.1,0,2.1,0.3,2.6,1.1c0.6,0.8,0.9,1.9,0.9,3.3c0,0.1-0.1,0.3-0.2,0.4c-0.2,0.2-0.3,0.3-0.3,0.3h-5.5
						c0.1,1,0.3,1.7,0.8,2.1c0.4,0.4,1,0.7,1.9,0.7c0.4,0,0.9-0.1,1.2-0.2c0.3-0.1,0.7-0.3,0.9-0.3c0.3-0.1,0.3-0.2,0.3-0.2
						c0.1,0,0.3,0.1,0.3,0.3c0.2,0.3,0.2,0.4,0.2,0.5c0,0.2-0.2,0.3-0.4,0.4c-0.3,0.2-0.6,0.3-1.1,0.4
						C354,132.3,353.5,132.4,352.9,132.4z M350.2,127.2h4.5c0-1.8-0.7-2.7-2-2.7C351.2,124.5,350.4,125.3,350.2,127.2z"/>
					<path style="fill:#FFFFFF;" d="M362.7,132.4c-0.5,0-1-0.1-1.4-0.2c-0.4-0.1-0.8-0.3-1-0.4c-0.3-0.2-0.3-0.3-0.3-0.4
						s0.1-0.3,0.2-0.5c0.2-0.3,0.3-0.3,0.3-0.3c0,0,0.1,0,0.2,0.1c0.1,0.1,0.3,0.2,0.4,0.3c0.2,0.1,0.3,0.2,0.6,0.3
						c0.3,0.1,0.5,0.1,0.8,0.1c1.1,0,1.7-0.4,1.7-1.4c0-0.3-0.1-0.7-0.3-1s-0.7-0.4-1.4-0.6c-0.9-0.3-1.5-0.6-1.8-1
						c-0.3-0.3-0.5-1-0.5-1.6c0-0.7,0.3-1.3,0.8-1.8c0.5-0.4,1.2-0.7,2.1-0.7c0.6,0,1.1,0.1,1.6,0.3c0.4,0.2,0.7,0.3,0.7,0.5
						c0,0.2-0.1,0.3-0.2,0.6c-0.1,0.3-0.3,0.3-0.3,0.3c0,0-0.1,0-0.3-0.1c-0.2-0.1-0.3-0.2-0.6-0.3c-0.3-0.1-0.5-0.1-0.8-0.1
						c-0.4,0-0.8,0.1-1.1,0.3c-0.3,0.2-0.4,0.4-0.4,0.8c0,0.3,0.1,0.7,0.3,1c0.2,0.3,0.5,0.4,1,0.6c1,0.3,1.8,0.7,2.2,1
						c0.3,0.3,0.6,1,0.6,1.7s-0.3,1.4-0.9,1.9C364.3,132.2,363.5,132.4,362.7,132.4z"/>
					<path style="fill:#FFFFFF;" d="M378.6,132.4c-0.5,0-1-0.1-1.4-0.2c-0.4-0.1-0.8-0.3-1-0.4c-0.3-0.2-0.3-0.3-0.3-0.4
						s0.1-0.3,0.2-0.5c0.2-0.3,0.3-0.3,0.3-0.3c0,0,0.1,0,0.2,0.1c0.1,0.1,0.3,0.2,0.4,0.3c0.2,0.1,0.3,0.2,0.6,0.3s0.5,0.1,0.8,0.1
						c1.1,0,1.7-0.4,1.7-1.4c0-0.3-0.1-0.7-0.3-1s-0.7-0.4-1.4-0.6c-0.9-0.3-1.5-0.6-1.8-1c-0.3-0.3-0.5-1-0.5-1.6
						c0-0.7,0.3-1.3,0.8-1.8c0.5-0.4,1.2-0.7,2.1-0.7c0.6,0,1.1,0.1,1.6,0.3c0.4,0.2,0.7,0.3,0.7,0.5c0,0.2-0.1,0.3-0.2,0.6
						c-0.1,0.3-0.3,0.3-0.3,0.3c0,0-0.1,0-0.3-0.1c-0.2-0.1-0.3-0.2-0.6-0.3c-0.3-0.1-0.5-0.1-0.8-0.1c-0.4,0-0.8,0.1-1.1,0.3
						c-0.3,0.2-0.4,0.4-0.4,0.8c0,0.3,0.1,0.7,0.3,1c0.2,0.3,0.5,0.4,1,0.6c1,0.3,1.8,0.7,2.2,1c0.3,0.3,0.6,1,0.6,1.7
						s-0.3,1.4-0.9,1.9C380.1,132.2,379.4,132.4,378.6,132.4z"/>
					<path style="fill:#FFFFFF;" d="M389.6,132.4c-1.3,0-2.3-0.3-3-1.1c-0.7-0.8-1-1.9-1-3.4s0.3-2.6,1-3.5c0.7-0.8,1.7-1.2,3-1.2
						c1.3,0,2.3,0.4,2.9,1.2c0.7,0.8,1,1.9,1,3.5c0,1.5-0.3,2.6-1,3.4C391.8,132.1,390.9,132.4,389.6,132.4z M389.5,131.2
						c0.9,0,1.5-0.3,1.8-0.8c0.4-0.5,0.6-1.4,0.6-2.5c0-1.1-0.2-2-0.6-2.5c-0.4-0.5-1-0.8-1.8-0.8c-0.9,0-1.5,0.3-1.8,0.8
						c-0.4,0.5-0.6,1.4-0.6,2.5c0,1.1,0.2,2,0.6,2.5C388.1,130.8,388.7,131.2,389.5,131.2z"/>
					<path style="fill:#FFFFFF;" d="M407.3,123.1c0.3,0,0.5,0,0.7,0.1c0.3,0,0.4,0.1,0.7,0.3c0.3,0.1,0.4,0.3,0.6,0.5
						c0.2,0.2,0.3,0.4,0.4,0.8c0.1,0.3,0.2,0.7,0.2,1.2v5.9c0,0.3-0.3,0.3-0.7,0.3h-0.1c-0.4,0-0.7-0.1-0.7-0.3v-5.9
						c0-0.5-0.2-1-0.4-1.2c-0.3-0.3-0.7-0.4-1.2-0.4c-0.3,0-0.4,0-0.7,0.2c-0.3,0.1-0.4,0.2-0.6,0.3s-0.3,0.3-0.4,0.3
						c-0.1,0.1-0.3,0.3-0.3,0.3c0,0.1,0,0.2,0,0.3v5.9c0,0.3-0.3,0.3-0.7,0.3h-0.1c-0.4,0-0.7-0.1-0.7-0.3v-5.9c0-0.5-0.2-1-0.4-1.2
						c-0.3-0.3-0.7-0.4-1.2-0.4c-0.3,0-0.4,0-0.7,0.1c-0.3,0.1-0.4,0.2-0.6,0.3c-0.2,0.1-0.3,0.3-0.4,0.3c-0.2,0.1-0.3,0.2-0.3,0.3
						l-0.1,0.1v6.3c0,0.3-0.3,0.3-0.7,0.3h-0.1c-0.4,0-0.7-0.1-0.7-0.3v-6c0-0.3,0-0.5,0-0.8c0-0.3,0-0.4-0.1-0.6
						c0-0.2,0-0.3-0.1-0.4c0-0.1,0-0.2-0.1-0.3c0-0.1,0-0.1,0-0.1c0-0.2,0.1-0.3,0.3-0.3c0.2-0.1,0.4-0.1,0.6-0.1
						c0.1,0,0.2,0,0.2,0.1c0.1,0.1,0.1,0.1,0.2,0.3c0,0.1,0.1,0.2,0.1,0.3c0,0.1,0.1,0.2,0.1,0.3s0.1,0.3,0.1,0.3
						c0.3-0.3,0.7-0.7,1.1-1c0.4-0.3,1-0.3,1.5-0.3c0.3,0,0.4,0,0.7,0.1c0.3,0,0.4,0.1,0.7,0.2c0.3,0.1,0.4,0.3,0.6,0.4
						c0.2,0.2,0.3,0.4,0.4,0.7c0.3-0.4,0.8-0.8,1.2-1C406.3,123.3,406.8,123.1,407.3,123.1z"/>
					<path style="fill:#FFFFFF;" d="M418.6,132.4c-1.3,0-2.3-0.3-3-1.1s-1-1.9-1-3.4s0.3-2.6,1-3.5c0.7-0.8,1.7-1.2,3-1.2
						s2.3,0.4,2.9,1.2c0.7,0.8,1,1.9,1,3.5c0,1.5-0.3,2.6-1,3.4C420.8,132.1,419.8,132.4,418.6,132.4z M418.5,131.2
						c0.9,0,1.5-0.3,1.8-0.8c0.4-0.5,0.6-1.4,0.6-2.5c0-1.1-0.2-2-0.6-2.5c-0.4-0.5-1-0.8-1.8-0.8c-0.9,0-1.5,0.3-1.8,0.8
						c-0.4,0.5-0.6,1.4-0.6,2.5c0,1.1,0.2,2,0.6,2.5C417,130.8,417.6,131.2,418.5,131.2z"/>
					<path style="fill:#FFFFFF;" d="M429.1,132.4c-0.5,0-1-0.1-1.4-0.2c-0.4-0.1-0.8-0.3-1-0.4c-0.3-0.2-0.3-0.3-0.3-0.4
						s0.1-0.3,0.2-0.5c0.2-0.3,0.3-0.3,0.3-0.3c0,0,0.1,0,0.2,0.1c0.1,0.1,0.3,0.2,0.4,0.3c0.2,0.1,0.3,0.2,0.6,0.3
						c0.3,0.1,0.5,0.1,0.8,0.1c1.1,0,1.7-0.4,1.7-1.4c0-0.3-0.1-0.7-0.3-1s-0.7-0.4-1.4-0.6c-0.9-0.3-1.5-0.6-1.8-1
						c-0.3-0.3-0.5-1-0.5-1.6c0-0.7,0.3-1.3,0.8-1.8c0.5-0.4,1.2-0.7,2.1-0.7c0.6,0,1.1,0.1,1.6,0.3c0.4,0.2,0.7,0.3,0.7,0.5
						c0,0.2-0.1,0.3-0.2,0.6c-0.1,0.3-0.3,0.3-0.3,0.3c0,0-0.1,0-0.3-0.1c-0.2-0.1-0.3-0.2-0.6-0.3c-0.3-0.1-0.5-0.1-0.8-0.1
						c-0.4,0-0.8,0.1-1.1,0.3c-0.3,0.2-0.4,0.4-0.4,0.8c0,0.3,0.1,0.7,0.3,1c0.2,0.3,0.5,0.4,1,0.6c1,0.3,1.8,0.7,2.2,1
						c0.3,0.3,0.6,1,0.6,1.7s-0.3,1.4-0.9,1.9C430.7,132.2,429.9,132.4,429.1,132.4z"/>
					<path style="fill:#FFFFFF;" d="M445.6,132.4c-0.3,0-0.5,0-0.7-0.1c-0.3-0.1-0.4-0.2-0.7-0.3c-0.3-0.2-0.4-0.4-0.6-0.7
						c-0.2-0.3-0.2-0.7-0.2-1.2v-5.5h-0.9c-0.3,0-0.3-0.2-0.3-0.5v-0.2c0-0.3,0.1-0.5,0.3-0.5h0.9l0.2-1.8c0-0.3,0.2-0.3,0.5-0.3
						h0.2c0.3,0,0.5,0.1,0.5,0.3v1.8h1.4c0.3,0,0.3,0.2,0.3,0.5v0.2c0,0.3-0.1,0.5-0.3,0.5h-1.4v5.3c0,0.4,0.1,0.8,0.3,1
						c0.2,0.2,0.3,0.3,0.7,0.3c0.2,0,0.3,0,0.5,0c0.2,0,0.3,0,0.3,0c0.1,0,0.2,0.1,0.3,0.3c0.1,0.2,0.1,0.3,0.1,0.5
						C446.9,132.2,446.5,132.4,445.6,132.4z"/>
					<path style="fill:#FFFFFF;" d="M454.7,132.4c-1.3,0-2.3-0.3-3-1.1s-1-1.9-1-3.4s0.3-2.6,1-3.5c0.7-0.8,1.7-1.2,3-1.2
						c1.3,0,2.3,0.4,2.9,1.2c0.7,0.8,1,1.9,1,3.5c0,1.5-0.3,2.6-1,3.4C457,132.1,456,132.4,454.7,132.4z M454.7,131.2
						c0.9,0,1.5-0.3,1.8-0.8c0.4-0.5,0.6-1.4,0.6-2.5c0-1.1-0.2-2-0.6-2.5c-0.4-0.5-1-0.8-1.8-0.8c-0.9,0-1.5,0.3-1.8,0.8
						c-0.3,0.5-0.6,1.4-0.6,2.5c0,1.1,0.2,2,0.6,2.5C453.2,130.8,453.8,131.2,454.7,131.2z"/>
					<path style="fill:#FFFFFF;" d="M466.1,132.4c-1,0-1.8-0.4-2.4-1.3c-0.6-0.9-0.9-1.9-0.9-3.3c0-1.5,0.3-2.6,1-3.4
						c0.6-0.8,1.5-1.2,2.5-1.2c0.9,0,1.7,0.3,2.4,0.9v-4.4c0-0.3,0.3-0.3,0.7-0.3h0.1c0.4,0,0.7,0.1,0.7,0.3v10.1c0,0.3,0,0.5,0,0.8
						c0,0.3,0,0.4,0.1,0.6c0,0.2,0,0.3,0.1,0.4c0,0.1,0,0.2,0.1,0.3c0,0.1,0,0.1,0,0.1c0,0.2-0.1,0.3-0.3,0.3
						c-0.2,0.1-0.4,0.1-0.6,0.1c-0.1,0-0.1,0-0.2,0c-0.1,0-0.1-0.1-0.1-0.1c0-0.1-0.1-0.1-0.1-0.2c0-0.1-0.1-0.1-0.1-0.2
						s-0.1-0.2-0.1-0.2c0-0.1,0-0.1-0.1-0.3c0-0.1,0-0.2-0.1-0.2C468,132,467.1,132.4,466.1,132.4z M466.4,131.2
						c0.3,0,0.8-0.1,1.2-0.3c0.4-0.2,0.8-0.5,1.1-0.9v-4.7c-0.6-0.5-1.3-0.8-2.1-0.8s-1.3,0.3-1.7,0.9c-0.3,0.5-0.6,1.3-0.6,2.4
						c0,1.1,0.2,2,0.5,2.6C465.2,130.8,465.7,131.2,466.4,131.2z"/>
					<path style="fill:#FFFFFF;" d="M478.8,132.4c-1.3,0-2.3-0.3-3-1.1s-1-1.9-1-3.4s0.3-2.6,1-3.5c0.7-0.8,1.7-1.2,3-1.2
						s2.3,0.4,2.9,1.2c0.7,0.8,1,1.9,1,3.5c0,1.5-0.3,2.6-1,3.4C481.1,132.1,480.1,132.4,478.8,132.4z M478.8,131.2
						c0.9,0,1.5-0.3,1.8-0.8c0.4-0.5,0.6-1.4,0.6-2.5c0-1.1-0.2-2-0.6-2.5c-0.4-0.5-1-0.8-1.8-0.8c-0.9,0-1.5,0.3-1.8,0.8
						c-0.3,0.5-0.6,1.4-0.6,2.5c0,1.1,0.2,2,0.6,2.5C477.3,130.8,477.9,131.2,478.8,131.2z"/>
					<path style="fill:#FFFFFF;" d="M489.3,132.4c-0.5,0-1-0.1-1.4-0.2c-0.4-0.1-0.8-0.3-1-0.4c-0.3-0.2-0.3-0.3-0.3-0.4
						s0.1-0.3,0.2-0.5c0.2-0.3,0.3-0.3,0.3-0.3c0,0,0.1,0,0.2,0.1c0.1,0.1,0.3,0.2,0.4,0.3s0.3,0.2,0.6,0.3s0.5,0.1,0.8,0.1
						c1.1,0,1.7-0.4,1.7-1.4c0-0.3-0.1-0.7-0.3-1s-0.7-0.4-1.4-0.6c-0.9-0.3-1.5-0.6-1.8-1c-0.3-0.3-0.5-1-0.5-1.6
						c0-0.7,0.3-1.3,0.8-1.8c0.5-0.4,1.2-0.7,2.1-0.7c0.6,0,1.1,0.1,1.6,0.3c0.4,0.2,0.7,0.3,0.7,0.5c0,0.2-0.1,0.3-0.2,0.6
						c-0.1,0.3-0.3,0.3-0.3,0.3c0,0-0.1,0-0.3-0.1c-0.2-0.1-0.3-0.2-0.6-0.3c-0.3-0.1-0.5-0.1-0.8-0.1c-0.4,0-0.8,0.1-1.1,0.3
						c-0.3,0.2-0.4,0.4-0.4,0.8c0,0.3,0.1,0.7,0.3,1c0.2,0.3,0.5,0.4,1,0.6c1,0.3,1.8,0.7,2.2,1c0.3,0.3,0.6,1,0.6,1.7
						s-0.3,1.4-0.9,1.9C490.9,132.2,490.2,132.4,489.3,132.4z"/>
					<path style="fill:#FFFFFF;" d="M502.8,132.3c-0.5,0-0.7-0.1-0.7-0.3c0-0.1,0-0.1,0.1-0.3l4.1-11.4c0.1-0.2,0.3-0.3,0.7-0.3h0.5
						c0.4,0,0.6,0.1,0.7,0.3l4.1,11.4c0,0.1,0.1,0.2,0.1,0.2c0,0.2-0.3,0.3-0.7,0.3h-0.1c-0.4,0-0.6-0.1-0.7-0.3l-1-2.8h-5.3l-1,2.8
						C503.5,132.2,503.3,132.2,502.8,132.3L502.8,132.3L502.8,132.3z M505,128h4.1l-1.8-5.2c-0.1-0.2-0.1-0.5-0.2-1l0,0
						c-0.1,0.3-0.2,0.7-0.3,1L505,128z"/>
					<path style="fill:#FFFFFF;" d="M516.2,132.3c-0.4,0-0.7-0.1-0.7-0.3v-1.1c0-0.3,0.3-0.3,0.7-0.3h0.3c0.4,0,0.7,0.1,0.7,0.3v1.1
						c0,0.3-0.3,0.3-0.7,0.3H516.2z"/>
					<path style="fill:#FFFFFF;" d="M527,132.4c-1.9,0-3.3-0.5-4.2-1.5c-0.9-1-1.4-2.5-1.4-4.6c0-4.1,1.8-6.1,5.6-6.1
						c0.8,0,1.6,0.1,2.3,0.3c0.7,0.3,1,0.4,1,0.7c0,0.2-0.1,0.3-0.2,0.6c-0.2,0.3-0.3,0.3-0.3,0.3c0,0-0.2-0.1-0.3-0.2
						c-0.3-0.1-0.5-0.3-1-0.3c-0.4-0.1-0.9-0.2-1.3-0.2c-1.4,0-2.4,0.3-3.1,1.1c-0.6,0.8-1,2-1,3.7s0.3,2.9,1,3.7
						c0.6,0.8,1.7,1.1,3,1.1c0.4,0,0.8-0.1,1.1-0.2c0.3-0.1,0.7-0.2,0.9-0.3c0.3-0.1,0.4-0.2,0.6-0.3c0.2-0.1,0.3-0.2,0.3-0.2
						c0.1,0,0.3,0.1,0.3,0.3c0.2,0.3,0.2,0.4,0.2,0.5c0,0.2-0.2,0.3-0.4,0.5c-0.3,0.2-0.7,0.3-1.3,0.5
						C528.2,132.3,527.6,132.4,527,132.4z"/>
					<path style="fill:#FFFFFF;" d="M534.9,132.3c-0.4,0-0.7-0.1-0.7-0.3v-1.1c0-0.3,0.3-0.3,0.7-0.3h0.3c0.4,0,0.7,0.1,0.7,0.3v1.1
						c0,0.3-0.3,0.3-0.7,0.3H534.9z"/>
				</g>
				<g>
					<path style="fill:#FFFFFF;" d="M264.3,107.2c-2,0-3.6-0.3-4.8-0.8s-1.8-1.1-1.8-1.7c0-0.4,0.2-1,0.6-1.6c0.4-0.6,0.8-1,1-1
						c0.1,0,0.3,0.1,0.8,0.3c0.3,0.2,0.9,0.4,1.5,0.6s1.2,0.3,1.9,0.3c0.4,0,0.9-0.1,1.2-0.2c0.3-0.1,0.7-0.3,1-0.6
						c0.3-0.3,0.4-0.7,0.4-1.2c0-0.3-0.1-0.5-0.2-0.8c-0.1-0.3-0.3-0.4-0.4-0.6s-0.4-0.3-0.8-0.5c-0.3-0.2-0.6-0.3-0.9-0.4
						c-0.3-0.1-0.6-0.3-1-0.4c-0.4-0.2-0.8-0.3-1-0.4c-0.4-0.2-0.8-0.4-1.1-0.6c-0.3-0.2-0.7-0.4-1-0.8c-0.3-0.3-0.6-0.7-0.9-1
						c-0.3-0.3-0.4-0.9-0.5-1.4c-0.2-0.5-0.2-1.1-0.2-1.8c0-1,0.2-1.8,0.5-2.6c0.3-0.8,0.9-1.3,1.5-1.7s1.3-0.8,2.1-1
						c0.8-0.3,1.6-0.3,2.4-0.3c1.4,0,2.6,0.2,3.6,0.6s1.5,0.9,1.5,1.3s-0.2,1-0.5,1.6c-0.3,0.6-0.7,0.9-1,0.9
						c-0.1,0-0.3-0.1-0.5-0.2c-0.3-0.1-0.6-0.3-1.1-0.3c-0.4-0.1-1-0.2-1.6-0.2c-1,0-1.7,0.2-2,0.4c-0.3,0.3-0.6,0.7-0.6,1.1
						c0,0.3,0.1,0.6,0.2,0.9c0.1,0.3,0.3,0.4,0.3,0.6c0.2,0.2,0.3,0.3,0.7,0.5c0.3,0.2,0.6,0.3,0.8,0.4c0.2,0.1,0.5,0.3,1,0.4
						c0.3,0.1,0.6,0.3,0.8,0.3c0.2,0.1,0.4,0.2,0.8,0.3c0.3,0.2,0.6,0.3,0.8,0.4c0.2,0.1,0.4,0.3,0.7,0.5c0.3,0.3,0.5,0.4,0.7,0.6
						c0.2,0.2,0.3,0.4,0.5,0.7c0.2,0.3,0.3,0.5,0.4,0.9c0.1,0.3,0.2,0.6,0.3,1c0.1,0.3,0.1,0.8,0.1,1.2c0,1.1-0.2,2.1-0.5,2.9
						c-0.3,0.8-0.9,1.5-1.5,1.9c-0.6,0.4-1.3,0.8-2,1C265.9,107.2,265.1,107.2,264.3,107.2z"/>
					<path style="fill:#FFFFFF;" d="M278.3,107.2c-1.1,0-1.7-0.3-1.7-1v-18c0-0.6,0.5-1,1.7-1h1c1.1,0,1.7,0.3,1.7,1v18
						c0,0.6-0.5,1-1.7,1H278.3z"/>
					<path style="fill:#FFFFFF;" d="M290.1,107.2c-1.1,0-1.7-0.3-1.7-0.9v-18c0-0.6,0.5-0.9,1.7-0.9h1.2c0.4,0,0.9,0.1,1.1,0.2
						c0.3,0.1,0.5,0.3,0.7,0.6l6.6,10.2l0.8,1.1V88.3c0-0.6,0.5-0.9,1.7-0.9h0.8c1.1,0,1.7,0.3,1.7,0.9v18c0,0.6-0.5,0.9-1.7,0.9h-1
						c-0.4,0-0.8-0.1-1.1-0.2c-0.3-0.1-0.5-0.3-0.7-0.6l-7-10.7l-0.6-0.9v11.4c0,0.6-0.5,0.9-1.7,0.9L290.1,107.2L290.1,107.2z"/>
					<path style="fill:#FFFFFF;" d="M324.6,107.2c-1.1,0-1.7-0.3-1.7-0.9V88.5c0-0.3,0.1-0.7,0.3-0.9c0.2-0.2,0.4-0.3,0.9-0.3h9.4
						c0.5,0,0.9,0.4,0.9,1.4v0.9c0,1-0.3,1.4-0.9,1.4h-6.2v4.1h5.9c0.3,0,0.5,0.1,0.7,0.3c0.2,0.2,0.2,0.6,0.2,1v0.9
						c0,0.5-0.1,0.9-0.2,1c-0.2,0.3-0.3,0.3-0.7,0.3h-5.9v7.3c0,0.6-0.5,0.9-1.7,0.9L324.6,107.2L324.6,107.2z"/>
					<path style="fill:#FFFFFF;" d="M342.5,107.2c-1.1,0-1.7-0.3-1.7-0.9V88.5c0-0.3,0.1-0.7,0.3-0.9s0.4-0.3,0.9-0.3h5.5
						c4.6,0,7,1.7,7,5.2c0,1-0.3,2-0.9,2.7c-0.6,0.8-1.4,1.3-2.4,1.7v0.1c0.3,0.1,0.7,0.4,1.1,1c0.3,0.5,0.7,1,0.9,1.7l2.4,6.2
						c0.1,0.3,0.2,0.4,0.2,0.5c0,0.3-0.5,0.6-1.7,0.6H353c-1,0-1.5-0.2-1.7-0.6l-2.3-5.5c-0.3-0.6-0.6-1-1-1.3
						c-0.3-0.3-1-0.3-1.8-0.3h-1.1v6.9c0,0.6-0.5,0.9-1.7,0.9L342.5,107.2L342.5,107.2z M345.2,95.6h2.6c0.6,0,1.1-0.3,1.6-0.7
						c0.4-0.4,0.6-1,0.6-1.7s-0.2-1.1-0.6-1.6c-0.4-0.3-1-0.6-1.7-0.6h-2.4V95.6z"/>
					<path style="fill:#FFFFFF;" d="M376.8,104.7c-1.6,1.7-3.8,2.6-6.6,2.6c-2.9,0-5.2-0.9-6.7-2.6c-1.6-1.7-2.4-4.2-2.4-7.4
						s0.8-5.8,2.4-7.5s3.8-2.6,6.7-2.6c2.9,0,5.2,0.9,6.6,2.6c1.6,1.7,2.4,4.2,2.4,7.5C379.2,100.5,378.4,103,376.8,104.7z
						 M366.7,102c0.8,1,1.9,1.7,3.4,1.7c1.5,0,2.6-0.5,3.4-1.7c0.8-1,1.1-2.6,1.1-4.7s-0.3-3.7-1.1-4.7s-1.9-1.7-3.4-1.7
						c-1.5,0-2.6,0.5-3.4,1.7c-0.8,1-1.1,2.7-1.1,4.7C365.5,99.3,365.9,100.9,366.7,102z"/>
					<path style="fill:#FFFFFF;" d="M387.7,107.2c-1.1,0-1.7-0.3-1.7-0.9v-18c0-0.6,0.5-0.9,1.7-0.9h1.2c0.4,0,0.9,0.1,1.1,0.2
						c0.3,0.1,0.5,0.3,0.7,0.6l6.6,10.2l0.8,1.1V88.3c0-0.6,0.5-0.9,1.7-0.9h0.8c1.1,0,1.7,0.3,1.7,0.9v18c0,0.6-0.5,0.9-1.7,0.9h-1
						c-0.4,0-0.8-0.1-1.1-0.2c-0.3-0.1-0.5-0.3-0.7-0.6l-7-10.7l-0.6-0.9v11.4c0,0.6-0.5,0.9-1.7,0.9L387.7,107.2L387.7,107.2z"/>
					<path style="fill:#FFFFFF;" d="M415.4,107.2c-1.1,0-1.7-0.3-1.7-0.9V91.1h-4.5c-0.6,0-0.9-0.4-0.9-1.4v-0.9
						c0-1,0.3-1.4,0.9-1.4h13.3c0.3,0,0.5,0.1,0.6,0.3c0.1,0.2,0.2,0.6,0.2,1v0.9c0,0.5-0.1,0.9-0.2,1c-0.1,0.3-0.3,0.3-0.6,0.3
						h-4.5v15.2c0,0.6-0.5,0.9-1.7,0.9L415.4,107.2L415.4,107.2z"/>
					<path style="fill:#FFFFFF;" d="M430.4,107.1c-0.4,0-0.7-0.1-0.9-0.3c-0.2-0.2-0.3-0.4-0.3-0.9V88.4c0-0.3,0.1-0.7,0.3-0.9
						s0.4-0.3,0.9-0.3h10.3c0.6,0,0.9,0.4,0.9,1.4v0.9c0,1-0.3,1.4-0.9,1.4h-7.1v4.1h6.4c0.3,0,0.5,0.1,0.6,0.3
						c0.1,0.2,0.2,0.6,0.2,1v0.9c0,0.5-0.1,0.9-0.2,1c-0.1,0.3-0.3,0.3-0.6,0.3h-6.4v4.5h7.2c0.6,0,0.9,0.4,0.9,1.4v0.9
						c0,1-0.3,1.4-0.9,1.4L430.4,107.1z"/>
					<path style="fill:#FFFFFF;" d="M450.1,107.2c-1.1,0-1.7-0.3-1.7-0.9V88.5c0-0.3,0.1-0.7,0.3-0.9c0.2-0.2,0.4-0.3,0.9-0.3h5.5
						c4.6,0,7,1.7,7,5.2c0,1-0.3,2-0.9,2.7c-0.6,0.8-1.4,1.3-2.4,1.7v0.1c0.3,0.1,0.7,0.4,1.1,1c0.3,0.5,0.7,1,0.9,1.7l2.4,6.2
						c0.1,0.3,0.2,0.4,0.2,0.5c0,0.3-0.5,0.6-1.7,0.6h-1.1c-1,0-1.5-0.2-1.7-0.6l-2.3-5.5c-0.3-0.6-0.6-1-1-1.3
						c-0.3-0.3-1-0.3-1.8-0.3h-1.1v6.9c0,0.6-0.5,0.9-1.7,0.9L450.1,107.2L450.1,107.2z M452.7,95.6h2.6c0.6,0,1.1-0.3,1.6-0.7
						s0.6-1,0.6-1.7s-0.2-1.1-0.6-1.6c-0.4-0.3-1-0.6-1.7-0.6h-2.4V95.6z"/>
					<path style="fill:#FFFFFF;" d="M469.1,107.2c-1.1,0-1.7-0.2-1.7-0.6c0-0.1,0-0.3,0.1-0.5l6.2-18.1c0.1-0.3,0.7-0.6,1.6-0.6h1.5
						c1,0,1.5,0.2,1.6,0.6l6.2,18.1c0,0.3,0.1,0.4,0.1,0.5c0,0.4-0.4,0.6-1.4,0.6H482c-1,0-1.5-0.2-1.6-0.6l-1.1-3.4h-6.6l-1.1,3.4
						c-0.2,0.4-0.6,0.6-1.3,0.6H469.1z M473.8,99.4h4.2l-1.6-5c-0.1-0.4-0.3-1-0.4-1.8h-0.1c-0.1,0.8-0.3,1.4-0.4,1.8L473.8,99.4z"
						/>
					<path style="fill:#FFFFFF;" d="M495.6,107.3c-2,0-3.6-0.3-4.8-0.8c-1.2-0.5-1.8-1.1-1.8-1.7c0-0.4,0.2-1,0.6-1.6
						c0.4-0.6,0.8-1,1-1c0.1,0,0.3,0.1,0.8,0.3c0.3,0.2,0.9,0.4,1.5,0.6c0.6,0.2,1.2,0.3,1.9,0.3c0.4,0,0.9-0.1,1.2-0.2
						c0.3-0.1,0.7-0.3,1-0.6c0.3-0.3,0.4-0.7,0.4-1.2c0-0.3-0.1-0.5-0.2-0.8c-0.1-0.3-0.3-0.4-0.4-0.6s-0.4-0.3-0.8-0.5
						c-0.3-0.2-0.6-0.3-0.9-0.4c-0.3-0.1-0.6-0.3-1-0.4c-0.4-0.2-0.8-0.3-1-0.4c-0.4-0.2-0.8-0.4-1.1-0.6c-0.3-0.2-0.7-0.4-1-0.8
						c-0.3-0.3-0.6-0.7-0.9-1c-0.3-0.3-0.4-0.9-0.5-1.4c-0.2-0.5-0.2-1.1-0.2-1.8c0-1,0.2-1.8,0.5-2.6c0.3-0.8,0.9-1.3,1.5-1.7
						c0.6-0.4,1.3-0.8,2.1-1c0.8-0.3,1.6-0.3,2.4-0.3c1.4,0,2.6,0.2,3.6,0.6c1,0.4,1.5,0.9,1.5,1.3s-0.2,1-0.5,1.6
						c-0.3,0.6-0.7,0.9-1,0.9c-0.1,0-0.3-0.1-0.5-0.2c-0.3-0.1-0.6-0.3-1.1-0.3c-0.4-0.1-1-0.2-1.6-0.2c-1,0-1.7,0.2-2,0.4
						c-0.3,0.3-0.6,0.7-0.6,1.1c0,0.3,0.1,0.6,0.2,0.9c0.1,0.3,0.3,0.4,0.3,0.6c0.2,0.2,0.3,0.3,0.7,0.5c0.3,0.2,0.6,0.3,0.8,0.4
						c0.2,0.1,0.5,0.3,1,0.4c0.3,0.1,0.6,0.3,0.8,0.3c0.2,0.1,0.4,0.2,0.8,0.3c0.3,0.2,0.6,0.3,0.8,0.4c0.2,0.1,0.4,0.3,0.7,0.5
						c0.3,0.2,0.5,0.4,0.7,0.6c0.2,0.2,0.3,0.4,0.5,0.7c0.2,0.3,0.3,0.5,0.4,0.9c0.1,0.3,0.2,0.6,0.3,1c0.1,0.3,0.1,0.8,0.1,1.2
						c0,1.1-0.2,2.1-0.5,2.9c-0.3,0.8-0.9,1.5-1.5,1.9c-0.6,0.4-1.3,0.8-2,1C497.2,107.2,496.5,107.3,495.6,107.3z"/>
				</g>
				<g>
					<path style="fill:#C6C5C4;" d="M141.7,105.1c-2.5-7.7-5.9-12.9-5.9-12.9s0-0.4,0-0.9s0-0.4,0.4-0.4c0.4,0,5.9-3.2,5.5-10.1
						c0-4.5-1.4-7.8-3.2-9.1c-1.8-1.4-4.1-2.3-7.3-1.8c-8.2,0.4-10.1,3.7-10.1,8.7c-0.9,10.5,5.9,11.9,6.4,12.3
						c0.4,0,0.4,0.4,0.9,0.4c0,0.4,0,0.4,0,0.9c0,0-8.7,9.6-8.7,31c-0.3,8-0.1,15.1,0.3,20.8c6.5,3.3,13.6,6.1,20.7,7.8
						c-0.8-7-1.4-15.6-1.4-25.9C139.6,117.8,140.4,110.9,141.7,105.1z"/>
					<g>
						<path style="fill:#DBDADA;" d="M177,121.9c-0.4-20.5-11.9-37.9-11.9-38.4c0,0,0-0.4,0-0.9s0-0.4,0.4-0.4
							c0.4,0,7.8-4.5,7.8-13.7l0,0l0,0c-0.4-6.4-1.8-10.5-4.5-12.8c-2.3-2.3-5.5-2.7-10.1-2.7c-11.5,0.9-13.7,5-14.2,12.3
							c-0.9,15,8.7,16.9,8.7,16.9c0.4,0,0.4,0.4,0.9,0.4c0,0.4,0,0.4,0,0.9c0,0-11.5,13.2-11.5,42c-0.6,10.8-0.2,19.8,0.5,26.8
							c4.3,0.9,8.7,1.5,12.8,1.5c6.7,0,13-0.5,19.1-1.7C176.2,142.6,177.2,131.2,177,121.9z"/>
					</g>
					<g>
						<path style="fill:#CBCBCA;" d="M188.9,102.3c0,0,0-0.4,0-0.9s0-0.4,0.4-0.4c0,0,3.8-2.1,4.5-6.3c0.1-0.6,0.1-1.2,0.1-1.9
							c0-3.7-0.9-6.4-2.7-7.8c-1.4-1.4-3.2-1.8-5.9-1.4c-6.8,0.4-8.2,2.7-8.7,7.3c-0.4,9.1,5,10.1,5.5,10.1c0.5,0,0.4,0.4,0.9,0.4
							c0,0.4,0,0.4,0,0.9c0,0-3.2,3.6-5.3,11.4c0.4,2.7,0.7,5.4,0.8,8.3c0.2,9.3-0.8,20.5-1.9,30c6.4-1.3,12.4-3.3,18.4-6.2
							c0.7-6.7,1.3-14.2,1.3-19.7C195.7,113.3,188.9,102.3,188.9,102.3z"/>
					</g>
					<g>
						<path style="fill:#E4E4E4;" d="M204.9,115.5c0,0,0-0.4,0-0.9s0-0.4,0.4-0.4c0,0,3.2-1.8,3.2-5.9c0-2.7-0.9-4.5-1.8-5.5
							c-0.9-0.9-2.3-1.4-4.1-0.9c-5,0.4-5.9,1.8-5.9,5c-0.4,6.4,3.7,7.3,3.7,7.3c0.4,0,0.4,0.4,0.9,0.4c0,0.4,0,0.4,0,0.9
							c0,0-2.3,2.8-3.8,8.7c0,0.4,0.1,0.9,0.1,1.4c0.2,5.5-0.3,12.7-1,19.3c4.5-2.4,9.1-5.2,13.7-8.7c0.1-1.2,0.1-2.4,0.1-3.4
							C210.3,123.8,204.9,115.5,204.9,115.5z"/>
					</g>
				</g>
			</g>
		</g>
	</g>
</g>
</svg>
