<?xml version="1.0" encoding="utf-8"?>
<!-- Generator: Adobe Illustrator 22.0.1, SVG Export Plug-In . SVG Version: 6.00 Build 0)  -->
<svg version="1.1" id="Layer_1" xmlns="http://www.w3.org/2000/svg" xmlns:xlink="http://www.w3.org/1999/xlink" x="0px" y="0px"
	 viewBox="0 0 267 273.5" style="enable-background:new 0 0 267 273.5;" xml:space="preserve">
<g id="XMLID_346_">
	<g id="XMLID_358_">
		<path style="fill:#FFFFFF;" d="M89.1,155.6l-6.4-12.2c3.8-0.6,6.1-3.2,6.1-7.2c0-4.6-3.2-7.1-7.6-7.1h-10v26.4h2v-12.2h7.2
			l6.3,12.2H89.1z M80.9,130.9c3.4,0,5.8,1.7,5.8,5.3c0,3.7-2.4,5.3-5.8,5.3h-7.8v-10.7L80.9,130.9 M108.3,147.1v-0.9
			c0-5.5-2.7-8.7-7.2-8.7c-4.5,0-7.2,3.4-7.2,9.2c0,6,2.7,9.2,7.6,9.2c3,0,4.6-1,6.5-2.8l-1.4-1.1c-1.5,1.5-2.8,2.2-5,2.2
			c-3.8,0-5.8-2.5-5.8-7.1L108.3,147.1L108.3,147.1z M105.8,142.2c0.4,1.1,0.5,1.7,0.6,3.4H95.9c0.1-1.7,0.2-2.3,0.6-3.4
			c0.8-1.8,2.6-3,4.6-3C103.2,139.1,105,140.3,105.8,142.2 M120.9,139.1v-1.4h-4v-3.9c0-1.8,0.9-3,2.8-3h1.3v-1.7h-1.7
			c-2.8,0-4.3,2-4.3,4.7v3.8h-2.4v1.4h2.4v16.5h1.9v-16.5H120.9z M131.6,155.6V154h-1.3c-2.1,0-2.8-1-2.8-3v-21.7h-1.9v21.8
			c0,2.8,1.4,4.6,4.3,4.6L131.6,155.6z M148.7,147.1v-0.9c0-5.5-2.7-8.7-7.2-8.7c-4.5,0-7.2,3.4-7.2,9.2c0,6,2.7,9.2,7.6,9.2
			c3,0,4.6-1,6.5-2.8l-1.4-1.1c-1.5,1.5-2.8,2.2-5,2.2c-3.8,0-5.8-2.5-5.8-7.1L148.7,147.1L148.7,147.1z M146.2,142.2
			c0.4,1.1,0.5,1.7,0.6,3.4h-10.6c0.1-1.7,0.2-2.3,0.6-3.4c0.8-1.8,2.6-3,4.6-3C143.6,139.1,145.4,140.3,146.2,142.2 M169.4,155.6
			l-7.2-11.3l5.9-6.7h-2.4l-8.9,10.1v-18.7h-1.8v26.4h1.9v-5.1l4.1-4.7l6.2,9.9L169.4,155.6z M180.8,155.6V154h-1.3
			c-1.9,0-2.7-1.1-2.7-3v-11.9h4v-1.4h-4V132h-1.9v5.8h-2.4v1.4h2.4v11.8c0,2.7,1.5,4.7,4.3,4.7H180.8z M197.3,153.9
			c1.9-1.9,2.3-4.6,2.3-7.2c0-2.5-0.3-5.3-2.3-7.2c-1.2-1.2-3-2-5-2s-3.8,0.7-5,2c-1.9,1.9-2.3,4.6-2.3,7.2s0.3,5.3,2.3,7.2
			c1.2,1.2,3,2,5,2C194.3,155.8,196,155.1,197.3,153.9 M196,140.7c1.5,1.5,1.6,3.9,1.6,6c0,2.1-0.1,4.5-1.6,6c-1,1-2.3,1.5-3.8,1.5
			s-2.7-0.5-3.8-1.5c-1.5-1.5-1.6-3.9-1.6-6c0-2.1,0.1-4.5,1.6-6c1-1,2.3-1.5,3.8-1.5C193.7,139.1,195,139.8,196,140.7 M90.3,200.2
			l-9.5-16.4l8.2-10.1h-2.4l-13.4,16.5v-16.5h-2v26.4h2V193l6.3-7.7l8.5,14.8L90.3,200.2z M106,183.7c-1.2-1.2-2.6-1.7-4.3-1.7
			c-2.1,0-4.2,1-5.2,2.6v-2.4h-1.9v17.9h1.9v-11c0-2.9,1.7-5.4,4.8-5.4c1.5,0,2.3,0.3,3.4,1.4L106,183.7z M121.8,191.6v-0.9
			c0-5.5-2.7-8.7-7.2-8.7c-4.5,0-7.2,3.4-7.2,9.2c0,6,2.7,9.2,7.6,9.2c3,0,4.6-1,6.5-2.8l-1.4-1.1c-1.5,1.5-2.8,2.2-5,2.2
			c-3.8,0-5.8-2.5-5.8-7.1L121.8,191.6L121.8,191.6z M119.2,186.8c0.4,1.1,0.5,1.7,0.6,3.4h-10.6c0.1-1.7,0.2-2.3,0.6-3.4
			c0.8-1.8,2.6-3,4.6-3C116.6,183.7,118.4,184.8,119.2,186.8 M140.2,200.2V188c0-3.8-2.3-5.8-7-5.8c-2.9,0-4.8,0.6-6.3,2.8l1.4,1.2
			c1.1-1.7,2.4-2.3,5-2.3c3.7,0,5.1,1.5,5.1,4.4v2h-5.8c-3.9,0-6.3,1.9-6.3,5.1c0,1.3,0.5,2.6,1.3,3.5c1.1,1.2,2.6,1.7,5.2,1.7
			c2.5,0,3.9-0.5,5.5-2v1.7L140.2,200.2L140.2,200.2z M138.4,193.9c0,1.7-0.3,2.8-1,3.4c-1.2,1.2-2.8,1.4-4.4,1.4
			c-3.2,0-4.7-1.1-4.7-3.5s1.5-3.6,4.5-3.6h5.6V193.9L138.4,193.9z M153.7,200.2v-1.7h-1.3c-1.9,0-2.7-1.1-2.7-3v-11.9h4v-1.5h-4
			v-5.8h-1.9v5.8h-2.4v1.4h2.4v11.8c0,2.7,1.5,4.7,4.3,4.7L153.7,200.2L153.7,200.2z M159.2,176h2.4v-2.4h-2.4V176z M159.4,200.2
			h1.9v-17.9h-1.9V200.2z M180.4,182.2h-2.1l-5.4,15.7l-5.4-15.7h-2.1l6.5,17.9h1.8L180.4,182.2z M195.2,198.5
			c1.9-1.9,2.3-4.6,2.3-7.2c0-2.5-0.3-5.3-2.3-7.2c-1.2-1.2-3-2-5-2c-2,0-3.8,0.7-5,2c-1.9,1.9-2.3,4.6-2.3,7.2
			c0,2.5,0.3,5.3,2.3,7.2c1.2,1.2,3,2,5,2C192.2,200.4,194,199.7,195.2,198.5 M194,185.2c1.5,1.5,1.6,3.9,1.6,6c0,2.1-0.1,4.5-1.6,6
			c-1,1-2.3,1.5-3.8,1.5s-2.7-0.5-3.8-1.5c-1.5-1.5-1.6-3.9-1.6-6c0-2.1,0.1-4.5,1.6-6c1-1,2.3-1.5,3.8-1.5S193,184.2,194,185.2"/>
	</g>
	<g id="XMLID_352_">
		<path style="fill:#FFFFFF;" d="M134.7,81.1l-18.1-30.2c3.9-0.8,7.8-2.7,10.8-5.7c3.5-3.4,7.6-9.5,7.6-19.7c0-5-2.4-10.3-5.9-14.2
			c-3.3-3.7-9.5-7.7-19.7-7.7H75.6c-1,0-2,0.9-2,1.9v76.7c0,0.8,0.5,1.4,1.1,1.7c0.3,0.1,0.6,0.2,0.9,0.2c0.6,0,1-0.2,1.4-0.5
			l11.5-10.3l0.2-0.2c0.3-0.3,0.5-0.8,0.5-1.3V51.1h22.8l19.2,32c0.4,0.5,1,0.9,1.7,0.9c0.4,0,0.7-0.1,1.1-0.3
			C135,83.3,135.3,82,134.7,81.1z M85,71l-7.4,6.6V51.1H85V71z M85,47.1h-7.4V7.6H85V47.1z M89.2,47.1V13l20.4,34.1H89.2z M90.8,7.7
			h18.4c8.7,0,14,3.4,16.8,6.5c3.5,3.8,5,8.4,5,11.3c0,8.9-3.5,13.9-6.4,16.7c-3.4,3.2-7.3,4.5-10.3,4.8L90.8,7.7z"/>
	</g>
	<g id="XMLID_349_">
		<path style="fill:#FFFFFF;" d="M173.1,44.3l23.7-37.8c0.6-1,0.3-2.2-0.5-2.8c-1-0.6-2.2-0.3-2.8,0.7l-24,37.9h-9.1v-37
			c0-1.1-0.9-2-2.1-2c-1.1,0-2,0.9-2,2v37h-7.7v-37c0-1.1-0.9-2-2.1-2c-1,0-2,0.9-2,2v76.8l0.1,0.5c0.1,0.5,0.4,1,0.9,1.3l0.4,0.1
			c0.2,0.1,0.4,0.1,0.6,0.1c0.7,0,1.4-0.2,1.8-0.9l22.2-35.2l22.8,35.3c0.4,0.6,1,0.8,1.7,0.8c0.4,0,0.8-0.1,1.2-0.2
			c0.8-0.7,1.1-1.9,0.5-2.8L173.1,44.3z M148.8,75.2V46.4h18.3L148.8,75.2z"/>
	</g>
	<g id="XMLID_347_">
		<g id="XMLID_348_">
			<path style="fill:#FFFFFF;" d="M232.7,120.8c-0.2,0-0.3,0-0.4-0.1l-33.3-12H69.4l-34.1,12c-0.7,0.3-1.5-0.1-1.7-0.8
				c-0.3-0.7,0.1-1.5,0.8-1.7l34.8-12.1h130.2l33.8,12.1c0.7,0.3,1,1,0.8,1.7C233.8,120.5,233.3,120.8,232.7,120.8z"/>
		</g>
	</g>
</g>
</svg>
