<?xml version="1.0" encoding="utf-8"?>
<!-- Generator: Adobe Illustrator 21.0.2, SVG Export Plug-In . SVG Version: 6.00 Build 0)  -->
<svg version="1.1" id="Layer_1" xmlns="http://www.w3.org/2000/svg" xmlns:xlink="http://www.w3.org/1999/xlink" x="0px" y="0px"
	 viewBox="0 0 267 273.5" style="enable-background:new 0 0 267 273.5;" xml:space="preserve">
<style type="text/css">
	.st0{fill:#FFFFFF;}
</style>
<g id="XMLID_346_">
	<g id="XMLID_358_">
		<path class="st0" d="M82.5,199.5l-7.3-14c4.3-0.7,7-3.7,7-8.2c0-5.3-3.7-8.1-8.7-8.1l-11.5,0l0,30.3l2.3,0l0-14l8.3,0l7.2,14
			L82.5,199.5z M73.1,171.2c3.9,0,6.7,2,6.7,6.1c0,4.2-2.8,6.1-6.7,6.1l-8.9,0l0-12.3L73.1,171.2 M104.6,189.7v-1
			c0-6.3-3.1-10-8.2-10c-5.2,0-8.2,3.9-8.2,10.5c0,6.9,3.1,10.5,8.7,10.5c3.4,0,5.3-1.1,7.4-3.2l-1.6-1.3c-1.7,1.7-3.2,2.5-5.7,2.5
			c-4.3,0-6.7-2.9-6.7-8.1L104.6,189.7L104.6,189.7z M101.7,184.1c0.5,1.3,0.6,1.9,0.7,3.9l-12.1,0c0.1-2,0.2-2.6,0.7-3.9
			c0.9-2.1,3-3.4,5.3-3.4C98.7,180.6,100.8,181.9,101.7,184.1 M119,180.6V179l-4.6,0v-4.5c0-2.1,1-3.4,3.2-3.4l1.5,0v-1.9h-1.9
			c-3.2,0-4.9,2.3-4.9,5.4l0,4.4h-2.8v1.6h2.8l0,18.9l2.2,0l0-18.9L119,180.6z M131.3,199.5v-1.9h-1.5c-2.4,0-3.2-1.1-3.2-3.4
			l0-24.9h-2.2l0,25c0,3.2,1.6,5.3,4.9,5.3L131.3,199.5z M150.9,189.7v-1c0-6.3-3.1-10-8.2-10c-5.2,0-8.2,3.9-8.2,10.5
			c0,6.9,3.1,10.5,8.7,10.5c3.4,0,5.3-1.1,7.4-3.2l-1.6-1.3c-1.7,1.7-3.2,2.5-5.7,2.5c-4.3,0-6.7-2.9-6.7-8.1L150.9,189.7
			L150.9,189.7z M148,184.1c0.5,1.3,0.6,1.9,0.7,3.9l-12.1,0c0.1-2,0.2-2.6,0.7-3.9c0.9-2.1,3-3.4,5.3-3.4
			C145.1,180.6,147.1,181.9,148,184.1 M174.6,199.5l-8.3-12.9l6.8-7.7l-2.8,0l-10.2,11.6l0-21.4H158l0,30.3h2.2v-5.9l4.7-5.4
			l7.1,11.3L174.6,199.5z M187.7,199.5l0-1.9l-1.5,0c-2.2,0-3.1-1.3-3.1-3.4v-13.6l4.6,0V179l-4.6,0v-6.6h-2.2v6.6l-2.8,0v1.6l2.8,0
			l0,13.5c0,3.1,1.7,5.4,4.9,5.4L187.7,199.5z M206.6,197.5c2.2-2.2,2.6-5.3,2.6-8.3c0-2.9-0.4-6.1-2.6-8.3
			c-1.4-1.4-3.4-2.3-5.7-2.3c-2.3,0-4.3,0.8-5.7,2.3c-2.2,2.2-2.6,5.3-2.6,8.3s0.4,6.1,2.6,8.3c1.4,1.4,3.4,2.3,5.7,2.3
			C203.2,199.7,205.1,198.9,206.6,197.5 M205.1,182.4c1.7,1.7,1.8,4.5,1.8,6.9s-0.1,5.2-1.8,6.9c-1.1,1.1-2.6,1.7-4.3,1.7
			c-1.7,0-3.1-0.6-4.3-1.7c-1.7-1.7-1.8-4.5-1.8-6.9c0-2.4,0.1-5.2,1.8-6.9c1.1-1.1,2.6-1.7,4.3-1.7
			C202.5,180.6,204,181.3,205.1,182.4 M83.9,250.6L73,231.8l9.4-11.6l-2.8,0l-15.4,18.9l0-18.9h-2.3l0,30.3h2.3l0-8.2l7.2-8.8
			l9.7,17L83.9,250.6z M101.9,231.7c-1.4-1.4-3-2-4.9-2c-2.4,0-4.8,1.1-6,3V230l-2.2,0l0,20.5l2.2,0l0-12.6c0-3.3,2-6.2,5.5-6.2
			c1.7,0,2.6,0.4,3.9,1.6L101.9,231.7z M120,240.8v-1c0-6.3-3.1-10-8.2-10c-5.2,0-8.2,3.9-8.2,10.5c0,6.9,3.1,10.5,8.7,10.5
			c3.4,0,5.3-1.1,7.4-3.2l-1.6-1.3c-1.7,1.7-3.2,2.5-5.7,2.5c-4.3,0-6.7-2.9-6.7-8.1L120,240.8L120,240.8z M117.1,235.2
			c0.5,1.3,0.6,1.9,0.7,3.9l-12.1,0c0.1-2,0.2-2.6,0.7-3.9c0.9-2.1,3-3.4,5.3-3.4C114.1,231.7,116.2,233,117.1,235.2 M141.2,250.6
			v-14c0-4.3-2.6-6.7-8-6.7c-3.3,0-5.5,0.7-7.2,3.2l1.6,1.4c1.3-1.9,2.8-2.6,5.7-2.6c4.2,0,5.8,1.7,5.8,5l0,2.3l-6.6,0
			c-4.5,0-7.2,2.2-7.2,5.9c0,1.5,0.6,3,1.5,4c1.3,1.4,3,1.9,6,1.9c2.9,0,4.5-0.6,6.3-2.3v2L141.2,250.6L141.2,250.6z M139.1,243.4
			c0,1.9-0.4,3.2-1.1,3.9c-1.4,1.4-3.2,1.6-5.1,1.6c-3.7,0-5.4-1.3-5.4-4c0-2.7,1.7-4.1,5.2-4.1l6.4,0V243.4z M156.6,250.6v-1.9
			h-1.5c-2.2,0-3.1-1.3-3.1-3.4l0-13.6l4.6,0V230l-4.6,0v-6.6h-2.2l0,6.6H147v1.6l2.8,0v13.5c0,3.1,1.7,5.4,4.9,5.4L156.6,250.6
			L156.6,250.6z M162.9,222.9h2.7v-2.7l-2.7,0V222.9z M163.2,250.6h2.2l0-20.5h-2.2L163.2,250.6z M187.2,230l-2.4,0l-6.2,18l-6.2-18
			l-2.4,0l7.5,20.5h2.1L187.2,230z M204.2,248.6c2.2-2.2,2.6-5.3,2.6-8.3c0-2.9-0.4-6.1-2.6-8.3c-1.4-1.4-3.4-2.3-5.7-2.3
			c-2.3,0-4.3,0.8-5.7,2.3c-2.2,2.2-2.6,5.3-2.6,8.3c0,2.9,0.4,6.1,2.6,8.3c1.4,1.4,3.4,2.3,5.7,2.3
			C200.8,250.8,202.8,250,204.2,248.6 M202.8,233.4c1.7,1.7,1.8,4.5,1.8,6.9c0,2.4-0.1,5.2-1.8,6.9c-1.1,1.1-2.6,1.7-4.3,1.7
			c-1.7,0-3.1-0.6-4.3-1.7c-1.7-1.7-1.8-4.5-1.8-6.9c0-2.4,0.1-5.2,1.8-6.9c1.1-1.1,2.6-1.7,4.3-1.7
			C200.2,231.7,201.7,232.3,202.8,233.4"/>
	</g>
	<g id="XMLID_352_">
		<path class="st0" d="M134.8,114l-20.8-34.6c4.5-0.9,8.9-3.1,12.4-6.5c4-3.9,8.7-10.9,8.7-22.6c0-5.7-2.7-11.8-6.8-16.3
			c-3.8-4.2-10.9-8.8-22.6-8.8l-38.6,0c-1.2,0-2.3,1-2.3,2.2l0,88c0,0.9,0.6,1.6,1.3,2c0.3,0.1,0.7,0.2,1,0.2c0.7,0,1.2-0.2,1.6-0.6
			l13.2-11.8l0.2-0.2c0.3-0.3,0.6-0.9,0.6-1.5l0-23.8l26.2,0l22,36.7c0.5,0.6,1.2,1,2,1c0.5,0,0.8-0.1,1.3-0.4
			C135.2,116.6,135.5,115.1,134.8,114z M77.9,102.5l-8.5,7.6l0-30.4l8.5,0L77.9,102.5z M77.9,75.1l-8.5,0l0-45.3l8.5,0L77.9,75.1z
			 M82.7,75.1l0-39.1l23.4,39.1L82.7,75.1z M84.5,29.9l21.1,0c10,0,16,3.9,19.3,7.4c4,4.3,5.7,9.6,5.7,13c0,10.2-4,15.9-7.3,19.2
			c-3.9,3.7-8.4,5.2-11.8,5.5L84.5,29.9z"/>
	</g>
	<g id="XMLID_349_">
		<path class="st0" d="M178.9,71.8l27.2-43.3c0.7-1.2,0.3-2.5-0.6-3.2c-1.2-0.7-2.5-0.3-3.2,0.8l-27.5,43.5l-10.4,0l0-42.4
			c0-1.3-1-2.3-2.4-2.3c-1.3,0-2.3,1-2.3,2.3l0,42.4l-8.8,0l0-42.4c0-1.3-1-2.3-2.4-2.3c-1.2,0-2.3,1-2.3,2.3l0,88.1l0.1,0.6
			c0.1,0.6,0.5,1.2,1,1.5l0.5,0.1c0.2,0.1,0.5,0.1,0.7,0.1c0.8,0,1.6-0.2,2.1-1l25.5-40.4l26.2,40.5c0.5,0.7,1.2,0.9,1.9,0.9
			c0.5,0,0.9-0.1,1.4-0.2c0.9-0.8,1.3-2.2,0.6-3.2L178.9,71.8z M151,107.3l0-33.1l21,0L151,107.3z"/>
	</g>
	<g id="XMLID_347_">
		<g id="XMLID_348_">
			<path class="st0" d="M247.2,159.6c-0.2,0-0.3,0-0.5-0.1l-38.2-13.8l-148.5,0l-39.1,13.8c-0.8,0.3-1.7-0.1-2-0.9
				c-0.3-0.8,0.1-1.7,0.9-2l39.9-13.9l149.3,0l38.7,13.9c0.8,0.3,1.2,1.2,0.9,2C248.5,159.2,247.9,159.6,247.2,159.6z"/>
		</g>
	</g>
</g>
</svg>
