<svg xmlns="http://www.w3.org/2000/svg" viewBox="0 0 267 273.5">
  <path fill="#fff" d="M89.1 155.6l-6.4-12.2c3.8-.6 6.1-3.2 6.1-7.2 0-4.6-3.2-7.1-7.6-7.1h-10v26.4h2v-12.2h7.2l6.3 12.2h2.4zm-8.2-24.7c3.4 0 5.8 1.7 5.8 5.3 0 3.7-2.4 5.3-5.8 5.3h-7.8v-10.7l7.8.1m27.4 16.2v-.9c0-5.5-2.7-8.7-7.2-8.7s-7.2 3.4-7.2 9.2c0 6 2.7 9.2 7.6 9.2 3 0 4.6-1 6.5-2.8l-1.4-1.1a6.3 6.3 0 0 1-5 2.2c-3.8 0-5.8-2.5-5.8-7.1h12.5zm-2.5-4.9c.4 1.1.5 1.7.6 3.4H95.9c.1-1.7.2-2.3.6-3.4a5 5 0 0 1 4.6-3 4.8 4.8 0 0 1 4.7 3m15.1-3.1v-1.4h-4v-3.9c0-1.8.9-3 2.8-3h1.3v-1.7h-1.7c-2.8 0-4.3 2-4.3 4.7v3.8h-2.4v1.4h2.4v16.5h1.9V139h4zm10.7 16.5V154h-1.3c-2.1 0-2.8-1-2.8-3v-21.7h-1.9v21.8c0 2.8 1.4 4.6 4.3 4.6l1.7-.1zm17.1-8.5v-.9c0-5.5-2.7-8.7-7.2-8.7s-7.2 3.4-7.2 9.2c0 6 2.7 9.2 7.6 9.2 3 0 4.6-1 6.5-2.8L147 152a6.3 6.3 0 0 1-5 2.2c-3.8 0-5.8-2.5-5.8-7.1h12.5zm-2.5-4.9c.4 1.1.5 1.7.6 3.4h-10.6c.1-1.7.2-2.3.6-3.4a5 5 0 0 1 4.6-3c2.2-.1 4 1.1 4.8 3m23.2 13.4l-7.2-11.3 5.9-6.7h-2.4l-8.9 10.1V129H155v26.4h1.9v-5.1l4.1-4.7 6.2 9.9 2.2.1zm11.4 0V154h-1.3c-1.9 0-2.7-1.1-2.7-3v-11.9h4v-1.4h-4V132h-1.9v5.8h-2.4v1.4h2.4V151c0 2.7 1.5 4.7 4.3 4.7h1.6zm16.5-1.7c1.9-1.9 2.3-4.6 2.3-7.2 0-2.5-.3-5.3-2.3-7.2-1.2-1.2-3-2-5-2s-3.8.7-5 2c-1.9 1.9-2.3 4.6-2.3 7.2s.3 5.3 2.3 7.2c1.2 1.2 3 2 5 2 2-.1 3.7-.8 5-2m-1.3-13.2c1.5 1.5 1.6 3.9 1.6 6s-.1 4.5-1.6 6c-1 1-2.3 1.5-3.8 1.5s-2.7-.5-3.8-1.5c-1.5-1.5-1.6-3.9-1.6-6s.1-4.5 1.6-6c1-1 2.3-1.5 3.8-1.5 1.5-.1 2.8.6 3.8 1.5M90.3 200.2l-9.5-16.4 8.2-10.1h-2.4l-13.4 16.5v-16.5h-2v26.4h2V193l6.3-7.7 8.5 14.8 2.3.1zm15.7-16.5a5.7 5.7 0 0 0-4.3-1.7c-2.1 0-4.2 1-5.2 2.6v-2.4h-1.9v17.9h1.9v-11c0-2.9 1.7-5.4 4.8-5.4a4 4 0 0 1 3.4 1.4l1.3-1.4zm15.8 7.9v-.9c0-5.5-2.7-8.7-7.2-8.7s-7.2 3.4-7.2 9.2c0 6 2.7 9.2 7.6 9.2 3 0 4.6-1 6.5-2.8l-1.4-1.1a6.3 6.3 0 0 1-5 2.2c-3.8 0-5.8-2.5-5.8-7.1h12.5zm-2.6-4.8c.4 1.1.5 1.7.6 3.4h-10.6c.1-1.7.2-2.3.6-3.4a5 5 0 0 1 4.6-3c2.2-.1 4 1 4.8 3m21 13.4V188c0-3.8-2.3-5.8-7-5.8-2.9 0-4.8.6-6.3 2.8l1.4 1.2c1.1-1.7 2.4-2.3 5-2.3 3.7 0 5.1 1.5 5.1 4.4v2h-5.8c-3.9 0-6.3 1.9-6.3 5.1 0 1.3.5 2.6 1.3 3.5 1.1 1.2 2.6 1.7 5.2 1.7 2.5 0 3.9-.5 5.5-2v1.7l1.9-.1zm-1.8-6.3c0 1.7-.3 2.8-1 3.4-1.2 1.2-2.8 1.4-4.4 1.4-3.2 0-4.7-1.1-4.7-3.5s1.5-3.6 4.5-3.6h5.6v2.3zm15.3 6.3v-1.7h-1.3c-1.9 0-2.7-1.1-2.7-3v-11.9h4v-1.5h-4v-5.8h-1.9v5.8h-2.4v1.4h2.4v11.8c0 2.7 1.5 4.7 4.3 4.7l1.6.2zm5.5-24.2h2.4v-2.4h-2.4v2.4zm.2 24.2h1.9v-17.9h-1.9v17.9zm21-18h-2.1l-5.4 15.7-5.4-15.7h-2.1l6.5 17.9h1.8l6.7-17.9zm14.8 16.3c1.9-1.9 2.3-4.6 2.3-7.2 0-2.5-.3-5.3-2.3-7.2-1.2-1.2-3-2-5-2s-3.8.7-5 2c-1.9 1.9-2.3 4.6-2.3 7.2 0 2.5.3 5.3 2.3 7.2 1.2 1.2 3 2 5 2 2-.1 3.8-.8 5-2m-1.2-13.3c1.5 1.5 1.6 3.9 1.6 6s-.1 4.5-1.6 6c-1 1-2.3 1.5-3.8 1.5s-2.7-.5-3.8-1.5c-1.5-1.5-1.6-3.9-1.6-6s.1-4.5 1.6-6c1-1 2.3-1.5 3.8-1.5s2.8.5 3.8 1.5M134.7 81.1l-18.1-30.2c3.9-.8 7.8-2.7 10.8-5.7 3.5-3.4 7.6-9.5 7.6-19.7 0-5-2.4-10.3-5.9-14.2a25.4 25.4 0 0 0-19.7-7.7H75.6c-1 0-2 .9-2 1.9v76.7a2 2 0 0 0 1.1 1.7l.9.2c.6 0 1-.2 1.4-.5l11.5-10.3.2-.2c.3-.3.5-.8.5-1.3V51.1H112l19.2 32c.4.5 1 .9 1.7.9.4 0 .7-.1 1.1-.3 1-.4 1.3-1.7.7-2.6zM85 71l-7.4 6.6V51.1H85V71zm0-23.9h-7.4V7.6H85v39.5zm4.2 0V13l20.4 34.1H89.2zm1.6-39.4h18.4c8.7 0 14 3.4 16.8 6.5 3.5 3.8 5 8.4 5 11.3a22 22 0 0 1-6.4 16.7 17.8 17.8 0 0 1-10.3 4.8L90.8 7.7zM173.1 44.3l23.7-37.8c.6-1 .3-2.2-.5-2.8a2 2 0 0 0-2.8.7l-24 37.9h-9.1v-37a2 2 0 0 0-2.1-2 2 2 0 0 0-2 2v37h-7.7v-37a2 2 0 0 0-2.1-2c-1 0-2 .9-2 2v76.8l.1.5c.1.5.4 1 .9 1.3l.4.1.6.1c.7 0 1.4-.2 1.8-.9L170.5 48l22.8 35.3c.4.6 1 .8 1.7.8a5 5 0 0 0 1.2-.2c.8-.7 1.1-1.9.5-2.8l-23.6-36.8zm-24.3 30.9V46.4h18.3l-18.3 28.8zM232.7 120.8l-.4-.1-33.3-12H69.4l-34.1 12c-.7.3-1.5-.1-1.7-.8-.3-.7.1-1.5.8-1.7l34.8-12.1h130.2l33.8 12.1c.7.3 1 1 .8 1.7-.2.6-.7.9-1.3.9z"/>
</svg>